<?xml version="1.0" standalone="no"?>
<!DOCTYPE svg PUBLIC "-//W3C//DTD SVG 1.1//EN" "http://www.w3.org/Graphics/SVG/1.1/DTD/svg11.dtd" >
<svg xmlns="http://www.w3.org/2000/svg" xmlns:xlink="http://www.w3.org/1999/xlink" version="1.1">
<metadata></metadata>
<defs>
<font id="liberation_sansregular" horiz-adv-x="1116" >
<font-face units-per-em="2048" ascent="1638" descent="-410" />
<missing-glyph horiz-adv-x="557" />
<glyph horiz-adv-x="0" />
<glyph unicode="&#xd;" horiz-adv-x="557" />
<glyph unicode=" "  horiz-adv-x="557" />
<glyph unicode="&#x09;" horiz-adv-x="557" />
<glyph unicode="&#xa0;" horiz-adv-x="557" />
<glyph unicode="!" horiz-adv-x="557" d="M352 389h-145l-24 992h192zM181 0v197h190v-197h-190z" />
<glyph unicode="&#x22;" horiz-adv-x="712" d="M606 947h-140l-19 434h180zM244 947h-138l-21 434h181z" />
<glyph unicode="#" d="M878 867l-76 -361h254v-106h-277l-86 -400h-108l84 400h-355l-83 -400h-108l83 400h-197v106h220l77 361h-247v106h268l88 400h107l-86 -400h356l86 400h108l-86 -400h206v-106h-228zM416 867l-78 -361h355l76 361h-353z" />
<glyph unicode="$" d="M508 20q-213 8 -333 99t-153 252l166 37q11 -52 33.5 -95t60.5 -74t93.5 -50t132.5 -24v486l-20 5q-75 17 -147.5 41.5t-129.5 65.5t-92 103.5t-35 158.5q0 82 31.5 143t88 101.5t134 62t170.5 25.5v129h121v-129q98 -5 169 -27t121 -61t82.5 -95.5t52.5 -129.5l-171 -33 q-20 92 -79.5 143.5t-174.5 62.5v-436q58 -14 114 -28.5t106.5 -34.5t93.5 -47.5t74.5 -66.5t49 -92t17.5 -124q0 -75 -27.5 -139.5t-83.5 -113.5t-141.5 -79.5t-202.5 -35.5v-159h-121v159zM915 386q0 62 -23 101t-62.5 64t-91.5 41t-109 30v-458q64 4 117 19t90.5 42.5 t58 67t20.5 93.5zM253 1027q0 -53 19.5 -89t54 -60.5t81 -41t100.5 -29.5v412q-71 -4 -120 -20t-79 -41.5t-43 -59t-13 -71.5z" />
<glyph unicode="%" horiz-adv-x="1784" d="M1713 425q0 -122 -25 -206t-67.5 -135.5t-99.5 -73.5t-122 -22q-64 0 -120.5 22t-98 73t-65.5 135t-24 207q0 131 23.5 216t65.5 135.5t99.5 70.5t123.5 20q65 0 121.5 -20t98 -70.5t66 -135.5t24.5 -216zM516 0h-151l903 1381h154zM386 1393q63 0 119 -20.5t98 -70.5 t66 -134t24 -212q0 -124 -24.5 -208.5t-66 -136.5t-98.5 -74.5t-122 -22.5t-122 22.5t-98.5 74t-65.5 136t-24 209.5q0 128 24 212t66 134t99.5 70.5t124.5 20.5zM1568 425q0 97 -11 161.5t-32 102.5t-51.5 54t-70.5 16q-41 0 -72.5 -16.5t-53 -54.5t-32 -102.5 t-10.5 -160.5q0 -93 11 -155.5t32 -101.5t52 -55.5t71 -16.5q39 0 69.5 16.5t52 55.5t33.5 101.5t12 155.5zM549 956q0 96 -11 159.5t-31.5 101.5t-51 54t-69.5 16q-42 0 -74 -16.5t-53.5 -54.5t-32 -101.5t-10.5 -158.5q0 -94 11 -157.5t32 -102t52.5 -55.5t72.5 -17 q37 0 67.5 17t52 55.5t33.5 102t12 157.5z" />
<glyph unicode="&#x26;" horiz-adv-x="1338" d="M1169 -12q-94 0 -164.5 32.5t-127.5 92.5q-29 -26 -66.5 -49.5t-83 -42t-99 -30t-115.5 -11.5q-115 0 -199 29.5t-138 81t-79.5 121.5t-25.5 152q0 77 25 140t69.5 114.5t106 92.5t135.5 73q-18 33 -32 71t-25 76t-17 76.5t-6 72.5q0 65 20 121t61.5 98t106.5 66t156 24 q72 0 132 -19t104.5 -54t69 -87t24.5 -119q0 -73 -32.5 -130.5t-87.5 -102.5t-127.5 -81.5t-153.5 -69.5q61 -112 132.5 -210.5t154.5 -193.5q60 89 99.5 186.5t67.5 215.5l143 -42q-35 -136 -87.5 -247.5t-120.5 -212.5q52 -52 104 -74t100 -22q31 0 60 3.5t54 12.5v-132 q-27 -11 -64 -16.5t-74 -5.5zM852 1110q0 37 -13.5 66t-37 50.5t-57.5 32.5t-75 11q-94 0 -143 -50.5t-49 -139.5q0 -58 18.5 -121t45.5 -118q64 25 120.5 52t99 59t67 70.5t24.5 87.5zM779 213q-87 103 -167.5 215.5t-145.5 232.5q-110 -48 -170.5 -120.5t-60.5 -174.5 q0 -54 17.5 -100.5t52.5 -81.5t88.5 -55t124.5 -20q44 0 82.5 9t72 24t60.5 33.5t46 37.5z" />
<glyph unicode="'" horiz-adv-x="383" d="M261 947h-139l-20 434h180z" />
<glyph unicode="(" horiz-adv-x="668" d="M124 521q0 137 21 261t65 239t112.5 222.5t163.5 210.5h171q-93 -103 -160 -211t-110 -223t-64 -239.5t-21 -261.5q0 -136 21 -260.5t64 -240t110 -223.5t160 -211h-171q-95 103 -163.5 211t-112.5 222.5t-65 238.5t-21 261v4z" />
<glyph unicode=")" horiz-adv-x="668" d="M544 517q0 -137 -20.5 -261t-64.5 -238.5t-113 -222.5t-164 -211h-170q92 103 159 211t110 223.5t64.5 240t21.5 260.5q0 137 -21.5 261.5t-64.5 239.5t-110 223t-159 211h170q95 -103 164 -210.5t113 -222.5t64.5 -239t20.5 -261v-4z" />
<glyph unicode="*" horiz-adv-x="781" d="M447 1092l259 101l44 -130l-277 -71l182 -245l-117 -71l-147 253l-153 -251l-116 71l185 243l-275 71l44 132l262 -105l-12 291h134z" />
<glyph unicode="+" horiz-adv-x="1172" d="M658 596v-420h-144v420h-416v143h416v419h144v-419h415v-143h-415z" />
<glyph unicode="," horiz-adv-x="557" d="M377 215v-165q0 -52 -4.5 -94.5t-14 -79.5t-24 -69t-33.5 -64h-121q44 64 68 128.5t24 128.5h-86v215h191z" />
<glyph unicode="-" horiz-adv-x="668" d="M89 455v157h490v-157h-490z" />
<glyph unicode="." horiz-adv-x="557" d="M183 0v215h191v-215h-191z" />
<glyph unicode="/" horiz-adv-x="557" d="M0 -20l403 1474h155l-399 -1474h-159z" />
<glyph unicode="0" d="M1038 691q0 -199 -38 -335t-103 -219.5t-153 -120t-188 -36.5q-101 0 -188.5 36.5t-151.5 120t-101 219t-37 335.5q0 209 37 345.5t101.5 218t153 114t192.5 32.5q99 0 185.5 -32.5t151 -114t102 -218t37.5 -345.5zM858 691q0 165 -19.5 274t-57.5 174t-93.5 92 t-125.5 27q-75 0 -132 -27.5t-95.5 -92.5t-58 -174t-19.5 -273q0 -159 20 -267.5t58.5 -175t94.5 -95.5t128 -29q69 0 125 29t94.5 95.5t59.5 175t21 267.5z" />
<glyph unicode="1" d="M153 0v150h352v1062l-312 -222v166l326 225h163v-1231h336v-150h-865z" />
<glyph unicode="2" d="M101 0v124q50 115 122 203t151.5 159t157.5 131.5t140.5 121.5t101 127.5t38.5 150.5q0 59 -17.5 103.5t-51 75t-80 45.5t-102.5 15q-53 0 -99.5 -14.5t-83 -44t-59.5 -73t-30 -101.5l-180 17q9 74 41 140t89 115.5t137 77.5t185 28q102 0 182.5 -24.5t136 -72.5 t85 -118.5t29.5 -162.5q0 -69 -25 -132t-67 -120t-96.5 -109.5t-114.5 -103t-120.5 -100t-114 -99.5t-96 -101.5t-65.5 -107.5h720v-150h-914z" />
<glyph unicode="3" d="M1028 381q0 -95 -31 -169.5t-90 -126t-147 -78.5t-200 -27q-129 0 -216.5 32t-144.5 84.5t-85.5 119.5t-37.5 139l183 16q8 -54 29 -99.5t57 -77.5t89 -50t126 -18q133 0 209 66t76 195q0 77 -34 123.5t-84.5 72.5t-109.5 34.5t-109 8.5h-100v153h96q50 0 104 10.5 t98.5 37.5t73 73t28.5 117q0 111 -65 175t-193 64q-117 0 -189 -59.5t-84 -168.5l-177 14q11 91 50 158.5t99.5 112t138 66.5t164.5 22q115 0 198.5 -28.5t136.5 -78t78 -116.5t25 -142q0 -61 -17 -114t-52 -95t-89.5 -72.5t-130.5 -45.5v-4q83 -9 144.5 -38t102 -72 t60.5 -98t20 -116z" />
<glyph unicode="4" d="M863 313v-313h-166v313h-651v137l632 931h185v-929h194v-139h-194zM697 1182q-2 -5 -10 -19t-17.5 -32t-20 -36t-18.5 -30l-354 -521q-5 -8 -14 -20.5t-19 -26t-19.5 -26t-15.5 -19.5h488v730z" />
<glyph unicode="5" d="M1032 450q0 -104 -31.5 -190.5t-93 -148.5t-153.5 -96.5t-212 -34.5q-109 0 -190 25.5t-136.5 70.5t-88.5 104.5t-47 128.5l179 20q11 -39 30.5 -75.5t53 -65.5t83 -46.5t120.5 -17.5q68 0 124 21.5t96 62.5t61.5 100.5t21.5 137.5q0 64 -20.5 117t-59 92t-94 60.5 t-125.5 21.5q-44 0 -81.5 -8t-69 -21.5t-57.5 -31.5t-49 -38h-172l46 743h785v-150h-625l-26 -438q47 36 117.5 62t167.5 26q103 0 185.5 -31.5t140 -88.5t89 -136.5t31.5 -174.5z" />
<glyph unicode="6" d="M1028 452q0 -104 -29 -191t-85 -149t-139.5 -97t-192.5 -35q-120 0 -210.5 46.5t-150 133t-89.5 212.5t-30 287q0 184 34 323t97.5 232t155 140t207.5 47q70 0 132 -14.5t112.5 -47.5t88.5 -86.5t61 -132.5l-169 -30q-27 89 -87.5 128.5t-139.5 39.5q-73 0 -131.5 -34 t-100 -102t-63.5 -171t-22 -241q48 90 135.5 136.5t199.5 46.5q95 0 171 -30.5t130.5 -88t84.5 -139t30 -183.5zM849 444q0 71 -18 129t-53 98.5t-87 63t-121 22.5q-48 0 -97 -14.5t-88.5 -46.5t-64.5 -83.5t-25 -126.5q0 -76 19.5 -142.5t56.5 -115.5t89 -77.5t116 -28.5 t114.5 22.5t85.5 64t54 101t19 134.5z" />
<glyph unicode="7" d="M1015 1238q-104 -159 -191 -305.5t-149.5 -295t-97.5 -305t-35 -332.5h-184q0 166 39 325t105.5 312.5t155 301.5t187.5 292h-742v150h912v-143z" />
<glyph unicode="8" d="M1029 385q0 -88 -28 -162t-85.5 -128t-146.5 -84.5t-210 -30.5q-122 0 -210.5 30.5t-147 84t-86.5 127.5t-28 161q0 76 23 134.5t62 101.5t88.5 68.5t102.5 34.5v4q-58 14 -103.5 44.5t-76.5 73t-47 94.5t-16 110q0 72 27.5 136.5t82.5 113t136.5 76t188.5 27.5 q112 0 195 -28t137.5 -76.5t81 -113.5t26.5 -137q0 -57 -16.5 -109t-47 -94.5t-76.5 -72.5t-105 -42v-4q59 -10 110 -36t88.5 -68.5t59 -101t21.5 -133.5zM811 1036q0 52 -13 95t-43.5 74t-79.5 48t-120 17q-70 0 -118 -17t-79 -48t-44.5 -74t-13.5 -95q0 -41 10.5 -84.5 t39 -78.5t78.5 -57.5t129 -22.5q83 0 133.5 22.5t77.5 57.5t35 78.5t8 84.5zM846 402q0 50 -14 96.5t-47 82t-89.5 58t-140.5 22.5q-78 0 -132.5 -22.5t-88 -58.5t-49 -83.5t-15.5 -98.5q0 -64 15.5 -116.5t49.5 -90t90 -58t136 -20.5t135 20.5t88 58t47.5 91t14.5 119.5z " />
<glyph unicode="9" d="M1021 718q0 -184 -34.5 -322.5t-99.5 -230.5t-157.5 -138.5t-208.5 -46.5q-79 0 -142.5 16.5t-113.5 50.5t-85.5 89t-57.5 133l169 26q27 -89 85.5 -131t147.5 -42q72 0 131 34t101 101.5t65.5 169.5t25.5 239q-21 -46 -56.5 -82t-81.5 -61t-98.5 -38.5t-106.5 -13.5 q-94 0 -170 34t-129 95t-82 146.5t-29 190.5q0 107 31 193t89.5 146.5t144.5 92.5t195 32q230 0 348.5 -170.5t118.5 -512.5zM829 889q0 76 -18 144t-54 117.5t-88.5 78.5t-120.5 29q-64 0 -115 -22.5t-86 -64t-54.5 -101.5t-19.5 -133q0 -70 17.5 -129.5t51.5 -103 t85 -68.5t119 -25q49 0 99.5 16.5t91 50.5t66.5 86.5t26 124.5z" />
<glyph unicode=":" horiz-adv-x="557" d="M183 858v202h191v-202h-191zM183 0v203h191v-203h-191z" />
<glyph unicode=";" horiz-adv-x="557" d="M377 203v-153q0 -52 -4.5 -94.5t-14 -79.5t-24 -69t-33.5 -64h-121q44 64 68 128.5t24 128.5h-86v203h191zM186 858v202h191v-202h-191z" />
<glyph unicode="&#x3c;" horiz-adv-x="1172" d="M99 560v200l975 410v-151l-841 -358l841 -360v-150z" />
<glyph unicode="=" horiz-adv-x="1172" d="M98 839v145h975v-145h-975zM98 337v145h975v-145h-975z" />
<glyph unicode="&#x3e;" horiz-adv-x="1172" d="M99 151v150l841 360l-841 358v151l975 -410v-200z" />
<glyph unicode="?" d="M1042 1011q0 -69 -18.5 -122t-48.5 -94.5t-69 -74.5t-79 -62.5t-78.5 -58t-69.5 -61.5t-50 -74t-20 -95h-172q2 68 21 119t49.5 90t68.5 70t77.5 59t77 56t67 62t47.5 77.5t18 101.5q0 57 -20.5 102.5t-58 76t-91 46.5t-119.5 16q-137 0 -217.5 -69t-93.5 -188l-181 12 q11 82 44 155t92 128t147 86.5t207 31.5q112 0 199 -27t147.5 -77.5t92 -123t31.5 -162.5zM429 0v197h191v-197h-191z" />
<glyph unicode="@" horiz-adv-x="2037" d="M1864 740q0 -141 -33 -258t-90.5 -201.5t-138.5 -131.5t-176 -47q-55 0 -93.5 13t-63 36t-35.5 54.5t-11 68.5q0 15 1 36t2 33h-6q-23 -44 -57 -87.5t-79.5 -77.5t-103 -55t-126.5 -21q-83 0 -144 28.5t-101 79t-59.5 119.5t-19.5 150q0 118 35 226t99.5 191t155 133 t202.5 50q59 0 106 -13t83 -37t62 -56.5t44 -71.5h6l38 156h153l-114 -495q-18 -83 -27 -141.5t-9 -106.5q0 -47 21 -70t59 -23q60 0 112.5 40t91.5 109.5t61 163.5t22 204q0 126 -41 235t-119.5 188.5t-195.5 124.5t-270 45q-131 0 -242 -31.5t-201.5 -88.5t-158.5 -135.5 t-114 -173t-69.5 -201.5t-23.5 -220q0 -138 42 -254.5t123 -200.5t200 -131t274 -47q103 0 192 16t163.5 39.5t133.5 51.5t102 52l54 -110q-49 -29 -115.5 -60t-147.5 -56.5t-177 -41.5t-205 -16q-186 0 -330.5 56t-244 157t-151 240.5t-51.5 304.5q0 136 31 261.5 t88.5 233.5t141 196t188.5 151t230 97t266 34q197 0 340.5 -57.5t237 -155.5t138.5 -227.5t45 -273.5zM1270 732q0 49 -16.5 90t-47.5 70.5t-74.5 46t-98.5 16.5q-84 0 -148 -42t-106.5 -109.5t-64.5 -152.5t-22 -170q0 -117 46.5 -184t143.5 -67q68 0 126.5 30.5 t105.5 80.5t81.5 114.5t52.5 134.5q8 35 15 74.5t7 67.5z" />
<glyph unicode="A" horiz-adv-x="1338" d="M1144 0l-158 404h-629l-159 -404h-194l563 1381h213l555 -1381h-191zM753 1005q-16 40 -30 80t-25 73t-18.5 55t-8.5 27q-2 -5 -8.5 -27.5t-18 -56t-25.5 -73.5t-29 -79l-176 -454h516z" />
<glyph unicode="B" horiz-adv-x="1338" d="M1233 389q0 -105 -41 -179t-111 -120.5t-162 -68t-194 -21.5h-560v1381h501q115 0 205 -19t153 -60.5t95.5 -104.5t32.5 -151q0 -58 -16 -109t-49 -92.5t-82 -71.5t-115 -45q83 -10 147.5 -38t107.5 -72.5t65.5 -102.5t22.5 -126zM964 1023q0 112 -76.5 160t-221.5 48 h-314v-437h314q83 0 139.5 16t92 46t51 72t15.5 95zM1044 404q0 65 -24 111.5t-69 75.5t-108.5 43t-141.5 14h-349v-498h363q72 0 132 11.5t104 41t68.5 78.5t24.5 123z" />
<glyph unicode="C" horiz-adv-x="1449" d="M776 1249q-117 0 -208 -39.5t-152 -112t-92.5 -174.5t-31.5 -226q0 -125 34 -228t97 -177.5t154.5 -116t206.5 -41.5q80 0 146.5 21t119.5 59.5t95.5 91t74.5 115.5l153 -76q-37 -77 -92 -144t-129 -116t-167.5 -77t-209.5 -28q-167 0 -293 53.5t-211 149t-127 227 t-42 287.5q0 161 44.5 291.5t130.5 222t211 141t286 49.5q221 0 369 -86t217 -256l-177 -58q-20 49 -53 93.5t-83 78.5t-117.5 55t-153.5 21z" />
<glyph unicode="D" horiz-adv-x="1449" d="M1353 705q0 -173 -51.5 -304.5t-142 -220.5t-213.5 -134.5t-265 -45.5h-516v1381h456q160 0 295 -40t232 -122.5t151 -210t54 -303.5zM1165 705q0 140 -40 239.5t-112.5 163t-173.5 93.5t-222 30h-265v-1081h308q108 0 201 35t160.5 105t105.5 173.5t38 241.5z" />
<glyph unicode="E" horiz-adv-x="1338" d="M165 0v1381h1047v-153h-860v-443h801v-151h-801v-481h900v-153h-1087z" />
<glyph unicode="F" horiz-adv-x="1225" d="M352 1228v-514h770v-154h-770v-560h-187v1381h981v-153h-794z" />
<glyph unicode="G" horiz-adv-x="1561" d="M101 697q0 161 43.5 291.5t130.5 222t215 141t298 49.5q127 0 223 -22.5t167 -64.5t120 -102t83 -136l-179 -53q-25 51 -61 92.5t-86.5 71t-118 46t-153.5 16.5q-125 0 -218 -39.5t-153.5 -112t-90.5 -174.5t-30 -226q0 -125 32.5 -228t96 -178t158 -117t219.5 -42 q81 0 149.5 14t124 36t97.5 49t71 54v249h-413v157h585v-476q-46 -47 -108 -90t-139.5 -75t-169.5 -51t-197 -19q-175 0 -305 53.5t-217 149t-130.5 227t-43.5 287.5z" />
<glyph unicode="H" horiz-adv-x="1449" d="M1099 0v640h-747v-640h-187v1381h187v-584h747v584h187v-1381h-187z" />
<glyph unicode="I" horiz-adv-x="557" d="M185 0v1381h187v-1381h-187z" />
<glyph unicode="J" horiz-adv-x="1003" d="M448 -20q-168 0 -275 87.5t-142 275.5l184 30q9 -63 32 -108.5t54 -75t69.5 -43.5t78.5 -14q102 0 160.5 70t58.5 206v820h-265v153h452v-969q0 -99 -27.5 -178.5t-80 -136t-128 -87t-171.5 -30.5z" />
<glyph unicode="K" horiz-adv-x="1338" d="M1084 0l-552 666l-180 -137v-529h-187v1381h187v-692l665 692h221l-588 -600l666 -781h-232z" />
<glyph unicode="L" d="M165 0v1381h187v-1228h698v-153h-885z" />
<glyph unicode="M" horiz-adv-x="1671" d="M1339 0v921q0 50 1 102t3 95q2 50 5 97q-14 -50 -29 -99q-13 -42 -28 -89.5t-30 -85.5l-356 -941h-132l-361 941q-6 15 -12.5 34.5t-14 41.5t-14.5 45t-14 45q-17 52 -33 108q1 -55 3 -109q2 -46 3 -96.5t1 -88.5v-921h-166v1381h246l367 -958q7 -19 17 -50t18.5 -63.5 t16 -61t10.5 -44.5q3 16 10.5 45t18 61.5t20.5 63t17 49.5l361 958h240v-1381h-168z" />
<glyph unicode="N" horiz-adv-x="1449" d="M1060 0l-739 1176q2 -48 5 -95q2 -40 3.5 -84.5t1.5 -79.5v-917h-166v1381h217l747 -1184l-6 96q-2 41 -4 89.5t-2 92.5v906h169v-1381h-226z" />
<glyph unicode="O" horiz-adv-x="1561" d="M1465 697q0 -162 -46.5 -294.5t-134.5 -226.5t-215.5 -145t-289.5 -51q-170 0 -298.5 53.5t-214 149t-128.5 227t-43 287.5q0 161 45 291.5t132.5 222t215 141t293.5 49.5q165 0 292.5 -50t214.5 -142t132 -222t45 -290zM1274 697q0 124 -32 226t-94 174.5t-154 112 t-213 39.5q-123 0 -216.5 -39.5t-155.5 -112t-93 -174.5t-31 -226q0 -125 32 -228t94 -178t155 -117t213 -42q129 0 223 42.5t154 117.5t89 178.5t29 226.5z" />
<glyph unicode="P" horiz-adv-x="1338" d="M1233 965q0 -90 -30 -168t-89.5 -135t-148.5 -90.5t-207 -33.5h-406v-538h-187v1381h581q122 0 213.5 -30t152 -84.5t91 -131.5t30.5 -170zM1045 963q0 132 -80.5 200t-241.5 68h-371v-545h379q162 0 238 71.5t76 205.5z" />
<glyph unicode="Q" horiz-adv-x="1561" d="M1465 697q0 -146 -37.5 -267t-108.5 -212.5t-174.5 -148.5t-235.5 -75q21 -63 47 -107t59.5 -72t74 -41t90.5 -13q27 0 58.5 4t54.5 9v-132q-38 -9 -82.5 -15t-92.5 -6q-84 0 -147 25t-110.5 71.5t-81.5 114t-61 152.5q-154 8 -271.5 64.5t-195.5 151t-117 221.5t-39 276 q0 161 45 291.5t132.5 222t215 141t293.5 49.5q165 0 292.5 -50t214.5 -142t132 -222t45 -290zM1274 697q0 124 -32 226t-94 174.5t-154 112t-213 39.5q-123 0 -216.5 -39.5t-155.5 -112t-93 -174.5t-31 -226q0 -125 32 -228t94 -178t155 -117t213 -42q129 0 223 42.5 t154 117.5t89 178.5t29 226.5z" />
<glyph unicode="R" horiz-adv-x="1449" d="M1141 0l-359 573h-430v-573h-187v1381h649q118 0 208.5 -27t152.5 -78t94 -124.5t32 -165.5q0 -66 -19 -129.5t-60 -116.5t-104.5 -91t-153.5 -54l392 -595h-215zM1113 984q0 63 -21.5 109t-62.5 76.5t-100 46t-133 15.5h-444v-510h452q80 0 139 20t96.5 55.5t55.5 83.5 t18 104z" />
<glyph unicode="S" horiz-adv-x="1338" d="M1247 381q0 -87 -34 -160.5t-104.5 -127t-178 -83.5t-254.5 -30q-258 0 -402 90.5t-183 260.5l181 37q14 -54 42.5 -98.5t77 -76t120 -49.5t171.5 -18q83 0 153 14.5t119.5 44t77.5 76t28 110.5q0 68 -30.5 110t-86.5 69.5t-133.5 46t-171.5 40.5q-58 13 -116 28 t-111.5 36t-100.5 49.5t-81.5 68t-54 92t-19.5 121.5q0 98 39.5 168t110 115t166.5 65.5t208 20.5q128 0 219.5 -20t154 -60t100.5 -99.5t60 -137.5l-184 -32q-14 50 -40 89t-68 65.5t-102 40t-142 13.5q-96 0 -161 -17t-105 -46.5t-57 -69t-17 -85.5q0 -62 31 -101.5 t84 -66t122.5 -44.5t147.5 -35q64 -15 127 -30t121 -36t108.5 -49.5t87.5 -70t58.5 -97t21.5 -131.5z" />
<glyph unicode="T" horiz-adv-x="1225" d="M706 1228v-1228h-187v1228h-474v153h1135v-153h-474z" />
<glyph unicode="U" horiz-adv-x="1449" d="M716 -20q-113 0 -215 30.5t-179 95t-122 163t-45 233.5v879h187v-864q0 -104 28 -177t78 -119.5t118 -67.5t149 -21t152.5 21.5t125.5 69t84.5 123t30.5 184.5v851h187v-862q0 -138 -46 -239.5t-124 -168t-183.5 -99t-225.5 -32.5z" />
<glyph unicode="V" horiz-adv-x="1338" d="M766 0h-194l-563 1381h197l382 -972q15 -44 29.5 -88t26.5 -78q14 -40 26 -78q12 36 26 76q12 34 26 77.5t31 90.5l380 972h197z" />
<glyph unicode="W" horiz-adv-x="1894" d="M1481 0h-224l-239 877q-11 37 -23 88t-22 97q-12 54 -23 110q-13 -57 -25 -111q-11 -47 -22.5 -97t-22.5 -87l-241 -877h-223l-407 1381h195l248 -877q16 -62 31.5 -123t26.5 -109q12 -56 23 -107q15 67 31 133q6 27 13 57.5t14.5 60t14.5 56.5t13 49l240 860h180 l240 -860q6 -22 13 -49t14.5 -56t14.5 -59.5t14 -57.5q15 -66 30 -134q1 0 9 33.5t19.5 84.5t26 110.5t28.5 110.5l244 877h195z" />
<glyph unicode="X" horiz-adv-x="1338" d="M1090 0l-415 604l-423 -604h-207l525 717l-485 664h207l384 -542l374 542h206l-472 -657l513 -724h-207z" />
<glyph unicode="Y" horiz-adv-x="1338" d="M761 572v-572h-186v572l-531 809h206l420 -658l419 658h206z" />
<glyph unicode="Z" horiz-adv-x="1225" d="M1163 0h-1099v140l841 1088h-770v153h982v-136l-841 -1092h887v-153z" />
<glyph unicode="[" horiz-adv-x="557" d="M143 -416v1870h399v-126h-228v-1618h228v-126h-399z" />
<glyph unicode="\" horiz-adv-x="557" d="M399 -20l-399 1474h155l403 -1474h-159z" />
<glyph unicode="]" horiz-adv-x="557" d="M16 -416v126h228v1618h-228v126h399v-1870h-399z" />
<glyph unicode="^" horiz-adv-x="941" d="M771 660l-303 620l-299 -620h-159l360 721h199l363 -721h-161z" />
<glyph unicode="_" d="M-30 -399v128h1169v-128h-1169z" />
<glyph unicode="`" horiz-adv-x="668" d="M427 1177l-323 272v29h203l212 -281v-20h-92z" />
<glyph unicode="a" d="M406 -20q-160 0 -240.5 84.5t-80.5 231.5q0 105 40 172t104 105.5t146.5 53t167.5 16.5l238 4v58q0 65 -13.5 111t-42 74.5t-71 42t-100.5 13.5q-51 0 -92.5 -7.5t-71.5 -26.5t-49 -52t-24 -83l-185 17q10 63 37.5 115t78 90.5t126.5 59.5t184 21q200 0 300.5 -91.5 t100.5 -265.5v-456q0 -79 21 -118.5t78 -39.5q15 0 29.5 2t28.5 5v-110q-33 -8 -66 -12t-70 -4q-50 0 -86 13.5t-58.5 40.5t-34 66.5t-14.5 92.5h-6q-28 -51 -62 -92t-79 -70t-102.5 -45t-131.5 -16zM446 113q84 0 147.5 30.5t105 78.5t62 105t20.5 109v87l-193 -4 q-65 -1 -123 -9t-102.5 -32.5t-70 -68.5t-25.5 -116q0 -86 46.5 -133t132.5 -47z" />
<glyph unicode="b" d="M1032 535q0 -555 -390 -555q-121 0 -200.5 44t-129.5 141h-2q0 -26 -1.5 -53.5t-3 -51t-3 -40t-2.5 -20.5h-171q1 9 2 30t2 50.5t1.5 64.5t0.5 74v1235h177v-414q0 -30 -0.5 -57t-1.5 -47q-1 -25 -2 -46h4q49 102 129.5 146t200.5 44q201 0 295.5 -135.5t94.5 -409.5z M847 529q0 110 -14 188.5t-44 129t-77.5 74t-114.5 23.5q-70 0 -123.5 -22.5t-89 -72.5t-54 -131.5t-18.5 -199.5q0 -113 18.5 -190.5t54 -126t88.5 -69.5t122 -21q65 0 112 22.5t78 72.5t46.5 130t15.5 193z" />
<glyph unicode="c" horiz-adv-x="1003" d="M270 535q0 -91 13 -167.5t44.5 -132t83 -85.5t126.5 -30q94 0 157.5 50.5t77.5 156.5l179 -11q-9 -66 -38.5 -127t-80 -107t-123 -74t-167.5 -28q-125 0 -212 42.5t-141.5 116.5t-79 174.5t-24.5 217.5q0 107 18 189t49.5 143t74.5 102.5t93.5 66.5t106.5 36.5t113 11.5 q89 0 158.5 -24.5t120 -67t82 -100.5t44.5 -125l-182 -13q-13 88 -69 140t-159 52q-75 0 -125.5 -25t-82 -75.5t-44.5 -127t-13 -179.5z" />
<glyph unicode="d" d="M805 171q-49 -102 -130 -146.5t-201 -44.5q-201 0 -295.5 135.5t-94.5 409.5q0 555 390 555q121 0 201.5 -44t129.5 -140h2q0 10 -0.5 31t-1 44t-0.5 43.5v29.5v410h176v-1235q0 -39 0.5 -74t1.5 -64.5t2 -50.5t2 -30h-169q-2 10 -3.5 28t-3 41.5t-2.5 49.5t-1 52h-3z M270 531q0 -110 13.5 -188t44 -128.5t77.5 -74t114 -23.5q70 0 123.5 22.5t89 73t54.5 131.5t19 199q0 113 -19 190.5t-55 125.5t-88.5 69.5t-121.5 21.5q-64 0 -111 -22.5t-78.5 -72.5t-46.5 -130t-15 -194z" />
<glyph unicode="e" d="M270 493q0 -83 17.5 -153t53 -120.5t91.5 -78.5t134 -28q115 0 184 46t94 116l155 -44q-17 -44 -47 -88.5t-80 -80.5t-125 -59t-181 -23q-235 0 -358 140.5t-123 416.5q0 149 37.5 252.5t102 168t151 93.5t184.5 29q133 0 222.5 -43t144 -119t77.5 -179t23 -223v-23h-757 zM845 628q-15 168 -85.5 245t-202.5 77q-44 0 -92.5 -14.5t-90 -50.5t-70 -98.5t-32.5 -158.5h573z" />
<glyph unicode="f" horiz-adv-x="557" d="M354 932v-932h-177v932h-149v128h149v120q0 58 11 107.5t40 86t79 57.5t129 21q31 0 65 -3t60 -8v-135q-17 3 -39 5.5t-40 2.5q-39 0 -64 -10.5t-39 -31t-19.5 -49.5t-5.5 -68v-95h207v-128h-207z" />
<glyph unicode="g" d="M537 -416q-91 0 -161.5 18.5t-120.5 53t-81.5 82.5t-45.5 107l178 26q17 -74 77.5 -113.5t158.5 -39.5q60 0 109 16.5t83 53.5t53 95.5t19 142.5v171h-2q-20 -40 -49 -77t-70.5 -65.5t-96.5 -45.5t-125 -17q-101 0 -173 34t-118 101.5t-67 168t-21 232.5q0 128 21 229.5 t68.5 173t123.5 109t185 37.5q113 0 195.5 -51.5t128.5 -146.5h2q0 25 1 55t2.5 57t3.5 46.5t4 22.5h168q-1 -8 -2 -29.5t-2 -50.5t-1.5 -65t-0.5 -74v-811q0 -222 -109.5 -334t-334.5 -112zM806 530q0 111 -24 190t-63.5 129t-90 73.5t-103.5 23.5q-67 0 -115.5 -23.5 t-80.5 -74t-47 -129.5t-15 -189q0 -114 15 -192t46.5 -126t79.5 -69t114 -21q53 0 103.5 23t91 72t65 126t24.5 187z" />
<glyph unicode="h" d="M311 879q29 54 63.5 91.5t75.5 62t90 36t110 11.5q102 0 167 -27.5t102.5 -77t52 -118t14.5 -150.5v-707h-178v672q0 68 -8 119t-31.5 84.5t-66.5 51t-112 17.5q-63 0 -113.5 -22.5t-86 -64t-55 -100t-19.5 -132.5v-625h-177v1454h177v-378q0 -32 -1 -64.5t-2.5 -60 t-2.5 -46.5t-2 -26h3z" />
<glyph unicode="i" horiz-adv-x="445" d="M134 1286v168h177v-168h-177zM134 0v1060h177v-1060h-177z" />
<glyph unicode="j" horiz-adv-x="445" d="M134 1286v168h177v-168h-177zM311 -131q0 -61 -10.5 -113t-37 -90t-72 -60t-116.5 -22q-33 0 -65 1.5t-59 6.5v137q13 -2 30.5 -4t30.5 -2q37 0 61 9.5t37.5 30.5t18.5 54t5 78v1165h177v-1191z" />
<glyph unicode="k" horiz-adv-x="1003" d="M800 0l-359 484l-129 -107v-377h-177v1454h177v-908l465 514h207l-430 -455l452 -605h-206z" />
<glyph unicode="l" horiz-adv-x="445" d="M135 0v1454h177v-1454h-177z" />
<glyph unicode="m" horiz-adv-x="1671" d="M753 0v672q0 78 -10 130t-33 83.5t-60.5 45t-90.5 13.5q-56 0 -101 -22t-77 -64t-49 -103t-17 -141v-614h-176v834q0 33 -0.5 70t-1.5 69.5t-2 56.5t-2 30h167q1 -5 2 -26.5t2.5 -49.5t2.5 -56.5t1 -48.5h3q23 46 50.5 83.5t64.5 63.5t84.5 40t109.5 14q121 0 191 -48 t97 -153h3q24 46 53.5 83.5t68.5 63.5t88 40t112 14q80 0 138.5 -21.5t95.5 -66.5t55 -116t18 -169v-707h-175v672q0 78 -9.5 130t-33 83.5t-60.5 45t-91 13.5q-56 0 -101 -21t-77 -62.5t-49 -103t-17 -143.5v-614h-174z" />
<glyph unicode="n" d="M808 0v672q0 78 -11 130t-36.5 83.5t-67 45t-103.5 13.5q-63 0 -113.5 -22t-86 -64t-55 -103t-19.5 -141v-614h-177v834q0 33 -0.5 70t-1.5 69.5t-2 56.5t-2 30h167q1 -5 2 -26.5t2.5 -49.5t2.5 -56.5t1 -48.5h3q25 46 55.5 83.5t70.5 63.5t92 40t121 14 q88 0 151.5 -21.5t105 -66.5t60.5 -116t19 -169v-707h-178z" />
<glyph unicode="o" d="M1032 531q0 -278 -122.5 -414.5t-355.5 -136.5q-111 0 -198 33.5t-147.5 102t-92.5 172t-32 243.5q0 549 476 549q123 0 212.5 -34.5t147 -103t85 -171.5t27.5 -240zM847 531q0 124 -19.5 204t-56 128t-89.5 67.5t-119 19.5q-68 0 -122.5 -20.5t-92.5 -69t-58 -128.5 t-20 -201q0 -123 21.5 -204t59 -129t89 -67.5t112.5 -19.5q67 0 122 19t93.5 67t59 129.5t20.5 204.5z" />
<glyph unicode="p" d="M1032 535q0 -120 -19.5 -222t-65 -175.5t-120.5 -115.5t-185 -42q-114 0 -199 43.5t-130 141.5h-5q1 -2 1.5 -18t1 -39.5t1 -52.5t0.5 -57v-414h-177v1260q0 38 -0.5 73.5t-1.5 64t-2 49.5t-2 29h171q1 -3 2.5 -20.5t3 -42.5t3 -53.5t1.5 -53.5h4q24 51 55.5 86.5 t71.5 58.5t89.5 33.5t111.5 10.5q110 0 185 -39t120.5 -110.5t65 -171.5t19.5 -223zM847 531q0 98 -12 174.5t-41 129.5t-77 80.5t-120 27.5q-59 0 -111 -17t-90.5 -64t-61 -129.5t-22.5 -215.5q0 -112 18.5 -190t54 -126t88.5 -69t122 -21q73 0 121.5 28.5t77.5 82 t41 131.5t12 178z" />
<glyph unicode="q" d="M474 -20q-202 0 -296 136.5t-94 408.5q0 277 96.5 416t293.5 139q66 0 116.5 -12t90 -35t69.5 -57t55 -80h2q0 24 1 54t2.5 56.5t3.5 45.5t4 22h170q-2 -17 -4.5 -87.5t-2.5 -201.5v-1201h-176v430q0 25 0.5 52.5t1.5 52.5q1 27 1 55h-1q-26 -50 -57 -86.5t-71 -60.5 t-90.5 -35.5t-114.5 -11.5zM805 543q0 116 -20.5 194t-57 125t-89 67.5t-117.5 20.5q-67 0 -115 -25t-78 -76.5t-44 -130.5t-14 -187q0 -106 13 -184t43 -129t77.5 -76t115.5 -25q59 0 111 18t91 65.5t61.5 130.5t22.5 212z" />
<glyph unicode="r" horiz-adv-x="668" d="M139 0v813q0 34 -0.5 68.5t-1.5 67t-2 61t-2 50.5h167q1 -22 2.5 -51t3 -59.5t2 -58.5t0.5 -47h4q18 61 39 105.5t49.5 73.5t68 43t95.5 14q21 0 40.5 -3.5t30.5 -6.5v-162q-18 5 -41.5 7.5t-52.5 2.5q-61 0 -103.5 -27.5t-69.5 -76t-39.5 -115.5t-12.5 -146v-553h-177z " />
<glyph unicode="s" horiz-adv-x="1003" d="M931 293q0 -74 -29 -132.5t-84 -98t-134.5 -61t-182.5 -21.5q-92 0 -166 14.5t-130 46t-93.5 82.5t-55.5 126l156 30q22 -85 92.5 -124.5t196.5 -39.5q57 0 104.5 7.5t81.5 27t53.5 51t19.5 78.5q0 48 -23 79t-63 51.5t-97.5 36t-125.5 33.5q-64 17 -126.5 37.5 t-113 54.5t-82 84t-31.5 125q0 145 103.5 221t301.5 76q175 0 278.5 -61.5t130.5 -198.5l-158 -19q-9 41 -32.5 69t-57 45t-75 24.5t-86.5 7.5q-120 0 -176.5 -36.5t-56.5 -109.5q0 -43 21 -71t58.5 -47t90.5 -33.5t117 -30.5q42 -10 86 -22.5t85.5 -29.5t78.5 -40 t64.5 -55.5t43.5 -75.5t16 -100z" />
<glyph unicode="t" horiz-adv-x="557" d="M543 8q-40 -11 -82 -17.5t-96 -6.5q-212 0 -212 240v708h-123v128h130l52 238h117v-238h196v-128h-196v-669q0 -77 25 -108t87 -31q25 0 49 4t53 10v-130z" />
<glyph unicode="u" d="M308 1060v-672q0 -77 11 -129t36.5 -84t67.5 -45t103 -13q63 0 113.5 22t86 63.5t55.5 103t20 140.5v614h176v-834q0 -33 0.5 -69.5t1.5 -69.5t2 -56.5t2 -30.5h-167q-1 5 -2 26.5t-2.5 49.5t-2.5 57t-1 48h-2q-26 -46 -56.5 -83t-70.5 -63t-92 -40.5t-121 -14.5 q-88 0 -151.5 22t-104.5 67t-60.5 115.5t-19.5 169.5v706h178z" />
<glyph unicode="v" horiz-adv-x="1003" d="M601 0h-209l-385 1060h188l233 -690q7 -21 16.5 -52t19 -64.5t18 -64t14.5 -51.5q6 21 15 51.5t19 63t20.5 63.5t17.5 52l241 692h188z" />
<glyph unicode="w" horiz-adv-x="1449" d="M1151 0h-205l-170 684q-8 26 -16 65.5t-16 76.5q-10 43 -19 89q-9 -44 -18 -87q-8 -37 -17.5 -77.5t-17.5 -70.5l-174 -680h-204l-297 1060h175l179 -720q7 -22 13.5 -55t13.5 -65q7 -36 15 -74q8 37 17 73q7 30 15 61.5t14 51.5l192 728h189l185 -728q7 -25 15 -57.5 t15 -60.5l16 -68q7 37 15 73q7 30 14.5 63t14.5 58l187 720h172z" />
<glyph unicode="x" horiz-adv-x="1003" d="M785 0l-285 435l-287 -435h-190l377 545l-360 515h195l265 -412l262 412h197l-359 -513l382 -547h-197z" />
<glyph unicode="y" horiz-adv-x="1003" d="M592 0q-37 -96 -76 -173t-87 -131.5t-106.5 -83t-135.5 -28.5q-33 0 -61.5 1.5t-59.5 8.5v133q18 -3 41.5 -4.5t40.5 -1.5q77 0 144 57.5t117 184.5l16 42l-420 1055h188l223 -586q10 -26 25.5 -70t30.5 -88.5t27 -79.5t14 -44q2 11 13.5 43t25.5 71t29 79t25 70l207 605 h187z" />
<glyph unicode="z" horiz-adv-x="1003" d="M48 0v134l648 790h-609v136h808v-134l-649 -790h685v-136h-883z" />
<glyph unicode="{" horiz-adv-x="670" d="M503 -416q-64 0 -112.5 20t-81 57t-49 90t-16.5 120v353q0 62 -14 105t-41 70.5t-66.5 41.5t-89.5 16v124q50 2 89.5 16t66.5 41t41 70.5t14 103.5v355q0 138 65 212.5t194 74.5h132v-126h-62q-89 0 -126.5 -52.5t-37.5 -158.5v-349q0 -49 -15 -90t-40.5 -72.5t-60 -53 t-74.5 -31.5v-2q42 -9 76.5 -31t59.5 -53.5t39.5 -73t14.5 -91.5v-349q0 -104 37.5 -157.5t126.5 -53.5h62v-126h-132z" />
<glyph unicode="|" horiz-adv-x="521" d="M179 -425v1879h163v-1879h-163z" />
<glyph unicode="}" horiz-adv-x="670" d="M92 -290q89 0 128 53.5t39 157.5v349q0 50 13.5 91.5t38.5 73t60 53.5t77 31v2q-41 10 -75.5 31.5t-60 53t-39.5 72.5t-14 90v349q0 106 -39 158.5t-128 52.5h-59v126h130q128 0 193 -74.5t65 -212.5v-355q0 -60 14.5 -103.5t41.5 -70.5t66.5 -41t90.5 -16v-124 q-51 -2 -90.5 -16t-66.5 -41.5t-41.5 -70.5t-14.5 -105v-353q0 -67 -16.5 -120t-49 -90t-81 -57t-111.5 -20h-130v126h59z" />
<glyph unicode="~" horiz-adv-x="1172" d="M827 542q-67 0 -138.5 21.5t-142.5 47.5q-127 44 -213 44q-37 0 -69 -6t-61.5 -17.5t-56.5 -27t-56 -36.5v141q49 37 114 59.5t144 22.5q39 0 78.5 -6.5t77 -16t74 -22.5t73.5 -26q20 -8 44.5 -15t49.5 -14t50 -11t48 -4q67 0 127.5 24.5t111.5 65.5v-146 q-31 -22 -60 -37t-59 -24t-63.5 -13t-72.5 -4z" />
<glyph unicode="&#xa2;" d="M584 271q94 0 157.5 51t77.5 157l179 -12q-8 -60 -33 -117t-68 -102t-105 -75.5t-143 -38.5v-164h-122v164q-109 10 -184 55.5t-122 118.5t-68 168.5t-21 206.5q0 147 32.5 248t87 165t126 95t149.5 38v152h122v-152q76 -8 135 -35t101 -68.5t68.5 -95t38.5 -115.5 l-182 -13q-13 88 -69 140t-159 52q-75 0 -125.5 -25t-82 -75.5t-44.5 -127t-13 -179.5q0 -91 13 -167.5t44.5 -132t83 -86t126.5 -30.5z" />
<glyph unicode="&#xa3;" d="M1082 305q-9 -79 -37 -136t-71.5 -95t-100 -56t-121.5 -18h-684v151q87 45 129 123.5t42 196.5v141h-182v127h182v274q0 90 23.5 162.5t72 122.5t123 76.5t175.5 26.5q69 0 129 -14t108.5 -42.5t83.5 -70.5t52 -98l-170 -56q-10 31 -29 56t-45 43t-58 27.5t-67 9.5 q-112 0 -166.5 -56t-54.5 -179v-282h399v-127h-399v-123q0 -55 -11 -107t-32.5 -97t-52.5 -79.5t-70 -55.5h473q37 0 70 9.5t59 30t44 53t26 79.5z" />
<glyph unicode="&#xa5;" d="M706 695h314v-123h-375v-151h375v-124h-375v-297h-175v297h-373v124h373l2 151h-375v123h314l-413 686h195l364 -634l367 634h195z" />
<glyph unicode="&#xa8;" horiz-adv-x="668" d="M430 1195v180h160v-180h-160zM44 1195v180h162v-180h-162z" />
<glyph unicode="&#xa9;" horiz-adv-x="1478" d="M1447 693q0 -98 -25.5 -188.5t-71.5 -169.5t-110 -143.5t-143 -110.5t-169.5 -71.5t-188.5 -25.5q-97 0 -187.5 25.5t-169 71.5t-144 110.5t-111.5 143.5t-71.5 169.5t-25.5 188.5t25.5 188t71.5 169t111 143.5t144 110.5t169 71.5t188 25.5q147 0 276 -55.5 t225.5 -151.5t151.5 -225t55 -276zM1357 693q0 84 -22 163t-62 147t-97 124.5t-125.5 96.5t-147.5 62t-164 22q-127 0 -239 -48.5t-196 -132t-132.5 -195.5t-48.5 -239q0 -129 48.5 -241t132.5 -196t196 -132t239 -48q85 0 164 22.5t147.5 62t125.5 96t97 125t62 147.5 t22 164zM488 695q0 -71 16 -129.5t49 -101t82 -66t115 -23.5q48 0 84.5 13.5t64 35.5t46.5 49t33 55l113 -34q-22 -42 -50.5 -82t-68.5 -70.5t-94.5 -49.5t-127.5 -19q-99 0 -172 31.5t-121 87.5t-71.5 133.5t-23.5 169.5q0 95 23.5 172t71 131.5t119 83t167.5 28.5 q73 0 128 -17.5t94 -46.5t66 -65.5t45 -74.5l-112 -33q-11 26 -30 50.5t-46 43t-62 29.5t-81 11q-68 0 -116.5 -22.5t-80 -63t-46 -98.5t-14.5 -128z" />
<glyph unicode="&#xab;" d="M868 138l-331 358v62l331 363h165v-30l-331 -365l333 -359v-29h-167zM411 138l-330 358v62l330 363h163v-30l-328 -365l330 -359v-29h-165z" />
<glyph unicode="&#xad;" horiz-adv-x="668" d="M89 455v157h490v-157h-490z" />
<glyph unicode="&#xae;" horiz-adv-x="1478" d="M1447 693q0 -98 -25.5 -188.5t-71.5 -169.5t-110 -143.5t-143 -110.5t-169.5 -71.5t-188.5 -25.5q-97 0 -187.5 25.5t-169 71.5t-144 110.5t-111.5 143.5t-71.5 169.5t-25.5 188.5t25.5 188t71.5 169t111 143.5t144 110.5t169 71.5t188 25.5q147 0 276 -55.5 t225.5 -151.5t151.5 -225t55 -276zM1357 693q0 84 -22 163t-62 147t-97 124.5t-125.5 96.5t-147.5 62t-164 22q-127 0 -239 -48.5t-196 -132t-132.5 -195.5t-48.5 -239q0 -129 48.5 -241t132.5 -196t196 -132t239 -48q85 0 164 22.5t147.5 62t125.5 96t97 125t62 147.5 t22 164zM936 283l-195 329h-158v-329h-124v815h301q139 0 213 -62t74 -171q0 -100 -51 -160t-135 -79l217 -343h-142zM922 863q0 68 -46.5 103.5t-125.5 35.5h-167v-295h178q79 0 120 41.5t41 114.5z" />
<glyph unicode="&#xb4;" horiz-adv-x="668" d="M71 1177v20l212 281h203v-29l-323 -272h-92z" />
<glyph unicode="&#xb8;" horiz-adv-x="668" d="M473 -248q0 -40 -14.5 -73t-46.5 -56.5t-83 -35.5t-124 -12q-20 0 -42 0.5t-46 3.5v96q48 -6 84 -6q40 0 67.5 6t44.5 16t24.5 24.5t7.5 32.5q0 36 -30 56t-100 20h-28.5t-27.5 -2l63 178h105l-38 -98q92 -3 138 -42.5t46 -107.5z" />
<glyph unicode="&#xbb;" d="M704 138h-165v29l331 359l-329 365v30h163l331 -363v-62zM248 138h-167v29l332 359l-330 365v30h165l328 -363v-62z" />
<glyph unicode="&#xd3;" horiz-adv-x="1561" d="M1465 697q0 -162 -46.5 -294.5t-134.5 -226.5t-215.5 -145t-289.5 -51q-170 0 -298.5 53.5t-214 149t-128.5 227t-43 287.5q0 161 45 291.5t132.5 222t215 141t293.5 49.5q165 0 292.5 -50t214.5 -142t132 -222t45 -290zM1274 697q0 124 -32 226t-94 174.5t-154 112 t-213 39.5q-123 0 -216.5 -39.5t-155.5 -112t-93 -174.5t-31 -226q0 -125 32 -228t94 -178t155 -117t213 -42q129 0 223 42.5t154 117.5t89 178.5t29 226.5zM609 1499v20l212 221h203v-28l-304 -213h-111z" />
<glyph unicode="&#xf3;" d="M1032 531q0 -278 -122.5 -414.5t-355.5 -136.5q-111 0 -198 33.5t-147.5 102t-92.5 172t-32 243.5q0 549 476 549q123 0 212.5 -34.5t147 -103t85 -171.5t27.5 -240zM847 531q0 124 -19.5 204t-56 128t-89.5 67.5t-119 19.5q-68 0 -122.5 -20.5t-92.5 -69t-58 -128.5 t-20 -201q0 -123 21.5 -204t59 -129t89 -67.5t112.5 -19.5q67 0 122 19t93.5 67t59 129.5t20.5 204.5zM423 1177v20l212 281h203v-29l-323 -272h-92z" />
<glyph unicode="&#x104;" horiz-adv-x="1338" d="M1144 0l-158 404h-629l-159 -404h-194l563 1381h213l555 -1381h-191zM753 1005q-16 40 -30 80t-25 73t-18.5 55t-8.5 27q-2 -5 -8.5 -27.5t-18 -56t-25.5 -73.5t-29 -79l-176 -454h516zM1351 -381q-27 -12 -62 -19t-74 -7q-103 0 -155 50t-52 133q0 46 17 84.5t40.5 68.5 t49.5 50.5t45 31.5h131q-25 -14 -50.5 -36t-46.5 -51t-34 -63t-13 -72q0 -42 24 -65.5t68 -23.5q28 0 56.5 6.5t55.5 17.5v-105z" />
<glyph unicode="&#x105;" d="M406 -20q-160 0 -240.5 84.5t-80.5 231.5q0 105 40 172t104 105.5t146.5 53t167.5 16.5l238 4v58q0 65 -13.5 111t-42 74.5t-71 42t-100.5 13.5q-51 0 -92.5 -7.5t-71.5 -26.5t-49 -52t-24 -83l-185 17q10 63 37.5 115t78 90.5t126.5 59.5t184 21q200 0 300.5 -91.5 t100.5 -265.5v-456q0 -79 21 -118.5t78 -39.5q15 0 29.5 2t28.5 5v-110q-33 -8 -66 -12t-70 -4q-50 0 -86 13.5t-58.5 40.5t-34 66.5t-14.5 92.5h-6q-28 -51 -62 -92t-79 -70t-102.5 -45t-131.5 -16zM446 113q84 0 147.5 30.5t105 78.5t62 105t20.5 109v87l-193 -4 q-65 -1 -123 -9t-102.5 -32.5t-70 -68.5t-25.5 -116q0 -86 46.5 -133t132.5 -47zM1116 -392q-27 -12 -62 -19t-74 -7q-103 0 -155 50t-52 133q0 46 17 84.5t40.5 68.5t49.5 50.5t45 31.5h131q-25 -14 -50.5 -36t-46.5 -51t-34 -63t-13 -72q0 -42 24 -65.5t68 -23.5 q28 0 56.5 6.5t55.5 17.5v-105z" />
<glyph unicode="&#x106;" horiz-adv-x="1449" d="M776 1249q-117 0 -208 -39.5t-152 -112t-92.5 -174.5t-31.5 -226q0 -125 34 -228t97 -177.5t154.5 -116t206.5 -41.5q80 0 146.5 21t119.5 59.5t95.5 91t74.5 115.5l153 -76q-37 -77 -92 -144t-129 -116t-167.5 -77t-209.5 -28q-167 0 -293 53.5t-211 149t-127 227 t-42 287.5q0 161 44.5 291.5t130.5 222t211 141t286 49.5q221 0 369 -86t217 -256l-177 -58q-20 49 -53 93.5t-83 78.5t-117.5 55t-153.5 21zM654 1499v20l212 221h203v-28l-304 -213h-111z" />
<glyph unicode="&#x107;" horiz-adv-x="1003" d="M270 535q0 -91 13 -167.5t44.5 -132t83 -85.5t126.5 -30q94 0 157.5 50.5t77.5 156.5l179 -11q-9 -66 -38.5 -127t-80 -107t-123 -74t-167.5 -28q-125 0 -212 42.5t-141.5 116.5t-79 174.5t-24.5 217.5q0 107 18 189t49.5 143t74.5 102.5t93.5 66.5t106.5 36.5t113 11.5 q89 0 158.5 -24.5t120 -67t82 -100.5t44.5 -125l-182 -13q-13 88 -69 140t-159 52q-75 0 -125.5 -25t-82 -75.5t-44.5 -127t-13 -179.5zM423 1177v20l212 281h203v-29l-323 -272h-92z" />
<glyph unicode="&#x118;" horiz-adv-x="1338" d="M165 0v1381h1047v-153h-860v-443h801v-151h-801v-481h900v-153h-1087zM1252 -392q-27 -12 -62 -19t-74 -7q-103 0 -155 50t-52 133q0 46 17 84.5t40.5 68.5t49.5 50.5t45 31.5h131q-25 -14 -50.5 -36t-46.5 -51t-34 -63t-13 -72q0 -42 24 -65.5t68 -23.5q28 0 56.5 6.5 t55.5 17.5v-105z" />
<glyph unicode="&#x119;" d="M270 493q0 -83 17.5 -153t53 -120.5t91.5 -78.5t134 -28q115 0 184 46t94 116l155 -44q-17 -44 -47 -88.5t-80 -80.5t-125 -59t-181 -23q-235 0 -358 140.5t-123 416.5q0 149 37.5 252.5t102 168t151 93.5t184.5 29q133 0 222.5 -43t144 -119t77.5 -179t23 -223v-23h-757 zM845 628q-15 168 -85.5 245t-202.5 77q-44 0 -92.5 -14.5t-90 -50.5t-70 -98.5t-32.5 -158.5h573zM794 -392q-27 -12 -62 -19t-74 -7q-103 0 -155 50t-52 133q0 46 17 84.5t40.5 68.5t49.5 50.5t45 31.5h131q-25 -14 -50.5 -36t-46.5 -51t-34 -63t-13 -72q0 -42 24 -65.5 t68 -23.5q28 0 56.5 6.5t55.5 17.5v-105z" />
<glyph unicode="&#x131;" horiz-adv-x="557" d="M190 0v1060h177v-1060h-177z" />
<glyph unicode="&#x141;" d="M604 781l-252 -146v-482h698v-153h-885v527l-145 -83v155l145 83v699h187v-591l252 145v-154z" />
<glyph unicode="&#x142;" horiz-adv-x="445" d="M135 0v531l-119 -66v154l119 67v768h177v-666l121 70v-155l-121 -70v-633h-177z" />
<glyph unicode="&#x143;" horiz-adv-x="1449" d="M1060 0l-739 1176q2 -48 5 -95q2 -40 3.5 -84.5t1.5 -79.5v-917h-166v1381h217l747 -1184l-6 96q-2 41 -4 89.5t-2 92.5v906h169v-1381h-226zM589 1499v20l212 221h203v-28l-304 -213h-111z" />
<glyph unicode="&#x144;" d="M812 0v672q0 78 -11 130t-36.5 83.5t-67 45t-103.5 13.5q-63 0 -113.5 -22t-86 -64t-55 -103t-19.5 -141v-614h-177v834q0 33 -0.5 70t-1.5 69.5t-2 56.5t-2 30h167q1 -5 2 -26.5t2.5 -49.5t2.5 -56.5t1 -48.5h3q25 46 55.5 83.5t70.5 63.5t92 40t121 14 q88 0 151.5 -21.5t105 -66.5t60.5 -116t19 -169v-707h-178zM451 1177v20l212 281h203v-29l-323 -272h-92z" />
<glyph unicode="&#x15a;" horiz-adv-x="1338" d="M1247 381q0 -87 -34 -160.5t-104.5 -127t-178 -83.5t-254.5 -30q-258 0 -402 90.5t-183 260.5l181 37q14 -54 42.5 -98.5t77 -76t120 -49.5t171.5 -18q83 0 153 14.5t119.5 44t77.5 76t28 110.5q0 68 -30.5 110t-86.5 69.5t-133.5 46t-171.5 40.5q-58 13 -116 28 t-111.5 36t-100.5 49.5t-81.5 68t-54 92t-19.5 121.5q0 98 39.5 168t110 115t166.5 65.5t208 20.5q128 0 219.5 -20t154 -60t100.5 -99.5t60 -137.5l-184 -32q-14 50 -40 89t-68 65.5t-102 40t-142 13.5q-96 0 -161 -17t-105 -46.5t-57 -69t-17 -85.5q0 -62 31 -101.5 t84 -66t122.5 -44.5t147.5 -35q64 -15 127 -30t121 -36t108.5 -49.5t87.5 -70t58.5 -97t21.5 -131.5zM551 1499v20l212 281h203v-29l-323 -272h-92z" />
<glyph unicode="&#x15b;" horiz-adv-x="1003" d="M931 293q0 -74 -29 -132.5t-84 -98t-134.5 -61t-182.5 -21.5q-92 0 -166 14.5t-130 46t-93.5 82.5t-55.5 126l156 30q22 -85 92.5 -124.5t196.5 -39.5q57 0 104.5 7.5t81.5 27t53.5 51t19.5 78.5q0 48 -23 79t-63 51.5t-97.5 36t-125.5 33.5q-64 17 -126.5 37.5 t-113 54.5t-82 84t-31.5 125q0 145 103.5 221t301.5 76q175 0 278.5 -61.5t130.5 -198.5l-158 -19q-9 41 -32.5 69t-57 45t-75 24.5t-86.5 7.5q-120 0 -176.5 -36.5t-56.5 -109.5q0 -43 21 -71t58.5 -47t90.5 -33.5t117 -30.5q42 -10 86 -22.5t85.5 -29.5t78.5 -40 t64.5 -55.5t43.5 -75.5t16 -100zM378 1177v20l212 281h203v-29l-323 -272h-92z" />
<glyph unicode="&#x179;" horiz-adv-x="1225" d="M1163 0h-1099v140l841 1088h-770v153h982v-136l-841 -1092h887v-153zM479 1499v20l212 221h203v-28l-304 -213h-111z" />
<glyph unicode="&#x17a;" horiz-adv-x="1003" d="M48 0v134l648 790h-609v136h808v-134l-649 -790h685v-136h-883zM374 1177v20l212 281h203v-29l-323 -272h-92z" />
<glyph unicode="&#x17b;" horiz-adv-x="1225" d="M1163 0h-1099v140l841 1088h-770v153h982v-136l-841 -1092h887v-153zM525 1499v169h176v-169h-176z" />
<glyph unicode="&#x17c;" horiz-adv-x="1003" d="M48 0v134l648 790h-609v136h808v-134l-649 -790h685v-136h-883zM401 1212v169h176v-169h-176z" />
<glyph unicode="&#x2c6;" horiz-adv-x="668" d="M649 1197v-20h-103l-215 166h-2l-227 -166h-102v20l229 264h200z" />
<glyph unicode="&#x2d9;" horiz-adv-x="668" d="M153 1212v169h176v-169h-176z" />
<glyph unicode="&#x2da;" horiz-adv-x="668" d="M524 1382q0 -49 -18.5 -92t-51 -75.5t-75.5 -51t-92 -18.5t-92 18.5t-75.5 51t-51 75.5t-18.5 92t18.5 92t51 75t75.5 50.5t92 18.5t92 -18.5t75.5 -50.5t51 -75t18.5 -92zM418 1382q0 27 -10 51t-27.5 42t-41.5 28t-52 10t-52 -10t-42 -28t-28 -42t-10 -51q0 -29 10 -53 t28 -42.5t42 -28.5t52 -10t52 10t41.5 28.5t27.5 42.5t10 53z" />
<glyph unicode="&#x2db;" horiz-adv-x="668" d="M421 -392q-27 -12 -62 -19t-74 -7q-103 0 -155 50t-52 133q0 46 17 84.5t40.5 68.5t49.5 50.5t45 31.5h131q-25 -14 -50.5 -36t-46.5 -51t-34 -63t-13 -72q0 -42 24 -65.5t68 -23.5q28 0 56.5 6.5t55.5 17.5v-105z" />
<glyph unicode="&#x2dc;" horiz-adv-x="668" d="M482 1177q-41 0 -82 18t-79.5 40t-73 40.5t-65.5 18.5q-54 0 -80.5 -30.5t-34.5 -86.5h-90q5 44 15 90.5t32 85t58.5 63t93.5 24.5q44 0 85 -18.5t79 -40.5t72 -40t63 -18q53 0 80 31t35 86h90q-5 -44 -14.5 -90.5t-31 -84.5t-57.5 -63t-95 -25z" />
<glyph unicode="&#x393;" horiz-adv-x="1105" d="M1050 1382v-153h-698v-1228h-187v1381h885z" />
<glyph unicode="&#x3a0;" horiz-adv-x="1449" d="M1099 0v1223h-747v-1223h-187v1381h1121v-1381h-187z" />
<glyph unicode="&#x401;" horiz-adv-x="1339" d="M165 0v1381h1047v-153h-860v-443h801v-151h-801v-481h900v-153h-1087zM799 1499v181h160v-181h-160zM413 1499v181h162v-181h-162z" />
<glyph unicode="&#x402;" horiz-adv-x="1735" d="M706 1228v-345q32 7 85.5 16.5t115.5 19t126 16t116 6.5q221 0 327.5 -91.5t106.5 -276.5v-209q0 -92 -20 -163t-62.5 -120t-107.5 -75t-155 -26q-52 0 -95 8.5t-80 24t-68.5 38.5t-59.5 50l109 120q17 -15 37.5 -31.5t44 -29t50.5 -21t60 -8.5q82 0 121 49.5t39 158.5 v215q0 116 -63 176t-204 60q-50 0 -110.5 -5t-119 -12.5t-110 -15.5t-83.5 -16v-741h-187v1228h-474v153h1135v-153h-474z" />
<glyph unicode="&#x403;" horiz-adv-x="1086" d="M1050 1382v-153h-698v-1228h-187v1381h885zM433 1499v20l212 221h203v-28l-304 -213h-111z" />
<glyph unicode="&#x404;" horiz-adv-x="1442" d="M776 1249q-109 0 -193.5 -33.5t-145.5 -95.5t-96.5 -149t-45.5 -195h641v-151h-641q9 -110 46.5 -200.5t100.5 -155t149 -100t193 -35.5q88 0 157 24.5t122 65t92 92t65 104.5l153 -75q-39 -77 -92 -144t-125.5 -116t-166 -77t-214.5 -28q-167 0 -293 53.5t-211 149 t-127 227t-42 287.5q0 161 44.5 291.5t130.5 222t211 141t286 49.5q221 0 369 -86t217 -256l-177 -58q-20 49 -53 93.5t-83 78.5t-117.5 55t-153.5 21z" />
<glyph unicode="&#x405;" horiz-adv-x="1338" d="M1247 381q0 -87 -34 -160.5t-104.5 -127t-178 -83.5t-254.5 -30q-258 0 -402 90.5t-183 260.5l181 37q14 -54 42.5 -98.5t77 -76t120 -49.5t171.5 -18q83 0 153 14.5t119.5 44t77.5 76t28 110.5q0 68 -30.5 110t-86.5 69.5t-133.5 46t-171.5 40.5q-58 13 -116 28 t-111.5 36t-100.5 49.5t-81.5 68t-54 92t-19.5 121.5q0 98 39.5 168t110 115t166.5 65.5t208 20.5q128 0 219.5 -20t154 -60t100.5 -99.5t60 -137.5l-184 -32q-14 50 -40 89t-68 65.5t-102 40t-142 13.5q-96 0 -161 -17t-105 -46.5t-57 -69t-17 -85.5q0 -62 31 -101.5 t84 -66t122.5 -44.5t147.5 -35q64 -15 127 -30t121 -36t108.5 -49.5t87.5 -70t58.5 -97t21.5 -131.5z" />
<glyph unicode="&#x406;" horiz-adv-x="557" d="M185 0v1381h187v-1381h-187z" />
<glyph unicode="&#x407;" horiz-adv-x="557" d="M185 0v1381h187v-1381h-187zM393 1499v181h160v-181h-160zM7 1499v181h162v-181h-162z" />
<glyph unicode="&#x408;" horiz-adv-x="1003" d="M448 -20q-168 0 -275 87.5t-142 275.5l184 30q9 -63 32 -108.5t54 -75t69.5 -43.5t78.5 -14q102 0 160.5 70t58.5 206v820h-265v153h452v-969q0 -99 -27.5 -178.5t-80 -136t-128 -87t-171.5 -30.5z" />
<glyph unicode="&#x409;" horiz-adv-x="2121" d="M2018 405q0 -86 -30 -159.5t-89.5 -128t-148.5 -86t-207 -31.5h-574v1224h-407l-48 -361q-22 -168 -43 -299t-45 -228.5t-53.5 -164.5t-67.5 -108.5t-88 -60t-115 -18.5q-25 0 -48 2.5t-36 7.5v149q10 -4 27.5 -5.5t27.5 -1.5q29 0 54.5 11.5t47.5 42t42.5 82.5t39.5 135 t39 199.5t40 274.5l66 500h754v-584h375q122 0 213.5 -28.5t152 -80t91 -123.5t30.5 -160zM1830 403q0 118 -80.5 181.5t-241.5 63.5h-352v-500h360q161 0 237.5 66.5t76.5 188.5z" />
<glyph unicode="&#x40a;" horiz-adv-x="2027" d="M1924 405q0 -86 -30 -159.5t-89.5 -128t-148.5 -86t-208 -31.5h-534v640h-562v-640h-187v1381h187v-584h562v584h188v-584h335q122 0 213 -28.5t152 -80t91.5 -123.5t30.5 -160zM1736 403q0 118 -80.5 181.5t-241.5 63.5h-312v-500h320q161 0 237.5 66.5t76.5 188.5z" />
<glyph unicode="&#x40b;" horiz-adv-x="1714" d="M1365 0v564q0 119 -62.5 172.5t-193.5 53.5q-52 0 -108.5 -5t-110.5 -12.5t-102 -16t-82 -15.5v-741h-187v1228h-474v153h1179v-153h-518v-345q35 8 83 17.5t103 18.5t112.5 15.5t112.5 6.5q225 0 329.5 -91.5t104.5 -266.5v-583h-186z" />
<glyph unicode="&#x40c;" horiz-adv-x="1169" d="M165 1381h187v-607q56 0 95.5 12t77 45t81.5 93.5t108 157.5l201 299h196l-277 -402q-128 -185 -175 -219l498 -760h-217l-419 669q-16 -7 -38.5 -13.5t-46 -12t-46 -8.5t-38.5 -3v-632h-187v1381zM490 1499v20l212 221h203v-28l-304 -213h-111z" />
<glyph unicode="&#x40e;" horiz-adv-x="1274" d="M719 312q-46 -87 -85.5 -149.5t-83.5 -102.5t-97.5 -60t-127.5 -20q-31 0 -63.5 5t-63.5 14t-59.5 21.5t-51.5 28.5l80 141q34 -21 74.5 -39.5t87.5 -18.5q37 0 65 10.5t54 36t54 69.5t65 111l48 87l-561 935h214l440 -769l376 769h201zM676 1499q-109 0 -178 28 t-108.5 72.5t-55 101t-17.5 112.5h160q6 -101 57 -148t142 -47t142 47t57 148h161q-2 -56 -17.5 -112.5t-55.5 -101t-109 -72.5t-178 -28z" />
<glyph unicode="&#x40f;" horiz-adv-x="1442" d="M633 -400v400h-468v1381h187v-1224h744v1224h182v-1381h-469v-400h-176z" />
<glyph unicode="&#x410;" horiz-adv-x="1338" d="M1144 0l-158 404h-629l-159 -404h-194l563 1381h213l555 -1381h-191zM753 1005q-16 40 -30 80t-25 73t-18.5 55t-8.5 27q-2 -5 -8.5 -27.5t-18 -56t-25.5 -73.5t-29 -79l-176 -454h516z" />
<glyph unicode="&#x411;" horiz-adv-x="1317" d="M1213 405q0 -86 -30 -159.5t-89 -128t-148 -86t-208 -31.5h-573v1381h907v-153h-720v-431h374q123 0 214 -28.5t151.5 -80t91 -123.5t30.5 -160zM1025 403q0 118 -80.5 181.5t-240.5 63.5h-352v-500h359q161 0 237.5 66.5t76.5 188.5z" />
<glyph unicode="&#x412;" horiz-adv-x="1338" d="M1233 389q0 -105 -41 -179t-111 -120.5t-162 -68t-194 -21.5h-560v1381h501q115 0 205 -19t153 -60.5t95.5 -104.5t32.5 -151q0 -58 -16 -109t-49 -92.5t-82 -71.5t-115 -45q83 -10 147.5 -38t107.5 -72.5t65.5 -102.5t22.5 -126zM964 1023q0 112 -76.5 160t-221.5 48 h-314v-437h314q83 0 139.5 16t92 46t51 72t15.5 95zM1044 404q0 65 -24 111.5t-69 75.5t-108.5 43t-141.5 14h-349v-498h363q72 0 132 11.5t104 41t68.5 78.5t24.5 123z" />
<glyph unicode="&#x413;" horiz-adv-x="1086" d="M1050 1382v-153h-698v-1228h-187v1381h885z" />
<glyph unicode="&#x414;" horiz-adv-x="1359" d="M1151 157h171v-557h-176v400h-955v-400h-176v557h141q40 50 72.5 117.5t59.5 156t48.5 200.5t38.5 250l66 500h710v-1224zM968 157v1067h-367l-48 -361q-18 -131 -37.5 -239.5t-42 -195.5t-49 -154t-57.5 -117h601z" />
<glyph unicode="&#x415;" horiz-adv-x="1338" d="M165 0v1381h1047v-153h-860v-443h801v-151h-801v-481h900v-153h-1087z" />
<glyph unicode="&#x416;" horiz-adv-x="1853" d="M833 632q-17 0 -39 3t-45.5 8.5t-46 12t-39.5 13.5l-418 -669h-218l499 760q-47 34 -175 219l-277 402h196l200 -299q65 -97 109 -157.5t81.5 -93.5t77 -45t95.5 -12v607h187v-607q56 0 95.5 12t77 45t81.5 93.5t109 157.5l201 299h196l-278 -402q-128 -185 -175 -219 l499 -760h-218l-418 669q-17 -7 -39.5 -13.5t-46 -12t-45.5 -8.5t-39 -3v-632h-187v632z" />
<glyph unicode="&#x417;" horiz-adv-x="1212" d="M609 -20q-116 0 -202.5 24.5t-150 69.5t-109.5 107.5t-81 139.5l161 76q24 -54 56.5 -102t77 -85t103.5 -58.5t138 -21.5q75 0 135 18.5t101.5 52t63.5 82.5t22 112q0 130 -94 188t-292 58h-70v145h70q177 0 262 58.5t85 178.5q0 54 -19 96t-54.5 71t-86.5 44t-114 15 q-76 0 -132 -20t-96.5 -53t-68 -77.5t-45.5 -92.5l-175 60q32 81 79 143t112 104.5t147 64.5t185 22q106 0 190.5 -26t143 -73t90 -113.5t31.5 -147.5q0 -67 -19.5 -119.5t-55.5 -91.5t-87 -66t-112 -42q65 -10 122.5 -34.5t100 -64.5t67.5 -96.5t25 -127.5 q0 -93 -33.5 -169.5t-98.5 -132t-159 -86t-213 -30.5z" />
<glyph unicode="&#x418;" horiz-adv-x="1442" d="M165 0v1381h168v-906q0 -50 -1 -98t-3 -86q-2 -45 -4 -84l735 1174h218v-1381h-167v917q0 39 0.5 82.5t2.5 80.5q1 43 3 86l-727 -1166h-225z" />
<glyph unicode="&#x419;" horiz-adv-x="1442" d="M165 0v1381h168v-906q0 -50 -1 -98t-3 -86q-2 -45 -4 -84l735 1174h218v-1381h-167v917q0 39 0.5 82.5t2.5 80.5q1 43 3 86l-727 -1166h-225zM727 1499q-109 0 -178 28t-108.5 72.5t-55 101t-17.5 112.5h160q6 -101 57 -148t142 -47t142 47t57 148h161 q-2 -56 -17.5 -112.5t-55.5 -101t-109 -72.5t-178 -28z" />
<glyph unicode="&#x41a;" horiz-adv-x="1169" d="M165 1381h187v-607q56 0 95.5 12t77 45t81.5 93.5t108 157.5l201 299h196l-277 -402q-128 -185 -175 -219l498 -760h-217l-419 669q-16 -7 -38.5 -13.5t-46 -12t-46 -8.5t-38.5 -3v-632h-187v1381z" />
<glyph unicode="&#x41b;" horiz-adv-x="1317" d="M971 1224h-409l-48 -361q-22 -168 -43 -299t-45 -228.5t-53.5 -164.5t-67.5 -108.5t-88 -60t-115 -18.5q-25 0 -48 2.5t-36 7.5v149q10 -4 27.5 -5.5t27.5 -1.5q29 0 54.5 11.5t47.5 42t42.5 82.5t39.5 135t39 199.5t40 274.5l66 500h751v-1381h-182v1224z" />
<glyph unicode="&#x41c;" horiz-adv-x="1671" d="M1339 0v921q0 50 1 102t3 95q2 50 5 97q-14 -50 -29 -99q-13 -42 -28 -89.5t-30 -85.5l-356 -941h-132l-361 941q-6 15 -12.5 34.5t-14 41.5t-14.5 45t-14 45q-17 52 -33 108q1 -55 3 -109q2 -46 3 -96.5t1 -88.5v-921h-166v1381h246l367 -958q7 -19 17 -50t18.5 -63.5 t16 -61t10.5 -44.5q3 16 10.5 45t18 61.5t20.5 63t17 49.5l361 958h240v-1381h-168z" />
<glyph unicode="&#x41d;" horiz-adv-x="1449" d="M1099 0v640h-747v-640h-187v1381h187v-584h747v584h187v-1381h-187z" />
<glyph unicode="&#x41e;" horiz-adv-x="1561" d="M1465 697q0 -162 -46.5 -294.5t-134.5 -226.5t-215.5 -145t-289.5 -51q-170 0 -298.5 53.5t-214 149t-128.5 227t-43 287.5q0 161 45 291.5t132.5 222t215 141t293.5 49.5q165 0 292.5 -50t214.5 -142t132 -222t45 -290zM1274 697q0 124 -32 226t-94 174.5t-154 112 t-213 39.5q-123 0 -216.5 -39.5t-155.5 -112t-93 -174.5t-31 -226q0 -125 32 -228t94 -178t155 -117t213 -42q129 0 223 42.5t154 117.5t89 178.5t29 226.5z" />
<glyph unicode="&#x41f;" horiz-adv-x="1442" d="M1097 0v1223h-747v-1223h-187v1381h1121v-1381h-187z" />
<glyph unicode="&#x420;" horiz-adv-x="1338" d="M1233 965q0 -90 -30 -168t-89.5 -135t-148.5 -90.5t-207 -33.5h-406v-538h-187v1381h581q122 0 213.5 -30t152 -84.5t91 -131.5t30.5 -170zM1045 963q0 132 -80.5 200t-241.5 68h-371v-545h379q162 0 238 71.5t76 205.5z" />
<glyph unicode="&#x421;" horiz-adv-x="1449" d="M776 1249q-117 0 -208 -39.5t-152 -112t-92.5 -174.5t-31.5 -226q0 -125 34 -228t97 -177.5t154.5 -116t206.5 -41.5q80 0 146.5 21t119.5 59.5t95.5 91t74.5 115.5l153 -76q-37 -77 -92 -144t-129 -116t-167.5 -77t-209.5 -28q-167 0 -293 53.5t-211 149t-127 227 t-42 287.5q0 161 44.5 291.5t130.5 222t211 141t286 49.5q221 0 369 -86t217 -256l-177 -58q-20 49 -53 93.5t-83 78.5t-117.5 55t-153.5 21z" />
<glyph unicode="&#x422;" horiz-adv-x="1225" d="M706 1228v-1228h-187v1228h-474v153h1135v-153h-474z" />
<glyph unicode="&#x423;" horiz-adv-x="1274" d="M719 312q-46 -87 -85.5 -149.5t-83.5 -102.5t-97.5 -60t-127.5 -20q-31 0 -63.5 5t-63.5 14t-59.5 21.5t-51.5 28.5l80 141q34 -21 74.5 -39.5t87.5 -18.5q37 0 65 10.5t54 36t54 69.5t65 111l48 87l-561 935h214l440 -769l376 769h201z" />
<glyph unicode="&#x424;" horiz-adv-x="1525" d="M1410 721q0 -103 -31 -195t-95.5 -162t-161 -111t-226.5 -41h-39v-223h-188v223h-39q-130 0 -226.5 41t-161 111t-95.5 162t-31 195q0 111 32.5 201.5t98 155t164 99.5t230.5 35h28v179h188v-179h27q132 0 231 -35t164.5 -99.5t98 -155t32.5 -201.5zM1222 717 q0 184 -90.5 272t-270.5 88h-4v-731h12q90 0 157 26t110.5 74t64.5 116.5t21 154.5zM304 717q0 -86 21 -154.5t64.5 -116.5t110 -74t157.5 -26h12v731h-8q-179 0 -268 -88t-89 -272z" />
<glyph unicode="&#x425;" horiz-adv-x="1338" d="M1090 0l-415 604l-423 -604h-207l525 717l-485 664h207l384 -542l374 542h206l-472 -657l513 -724h-207z" />
<glyph unicode="&#x426;" horiz-adv-x="1484" d="M1447 157v-557h-176v400h-1106v1381h187v-1224h742v1224h182v-1224h171z" />
<glyph unicode="&#x427;" horiz-adv-x="1337" d="M988 498q-35 -8 -81.5 -18t-98.5 -18.5t-108.5 -14.5t-111.5 -6q-112 0 -193 23t-134 68t-78.5 112t-25.5 155v582h186v-563q0 -120 63.5 -173t195.5 -53q52 0 105.5 5t104.5 12t96.5 15.5t79.5 15.5v741h186v-1381h-186v498z" />
<glyph unicode="&#x428;" horiz-adv-x="1839" d="M165 0v1381h187v-1224h479v1224h182v-1224h480v1224h182v-1381h-1510z" />
<glyph unicode="&#x429;" horiz-adv-x="1881" d="M1802 157v-557h-176v400h-1461v1381h187v-1224h457v1224h183v-1224h456v1224h183v-1224h171z" />
<glyph unicode="&#x42a;" horiz-adv-x="1588" d="M682 797h316q122 0 213 -28.5t152 -80t91.5 -123.5t30.5 -160q0 -86 -30 -159.5t-89.5 -128t-148.5 -86t-208 -31.5h-514v1228h-450v153h637v-584zM1297 403q0 118 -80.5 181.5t-241.5 63.5h-293v-500h301q161 0 237.5 66.5t76.5 188.5z" />
<glyph unicode="&#x42b;" horiz-adv-x="1776" d="M1213 405q0 -86 -30 -159.5t-89 -128t-148 -86t-208 -31.5h-573v1381h187v-584h374q123 0 214 -28.5t151.5 -80t91 -123.5t30.5 -160zM1025 403q0 118 -80.5 181.5t-240.5 63.5h-352v-500h359q161 0 237.5 66.5t76.5 188.5zM1425 0v1381h187v-1381h-187z" />
<glyph unicode="&#x42c;" horiz-adv-x="1317" d="M1213 405q0 -86 -30 -159.5t-89 -128t-148 -86t-208 -31.5h-573v1381h187v-584h374q123 0 214 -28.5t151.5 -80t91 -123.5t30.5 -160zM1025 399q0 118 -80.5 182.5t-240.5 64.5h-352v-498h359q162 0 238 64t76 187z" />
<glyph unicode="&#x42d;" horiz-adv-x="1442" d="M699 1249q-87 0 -154 -21t-117 -55t-83.5 -78.5t-52.5 -93.5l-177 58q69 170 217 256t369 86q160 0 285.5 -49.5t211.5 -141t130.5 -222t44.5 -291.5q0 -156 -42 -287.5t-126.5 -227t-210.5 -149t-293 -53.5q-116 0 -208.5 26.5t-165.5 75t-128.5 115.5t-95.5 148l153 76 q26 -53 66 -104.5t93 -92.5t122 -65.5t154 -24.5q107 0 193 35.5t149 100t100.5 155t46.5 200.5h-641v151h641q-10 108 -45.5 195t-96.5 149t-145.5 95.5t-193.5 33.5z" />
<glyph unicode="&#x42e;" horiz-adv-x="2027" d="M1932 697q0 -162 -44.5 -294.5t-127.5 -226.5t-203 -145t-272 -51q-153 0 -270 48.5t-198 136.5t-125 209t-51 266h-289v-640h-187v1381h187v-584h292q13 139 61.5 251t129.5 190.5t195 120.5t257 42q156 0 276 -50t201.5 -142t124.5 -222t43 -290zM1740 697 q0 124 -29 226t-86.5 174.5t-142.5 112t-195 39.5q-114 0 -199.5 -39.5t-143 -112t-86 -174.5t-28.5 -226q0 -125 29.5 -228t87 -178t142 -117t196.5 -42q118 0 204.5 42.5t142.5 117.5t82 178.5t26 226.5z" />
<glyph unicode="&#x42f;" horiz-adv-x="1449" d="M94 0l392 595q-89 16 -152.5 54t-105 91t-60.5 116.5t-19 129.5q0 92 32.5 165.5t94 124.5t152 78t208.5 27h650v-1381h-187v573h-431l-358 -573h-216zM337 984q0 -56 18 -104t56 -83.5t96 -55.5t140 -20h452v510h-444q-75 0 -133.5 -15.5t-100 -46t-63 -76.5t-21.5 -109 z" />
<glyph unicode="&#x430;" d="M406 -20q-160 0 -240.5 84.5t-80.5 231.5q0 105 40 172t104 105.5t146.5 53t167.5 16.5l238 4v58q0 65 -13.5 111t-42 74.5t-71 42t-100.5 13.5q-51 0 -92.5 -7.5t-71.5 -26.5t-49 -52t-24 -83l-185 17q10 63 37.5 115t78 90.5t126.5 59.5t184 21q200 0 300.5 -91.5 t100.5 -265.5v-456q0 -79 21 -118.5t78 -39.5q15 0 29.5 2t28.5 5v-110q-33 -8 -66 -12t-70 -4q-50 0 -86 13.5t-58.5 40.5t-34 66.5t-14.5 92.5h-6q-28 -51 -62 -92t-79 -70t-102.5 -45t-131.5 -16zM446 113q84 0 147.5 30.5t105 78.5t62 105t20.5 109v87l-193 -4 q-65 -1 -123 -9t-102.5 -32.5t-70 -68.5t-25.5 -116q0 -86 46.5 -133t132.5 -47z" />
<glyph unicode="&#x431;" horiz-adv-x="1149" d="M880 492q0 112 -19 186t-55 118.5t-87 62.5t-114 18q-68 0 -124 -19t-95.5 -64t-61 -118.5t-21.5 -183.5q0 -112 21.5 -185.5t59 -117t89 -61t112.5 -17.5q68 0 122.5 17.5t93 60.5t59 117t20.5 186zM642 1006q217 0 320 -127.5t103 -384.5q0 -260 -122.5 -387 t-355.5 -127q-111 0 -198 34.5t-147.5 111t-92 199t-31.5 298.5q0 188 28 324.5t91 231t164 151t245 83.5q56 11 105 19.5t93.5 15t86.5 12.5l84 12v-158q-84 -11 -163 -22t-168 -28q-76 -14 -137 -30t-107 -40.5t-79 -60t-54.5 -88.5t-32.5 -126t-13 -172q18 54 51 101.5 t80.5 82.5t109.5 55t140 20z" />
<glyph unicode="&#x432;" horiz-adv-x="1066" d="M553 1060q74 0 144.5 -11.5t125.5 -42t88.5 -81.5t33.5 -130q0 -52 -17.5 -92t-46.5 -68t-69.5 -46.5t-85.5 -26.5v-7q53 -7 99.5 -24t80.5 -47t53.5 -74t19.5 -104q0 -77 -30 -134t-83.5 -95.5t-127.5 -57.5t-163 -19h-436v1060h414zM316 130h231q67 0 114 10t75.5 31.5 t42 54.5t13.5 79q0 49 -14 83t-44.5 56t-79.5 31.5t-119 9.5h-219v-355zM316 926v-314h211q67 0 111.5 9.5t71.5 28.5t38.5 49t11.5 72q0 81 -50 118t-169 37h-225z" />
<glyph unicode="&#x433;" horiz-adv-x="732" d="M673 1060v-128h-357v-932h-177v1060h534z" />
<glyph unicode="&#x434;" horiz-adv-x="1171" d="M817 932h-300q-23 -173 -47 -302t-47.5 -224t-47 -162t-45.5 -116h487v804zM1137 -400h-160v400h-798v-400h-159v528h116q30 49 58 119.5t56.5 178t56.5 262t56 372.5h631v-932h143v-528z" />
<glyph unicode="&#x435;" d="M270 493q0 -83 17.5 -153t53 -120.5t91.5 -78.5t134 -28q115 0 184 46t94 116l155 -44q-17 -44 -47 -88.5t-80 -80.5t-125 -59t-181 -23q-235 0 -358 140.5t-123 416.5q0 149 37.5 252.5t102 168t151 93.5t184.5 29q133 0 222.5 -43t144 -119t77.5 -179t23 -223v-23h-757 zM845 628q-15 168 -85.5 245t-202.5 77q-44 0 -92.5 -14.5t-90 -50.5t-70 -98.5t-32.5 -158.5h573z" />
<glyph unicode="&#x436;" horiz-adv-x="1342" d="M583 467q-25 0 -57 6t-51 14l-272 -487h-196l346 580q-17 14 -49.5 55.5t-76.5 106.5l-211 318h184l145 -234q47 -75 79 -120t57.5 -69.5t49 -32.5t52.5 -8v464h177v-464q29 0 52.5 8t49 32.5t57.5 69.5t79 120l145 234h184l-212 -318q-44 -65 -76.5 -106.5t-48.5 -55.5 l346 -580h-196l-273 487q-18 -8 -50 -14t-57 -6v-467h-177v467z" />
<glyph unicode="&#x437;" horiz-adv-x="920" d="M449 -20q-164 0 -260.5 61.5t-140.5 187.5l156 43q24 -76 86 -118t163 -42q94 0 149.5 46t55.5 135q0 58 -27 96t-72 60t-104 31t-122 9v134q63 0 119 7.5t98 26t66 51.5t24 84q0 72 -48.5 114.5t-139.5 42.5q-35 0 -69 -7t-63.5 -23t-50 -43t-27.5 -68l-159 19 q12 67 42.5 115t78 79t110 45t139.5 14q83 0 150.5 -20.5t115.5 -58t74 -88.5t26 -112q0 -56 -21.5 -99t-56 -73t-78 -47.5t-87.5 -21.5v-2q55 -6 104 -26t86 -53t58 -78.5t21 -102.5q0 -68 -24 -126t-73.5 -101t-124 -67t-174.5 -24z" />
<glyph unicode="&#x438;" horiz-adv-x="1121" d="M310 1060v-580q0 -22 -1.5 -60t-3 -78t-3 -76.5t-2.5 -56.5l489 851h193v-1060h-169v647q0 18 1 46t2.5 57.5t3 57.5t3.5 48l-496 -856h-188v1060h171z" />
<glyph unicode="&#x439;" horiz-adv-x="1121" d="M310 1060v-580q0 -22 -1.5 -60t-3 -78t-3 -76.5t-2.5 -56.5l489 851h193v-1060h-169v647q0 18 1 46t2.5 57.5t3 57.5t3.5 48l-496 -856h-188v1060h171zM562 1176q-109 0 -178 28t-108.5 72.5t-55 101t-17.5 112.5h160q6 -101 57 -148t142 -47t142 47t57 148h161 q-2 -56 -17.5 -112.5t-55.5 -101t-109 -72.5t-178 -28z" />
<glyph unicode="&#x43a;" horiz-adv-x="878" d="M135 1060h177v-464q29 0 52.5 8t49 32.5t57.5 69.5t79 120l145 234h184l-212 -318q-44 -65 -76 -106.5t-49 -55.5l346 -580h-196l-273 487q-18 -8 -50 -14t-57 -6v-467h-177v1060z" />
<glyph unicode="&#x43b;" horiz-adv-x="1171" d="M855 0v932h-368q-24 -180 -45 -321t-42.5 -246.5t-46.5 -178.5t-59.5 -118.5t-80.5 -66.5t-110 -21q-29 0 -52.5 4t-39.5 9v127q11 -4 29.5 -6.5t36.5 -2.5q35 0 60 20.5t44.5 66.5t35.5 119t33 179t35.5 245.5t42.5 318.5h704v-1060h-177z" />
<glyph unicode="&#x43c;" horiz-adv-x="1379" d="M771 0h-150l-317 932q1 -26 2.5 -55t2 -59t1 -58t0.5 -50v-710h-171v1060h275l215 -647q23 -62 41 -136t26 -145q10 71 27 145t39 136l216 647h264v-1060h-170v710q0 21 0.5 50.5t2 61t2.5 60.5t3 52z" />
<glyph unicode="&#x43d;" horiz-adv-x="1108" d="M316 1060v-448h477v448h176v-1060h-176v483h-477v-483h-177v1060h177z" />
<glyph unicode="&#x43e;" d="M1032 531q0 -278 -122.5 -414.5t-355.5 -136.5q-111 0 -198 33.5t-147.5 102t-92.5 172t-32 243.5q0 549 476 549q123 0 212.5 -34.5t147 -103t85 -171.5t27.5 -240zM847 531q0 124 -19.5 204t-56 128t-89.5 67.5t-119 19.5q-68 0 -122.5 -20.5t-92.5 -69t-58 -128.5 t-20 -201q0 -123 21.5 -204t59 -129t89 -67.5t112.5 -19.5q67 0 122 19t93.5 67t59 129.5t20.5 204.5z" />
<glyph unicode="&#x43f;" horiz-adv-x="1086" d="M948 1060v-1060h-177v932h-455v-932h-177v1060h809z" />
<glyph unicode="&#x440;" d="M1032 535q0 -120 -19.5 -222t-65 -175.5t-120.5 -115.5t-185 -42q-114 0 -199 43.5t-130 141.5h-5q1 -2 1.5 -18t1 -39.5t1 -52.5t0.5 -57v-414h-177v1260q0 38 -0.5 73.5t-1.5 64t-2 49.5t-2 29h171q1 -3 2.5 -20.5t3 -42.5t3 -53.5t1.5 -53.5h4q24 51 55.5 86.5 t71.5 58.5t89.5 33.5t111.5 10.5q110 0 185 -39t120.5 -110.5t65 -171.5t19.5 -223zM847 531q0 98 -12 174.5t-41 129.5t-77 80.5t-120 27.5q-59 0 -111 -17t-90.5 -64t-61 -129.5t-22.5 -215.5q0 -112 18.5 -190t54 -126t88.5 -69t122 -21q73 0 121.5 28.5t77.5 82 t41 131.5t12 178z" />
<glyph unicode="&#x441;" horiz-adv-x="1003" d="M270 535q0 -91 13 -167.5t44.5 -132t83 -85.5t126.5 -30q94 0 157.5 50.5t77.5 156.5l179 -11q-9 -66 -38.5 -127t-80 -107t-123 -74t-167.5 -28q-125 0 -212 42.5t-141.5 116.5t-79 174.5t-24.5 217.5q0 107 18 189t49.5 143t74.5 102.5t93.5 66.5t106.5 36.5t113 11.5 q89 0 158.5 -24.5t120 -67t82 -100.5t44.5 -125l-182 -13q-13 88 -69 140t-159 52q-75 0 -125.5 -25t-82 -75.5t-44.5 -127t-13 -179.5z" />
<glyph unicode="&#x442;" horiz-adv-x="919" d="M34 1060h851v-128h-337v-932h-177v932h-337v128z" />
<glyph unicode="&#x443;" horiz-adv-x="1003" d="M592 0q-37 -96 -76 -173t-87 -131.5t-106.5 -83t-135.5 -28.5q-33 0 -61.5 1.5t-59.5 8.5v133q18 -3 41.5 -4.5t40.5 -1.5q77 0 144 57.5t117 184.5l16 42l-420 1055h188l223 -586q10 -26 25.5 -70t30.5 -88.5t27 -79.5t14 -44q2 11 13.5 43t25.5 71t29 79t25 70l207 605 h187z" />
<glyph unicode="&#x444;" horiz-adv-x="1651" d="M1566 535q0 -120 -18.5 -222t-60.5 -175.5t-111 -115.5t-168 -42q-103 0 -180 43.5t-119 141.5h-5q2 -35 3 -72.5t1 -94.5v-414h-166v414q0 53 1 93t4 80h-5q-45 -102 -118 -146.5t-182 -44.5q-182 0 -270 135t-88 410q0 279 91 417t267 138q110 0 183 -44t117 -140h5 q0 10 -1 30t-2 42.5t-1.5 43t-0.5 32.5v410h166v-411q0 -11 -0.5 -32t-1 -44t-0.5 -44v-33h4q46 102 116.5 145.5t181.5 43.5q99 0 168 -39t111 -110.5t60.5 -171.5t18.5 -223zM270 531q0 -110 12.5 -188t40 -128.5t69 -74t100.5 -23.5t105 21t78 69t48.5 125t18.5 187v24 q0 113 -16.5 190.5t-48 125.5t-77.5 69.5t-106 21.5q-56 0 -98 -22.5t-70 -72.5t-42 -130t-14 -194zM1381 531q0 98 -11.5 174.5t-37 129.5t-68.5 80.5t-106 27.5q-52 0 -97 -17t-79 -64t-54 -129.5t-20 -215.5v-22q1 -106 18.5 -179.5t49 -119t77 -65.5t103.5 -20 q64 0 107 28.5t69 82t37.5 131.5t11.5 178z" />
<glyph unicode="&#x445;" horiz-adv-x="1003" d="M785 0l-285 435l-287 -435h-190l377 545l-360 515h195l265 -412l262 412h197l-359 -513l382 -547h-197z" />
<glyph unicode="&#x446;" horiz-adv-x="1149" d="M316 1060v-932h467v932h176v-932h144v-528h-159v400h-805v1060h177z" />
<glyph unicode="&#x447;" horiz-adv-x="1045" d="M296 1060v-394q0 -33 8 -62t27 -50.5t50.5 -33.5t77.5 -12q68 0 133 12.5t137 33.5v506h177v-1060h-177v452q-37 -15 -77 -30t-82.5 -27t-88 -19.5t-95.5 -7.5q-65 0 -114.5 20t-83 57t-51 91t-17.5 122v402h176z" />
<glyph unicode="&#x448;" horiz-adv-x="1610" d="M139 0v1060h177v-932h401v932h177v-932h401v932h176v-1060h-1332z" />
<glyph unicode="&#x449;" horiz-adv-x="1651" d="M139 0v1060h177v-932h396v932h177v-932h396v932h176v-932h144v-528h-159v400h-1307z" />
<glyph unicode="&#x44a;" horiz-adv-x="1254" d="M765 612q201 0 304 -72.5t103 -227.5q0 -73 -25.5 -131t-76.5 -98t-127 -61.5t-177 -21.5h-400v932h-322v128h498v-448h223zM542 124h198q68 0 115 12.5t75.5 36.5t41.5 59t13 80q0 92 -57 134.5t-187 42.5h-199v-365z" />
<glyph unicode="&#x44b;" horiz-adv-x="1442" d="M539 612q201 0 304 -72.5t103 -227.5q0 -73 -25.5 -131t-76.5 -98t-127 -61.5t-177 -21.5h-401v1060h177v-448h223zM316 124h198q67 0 114 12.5t76 36.5t42 59t13 80q0 92 -57 134.5t-188 42.5h-198v-365zM1127 0v1060h176v-1060h-176z" />
<glyph unicode="&#x44c;" horiz-adv-x="1045" d="M557 612q201 0 303.5 -72.5t102.5 -227.5q0 -73 -25.5 -131t-76.5 -98t-126.5 -61.5t-176.5 -21.5h-419v1060h177v-448h241zM316 124h215q68 0 115 12.5t76 36.5t41.5 59t12.5 80q0 92 -57 134.5t-187 42.5h-216v-365z" />
<glyph unicode="&#x44d;" horiz-adv-x="1024" d="M54 309l178 11q16 -105 81 -156t163 -51q72 0 122.5 26t83.5 73.5t50 113.5t22 146h-405v129h405q-4 88 -21 153t-49.5 108.5t-83 65t-122.5 21.5q-107 0 -164.5 -51.5t-72.5 -140.5l-181 13q13 67 45 124t83.5 98t122.5 64.5t162 23.5q89 0 172 -26t148.5 -88.5 t105.5 -168.5t40 -266q0 -117 -25 -217.5t-81 -174.5t-145 -116.5t-217 -42.5q-97 0 -171 26.5t-126 71.5t-81.5 105t-38.5 126z" />
<glyph unicode="&#x44e;" horiz-adv-x="1505" d="M1421 531q0 -278 -115 -414.5t-334 -136.5q-100 0 -179 30.5t-135 93.5t-88 157t-37 222h-217v-483h-177v1060h177v-448h218q32 468 444 468q232 0 337.5 -137t105.5 -412zM1236 531q0 124 -17.5 204t-50 128t-80 67.5t-107.5 19.5q-62 0 -110.5 -20.5t-82.5 -69 t-52.5 -128.5t-18.5 -201q0 -123 19.5 -204t53.5 -129t80 -67.5t101 -19.5q61 0 110 19t83.5 67t53 129.5t18.5 204.5z" />
<glyph unicode="&#x44f;" horiz-adv-x="1086" d="M524 449l-308 -449h-199l337 462q-129 26 -186.5 106t-57.5 199q0 146 105.5 219.5t308.5 73.5h424v-1060h-177v449h-247zM771 936h-229q-127 0 -186 -45t-59 -136q0 -93 52.5 -138.5t173.5 -45.5h248v365z" />
<glyph unicode="&#x451;" d="M270 493q0 -83 17.5 -153t53 -120.5t91.5 -78.5t134 -28q115 0 184 46t94 116l155 -44q-17 -44 -47 -88.5t-80 -80.5t-125 -59t-181 -23q-235 0 -358 140.5t-123 416.5q0 149 37.5 252.5t102 168t151 93.5t184.5 29q133 0 222.5 -43t144 -119t77.5 -179t23 -223v-23h-757 zM845 628q-15 168 -85.5 245t-202.5 77q-44 0 -92.5 -14.5t-90 -50.5t-70 -98.5t-32.5 -158.5h573zM673 1195v180h160v-180h-160zM287 1195v180h162v-180h-162z" />
<glyph unicode="&#x452;" d="M139 0v1182h-129v128h129v144h177v-144h294v-128h-294v-145q0 -33 -1 -65t-2.5 -59.5t-2.5 -46.5t-2 -26h3q29 54 63.5 91.5t75.5 62t90 36t110 11.5q102 0 167 -27.5t102.5 -77t52 -118t14.5 -151.5v-798q0 -61 -10.5 -113t-37 -90t-72 -60t-115.5 -22q-34 0 -65.5 1.5 t-59.5 6.5v137q13 -2 30.5 -4t30.5 -2q37 0 61 9.5t37.5 30.5t18 54t4.5 78v738q0 68 -8 119t-31.5 84.5t-66.5 51t-112 17.5q-63 0 -113.5 -23t-86 -64t-55 -99.5t-19.5 -132.5v-586h-177z" />
<glyph unicode="&#x453;" horiz-adv-x="732" d="M673 1060v-128h-357v-932h-177v1060h534zM283 1177v20l212 281h203v-29l-323 -272h-92z" />
<glyph unicode="&#x454;" horiz-adv-x="1024" d="M553 -20q-128 0 -217 42.5t-145 116.5t-81 174.5t-25 217.5q0 160 40 266t105.5 168.5t149 88.5t171.5 26q91 0 162 -23.5t122.5 -64.5t84 -98t44.5 -124l-181 -13q-15 89 -72.5 140.5t-164.5 51.5q-72 0 -122.5 -21.5t-83 -65t-49.5 -108.5t-21 -153h404v-129h-404 q3 -80 20.5 -146t50.5 -113.5t83.5 -73.5t123.5 -26q98 0 163 50.5t81 156.5l178 -11q-9 -66 -38.5 -126t-81.5 -105t-126 -71.5t-171 -26.5z" />
<glyph unicode="&#x455;" horiz-adv-x="1003" d="M931 293q0 -74 -29 -132.5t-84 -98t-134.5 -61t-182.5 -21.5q-92 0 -166 14.5t-130 46t-93.5 82.5t-55.5 126l156 30q22 -85 92.5 -124.5t196.5 -39.5q57 0 104.5 7.5t81.5 27t53.5 51t19.5 78.5q0 48 -23 79t-63 51.5t-97.5 36t-125.5 33.5q-64 17 -126.5 37.5 t-113 54.5t-82 84t-31.5 125q0 145 103.5 221t301.5 76q175 0 278.5 -61.5t130.5 -198.5l-158 -19q-9 41 -32.5 69t-57 45t-75 24.5t-86.5 7.5q-120 0 -176.5 -36.5t-56.5 -109.5q0 -43 21 -71t58.5 -47t90.5 -33.5t117 -30.5q42 -10 86 -22.5t85.5 -29.5t78.5 -40 t64.5 -55.5t43.5 -75.5t16 -100z" />
<glyph unicode="&#x456;" horiz-adv-x="445" d="M134 1286v168h177v-168h-177zM134 0v1060h177v-1060h-177z" />
<glyph unicode="&#x457;" horiz-adv-x="557" d="M190 0v1060h177v-1060h-177zM378 1195v180h160v-180h-160zM-8 1195v180h162v-180h-162z" />
<glyph unicode="&#x458;" horiz-adv-x="445" d="M134 1286v168h177v-168h-177zM311 -131q0 -61 -10.5 -113t-37 -90t-72 -60t-116.5 -22q-33 0 -65 1.5t-59 6.5v137q13 -2 30.5 -4t30.5 -2q37 0 61 9.5t37.5 30.5t18.5 54t5 78v1165h177v-1191z" />
<glyph unicode="&#x459;" horiz-adv-x="1818" d="M1330 612q201 0 304 -72.5t103 -227.5q0 -73 -25.5 -131t-76.5 -98t-127 -61.5t-177 -21.5h-441v932h-403q-24 -180 -45 -321t-42.5 -246.5t-46.5 -178.5t-59.5 -118.5t-80.5 -66.5t-110 -21q-29 0 -52.5 4t-39.5 9v127q11 -4 29.5 -6.5t36.5 -2.5q35 0 60 20.5 t44.5 66.5t35.5 119t33 179t35.5 245.5t42.5 318.5h739v-448h263zM1067 124h237q68 0 115 12.5t76 36.5t41.5 59t12.5 80q0 92 -56.5 134.5t-187.5 42.5h-238v-365z" />
<glyph unicode="&#x45a;" horiz-adv-x="1630" d="M918 1060v-448h224q201 0 303.5 -72.5t102.5 -227.5q0 -73 -25.5 -131t-76 -98t-126.5 -61.5t-177 -21.5h-402v483h-425v-483h-177v1060h177v-448h425v448h177zM918 124h198q68 0 115 12.5t76 36.5t41.5 59t12.5 80q0 92 -56.5 134.5t-187.5 42.5h-199v-365z" />
<glyph unicode="&#x45b;" d="M311 840q29 54 63.5 91.5t75.5 62t90 36t110 11.5q102 0 167 -27.5t102.5 -77t52 -118t14.5 -151.5v-667h-178v633q0 68 -8 119t-31.5 84.5t-66.5 51t-112 17.5q-63 0 -113.5 -23t-86 -64t-55 -99.5t-19.5 -132.5v-586h-177v1182h-129v128h129v144h177v-144h294v-128 h-294v-145q0 -33 -1 -65t-2.5 -59.5t-2.5 -46.5t-2 -26h3z" />
<glyph unicode="&#x45c;" horiz-adv-x="878" d="M135 1060h177v-464q29 0 52.5 8t49 32.5t57.5 69.5t79 120l145 234h184l-212 -318q-44 -65 -76 -106.5t-49 -55.5l346 -580h-196l-273 487q-18 -8 -50 -14t-57 -6v-467h-177v1060zM384 1177v20l212 281h203v-29l-323 -272h-92z" />
<glyph unicode="&#x45e;" horiz-adv-x="1003" d="M592 0q-37 -96 -76 -173t-87 -131.5t-106.5 -83t-135.5 -28.5q-33 0 -61.5 1.5t-59.5 8.5v133q18 -3 41.5 -4.5t40.5 -1.5q77 0 144 57.5t117 184.5l16 42l-420 1055h188l223 -586q10 -26 25.5 -70t30.5 -88.5t27 -79.5t14 -44q2 11 13.5 43t25.5 71t29 79t25 70l207 605 h187zM512 1176q-109 0 -178 28t-108.5 72.5t-55 101t-17.5 112.5h160q6 -101 57 -148t142 -47t142 47t57 148h161q-2 -56 -17.5 -112.5t-55.5 -101t-109 -72.5t-178 -28z" />
<glyph unicode="&#x45f;" horiz-adv-x="1108" d="M139 0v1060h177v-932h477v932h176v-1060h-335v-400h-160v400h-335z" />
<glyph unicode="&#x490;" horiz-adv-x="980" d="M759 1381v403h176v-556h-583v-1227h-187v1380h594z" />
<glyph unicode="&#x491;" horiz-adv-x="825" d="M316 0h-177v1060h464v394h159v-522h-446v-932z" />
<glyph unicode="&#x2000;" horiz-adv-x="906" />
<glyph unicode="&#x2001;" horiz-adv-x="1813" />
<glyph unicode="&#x2002;" horiz-adv-x="906" />
<glyph unicode="&#x2003;" horiz-adv-x="1813" />
<glyph unicode="&#x2004;" horiz-adv-x="604" />
<glyph unicode="&#x2005;" horiz-adv-x="453" />
<glyph unicode="&#x2006;" horiz-adv-x="302" />
<glyph unicode="&#x2007;" horiz-adv-x="302" />
<glyph unicode="&#x2008;" horiz-adv-x="226" />
<glyph unicode="&#x2009;" horiz-adv-x="362" />
<glyph unicode="&#x200a;" horiz-adv-x="100" />
<glyph unicode="&#x2010;" horiz-adv-x="668" d="M89 455v157h490v-157h-490z" />
<glyph unicode="&#x2011;" horiz-adv-x="668" d="M89 455v157h490v-157h-490z" />
<glyph unicode="&#x2012;" horiz-adv-x="668" d="M89 455v157h490v-157h-490z" />
<glyph unicode="&#x2013;" d="M0 442v134h1115v-134h-1115z" />
<glyph unicode="&#x2014;" horiz-adv-x="2007" d="M0 442v134h2007v-134h-2007z" />
<glyph unicode="&#x2018;" horiz-adv-x="445" d="M124 933v143q0 51 5 93t15 79t24.5 69t34.5 64h118q-44 -64 -68.5 -128.5t-24.5 -128.5h88v-191h-192z" />
<glyph unicode="&#x2019;" horiz-adv-x="445" d="M321 1239q0 -52 -4 -94.5t-14 -79t-24 -69t-34 -63.5h-121q45 64 69 128.5t24 126.5h-87v193h191v-142z" />
<glyph unicode="&#x201a;" horiz-adv-x="445" d="M321 50q0 -52 -4 -94.5t-14 -79.5t-24 -69t-34 -64h-121q45 64 69 128.5t24 128.5h-87v191h191v-141z" />
<glyph unicode="&#x201c;" horiz-adv-x="668" d="M399 933v143q0 51 5 93t14 79t23.5 69t33.5 64h120q-44 -64 -68 -128.5t-24 -128.5h86v-191h-190zM74 933v143q0 51 4.5 93t14.5 79t24.5 69t34.5 64h118q-44 -64 -68.5 -128.5t-24.5 -128.5h88v-191h-191z" />
<glyph unicode="&#x201d;" horiz-adv-x="668" d="M595 1239q0 -52 -5 -94.5t-14.5 -79t-24 -69t-34.5 -63.5h-118q44 64 68 128.5t24 128.5h-86v191h190v-142zM270 1239q0 -52 -4 -94.5t-14 -79t-24 -69t-34 -63.5h-120q44 64 68 128.5t24 128.5h-87v191h191v-142z" />
<glyph unicode="&#x201e;" horiz-adv-x="668" d="M595 50q0 -52 -5 -94.5t-14.5 -79.5t-24 -69t-34.5 -64h-118q44 64 68 128.5t24 128.5h-86v191h190v-141zM270 50q0 -52 -4 -94.5t-14 -79.5t-24 -69t-34 -64h-120q44 64 68 128.5t24 128.5h-87v191h191v-141z" />
<glyph unicode="&#x2022;" horiz-adv-x="702" d="M623 668q0 -56 -22 -106t-59 -88t-87 -59.5t-107 -21.5q-56 0 -104.5 21.5t-85 59.5t-58 88t-21.5 106t21.5 105t58 85.5t85 57.5t104.5 21q57 0 107 -21t87 -57.5t59 -85.5t22 -105z" />
<glyph unicode="&#x2026;" horiz-adv-x="2007" d="M1544 0v215h191v-215h-191zM910 0v215h189v-215h-189zM272 0v215h192v-215h-192z" />
<glyph unicode="&#x202f;" horiz-adv-x="362" />
<glyph unicode="&#x2039;" horiz-adv-x="668" d="M416 138l-330 358v62l330 363h163v-30l-328 -365l330 -359v-29h-165z" />
<glyph unicode="&#x203a;" horiz-adv-x="668" d="M252 138h-165v29l331 359l-329 365v30h163l330 -363v-62z" />
<glyph unicode="&#x205f;" horiz-adv-x="453" />
<glyph unicode="&#x20ac;" d="M677 123q98 0 157 49t72 139l182 -14q-13 -67 -44 -124.5t-81.5 -100.5t-122.5 -67.5t-167 -24.5q-117 0 -204 38t-146 106t-93 162t-47 206h-167l39 126h117q0 8 -1 30.5t-1 46.5q0 26 1 52t1 32h-156l39 125h126q15 119 51 211.5t96 156.5t145 96.5t197 32.5 q95 0 167 -24.5t122.5 -67t81.5 -100t44 -124.5l-181 -14q-14 89 -73.5 138t-163.5 49q-66 0 -118 -19t-91 -61.5t-63.5 -109.5t-34.5 -164h437l-39 -125h-405q-2 -16 -2.5 -39t-0.5 -45t1 -40t3 -37h443l-39 -126h-396q8 -79 29 -147t58.5 -117t93.5 -77t134 -28z" />
<glyph unicode="&#x2122;" horiz-adv-x="2007" d="M1657 621v417v190q-5 -11 -9 -22q-4 -8 -6 -17t-4 -14l-226 -554h-106l-159 405q-2 5 -14 36.5t-26 68.5q-16 43 -36 97q-1 -10 -1 -20q-1 -8 -1 -16.5v-14.5v-556h-125v760h186l218 -552q2 -4 4.5 -10.5t4.5 -12.5l6 -18q20 50 35 90q7 18 13.5 34.5t12 30t9 22.5 t3.5 11l164 405h181v-760h-124zM565 1272v-651h-131v651h-250v109h637v-109h-256z" />
<glyph unicode="&#x25fc;" horiz-adv-x="1058" d="M0 1058h1058v-1058h-1058v1058z" />
<glyph horiz-adv-x="668" d="M333 1176q-109 0 -178 28t-108.5 72.5t-55 101t-17.5 112.5h160q6 -101 57 -148t142 -47t142 47t57 148h161q-2 -56 -17.5 -112.5t-55.5 -101t-109 -72.5t-178 -28z" />
<glyph horiz-adv-x="589" d="M71 1499v20l212 221h203v-28l-304 -213h-111z" />
<glyph horiz-adv-x="634" d="M430 1499v181h160v-181h-160zM44 1499v181h162v-181h-162z" />
</font>
</defs>
</svg>
