<?xml version="1.0" standalone="no"?>
<!DOCTYPE svg PUBLIC "-//W3C//DTD SVG 1.1//EN" "http://www.w3.org/Graphics/SVG/1.1/DTD/svg11.dtd" >
<svg xmlns="http://www.w3.org/2000/svg" xmlns:xlink="http://www.w3.org/1999/xlink" version="1.1">
<metadata></metadata>
<defs>
<font id="liberation_sansitalic" horiz-adv-x="1116" >
<font-face units-per-em="2048" ascent="1638" descent="-410" />
<missing-glyph horiz-adv-x="557" />
<glyph horiz-adv-x="0" />
<glyph unicode="&#xd;" horiz-adv-x="557" />
<glyph unicode=" "  horiz-adv-x="557" />
<glyph unicode="&#x09;" horiz-adv-x="557" />
<glyph unicode="&#xa0;" horiz-adv-x="557" />
<glyph unicode="!" horiz-adv-x="557" d="M322 389h-145l169 992h192zM75 0l40 197h190l-39 -197h-191z" />
<glyph unicode="&#x22;" horiz-adv-x="712" d="M683 947h-139l63 434h180zM321 947h-138l62 434h180z" />
<glyph unicode="#" d="M907 867l-76 -361h255v-106h-278l-86 -400h-108l85 400h-356l-82 -400h-108l82 400h-197v106h221l76 361h-247v106h269l87 400h108l-86 -400h355l86 400h108l-86 -400h207v-106h-229zM446 867l-78 -361h354l77 361h-353z" />
<glyph unicode="$" d="M1051 416q0 -91 -35 -163t-101.5 -122.5t-163.5 -78.5t-222 -31l-30 -158h-15l-1 -1h-86l1 1h-11l31 160q-197 13 -300 101.5t-130 243.5l160 37q12 -54 35 -96.5t58.5 -72.5t86 -47t118.5 -22l94 483q-74 20 -140.5 46t-116 66t-78 96.5t-28.5 139.5q0 91 41.5 158 t110.5 111.5t159.5 66.5t188.5 23l25 129h111l-26 -135q81 -9 143.5 -34t106.5 -63t71 -85.5t39 -103.5l-153 -44q-22 80 -79 128.5t-155 61.5l-84 -432q70 -19 137 -47t120 -71t85.5 -102.5t32.5 -142.5zM869 405q0 46 -16 79t-45.5 57.5t-70.5 43.5t-91 34l-88 -453 q71 4 129 19t98 44t62 72t22 104zM356 998q0 -40 14 -68t41.5 -50t67.5 -39t91 -33l80 407q-79 -3 -134.5 -20.5t-91 -46t-52 -67t-16.5 -83.5z" />
<glyph unicode="%" horiz-adv-x="1784" d="M416 0h-161l1162 1381h164zM534 1393q52 0 98 -16t81 -51.5t55 -93.5t20 -141q0 -37 -4.5 -82.5t-13.5 -92.5q-23 -123 -67 -201.5t-96 -123t-107.5 -61t-101.5 -16.5q-54 0 -100.5 17.5t-81 55t-54 96.5t-19.5 141q0 36 4 81t13 90q25 128 68 206.5t95 121t107.5 56.5 t103.5 14zM533 1287q-36 0 -70.5 -11.5t-64.5 -44t-55.5 -91.5t-44.5 -155q-20 -104 -20 -175q0 -96 32.5 -141t91.5 -45q34 0 67 12.5t63.5 45.5t55.5 92t43 152q21 109 21 182q0 94 -31 136.5t-88 42.5zM1445 867q51 0 97.5 -15.5t81 -51.5t54.5 -93.5t20 -141.5 q0 -36 -4 -81.5t-13 -92.5q-24 -123 -68 -201.5t-96 -123t-107.5 -61.5t-101.5 -17q-54 0 -100.5 18t-80.5 55.5t-53.5 96.5t-19.5 141q0 36 3.5 80.5t12.5 89.5q26 129 69 207.5t95 121t107 56t104 13.5zM1444 761q-37 0 -71 -11t-64.5 -44t-56 -91.5t-44.5 -154.5 q-19 -104 -19 -175q0 -96 32 -141t91 -45q35 0 67.5 12t63 45.5t56 92.5t43.5 152q20 109 20 182q0 94 -31 136t-87 42z" />
<glyph unicode="&#x26;" horiz-adv-x="1338" d="M1223 670q-26 -59 -56.5 -120.5t-65.5 -121.5t-75.5 -117t-87.5 -107q39 -37 88.5 -57.5t94.5 -20.5q31 0 56 3.5t54 12.5l-13 -132q-29 -11 -57 -16.5t-65 -5.5q-73 0 -140.5 31t-125.5 89q-80 -59 -178 -93.5t-221 -34.5q-104 0 -179 29.5t-124 79.5t-72.5 116 t-23.5 139q0 88 27.5 154t81 117.5t132 93.5t180.5 81q-12 50 -20 107t-8 118q0 82 26.5 150.5t76.5 118t123 77.5t165 28q68 0 124.5 -19t96.5 -52.5t62 -80.5t22 -105q0 -59 -19 -105t-52.5 -83.5t-79.5 -68t-100.5 -57t-114.5 -50.5t-122 -49q18 -52 39 -102.5 t46.5 -100.5t57.5 -101.5t71 -105.5q39 45 73.5 95.5t64.5 104t57 108t52 107.5zM443 109q87 0 159.5 26.5t135.5 72.5q-42 52 -79 109.5t-68 117t-56 118t-43 109.5q-70 -28 -124 -57.5t-92 -65.5t-57.5 -82.5t-19.5 -109.5q0 -53 16.5 -96.5t48 -75t76.5 -49t103 -17.5z M580 1020q0 -44 5.5 -88.5t13.5 -85.5q77 28 144.5 53.5t118 57t79.5 71.5t29 97q0 32 -11.5 58.5t-32.5 46t-50.5 30t-66.5 10.5q-50 0 -93 -15.5t-73 -47t-46.5 -78t-16.5 -109.5z" />
<glyph unicode="'" horiz-adv-x="383" d="M336 947h-138l62 434h180z" />
<glyph unicode="(" horiz-adv-x="668" d="M838 1454q-278 -245 -422.5 -542t-144.5 -655q0 -186 49.5 -355t153.5 -318h-170q-108 149 -159 323t-51 365q0 178 36 343.5t108 315t179 281.5t250 242h171z" />
<glyph unicode=")" horiz-adv-x="668" d="M-195 -416q278 245 422 542t144 656q0 186 -49.5 354.5t-152.5 317.5h170q108 -149 159 -323t51 -365q0 -177 -36 -342.5t-108 -315t-179 -281.5t-250 -243h-171z" />
<glyph unicode="*" horiz-adv-x="781" d="M532 1092l259 101l44 -130l-276 -71l181 -245l-117 -71l-147 253l-153 -251l-116 71l185 243l-274 71l44 132l261 -105l-11 291h133z" />
<glyph unicode="+" horiz-adv-x="1172" d="M687 596v-420h-144v420h-416v143h416v419h144v-419h415v-143h-415z" />
<glyph unicode="," horiz-adv-x="557" d="M293 50q-10 -52 -23 -94.5t-30 -79.5t-37.5 -69t-45.5 -64h-121q56 64 93 128.5t49 128.5h-86l41 215h191z" />
<glyph unicode="-" horiz-adv-x="668" d="M103 455l30 157h490l-30 -157h-490z" />
<glyph unicode="." horiz-adv-x="557" d="M78 0l43 215h191l-42 -215h-192z" />
<glyph unicode="/" horiz-adv-x="557" d="M-114 -20l689 1474h155l-686 -1474h-158z" />
<glyph unicode="0" d="M717 1401q80 0 150 -26.5t121.5 -82.5t81.5 -142.5t30 -204.5q0 -62 -5.5 -137t-22.5 -156q-39 -199 -103.5 -329t-145.5 -206t-172.5 -106.5t-184.5 -30.5q-81 0 -150.5 29.5t-120 88.5t-79.5 148t-29 210q0 32 1 63t4 63t8 68.5t13 79.5q26 139 65.5 242.5t86.5 178.5 t101.5 123.5t112.5 76.5t119 39t119 11zM481 124q75 0 137.5 26.5t115 90t93.5 168.5t72 262q16 84 22.5 154.5t6.5 128.5q0 151 -58.5 227.5t-163.5 76.5q-75 0 -137.5 -26.5t-115 -89.5t-94 -168t-71.5 -263q-17 -83 -23 -153.5t-6 -128.5q0 -152 58 -228.5t164 -76.5z " />
<glyph unicode="1" d="M52 0l29 150h352l204 1049l-354 -219l35 176l369 225h163l-239 -1231h336l-30 -150h-865z" />
<glyph unicode="2" d="M-12 0l24 124q54 92 120.5 163.5t139 129.5t147.5 106t145 93t131.5 89t107.5 94t72.5 109t26.5 134q0 50 -17 89.5t-47 67.5t-71.5 42.5t-91.5 14.5q-107 0 -186 -58t-116 -175l-166 36q23 75 63.5 137.5t99 108t137.5 71t179 25.5q87 0 160.5 -24.5t127 -70 t83.5 -108.5t30 -142q0 -83 -29 -153.5t-78 -131t-113.5 -113t-136 -101.5t-146 -96t-143.5 -96t-126.5 -101.5t-96.5 -113.5h712l-28 -150h-914z" />
<glyph unicode="3" d="M555 779q35 0 75.5 4t80.5 14.5t76 30t63.5 50t44 75.5t16.5 106q0 43 -14 79.5t-42 62.5t-68 40.5t-93 14.5q-117 0 -200.5 -59.5t-117.5 -168.5l-174 14q57 182 187.5 270.5t314.5 88.5q91 0 164 -23t124.5 -66.5t79 -105.5t27.5 -142q0 -76 -25 -138.5t-72 -108.5 t-114 -75t-150 -39l-1 -4q128 -26 199.5 -103t71.5 -197q0 -85 -30.5 -161.5t-92 -133.5t-154 -90.5t-216.5 -33.5q-111 0 -193.5 32t-139 83t-89 113t-46.5 123l161 47q12 -45 37 -89.5t64.5 -80.5t94.5 -59t126 -23q73 0 127.5 20.5t91.5 56t56 85t19 108.5t-20.5 102 t-57 71.5t-86.5 42.5t-109 14h-122l30 153h96z" />
<glyph unicode="4" d="M829 313l-61 -313h-176l61 313h-640l26 137l803 931h195l-180 -929h184l-28 -139h-184zM809 1134l-587 -682h458z" />
<glyph unicode="5" d="M336 1381h785l-28 -150h-625l-111 -438q18 15 44.5 31t61 28.5t76 20.5t89.5 8q87 0 160.5 -26t127.5 -75.5t84 -121t30 -162.5q0 -117 -35 -212t-102.5 -162.5t-167.5 -104.5t-230 -37q-104 0 -180.5 24.5t-130 68t-87 102t-52.5 128.5l160 42q11 -39 31.5 -79t55.5 -71 t87.5 -51t125.5 -20q76 0 139 22t107.5 66t68.5 110t24 154q0 66 -20 115t-54 81.5t-79.5 48.5t-95.5 16q-94 0 -160 -28t-117 -71h-172z" />
<glyph unicode="6" d="M523 -20q-97 0 -173.5 35.5t-128.5 98.5t-80 150.5t-28 190.5q0 54 5 119t17 127q37 184 98.5 317t142 218t175 125t195.5 40q66 0 125 -15t107.5 -48.5t84 -85t53.5 -124.5l-162 -35q-25 79 -81 122t-135 43q-76 0 -144.5 -34t-124 -102.5t-99 -171t-69.5 -239.5 q59 89 148.5 135.5t200.5 46.5q81 0 150 -26t119 -74.5t78.5 -117t28.5 -153.5q0 -108 -35 -206t-100.5 -172.5t-158.5 -119t-209 -44.5zM282 413q0 -60 16.5 -113t47.5 -92.5t76.5 -62.5t104.5 -23q70 0 128 30t100.5 82.5t65.5 123.5t23 154q0 112 -58.5 178.5 t-168.5 66.5q-53 0 -112 -18.5t-108.5 -59t-82 -106t-32.5 -160.5z" />
<glyph unicode="7" d="M1151 1238q-91 -106 -172.5 -203.5t-153.5 -192.5t-134.5 -191t-113 -198.5t-88.5 -214.5t-63 -238h-184q37 187 107.5 349t165.5 310t210 288t241 284h-758l28 150h942z" />
<glyph unicode="8" d="M690 1400q94 0 170.5 -23.5t131 -66.5t83.5 -104t29 -137q0 -67 -22 -127t-62.5 -106t-98.5 -76.5t-130 -41.5l-1 -4q49 -14 90 -39.5t70.5 -62.5t45.5 -84t16 -105q0 -95 -32.5 -175.5t-98 -140t-163.5 -93.5t-228 -34q-112 0 -194 28t-136 78t-80.5 118t-26.5 149 q0 95 33 162.5t83.5 113.5t113 72.5t120.5 39.5v4q-89 37 -138 111t-49 175q0 85 32 153.5t93 116t149 73.5t200 26zM645 795q85 0 139 26t85 65.5t42 87t11 91.5q0 96 -64 149.5t-189 53.5q-59 0 -110 -15t-88.5 -46.5t-58 -79.5t-20.5 -115q0 -39 12.5 -77.5t42 -69.5 t78 -50.5t120.5 -19.5zM555 659q-81 0 -141 -23t-100 -63.5t-60 -97.5t-20 -126q0 -50 17 -93t50.5 -74.5t85 -49t122.5 -17.5q67 0 126 20t103 59t69.5 97.5t25.5 135.5q0 43 -14.5 85t-47.5 74t-86.5 52.5t-129.5 20.5z" />
<glyph unicode="9" d="M880 670q-61 -92 -143.5 -145.5t-188.5 -53.5q-95 0 -167.5 32.5t-121.5 86.5t-74 125t-25 148q0 111 36 209t103 171t160.5 115.5t208.5 42.5q93 0 168 -30t128 -89.5t82 -145.5t29 -198q0 -27 -2 -60t-5.5 -69t-8.5 -73t-11 -71q-37 -184 -99.5 -314.5t-142.5 -212.5 t-173 -120t-189 -38q-158 0 -249 71t-126 201l154 44q24 -83 82 -128.5t147 -45.5q78 0 144 36.5t120 106.5t95.5 172t68.5 233zM906 997q0 57 -16.5 105t-48.5 82.5t-76.5 54t-100.5 19.5q-70 0 -130 -27t-103.5 -77.5t-67.5 -124t-24 -168.5q0 -61 16.5 -108t47 -78.5 t72.5 -47.5t93 -16q49 0 101 16.5t97.5 50.5t80.5 86.5t49 124.5q10 60 10 108z" />
<glyph unicode=":" horiz-adv-x="557" d="M246 858l40 202h191l-40 -202h-191zM79 0l41 203h191l-41 -203h-191z" />
<glyph unicode=";" horiz-adv-x="557" d="M294 50q-10 -52 -23 -94.5t-30 -79.5t-37.5 -69t-45.5 -64h-121q56 64 93 128.5t49 128.5h-86l39 203h191zM260 858l39 202h191l-39 -202h-191z" />
<glyph unicode="&#x3c;" horiz-adv-x="1172" d="M128 560v200l975 410v-151l-840 -358l840 -360v-150z" />
<glyph unicode="=" horiz-adv-x="1172" d="M127 839v145h975v-145h-975zM127 337v145h975v-145h-975z" />
<glyph unicode="&#x3e;" horiz-adv-x="1172" d="M128 151v150l841 360l-841 358v151l975 -410v-200z" />
<glyph unicode="?" d="M687 1401q99 0 177.5 -26.5t133 -73.5t83.5 -110.5t29 -138.5q0 -96 -29.5 -163t-77 -116.5t-107 -85.5t-118.5 -71q-41 -23 -79.5 -48t-70 -54t-53.5 -64t-31 -81h-172q13 77 45 132.5t75.5 97t94.5 73t101 59.5q47 27 90 54.5t76.5 62t53 79t19.5 104.5 q0 47 -18.5 86.5t-52.5 67.5t-81 44t-105 16q-137 0 -226 -69t-126 -188l-162 39q26 82 69 151t107 118.5t151.5 77t203.5 27.5zM293 0l38 197h191l-38 -197h-191z" />
<glyph unicode="@" horiz-adv-x="2037" d="M1896 740q0 -141 -32.5 -258t-90.5 -201.5t-138.5 -131.5t-176.5 -47q-55 0 -93.5 13t-62.5 36t-35.5 54.5t-11.5 68.5q0 15 1 36t2 33h-6q-23 -44 -57 -87.5t-79.5 -77.5t-102.5 -55t-127 -21q-82 0 -143.5 28.5t-101 79t-59 119.5t-19.5 150q0 118 34.5 226t99 191 t155.5 133t202 50q59 0 106 -13t83 -37t62.5 -56.5t43.5 -71.5h6l39 156h152l-113 -495q-19 -83 -28 -141.5t-9 -106.5q0 -47 21.5 -70t58.5 -23q61 0 113.5 40t91 109.5t60.5 163.5t22 204q0 126 -40.5 235t-119.5 188.5t-195.5 124.5t-269.5 45q-132 0 -243 -31.5 t-201 -88.5t-158.5 -135.5t-114.5 -173t-69.5 -201t-23.5 -220.5q0 -138 42.5 -254.5t123 -200.5t200 -131t273.5 -47q103 0 192.5 16t163.5 39.5t133.5 51.5t101.5 52l54 -110q-49 -29 -115 -60t-147.5 -56.5t-177.5 -41.5t-205 -16q-186 0 -330.5 56t-243.5 157 t-151 240.5t-52 304.5q0 136 31 261.5t89 233.5t141 196t188.5 151t230.5 97t266 34q197 0 340 -57.5t236.5 -155.5t138.5 -227.5t45 -273.5zM1302 732q0 49 -16.5 90t-47.5 70.5t-74.5 46t-98.5 16.5q-83 0 -147 -42t-107 -109.5t-65 -152.5t-22 -170q0 -117 46.5 -184 t143.5 -67q68 0 127.5 30.5t106.5 80.5t80.5 115t51.5 134q9 35 15.5 74.5t6.5 67.5z" />
<glyph unicode="A" horiz-adv-x="1338" d="M1040 0l-74 404h-626l-235 -404h-204l831 1381h213l286 -1381h-191zM854 1013q-8 41 -15.5 79t-12.5 70t-8.5 53t-4.5 25q-2 -4 -13 -25.5t-28.5 -53.5t-39.5 -70.5t-45 -78.5l-265 -462h517z" />
<glyph unicode="B" horiz-adv-x="1338" d="M329 1381h500q102 0 183.5 -21.5t138.5 -62.5t88 -99.5t31 -132.5q0 -143 -84 -225.5t-248 -111.5q69 -12 122.5 -39t89.5 -66t54 -88t18 -105q0 -81 -22.5 -145t-62.5 -112t-94.5 -80.5t-119 -53t-135.5 -30t-143 -9.5h-583zM403 794h324q178 0 263 63.5t85 189.5 q0 93 -67 138.5t-196 45.5h-324zM277 150h361q76 0 148 11.5t127 43t88.5 86.5t33.5 142q0 105 -78 160t-224 55h-359z" />
<glyph unicode="C" horiz-adv-x="1449" d="M1331 330q-48 -71 -108 -135t-137 -111.5t-175.5 -75.5t-224.5 -28q-145 0 -253.5 45.5t-180 123t-106.5 183t-35 226.5t26.5 231t75.5 203.5t119.5 169.5t159 129t193.5 81.5t222 28.5q127 0 222 -28.5t162.5 -75.5t109 -108t59.5 -126l-176 -54q-15 46 -45.5 89 t-78 76.5t-112.5 54t-150 20.5q-143 0 -255 -52.5t-189.5 -145.5t-117.5 -219.5t-40 -276.5q0 -92 25.5 -169.5t76 -134t126 -88t175.5 -31.5q88 0 161.5 24t134.5 64t109.5 91.5t86.5 105.5z" />
<glyph unicode="D" horiz-adv-x="1449" d="M729 1381q145 0 265.5 -39t207.5 -115t135 -189.5t48 -262.5q0 -130 -31 -238t-87 -194t-132.5 -150.5t-167.5 -107.5t-193.5 -64t-209.5 -21h-502l267 1381h400zM277 150h279q144 0 262 43t201.5 124t129.5 197t46 263q0 118 -36 203t-98.5 141t-149 83t-186.5 27h-237z " />
<glyph unicode="E" horiz-adv-x="1338" d="M62 0l267 1381h1028l-29 -153h-841l-86 -443h782l-30 -151h-782l-93 -481h881l-29 -153h-1068z" />
<glyph unicode="F" horiz-adv-x="1225" d="M487 1228l-100 -514h780l-30 -154h-780l-108 -560h-187l267 1381h991l-29 -153h-804z" />
<glyph unicode="G" horiz-adv-x="1561" d="M1362 206q-55 -47 -119 -88.5t-141.5 -71.5t-170 -48t-204.5 -18q-159 0 -277 43t-196 119.5t-116.5 183t-38.5 236.5q0 184 58.5 338t165.5 265.5t260 173.5t342 62q129 0 222.5 -26.5t159 -71.5t106 -103.5t62.5 -123.5l-189 -53q-15 46 -42.5 87t-72 71.5t-108 49 t-150.5 18.5q-150 0 -266 -51.5t-195.5 -143.5t-120 -217t-40.5 -272q0 -95 26.5 -174t81 -136.5t137.5 -90t197 -32.5q89 0 163 15t133 37t103.5 49.5t73.5 51.5l50 249h-412l31 157h585z" />
<glyph unicode="H" horiz-adv-x="1449" d="M1001 0l124 640h-752l-124 -640h-187l268 1381h187l-113 -584h751l114 584h182l-268 -1381h-182z" />
<glyph unicode="I" horiz-adv-x="557" d="M79 0l269 1381h187l-268 -1381h-188z" />
<glyph unicode="J" horiz-adv-x="1003" d="M373 -20q-155 0 -253.5 91.5t-124.5 264.5l165 32q22 -114 77 -175t153 -61q59 0 102 21.5t74 61t51 95t33 121.5l154 797h-286l30 153h471l-189 -966q-19 -98 -53.5 -178.5t-89 -137.5t-132 -88t-182.5 -31z" />
<glyph unicode="K" horiz-adv-x="1338" d="M1002 0l-463 661l-186 -127l-104 -534h-187l267 1381h187l-133 -677l137 126l652 551h240l-735 -618l546 -763h-221z" />
<glyph unicode="L" d="M62 0l267 1381h187l-238 -1228h698l-29 -153h-885z" />
<glyph unicode="M" horiz-adv-x="1671" d="M1236 0l176 909q10 50 21 102t20 95q11 50 23 97q-25 -51 -50 -101q-22 -43 -46.5 -90t-45.5 -83l-537 -929h-122l-181 929q-6 29 -13 76t-13 91q-6 52 -14 107q-8 -54 -17 -108q-8 -46 -16 -96t-16 -90l-177 -909h-166l267 1381h232l185 -958q3 -14 8.5 -47t9.5 -67 q6 -39 13 -87q21 44 39 83q17 34 34 69t29 57l542 950h251l-268 -1381h-168z" />
<glyph unicode="N" horiz-adv-x="1449" d="M967 0l-520 1186q-6 -45 -13 -92q-6 -40 -13 -86t-15 -84l-178 -924h-166l267 1381h208l523 -1191q6 42 13 89q6 40 14 89.5t17 99.5l178 913h168l-267 -1381h-216z" />
<glyph unicode="O" horiz-adv-x="1561" d="M919 1401q141 0 250 -41.5t184 -117t113.5 -179.5t38.5 -229q-1 -48 -5.5 -99.5t-13.5 -98.5q-30 -151 -99.5 -272t-172 -206t-234 -131.5t-285.5 -46.5q-147 0 -257 43t-183 120t-109.5 183.5t-36.5 235.5q0 45 4.5 92t13.5 95q30 147 98.5 267.5t171 206t234.5 132 t288 46.5zM910 1250q-128 0 -228 -36t-174 -104.5t-122 -167.5t-73 -225q-9 -42 -13 -84.5t-4 -80.5q0 -105 27.5 -184t80 -131.5t128.5 -78.5t172 -26q129 0 229.5 37t174 106t122 167.5t72.5 220.5q9 42 12.5 86t3.5 81q0 105 -28.5 184t-81.5 131.5t-128.5 78.5 t-169.5 26z" />
<glyph unicode="P" horiz-adv-x="1338" d="M835 1381q114 0 204.5 -26.5t154 -75.5t98 -120t34.5 -159q0 -108 -38.5 -194t-111 -145t-175.5 -91t-233 -32h-415l-104 -538h-187l267 1381h506zM382 686h379q189 0 282 76.5t93 228.5q0 63 -22 108.5t-62.5 74.5t-96.5 43t-125 14h-342z" />
<glyph unicode="Q" horiz-adv-x="1561" d="M909 1401q142 0 250.5 -41.5t183.5 -117t113.5 -179.5t38.5 -229q-1 -48 -5 -99.5t-14 -98.5q-27 -135 -86 -247.5t-145.5 -195.5t-197.5 -135.5t-241 -69.5q8 -64 26 -108t44.5 -70.5t61.5 -37.5t79 -11q28 0 62 4t59 9l-18 -132q-37 -10 -77 -15.5t-88 -5.5 q-84 0 -142 25t-96.5 71.5t-60 113.5t-31.5 152q-131 9 -230 55.5t-164.5 122t-98.5 178t-33 223.5q0 45 4.5 92t14.5 95q29 147 97.5 267.5t171 206t235 132t287.5 46.5zM901 1250q-129 0 -229 -36t-174 -104.5t-122 -167.5t-73 -225q-9 -42 -13 -84.5t-4 -80.5 q0 -105 27.5 -184t80 -131.5t128.5 -78.5t172 -26q129 0 229.5 37t174 106t122 167.5t73.5 220.5q8 42 11.5 86t3.5 81q0 105 -28.5 184t-81 131.5t-128 78.5t-169.5 26z" />
<glyph unicode="R" horiz-adv-x="1449" d="M1030 0l-238 573h-432l-111 -573h-187l267 1381h600q102 0 186.5 -25t144.5 -72t94 -114.5t34 -151.5q0 -184 -106 -292t-313 -136l263 -590h-202zM840 721q177 0 267.5 74t90.5 209q0 109 -73 168t-219 59h-418l-99 -510h451z" />
<glyph unicode="S" horiz-adv-x="1338" d="M604 -20q-128 0 -223.5 23t-162 68t-106 110t-55.5 150l173 37q13 -61 40.5 -106t73.5 -75t113.5 -45t159.5 -15q96 0 172.5 13.5t130 44.5t82 80.5t28.5 122.5q0 50 -16.5 85.5t-58 63t-111.5 52.5t-176 55q-86 23 -162 52t-132.5 71.5t-90 103.5t-33.5 149 q0 103 46.5 175t124.5 118t178.5 67t208.5 21q118 0 206.5 -21.5t151 -60t99.5 -92.5t52 -118l-169 -50q-15 47 -41.5 84.5t-67.5 63.5t-98.5 39.5t-133.5 13.5q-102 0 -172.5 -17t-114 -48t-63 -73.5t-19.5 -92.5q0 -53 20 -88t61.5 -59t104.5 -44.5t149 -43.5 q85 -24 166 -52.5t144 -72t100.5 -108t37.5 -161.5q0 -202 -152 -311t-465 -109z" />
<glyph unicode="T" horiz-adv-x="1225" d="M841 1228l-239 -1228h-186l239 1228h-475l30 153h1135l-30 -153h-474z" />
<glyph unicode="U" horiz-adv-x="1449" d="M641 -20q-102 0 -191.5 26.5t-156.5 81.5t-105 138.5t-38 195.5q0 21 2 48t5.5 54.5t7.5 53.5t7 44l147 759h188l-159 -826q-7 -36 -12 -73.5t-5 -66.5q0 -73 24.5 -126t67.5 -87.5t103 -52t131 -17.5q85 0 158 21.5t131 69t100 123t62 184.5l165 851h186l-166 -862 q-28 -138 -84.5 -239.5t-139.5 -168t-191 -99t-237 -32.5z" />
<glyph unicode="V" horiz-adv-x="1338" d="M663 0h-194l-296 1381h191l194 -972l12 -88t11 -78q6 -40 11 -78q19 36 40 76q19 34 42 78t48 90l569 972h203z" />
<glyph unicode="W" horiz-adv-x="1894" d="M1378 0h-219l-69 877q-1 19 -2.5 42.5t-3 49.5t-3 53t-2.5 51q-3 59 -5 122q-23 -62 -48 -122q-21 -51 -44 -105t-40 -91l-411 -877h-218l-140 1381h194l77 -877q5 -62 8 -122.5t5 -109.5q2 -56 3 -107q28 67 56 133q12 28 25.5 58t26 59.5t25 56.5t22.5 49l407 860h179 l74 -860q2 -21 4 -48.5t3.5 -56.5t3 -59t2.5 -58q3 -66 4 -134q1 0 15 33.5t35.5 84.5t47.5 110.5t51 110.5l414 877h197z" />
<glyph unicode="X" horiz-adv-x="1338" d="M979 0l-297 594l-513 -594h-207l641 731l-333 650h195l264 -540l466 540h206l-588 -663l361 -718h-195z" />
<glyph unicode="Y" horiz-adv-x="1338" d="M769 572l-110 -572h-187l113 572l-376 809h192l300 -661l549 661h209z" />
<glyph unicode="Z" horiz-adv-x="1225" d="M1060 0h-1099l26 140l1033 1088h-750l30 153h982l-27 -136l-1033 -1092h868z" />
<glyph unicode="[" horiz-adv-x="557" d="M-38 -416l362 1870h399l-24 -126h-229l-314 -1618h228l-24 -126h-398z" />
<glyph unicode="\" horiz-adv-x="557" d="M314 -20l-171 1474h145l175 -1474h-149z" />
<glyph unicode="]" horiz-adv-x="557" d="M-166 -416l25 126h227l315 1618h-229l25 126h399l-364 -1870h-398z" />
<glyph unicode="^" horiz-adv-x="941" d="M801 660l-303 620l-300 -620h-159l361 721h199l362 -721h-160z" />
<glyph unicode="_" d="M-157 -245v74h1155v-74h-1155z" />
<glyph unicode="`" horiz-adv-x="668" d="M404 1177l-277 272l5 29h203l158 -281l-3 -20h-86z" />
<glyph unicode="a" d="M1034 6q-29 -7 -61.5 -11.5t-64.5 -4.5q-91 0 -132.5 38t-41.5 112q0 15 2 32t3 31h-6q-34 -52 -71 -93t-81.5 -70t-99.5 -44.5t-127 -15.5q-77 0 -134 24.5t-96.5 65.5t-59 94t-19.5 108q0 80 23 137.5t63 99t93 67.5t113.5 40.5t125 20.5t126.5 7l227 3l7 35 q5 25 8.5 47.5t3.5 41.5q0 89 -52 132t-144 43q-48 0 -89.5 -7.5t-74.5 -26.5t-58 -52t-41 -83l-174 29q18 60 50.5 110.5t85.5 87t129 56.5t182 20q87 0 154.5 -21.5t113.5 -60t70 -91t24 -116.5q0 -31 -5 -73.5t-13 -80.5l-73 -370q-5 -22 -8 -44.5t-3 -42.5 q0 -36 19.5 -53.5t60.5 -17.5q15 0 30 2t29 5zM793 525l-195 -4q-39 -1 -81.5 -4t-83 -12t-77.5 -24.5t-64 -42.5t-43.5 -65.5t-16.5 -92.5q0 -31 10.5 -61t32 -53t53.5 -37t75 -14q85 0 148.5 29t109 72.5t71.5 94t34 92.5z" />
<glyph unicode="b" d="M729 1080q79 0 139.5 -24.5t101.5 -69.5t62.5 -109.5t21.5 -143.5q0 -49 -4 -107.5t-16 -119.5q-27 -139 -70 -238.5t-103.5 -163.5t-139 -94t-175.5 -30q-121 0 -196.5 51t-106.5 143h-3q-5 -25 -12 -54t-13 -54.5t-10.5 -43.5t-6.5 -22h-170q3 9 8 30t11.5 50.5 t14.5 64.5t14 74l241 1235h176l-81 -414q-5 -29 -11.5 -54.5t-11.5 -43.5q-6 -22 -11 -39h4q35 46 72 79t78.5 55t89.5 32.5t107 10.5zM678 944q-63 0 -119 -19t-104 -64.5t-85 -122.5t-59 -195q-19 -96 -19 -174q0 -62 16.5 -110.5t47.5 -81.5t74.5 -49.5t96.5 -16.5 q61 0 110 18t88.5 62.5t70 119.5t52.5 189q22 118 22 202q0 120 -46 181t-146 61z" />
<glyph unicode="c" horiz-adv-x="1003" d="M460 120q54 0 98.5 16t78.5 45.5t60.5 71t45.5 92.5l153 -48q-28 -74 -67.5 -132t-94 -99.5t-124 -63.5t-154.5 -22q-101 0 -175 30.5t-121.5 85t-70.5 129t-23 162.5q0 39 3.5 85t11.5 91q22 108 56 188.5t75.5 138t90 94.5t100 58t105 29.5t104.5 8.5q88 0 154 -22.5 t112 -63.5t72 -98.5t31 -127.5l-173 -24q-3 44 -17 80t-39 62t-61 41t-84 15q-68 0 -122 -19.5t-96.5 -64t-73 -115.5t-50.5 -174q-9 -47 -14 -99t-5 -89q0 -124 50.5 -192.5t163.5 -68.5z" />
<glyph unicode="d" d="M393 -21q-78 0 -139 24.5t-102 70t-62.5 109.5t-21.5 143q0 44 4 105t16 123q27 139 70 238.5t103.5 163t139 93.5t175.5 30q121 0 197 -51t107 -143h5q2 10 6 32.5t8.5 47.5t8 47.5t4.5 31.5l81 410h176l-240 -1235q-8 -39 -14.5 -74t-11 -64.5t-7.5 -50.5t-4 -30h-169 q0 20 5.5 63t15.5 94h-5q-35 -46 -72 -79.5t-78 -55.5t-89 -32.5t-107 -10.5zM444 116q63 0 119 18.5t104 64t85 123t59 194.5q19 96 19 174q0 64 -16.5 112t-47.5 80.5t-74.5 49.5t-96.5 17q-60 0 -109.5 -18.5t-89 -63t-69.5 -119.5t-53 -188q-22 -119 -22 -202 q0 -121 46 -181.5t146 -60.5z" />
<glyph unicode="e" d="M251 493q-5 -27 -6.5 -55t-2.5 -56q0 -130 65 -199.5t197 -69.5q55 0 100 14t81.5 38t64.5 56t47 67l135 -62q-25 -44 -60 -87.5t-87.5 -79t-126 -57.5t-175.5 -22q-98 0 -175.5 28t-131 81.5t-81 131t-27.5 176.5q0 155 41.5 281.5t115.5 215.5t174.5 137.5t217.5 48.5 q108 0 187.5 -28.5t132.5 -79.5t79 -122t26 -156q0 -21 -1.5 -45.5t-4.5 -51t-7.5 -53.5t-10.5 -51h-767zM862 628q2 20 3 37t1 34q0 64 -17.5 111.5t-50 78.5t-77.5 46t-100 15q-47 0 -99 -14.5t-99.5 -50.5t-86.5 -98.5t-62 -158.5h588z" />
<glyph unicode="f" horiz-adv-x="557" d="M425 932l-181 -932h-176l181 932h-149l25 128h149l23 120q12 58 30.5 108t53.5 87t89.5 58t139.5 21q31 0 64 -3t57 -8l-25 -135q-9 2 -20.5 3t-24 2.5t-24.5 2t-21 0.5q-37 0 -62 -10.5t-41 -31.5t-26 -50.5t-18 -68.5l-18 -95h207l-26 -128h-207z" />
<glyph unicode="g" d="M389 -416q-91 0 -158.5 18t-114 50t-73.5 78t-39 100l160 42q16 -75 73.5 -114.5t155.5 -39.5q71 0 124.5 18t92.5 55t65 95.5t41 139.5q5 26 11 55.5t11 54.5q6 31 12 61h-2q-28 -39 -58.5 -76.5t-71 -66t-93.5 -45.5t-123 -17q-78 0 -139.5 27t-104.5 74.5t-66 113.5 t-23 145q0 48 5 101.5t17 114.5q49 256 166 383.5t319 127.5q56 0 106 -13t89.5 -39t68.5 -63.5t42 -84.5h2q5 25 12.5 55t14 57t12.5 46.5t8 22.5h168q-2 -8 -7 -29.5t-12 -50.5t-14.5 -65t-14.5 -74l-158 -811q-21 -104 -57 -187t-96 -141t-145.5 -88t-205.5 -30zM254 366 q0 -119 51.5 -181.5t151.5 -62.5q53 0 107 23t102.5 72t87.5 126t60 187q8 41 12 85t4 75q0 66 -17.5 114.5t-49.5 80.5t-75 48t-93 16q-61 0 -110.5 -18.5t-88.5 -62t-68.5 -116.5t-51.5 -184q-10 -57 -16 -110t-6 -92z" />
<glyph unicode="h" d="M375 879q34 46 69 83.5t77.5 63.5t94 39.5t117.5 13.5q145 0 218 -71.5t73 -206.5q0 -36 -6.5 -80t-13.5 -81l-125 -640h-177l123 632q8 38 13 78t5 69q0 78 -41.5 121t-134.5 43q-62 0 -117.5 -25t-100.5 -70.5t-77 -110t-48 -143.5l-115 -594h-176l283 1454h176 l-74 -378q-5 -32 -12.5 -64.5t-14.5 -59.5t-12 -46.5t-7 -26.5h3z" />
<glyph unicode="i" horiz-adv-x="445" d="M281 1286l34 168h176l-33 -168h-177zM32 0l206 1060h177l-207 -1060h-176z" />
<glyph unicode="j" horiz-adv-x="445" d="M283 1286l33 168h176l-32 -168h-177zM-98 -416q-33 0 -67 4t-59 9l22 133q13 -1 37.5 -4t43.5 -3q58 0 87.5 41t46.5 131l226 1165h177l-233 -1191q-11 -61 -30.5 -113t-51.5 -90t-80.5 -60t-118.5 -22z" />
<glyph unicode="k" horiz-adv-x="1003" d="M707 0l-263 492l-165 -122l-70 -370h-176l283 1454h176l-175 -898l199 186l354 318h218l-520 -455l330 -605h-191z" />
<glyph unicode="l" horiz-adv-x="445" d="M32 0l283 1454h176l-283 -1454h-176z" />
<glyph unicode="m" horiz-adv-x="1671" d="M647 0l121 621q4 20 8.5 43.5t8 47t6 44.5t2.5 36q0 73 -37.5 112t-121.5 39q-56 0 -106.5 -25t-90.5 -70.5t-69.5 -111t-43.5 -144.5l-115 -592h-176l163 834q7 33 13.5 70t11.5 69.5t8.5 56.5t4.5 30h167q0 -5 -3 -26.5t-7.5 -49.5t-9 -56.5t-8.5 -48.5h3 q30 46 61 83.5t68.5 63.5t83 39.5t103.5 13.5q118 0 188 -58.5t83 -168.5q32 49 65 90t74 72t90.5 48t111.5 17q133 0 204 -71.5t71 -206.5q0 -36 -6.5 -80t-14.5 -81l-124 -640h-175l122 621q4 20 8.5 43.5t7.5 47t5.5 44.5t2.5 36q0 73 -37 112t-121 39 q-56 0 -106.5 -24.5t-91 -69.5t-69.5 -110t-43 -144l-116 -595h-174z" />
<glyph unicode="n" d="M703 0l123 632q8 38 13 78t5 69q0 78 -41.5 121t-134.5 43q-62 0 -117.5 -25t-100.5 -70.5t-77 -110t-48 -143.5l-115 -594h-177l163 834q7 33 13.5 70t11.5 69.5t8.5 56.5t4.5 30h167q0 -5 -3 -26.5t-7.5 -49.5t-9 -56.5t-8.5 -48.5h3q34 46 69 83.5t77.5 63.5t94 39.5 t117.5 13.5q145 0 218 -71.5t73 -206.5q0 -36 -6.5 -80t-14.5 -81l-124 -640h-177z" />
<glyph unicode="o" d="M1053 669q0 -51 -6 -102.5t-20 -108.5q-29 -130 -81.5 -221t-123 -148t-157 -83t-184.5 -26q-94 0 -170.5 29t-131 84.5t-84 135.5t-29.5 182q1 46 5 95t16 102q29 123 79 211.5t118.5 146.5t155 85.5t189.5 27.5q104 0 183 -27.5t132.5 -80.5t81 -129t27.5 -173z M870 669q0 76 -16.5 129t-48.5 86.5t-77 49.5t-101 16q-52 0 -104.5 -12.5t-100 -49.5t-86.5 -106t-66 -182q-12 -54 -17.5 -102.5t-5.5 -89.5q0 -81 18.5 -137.5t51.5 -92t77.5 -51.5t97.5 -16t104.5 11.5t97.5 49.5t84.5 107.5t65.5 184.5q14 58 19 107t7 98z" />
<glyph unicode="p" d="M543 -20q-121 0 -197 51t-107 143h-5q0 -2 -2 -19t-6 -42.5t-9 -56t-11 -58.5l-81 -414h-175l244 1260q8 38 14 73.5t10 64t6.5 49.5t3.5 29h164q0 -7 -1 -25t-3.5 -40t-5.5 -46.5t-7 -45.5h4q36 46 72.5 79t78 55t89.5 32.5t107 10.5q79 0 139.5 -24.5t101.5 -69.5 t63 -109.5t22 -143.5q0 -49 -4.5 -107.5t-16.5 -119.5q-27 -139 -70 -238.5t-103.5 -163.5t-139 -94t-175.5 -30zM675 944q-63 0 -119 -19t-104 -64.5t-85 -122.5t-59 -195q-19 -96 -19 -174q0 -62 16.5 -110.5t47.5 -81.5t74.5 -49.5t96.5 -16.5q61 0 110 18t88.5 62.5 t70 119.5t52.5 189q22 118 22 202q0 120 -46 181t-146 61z" />
<glyph unicode="q" d="M393 -21q-78 0 -139 24.5t-102 70t-62.5 109.5t-21.5 143q0 44 4 105t16 123q27 139 70 238.5t103.5 163t139 93.5t175.5 30q121 0 197 -51t107 -143h5q5 24 12 54t13.5 57t12.5 48.5t10 29.5h169q-4 -17 -21 -87.5t-42 -201.5l-233 -1201h-177l83 430q5 25 10.5 50.5 t10.5 46.5q5 24 11 46h-4q-35 -46 -72 -79.5t-78.5 -55.5t-89.5 -32.5t-107 -10.5zM444 116q63 0 119 18.5t104 64t85 123t59 194.5q19 96 19 174q0 64 -16.5 112t-47.5 80.5t-74.5 49.5t-96.5 17q-60 0 -109.5 -18.5t-89 -63t-69.5 -119.5t-53 -188q-22 -119 -22 -202 q0 -121 46 -181.5t146 -60.5z" />
<glyph unicode="r" horiz-adv-x="668" d="M704 919q-17 5 -40 9t-49 4q-62 0 -112 -36.5t-88 -92t-62.5 -123t-34.5 -127.5l-108 -553h-177l159 813q7 35 13 69t11 66.5t10 61.5t8 50h167q-3 -21 -7.5 -50.5t-9.5 -60t-9.5 -58.5t-7.5 -47h3q31 61 61 105.5t62 73.5t69 43t81 14q11 0 23.5 -1.5t26 -3.5t25 -4.5 t18.5 -4.5z" />
<glyph unicode="s" horiz-adv-x="1003" d="M889 311q0 -84 -33.5 -146t-94.5 -103t-148.5 -61.5t-196.5 -20.5q-91 0 -159.5 16t-118 46t-82 74.5t-51.5 102.5l144 54q15 -39 38 -70t56.5 -52t80 -31.5t108.5 -10.5q63 0 115.5 10t90 32.5t58.5 58t21 85.5q0 39 -18.5 67t-52.5 49t-82.5 39t-107.5 37 q-64 21 -121.5 45.5t-101 58.5t-69.5 80.5t-26 109.5q0 80 35 136.5t94 92t138 51.5t167 16q81 0 147.5 -13.5t116.5 -43.5t82.5 -77.5t43.5 -115.5l-159 -24q-22 77 -81.5 111.5t-160.5 34.5q-52 0 -98 -8t-80 -25.5t-54 -46t-20 -68.5q0 -41 18.5 -67.5t52.5 -47.5 t81.5 -37t105.5 -35q56 -17 113.5 -40.5t103.5 -58.5t75.5 -84.5t29.5 -119.5z" />
<glyph unicode="t" horiz-adv-x="557" d="M439 4q-36 -9 -79 -16.5t-90 -7.5q-84 0 -131.5 50t-47.5 133q0 31 5 67t10 60l123 642h-122l25 128h125l103 238h117l-46 -238h196l-25 -128h-196l-123 -632q-4 -20 -8 -48.5t-4 -44.5q0 -41 21 -63.5t68 -22.5q25 0 47 3t51 10z" />
<glyph unicode="u" d="M407 1060l-124 -632q-8 -38 -12.5 -77.5t-4.5 -69.5q0 -77 41 -120t134 -43q63 0 118 25t100.5 70.5t77 109.5t47.5 143l116 594h176l-163 -834q-7 -33 -13 -69.5t-11.5 -69.5t-9 -56.5t-4.5 -30.5h-166q0 5 2.5 26.5t7 49.5t9 57t8.5 48h-3q-33 -46 -68.5 -83t-78 -63 t-94 -40t-117.5 -14q-145 0 -218 71.5t-73 207.5q0 35 6.5 79t14.5 81l124 640h178z" />
<glyph unicode="v" horiz-adv-x="1003" d="M497 0h-209l-178 1060h183l99 -690q3 -21 6.5 -52t6.5 -64.5t5.5 -64t4.5 -51.5q10 21 25 51.5t31 63t32 63.5t28 52l376 692h193z" />
<glyph unicode="w" horiz-adv-x="1449" d="M1047 0h-205l-36 684q-1 20 -2 58t-2 77q-1 46 -2 96q-18 -44 -36 -87q-15 -37 -32.5 -77.5t-30.5 -70.5l-307 -680h-204l-90 1060h174l40 -720q1 -12 2 -39t1.5 -56.5t1.5 -57.5t1 -41l30 70q13 29 26 61.5t24 54.5l334 728h189l43 -728q3 -53 4.5 -102t1.5 -84 q15 35 31 70q13 29 27.5 62.5t26.5 61.5l328 720h172z" />
<glyph unicode="x" horiz-adv-x="1003" d="M692 0l-205 435l-372 -435h-195l482 545l-259 515h185l189 -412l343 412h202l-459 -513l275 -547h-186z" />
<glyph unicode="y" horiz-adv-x="1003" d="M491 0q-54 -93 -104 -169.5t-105 -131.5t-119 -85t-147 -30q-33 0 -66.5 3t-63.5 10l31 132q16 -3 37.5 -5.5t37.5 -2.5q93 0 164 62.5t140 182.5l26 46l-212 1048h179l110 -586q6 -31 12.5 -72t12.5 -82t10.5 -75.5t5.5 -52.5q10 22 25.5 52.5t34.5 65.5t39.5 71.5 t38.5 71.5l331 607h195z" />
<glyph unicode="z" horiz-adv-x="1003" d="M-43 0l26 134l781 790h-589l27 136h807l-26 -134l-783 -790h665l-26 -136h-882z" />
<glyph unicode="{" horiz-adv-x="670" d="M359 -416q-58 0 -102.5 18.5t-74.5 50.5t-45 77.5t-15 97.5v27.5t1.5 31t3.5 30.5t4 26l55 281q9 44 9 76q0 81 -45.5 117t-128.5 40l24 124q50 2 92 16t74.5 41t55 70.5t34.5 103.5l68 355q28 140 102 213.5t213 73.5h132l-24 -126h-62q-48 0 -82 -13t-58 -38.5 t-39.5 -65t-26.5 -94.5l-67 -349q-10 -49 -32.5 -90t-54 -72.5t-70.5 -53t-81 -31.5v-2q67 -16 107 -65t40 -126q0 -26 -6 -58l-60 -312q-3 -15 -5 -31t-3.5 -32.5t-3 -31t-1.5 -25.5q-2 -58 33 -93t110 -35h47l-24 -126h-94z" />
<glyph unicode="|" horiz-adv-x="521" d="M209 -445v1899h162v-1899h-162z" />
<glyph unicode="}" horiz-adv-x="670" d="M302 1454q58 0 102.5 -18.5t74.5 -51t45 -77.5t15 -98q0 -11 -0.5 -26.5t-2 -31t-3.5 -31t-4 -25.5l-55 -282q-8 -42 -8 -75q0 -81 45.5 -117t128.5 -40l-25 -124q-50 -2 -92 -16t-74.5 -41.5t-55 -70.5t-33.5 -104l-69 -354q-27 -141 -101 -214t-214 -73h-132l25 126h61 q48 0 82 12.5t58 38t39.5 65.5t26.5 95l68 349q10 48 32.5 89.5t53.5 73t70.5 53t81.5 30.5v2q-68 17 -107.5 66t-39.5 126q0 27 6 57l60 313q3 15 5 31t3 32t2.5 31t1.5 26q2 58 -32.5 93t-110.5 35h-47l25 126h94z" />
<glyph unicode="~" horiz-adv-x="1172" d="M857 542q-68 0 -139 21.5t-143 47.5q-126 44 -212 44q-38 0 -69.5 -6t-61 -17.5t-57 -27t-55.5 -36.5v141q49 37 113.5 59.5t143.5 22.5q40 0 79 -6.5t76.5 -16t74.5 -22.5t73 -26q21 -7 45.5 -14.5t49.5 -14.5t50 -11t47 -4q68 0 128 24.5t111 65.5v-146 q-30 -21 -59.5 -36.5t-59.5 -24.5t-63 -13t-72 -4z" />
<glyph unicode="&#xa2;" d="M549 272q55 0 99 16.5t78 46t60.5 71t45.5 92.5l153 -48q-27 -71 -64 -127.5t-87 -97.5t-114 -64.5t-144 -27.5l-31 -163h-122l34 169q-80 12 -136.5 46.5t-93.5 87.5t-54.5 121t-17.5 146q0 39 3.5 85t12.5 90q20 104 51.5 182.5t70 135t83.5 94t93.5 60.5t99 33 t100.5 12l28 149h121l-28 -155q67 -10 117 -36t85 -65.5t54.5 -91t23.5 -112.5l-173 -24q-3 44 -17 80t-39 62t-61 41t-84 15q-68 0 -122 -20t-96.5 -64t-73 -115t-50.5 -174q-9 -47 -14 -99t-5 -89q0 -124 50.5 -193t163.5 -69z" />
<glyph unicode="&#xa3;" d="M1054 304q-37 -149 -135 -226.5t-245 -77.5h-686l29 151q95 45 152 122t81 198l27 141h-182l25 127h182l54 274q17 90 50.5 162.5t87.5 122.5t129.5 76.5t176.5 26.5q68 0 128 -14.5t106 -43.5t77.5 -70.5t42.5 -96.5l-160 -49q-20 63 -75 96t-126 33q-112 0 -174 -56 t-86 -179l-55 -282h400l-24 -127h-400l-27 -144q-10 -53 -30.5 -102t-50 -90.5t-67 -73t-81.5 -52.5h455q101 0 164 41.5t89 135.5z" />
<glyph unicode="&#xa5;" d="M730 695h315l-24 -123h-375l-30 -151h376l-25 -124h-375l-58 -297h-174l57 297h-373l25 124h373l31 151h-375l24 123h313l-279 686h189l241 -634l490 634h201z" />
<glyph unicode="&#xa8;" horiz-adv-x="668" d="M511 1195l34 180h169l-34 -180h-169zM134 1195l35 180h171l-34 -180h-172z" />
<glyph unicode="&#xa9;" horiz-adv-x="1478" d="M1479 693q0 -98 -25.5 -188.5t-71.5 -169.5t-110.5 -143.5t-143 -110.5t-169.5 -71.5t-189 -25.5q-97 0 -187.5 25.5t-169 71.5t-143.5 110.5t-111 143.5t-71.5 169.5t-25.5 188.5t25.5 188t71.5 169t110.5 143.5t143.5 110.5t169 71.5t188 25.5q147 0 276 -55.5 t225.5 -151.5t152 -225t55.5 -276zM1389 693q0 127 -48.5 239t-133 195.5t-196.5 132t-241 48.5q-127 0 -239 -48.5t-195.5 -132t-132 -195.5t-48.5 -239q0 -129 48.5 -241t132 -196t195.5 -132t239 -48q129 0 241 48t196.5 132t133 196t48.5 241zM781 273q-99 0 -172 31.5 t-121 87.5t-71.5 133.5t-23.5 169.5q0 96 23.5 172.5t71 131t119 83t167.5 28.5q74 0 128.5 -17.5t94 -46.5t66.5 -65.5t44 -74.5l-111 -33q-12 26 -30.5 50.5t-45.5 43t-62.5 29.5t-81.5 11q-67 0 -115.5 -22.5t-80 -63t-46.5 -98.5t-15 -128q0 -71 16.5 -129.5t49 -101 t81.5 -66t115 -23.5q48 0 85 13.5t64 35.5t46.5 49.5t32.5 54.5l113 -34q-21 -42 -49.5 -82t-69 -70.5t-94.5 -49.5t-128 -19z" />
<glyph unicode="&#xab;" d="M802 138l-262 358l12 62l402 363h154l-6 -36l-401 -365l262 -359l-5 -23h-156zM334 138l-260 358l12 62l400 363h154l-6 -37l-399 -365l260 -359l-5 -22h-156z" />
<glyph unicode="&#xad;" horiz-adv-x="668" d="M103 455l30 157h490l-30 -157h-490z" />
<glyph unicode="&#xae;" horiz-adv-x="1478" d="M1479 693q0 -98 -25.5 -188.5t-71.5 -169.5t-110.5 -143.5t-143 -110.5t-169.5 -71.5t-189 -25.5q-97 0 -187.5 25.5t-169 71.5t-143.5 110.5t-111 143.5t-71.5 169.5t-25.5 188.5t25.5 188t71.5 169t110.5 143.5t143.5 110.5t169 71.5t188 25.5q147 0 276 -55.5 t225.5 -151.5t152 -225t55.5 -276zM1389 693q0 127 -48.5 239t-133 195.5t-196.5 132t-241 48.5q-127 0 -239 -48.5t-195.5 -132t-132 -195.5t-48.5 -239q0 -129 48.5 -241t132 -196t195.5 -132t239 -48q129 0 241 48t196.5 132t133 196t48.5 241zM967 283l-195 329h-158 v-329h-124v815h301q139 0 213 -62t74 -171q0 -100 -51 -160t-134 -79l216 -343h-142zM954 863q0 68 -47 103.5t-126 35.5h-167v-295h179q78 0 119.5 41.5t41.5 114.5z" />
<glyph unicode="&#xb4;" horiz-adv-x="668" d="M172 1177l2 20l248 281h213l-5 -29l-366 -272h-92z" />
<glyph unicode="&#xb8;" horiz-adv-x="668" d="M312 -94q79 -5 118.5 -40.5t39.5 -92.5q0 -44 -16.5 -79.5t-52 -59.5t-92 -37t-136.5 -13q-27 0 -53.5 1.5t-49.5 4.5l20 90q47 -6 86 -6q90 0 126.5 21.5t36.5 65.5q0 30 -27 50t-90 20h-28t-28 -2l99 171h104z" />
<glyph unicode="&#xbb;" d="M627 138h-155l7 38l402 360l-259 365l4 20h153l261 -363l-12 -62zM162 138h-157l7 38l402 360l-259 365l4 20h155l257 -363l-11 -62z" />
<glyph unicode="&#xd3;" horiz-adv-x="1561" d="M919 1401q141 0 250 -41.5t184 -117t113.5 -179.5t38.5 -229q-1 -48 -5.5 -99.5t-13.5 -98.5q-30 -151 -99.5 -272t-172 -206t-234 -131.5t-285.5 -46.5q-147 0 -257 43t-183 120t-109.5 183.5t-36.5 235.5q0 45 4.5 92t13.5 95q30 147 98.5 267.5t171 206t234.5 132 t288 46.5zM910 1250q-128 0 -228 -36t-174 -104.5t-122 -167.5t-73 -225q-9 -42 -13 -84.5t-4 -80.5q0 -105 27.5 -184t80 -131.5t128.5 -78.5t172 -26q129 0 229.5 37t174 106t122 167.5t72.5 220.5q9 42 12.5 86t3.5 81q0 105 -28.5 184t-81.5 131.5t-128.5 78.5 t-169.5 26zM801 1499l3 20l255 221h203l-5 -28l-345 -213h-111z" />
<glyph unicode="&#xf3;" d="M1059 669q0 -51 -6 -102.5t-20 -108.5q-29 -130 -81.5 -221t-123 -148t-157 -83t-184.5 -26q-94 0 -170.5 29t-131 84.5t-84 135.5t-29.5 182q1 46 5 95t16 102q29 123 79 211.5t118.5 146.5t155 85.5t189.5 27.5q104 0 183 -27.5t132.5 -80.5t81 -129t27.5 -173z M876 669q0 76 -16.5 129t-48.5 86.5t-77 49.5t-101 16q-52 0 -104.5 -12.5t-100 -49.5t-86.5 -106t-66 -182q-12 -54 -17.5 -102.5t-5.5 -89.5q0 -81 18.5 -137.5t51.5 -92t77.5 -51.5t97.5 -16t104.5 11.5t97.5 49.5t84.5 107.5t65.5 184.5q14 58 19 107t7 98zM523 1177 l2 20l248 281h213l-5 -29l-366 -272h-92z" />
<glyph unicode="&#x104;" horiz-adv-x="1338" d="M1040 0l-74 404h-626l-235 -404h-204l831 1381h213l286 -1381h-191zM854 1013q-8 41 -15.5 79t-12.5 70t-8.5 53t-4.5 25q-2 -4 -13 -25.5t-28.5 -53.5t-39.5 -70.5t-45 -78.5l-265 -462h517zM1014 -418q-86 0 -130 46t-44 118q0 51 20 93t50 73.5t65 53.5t65 34h131 q-27 -14 -60 -36t-61.5 -51.5t-48 -65.5t-19.5 -78q0 -34 19.5 -57t56.5 -23q31 0 56.5 5.5t55.5 16.5l-15 -103q-29 -12 -63.5 -19t-77.5 -7z" />
<glyph unicode="&#x105;" d="M1034 6q-29 -7 -61.5 -11.5t-64.5 -4.5q-91 0 -132.5 38t-41.5 112q0 15 2 32t3 31h-6q-34 -52 -71 -93t-81.5 -70t-99.5 -44.5t-127 -15.5q-77 0 -134 24.5t-96.5 65.5t-59 94t-19.5 108q0 80 23 137.5t63 99t93 67.5t113.5 40.5t125 20.5t126.5 7l227 3l7 35 q5 25 8.5 47.5t3.5 41.5q0 89 -52 132t-144 43q-48 0 -89.5 -7.5t-74.5 -26.5t-58 -52t-41 -83l-174 29q18 60 50.5 110.5t85.5 87t129 56.5t182 20q87 0 154.5 -21.5t113.5 -60t70 -91t24 -116.5q0 -31 -5 -73.5t-13 -80.5l-73 -370q-5 -22 -8 -44.5t-3 -42.5 q0 -36 19.5 -53.5t60.5 -17.5q15 0 30 2t29 5zM793 525l-195 -4q-39 -1 -81.5 -4t-83 -12t-77.5 -24.5t-64 -42.5t-43.5 -65.5t-16.5 -92.5q0 -31 10.5 -61t32 -53t53.5 -37t75 -14q85 0 148.5 29t109 72.5t71.5 94t34 92.5zM786 -408q-86 0 -130 46t-44 118q0 51 20 93 t50 73.5t65 53.5t65 34h131q-27 -14 -60 -36t-61.5 -51.5t-48 -65.5t-19.5 -78q0 -34 19.5 -57t56.5 -23q31 0 56.5 5.5t55.5 16.5l-15 -103q-29 -12 -63.5 -19t-77.5 -7z" />
<glyph unicode="&#x106;" horiz-adv-x="1449" d="M1331 330q-48 -71 -108 -135t-137 -111.5t-175.5 -75.5t-224.5 -28q-145 0 -253.5 45.5t-180 123t-106.5 183t-35 226.5t26.5 231t75.5 203.5t119.5 169.5t159 129t193.5 81.5t222 28.5q127 0 222 -28.5t162.5 -75.5t109 -108t59.5 -126l-176 -54q-15 46 -45.5 89 t-78 76.5t-112.5 54t-150 20.5q-143 0 -255 -52.5t-189.5 -145.5t-117.5 -219.5t-40 -276.5q0 -92 25.5 -169.5t76 -134t126 -88t175.5 -31.5q88 0 161.5 24t134.5 64t109.5 91.5t86.5 105.5zM846 1499l3 20l255 221h203l-5 -28l-345 -213h-111z" />
<glyph unicode="&#x107;" horiz-adv-x="1003" d="M460 120q54 0 98.5 16t78.5 45.5t60.5 71t45.5 92.5l153 -48q-28 -74 -67.5 -132t-94 -99.5t-124 -63.5t-154.5 -22q-101 0 -175 30.5t-121.5 85t-70.5 129t-23 162.5q0 39 3.5 85t11.5 91q22 108 56 188.5t75.5 138t90 94.5t100 58t105 29.5t104.5 8.5q88 0 154 -22.5 t112 -63.5t72 -98.5t31 -127.5l-173 -24q-3 44 -17 80t-39 62t-61 41t-84 15q-68 0 -122 -19.5t-96.5 -64t-73 -115.5t-50.5 -174q-9 -47 -14 -99t-5 -89q0 -124 50.5 -192.5t163.5 -68.5zM524 1177l2 20l248 281h213l-5 -29l-366 -272h-92z" />
<glyph unicode="&#x118;" horiz-adv-x="1338" d="M62 0l267 1381h1028l-29 -153h-841l-86 -443h782l-30 -151h-782l-93 -481h881l-29 -153h-1068zM843 -418q-86 0 -130 46t-44 118q0 51 20 93t50 73.5t65 53.5t65 34h131q-27 -14 -60 -36t-61.5 -51.5t-48 -65.5t-19.5 -78q0 -34 19.5 -57t56.5 -23q31 0 56.5 5.5 t55.5 16.5l-15 -103q-29 -12 -63.5 -19t-77.5 -7z" />
<glyph unicode="&#x119;" d="M251 493q-5 -27 -6.5 -55t-2.5 -56q0 -130 65 -199.5t197 -69.5q55 0 100 14t81.5 38t64.5 56t47 67l135 -62q-25 -44 -60 -87.5t-87.5 -79t-126 -57.5t-175.5 -22q-98 0 -175.5 28t-131 81.5t-81 131t-27.5 176.5q0 155 41.5 281.5t115.5 215.5t174.5 137.5t217.5 48.5 q108 0 187.5 -28.5t132.5 -79.5t79 -122t26 -156q0 -21 -1.5 -45.5t-4.5 -51t-7.5 -53.5t-10.5 -51h-767zM862 628q2 20 3 37t1 34q0 64 -17.5 111.5t-50 78.5t-77.5 46t-100 15q-47 0 -99 -14.5t-99.5 -50.5t-86.5 -98.5t-62 -158.5h588zM551 -398q-86 0 -130 46t-44 118 q0 51 20 93t50 73.5t65 53.5t65 34h131q-27 -14 -60 -36t-61.5 -51.5t-48 -65.5t-19.5 -78q0 -34 19.5 -57t56.5 -23q31 0 56.5 5.5t55.5 16.5l-15 -103q-29 -12 -63.5 -19t-77.5 -7z" />
<glyph unicode="&#x131;" horiz-adv-x="557" d="M87 0l206 1060h176l-206 -1060h-176z" />
<glyph unicode="&#x141;" d="M669 781l-300 -146l-93 -482h698l-30 -153h-885l103 527l-160 -83l28 155l162 83l135 699h187l-114 -591l300 145z" />
<glyph unicode="&#x142;" horiz-adv-x="445" d="M31 0l103 531l-132 -66l30 154l132 67l150 768h176l-129 -666l135 70l-30 -155l-136 -70l-123 -633h-176z" />
<glyph unicode="&#x143;" horiz-adv-x="1449" d="M967 0l-520 1186q-6 -45 -13 -92q-6 -40 -13 -86t-15 -84l-178 -924h-166l267 1381h208l523 -1191q6 42 13 89q6 40 14 89.5t17 99.5l178 913h168l-267 -1381h-216zM781 1499l3 20l255 221h203l-5 -28l-345 -213h-111z" />
<glyph unicode="&#x144;" d="M707 0l123 632q8 38 13 78t5 69q0 78 -41.5 121t-134.5 43q-62 0 -117.5 -25t-100.5 -70.5t-77 -110t-48 -143.5l-115 -594h-177l163 834q7 33 13.5 70t11.5 69.5t8.5 56.5t4.5 30h167q0 -5 -3 -26.5t-7.5 -49.5t-9 -56.5t-8.5 -48.5h3q34 46 69 83.5t77.5 63.5t94 39.5 t117.5 13.5q145 0 218 -71.5t73 -206.5q0 -36 -6.5 -80t-14.5 -81l-124 -640h-177zM552 1177l2 20l248 281h213l-5 -29l-366 -272h-92z" />
<glyph unicode="&#x15a;" horiz-adv-x="1338" d="M604 -20q-128 0 -223.5 23t-162 68t-106 110t-55.5 150l173 37q13 -61 40.5 -106t73.5 -75t113.5 -45t159.5 -15q96 0 172.5 13.5t130 44.5t82 80.5t28.5 122.5q0 50 -16.5 85.5t-58 63t-111.5 52.5t-176 55q-86 23 -162 52t-132.5 71.5t-90 103.5t-33.5 149 q0 103 46.5 175t124.5 118t178.5 67t208.5 21q118 0 206.5 -21.5t151 -60t99.5 -92.5t52 -118l-169 -50q-15 47 -41.5 84.5t-67.5 63.5t-98.5 39.5t-133.5 13.5q-102 0 -172.5 -17t-114 -48t-63 -73.5t-19.5 -92.5q0 -53 20 -88t61.5 -59t104.5 -44.5t149 -43.5 q85 -24 166 -52.5t144 -72t100.5 -108t37.5 -161.5q0 -202 -152 -311t-465 -109zM690 1499l2 20l248 281h213l-5 -29l-366 -272h-92z" />
<glyph unicode="&#x15b;" horiz-adv-x="1003" d="M889 311q0 -84 -33.5 -146t-94.5 -103t-148.5 -61.5t-196.5 -20.5q-91 0 -159.5 16t-118 46t-82 74.5t-51.5 102.5l144 54q15 -39 38 -70t56.5 -52t80 -31.5t108.5 -10.5q63 0 115.5 10t90 32.5t58.5 58t21 85.5q0 39 -18.5 67t-52.5 49t-82.5 39t-107.5 37 q-64 21 -121.5 45.5t-101 58.5t-69.5 80.5t-26 109.5q0 80 35 136.5t94 92t138 51.5t167 16q81 0 147.5 -13.5t116.5 -43.5t82.5 -77.5t43.5 -115.5l-159 -24q-22 77 -81.5 111.5t-160.5 34.5q-52 0 -98 -8t-80 -25.5t-54 -46t-20 -68.5q0 -41 18.5 -67.5t52.5 -47.5 t81.5 -37t105.5 -35q56 -17 113.5 -40.5t103.5 -58.5t75.5 -84.5t29.5 -119.5zM479 1177l2 20l248 281h213l-5 -29l-366 -272h-92z" />
<glyph unicode="&#x179;" horiz-adv-x="1225" d="M1060 0h-1099l26 140l1033 1088h-750l30 153h982l-27 -136l-1033 -1092h868zM671 1499l3 20l255 221h203l-5 -28l-345 -213h-111z" />
<glyph unicode="&#x17a;" horiz-adv-x="1003" d="M-43 0l26 134l781 790h-589l27 136h807l-26 -134l-783 -790h665l-26 -136h-882zM475 1177l2 20l248 281h213l-5 -29l-366 -272h-92z" />
<glyph unicode="&#x17b;" horiz-adv-x="1225" d="M1060 0h-1099l26 140l1033 1088h-750l30 153h982l-27 -136l-1033 -1092h868zM683 1500l33 168h177l-33 -168h-177z" />
<glyph unicode="&#x17c;" horiz-adv-x="1003" d="M-43 0l26 134l781 790h-589l27 136h807l-26 -134l-783 -790h665l-26 -136h-882zM540 1286l33 168h177l-33 -168h-177z" />
<glyph unicode="&#x2c6;" horiz-adv-x="668" d="M727 1197l-4 -20h-90l-182 166h-2l-260 -166h-114l4 20l281 264h200z" />
<glyph unicode="&#x2d9;" horiz-adv-x="668" d="M335 1286l33 168h177l-33 -168h-177z" />
<glyph unicode="&#x2da;" horiz-adv-x="668" d="M671 1382q0 -49 -18.5 -92t-51 -75.5t-75.5 -51t-92 -18.5t-92 18.5t-75.5 51t-51 75.5t-18.5 92t18.5 92t51 75t75.5 50.5t92 18.5t92 -18.5t75.5 -50.5t51 -75t18.5 -92zM565 1382q0 28 -9.5 52t-27 42t-41.5 27.5t-53 9.5q-27 0 -51.5 -9.5t-42.5 -27.5t-28 -42 t-10 -52t10 -52.5t28 -43t42.5 -28.5t51.5 -10q29 0 53 10t41.5 28.5t27 43t9.5 52.5z" />
<glyph unicode="&#x2db;" horiz-adv-x="668" d="M244 -418q-86 0 -130 46t-44 118q0 51 20 93t50 73.5t65 53.5t65 34h131q-27 -14 -60 -36t-61.5 -51.5t-48 -65.5t-19.5 -78q0 -34 19.5 -57t56.5 -23q31 0 56.5 5.5t55.5 16.5l-15 -103q-29 -12 -63.5 -19t-77.5 -7z" />
<glyph unicode="&#x2dc;" horiz-adv-x="668" d="M556 1177q-42 0 -79 18t-71 40t-65 40.5t-62 18.5q-54 0 -86.5 -30.5t-52.5 -86.5h-88q14 44 32.5 90.5t46.5 85t68.5 63t98.5 24.5q43 0 80.5 -18.5t71 -40.5t64 -40t59.5 -18q53 0 86.5 31t51.5 86h91q-14 -44 -32 -90.5t-46 -84.5t-69 -63t-99 -25z" />
<glyph unicode="&#x393;" horiz-adv-x="1144" d="M1216 1382l-29 -153h-699l-239 -1228h-187l268 1381h886z" />
<glyph unicode="&#x3a0;" horiz-adv-x="1454" d="M1001 0l238 1223h-752l-238 -1223h-187l268 1381h1126l-268 -1381h-187z" />
<glyph unicode="&#x401;" horiz-adv-x="1338" d="M62 0l267 1381h1028l-29 -153h-841l-86 -443h782l-30 -151h-782l-93 -481h881l-29 -153h-1068zM957 1499l35 181h169l-34 -181h-170zM581 1499l34 181h172l-34 -181h-172z" />
<glyph unicode="&#x402;" horiz-adv-x="1691" d="M841 1228l-67 -345q34 7 86 16.5t112 19t122 16t114 6.5q191 0 288 -77.5t97 -226.5q0 -24 -2 -51t-7 -50l-37 -192q-17 -91 -45.5 -159t-74 -114t-111 -68.5t-155.5 -22.5q-104 0 -178 37t-120 93l126 117q15 -15 33 -32.5t40.5 -31t49.5 -23t59 -9.5q41 0 71.5 12.5 t53 38t37.5 64.5t26 93l38 197q2 9 3.5 20.5t3 24t2.5 23.5t1 18q0 81 -58 124.5t-177 43.5q-50 0 -109.5 -5t-119 -12.5t-111.5 -15.5t-86 -16l-143 -741h-187l239 1228h-475l30 153h1135l-30 -153h-474z" />
<glyph unicode="&#x403;" horiz-adv-x="1091" d="M1216 1382l-29 -153h-699l-239 -1228h-187l268 1381h886zM630 1499l3 20l255 221h203l-5 -28l-345 -213h-111z" />
<glyph unicode="&#x404;" horiz-adv-x="1420" d="M665 -20q-143 0 -249 45.5t-176.5 123t-105.5 183t-35 226.5t26 231t74.5 203.5t118 169.5t157 129t190.5 81.5t219 28.5q124 0 218.5 -28.5t160.5 -75.5t106.5 -108t59.5 -126l-177 -54q-14 46 -43.5 89t-76 76.5t-111 54t-147.5 20.5q-113 0 -206 -34.5t-164.5 -97 t-120.5 -149t-74 -192.5h618l-28 -151h-613q-1 -17 -1.5 -35t-0.5 -35q0 -92 25 -169.5t74.5 -134t123 -88t171.5 -31.5q92 0 165.5 24t131.5 64.5t103 92t81 104.5l140 -87q-47 -71 -105.5 -135t-134.5 -111.5t-173 -75.5t-221 -28z" />
<glyph unicode="&#x405;" horiz-adv-x="1338" d="M604 -20q-128 0 -223.5 23t-162 68t-106 110t-55.5 150l173 37q13 -61 40.5 -106t73.5 -75t113.5 -45t159.5 -15q96 0 172.5 13.5t130 44.5t82 80.5t28.5 122.5q0 50 -16.5 85.5t-58 63t-111.5 52.5t-176 55q-86 23 -162 52t-132.5 71.5t-90 103.5t-33.5 149 q0 103 46.5 175t124.5 118t178.5 67t208.5 21q118 0 206.5 -21.5t151 -60t99.5 -92.5t52 -118l-169 -50q-15 47 -41.5 84.5t-67.5 63.5t-98.5 39.5t-133.5 13.5q-102 0 -172.5 -17t-114 -48t-63 -73.5t-19.5 -92.5q0 -53 20 -88t61.5 -59t104.5 -44.5t149 -43.5 q85 -24 166 -52.5t144 -72t100.5 -108t37.5 -161.5q0 -202 -152 -311t-465 -109z" />
<glyph unicode="&#x406;" horiz-adv-x="557" d="M79 0l269 1381h187l-268 -1381h-188z" />
<glyph unicode="&#x407;" horiz-adv-x="557" d="M79 0l269 1381h187l-268 -1381h-188zM559 1499l35 181h169l-34 -181h-170zM183 1499l34 181h172l-34 -181h-172z" />
<glyph unicode="&#x408;" horiz-adv-x="1003" d="M373 -20q-155 0 -253.5 91.5t-124.5 264.5l165 32q22 -114 77 -175t153 -61q59 0 102 21.5t74 61t51 95t33 121.5l154 797h-286l30 153h471l-189 -966q-19 -98 -53.5 -178.5t-89 -137.5t-132 -88t-182.5 -31z" />
<glyph unicode="&#x409;" horiz-adv-x="2139" d="M1128 1224h-452l-117 -361q-55 -168 -101.5 -299t-90 -228.5t-85.5 -164.5t-88.5 -108.5t-99.5 -60t-118 -18.5q-25 0 -47.5 2.5t-35.5 7.5l30 149q10 -4 27 -5.5t26 -1.5q30 0 57.5 11.5t56 42t58.5 82.5t65.5 135t77.5 199.5t93 274.5l163 500h801l-113 -584h318 q115 0 203 -25.5t148.5 -73t91.5 -116t31 -154.5q0 -102 -37.5 -181t-108 -134t-171 -84t-226.5 -29h-593zM1108 148h367q362 0 362 270q0 60 -21.5 103.5t-59.5 71.5t-92 41.5t-120 13.5h-338z" />
<glyph unicode="&#x40a;" horiz-adv-x="1971" d="M762 0l124 640h-514l-123 -640h-187l267 1381h187l-112 -584h513l113 584h187l-113 -584h272q115 0 203 -25.5t148.5 -73t91 -116t30.5 -154.5q0 -102 -37 -181t-107.5 -134t-171 -84t-227.5 -29h-544zM978 148h320q361 0 361 270q0 60 -21 103.5t-59 71.5t-92 41.5 t-120 13.5h-291z" />
<glyph unicode="&#x40b;" horiz-adv-x="1694" d="M603 0h-187l239 1228h-475l30 153h1179l-30 -153h-518l-67 -345q34 8 80 17.5t98 18.5t107.5 15.5t107.5 6.5q190 0 283 -78t93 -226q0 -26 -3.5 -56.5t-7.5 -50.5l-103 -530h-186l104 536q3 18 6 46t3 45q0 78 -53 120.5t-172 42.5q-50 0 -103.5 -5t-105 -12.5 t-97 -15.5t-79.5 -16z" />
<glyph unicode="&#x40c;" horiz-adv-x="1182" d="M329 1381h187l-117 -607q37 0 67 5t58 17.5t56 34.5t61.5 56t76 82t97.5 113l259 299h202l-352 -407q-81 -95 -134 -145.5t-85 -72.5l349 -756h-206l-297 663q-19 -6 -43 -12t-49 -10.5t-48 -6.5t-40 -2l-121 -632h-188zM699 1499l3 20l255 221h203l-5 -28l-345 -213 h-111z" />
<glyph unicode="&#x40e;" horiz-adv-x="1282" d="M689 312q-63 -87 -117 -149.5t-108 -102.5t-113 -60t-132 -20q-62 0 -121 21t-101 55l83 134q31 -21 68 -39.5t84 -18.5q42 0 75.5 12.5t66.5 40.5t70.5 74t88.5 113l65 88l-379 921h203l291 -769l526 769h210zM858 1499q-71 0 -126.5 15.5t-98.5 45.5t-75.5 74.5 t-55.5 102.5l144 60q18 -41 39.5 -74.5t50.5 -57t66 -35.5t85 -12q51 0 93 14.5t75.5 40t58 60.5t40.5 74l101 -36q-16 -49 -48.5 -98t-81.5 -87.5t-115.5 -62.5t-151.5 -24z" />
<glyph unicode="&#x40f;" horiz-adv-x="1452" d="M457 -400l78 400h-473l267 1381h187l-237 -1224h754l237 1224h182l-267 -1381h-474l-78 -400h-176z" />
<glyph unicode="&#x410;" horiz-adv-x="1338" d="M1040 0l-74 404h-626l-235 -404h-204l831 1381h213l286 -1381h-191zM854 1013q-8 41 -15.5 79t-12.5 70t-8.5 53t-4.5 25q-2 -4 -13 -25.5t-28.5 -53.5t-39.5 -70.5t-45 -78.5l-265 -462h517z" />
<glyph unicode="&#x411;" horiz-adv-x="1306" d="M329 1381h908l-30 -153h-720l-83 -431h317q115 0 203 -25.5t148.5 -73t91.5 -116t31 -154.5q0 -102 -37.5 -181t-108 -134t-171 -84t-226.5 -29h-591zM276 148h367q361 0 361 270q0 60 -21 103.5t-59 71.5t-92 41.5t-120 13.5h-338z" />
<glyph unicode="&#x412;" horiz-adv-x="1338" d="M329 1381h500q102 0 183.5 -21.5t138.5 -62.5t88 -99.5t31 -132.5q0 -143 -84 -225.5t-248 -111.5q69 -12 122.5 -39t89.5 -66t54 -88t18 -105q0 -81 -22.5 -145t-62.5 -112t-94.5 -80.5t-119 -53t-135.5 -30t-143 -9.5h-583zM403 794h324q178 0 263 63.5t85 189.5 q0 93 -67 138.5t-196 45.5h-324zM277 150h361q76 0 148 11.5t127 43t88.5 86.5t33.5 142q0 105 -78 160t-224 55h-359z" />
<glyph unicode="&#x413;" horiz-adv-x="1091" d="M1216 1382l-29 -153h-699l-239 -1228h-187l268 1381h886z" />
<glyph unicode="&#x414;" horiz-adv-x="1413" d="M1119 157h172l-109 -557h-177l79 400h-1015l-79 -400h-175l108 557h141q50 50 95.5 117.5t89 156t86.5 200.5t88 250l163 500h770zM937 157l207 1067h-429l-117 -361q-43 -131 -84 -239.5t-80.5 -195.5t-78.5 -154t-81 -117h663z" />
<glyph unicode="&#x415;" horiz-adv-x="1338" d="M62 0l267 1381h1028l-29 -153h-841l-86 -443h782l-30 -151h-782l-93 -481h881l-29 -153h-1068z" />
<glyph unicode="&#x416;" horiz-adv-x="1840" d="M849 646q-34 0 -77 7.5t-74 21.5l-549 -675h-230l655 760q-20 17 -55 71.5t-82 147.5l-205 402h190l143 -299q47 -97 79.5 -157.5t65 -93.5t70.5 -45t94 -12l118 607h187l-118 -607q38 0 67.5 5t57.5 17.5t56 34.5t62 56t76 82t98 113l259 299h201l-351 -407 q-82 -95 -135 -145.5t-85 -72.5l350 -756h-207l-295 679q-18 -7 -42 -12.5t-49 -10t-48 -6.5t-40 -2l-124 -648h-188z" />
<glyph unicode="&#x417;" horiz-adv-x="1231" d="M542 -20q-115 0 -201 25t-149 70t-105 107.5t-68 138.5l164 69q23 -57 51.5 -104.5t70.5 -82t101.5 -54t143.5 -19.5q86 0 154 19t115.5 54.5t72.5 89t25 123.5q0 102 -77.5 163.5t-238.5 61.5h-97l27 145h70q94 0 168 13t125 43.5t78 81t27 124.5q0 44 -17 80.5 t-48.5 63t-78.5 42t-106 15.5q-83 0 -144.5 -18t-108.5 -50t-81.5 -77t-59.5 -98l-163 60q78 166 217 250t349 84q96 0 175 -24.5t137 -68t90 -104.5t32 -135q0 -77 -26 -138.5t-71.5 -105.5t-108.5 -71.5t-137 -38.5q49 -8 95.5 -31t82.5 -60.5t58.5 -88.5t22.5 -116 q0 -102 -39.5 -183t-113 -138t-178.5 -87t-235 -30z" />
<glyph unicode="&#x418;" horiz-adv-x="1435" d="M62 0l267 1381h169l-176 -906q-9 -50 -19.5 -98t-19.5 -86q-11 -45 -20 -84l957 1174h218l-268 -1381h-166l177 917q8 39 17.5 82.5t17.5 80.5q10 44 20 86l-949 -1166h-225z" />
<glyph unicode="&#x419;" horiz-adv-x="1435" d="M62 0l267 1381h169l-176 -906q-9 -50 -19.5 -98t-19.5 -86q-11 -45 -20 -84l957 1174h218l-268 -1381h-166l177 917q8 39 17.5 82.5t17.5 80.5q10 44 20 86l-949 -1166h-225zM903 1499q-71 0 -126.5 15.5t-98.5 45.5t-75.5 74.5t-55.5 102.5l144 60q18 -41 39.5 -74.5 t50.5 -57t66 -35.5t85 -12q51 0 93 14.5t75.5 40t58 60.5t40.5 74l101 -36q-16 -49 -48.5 -98t-81.5 -87.5t-115.5 -62.5t-151.5 -24z" />
<glyph unicode="&#x41a;" horiz-adv-x="1182" d="M329 1381h187l-117 -607q37 0 67 5t58 17.5t56 34.5t61.5 56t76 82t97.5 113l259 299h202l-352 -407q-81 -95 -134 -145.5t-85 -72.5l349 -756h-206l-297 663q-19 -6 -43 -12t-49 -10.5t-48 -6.5t-40 -2l-121 -632h-188z" />
<glyph unicode="&#x41b;" horiz-adv-x="1375" d="M1166 1224h-490l-117 -361q-55 -168 -101.5 -299t-90 -228.5t-85.5 -164.5t-88.5 -108.5t-99.5 -60t-118 -18.5q-25 0 -47.5 2.5t-35.5 7.5l30 149q10 -4 27 -5.5t26 -1.5q30 0 57.5 11.5t56 42t58.5 82.5t65.5 135t77.5 199.5t93 274.5l163 500h832l-268 -1381h-182z " />
<glyph unicode="&#x41c;" horiz-adv-x="1671" d="M1236 0l176 909q10 50 21 102t20 95q11 50 23 97q-25 -51 -50 -101q-22 -43 -46.5 -90t-45.5 -83l-537 -929h-122l-181 929q-6 29 -13 76t-13 91q-6 52 -14 107q-8 -54 -17 -108q-8 -46 -16 -96t-16 -90l-177 -909h-166l267 1381h232l185 -958q3 -14 8.5 -47t9.5 -67 q6 -39 13 -87q21 44 39 83q17 34 34 69t29 57l542 950h251l-268 -1381h-168z" />
<glyph unicode="&#x41d;" horiz-adv-x="1449" d="M1001 0l124 640h-752l-124 -640h-187l268 1381h187l-113 -584h751l114 584h182l-268 -1381h-182z" />
<glyph unicode="&#x41e;" horiz-adv-x="1561" d="M919 1401q141 0 250 -41.5t184 -117t113.5 -179.5t38.5 -229q-1 -48 -5.5 -99.5t-13.5 -98.5q-30 -151 -99.5 -272t-172 -206t-234 -131.5t-285.5 -46.5q-147 0 -257 43t-183 120t-109.5 183.5t-36.5 235.5q0 45 4.5 92t13.5 95q30 147 98.5 267.5t171 206t234.5 132 t288 46.5zM910 1250q-128 0 -228 -36t-174 -104.5t-122 -167.5t-73 -225q-9 -42 -13 -84.5t-4 -80.5q0 -105 27.5 -184t80 -131.5t128.5 -78.5t172 -26q129 0 229.5 37t174 106t122 167.5t72.5 220.5q9 42 12.5 86t3.5 81q0 105 -28.5 184t-81.5 131.5t-128.5 78.5 t-169.5 26z" />
<glyph unicode="&#x41f;" horiz-adv-x="1454" d="M1001 0l238 1223h-752l-238 -1223h-187l268 1381h1126l-268 -1381h-187z" />
<glyph unicode="&#x420;" horiz-adv-x="1338" d="M835 1381q114 0 204.5 -26.5t154 -75.5t98 -120t34.5 -159q0 -108 -38.5 -194t-111 -145t-175.5 -91t-233 -32h-415l-104 -538h-187l267 1381h506zM382 686h379q189 0 282 76.5t93 228.5q0 63 -22 108.5t-62.5 74.5t-96.5 43t-125 14h-342z" />
<glyph unicode="&#x421;" horiz-adv-x="1449" d="M1331 330q-48 -71 -108 -135t-137 -111.5t-175.5 -75.5t-224.5 -28q-145 0 -253.5 45.5t-180 123t-106.5 183t-35 226.5t26.5 231t75.5 203.5t119.5 169.5t159 129t193.5 81.5t222 28.5q127 0 222 -28.5t162.5 -75.5t109 -108t59.5 -126l-176 -54q-15 46 -45.5 89 t-78 76.5t-112.5 54t-150 20.5q-143 0 -255 -52.5t-189.5 -145.5t-117.5 -219.5t-40 -276.5q0 -92 25.5 -169.5t76 -134t126 -88t175.5 -31.5q88 0 161.5 24t134.5 64t109.5 91.5t86.5 105.5z" />
<glyph unicode="&#x422;" horiz-adv-x="1225" d="M841 1228l-239 -1228h-186l239 1228h-475l30 153h1135l-30 -153h-474z" />
<glyph unicode="&#x423;" horiz-adv-x="1282" d="M689 312q-63 -87 -117 -149.5t-108 -102.5t-113 -60t-132 -20q-62 0 -121 21t-101 55l83 134q31 -21 68 -39.5t84 -18.5q42 0 75.5 12.5t66.5 40.5t70.5 74t88.5 113l65 88l-379 921h203l291 -769l526 769h210z" />
<glyph unicode="&#x424;" horiz-adv-x="1595" d="M587 212q-105 0 -191 30.5t-147.5 88.5t-95 142.5t-33.5 190.5q0 127 45 228t125 172.5t190.5 109.5t240.5 38h98l36 179h184l-35 -179h36q111 0 199.5 -30t150 -88t94.5 -142t33 -191q0 -126 -44.5 -227.5t-124.5 -173t-190.5 -110t-242.5 -38.5h-104l-43 -223h-184 l43 223h-40zM836 351h75q96 0 172.5 26.5t130.5 77t82.5 123.5t28.5 166q0 86 -24.5 148.5t-65 102t-94 58.5t-111.5 19h-54zM795 1072h-60q-211 0 -318.5 -101t-107.5 -290q0 -87 24 -149.5t64 -102.5t92.5 -59t109.5 -19h56z" />
<glyph unicode="&#x425;" horiz-adv-x="1338" d="M979 0l-297 594l-513 -594h-207l641 731l-333 650h195l264 -540l466 540h206l-588 -663l361 -718h-195z" />
<glyph unicode="&#x426;" horiz-adv-x="1459" d="M1336 157l-109 -557h-176l78 400h-1067l267 1381h187l-237 -1224h703l237 1224h182l-237 -1224h172z" />
<glyph unicode="&#x427;" horiz-adv-x="1351" d="M996 498q-35 -8 -82.5 -18t-101 -18.5t-111 -15t-111.5 -6.5q-193 0 -290.5 77.5t-97.5 226.5q0 23 2.5 50.5t7.5 50.5l104 536h186l-104 -536q-2 -9 -3.5 -21l-3 -24t-2.5 -23.5t-1 -17.5q0 -81 59.5 -124.5t181.5 -43.5q51 0 106 5t107.5 12t99.5 15.5t81 16.5l144 741 h186l-267 -1381h-186z" />
<glyph unicode="&#x428;" horiz-adv-x="1847" d="M62 0l267 1381h187l-237 -1224h483l238 1224h182l-237 -1224h483l237 1224h182l-267 -1381h-1518z" />
<glyph unicode="&#x429;" horiz-adv-x="1852" d="M1730 157l-109 -557h-176l78 400h-1461l267 1381h187l-237 -1224h458l237 1224h182l-237 -1224h457l237 1224h182l-237 -1224h172z" />
<glyph unicode="&#x42a;" horiz-adv-x="1616" d="M630 1228h-450l30 153h637l-113 -584h286q115 0 203 -25.5t148.5 -73t91.5 -116t31 -154.5q0 -102 -37.5 -181t-108 -134t-171 -84t-226.5 -29h-559zM607 148h335q361 0 361 270q0 60 -21 103.5t-59 71.5t-92 41.5t-120 13.5h-306z" />
<glyph unicode="&#x42b;" horiz-adv-x="1778" d="M1299 0l268 1381h187l-267 -1381h-188zM404 797h317q115 0 203 -25.5t148.5 -73t91.5 -116t31 -154.5q0 -102 -37.5 -181t-108 -134t-171 -84t-226.5 -29h-591l268 1381h187zM276 148h367q361 0 361 270q0 60 -21 103.5t-59 71.5t-92 41.5t-120 13.5h-338z" />
<glyph unicode="&#x42c;" horiz-adv-x="1306" d="M404 797h306q115 0 203.5 -25.5t148.5 -73t91 -116t31 -154.5q0 -102 -37.5 -181t-108 -134t-171 -84t-226.5 -29h-580l268 1381h187zM276 148h356q362 0 362 270q0 60 -21 103.5t-59.5 71.5t-92.5 41.5t-119 13.5h-328z" />
<glyph unicode="&#x42d;" horiz-adv-x="1392" d="M764 1249q-153 0 -261 -65.5t-167 -182.5l-165 58q39 81 94 144t129 107t168 67.5t209 23.5q132 0 235 -41.5t174.5 -118t109.5 -183.5t38 -239q0 -183 -52 -337t-149.5 -265.5t-238.5 -174t-321 -62.5q-104 0 -193 22.5t-159 68.5t-119.5 114.5t-75.5 159.5l170 57 q41 -131 138 -199.5t247 -68.5q107 0 199 32.5t164 95t120 154.5t66 209h-613l26 151h599q2 20 3 38t1 37q0 92 -26 165.5t-74.5 125t-118 79.5t-157.5 28z" />
<glyph unicode="&#x42e;" horiz-adv-x="2052" d="M1429 1401q134 0 238 -41.5t175.5 -117t108 -179.5t36.5 -229q-1 -48 -5 -99.5t-13 -98.5q-29 -151 -95 -272t-164 -206t-223.5 -131.5t-272.5 -46.5q-139 0 -244 43t-175 120t-104.5 183.5t-34.5 235.5q0 39 3 78h-287l-123 -640h-187l267 1381h187l-112 -584h279 q33 137 100.5 248.5t163 190.5t217.5 122t265 43zM1420 1250q-120 0 -213 -36t-161.5 -104.5t-113.5 -167.5t-69 -225q-7 -42 -11 -84.5t-4 -80.5q0 -210 100.5 -315t279.5 -105q120 0 214 37t162.5 106t113.5 167.5t68 220.5q7 42 10.5 86t3.5 81q0 105 -26.5 184 t-76 131.5t-120 78.5t-157.5 26z" />
<glyph unicode="&#x42f;" horiz-adv-x="1368" d="M-89 0l543 601q-44 15 -91.5 43t-86.5 72t-64.5 106t-25.5 145q0 209 145.5 311.5t448.5 102.5h590l-268 -1381h-187l111 573h-387l-506 -573h-222zM1154 1231h-403q-185 0 -280 -61.5t-95 -198.5q0 -71 24.5 -119t66 -77t95 -41.5t111.5 -12.5h382z" />
<glyph unicode="&#x430;" d="M1034 6q-29 -7 -61.5 -11.5t-64.5 -4.5q-91 0 -132.5 38t-41.5 112q0 15 2 32t3 31h-6q-34 -52 -71 -93t-81.5 -70t-99.5 -44.5t-127 -15.5q-77 0 -134 24.5t-96.5 65.5t-59 94t-19.5 108q0 80 23 137.5t63 99t93 67.5t113.5 40.5t125 20.5t126.5 7l227 3l7 35 q5 25 8.5 47.5t3.5 41.5q0 89 -52 132t-144 43q-48 0 -89.5 -7.5t-74.5 -26.5t-58 -52t-41 -83l-174 29q18 60 50.5 110.5t85.5 87t129 56.5t182 20q87 0 154.5 -21.5t113.5 -60t70 -91t24 -116.5q0 -31 -5 -73.5t-13 -80.5l-73 -370q-5 -22 -8 -44.5t-3 -42.5 q0 -36 19.5 -53.5t60.5 -17.5q15 0 30 2t29 5zM793 525l-195 -4q-39 -1 -81.5 -4t-83 -12t-77.5 -24.5t-64 -42.5t-43.5 -65.5t-16.5 -92.5q0 -31 10.5 -61t32 -53t53.5 -37t75 -14q85 0 148.5 29t109 72.5t71.5 94t34 92.5z" />
<glyph unicode="&#x431;" horiz-adv-x="1128" d="M648 877q-57 0 -112.5 -14.5t-104 -53.5t-87.5 -105t-63 -169q-7 -28 -9 -63.5t-2 -63.5q0 -80 18 -136t51 -92t79 -52.5t99 -16.5q65 0 120 18t99 59t76 108.5t50 165.5q8 43 12.5 80.5t4.5 70.5q0 71 -16.5 121.5t-47.5 82t-73 46t-94 14.5zM686 1006q182 0 280 -98.5 t98 -284.5q0 -37 -4.5 -76t-11.5 -82q-25 -130 -74 -222t-118 -150.5t-156.5 -85.5t-188.5 -27q-95 0 -170.5 28.5t-128.5 89.5t-81 155t-28 226q0 55 8.5 129.5t24.5 151.5q36 167 89 279.5t132.5 186.5t190 117t260.5 70q57 11 107.5 19.5t96.5 15t89.5 12.5t86.5 12 l-31 -158q-86 -11 -167 -22.5t-174 -27.5q-81 -14 -146 -28t-117.5 -36t-94 -56t-74.5 -87t-59.5 -128.5t-50.5 -181.5q30 55 68.5 102t89 82t114 55t140.5 20z" />
<glyph unicode="&#x432;" horiz-adv-x="1047" d="M988 823q0 -63 -22.5 -109t-60 -78t-86 -52t-100.5 -28l-1 -7q43 -7 83 -24.5t70.5 -46t48.5 -68.5t18 -91q0 -88 -35 -151.5t-98 -105t-151.5 -62t-193.5 -20.5q-110 0 -217 10.5t-205 30.5l114 605q24 129 69 214t106 136.5t137 72.5t164 21q83 0 150 -15.5t113.5 -47 t71.5 -77.5t25 -107zM234 130q24 -4 54 -7t61 -6t61.5 -4.5t55.5 -1.5q132 0 208.5 49t76.5 155q0 78 -61 124t-191 46h-195zM521 612q138 0 208.5 46.5t70.5 142.5q0 63 -45 100.5t-136 37.5q-44 0 -86.5 -10.5t-80 -41t-68 -86.5t-48.5 -148l-8 -41h193z" />
<glyph unicode="&#x433;" horiz-adv-x="989" d="M567 943q-54 0 -96.5 -8.5t-73 -26t-52.5 -45.5t-36 -67l-147 47q37 115 141.5 176.5t277.5 61.5q98 0 167 -21t113 -57.5t64 -85t20 -102.5q0 -68 -25.5 -117.5t-75.5 -86.5t-122.5 -65.5t-166.5 -55.5q-81 -24 -143 -44t-104 -44.5t-64 -55.5t-22 -77 q0 -77 55.5 -113.5t167.5 -36.5q62 0 108.5 9t80 28t56.5 48.5t38 68.5l144 -54q-37 -116 -144.5 -177.5t-287.5 -61.5q-119 0 -195.5 25t-122 66t-62.5 91.5t-17 101.5q0 75 29 129.5t83.5 95t134 71.5t180.5 58q99 27 158.5 50t91 46t41.5 48t10 54q0 26 -10 49t-34 40 t-63.5 27.5t-96.5 10.5z" />
<glyph unicode="&#x434;" horiz-adv-x="1109" d="M482 -20q-100 0 -177.5 31t-130 87.5t-80.5 135.5t-28 175q0 29 2.5 62t8.5 66q24 123 71.5 211.5t111.5 145.5t142 83.5t163 26.5q49 0 96.5 -10t89 -29t75 -45.5t57.5 -60.5q3 38 3 72q0 106 -25 181.5t-69 124t-104.5 71t-129.5 22.5q-37 0 -76 -8.5t-66 -19.5 l-42 121q37 14 85.5 23t95.5 9q240 0 366 -148t126 -445q0 -142 -32 -325q-29 -150 -77 -255.5t-114.5 -172.5t-152 -98t-189.5 -31zM491 111q94 0 154.5 34t97.5 90t56.5 126t32.5 141q11 57 11 114q0 49 -11 96.5t-39.5 84t-76.5 58.5t-123 22q-69 0 -123 -20.5t-95 -64 t-70 -112t-46 -164.5q-6 -34 -9.5 -67t-3.5 -63q0 -64 14.5 -115t44.5 -86.5t76.5 -54.5t109.5 -19z" />
<glyph unicode="&#x435;" d="M251 493q-5 -27 -6.5 -55t-2.5 -56q0 -130 65 -199.5t197 -69.5q55 0 100 14t81.5 38t64.5 56t47 67l135 -62q-25 -44 -60 -87.5t-87.5 -79t-126 -57.5t-175.5 -22q-98 0 -175.5 28t-131 81.5t-81 131t-27.5 176.5q0 155 41.5 281.5t115.5 215.5t174.5 137.5t217.5 48.5 q108 0 187.5 -28.5t132.5 -79.5t79 -122t26 -156q0 -21 -1.5 -45.5t-4.5 -51t-7.5 -53.5t-10.5 -51h-767zM862 628q2 20 3 37t1 34q0 64 -17.5 111.5t-50 78.5t-77.5 46t-100 15q-47 0 -99 -14.5t-99.5 -50.5t-86.5 -98.5t-62 -158.5h588z" />
<glyph unicode="&#x436;" horiz-adv-x="1380" d="M597 475q-26 0 -53.5 6t-43.5 14l-377 -495h-196l463 587q-12 12 -35 47.5t-52 101.5l-148 324h171l99 -234q33 -74 56 -119.5t44 -70t43 -32.5t51 -8l91 464h176l-90 -464q29 0 53.5 8t54 32.5t69.5 70t101 119.5l191 234h188l-264 -318q-55 -66 -96.5 -108.5 t-66.5 -59.5l230 -574h-182l-182 496q-10 -4 -25 -7.5t-32 -6.5t-33 -5t-29 -2l-93 -475h-176z" />
<glyph unicode="&#x437;" horiz-adv-x="932" d="M375 -20q-165 0 -263 60t-125 189l165 43q9 -36 27 -66t46.5 -51t68.5 -32t94 -11q46 0 88 10t74 33.5t50.5 61.5t18.5 92q0 49 -20 83.5t-58 56.5t-93.5 32t-126.5 10l28 131q66 0 128.5 7.5t111 28t78.5 58t30 96.5q0 68 -49 102.5t-130 34.5q-35 0 -69 -6.5t-63.5 -22 t-53 -43t-36.5 -69.5l-162 19q21 70 57 118t86.5 78.5t115 43.5t140.5 13q79 0 143 -18.5t109 -52.5t69 -80.5t24 -102.5q0 -67 -28 -116.5t-71.5 -83t-95.5 -51t-100 -22.5v-4q53 -6 94.5 -27.5t70 -54.5t44 -74t15.5 -86q0 -75 -29 -135t-84 -103t-135.5 -66t-183.5 -23z " />
<glyph unicode="&#x438;" d="M407 1060l-124 -632q-8 -38 -12.5 -77.5t-4.5 -69.5q0 -77 41 -120t134 -43q63 0 118 25t100.5 70.5t77 109.5t47.5 143l116 594h176l-163 -834q-7 -33 -13 -69.5t-11.5 -69.5t-9 -56.5t-4.5 -30.5h-166q0 5 2.5 26.5t7 49.5t9 57t8.5 48h-3q-33 -46 -68.5 -83t-78 -63 t-94 -40t-117.5 -14q-145 0 -218 71.5t-73 207.5q0 35 6.5 79t14.5 81l124 640h178z" />
<glyph unicode="&#x439;" d="M407 1060l-124 -632q-8 -38 -12.5 -77.5t-4.5 -69.5q0 -77 41 -120t134 -43q63 0 118 25t100.5 70.5t77 109.5t47.5 143l116 594h176l-163 -834q-7 -33 -13 -69.5t-11.5 -69.5t-9 -56.5t-4.5 -30.5h-166q0 5 2.5 26.5t7 49.5t9 57t8.5 48h-3q-33 -46 -68.5 -83t-78 -63 t-94 -40t-117.5 -14q-145 0 -218 71.5t-73 207.5q0 35 6.5 79t14.5 81l124 640h178zM668 1176q-71 0 -126.5 15.5t-98.5 45.5t-75.5 74.5t-55.5 102.5l144 60q18 -41 39.5 -74.5t50.5 -57t66 -35.5t85 -12q51 0 93 14.5t75.5 40t58 60.5t40.5 74l101 -36q-16 -49 -48.5 -98 t-81.5 -87.5t-115.5 -62.5t-151.5 -24z" />
<glyph unicode="&#x43a;" horiz-adv-x="947" d="M239 1060h177l-91 -464q33 0 62 8t63.5 32.5t78 70t104.5 119.5l191 234h188l-264 -318q-55 -66 -96.5 -108.5t-66.5 -59.5l230 -574h-182l-185 488q-30 -11 -66.5 -16t-81.5 -5l-90 -467h-177z" />
<glyph unicode="&#x43b;" horiz-adv-x="1131" d="M708 0l180 932h-326q-67 -201 -118.5 -349.5t-94 -254.5t-79.5 -173.5t-75.5 -106t-82 -53.5t-98.5 -15q-34 0 -63.5 5.5t-46.5 12.5l31 127q11 -4 30 -9t38 -5q26 0 49.5 15t49 54.5t55 107.5t68 173t88.5 253t115 346h663l-206 -1060h-177z" />
<glyph unicode="&#x43c;" horiz-adv-x="1375" d="M1338 1060l-206 -1060h-170l138 710q4 21 10.5 50.5t13.5 61t14.5 61t13.5 51.5l-492 -934h-146l-136 932q-3 -25 -7.5 -54.5t-9.5 -59.5t-10 -58t-10 -50l-137 -710h-171l206 1060h260l82 -570q6 -41 10.5 -91.5t7.5 -100.5t4.5 -93.5t1.5 -72.5q28 79 62 154t61 127 l344 647h266z" />
<glyph unicode="&#x43d;" horiz-adv-x="1104" d="M416 1060l-88 -448h474l87 448h176l-206 -1060h-176l93 483h-473l-93 -483h-177l206 1060h177z" />
<glyph unicode="&#x43e;" d="M1053 669q0 -51 -6 -102.5t-20 -108.5q-29 -130 -81.5 -221t-123 -148t-157 -83t-184.5 -26q-94 0 -170.5 29t-131 84.5t-84 135.5t-29.5 182q1 46 5 95t16 102q29 123 79 211.5t118.5 146.5t155 85.5t189.5 27.5q104 0 183 -27.5t132.5 -80.5t81 -129t27.5 -173z M870 669q0 76 -16.5 129t-48.5 86.5t-77 49.5t-101 16q-52 0 -104.5 -12.5t-100 -49.5t-86.5 -106t-66 -182q-12 -54 -17.5 -102.5t-5.5 -89.5q0 -81 18.5 -137.5t51.5 -92t77.5 -51.5t97.5 -16t104.5 11.5t97.5 49.5t84.5 107.5t65.5 184.5q14 58 19 107t7 98z" />
<glyph unicode="&#x43f;" horiz-adv-x="1104" d="M1066 1060l-206 -1060h-176l180 932h-474l-180 -932h-177l206 1060h827z" />
<glyph unicode="&#x440;" d="M543 -20q-121 0 -197 51t-107 143h-5q0 -2 -2 -19t-6 -42.5t-9 -56t-11 -58.5l-81 -414h-175l244 1260q8 38 14 73.5t10 64t6.5 49.5t3.5 29h164q0 -7 -1 -25t-3.5 -40t-5.5 -46.5t-7 -45.5h4q36 46 72.5 79t78 55t89.5 32.5t107 10.5q79 0 139.5 -24.5t101.5 -69.5 t63 -109.5t22 -143.5q0 -49 -4.5 -107.5t-16.5 -119.5q-27 -139 -70 -238.5t-103.5 -163.5t-139 -94t-175.5 -30zM675 944q-63 0 -119 -19t-104 -64.5t-85 -122.5t-59 -195q-19 -96 -19 -174q0 -62 16.5 -110.5t47.5 -81.5t74.5 -49.5t96.5 -16.5q61 0 110 18t88.5 62.5 t70 119.5t52.5 189q22 118 22 202q0 120 -46 181t-146 61z" />
<glyph unicode="&#x441;" horiz-adv-x="1003" d="M460 120q54 0 98.5 16t78.5 45.5t60.5 71t45.5 92.5l153 -48q-28 -74 -67.5 -132t-94 -99.5t-124 -63.5t-154.5 -22q-101 0 -175 30.5t-121.5 85t-70.5 129t-23 162.5q0 39 3.5 85t11.5 91q22 108 56 188.5t75.5 138t90 94.5t100 58t105 29.5t104.5 8.5q88 0 154 -22.5 t112 -63.5t72 -98.5t31 -127.5l-173 -24q-3 44 -17 80t-39 62t-61 41t-84 15q-68 0 -122 -19.5t-96.5 -64t-73 -115.5t-50.5 -174q-9 -47 -14 -99t-5 -89q0 -124 50.5 -192.5t163.5 -68.5z" />
<glyph unicode="&#x442;" horiz-adv-x="1671" d="M647 0l121 621q4 20 8.5 43.5t8 47t6 44.5t2.5 36q0 73 -37.5 112t-121.5 39q-56 0 -106.5 -25t-90.5 -70.5t-69.5 -111t-43.5 -144.5l-115 -592h-176l163 834q7 33 13.5 70t11.5 69.5t8.5 56.5t4.5 30h167q0 -5 -3 -26.5t-7.5 -49.5t-9 -56.5t-8.5 -48.5h3 q30 46 61 83.5t68.5 63.5t83 39.5t103.5 13.5q118 0 188 -58.5t83 -168.5q32 49 65 90t74 72t90.5 48t111.5 17q133 0 204 -71.5t71 -206.5q0 -36 -6.5 -80t-14.5 -81l-124 -640h-175l122 621q4 20 8.5 43.5t7.5 47t5.5 44.5t2.5 36q0 73 -37 112t-121 39 q-56 0 -106.5 -24.5t-91 -69.5t-69.5 -110t-43 -144l-116 -595h-174z" />
<glyph unicode="&#x443;" horiz-adv-x="1003" d="M491 0q-54 -93 -104 -169.5t-105 -131.5t-119 -85t-147 -30q-33 0 -66.5 3t-63.5 10l31 132q16 -3 37.5 -5.5t37.5 -2.5q93 0 164 62.5t140 182.5l26 46l-212 1048h179l110 -586q6 -31 12.5 -72t12.5 -82t10.5 -75.5t5.5 -52.5q10 22 25.5 52.5t34.5 65.5t39.5 71.5 t38.5 71.5l331 607h195z" />
<glyph unicode="&#x444;" horiz-adv-x="1676" d="M364 -21q-72 0 -127 24.5t-92.5 70t-57 109.5t-19.5 143q0 44 3.5 105t14.5 123q26 139 65.5 238.5t95.5 163t129 93.5t163 30q112 0 182.5 -51t98.5 -143h5q2 10 6 32.5t8.5 47.5t8.5 47.5t5 31.5l80 410h176l-107 -551h2q32 46 65 79t71 55t81.5 32.5t96.5 10.5 q71 0 126 -24.5t92.5 -69.5t57 -109.5t19.5 -143.5q0 -49 -4 -107.5t-15 -119.5q-24 -139 -64 -238.5t-96 -163.5t-128 -94t-162 -30q-112 0 -182 51t-99 143h-5q0 -2 -1.5 -19t-5.5 -42.5t-9.5 -56t-11.5 -58.5l-80 -414h-176l111 573h-5q-32 -46 -65.5 -79.5t-71.5 -55.5 t-82.5 -32.5t-96.5 -10.5zM423 116q56 0 106.5 18.5t93 64t75.5 123t54 194.5q18 96 18 174q0 64 -15 112t-43 80.5t-67 49.5t-86 17q-54 0 -98.5 -18.5t-79.5 -63t-62 -119.5t-47 -188q-20 -116 -20 -202q0 -121 41 -181.5t130 -60.5zM1257 944q-56 0 -106 -19t-92.5 -64.5 t-75 -122.5t-53.5 -195q-9 -50 -13 -93t-4 -81q0 -127 57.5 -192.5t152.5 -65.5q54 0 97.5 18t79 62.5t62.5 119.5t46 189q21 116 21 202q0 120 -41 181t-131 61z" />
<glyph unicode="&#x445;" horiz-adv-x="1003" d="M692 0l-205 435l-372 -435h-195l482 545l-259 515h185l189 -412l343 412h202l-459 -513l275 -547h-186z" />
<glyph unicode="&#x446;" horiz-adv-x="1147" d="M410 1060l-124 -632q-8 -38 -12.5 -77.5t-4.5 -69.5q0 -77 41 -120t134 -43q63 0 118 25t100.5 70.5t77 109.5t47.5 143l116 594h176l-163 -834q-5 -23 -9 -48t-9 -50h144l-103 -528h-160l79 400h-147q0 5 3 26.5t7.5 49.5t9 57t8.5 48h-3q-33 -46 -68.5 -83t-78 -63 t-94 -40t-117.5 -14q-145 0 -218 71.5t-73 207.5q0 35 6.5 79t14.5 81l124 640h178z" />
<glyph unicode="&#x447;" horiz-adv-x="1038" d="M391 1060l-66 -337q-2 -9 -4 -21.5t-3.5 -26t-2.5 -25.5t-1 -20q0 -64 37.5 -93t114.5 -29q34 0 64.5 3t61 8t63 14t70.5 21l99 506h177l-206 -1060h-177l88 452q-81 -41 -154 -62.5t-153 -21.5q-61 0 -110 15.5t-83 47t-53 78t-19 107.5q0 11 1 26t3 30t4.5 30.5 t5.5 28.5l67 329h176z" />
<glyph unicode="&#x448;" horiz-adv-x="1666" d="M1016 1060l-121 -621q-4 -19 -8.5 -42.5t-8 -47t-6 -45t-2.5 -35.5q0 -74 37.5 -112.5t121.5 -38.5q56 0 106.5 25t90.5 70.5t69.5 110.5t43.5 144l115 592h176l-163 -834q-7 -33 -13.5 -69.5t-11.5 -69.5t-8.5 -56.5t-4.5 -30.5h-167q0 5 3 26.5t7.5 49.5t9 57t8.5 48 h-3q-30 -46 -61 -83t-68.5 -63t-83 -40t-103.5 -14q-118 0 -188 58.5t-83 169.5q-31 -48 -64.5 -90t-74.5 -72.5t-90.5 -48t-111.5 -17.5q-133 0 -204 71.5t-71 207.5q0 35 6.5 79t14.5 81l124 640h175l-122 -621q-4 -19 -8 -42.5t-7.5 -47t-6 -45t-2.5 -35.5 q0 -74 37 -112.5t121 -38.5q56 0 106.5 24.5t91 69.5t69.5 109.5t43 144.5l116 594h174z" />
<glyph unicode="&#x449;" horiz-adv-x="1708" d="M1272 0q0 5 3 26.5t7.5 49.5t9 57t7.5 48h-2q-30 -46 -62 -83t-70 -63t-84.5 -40t-104.5 -14q-118 0 -188 58.5t-83 169.5q-31 -48 -64.5 -90t-74.5 -72.5t-90.5 -48t-111.5 -17.5q-133 0 -206.5 71.5t-73.5 207.5q0 35 6.5 79t14.5 81l124 640h175l-122 -621 q-4 -19 -8 -42.5t-7.5 -47t-6 -45t-2.5 -35.5q0 -74 39.5 -112.5t123.5 -38.5q56 0 106.5 24.5t91 69.5t69.5 109.5t43 144.5l116 594h174l-121 -621q-4 -19 -8.5 -42.5t-8 -47t-6 -45t-2.5 -35.5q0 -74 37.5 -112.5t121.5 -38.5q56 0 107 25t92.5 70.5t71.5 110.5t43 144 l116 592h176l-163 -834q-5 -23 -9 -48t-9 -50h144l-103 -528h-159l78 400h-147z" />
<glyph unicode="&#x44a;" horiz-adv-x="1246" d="M1129 328q0 -89 -33 -154.5t-94.5 -108.5t-150.5 -64t-200 -21q-110 0 -217.5 10.5t-205.5 30.5l177 911h-340l25 128h517l-88 -448h181q96 0 175.5 -16t135.5 -49.5t87 -87.5t31 -131zM425 130q24 -4 54 -7t61 -6t61.5 -4.5t55.5 -1.5q132 0 208.5 49t76.5 155 q0 40 -14 71.5t-44 54t-78 33.5t-116 11h-195z" />
<glyph unicode="&#x44b;" horiz-adv-x="1476" d="M1054 0l206 1060h177l-206 -1060h-177zM938 328q0 -89 -33 -154.5t-94.5 -108.5t-150.5 -64t-200 -21q-110 0 -217.5 10.5t-205.5 30.5l202 1039h177l-88 -448h181q96 0 175 -16t135.5 -49.5t87.5 -87.5t31 -131zM234 130q24 -4 54 -7t61 -6t61.5 -4.5t55.5 -1.5 q132 0 208.5 49t76.5 155q0 40 -14 71.5t-44.5 54t-78.5 33.5t-115 11h-195z" />
<glyph unicode="&#x44c;" horiz-adv-x="1055" d="M938 328q0 -89 -33 -154.5t-94.5 -108.5t-150.5 -64t-200 -21q-110 0 -217.5 10.5t-205.5 30.5l202 1039h177l-88 -448h181q96 0 175 -16t135.5 -49.5t87.5 -87.5t31 -131zM234 130q24 -4 54 -7t61 -6t61.5 -4.5t55.5 -1.5q132 0 208.5 49t76.5 155q0 40 -14 71.5 t-44.5 54t-78.5 33.5t-115 11h-195z" />
<glyph unicode="&#x44d;" horiz-adv-x="986" d="M536 1079q78 0 149.5 -21t125 -69t85 -126t31.5 -192q0 -74 -11 -154t-36.5 -157t-67 -145.5t-100.5 -121t-138 -83t-181 -30.5q-173 0 -268 81.5t-116 236.5l162 27q9 -56 29.5 -97t50.5 -67t68 -38t81 -12q71 0 125 24.5t94 71t65.5 113.5t39.5 152h-390l25 129h385 q2 20 4 43t2 43q0 131 -57.5 196.5t-162.5 65.5q-103 0 -170 -46.5t-94 -145.5l-164 31q34 140 147.5 215.5t286.5 75.5z" />
<glyph unicode="&#x44e;" horiz-adv-x="1509" d="M1446 669q0 -51 -5.5 -102.5t-17.5 -108.5q-27 -130 -76.5 -221t-116 -148t-147 -83t-173.5 -26q-88 0 -160 29t-123 84.5t-79 135.5t-28 182q0 34 3 72h-220l-93 -483h-177l206 1060h177l-88 -448h214q26 122 73 210t111.5 145t146 84.5t177.5 27.5q97 0 171 -27.5 t124.5 -80.5t75.5 -129t25 -173zM1261 669q0 76 -15 129t-43 86.5t-68 49.5t-90 16q-46 0 -93 -12.5t-89.5 -49.5t-77.5 -106t-59 -182q-11 -54 -15.5 -102.5t-4.5 -89.5q0 -81 16.5 -137.5t45.5 -92t69 -51.5t87 -16t93 11.5t87.5 49.5t75.5 107.5t58 184.5q12 58 16.5 107 t6.5 98z" />
<glyph unicode="&#x44f;" horiz-adv-x="1072" d="M509 449l-353 -449h-203l378 462q-20 5 -53 24t-64 52.5t-53.5 82t-22.5 114.5q0 95 36 158t99 100t148.5 52t183.5 15h427l-206 -1060h-176l87 449h-228zM831 936h-220q-67 0 -120 -9.5t-89.5 -32.5t-56.5 -62t-20 -99q0 -32 11.5 -61.5t34 -51.5t56 -35.5t77.5 -13.5 h256z" />
<glyph unicode="&#x451;" d="M251 493q-5 -27 -6.5 -55t-2.5 -56q0 -130 65 -199.5t197 -69.5q55 0 100 14t81.5 38t64.5 56t47 67l135 -62q-25 -44 -60 -87.5t-87.5 -79t-126 -57.5t-175.5 -22q-98 0 -175.5 28t-131 81.5t-81 131t-27.5 176.5q0 155 41.5 281.5t115.5 215.5t174.5 137.5t217.5 48.5 q108 0 187.5 -28.5t132.5 -79.5t79 -122t26 -156q0 -21 -1.5 -45.5t-4.5 -51t-7.5 -53.5t-10.5 -51h-767zM862 628q2 20 3 37t1 34q0 64 -17.5 111.5t-50 78.5t-77.5 46t-100 15q-47 0 -99 -14.5t-99.5 -50.5t-86.5 -98.5t-62 -158.5h588zM747 1195l34 180h169l-34 -180 h-169zM370 1195l35 180h171l-34 -180h-172z" />
<glyph unicode="&#x452;" d="M571 -416q-33 0 -67 4t-59 9l22 133q13 -1 37.5 -4t44.5 -3q58 0 86.5 41t46.5 131l135 698q8 38 13 77.5t5 69.5q0 77 -41 120.5t-134 43.5q-63 0 -118.5 -25t-100.5 -71t-77 -110t-47 -143l-108 -555h-176l230 1182h-129l25 128h128l29 144h176l-28 -144h295l-25 -128 h-295l-28 -145q-6 -33 -13.5 -65t-14.5 -59t-11.5 -46.5t-6.5 -26.5h3q33 46 68 83t78 63t94.5 40t116.5 14q145 0 218 -71.5t73 -207.5q0 -35 -6 -79t-14 -81l-143 -732q-12 -61 -31 -113t-51.5 -90t-81 -60t-118.5 -22z" />
<glyph unicode="&#x453;" horiz-adv-x="758" d="M770 1060l-24 -128h-358l-179 -932h-177l204 1060h534zM414 1177l2 20l248 281h213l-5 -29l-366 -272h-92z" />
<glyph unicode="&#x454;" horiz-adv-x="994" d="M456 120q54 0 96 16.5t75.5 47t59 71.5t46.5 90l151 -52q-26 -73 -65.5 -131t-93 -98t-121.5 -62t-153 -22q-100 0 -172.5 30.5t-120 85t-70 129t-22.5 162.5q0 39 3.5 85t11.5 91q22 108 55 188.5t74.5 138t89 94.5t99 58t104.5 29.5t104 8.5q85 0 151 -22.5 t111.5 -63.5t71 -98.5t30.5 -127.5l-173 -24q-3 44 -17 80t-38.5 62t-59.5 41t-82 15q-64 0 -116 -18t-92.5 -59t-71 -105.5t-51.5 -158.5h395l-25 -129h-389q-3 -25 -4.5 -51t-1.5 -46q0 -125 50 -190t161 -65z" />
<glyph unicode="&#x455;" horiz-adv-x="1003" d="M889 311q0 -84 -33.5 -146t-94.5 -103t-148.5 -61.5t-196.5 -20.5q-91 0 -159.5 16t-118 46t-82 74.5t-51.5 102.5l144 54q15 -39 38 -70t56.5 -52t80 -31.5t108.5 -10.5q63 0 115.5 10t90 32.5t58.5 58t21 85.5q0 39 -18.5 67t-52.5 49t-82.5 39t-107.5 37 q-64 21 -121.5 45.5t-101 58.5t-69.5 80.5t-26 109.5q0 80 35 136.5t94 92t138 51.5t167 16q81 0 147.5 -13.5t116.5 -43.5t82.5 -77.5t43.5 -115.5l-159 -24q-22 77 -81.5 111.5t-160.5 34.5q-52 0 -98 -8t-80 -25.5t-54 -46t-20 -68.5q0 -41 18.5 -67.5t52.5 -47.5 t81.5 -37t105.5 -35q56 -17 113.5 -40.5t103.5 -58.5t75.5 -84.5t29.5 -119.5z" />
<glyph unicode="&#x456;" horiz-adv-x="445" d="M281 1286l34 168h176l-33 -168h-177zM32 0l206 1060h177l-207 -1060h-176z" />
<glyph unicode="&#x457;" horiz-adv-x="445" d="M42 0l206 1060h176l-206 -1060h-176zM458 1195l34 180h169l-34 -180h-169zM81 1195l35 180h171l-34 -180h-172z" />
<glyph unicode="&#x458;" horiz-adv-x="445" d="M283 1286l33 168h176l-32 -168h-177zM-98 -416q-33 0 -67 4t-59 9l22 133q13 -1 37.5 -4t43.5 -3q58 0 87.5 41t46.5 131l226 1165h177l-233 -1191q-11 -61 -30.5 -113t-51.5 -90t-80.5 -60t-118.5 -22z" />
<glyph unicode="&#x459;" horiz-adv-x="1826" d="M1709 328q0 -89 -33 -154.5t-94.5 -108.5t-150 -64t-200.5 -21q-110 0 -217.5 10.5t-205.5 30.5l177 911h-423q-67 -201 -118.5 -349.5t-94 -254.5t-79.5 -173.5t-75.5 -106t-82 -53.5t-98.5 -15q-34 0 -63.5 5.5t-46.5 12.5l31 127q11 -4 30 -9t38 -5q26 0 49.5 15 t49 54.5t55 107.5t68 173t88.5 253t115 346h759l-87 -448h180q96 0 175.5 -16t135.5 -49.5t87 -87.5t31 -131zM1005 130q24 -4 54 -7t61.5 -6t61.5 -4.5t55 -1.5q132 0 208.5 49t76.5 155q0 40 -14 71.5t-44 54t-78 33.5t-116 11h-195z" />
<glyph unicode="&#x45a;" horiz-adv-x="1661" d="M1021 1060l-87 -448h180q96 0 175.5 -16t136 -49.5t87.5 -87.5t31 -131q0 -89 -33 -154.5t-95 -108.5t-150.5 -64t-200.5 -21q-109 0 -216.5 10.5t-205.5 30.5l89 462h-429l-93 -483h-177l206 1060h177l-88 -448h429l87 448h177zM840 130q23 -4 53 -7t61.5 -6t62 -4.5 t54.5 -1.5q132 0 208.5 49t76.5 155q0 40 -13.5 71.5t-44 54t-78.5 33.5t-116 11h-195z" />
<glyph unicode="&#x45b;" d="M368 840q33 46 68 83t78 63t94.5 40t116.5 14q145 0 218 -71.5t73 -207.5q0 -35 -6 -79t-14 -81l-117 -601h-177l115 593q8 38 13 77.5t5 69.5q0 77 -41 120.5t-134 43.5q-63 0 -118.5 -25t-100.5 -71t-77 -110t-47 -143l-108 -555h-176l230 1182h-129l25 128h128l29 144 h176l-28 -144h295l-25 -128h-295l-28 -145q-6 -33 -13.5 -65t-14.5 -59t-11.5 -46.5t-6.5 -26.5h3z" />
<glyph unicode="&#x45c;" horiz-adv-x="947" d="M239 1060h177l-91 -464q33 0 62 8t63.5 32.5t78 70t104.5 119.5l191 234h188l-264 -318q-55 -66 -96.5 -108.5t-66.5 -59.5l230 -574h-182l-185 488q-30 -11 -66.5 -16t-81.5 -5l-90 -467h-177zM492 1177l2 20l248 281h213l-5 -29l-366 -272h-92z" />
<glyph unicode="&#x45e;" horiz-adv-x="1003" d="M491 0q-54 -93 -104 -169.5t-105 -131.5t-119 -85t-147 -30q-33 0 -66.5 3t-63.5 10l31 132q16 -3 37.5 -5.5t37.5 -2.5q93 0 164 62.5t140 182.5l26 46l-212 1048h179l110 -586q6 -31 12.5 -72t12.5 -82t10.5 -75.5t5.5 -52.5q10 22 25.5 52.5t34.5 65.5t39.5 71.5 t38.5 71.5l331 607h195zM630 1176q-71 0 -126.5 15.5t-98.5 45.5t-75.5 74.5t-55.5 102.5l144 60q18 -41 39.5 -74.5t50.5 -57t66 -35.5t85 -12q51 0 93 14.5t75.5 40t58 60.5t40.5 74l101 -36q-16 -49 -48.5 -98t-81.5 -87.5t-115.5 -62.5t-151.5 -24z" />
<glyph unicode="&#x45f;" d="M514 -67l-70 -321h-160l85 321h145zM407 1060l-124 -632q-8 -38 -12.5 -77.5t-4.5 -69.5q0 -77 41 -120t134 -43q63 0 118 25t100.5 70.5t77 109.5t47.5 143l116 594h176l-163 -834q-7 -33 -13 -69.5t-11.5 -69.5t-9 -56.5t-4.5 -30.5h-166q0 5 2.5 26.5t7 49.5t9 57 t8.5 48h-3q-33 -46 -68.5 -83t-78 -63t-94 -40t-117.5 -14q-145 0 -218 71.5t-73 207.5q0 35 6.5 79t14.5 81l124 640h178z" />
<glyph unicode="&#x490;" horiz-adv-x="987" d="M923 1381l79 403h176l-108 -557l-583 1l-238 -1227h-187l267 1380h594z" />
<glyph unicode="&#x491;" horiz-adv-x="681" d="M210 0h-177l206 1060h396l75 394h160l-101 -522h-379z" />
<glyph unicode="&#x2000;" horiz-adv-x="903" />
<glyph unicode="&#x2001;" horiz-adv-x="1807" />
<glyph unicode="&#x2002;" horiz-adv-x="903" />
<glyph unicode="&#x2003;" horiz-adv-x="1807" />
<glyph unicode="&#x2004;" horiz-adv-x="602" />
<glyph unicode="&#x2005;" horiz-adv-x="451" />
<glyph unicode="&#x2006;" horiz-adv-x="301" />
<glyph unicode="&#x2007;" horiz-adv-x="301" />
<glyph unicode="&#x2008;" horiz-adv-x="225" />
<glyph unicode="&#x2009;" horiz-adv-x="361" />
<glyph unicode="&#x200a;" horiz-adv-x="100" />
<glyph unicode="&#x2010;" horiz-adv-x="668" d="M103 455l30 157h490l-30 -157h-490z" />
<glyph unicode="&#x2011;" horiz-adv-x="668" d="M103 455l30 157h490l-30 -157h-490z" />
<glyph unicode="&#x2012;" horiz-adv-x="668" d="M103 455l30 157h490l-30 -157h-490z" />
<glyph unicode="&#x2013;" d="M-13 442l26 134h1115l-26 -134h-1115z" />
<glyph unicode="&#x2014;" horiz-adv-x="2007" d="M-13 442l26 134h2007l-27 -134h-2006z" />
<glyph unicode="&#x2018;" horiz-adv-x="445" d="M195 933l27 143q10 51 23.5 93t30.5 79t38 69t47 64h118q-57 -64 -93.5 -128.5t-49.5 -128.5h87l-37 -191h-191z" />
<glyph unicode="&#x2019;" horiz-adv-x="445" d="M445 1239q-10 -51 -23 -94t-30 -79.5t-37.5 -69t-45.5 -63.5h-121q56 64 93 128.5t49 126.5h-86l37 193h191z" />
<glyph unicode="&#x201a;" horiz-adv-x="445" d="M251 51q-10 -52 -23 -94t-30 -79t-37.5 -69t-45.5 -64h-121q56 64 92.5 128.5t49.5 126.5h-86l37 193h191z" />
<glyph unicode="&#x201c;" horiz-adv-x="668" d="M470 933l28 143q10 51 23 93t29.5 79t37.5 69t46 64h120q-56 -64 -93 -128.5t-49 -128.5h86l-37 -191h-191zM145 933l27 143q10 51 23.5 93t30.5 79t38 69t47 64h118q-57 -64 -93.5 -128.5t-49.5 -128.5h87l-37 -191h-191z" />
<glyph unicode="&#x201d;" horiz-adv-x="668" d="M715 1239q-9 -51 -22.5 -94t-30 -79.5t-37.5 -69t-47 -63.5h-118q55 64 92 128.5t50 128.5h-87l38 191h190zM391 1239q-10 -51 -23 -94t-30 -79.5t-37.5 -69t-45.5 -63.5h-121q56 64 93 128.5t49 128.5h-86l37 191h191z" />
<glyph unicode="&#x201e;" horiz-adv-x="668" d="M512 49q-10 -52 -23.5 -94t-30 -79t-37.5 -69t-47 -64h-118q56 64 92.5 128.5t49.5 128.5h-86l37 191h190zM187 49q-10 -52 -23 -94t-29.5 -79t-37.5 -69t-46 -64h-121q56 64 93 128.5t50 128.5h-87l38 191h191z" />
<glyph unicode="&#x2022;" horiz-adv-x="702" d="M639 668q0 -56 -21.5 -106t-59.5 -87.5t-88 -59.5t-106 -22t-104.5 22t-85.5 59.5t-58 87.5t-21 106t21 105t58 85.5t85.5 57.5t104.5 21t106 -21t88 -57.5t59.5 -85.5t21.5 -105z" />
<glyph unicode="&#x2026;" horiz-adv-x="2007" d="M1454 0l42 215h191l-43 -215h-190zM820 0l42 215h189l-43 -215h-188zM182 0l42 215h192l-43 -215h-191z" />
<glyph unicode="&#x202f;" horiz-adv-x="361" />
<glyph unicode="&#x2039;" horiz-adv-x="668" d="M344 138l-260 358l12 62l400 363h154l-9 -39l-399 -365l260 -359l-2 -20h-156z" />
<glyph unicode="&#x203a;" horiz-adv-x="668" d="M171 138h-155l8 38l401 360l-258 365l3 20h152l260 -363l-12 -62z" />
<glyph unicode="&#x205f;" horiz-adv-x="451" />
<glyph unicode="&#x20ac;" d="M808 1257q-50 1 -103 -9.5t-103.5 -47.5t-96 -107.5t-81.5 -188.5h455l-64 -125h-421q-1 -5 -1.5 -8.5t-1.5 -7.5q-8 -38 -13.5 -74t-8.5 -71h454l-63 -126h-396q1 -84 16.5 -153t47 -117t78.5 -74t111 -26q104 0 169.5 51.5t106.5 146.5l149 -47q-27 -64 -66 -117.5 t-93 -92.5t-122.5 -60t-153.5 -21q-92 0 -168 31.5t-131.5 95t-87.5 159t-34 224.5h-167l62 126h110q3 35 8.5 71t13.5 74q1 4 2 9t2 7h-143l63 125h111q76 251 220.5 373.5t345.5 123.5q86 0 152.5 -21t115 -59.5t79 -94t42.5 -123.5l-167 -34q-26 89 -82 137.5t-146 50.5z " />
<glyph unicode="&#x2122;" horiz-adv-x="2007" d="M1657 621v417v190l-8 -22q-4 -8 -6.5 -17t-4.5 -14l-226 -554h-106l-159 405q-1 2 -4.5 12.5t-9 25t-12.5 32t-14 36.5q-16 43 -36 96q0 -10 -1 -20q-1 -8 -1 -16v-15v-556h-125v760h186l218 -552q2 -3 4.5 -10t4.5 -13l6 -18q20 50 35 90q7 18 13.5 34.5t12 30t9 22.5 t3.5 11l164 405h181v-760h-124zM565 1272v-651h-131v651h-250v109h637v-109h-256z" />
<glyph unicode="&#x25fc;" horiz-adv-x="1058" d="M0 1058h1058v-1058h-1058v1058z" />
<glyph horiz-adv-x="668" d="M411 1176q-71 0 -126.5 15.5t-98.5 45.5t-75.5 74.5t-55.5 102.5l144 60q18 -41 39.5 -74.5t50.5 -57t66 -35.5t85 -12q51 0 93 14.5t75.5 40t58 60.5t40.5 74l101 -36q-16 -49 -48.5 -98t-81.5 -87.5t-115.5 -62.5t-151.5 -24z" />
<glyph horiz-adv-x="589" d="M263 1499l3 20l255 221h203l-5 -28l-345 -213h-111z" />
<glyph horiz-adv-x="634" d="M618 1499l35 181h169l-34 -181h-170zM242 1499l34 181h172l-34 -181h-172z" />
</font>
</defs>
</svg>
