<?xml version="1.0" standalone="no"?>
<!DOCTYPE svg PUBLIC "-//W3C//DTD SVG 1.1//EN" "http://www.w3.org/Graphics/SVG/1.1/DTD/svg11.dtd" >
<svg xmlns="http://www.w3.org/2000/svg" xmlns:xlink="http://www.w3.org/1999/xlink" version="1.1">
<metadata></metadata>
<defs>
<font id="liberation_serifregular" horiz-adv-x="1157" >
<font-face units-per-em="2048" ascent="1638" descent="-410" />
<missing-glyph horiz-adv-x="578" />
<glyph horiz-adv-x="0" />
<glyph unicode="&#xd;" horiz-adv-x="578" />
<glyph unicode=" "  horiz-adv-x="578" />
<glyph unicode="&#x09;" horiz-adv-x="578" />
<glyph unicode="&#xa0;" horiz-adv-x="578" />
<glyph unicode="!" horiz-adv-x="770" d="M521 104q0 -28 -11 -53t-29 -43.5t-43.5 -29.5t-53.5 -11q-29 0 -54 11t-43 29.5t-29 43.5t-11 53t11 53.5t29 43.5t43 29t54 11q28 0 53.5 -11t43.5 -29t29 -43.5t11 -53.5zM261 1515h246l-70 -1075h-106z" />
<glyph unicode="&#x22;" horiz-adv-x="944" d="M579 1515h222l-70 -543h-84zM144 1515h222l-70 -543h-84z" />
<glyph unicode="#" d="M1115 592v-115h-293l-89 -477h-117l88 477h-350l-87 -477h-119l88 477h-194v115h217l65 347h-282v116h303l86 460h117l-85 -460h349l86 460h118l-86 -460h185v-116h-205l-65 -347h270zM377 592h350l64 347h-349z" />
<glyph unicode="$" d="M544 -23q-64 2 -129 9t-124 18.5t-109 25t-83 28.5v361h75l38 -216q20 -26 57 -49t83 -41.5t96 -30t96 -13.5v640q-52 18 -103 36.5t-98.5 42.5t-88 55.5t-70.5 74t-47 98.5t-17 130q0 82 30.5 149.5t86 116.5t134 79.5t173.5 38.5v146h92v-144q92 -3 184.5 -17 t162.5 -31v-316h-73l-33 186q-18 17 -45 31t-59 24.5t-67 18t-70 9.5v-539q53 -19 107 -38.5t104 -45t93.5 -58.5t76 -78t51 -104t18.5 -137q0 -97 -30.5 -177t-88 -139t-141.5 -95t-190 -44v-158h-92v153zM894 373q0 69 -20.5 116.5t-55.5 81.5t-82 58t-100 44v-598 q124 19 191 93.5t67 204.5zM310 1206q0 -62 18 -105t49.5 -74t74 -52.5t92.5 -42.5v501q-113 -15 -173.5 -75t-60.5 -152z" />
<glyph unicode="%" horiz-adv-x="1927" d="M497 -23h-124l1071 1562h126zM815 1124q0 -202 -91 -311t-282 -109q-182 0 -272.5 107.5t-90.5 312.5q0 201 91 308t279 107q179 0 272.5 -104t93.5 -311zM638 1124q0 79 -10 141t-32.5 104t-60.5 64t-93 22q-56 0 -92 -22t-57.5 -64t-30 -104t-8.5 -141 q0 -80 8.5 -142.5t30 -105.5t57.5 -66.5t92 -23.5q55 0 93 23.5t60.5 66.5t32.5 105.5t10 142.5zM1849 391q0 -203 -90.5 -312.5t-281.5 -109.5q-182 0 -273 107.5t-91 314.5q0 201 91.5 308t279.5 107q179 0 272 -104t93 -311zM1674 391q0 79 -10.5 140.5t-33 104 t-60.5 64.5t-93 22t-91.5 -22t-58 -64.5t-30 -104t-8.5 -140.5q0 -80 8.5 -143t30 -106t58 -66t91.5 -23t93 23t60.5 66t33 106t10.5 143z" />
<glyph unicode="&#x26;" horiz-adv-x="1800" d="M1118 1224q0 -84 -32.5 -142.5t-85 -102t-120.5 -75.5t-138 -59l477 -434q52 107 82.5 211.5t34.5 199.5l-161 30v60h517v-60l-157 -30q-14 -48 -34 -106t-46.5 -123t-61 -134t-79.5 -136l258 -235l186 -28v-60h-388l-194 175q-44 -39 -96.5 -75.5t-117 -63.5t-141.5 -43 t-171 -16q-280 0 -421 109t-141 316q0 105 35 178t89.5 123t120.5 81.5t128 55.5q-32 30 -62.5 68t-54.5 83.5t-39 100t-15 117.5q0 71 23.5 131.5t74 104.5t131 69t194.5 25q111 0 188.5 -24.5t125.5 -66.5t69.5 -100t21.5 -124zM680 75q73 0 134.5 13.5t112 37t93 54.5 t78.5 67l-564 517q-41 -18 -81.5 -44.5t-72 -67.5t-51 -98.5t-19.5 -138.5q0 -86 26 -150t74 -106.5t116 -63t154 -20.5zM490 1232q0 -61 17 -110.5t42.5 -87.5t56.5 -67.5t58 -50.5q58 22 105.5 46t80.5 59.5t51 85.5t18 125q0 217 -206 217q-119 0 -171 -54.5t-52 -162.5z " />
<glyph unicode="'" horiz-adv-x="416" d="M97 1515h223l-70 -543h-84z" />
<glyph unicode="(" horiz-adv-x="770" d="M320 558q0 -95 4.5 -189t17.5 -184t38.5 -174t67 -158t102.5 -138t146 -113v-95q-151 81 -262.5 175t-185.5 218t-110 284.5t-36 373.5q0 214 36 374t110 283t185.5 217t262.5 174v-95q-128 -74 -202.5 -178.5t-113.5 -229t-49.5 -263.5t-10.5 -282z" />
<glyph unicode=")" horiz-adv-x="770" d="M75 -493v95q84 49 145 113t103 138t67.5 158t38.5 174t17.5 184t4.5 189q0 143 -11 282t-50 263.5t-113.5 229t-201.5 178.5v95q150 -80 262 -174t186 -217t110 -283t36 -374q0 -213 -36 -373.5t-110 -284.5t-186 -218t-262 -175z" />
<glyph unicode="*" d="M113 1203l72 162l356 -219l-48 369h176l-53 -369l358 215l72 -160l-375 -111l375 -109l-72 -159l-358 212l53 -367h-176l48 370l-356 -220l-72 162l371 111z" />
<glyph unicode="+" horiz-adv-x="1305" d="M711 711v-482h-117v482h-479v115h479v481h117v-481h481v-115h-481z" />
<glyph unicode="," horiz-adv-x="578" d="M433 55q0 -66 -18.5 -129t-60 -116t-107 -96t-159.5 -70v87q103 33 151 80.5t48 109.5q0 20 -11.5 34t-28 25t-36.5 21t-37 24.5t-28.5 35t-11.5 52.5q0 61 38.5 93t98.5 32q32 0 61.5 -11.5t51.5 -35t35.5 -58t13.5 -78.5z" />
<glyph unicode="-" horiz-adv-x="770" d="M86 459v173h601v-173h-601z" />
<glyph unicode="." horiz-adv-x="578" d="M426 104q0 -28 -10.5 -53t-29 -43.5t-43.5 -29.5t-54 -11t-54 11t-43 29.5t-28.5 43.5t-10.5 53t10.5 53.5t28.5 43.5t43 29t54 11t54 -11t43.5 -29t29 -43.5t10.5 -53.5z" />
<glyph unicode="/" horiz-adv-x="642" d="M113 -23h-113l532 1549h111z" />
<glyph unicode="0" d="M1069 764q0 -190 -30 -337t-91 -247t-155 -151.5t-221 -51.5q-240 0 -362 201.5t-122 585.5q0 376 122 575.5t371 199.5q239 0 363.5 -197t124.5 -578zM861 764q0 163 -14 290.5t-47.5 215t-89.5 133.5t-138 46q-84 0 -137.5 -46t-84 -133.5t-42.5 -215t-12 -290.5 t12 -292.5t42.5 -219t84 -137.5t137.5 -48q82 0 138 48t89.5 137.5t47.5 219t14 292.5z" />
<glyph unicode="1" d="M709 90l309 -30v-60h-815v60l311 30v1237l-306 -110v60l442 251h59v-1438z" />
<glyph unicode="2" d="M1029 0h-927v166q114 106 209.5 190.5t171.5 157t133 139.5t95 139t56.5 156t18.5 189q0 147 -66.5 223.5t-217.5 76.5q-34 0 -67.5 -5t-64 -13.5t-57 -19t-46.5 -22.5l-40 -185h-74v292q85 20 168.5 34t180.5 14q248 0 373 -103.5t125 -291.5q0 -93 -24.5 -172 t-69.5 -152t-110.5 -143.5t-149 -146.5t-183.5 -161t-213 -188h779v-174z" />
<glyph unicode="3" d="M1067 412q0 -102 -36.5 -183t-104.5 -137t-168 -85.5t-228 -29.5q-112 0 -217 14t-190 35l-12 319h74l51 -213q21 -11 53.5 -22.5t70.5 -20t78 -13.5t74 -5q105 0 172 26t106 73t54 112t15 142q0 88 -25 146t-68.5 93.5t-101.5 52t-125 20.5l-162 9v92l162 11 q128 6 189 78.5t61 219.5q0 73 -15.5 128t-48 91t-85 54t-128.5 18q-34 0 -68.5 -5t-66 -13.5t-58.5 -19t-48 -22.5l-39 -185h-75v292q40 10 79.5 19t82.5 15t90.5 10t102.5 4q238 0 362 -91.5t124 -281.5q0 -71 -19.5 -132.5t-60 -109t-103 -79.5t-148.5 -45 q205 -23 302.5 -117.5t97.5 -263.5z" />
<glyph unicode="4" d="M915 333v-333h-194v333h-676v151l740 1039h130v-1028h206v-162h-206zM721 1258h-6l-542 -763h548v763z" />
<glyph unicode="5" d="M548 886q127 0 224 -25.5t162.5 -78.5t99 -135t33.5 -196q0 -107 -32.5 -194t-99 -149.5t-167.5 -96.5t-238 -34q-106 0 -201.5 12t-181.5 37l-13 319h75l51 -213q20 -11 49 -22.5t63 -20t70 -13.5t70 -5q105 0 172 26.5t106 75t54 116.5t15 151q0 88 -15.5 153.5 t-56 109.5t-111 66t-181.5 22q-67 0 -117.5 -9t-83.5 -18h-109v751h769v-173h-667v-483q20 4 45.5 8.5t56.5 8.5t70 7t89 3z" />
<glyph unicode="6" d="M1088 470q0 -117 -30 -208.5t-88.5 -155t-145 -96.5t-199.5 -33q-124 0 -222 49t-165 145.5t-103 240.5t-36 336q0 206 47 354t125.5 244t181.5 141t214 45q84 0 171 -11t158 -28v-261h-75l-40 155q-20 11 -46.5 20t-55.5 15.5t-57.5 10.5t-54.5 4q-81 0 -144.5 -38 t-110 -116t-73 -195.5t-31.5 -277.5q82 43 178.5 70t191.5 27t171 -26.5t129.5 -80.5t81.5 -136.5t28 -193.5zM620 67q73 0 122.5 23.5t80 71.5t43.5 120t13 167q0 185 -58 267.5t-185 82.5q-77 0 -161 -14.5t-168 -42.5q0 -162 17.5 -287.5t56 -212t97.5 -131t142 -44.5z " />
<glyph unicode="7" d="M227 1157h-74v358h937v-87l-675 -1428h-146l663 1342h-665z" />
<glyph unicode="8" d="M1023 1146q0 -124 -60.5 -210.5t-163.5 -132.5q61 -22 110.5 -58t85.5 -85.5t55 -112t19 -138.5q0 -215 -121 -323.5t-376 -108.5q-242 0 -363 107t-121 325q0 150 72.5 249t195.5 145q-98 46 -160 131.5t-62 211.5q0 89 28 162t83.5 124.5t139 79t196.5 27.5 q108 0 190.5 -27t138.5 -78t84.5 -124t28.5 -164zM866 409q0 83 -15 146.5t-49.5 107.5t-91 67t-138.5 23q-84 0 -138 -23t-86 -67t-44 -107.5t-12 -146.5q0 -84 12 -147.5t44 -106.5t86 -65.5t138 -22.5q82 0 138.5 22.5t91 65.5t49.5 106.5t15 147.5zM819 1146 q0 66 -11.5 121.5t-40 95.5t-76 63t-117.5 23t-116 -23t-72.5 -63t-37 -95.5t-10.5 -121.5q0 -68 10.5 -122t37 -92.5t72.5 -59t116 -20.5t117.5 20.5t76 59t40 92.5t11.5 122z" />
<glyph unicode="9" d="M75 1053q0 117 33.5 206.5t97 150t154 91.5t203.5 31q129 0 222.5 -45t155 -139.5t91.5 -240t30 -345.5q0 -146 -22 -261t-61.5 -202t-94.5 -148.5t-120.5 -100t-139.5 -56t-152 -17.5q-99 0 -180 10t-158 29v262h74l39 -163q22 -10 48.5 -18t55.5 -14t59 -9t58 -3 q79 0 147.5 33.5t119 108t82 193.5t36.5 291q-74 -42 -161 -69t-188 -27q-95 0 -174 29t-136 86t-88 141.5t-31 195.5zM565 1442q-146 0 -214.5 -101t-68.5 -292q0 -93 19 -157.5t54.5 -104.5t87 -58t117.5 -18q75 0 149.5 15.5t144.5 44.5q0 166 -15.5 292t-49.5 210 t-89.5 126.5t-134.5 42.5z" />
<glyph unicode=":" horiz-adv-x="642" d="M455 104q0 -28 -10.5 -53t-28.5 -43.5t-43 -29.5t-53 -11q-30 0 -54.5 11t-42.5 29.5t-29 43.5t-11 53t11 53.5t29 43.5t42.5 29t54.5 11q28 0 53 -11t43 -29t28.5 -43.5t10.5 -53.5zM455 949q0 -29 -10.5 -54t-28.5 -43t-43 -29t-53 -11q-30 0 -54.5 11t-42.5 29t-29 43 t-11 54q0 28 11 53t29 43.5t42.5 29.5t54.5 11q28 0 53 -11t43 -29.5t28.5 -43.5t10.5 -53z" />
<glyph unicode=";" horiz-adv-x="642" d="M455 949q0 -29 -10.5 -54t-28.5 -43t-43 -29t-53 -11q-30 0 -54.5 11t-42.5 29t-29 43t-11 54q0 28 11 53t29 43.5t42.5 29.5t54.5 11q28 0 53 -11t43 -29.5t28.5 -43.5t10.5 -53zM466 55q0 -66 -19 -129t-60 -116t-107 -96t-160 -70v87q103 33 151.5 80.5t48.5 109.5 q0 20 -11.5 34t-28.5 25t-37 21t-37 24.5t-28.5 35t-11.5 52.5q0 61 39 93t98 32q31 0 61 -11.5t52 -35t36 -58t14 -78.5z" />
<glyph unicode="&#x3c;" horiz-adv-x="1305" d="M115 740v57l1077 530v-117l-914 -442l914 -441v-117z" />
<glyph unicode="=" horiz-adv-x="1305" d="M1192 594v-115h-1077v115h1077zM1192 1058v-116h-1077v116h1077z" />
<glyph unicode="&#x3e;" horiz-adv-x="1305" d="M118 210v117l914 441l-914 442v117l1076 -530v-57z" />
<glyph unicode="?" horiz-adv-x="1027" d="M497 396h-90l-30 377l162 33q41 8 74.5 27.5t58.5 57.5t38.5 97.5t13.5 146.5q0 82 -14 139.5t-45.5 94t-83.5 52.5t-128 16q-68 0 -124 -15.5t-95 -39.5l-40 -185h-74v287q79 21 158.5 34.5t174.5 13.5q240 0 359.5 -97t119.5 -287q0 -79 -18.5 -151t-61 -130 t-110 -100.5t-166.5 -62.5l-64 -15zM599 104q0 -28 -11 -53t-29 -43.5t-42.5 -29.5t-53.5 -11t-54 11t-43 29.5t-28.5 43.5t-10.5 53t10.5 53.5t28.5 43.5t43 29t54 11t53.5 -11t42.5 -29t29 -43.5t11 -53.5z" />
<glyph unicode="@" horiz-adv-x="2131" d="M1648 -208q-61 -47 -129.5 -89t-150.5 -73.5t-178.5 -50.5t-213.5 -19q-204 0 -363 66.5t-268 181.5t-165.5 270t-56.5 331q0 162 37 308.5t105 272t166 228t219 174t262.5 110.5t299.5 39q198 0 347.5 -49t249.5 -139.5t150 -218t50 -284.5q0 -117 -31.5 -223t-87 -197 t-131 -165.5t-164 -127t-185.5 -81t-195 -28.5q-14 0 -27 2.5t-23 9t-17 18t-7 28.5q0 32 3 70.5t6 70.5q-30 -30 -71.5 -65t-89 -64.5t-99.5 -49.5t-104 -20q-81 0 -125.5 61.5t-44.5 164.5q0 94 17 186t49.5 175.5t82.5 155t114 123.5q54 43 104 70.5t102.5 43t111 21 t130.5 5.5h39.5t33.5 -0.5t31 -2.5t33 -4l-128 -599q-6 -23 -10.5 -51.5t-8 -55t-5.5 -50.5t-2 -39q0 -14 2 -27t10.5 -22.5t25 -15t45.5 -5.5q74 0 138.5 28t117 77t93.5 116t69 143t42.5 158t14.5 164q0 145 -46.5 257t-133 188.5t-209 116t-273.5 39.5q-145 0 -270 -38 t-228 -106t-183 -163.5t-134.5 -210t-83.5 -246t-29 -273.5q0 -149 44 -285.5t135 -241t229 -167.5t325 -63q108 0 194.5 16t157.5 42.5t131.5 61.5t115.5 75zM1287 912q-11 1 -21 2q-9 1 -18.5 1.5t-15.5 0.5q-33 0 -72 -3t-79 -13t-79.5 -26.5t-71.5 -45.5 q-33 -29 -62.5 -78t-51.5 -112.5t-35 -137t-13 -151.5q0 -80 23 -124t68 -44q40 0 82.5 12.5t82.5 31t74.5 41.5t58.5 44z" />
<glyph unicode="A" horiz-adv-x="1671" d="M521 60v-60h-498v60l171 30l517 1438h214l537 -1438l192 -30v-60h-640v60l203 30l-150 438h-597l-152 -438zM764 1365l-260 -736h528z" />
<glyph unicode="B" horiz-adv-x="1543" d="M1083 1148q0 67 -20 116.5t-64 83t-114 50t-172 16.5h-234v-573h248q105 0 174 22t109 62t56.5 96.5t16.5 126.5zM1197 432q0 79 -25.5 136.5t-79.5 95.5t-138.5 56.5t-203.5 18.5h-271v-637q52 -3 109 -4q48 -2 107 -2.5t116 -0.5q107 0 180 23.5t119 67t66.5 106 t20.5 140.5zM67 0v60l194 30v1336l-194 29v60h692q160 0 266 -24t170.5 -70.5t91.5 -112.5t27 -149q0 -71 -23 -129.5t-64.5 -103.5t-99 -74.5t-125.5 -44.5q99 -10 178.5 -39.5t135 -76.5t85.5 -111.5t30 -143.5q0 -98 -33.5 -180t-104.5 -140t-183 -90.5t-270 -32.5 q-127 0 -252.5 3.5t-231.5 3.5h-289z" />
<glyph unicode="C" horiz-adv-x="1543" d="M875 -23q-186 0 -331 52t-245 150.5t-152 240.5t-52 320q0 204 52.5 353t152.5 246.5t246 145t333 47.5q78 0 147 -5t131.5 -13t119 -18t110.5 -21l6 -331h-74l-34 196q-79 49 -183.5 75.5t-213.5 26.5q-132 0 -235.5 -36t-174.5 -118t-109 -216t-38 -330 q0 -171 37.5 -298.5t107.5 -211.5t171 -126t230 -42q70 0 134 9t118.5 25t98 37t73.5 44l41 226h74l-7 -356q-47 -14 -108 -27t-130 -23t-145 -16t-151 -6z" />
<glyph unicode="D" horiz-adv-x="1671" d="M1342 768q0 168 -46 289.5t-132.5 200.5t-208.5 117.5t-272 38.5h-204v-1308q34 -2 73.5 -3t81.5 -3t84 -2.5t83 -0.5q144 0 246 42.5t167.5 126.5t96.5 209.5t31 292.5zM755 1515q189 0 341 -39.5t259 -128.5t165.5 -231.5t58.5 -349.5q0 -185 -47.5 -328.5t-143.5 -242 t-242.5 -149.5t-344.5 -51q-64 0 -140.5 1t-150 2t-139.5 1.5t-110 0.5h-194v60l194 30v1336l-194 29v60h688z" />
<glyph unicode="E" horiz-adv-x="1413" d="M67 60l194 30v1336l-194 29v60h1136v-362h-74l-36 245q-36 4 -87.5 7.5t-104.5 5t-100.5 2.5t-73.5 1h-248v-592h409l35 180h73v-465h-73l-35 183h-409v-618h298q71 0 133 1.5t111.5 4t85 5.5t52.5 7l65 280h74l-21 -400h-1210v60z" />
<glyph unicode="F" horiz-adv-x="1287" d="M479 680v-590l252 -30v-60h-650v60l180 30v1336l-194 29v60h1136v-362h-74l-36 245q-36 4 -87.5 7.5t-104.5 5t-100.5 2.5t-73.5 1h-248v-632h446l35 181h69v-466h-69l-35 183h-446z" />
<glyph unicode="G" horiz-adv-x="1671" d="M1451 79q-131 -43 -272.5 -72.5t-303.5 -29.5q-180 0 -324 49.5t-246 146t-156 239t-54 328.5q0 398 199.5 595t584.5 197q147 0 280 -18t252 -50v-325h-75l-31 188q-78 55 -187 85t-230 30q-132 0 -235.5 -37t-174.5 -119.5t-109 -216t-38 -327.5q0 -195 44 -325.5 t119.5 -208.5t174 -111t208.5 -33q55 0 110 7.5t103 19t85 25t59 25.5v431l-194 29v61h559v-61l-148 -29v-493z" />
<glyph unicode="H" horiz-adv-x="1671" d="M67 0v60l194 30v1336l-194 29v60h606v-60l-194 -29v-595h713v595l-194 29v60h605v-60l-194 -29v-1336l194 -30v-60h-605v60l194 30v639h-713v-639l194 -30v-60h-606z" />
<glyph unicode="I" horiz-adv-x="770" d="M495 90l194 -30v-60h-605v60l194 30v1336l-194 29v60h605v-60l-194 -29v-1336z" />
<glyph unicode="J" horiz-adv-x="900" d="M463 1426l-194 29v60h583v-60l-172 -29v-938q0 -103 -19 -181t-50.5 -134.5t-73 -94t-85.5 -60.5t-88 -32t-82 -9q-73 0 -132.5 9t-100.5 25v276h74l34 -157q22 -26 61.5 -40.5t86.5 -14.5q158 0 158 214v1137z" />
<glyph unicode="K" horiz-adv-x="1671" d="M1529 1515v-60l-175 -29l-518 -506l648 -830l164 -30v-60h-371l-593 766l-205 -164v-512l217 -30v-60h-629v60l194 30v1336l-194 29v60h606v-60l-194 -29v-714l726 714l-151 29v60h475z" />
<glyph unicode="L" horiz-adv-x="1413" d="M713 1455l-234 -29v-1329h298q142 0 231 8t123 15l70 315h74l-21 -435h-1187v60l194 30v1336l-194 29v60h646v-60z" />
<glyph unicode="M" horiz-adv-x="2057" d="M974 0h-39l-555 1303v-1213l203 -30v-60h-516v60l194 30v1336l-194 29v60h458l493 -1152l538 1152h434v-60l-194 -29v-1336l194 -30v-60h-615v60l204 30v1213z" />
<glyph unicode="N" horiz-adv-x="1671" d="M1305 1426l-203 29v60h516v-60l-194 -29v-1426h-110l-934 1363v-1273l203 -30v-60h-516v60l194 30v1336l-194 29v60h458l780 -1122v1033z" />
<glyph unicode="O" horiz-adv-x="1671" d="M331 759q0 -158 24 -285.5t81.5 -218t154.5 -139.5t244 -49t244 49t155.5 139.5t82 218t23.5 285.5q0 157 -23.5 284t-82 215.5t-155.5 136t-244 47.5t-244 -47.5t-154.5 -136t-81.5 -215.5t-24 -284zM95 759q0 201 49 347t143 241t232 140t316 45q173 0 310.5 -45 t233.5 -140t146.5 -241t50.5 -347t-50.5 -348.5t-146.5 -243.5t-233.5 -143t-310.5 -47t-309.5 47t-232.5 143t-147 243.5t-51 348.5z" />
<glyph unicode="P" horiz-adv-x="1287" d="M970 1067q0 90 -20 155.5t-64.5 108t-117 63t-178.5 20.5h-111v-718h118q106 0 177.5 25.5t115 73t62 116.5t18.5 156zM479 594v-504l241 -30v-60h-639v60l180 30v1336l-194 29v60h571q160 0 266.5 -34.5t171 -95t91.5 -141.5t27 -175q0 -93 -26.5 -178.5t-89 -151.5 t-167.5 -105.5t-261 -39.5h-171z" />
<glyph unicode="Q" horiz-adv-x="1671" d="M331 757q0 -158 24 -285.5t81.5 -217.5t154.5 -138.5t244 -48.5t244 48.5t155.5 138.5t82 217.5t23.5 285.5q0 157 -23.5 284t-82 216t-155.5 137t-244 48t-244 -48t-154.5 -137t-81.5 -216t-24 -284zM95 757q0 201 49 347.5t143 241.5t232 140.5t316 45.5 q173 0 310.5 -45.5t233.5 -140.5t146.5 -241.5t50.5 -347.5q0 -145 -26.5 -260.5t-78 -204.5t-126 -152t-170.5 -103l57 -70q48 -61 90 -105t78.5 -71.5t70.5 -40.5t68 -13q8 0 21.5 0.5l27 1t26 1t18.5 1.5v-74q-13 -6 -37.5 -13t-56 -13.5t-65 -11t-64.5 -4.5 q-64 0 -115.5 16.5t-100.5 52t-100.5 92.5t-116.5 137l-46 59q-20 -2 -43.5 -3.5t-51.5 -1.5q-173 0 -309.5 46.5t-232.5 142.5t-147 243t-51 348z" />
<glyph unicode="R" horiz-adv-x="1543" d="M479 664v-574l230 -30v-60h-628v60l180 30v1336l-194 29v60h654q159 0 266 -28t171.5 -80.5t91.5 -127t27 -168.5q0 -87 -25.5 -155.5t-68.5 -120.5t-99.5 -86.5t-117.5 -52.5l410 -606l164 -30v-60h-363l-426 664h-272zM1052 1095q0 90 -21.5 151t-67 98.5t-117.5 53.5 t-174 16h-193v-648h200q104 0 175 18.5t115.5 59t63.5 102.5t19 149z" />
<glyph unicode="S" horiz-adv-x="1287" d="M157 408h74l39 -205q22 -27 60 -51t85 -43t99 -29.5t102 -10.5q86 0 149 23t104.5 64t61.5 96t20 121q0 81 -34 134t-90 90t-127.5 62.5t-146.5 51.5t-146 57.5t-127 80t-90.5 120.5t-34.5 177q0 88 34 159.5t99.5 122t161 77.5t217.5 27q112 0 212.5 -14.5t184.5 -33.5 v-316h-73l-40 186q-49 36 -121.5 59.5t-162.5 23.5q-84 0 -144.5 -18t-100 -49t-58.5 -73.5t-19 -90.5q0 -74 34.5 -122.5t90 -83t127.5 -59.5t147 -51.5t147 -59.5t128 -84.5t90.5 -125.5t34.5 -183q0 -105 -32.5 -189.5t-97.5 -145t-162.5 -93t-229.5 -32.5 q-71 0 -138.5 7t-127.5 18.5t-111 26t-88 29.5v350z" />
<glyph unicode="T" horiz-adv-x="1413" d="M356 0v60l241 30v1328h-58q-148 0 -248.5 -6.5t-142.5 -15.5l-30 -237h-76v356h1333v-356h-77l-30 237q-20 4 -60.5 7.5t-93.5 6t-115.5 4.5t-128.5 2h-55v-1326l240 -30v-60h-699z" />
<glyph unicode="U" horiz-adv-x="1671" d="M1310 1426l-204 29v60h517v-60l-195 -29v-905q0 -104 -26 -202t-91.5 -173.5t-179 -122t-287.5 -46.5q-302 0 -451.5 136.5t-149.5 385.5v927l-194 29v60h605v-60l-194 -29v-910q0 -92 22 -168.5t70 -130.5t124.5 -83.5t184.5 -29.5q119 0 203.5 29.5t139.5 82.5 t80.5 128.5t25.5 167.5v914z" />
<glyph unicode="V" horiz-adv-x="1671" d="M1645 1515v-60l-166 -29l-609 -1461h-58l-615 1461l-171 29v60h612v-60l-203 -29l459 -1115l457 1115l-198 29v60h492z" />
<glyph unicode="W" horiz-adv-x="2184" d="M2048 1426l-495 -1461h-60l-394 1044l-403 -1044h-60l-502 1461l-132 29v60h579v-60l-223 -29l361 -1068l408 1051h50l394 -1051l343 1068l-236 29v60h502v-60z" />
<glyph unicode="X" horiz-adv-x="1671" d="M358 90l188 -30v-60h-495v60l167 30l515 685l-439 651l-171 29v60h625v-60l-192 -29l314 -468l352 468l-188 29v60h496v-60l-167 -29l-426 -567l521 -769l171 -30v-60h-624v60l192 30l-398 588z" />
<glyph unicode="Y" horiz-adv-x="1671" d="M947 597v-507l241 -30v-60h-700v60l241 30v500l-532 836l-171 29v60h641v-60l-204 -29l435 -699l414 699l-192 29v60h493v-60l-167 -29z" />
<glyph unicode="Z" horiz-adv-x="1413" d="M111 106l849 1312h-282q-148 0 -245 -6.5t-139 -15.5l-35 -239h-78v358h1031v-97l-855 -1323h328q73 0 146 4t135 10t108.5 12.5t66.5 10.5l67 289h79l-30 -421h-1146v106z" />
<glyph unicode="[" horiz-adv-x="770" d="M172 -310v1916h515v-53l-336 -47v-1716l336 -47v-53h-515z" />
<glyph unicode="\" horiz-adv-x="642" d="M0 1526h111l532 -1549h-113z" />
<glyph unicode="]" horiz-adv-x="770" d="M84 -310v53l335 47v1716l-335 47v53h515v-1916h-515z" />
<glyph unicode="^" horiz-adv-x="1085" d="M516 1515h56l483 -1075h-116l-395 914l-396 -914h-115z" />
<glyph unicode="_" d="M-18 -298v115h1193v-115h-1193z" />
<glyph unicode="`" horiz-adv-x="770" d="M534 1264l-400 303v42h241l222 -307v-38h-63z" />
<glyph unicode="a" horiz-adv-x="1027" d="M525 1086q73 0 135 -13.5t107 -46.5t70.5 -89t25.5 -140v-718l133 -28v-51h-292l-21 106q-17 -17 -46 -39.5t-69.5 -42t-94.5 -33.5t-119 -14q-77 0 -129.5 24t-84.5 66.5t-45.5 100.5t-13.5 126q0 70 17 121.5t47.5 86.5t72 57t89.5 34.5t101.5 17t107.5 5.5l160 4v166 q0 48 -8 87t-26.5 67t-50.5 44t-79 16q-54 0 -109.5 -14.5t-97.5 -38.5l-38 -132h-64v231q74 16 152.5 28t169.5 12zM676 541l-148 -4q-67 -3 -115.5 -13.5t-80 -36.5t-47.5 -71t-16 -115q0 -199 162 -199q76 0 132 17.5t113 44.5v377z" />
<glyph unicode="b" d="M866 560q0 116 -21 194.5t-60 127t-94 69.5t-121 21q-28 0 -59 -2.5t-61.5 -7.5t-58.5 -11.5t-49 -15.5v-842q48 -9 109 -13.5t119 -4.5q155 0 225.5 122t70.5 363zM155 1528l-155 27v51h342v-380q0 -21 -0.5 -49t-1 -58t-2 -60t-2.5 -57q50 40 123 64t161 24 q217 0 333 -131.5t116 -398.5q0 -134 -29.5 -242t-90.5 -183.5t-154 -116.5t-221 -41q-54 0 -110 6.5t-110.5 16.5t-105 24t-93.5 31v1473z" />
<glyph unicode="c" horiz-adv-x="1027" d="M956 64q-29 -21 -70 -37.5t-87 -27t-96.5 -16.5t-97.5 -6q-138 0 -236 38t-160 110.5t-91.5 177t-29.5 236.5q0 145 38 249.5t105.5 171.5t161 98.5t204.5 31.5q91 0 177 -10.5t156 -24.5v-296h-62l-49 188q-42 24 -101 38.5t-124 14.5q-73 0 -129 -26.5t-95 -83 t-58.5 -143.5t-19.5 -208q0 -102 16.5 -184t59.5 -139.5t116 -89t185 -31.5q38 0 78.5 3t78 8t71 11.5t59.5 14.5v-68z" />
<glyph unicode="d" d="M817 79q-50 -39 -124 -70.5t-174 -31.5q-435 0 -435 544q0 132 28.5 237.5t88.5 179.5t151.5 113t217.5 39q57 0 122 -6.5t125 -19.5q-2 13 -3.5 37t-2 52t-1 55t-0.5 44v276l-178 27v51h366v-1527l131 -28v-51h-298zM287 521q0 -119 21 -200t59.5 -131.5t92.5 -72.5 t121 -22q68 0 127.5 13t101.5 31v840q-47 9 -109.5 14t-119.5 5q-150 0 -222 -121t-72 -356z" />
<glyph unicode="e" horiz-adv-x="1027" d="M294 534v-20q0 -82 12 -158t47.5 -134t100 -92.5t169.5 -34.5q34 0 71 3t74.5 7.5t72.5 10t64 12.5v-64q-26 -17 -62.5 -32t-80.5 -27.5t-94 -20t-101 -7.5q-132 0 -223 36.5t-147.5 107.5t-81.5 176t-25 242q0 278 116.5 414.5t332.5 136.5q85 0 159 -22.5t129.5 -75.5 t87.5 -142.5t32 -222.5v-93h-653zM539 1000q-63 0 -109 -26.5t-76 -75t-44 -118t-14 -155.5h454q0 86 -9.5 155.5t-33.5 118t-65 75t-103 26.5z" />
<glyph unicode="f" horiz-adv-x="770" d="M254 967h-183v56l183 44v74q0 120 24.5 211t70 152.5t112 93t148.5 31.5q51 0 90.5 -6t71.5 -15v-232h-56l-51 139q-18 12 -39.5 18t-52.5 6q-40 0 -64.5 -17.5t-39.5 -54t-20.5 -93t-5.5 -136.5v-176h282v-95h-282v-879l229 -37v-51h-574v51l157 37v879z" />
<glyph unicode="g" d="M983 727q0 -183 -109.5 -277t-315.5 -94q-46 0 -93 5t-79 12l-71 -148q4 -19 44.5 -36t101.5 -17h314q172 0 255 -74.5t83 -205.5q0 -74 -30 -144.5t-97 -125.5t-175.5 -88t-266.5 -33q-121 0 -206 19.5t-138 54.5t-77 81.5t-24 100.5q0 37 14.5 70.5t40 64.5t60.5 60.5 t75 58.5q-20 7 -46.5 22.5t-50.5 39t-39.5 54.5t-15.5 70l178 201q-178 83 -178 329q0 89 29 157.5t84 114t135.5 68.5t181.5 23q32 0 64.5 -3t61.5 -7t50.5 -9t31.5 -9l250 126l39 -49l-157 -163q39 -43 57.5 -108t18.5 -141zM937 -144q0 65 -39.5 101t-120.5 36h-411 q-24 -20 -43.5 -46.5t-33.5 -56t-22 -59.5t-8 -58q0 -41 13 -74t45 -57t87.5 -37.5t139.5 -13.5q101 0 175 19.5t122.5 55.5t72 84.5t23.5 105.5zM560 442q124 0 175 70.5t51 214.5q0 71 -11.5 123.5t-38 86.5t-69.5 51t-104 17q-62 0 -105.5 -17t-71.5 -51t-40.5 -86.5 t-12.5 -123.5q0 -72 12.5 -125.5t39.5 -89t70 -53t105 -17.5z" />
<glyph unicode="h" d="M368 1146q0 -16 -0.5 -38.5t-1 -47t-2 -47t-4.5 -37.5q32 18 77.5 38.5t94.5 37.5t98 27.5t90 10.5q61 0 112 -16.5t87.5 -54t57.5 -97.5t21 -145v-698l129 -28v-51h-458v51l141 28v685q0 94 -45.5 144t-141.5 50q-32 0 -67.5 -3.5t-70.5 -8t-65.5 -10.5t-51.5 -11v-846 l144 -28v-51h-466v51l135 28v1449l-158 27v51h345v-460z" />
<glyph unicode="i" horiz-adv-x="642" d="M428 1409q0 -25 -9.5 -47t-26.5 -39t-39.5 -26.5t-47.5 -9.5t-47 9.5t-39 26.5t-26.5 39t-9.5 47t9.5 47.5t26.5 39.5t39 26.5t47 9.5t47.5 -9.5t39.5 -26.5t26.5 -39.5t9.5 -47.5zM417 79l182 -28v-51h-550v51l180 28v904l-150 28v51h338v-983z" />
<glyph unicode="j" horiz-adv-x="642" d="M444 1409q0 -25 -9.5 -47t-26.5 -39t-39 -26.5t-47 -9.5q-26 0 -48 9.5t-39 26.5t-26.5 39t-9.5 47t9.5 47.5t26.5 39.5t39 26.5t48 9.5q25 0 47 -9.5t39 -26.5t26.5 -39.5t9.5 -47.5zM433 -44q0 -120 -24.5 -205t-69 -139.5t-106 -79.5t-136.5 -25q-50 0 -86 6t-78 15 v225h53l31 -124q37 -31 94 -31q66 0 100 71t34 229v1085l-159 28v51h347v-1106z" />
<glyph unicode="k" d="M389 512l435 469l-111 30v51h375v-51l-132 -26l-303 -309l389 -599l115 -26v-51h-435v51l97 28l-291 458l-139 -153v-305l113 -28v-51h-435v51l134 28v1449l-157 27v51h345v-1094z" />
<glyph unicode="l" horiz-adv-x="642" d="M415 79l182 -28v-51h-551v51l181 28v1449l-181 27v51h369v-1527z" />
<glyph unicode="m" horiz-adv-x="1800" d="M368 976q32 18 75.5 38.5t90 37.5t94 27.5t87.5 10.5q78 0 144 -29t99 -94q36 21 87 43t106 40t108.5 29t96.5 11q61 0 110.5 -16.5t85.5 -54t55.5 -97.5t19.5 -145v-698l137 -28v-51h-483v51l159 28v678q0 94 -42.5 144t-138.5 50q-30 0 -69 -4.5t-77.5 -10t-74.5 -13 t-59 -11.5q19 -61 19 -135v-698l159 -28v-51h-504v51l157 28v678q0 94 -48 144t-144 50q-32 0 -66 -3t-67.5 -7.5t-63.5 -11t-50 -10.5v-840l159 -28v-51h-481v51l134 28v904l-134 28v51h310z" />
<glyph unicode="n" d="M366 976q32 18 75.5 38.5t91 37.5t95 27.5t87.5 10.5q61 0 112 -16.5t87.5 -54t57.5 -97.5t21 -145v-698l129 -28v-51h-458v51l142 28v678q0 94 -46 147.5t-142 53.5q-32 0 -67 -3.5t-68.5 -8t-63.5 -10.5t-51 -11v-846l144 -28v-51h-459v51l128 28v904l-128 28v51h303z " />
<glyph unicode="o" d="M1069 537q0 -270 -121 -415t-376 -145q-240 0 -362 143.5t-122 416.5q0 269 122 411t371 142q242 0 365 -139.5t123 -413.5zM866 537q0 109 -15 195.5t-49.5 146t-91 90.5t-138.5 31q-84 0 -138 -31t-86 -90.5t-44 -146t-12 -195.5q0 -111 12 -198t44 -147.5t86 -92.5 t138 -32q82 0 138.5 32t91 92.5t49.5 147.5t15 198z" />
<glyph unicode="p" d="M172 983l-121 28v51h298l2 -62q24 20 56.5 36.5t69.5 28.5t79 18.5t85 6.5q99 0 178 -35t134.5 -104.5t84.5 -171.5t29 -235q0 -130 -29.5 -234.5t-88.5 -179t-147.5 -114t-207.5 -39.5q-57 0 -121 6.5t-122 18.5q2 -13 3.5 -30.5t2 -36.5t1 -34.5t0.5 -25.5v-287 l186 -28v-53h-507v53l135 28v1395zM863 544q0 115 -19 196.5t-56 132.5t-90 75t-119 24q-55 0 -116.5 -9.5t-104.5 -27.5v-849q48 -9 105.5 -14t115.5 -5q149 0 216.5 123.5t67.5 353.5z" />
<glyph unicode="q" d="M919 1113h79v-1525l117 -28v-53h-451v53l146 28v294q0 43 2.5 92.5t9.5 96.5q-51 -39 -126.5 -66.5t-176.5 -27.5q-223 0 -329 142t-106 409q0 130 29 234.5t88.5 177t150.5 111.5t213 39q58 0 125 -6.5t127 -19.5zM287 528q0 -116 20 -197.5t57 -134t92 -77t125 -24.5 q27 0 58.5 2t62.5 7.5t59.5 12t48.5 15.5v847q-47 9 -109.5 14t-119.5 5q-149 0 -221.5 -121t-72.5 -349z" />
<glyph unicode="r" horiz-adv-x="770" d="M750 1090v-287h-48l-66 125q-31 0 -67.5 -4.5t-72.5 -12t-69.5 -17.5t-58.5 -22v-793l182 -28v-51h-504v51l135 28v904l-135 28v51h310l10 -132q26 21 71.5 49t98 53t105 41.5t92.5 16.5h17z" />
<glyph unicode="s" horiz-adv-x="900" d="M817 298q0 -71 -22 -130.5t-69.5 -101.5t-122.5 -65.5t-182 -23.5q-53 0 -104 6.5t-95.5 15t-77 17.5t-47.5 15v261h51l55 -148q35 -32 90.5 -54.5t130.5 -22.5q105 0 162 45.5t57 141.5q0 57 -23.5 93.5t-62 61.5t-88 41.5l-100.5 33.5t-100.5 38.5t-88 55t-62 84.5 t-23.5 127q0 72 26 128.5t73 95t112 58t143 19.5q76 0 149.5 -10.5t141.5 -24.5v-231h-53l-47 123q-30 26 -81 39.5t-108 13.5q-92 0 -140 -45t-48 -122q0 -52 24 -85.5t63 -56.5t88.5 -40t101.5 -35t102 -41.5t89 -59.5t62.5 -88t23.5 -129z" />
<glyph unicode="t" horiz-adv-x="642" d="M377 -23q-108 0 -161.5 64.5t-53.5 181.5v744h-139v51l141 44l114 241h71v-241h243v-95h-243v-724q0 -73 33.5 -110.5t87.5 -37.5q42 0 83 5.5t76 12.5v-73q-17 -12 -44.5 -23t-61 -19.5t-70.5 -14.5t-76 -6z" />
<glyph unicode="u" d="M354 303q0 -94 42 -144.5t138 -50.5q64 0 131.5 8.5t131.5 27.5v839l-161 28v51h347v-983l135 -28v-51h-310l-9 86q-33 -18 -78 -37.5t-94.5 -35t-99 -26t-90.5 -10.5q-61 0 -110.5 17t-85 54.5t-55.5 97t-20 143.5v694l-135 28v51h323v-759z" />
<glyph unicode="v" d="M1055 988l-426 -1011h-83l-438 1006l-108 28v51h495v-51l-168 -30l309 -734l296 736l-168 28v51h393v-51z" />
<glyph unicode="w" horiz-adv-x="1671" d="M1544 988l-356 -1011h-89l-262 701l-258 -701h-84l-367 1006l-126 28v51h505v-51l-176 -30l252 -718l257 693h95l255 -697l241 724l-174 28v51h404v-51z" />
<glyph unicode="x" d="M1005 75l124 -24v-51h-482v51l142 26l-245 376l-287 -378l145 -24v-51h-382v51l124 18l349 461l-308 453l-125 28v51h481v-51l-141 -30l205 -305l235 307l-146 28v51h382v-51l-122 -23l-299 -387z" />
<glyph unicode="y" d="M1037 988l-414 -1055q-37 -91 -74 -170t-83 -137.5t-104.5 -91.5t-136.5 -33q-30 0 -52 1t-41 3.5t-38 6t-43 9.5v229h53l37 -108q35 -26 97 -26q49 0 88.5 21.5t73 60.5t60.5 92t52 117l29 82l-404 994l-109 28v51h493v-51l-167 -30l287 -743l278 745l-166 28v51h395 v-51z" />
<glyph unicode="z" horiz-adv-x="1027" d="M62 0v51l583 921h-249q-32 0 -63 -3t-59 -8t-49.5 -12.5t-32.5 -16.5l-35 -152h-53v282h784v-55l-583 -917h311q30 0 64.5 4t67 11t60 16.5t44.5 22.5l58 222h53l-28 -366h-873z" />
<glyph unicode="{" horiz-adv-x="1110" d="M748 -310q-73 0 -128.5 23.5t-92.5 67t-55.5 104.5t-18.5 138v333q0 71 -16.5 121t-47.5 82t-76 48t-103 18v51q58 1 103 17t76 48t47.5 81.5t16.5 119.5v333q0 159 73.5 245t221.5 86h153v-53h-70q-103 0 -146.5 -62t-43.5 -181v-373q0 -57 -16.5 -104.5t-45.5 -84 t-69 -61t-86 -34.5v-3q48 -12 87.5 -36t68.5 -61t45 -84.5t16 -104.5v-378q0 -119 43.5 -181t146.5 -62h70v-53h-153z" />
<glyph unicode="|" horiz-adv-x="463" d="M174 -499v2105h115v-2105h-115z" />
<glyph unicode="}" horiz-adv-x="1110" d="M210 -310v53h70q103 0 146.5 62t43.5 181v378q0 57 16 104.5t44.5 84.5t68 61t88.5 36v3q-46 10 -86.5 34.5t-69 61t-45 84t-16.5 104.5v373q0 119 -43.5 181t-146.5 62h-70v53h154q147 0 220.5 -86t73.5 -245v-333q0 -70 16 -119.5t48 -81.5t76.5 -48t102.5 -17v-51 q-58 -2 -102.5 -18t-76.5 -48t-48 -82t-16 -121v-333q0 -77 -19 -138t-55.5 -104.5t-92 -67t-127.5 -23.5h-154z" />
<glyph unicode="~" horiz-adv-x="1252" d="M881 567q-52 0 -99.5 20.5t-92 50.5t-85.5 65.5t-80.5 65.5t-78 50.5t-77.5 20.5q-46 0 -78.5 -16.5t-55.5 -50.5t-36 -85.5t-19 -120.5h-115q7 69 22.5 138.5t48 125.5t88.5 90.5t145 34.5q55 0 103.5 -20.5t93 -51t86.5 -65.5t81 -65.5t76 -50.5t73 -20q46 0 77.5 18 t53.5 53t35 85.5t22 116.5h116q-9 -69 -25 -138t-49.5 -125t-88.5 -91t-141 -35z" />
<glyph unicode="&#xa2;" d="M606 210q-123 8 -211 49.5t-144 113.5t-81.5 172.5t-25.5 227.5q0 137 34 237.5t95 167.5t146 102t187 41v194h92v-192q79 -3 152.5 -12t134.5 -22v-296h-62l-48 187q-35 19 -80.5 32.5t-96.5 19.5v-903h26q39 0 79 2.5t78 8t71 12t59 14.5v-68q-26 -20 -62 -34.5 t-77 -26t-85.5 -17.5t-88.5 -10v-210h-92v210zM347 773q0 -87 12 -159.5t41 -128.5t79 -92.5t127 -52.5v892q-125 -16 -192 -127t-67 -332z" />
<glyph unicode="&#xa3;" d="M1086 174v-174h-947v132q38 35 80.5 72t78.5 79t60 92t24 111q0 53 -18.5 108.5t-43.5 116.5h-183v92h143q-31 74 -53 156t-22 178q0 190 118 292.5t353 102.5q48 0 90 -4t81.5 -10t78 -15t81.5 -19v-292h-74l-39 185q-40 23 -95 41.5t-123 18.5q-130 0 -194.5 -76 t-64.5 -224q0 -108 10 -187t23 -147h314v-92h-296q7 -47 12.5 -93.5t5.5 -98.5q0 -61 -13.5 -110.5t-38 -90.5t-57 -76t-71.5 -68h780z" />
<glyph unicode="&#xa5;" d="M1000 444v-93h-315v-261l194 -30v-60h-606v60l195 30v261h-315v93h315v146l-17 39h-298v93h259l-297 704l-113 29v60h512v-60l-148 -29l270 -699l278 699l-139 29v60h380v-60l-118 -29l-299 -704h262v-93h-302l-13 -32v-153h315z" />
<glyph unicode="&#xa8;" horiz-adv-x="770" d="M698 1349q0 -47 -31.5 -80.5t-78.5 -33.5q-24 0 -44.5 9t-35.5 25t-24 36t-9 44q0 48 32.5 80.5t80.5 32.5q47 0 78.5 -32.5t31.5 -80.5zM296 1349q0 -47 -31.5 -80.5t-79.5 -33.5q-23 0 -43.5 9t-36.5 25t-25 36t-9 44t9 44.5t25 35.5t36.5 24t43.5 9q48 0 79.5 -32.5 t31.5 -80.5z" />
<glyph unicode="&#xa9;" horiz-adv-x="1758" d="M99 757q0 109 28 209t79 187t121.5 158t157.5 122t186.5 78.5t207.5 27.5q109 0 209 -27.5t187 -78.5t158 -122t122 -158t78.5 -187t27.5 -209q0 -108 -27.5 -207.5t-78.5 -186.5t-122 -158t-158 -121.5t-187 -78.5t-209 -28q-163 0 -304.5 61t-247.5 167t-167 247.5 t-61 304.5zM179 757q0 -146 54.5 -273.5t149.5 -223t222.5 -150.5t273.5 -55t274 55t223.5 150.5t151 223t55.5 273.5q0 97 -25.5 187t-71 168t-109.5 142.5t-142.5 110t-168.5 70.5t-187 25q-146 0 -273.5 -55.5t-222.5 -150.5t-149.5 -223t-54.5 -274zM898 292 q-112 0 -199.5 31.5t-148 90.5t-91.5 144t-31 192q0 122 32 212t91.5 148t148 87t201.5 29q91 0 165 -10.5t137 -23.5l5 -211h-55l-22 118q-47 30 -104 44t-122 14q-74 0 -132 -19t-98 -66t-60.5 -125t-20.5 -194q0 -207 79.5 -301t224.5 -94q85 0 146.5 20t96.5 48l25 134 h56l-5 -224q-58 -18 -143 -31t-176 -13z" />
<glyph unicode="&#xab;" d="M132 560l378 403h91l-256 -440l256 -439h-91l-378 402v74zM594 560l379 403h91l-257 -440l257 -439h-91l-379 402v74z" />
<glyph unicode="&#xad;" horiz-adv-x="770" d="M86 459v173h601v-173h-601z" />
<glyph unicode="&#xae;" horiz-adv-x="1758" d="M99 757q0 109 28 209t79 187t121.5 158t157.5 122t186.5 78.5t207.5 27.5q109 0 209 -27.5t187 -78.5t158 -122t122 -158t78.5 -187t27.5 -209q0 -108 -27.5 -207.5t-78.5 -186.5t-122 -158t-158 -121.5t-187 -78.5t-209 -28q-163 0 -304.5 61t-247.5 167t-167 247.5 t-61 304.5zM179 757q0 -146 54.5 -273.5t149.5 -223t222.5 -150.5t273.5 -55t274 55t223.5 150.5t151 223t55.5 273.5q0 97 -25.5 187t-71 168t-109.5 142.5t-142.5 110t-168.5 70.5t-187 25q-146 0 -273.5 -55.5t-222.5 -150.5t-149.5 -223t-54.5 -274zM755 706v-326 l129 -20v-48h-391v48l108 20v777l-117 18v47h373q94 0 161.5 -18.5t110.5 -51.5t63 -79t20 -101q0 -87 -50.5 -150.5t-150.5 -94.5l241 -347l95 -20v-48h-232l-258 394h-102zM1053 970q0 54 -13 89t-40 56t-70 29.5t-104 8.5h-71v-376h76q62 0 105 11t69 33.5t37 59.5t11 89 z" />
<glyph unicode="&#xb4;" horiz-adv-x="770" d="M176 1264v38l222 307h240v-42l-400 -303h-62z" />
<glyph unicode="&#xb8;" horiz-adv-x="770" d="M597 -264q0 -52 -20.5 -94t-58 -72t-88.5 -46.5t-112 -16.5q-37 0 -79 6.5t-77 18.5v84q10 -4 26.5 -7t35 -5.5t38 -4t35.5 -1.5q68 0 98.5 33t30.5 84q0 36 -17 60.5t-42.5 39.5t-55.5 22.5t-57 9.5l47 173h97l-21 -92q103 -10 161.5 -60t58.5 -132z" />
<glyph unicode="&#xbb;" d="M1025 486l-378 -402h-91l256 439l-256 440h91l378 -403v-74zM563 486l-379 -402h-91l257 439l-257 440h91l379 -403v-74z" />
<glyph unicode="&#xd3;" horiz-adv-x="1671" d="M331 759q0 -158 24 -285.5t81.5 -218t154.5 -139.5t244 -49t244 49t155.5 139.5t82 218t23.5 285.5q0 157 -23.5 284t-82 215.5t-155.5 136t-244 47.5t-244 -47.5t-154.5 -136t-81.5 -215.5t-24 -284zM95 759q0 201 49 347t143 241t232 140t316 45q173 0 310.5 -45 t233.5 -140t146.5 -241t50.5 -347t-50.5 -348.5t-146.5 -243.5t-233.5 -143t-310.5 -47t-309.5 47t-232.5 143t-147 243.5t-51 348.5zM708 1641v38l222 307h240v-42l-400 -303h-62z" />
<glyph unicode="&#xf3;" d="M1069 537q0 -270 -121 -415t-376 -145q-240 0 -362 143.5t-122 416.5q0 269 122 411t371 142q242 0 365 -139.5t123 -413.5zM866 537q0 109 -15 195.5t-49.5 146t-91 90.5t-138.5 31q-84 0 -138 -31t-86 -90.5t-44 -146t-12 -195.5q0 -111 12 -198t44 -147.5t86 -92.5 t138 -32q82 0 138.5 32t91 92.5t49.5 147.5t15 198zM456 1264v38l222 307h240v-42l-400 -303h-62z" />
<glyph unicode="&#x104;" horiz-adv-x="1671" d="M521 60v-60h-498v60l171 30l517 1438h214l537 -1438l192 -30v-60h-640v60l203 30l-150 438h-597l-152 -438zM764 1365l-260 -736h528zM1352 -455q-71 0 -120.5 19.5t-80.5 53.5t-45.5 78.5t-14.5 93.5q0 38 9.5 72t24.5 63t33 52.5t35 40.5h123q-8 -11 -18.5 -32 t-19.5 -48t-16 -58t-7 -63q0 -84 40 -128.5t116 -44.5q37 0 71 7.5t60 17.5v-72q-32 -22 -80.5 -37t-109.5 -15z" />
<glyph unicode="&#x105;" horiz-adv-x="1027" d="M525 1086q73 0 135 -13.5t107 -46.5t70.5 -89t25.5 -140v-718l133 -28v-51h-292l-21 106q-17 -17 -46 -39.5t-69.5 -42t-94.5 -33.5t-119 -14q-77 0 -129.5 24t-84.5 66.5t-45.5 100.5t-13.5 126q0 70 17 121.5t47.5 86.5t72 57t89.5 34.5t101.5 17t107.5 5.5l160 4v166 q0 48 -8 87t-26.5 67t-50.5 44t-79 16q-54 0 -109.5 -14.5t-97.5 -38.5l-38 -132h-64v231q74 16 152.5 28t169.5 12zM676 541l-148 -4q-67 -3 -115.5 -13.5t-80 -36.5t-47.5 -71t-16 -115q0 -199 162 -199q76 0 132 17.5t113 44.5v377zM861 -455q-71 0 -120.5 19.5 t-80.5 53.5t-45.5 78.5t-14.5 93.5q0 38 9.5 72t24.5 63t33 52.5t35 40.5h123q-8 -11 -18.5 -32t-19.5 -48t-16 -58t-7 -63q0 -84 40 -128.5t116 -44.5q37 0 71 7.5t60 17.5v-72q-32 -22 -80.5 -37t-109.5 -15z" />
<glyph unicode="&#x106;" horiz-adv-x="1543" d="M875 -23q-186 0 -331 52t-245 150.5t-152 240.5t-52 320q0 204 52.5 353t152.5 246.5t246 145t333 47.5q78 0 147 -5t131.5 -13t119 -18t110.5 -21l6 -331h-74l-34 196q-79 49 -183.5 75.5t-213.5 26.5q-132 0 -235.5 -36t-174.5 -118t-109 -216t-38 -330 q0 -171 37.5 -298.5t107.5 -211.5t171 -126t230 -42q70 0 134 9t118.5 25t98 37t73.5 44l41 226h74l-7 -356q-47 -14 -108 -27t-130 -23t-145 -16t-151 -6zM692 1641v38l222 307h240v-42l-400 -303h-62z" />
<glyph unicode="&#x107;" horiz-adv-x="1027" d="M956 64q-29 -21 -70 -37.5t-87 -27t-96.5 -16.5t-97.5 -6q-138 0 -236 38t-160 110.5t-91.5 177t-29.5 236.5q0 145 38 249.5t105.5 171.5t161 98.5t204.5 31.5q91 0 177 -10.5t156 -24.5v-296h-62l-49 188q-42 24 -101 38.5t-124 14.5q-73 0 -129 -26.5t-95 -83 t-58.5 -143.5t-19.5 -208q0 -102 16.5 -184t59.5 -139.5t116 -89t185 -31.5q38 0 78.5 3t78 8t71 11.5t59.5 14.5v-68zM413 1264v38l222 307h240v-42l-400 -303h-62z" />
<glyph unicode="&#x118;" horiz-adv-x="1413" d="M67 60l194 30v1336l-194 29v60h1136v-362h-74l-36 245q-36 4 -87.5 7.5t-104.5 5t-100.5 2.5t-73.5 1h-248v-592h409l35 180h73v-465h-73l-35 183h-409v-618h298q71 0 133 1.5t111.5 4t85 5.5t52.5 7l65 280h74l-21 -400h-1210v60zM1081 -455q-71 0 -120.5 19.5 t-80.5 53.5t-45.5 78.5t-14.5 93.5q0 38 9.5 72t24.5 63t33 52.5t35 40.5h123q-8 -11 -18.5 -32t-19.5 -48t-16 -58t-7 -63q0 -84 40 -128.5t116 -44.5q37 0 71 7.5t60 17.5v-72q-32 -22 -80.5 -37t-109.5 -15z" />
<glyph unicode="&#x119;" horiz-adv-x="1027" d="M294 534v-20q0 -82 12 -158t47.5 -134t100 -92.5t169.5 -34.5q34 0 71 3t74.5 7.5t72.5 10t64 12.5v-64q-26 -17 -62.5 -32t-80.5 -27.5t-94 -20t-101 -7.5q-132 0 -223 36.5t-147.5 107.5t-81.5 176t-25 242q0 278 116.5 414.5t332.5 136.5q85 0 159 -22.5t129.5 -75.5 t87.5 -142.5t32 -222.5v-93h-653zM539 1000q-63 0 -109 -26.5t-76 -75t-44 -118t-14 -155.5h454q0 86 -9.5 155.5t-33.5 118t-65 75t-103 26.5zM734 -455q-71 0 -120.5 19.5t-80.5 53.5t-45.5 78.5t-14.5 93.5q0 38 9.5 72t24.5 63t33 52.5t35 40.5h123q-8 -11 -18.5 -32 t-19.5 -48t-16 -58t-7 -63q0 -84 40 -128.5t116 -44.5q37 0 71 7.5t60 17.5v-72q-32 -22 -80.5 -37t-109.5 -15z" />
<glyph unicode="&#x131;" horiz-adv-x="642" d="M417 79l182 -28v-51h-550v51l180 28v904l-150 28v51h338v-983z" />
<glyph unicode="&#x141;" horiz-adv-x="1413" d="M49 585l212 124v717l-194 29v60h646v-60l-234 -29v-593l347 201v-106l-347 -201v-630h298q142 0 231 8t123 15l70 315h74l-21 -435h-1187v60l194 30v511l-212 -124v108z" />
<glyph unicode="&#x142;" horiz-adv-x="642" d="M23 585l204 117v826l-181 27v51h369v-796l217 127v-106l-217 -127v-625l182 -28v-51h-551v51l181 28v515l-204 -117v108z" />
<glyph unicode="&#x143;" horiz-adv-x="1671" d="M1305 1426l-203 29v60h516v-60l-194 -29v-1426h-110l-934 1363v-1273l203 -30v-60h-516v60l194 30v1336l-194 29v60h458l780 -1122v1033zM744 1641v38l222 307h240v-42l-400 -303h-62z" />
<glyph unicode="&#x144;" d="M366 976q32 18 75.5 38.5t91 37.5t95 27.5t87.5 10.5q61 0 112 -16.5t87.5 -54t57.5 -97.5t21 -145v-698l129 -28v-51h-458v51l142 28v678q0 94 -46 147.5t-142 53.5q-32 0 -67 -3.5t-68.5 -8t-63.5 -10.5t-51 -11v-846l144 -28v-51h-459v51l128 28v904l-128 28v51h303z M466 1264v38l222 307h240v-42l-400 -303h-62z" />
<glyph unicode="&#x15a;" horiz-adv-x="1287" d="M157 408h74l39 -205q22 -27 60 -51t85 -43t99 -29.5t102 -10.5q86 0 149 23t104.5 64t61.5 96t20 121q0 81 -34 134t-90 90t-127.5 62.5t-146.5 51.5t-146 57.5t-127 80t-90.5 120.5t-34.5 177q0 88 34 159.5t99.5 122t161 77.5t217.5 27q112 0 212.5 -14.5t184.5 -33.5 v-316h-73l-40 186q-49 36 -121.5 59.5t-162.5 23.5q-84 0 -144.5 -18t-100 -49t-58.5 -73.5t-19 -90.5q0 -74 34.5 -122.5t90 -83t127.5 -59.5t147 -51.5t147 -59.5t128 -84.5t90.5 -125.5t34.5 -183q0 -105 -32.5 -189.5t-97.5 -145t-162.5 -93t-229.5 -32.5 q-71 0 -138.5 7t-127.5 18.5t-111 26t-88 29.5v350zM549 1641v38l222 307h240v-42l-400 -303h-62z" />
<glyph unicode="&#x15b;" horiz-adv-x="900" d="M817 298q0 -71 -22 -130.5t-69.5 -101.5t-122.5 -65.5t-182 -23.5q-53 0 -104 6.5t-95.5 15t-77 17.5t-47.5 15v261h51l55 -148q35 -32 90.5 -54.5t130.5 -22.5q105 0 162 45.5t57 141.5q0 57 -23.5 93.5t-62 61.5t-88 41.5l-100.5 33.5t-100.5 38.5t-88 55t-62 84.5 t-23.5 127q0 72 26 128.5t73 95t112 58t143 19.5q76 0 149.5 -10.5t141.5 -24.5v-231h-53l-47 123q-30 26 -81 39.5t-108 13.5q-92 0 -140 -45t-48 -122q0 -52 24 -85.5t63 -56.5t88.5 -40t101.5 -35t102 -41.5t89 -59.5t62.5 -88t23.5 -129zM340 1264v38l222 307h240v-42 l-400 -303h-62z" />
<glyph unicode="&#x179;" horiz-adv-x="1413" d="M111 106l849 1312h-282q-148 0 -245 -6.5t-139 -15.5l-35 -239h-78v358h1031v-97l-855 -1323h328q73 0 146 4t135 10t108.5 12.5t66.5 10.5l67 289h79l-30 -421h-1146v106zM581 1641v38l222 307h240v-42l-400 -303h-62z" />
<glyph unicode="&#x17a;" horiz-adv-x="1027" d="M62 0v51l583 921h-249q-32 0 -63 -3t-59 -8t-49.5 -12.5t-32.5 -16.5l-35 -152h-53v282h784v-55l-583 -917h311q30 0 64.5 4t67 11t60 16.5t44.5 22.5l58 222h53l-28 -366h-873zM379 1264v38l222 307h240v-42l-400 -303h-62z" />
<glyph unicode="&#x17b;" horiz-adv-x="1413" d="M111 106l849 1312h-282q-148 0 -245 -6.5t-139 -15.5l-35 -239h-78v358h1031v-97l-855 -1323h328q73 0 146 4t135 10t108.5 12.5t66.5 10.5l67 289h79l-30 -421h-1146v106zM833 1786q0 -25 -9.5 -47t-26.5 -39t-40 -26.5t-47 -9.5q-25 0 -47 9.5t-39 26.5t-26.5 39 t-9.5 47t9.5 47.5t26.5 39.5t39 26.5t47 9.5q24 0 47 -9.5t40 -26.5t26.5 -39.5t9.5 -47.5z" />
<glyph unicode="&#x17c;" horiz-adv-x="1027" d="M62 0v51l583 921h-249q-32 0 -63 -3t-59 -8t-49.5 -12.5t-32.5 -16.5l-35 -152h-53v282h784v-55l-583 -917h311q30 0 64.5 4t67 11t60 16.5t44.5 22.5l58 222h53l-28 -366h-873zM648 1409q0 -25 -9.5 -47t-26.5 -39t-40 -26.5t-47 -9.5q-25 0 -47 9.5t-39 26.5t-26.5 39 t-9.5 47t9.5 47.5t26.5 39.5t39 26.5t47 9.5q24 0 47 -9.5t40 -26.5t26.5 -39.5t9.5 -47.5z" />
<glyph unicode="&#x2c6;" horiz-adv-x="770" d="M20 1264v38l247 308h240l246 -308v-38h-64l-303 207l-302 -207h-64z" />
<glyph unicode="&#x2d9;" horiz-adv-x="770" d="M511 1409q0 -25 -9.5 -47t-26.5 -39t-40 -26.5t-47 -9.5q-25 0 -47 9.5t-39 26.5t-26.5 39t-9.5 47t9.5 47.5t26.5 39.5t39 26.5t47 9.5q24 0 47 -9.5t40 -26.5t26.5 -39.5t9.5 -47.5z" />
<glyph unicode="&#x2da;" horiz-adv-x="770" d="M614 1446q0 -47 -18.5 -89t-49.5 -73t-72.5 -49t-89.5 -18q-47 0 -89 18t-73 49t-49 73t-18 89q0 48 18 89.5t49 73t73 49.5t89 18q48 0 89.5 -18t72.5 -49.5t49.5 -73t18.5 -89.5zM523 1446q0 29 -10.5 54.5t-30 44.5t-45 29.5t-53.5 10.5q-29 0 -54 -10.5t-44 -29.5 t-30 -44.5t-11 -54.5q0 -28 11 -53.5t30 -44t44 -30t54 -11.5q28 0 53.5 11.5t45 30t30 44t10.5 53.5z" />
<glyph unicode="&#x2db;" horiz-adv-x="770" d="M402 -455q-71 0 -120.5 19.5t-80.5 53.5t-45.5 78.5t-14.5 93.5q0 38 9.5 72t24.5 63t33 52.5t35 40.5h123q-8 -11 -18.5 -32t-19.5 -48t-16 -58t-7 -63q0 -84 40 -128.5t116 -44.5q37 0 71 7.5t60 17.5v-72q-32 -22 -80.5 -37t-109.5 -15z" />
<glyph unicode="&#x2dc;" horiz-adv-x="770" d="M532 1263q-54 0 -100 24.5t-86.5 54.5t-78.5 54t-75 24q-35 0 -55.5 -11.5t-32 -31.5t-17 -43.5t-8.5 -47.5h-59q4 53 15.5 102t37 87.5t66.5 61t102 22.5q54 0 99.5 -24t87 -54t79.5 -54.5t74 -24.5q34 0 54 12t32 31t17.5 43t9.5 48h59q-4 -53 -16 -102t-37 -87 t-66 -61t-102 -23z" />
<glyph unicode="&#x393;" horiz-adv-x="1337" d="M713 0h-646v60l194 29v1336l-194 30v60h1176l20 -435h-73l-70 316q-34 6 -123.5 14t-230.5 8h-287v-1329l234 -29v-60z" />
<glyph unicode="&#x3a0;" horiz-adv-x="1671" d="M67 0v60l194 30v1336l-194 29v60h1536v-60l-194 -29v-1336l194 -30v-60h-605v60l194 30v1324h-713v-1324l194 -30v-60h-606z" />
<glyph unicode="&#x401;" horiz-adv-x="1413" d="M67 60l194 30v1336l-194 29v60h1136v-362h-74l-36 245q-36 4 -87.5 7.5t-104.5 5t-100.5 2.5t-73.5 1h-248v-592h409l35 180h73v-465h-73l-35 183h-409v-618h298q71 0 133 1.5t111.5 4t85 5.5t52.5 7l65 280h74l-21 -400h-1210v60zM1022 1768q0 -47 -31.5 -80.5 t-78.5 -33.5q-24 0 -44.5 9t-35.5 25t-24 36t-9 44q0 48 32.5 80.5t80.5 32.5q47 0 78.5 -32.5t31.5 -80.5zM620 1768q0 -47 -31.5 -80.5t-79.5 -33.5q-23 0 -43.5 9t-36.5 25t-25 36t-9 44t9 44.5t25 35.5t36.5 24t43.5 9q48 0 79.5 -32.5t31.5 -80.5z" />
<glyph unicode="&#x402;" horiz-adv-x="1740" d="M1303 555q0 156 -66 236.5t-221 80.5q-61 0 -126.5 -9t-119.5 -21v-752l184 -30v-60h-598v60l195 30v1328h-57q-74 0 -129 -1.5t-96.5 -5t-71 -7.5t-49.5 -8l-30 -237h-76v356h1238v-356h-77l-30 237q-42 9 -128.5 14.5t-219.5 5.5h-55v-478q33 12 73.5 24.5t82.5 23 t85 16.5t84 6q111 0 191 -25t132 -78.5t77 -137.5t25 -203v-546q0 -103 -19.5 -181t-51 -134.5t-72.5 -94t-85 -60.5t-88.5 -32t-81.5 -9q-73 0 -132.5 9t-101.5 25v276h75l34 -157q21 -26 60.5 -41t87.5 -15q158 0 158 215v736z" />
<glyph unicode="&#x403;" horiz-adv-x="1337" d="M713 0h-646v60l194 29v1336l-194 30v60h1176l20 -435h-73l-70 316q-34 6 -123.5 14t-230.5 8h-287v-1329l234 -29v-60zM561 1641v38l222 307h240v-42l-400 -303h-62z" />
<glyph unicode="&#x404;" horiz-adv-x="1527" d="M991 729h-660q1 -169 39 -293.5t108 -207t170.5 -123.5t228.5 -41q70 0 134 9t118.5 25t98 37t73.5 44l41 226h74l-7 -356q-47 -14 -108 -27t-130 -23t-145 -16t-151 -6q-186 0 -331 52t-245 150.5t-152 240.5t-52 320q0 204 52.5 353t152.5 246.5t246 145t333 47.5 q78 0 147 -5t131.5 -13t119 -18t110.5 -21l6 -331h-74l-34 196q-79 49 -183.5 75.5t-213.5 26.5q-124 0 -223 -31.5t-170 -104t-112.5 -189.5t-49.5 -286h658v-102z" />
<glyph unicode="&#x405;" horiz-adv-x="1287" d="M157 408h74l39 -205q22 -27 60 -51t85 -43t99 -29.5t102 -10.5q86 0 149 23t104.5 64t61.5 96t20 121q0 81 -34 134t-90 90t-127.5 62.5t-146.5 51.5t-146 57.5t-127 80t-90.5 120.5t-34.5 177q0 88 34 159.5t99.5 122t161 77.5t217.5 27q112 0 212.5 -14.5t184.5 -33.5 v-316h-73l-40 186q-49 36 -121.5 59.5t-162.5 23.5q-84 0 -144.5 -18t-100 -49t-58.5 -73.5t-19 -90.5q0 -74 34.5 -122.5t90 -83t127.5 -59.5t147 -51.5t147 -59.5t128 -84.5t90.5 -125.5t34.5 -183q0 -105 -32.5 -189.5t-97.5 -145t-162.5 -93t-229.5 -32.5 q-71 0 -138.5 7t-127.5 18.5t-111 26t-88 29.5v350z" />
<glyph unicode="&#x406;" horiz-adv-x="770" d="M495 90l194 -30v-60h-605v60l194 30v1336l-194 29v60h605v-60l-194 -29v-1336z" />
<glyph unicode="&#x407;" horiz-adv-x="770" d="M495 90l194 -30v-60h-605v60l194 30v1336l-194 29v60h605v-60l-194 -29v-1336zM698 1768q0 -47 -31.5 -80.5t-78.5 -33.5q-24 0 -44.5 9t-35.5 25t-24 36t-9 44q0 48 32.5 80.5t80.5 32.5q47 0 78.5 -32.5t31.5 -80.5zM296 1768q0 -47 -31.5 -80.5t-79.5 -33.5 q-23 0 -43.5 9t-36.5 25t-25 36t-9 44t9 44.5t25 35.5t36.5 24t43.5 9q48 0 79.5 -32.5t31.5 -80.5z" />
<glyph unicode="&#x408;" horiz-adv-x="900" d="M463 1426l-194 29v60h583v-60l-172 -29v-938q0 -103 -19 -181t-50.5 -134.5t-73 -94t-85.5 -60.5t-88 -32t-82 -9q-73 0 -132.5 9t-100.5 25v276h74l34 -157q22 -26 61.5 -40.5t86.5 -14.5q158 0 158 214v1137z" />
<glyph unicode="&#x409;" horiz-adv-x="2018" d="M949 1414h-312l-30 -352q-24 -273 -55 -476.5t-77.5 -338.5t-112.5 -202.5t-160 -67.5q-51 0 -95.5 14t-77.5 40l-8 245h51l53 -101q17 -21 40.5 -31.5t49.5 -10.5q47 0 87 48t74.5 158.5t63.5 291t52 446.5l30 349l-194 29v60h1080v-60l-241 -30v-583h227 q156 0 261.5 -35t168.5 -94t89.5 -136.5t26.5 -161.5q0 -86 -27.5 -161t-92 -131.5t-171.5 -89.5t-266 -33h-628v60l194 29v1325zM1714 410q0 78 -18 139t-61.5 103.5t-115 65t-178.5 22.5h-174v-638h168q106 0 178 18t117 56t64.5 96t19.5 138z" />
<glyph unicode="&#x40a;" horiz-adv-x="2018" d="M843 1455v60h607v-60l-192 -30v-583h136q156 0 261.5 -35t168.5 -94t89.5 -136.5t26.5 -161.5q0 -86 -27.5 -161t-92 -131.5t-171.5 -89.5t-266 -33h-538v60l195 29v640h-561v-639l194 -30v-60h-606v60l194 30v1336l-194 29v60h606v-60l-194 -29v-595h561v595zM1714 410 q0 78 -18 139t-61.5 103.5t-115 65t-178.5 22.5h-83v-638h77q106 0 178 18t117 56t64.5 96t19.5 138z" />
<glyph unicode="&#x40b;" horiz-adv-x="1715" d="M356 0v60l195 30v1328h-57q-74 0 -129 -1.5t-96.5 -5t-71 -7.5t-49.5 -8l-30 -237h-76v356h1236v-356h-77l-30 237q-42 9 -127.5 14.5t-218.5 5.5h-55v-478q33 12 73.5 24.5t82.5 23t85 16.5t84 6q111 0 189.5 -24.5t128 -77.5t73 -136.5t23.5 -202.5v-478l171 -29v-60 h-538v60l150 29v469q0 78 -14.5 137t-46.5 98.5t-84.5 59t-130.5 19.5q-61 0 -126.5 -9t-119.5 -21v-752l184 -30v-60h-598z" />
<glyph unicode="&#x40c;" horiz-adv-x="1543" d="M1486 1515v-60l-175 -29l-480 -511l557 -825l163 -30v-60h-381l-498 757l-193 -173v-494l217 -30v-60h-629v60l194 30v1336l-194 29v60h606v-60l-194 -29v-720l677 720l-145 29v60h475zM663 1641v38l222 307h240v-42l-400 -303h-62z" />
<glyph unicode="&#x40e;" horiz-adv-x="1638" d="M244 1426l-171 29v60h630v-60l-192 -29l446 -782l402 782l-169 29v60h447v-60l-143 -29l-496 -936q-66 -124 -122 -219.5t-113.5 -161t-122.5 -99t-150 -33.5q-50 0 -100 14t-83 35l-10 272h51l55 -109q20 -26 51 -41t62 -15q41 0 79 17t76 53.5t76 92t79 135.5z M881 1645q-125 0 -205 25t-125.5 68.5t-63.5 101t-21 121.5h186q7 -116 65.5 -176t163.5 -60t164 60t66 176h185q-2 -64 -20.5 -121.5t-64 -101t-125 -68.5t-205.5 -25z" />
<glyph unicode="&#x40f;" horiz-adv-x="1671" d="M67 0v60l194 30v1336l-194 29v60h606v-60l-194 -29v-1324h713v1324l-194 29v60h605v-60l-194 -29v-1336l194 -30v-60h-649l-78 -493h-74l-79 493h-656z" />
<glyph unicode="&#x410;" horiz-adv-x="1671" d="M521 60v-60h-498v60l171 30l517 1438h214l537 -1438l192 -30v-60h-640v60l203 30l-150 438h-597l-152 -438zM764 1365l-260 -736h528z" />
<glyph unicode="&#x411;" horiz-adv-x="1328" d="M650 842q156 0 261 -34t167.5 -92t89 -134.5t26.5 -161.5q0 -86 -27 -162t-91.5 -133.5t-171 -91t-266.5 -33.5h-571v60l194 29v1336l-180 30v60h1018l15 -349h-73l-65 230q-17 3 -48.5 7t-74 7.5t-92.5 5.5t-104 2h-178v-576h171zM970 410q0 78 -18.5 139t-62 103.5 t-115 65t-177.5 22.5h-118v-638h111q106 0 178.5 18t117 56t64.5 96t20 138z" />
<glyph unicode="&#x412;" horiz-adv-x="1543" d="M1083 1148q0 67 -20 116.5t-64 83t-114 50t-172 16.5h-234v-573h248q105 0 174 22t109 62t56.5 96.5t16.5 126.5zM1197 432q0 79 -25.5 136.5t-79.5 95.5t-138.5 56.5t-203.5 18.5h-271v-637q52 -3 109 -4q48 -2 107 -2.5t116 -0.5q107 0 180 23.5t119 67t66.5 106 t20.5 140.5zM67 0v60l194 30v1336l-194 29v60h692q160 0 266 -24t170.5 -70.5t91.5 -112.5t27 -149q0 -71 -23 -129.5t-64.5 -103.5t-99 -74.5t-125.5 -44.5q99 -10 178.5 -39.5t135 -76.5t85.5 -111.5t30 -143.5q0 -98 -33.5 -180t-104.5 -140t-183 -90.5t-270 -32.5 q-127 0 -252.5 3.5t-231.5 3.5h-289z" />
<glyph unicode="&#x413;" horiz-adv-x="1337" d="M713 0h-646v60l194 29v1336l-194 30v60h1176l20 -435h-73l-70 316q-34 6 -123.5 14t-230.5 8h-287v-1329l234 -29v-60z" />
<glyph unicode="&#x414;" horiz-adv-x="1578" d="M1102 102v1312h-457q0 -194 -23.5 -378.5t-63 -353.5t-93 -316.5t-110.5 -263.5h747zM218 0l-110 -493h-73l-19 561l199 22q64 122 121 271.5t100.5 320t68.5 358t25 386.5l-194 29v60h1177v-60l-194 -29v-1336l203 -22l-19 -561h-74l-109 493h-1102z" />
<glyph unicode="&#x415;" horiz-adv-x="1413" d="M67 60l194 30v1336l-194 29v60h1136v-362h-74l-36 245q-36 4 -87.5 7.5t-104.5 5t-100.5 2.5t-73.5 1h-248v-592h409l35 180h73v-465h-73l-35 183h-409v-618h298q71 0 133 1.5t111.5 4t85 5.5t52.5 7l65 280h74l-21 -400h-1210v60z" />
<glyph unicode="&#x416;" horiz-adv-x="2073" d="M928 614l-166 150l-428 -764h-334v60l137 30l486 832l-412 504l-153 29v60h397v-60l-95 -29l568 -707v707l-149 29v60h516v-60l-149 -29v-707l567 707l-95 29v60h398v-60l-154 -29l-411 -504l486 -832l137 -30v-60h-335l-425 764l-168 -150v-524l172 -30v-60h-539v60 l149 30v524z" />
<glyph unicode="&#x417;" horiz-adv-x="1159" d="M1054 412q0 -102 -38.5 -183t-109 -137t-170 -85.5t-221.5 -29.5q-107 0 -208 14t-185 35l-12 319h74l49 -213q18 -11 49 -22.5t67.5 -20t74 -13.5t70.5 -5q99 0 163 26t101.5 73t51.5 112t14 142q0 88 -25 146t-68.5 93.5t-101.5 52t-125 20.5l-162 9v92l162 11 q63 3 114.5 22.5t87.5 57t55.5 92t19.5 127.5q0 147 -59.5 219t-200.5 72q-32 0 -66.5 -5t-66.5 -13.5t-60.5 -19t-46.5 -21.5l-37 -186h-74v292q79 20 164 34t191 14q113 0 203.5 -22.5t154 -68.5t96.5 -116.5t33 -164.5q0 -72 -22.5 -133.5t-66.5 -109.5t-108.5 -80 t-146.5 -45q196 -23 291 -117.5t95 -263.5z" />
<glyph unicode="&#x418;" horiz-adv-x="1671" d="M67 0v60l194 30v1336l-194 29v60h606v-60l-194 -29v-1095l713 1050v45l-194 29v60h605v-60l-194 -29v-1336l194 -30v-60h-605v60l194 30v1110l-713 -1050v-60l194 -30v-60h-606z" />
<glyph unicode="&#x419;" horiz-adv-x="1671" d="M67 0v60l194 30v1336l-194 29v60h606v-60l-194 -29v-1095l713 1050v45l-194 29v60h605v-60l-194 -29v-1336l194 -30v-60h-605v60l194 30v1110l-713 -1050v-60l194 -30v-60h-606zM838 1645q-125 0 -205 25t-125.5 68.5t-63.5 101t-21 121.5h186q7 -116 65.5 -176 t163.5 -60t164 60t66 176h185q-2 -64 -20.5 -121.5t-64 -101t-125 -68.5t-205.5 -25z" />
<glyph unicode="&#x41a;" horiz-adv-x="1543" d="M1486 1515v-60l-175 -29l-480 -511l557 -825l163 -30v-60h-381l-498 757l-193 -173v-494l217 -30v-60h-629v60l194 30v1336l-194 29v60h606v-60l-194 -29v-720l677 720l-145 29v60h475z" />
<glyph unicode="&#x41b;" horiz-adv-x="1569" d="M202 -23q-51 0 -95.5 14t-77.5 40l-8 245h51l53 -101q17 -21 40.5 -31.5t49.5 -10.5q47 0 87 48t74.5 158.5t63.5 291t52 446.5l30 349l-194 29v60h1175v-60l-194 -29v-1336l194 -30v-60h-606v60l195 30v1324h-455l-30 -352q-24 -273 -55 -476.5t-77.5 -338.5 t-112.5 -202.5t-160 -67.5z" />
<glyph unicode="&#x41c;" horiz-adv-x="2057" d="M974 0h-39l-555 1303v-1213l203 -30v-60h-516v60l194 30v1336l-194 29v60h458l493 -1152l538 1152h434v-60l-194 -29v-1336l194 -30v-60h-615v60l204 30v1213z" />
<glyph unicode="&#x41d;" horiz-adv-x="1671" d="M67 0v60l194 30v1336l-194 29v60h606v-60l-194 -29v-595h713v595l-194 29v60h605v-60l-194 -29v-1336l194 -30v-60h-605v60l194 30v639h-713v-639l194 -30v-60h-606z" />
<glyph unicode="&#x41e;" horiz-adv-x="1671" d="M331 759q0 -158 24 -285.5t81.5 -218t154.5 -139.5t244 -49t244 49t155.5 139.5t82 218t23.5 285.5q0 157 -23.5 284t-82 215.5t-155.5 136t-244 47.5t-244 -47.5t-154.5 -136t-81.5 -215.5t-24 -284zM95 759q0 201 49 347t143 241t232 140t316 45q173 0 310.5 -45 t233.5 -140t146.5 -241t50.5 -347t-50.5 -348.5t-146.5 -243.5t-233.5 -143t-310.5 -47t-309.5 47t-232.5 143t-147 243.5t-51 348.5z" />
<glyph unicode="&#x41f;" horiz-adv-x="1671" d="M67 0v60l194 30v1336l-194 29v60h1536v-60l-194 -29v-1336l194 -30v-60h-605v60l194 30v1324h-713v-1324l194 -30v-60h-606z" />
<glyph unicode="&#x420;" horiz-adv-x="1287" d="M970 1067q0 90 -20 155.5t-64.5 108t-117 63t-178.5 20.5h-111v-718h118q106 0 177.5 25.5t115 73t62 116.5t18.5 156zM479 594v-504l241 -30v-60h-639v60l180 30v1336l-194 29v60h571q160 0 266.5 -34.5t171 -95t91.5 -141.5t27 -175q0 -93 -26.5 -178.5t-89 -151.5 t-167.5 -105.5t-261 -39.5h-171z" />
<glyph unicode="&#x421;" horiz-adv-x="1543" d="M875 -23q-186 0 -331 52t-245 150.5t-152 240.5t-52 320q0 204 52.5 353t152.5 246.5t246 145t333 47.5q78 0 147 -5t131.5 -13t119 -18t110.5 -21l6 -331h-74l-34 196q-79 49 -183.5 75.5t-213.5 26.5q-132 0 -235.5 -36t-174.5 -118t-109 -216t-38 -330 q0 -171 37.5 -298.5t107.5 -211.5t171 -126t230 -42q70 0 134 9t118.5 25t98 37t73.5 44l41 226h74l-7 -356q-47 -14 -108 -27t-130 -23t-145 -16t-151 -6z" />
<glyph unicode="&#x422;" horiz-adv-x="1413" d="M356 0v60l241 30v1328h-58q-148 0 -248.5 -6.5t-142.5 -15.5l-30 -237h-76v356h1333v-356h-77l-30 237q-20 4 -60.5 7.5t-93.5 6t-115.5 4.5t-128.5 2h-55v-1326l240 -30v-60h-699z" />
<glyph unicode="&#x423;" horiz-adv-x="1638" d="M244 1426l-171 29v60h630v-60l-192 -29l446 -782l402 782l-169 29v60h447v-60l-143 -29l-496 -936q-66 -124 -122 -219.5t-113.5 -161t-122.5 -99t-150 -33.5q-50 0 -100 14t-83 35l-10 272h51l55 -109q20 -26 51 -41t62 -15q41 0 79 17t76 53.5t76 92t79 135.5z" />
<glyph unicode="&#x424;" horiz-adv-x="1828" d="M1023 90l194 -30v-60h-606v60l195 30v161h-110q-115 0 -204.5 22t-156.5 60.5t-113 90.5t-74.5 110.5t-41 122t-12.5 125.5t13 123.5t42.5 117.5t76 104t115 83t159.5 55t209 20h97v141l-195 29v60h606v-60l-194 -29v-141h98q117 0 208 -20t159.5 -55t115.5 -83 t76.5 -104t42.5 -117.5t13 -123.5t-12.5 -125.5t-41.5 -122t-74.5 -110.5t-113 -90.5t-156.5 -60.5t-205 -22h-110v-161zM1078 339q123 0 206.5 36t133.5 97t71.5 141t21.5 167q0 90 -22.5 166.5t-74.5 132.5t-136.5 87.5t-207.5 31.5h-47v-859h55zM319 780q0 -87 21.5 -167 t71 -141t132.5 -97t207 -36h55v859h-47q-123 0 -207 -31.5t-136 -87.5t-74.5 -132.5t-22.5 -166.5z" />
<glyph unicode="&#x425;" horiz-adv-x="1671" d="M358 90l188 -30v-60h-495v60l167 30l515 685l-439 651l-171 29v60h625v-60l-192 -29l314 -468l352 468l-188 29v60h496v-60l-167 -29l-426 -567l521 -769l171 -30v-60h-624v60l192 30l-398 588z" />
<glyph unicode="&#x426;" horiz-adv-x="1671" d="M1409 90l204 -22l-20 -561h-73l-121 493h-1332v60l194 30v1336l-194 29v60h606v-60l-194 -29v-1324h713v1324l-194 29v60h605v-60l-194 -29v-1336z" />
<glyph unicode="&#x427;" horiz-adv-x="1504" d="M1437 0h-628v60l217 30v508q-30 -12 -77 -27t-101.5 -29t-112 -24.5t-109.5 -10.5q-116 0 -198 27.5t-133.5 84.5t-75.5 145t-24 210v452l-171 29v60h583v-60l-195 -29v-451q0 -85 15 -147.5t49.5 -103t91.5 -61t141 -20.5q40 0 83.5 5t86 13t80.5 17t67 16v732l-194 29 v60h605v-60l-194 -29v-1336l194 -30v-60z" />
<glyph unicode="&#x428;" horiz-adv-x="2334" d="M67 0v60l194 30v1336l-194 29v60h606v-60l-194 -29v-1324h580v1324l-195 29v60h606v-60l-194 -29v-1324h581v1324l-195 29v60h606v-60l-194 -29v-1336l194 -30v-60h-2201z" />
<glyph unicode="&#x429;" horiz-adv-x="2334" d="M2074 90l203 -22l-19 -561h-74l-121 493h-1996v60l194 30v1336l-194 29v60h606v-60l-194 -29v-1324h580v1324l-195 29v60h606v-60l-194 -29v-1324h581v1324l-195 29v60h606v-60l-194 -29v-1336z" />
<glyph unicode="&#x42a;" horiz-adv-x="1633" d="M1557 419q0 -86 -27 -162t-91.5 -133t-171 -90.5t-266.5 -33.5h-572v60l195 29v1329h-58q-148 -2 -248.5 -7.5t-142.5 -14.5l-30 -237h-76v356h1014v-60l-241 -30v-583h170q156 0 261.5 -34.5t168 -92t89 -134.5t26.5 -162zM1332 410q0 78 -18 139t-61.5 103.5t-115 65 t-178.5 22.5h-117v-638h111q106 0 178 18t117 56t64.5 96t19.5 138z" />
<glyph unicode="&#x42b;" horiz-adv-x="2018" d="M1026 410q0 78 -18 139t-61.5 103.5t-115.5 65t-178 22.5h-174v-638h167q107 0 179 18t116.5 56t64.5 96t20 138zM706 842q156 0 261 -35t168.5 -94t90 -136.5t26.5 -161.5q0 -86 -27.5 -161t-92 -131.5t-171.5 -89.5t-266 -33h-628v60l194 29v1336l-180 30v60h639v-60 l-241 -30v-583h227zM1754 90l194 -30v-60h-606v60l195 30v1336l-195 29v60h606v-60l-194 -29v-1336z" />
<glyph unicode="&#x42c;" horiz-adv-x="1328" d="M1026 410q0 78 -18 139t-61.5 103.5t-115.5 65t-178 22.5h-174v-638h167q107 0 179 18t116.5 56t64.5 96t20 138zM706 842q156 0 261 -35t168.5 -94t90 -136.5t26.5 -161.5q0 -86 -27.5 -161t-92 -131.5t-171.5 -89.5t-266 -33h-628v60l194 29v1336l-180 30v60h639v-60 l-241 -30v-583h227z" />
<glyph unicode="&#x42d;" horiz-adv-x="1527" d="M653 -23q-154 0 -288 21.5t-231 50.5l-6 356h73l42 -226q60 -47 163.5 -81t244.5 -34q126 0 225.5 41.5t169.5 124.5t108 208t40 291h-655v102h655q-6 171 -43 288t-103 189t-161.5 103t-219.5 31q-109 0 -213.5 -26.5t-183.5 -75.5l-34 -196h-74l6 331q53 11 109.5 21 t119.5 18t132 13t147 5q187 0 328.5 -45t236.5 -139.5t143 -241.5t48 -350q0 -179 -52 -323t-151.5 -245t-245 -156t-330.5 -55z" />
<glyph unicode="&#x42e;" horiz-adv-x="2378" d="M479 831h415q8 181 57.5 314t137.5 219t213.5 127t285.5 41q162 0 291 -45t219 -140t138 -241t48 -347t-48 -348.5t-138 -243.5t-219 -143t-291 -47q-160 0 -286.5 45.5t-216 137.5t-139.5 234t-53 335h-414v-639l194 -30v-60h-606v60l194 30v1336l-194 29v60h606v-60 l-194 -29v-595zM1129 759q0 -158 21.5 -285.5t74 -218t141 -139.5t222.5 -49q133 0 221.5 49t141 139.5t75 218t22.5 285.5q0 157 -22.5 284t-75 215.5t-141 136t-221.5 47.5q-134 0 -222.5 -47.5t-141 -136t-74 -215.5t-21.5 -284z" />
<glyph unicode="&#x42f;" horiz-adv-x="1543" d="M738 664l-366 -664h-363v60l171 30l345 604q-61 18 -115 53t-93.5 87t-62.5 121t-23 156q0 94 30.5 168.5t98 127t177 80.5t269.5 28h671v-60l-194 -29v-1336l179 -30v-60h-627v60l229 30v574h-326zM455 1095q0 -87 19.5 -149t63.5 -102.5t115 -59t175 -18.5h236v648 h-210q-101 0 -176.5 -16t-124.5 -53.5t-73.5 -98.5t-24.5 -151z" />
<glyph unicode="&#x430;" horiz-adv-x="1027" d="M525 1086q73 0 135 -13.5t107 -46.5t70.5 -89t25.5 -140v-718l133 -28v-51h-292l-21 106q-17 -17 -46 -39.5t-69.5 -42t-94.5 -33.5t-119 -14q-77 0 -129.5 24t-84.5 66.5t-45.5 100.5t-13.5 126q0 70 17 121.5t47.5 86.5t72 57t89.5 34.5t101.5 17t107.5 5.5l160 4v166 q0 48 -8 87t-26.5 67t-50.5 44t-79 16q-54 0 -109.5 -14.5t-97.5 -38.5l-38 -132h-64v231q74 16 152.5 28t169.5 12zM676 541l-148 -4q-67 -3 -115.5 -13.5t-80 -36.5t-47.5 -71t-16 -115q0 -199 162 -199q76 0 132 17.5t113 44.5v377z" />
<glyph unicode="&#x431;" horiz-adv-x="1177" d="M108 653q0 199 23.5 357t81.5 272t156 181.5t247 85.5q70 8 134 15.5t114 18.5t84 28t46 46h57q-3 -90 -31.5 -140t-83.5 -78.5t-136 -41t-191 -25.5q-122 -15 -192 -46.5t-107.5 -90.5t-50.5 -150.5t-19 -225.5h7q17 47 48.5 89.5t77 73.5t104.5 49.5t131 18.5 q240 0 360.5 -140.5t120.5 -412.5q0 -270 -120.5 -415t-376.5 -145q-239 0 -361.5 165.5t-122.5 510.5zM886 537q0 109 -14.5 195.5t-49 146t-91 90.5t-139.5 31q-84 0 -138 -31t-85.5 -90.5t-44 -146t-12.5 -195.5q0 -111 16.5 -198t50 -147.5t87 -92.5t126.5 -32 q83 0 139.5 32t91 92.5t49 147.5t14.5 198z" />
<glyph unicode="&#x432;" horiz-adv-x="1092" d="M42 0v51l141 28v904l-141 28v51h454q103 0 187 -10.5t144 -39.5t93 -78.5t33 -127.5q0 -109 -62 -167.5t-175 -84.5v-9q144 -16 221 -73.5t77 -173.5q0 -77 -26 -132.5t-84.5 -92.5t-152 -55t-229.5 -18h-480zM505 90q74 0 131 10t96 34t58.5 65.5t19.5 103.5 q0 59 -21 98t-61.5 61t-100.5 31t-137 9h-119v-412h134zM371 592h119q77 0 127.5 13.5t80 39.5t40.5 63t11 83q0 92 -62.5 136.5t-200.5 44.5h-115v-380z" />
<glyph unicode="&#x433;" horiz-adv-x="949" d="M889 759h-62l-48 188q-40 7 -100.5 14t-124.5 7h-183v-889l174 -28v-51h-503v51l141 28v904l-141 28v51h847v-303z" />
<glyph unicode="&#x434;" horiz-adv-x="1177" d="M262 1011v51h827v-51l-129 -28v-904l165 -18l-19 -508h-73l-98 447h-744l-98 -447h-74l-19 508l167 21q44 84 83 186t71 216.5t53.5 240.5t30.5 258zM286 94h487v889h-271q-8 -131 -27.5 -256t-47.5 -238.5t-64 -213.5t-77 -181z" />
<glyph unicode="&#x435;" horiz-adv-x="1027" d="M294 534v-20q0 -82 12 -158t47.5 -134t100 -92.5t169.5 -34.5q34 0 71 3t74.5 7.5t72.5 10t64 12.5v-64q-26 -17 -62.5 -32t-80.5 -27.5t-94 -20t-101 -7.5q-132 0 -223 36.5t-147.5 107.5t-81.5 176t-25 242q0 278 116.5 414.5t332.5 136.5q85 0 159 -22.5t129.5 -75.5 t87.5 -142.5t32 -222.5v-93h-653zM539 1000q-63 0 -109 -26.5t-76 -75t-44 -118t-14 -155.5h454q0 86 -9.5 155.5t-33.5 118t-65 75t-103 26.5z" />
<glyph unicode="&#x436;" horiz-adv-x="1598" d="M712 419l-145 115l-325 -534h-251v51l86 26l373 586l-287 322l-114 26v51h345v-51l-99 -30l417 -468v470l-96 28v51h367v-51l-95 -28v-470l417 468l-99 30v51h345v-51l-114 -26l-287 -322l373 -586l86 -26v-51h-251l-325 534l-145 -115v-340l95 -28v-51h-367v51l96 28 v340z" />
<glyph unicode="&#x437;" horiz-adv-x="914" d="M616 549q48 -8 88.5 -29t69.5 -51.5t45.5 -68.5t16.5 -81q0 -168 -116.5 -255t-353.5 -87q-44 0 -90.5 7t-87 17.5t-73.5 25.5t-49 31v67q46 -13 112.5 -21.5t136.5 -8.5q94 0 155.5 17t98 46.5t50.5 69.5t14 86q0 49 -19.5 84t-51 57.5t-72.5 34t-85 11.5h-136v93h137 q55 0 94.5 16t65.5 42.5t38.5 62t12.5 76.5q0 103 -50.5 156t-169.5 53q-47 0 -96.5 -14.5t-82.5 -38.5l-41 -154h-62v262q64 14 134.5 24.5t155.5 10.5q213 0 310 -68.5t97 -215.5q0 -92 -54 -154.5t-142 -95.5v-7z" />
<glyph unicode="&#x438;" horiz-adv-x="1238" d="M183 983l-141 28v51h457v-51l-128 -28v-668l497 538v130l-141 28v51h457v-51l-129 -28v-904l129 -28v-51h-457v51l141 28v646l-497 -537v-109l128 -28v-51h-457v51l141 28v904z" />
<glyph unicode="&#x439;" horiz-adv-x="1238" d="M183 983l-141 28v51h457v-51l-128 -28v-668l497 538v130l-141 28v51h457v-51l-129 -28v-904l129 -28v-51h-457v51l141 28v646l-497 -537v-109l128 -28v-51h-457v51l141 28v904zM615 1268q-125 0 -205 25t-125.5 68.5t-63.5 101t-21 121.5h186q7 -116 65.5 -176t163.5 -60 t164 60t66 176h185q-2 -64 -20.5 -121.5t-64 -101t-125 -68.5t-205.5 -25z" />
<glyph unicode="&#x43a;" horiz-adv-x="1124" d="M183 983l-141 28v51h457v-51l-128 -28v-470l434 468l-111 30v51h375v-51l-132 -26l-303 -309l389 -599l104 -26v-51h-424v51l97 28l-292 458l-137 -118v-340l128 -28v-51h-457v51l141 28v904z" />
<glyph unicode="&#x43b;" horiz-adv-x="1154" d="M164 97q24 0 45.5 29.5t43.5 98.5t45 181.5t49 277.5l47 299l-148 28v51h855v-51l-129 -28v-904l129 -28v-51h-458v51l141 28v889h-288l-49 -315q-23 -154 -46.5 -278.5t-55.5 -213t-80 -136.5t-120 -48q-38 0 -69 12t-47 26l-6 184h50l35 -60q7 -12 22.5 -27t33.5 -15z " />
<glyph unicode="&#x43c;" horiz-adv-x="1464" d="M183 983l-130 28v51h376l305 -769l312 769h364v-51l-129 -28v-904l129 -28v-51h-435v51l119 28v846l-375 -925h-61l-366 922v-843l106 -28v-51h-345v51l130 28v904z" />
<glyph unicode="&#x43d;" horiz-adv-x="1238" d="M183 983l-141 28v51h457v-51l-128 -28v-393h497v393l-141 28v51h457v-51l-129 -28v-904l129 -28v-51h-457v51l141 28v417h-497v-417l128 -28v-51h-457v51l141 28v904z" />
<glyph unicode="&#x43e;" d="M1069 537q0 -270 -121 -415t-376 -145q-240 0 -362 143.5t-122 416.5q0 269 122 411t371 142q242 0 365 -139.5t123 -413.5zM866 537q0 109 -15 195.5t-49.5 146t-91 90.5t-138.5 31q-84 0 -138 -31t-86 -90.5t-44 -146t-12 -195.5q0 -111 12 -198t44 -147.5t86 -92.5 t138 -32q82 0 138.5 32t91 92.5t49.5 147.5t15 198z" />
<glyph unicode="&#x43f;" horiz-adv-x="1238" d="M183 983l-141 28v51h1142v-51l-129 -28v-904l129 -28v-51h-457v51l141 28v889h-497v-889l128 -28v-51h-457v51l141 28v904z" />
<glyph unicode="&#x440;" d="M172 983l-121 28v51h298l2 -62q24 20 56.5 36.5t69.5 28.5t79 18.5t85 6.5q99 0 178 -35t134.5 -104.5t84.5 -171.5t29 -235q0 -130 -29.5 -234.5t-88.5 -179t-147.5 -114t-207.5 -39.5q-57 0 -121 6.5t-122 18.5q2 -13 3.5 -30.5t2 -36.5t1 -34.5t0.5 -25.5v-287 l186 -28v-53h-507v53l135 28v1395zM863 544q0 115 -19 196.5t-56 132.5t-90 75t-119 24q-55 0 -116.5 -9.5t-104.5 -27.5v-849q48 -9 105.5 -14t115.5 -5q149 0 216.5 123.5t67.5 353.5z" />
<glyph unicode="&#x441;" horiz-adv-x="1027" d="M956 64q-29 -21 -70 -37.5t-87 -27t-96.5 -16.5t-97.5 -6q-138 0 -236 38t-160 110.5t-91.5 177t-29.5 236.5q0 145 38 249.5t105.5 171.5t161 98.5t204.5 31.5q91 0 177 -10.5t156 -24.5v-296h-62l-49 188q-42 24 -101 38.5t-124 14.5q-73 0 -129 -26.5t-95 -83 t-58.5 -143.5t-19.5 -208q0 -102 16.5 -184t59.5 -139.5t116 -89t185 -31.5q38 0 78.5 3t78 8t71 11.5t59.5 14.5v-68z" />
<glyph unicode="&#x442;" horiz-adv-x="1011" d="M977 1062v-303h-62l-48 188q-40 7 -100.5 14t-124.5 7h-43v-889l151 -28v-51h-503v51l164 28v889h-41q-65 0 -125.5 -7t-99.5 -14l-49 -188h-62v303h943z" />
<glyph unicode="&#x443;" d="M1037 988l-414 -1055q-37 -91 -74 -170t-83 -137.5t-104.5 -91.5t-136.5 -33q-30 0 -52 1t-41 3.5t-38 6t-43 9.5v229h53l37 -108q35 -26 97 -26q49 0 88.5 21.5t73 60.5t60.5 92t52 117l29 82l-404 994l-109 28v51h493v-51l-167 -30l287 -743l278 745l-166 28v51h395 v-51z" />
<glyph unicode="&#x444;" horiz-adv-x="1499" d="M1017 -23q-46 0 -96.5 15t-84.5 34q1 -14 3 -36.5t2.5 -47t1 -45.5t0.5 -31v-278l140 -28v-53h-459v53l135 28v276q0 51 1 101.5t3 89.5q-17 -12 -39 -25.5t-49.5 -25t-60.5 -19.5t-71 -8q-358 0 -358 544q0 132 24.5 237.5t74 179.5t124 113t173.5 39q47 0 96 -13.5 t87 -28.5q0 14 -1 42t-2 57.5t-1.5 58.5t-0.5 46v276l-130 27v51h314v-388q0 -13 -0.5 -46.5t-1.5 -67.5q-1 -40 -1 -86q39 28 98 50t130 22q163 0 255 -139.5t92 -406.5q0 -130 -26 -234.5t-76.5 -179t-124.5 -114t-171 -39.5zM288 521q0 -119 15 -202t42.5 -135.5 t66.5 -76t86 -23.5q50 0 90 11.5t71 28.5v847q-36 11 -74 16.5t-80 5.5q-107 0 -162 -118.5t-55 -353.5zM1214 544q0 115 -15 198.5t-42 136.5t-66 78.5t-89 25.5q-39 0 -82.5 -9.5t-76.5 -25.5v-843q12 -7 30.5 -13t40 -10.5t44.5 -7.5t44 -3q111 0 161.5 121.5t50.5 351.5 z" />
<glyph unicode="&#x445;" d="M1005 75l124 -24v-51h-482v51l142 26l-245 376l-287 -378l145 -24v-51h-382v51l124 18l349 461l-308 453l-125 28v51h481v-51l-141 -30l205 -305l235 307l-146 28v51h382v-51l-122 -23l-299 -387z" />
<glyph unicode="&#x446;" horiz-adv-x="1238" d="M42 0v51l141 28v904l-141 28v51h457v-51l-128 -28v-889h497v889l-141 28v51h457v-51l-129 -28v-904l131 -18l-19 -508h-73l-110 447h-942z" />
<glyph unicode="&#x447;" horiz-adv-x="1163" d="M364 624q0 -33 10.5 -62.5t31 -51.5t51 -34.5t70.5 -12.5q63 0 132 11t133 27v482l-141 28v51h458v-51l-129 -28v-904l129 -28v-51h-458v51l141 28v358q-39 -19 -82.5 -38t-88.5 -34.5t-90 -24.5t-89 -9q-78 0 -129.5 25.5t-81.5 66t-42.5 92.5t-12.5 105v363l-141 28v51 h458v-51l-129 -28v-359z" />
<glyph unicode="&#x448;" horiz-adv-x="1782" d="M40 0v51l141 28v904l-141 28v51h457v-51l-129 -28v-889h428v889l-142 28v51h458v-51l-129 -28v-889h426v889l-141 28v51h458v-51l-129 -28v-904l141 -28v-51h-1698z" />
<glyph unicode="&#x449;" horiz-adv-x="1782" d="M40 0v51l141 28v904l-141 28v51h457v-51l-129 -28v-889h428v889l-142 28v51h458v-51l-129 -28v-889h426v889l-141 28v51h458v-51l-129 -28v-904l131 -18l-19 -542h-74l-109 481h-1486z" />
<glyph unicode="&#x44a;" horiz-adv-x="1196" d="M675 1062v-51l-142 -28v-391h112q127 0 217.5 -17t149 -51.5t86 -88t27.5 -127.5q0 -80 -24 -138t-81 -96t-150 -56t-228 -18h-437v51l141 28v889q-57 -1 -106 -3t-89 -8l-48 -198h-62v303h634zM625 90q70 0 125.5 10t93 34t58 65.5t20.5 103.5q0 59 -19 98t-56.5 61 t-93.5 31t-128 9h-92v-412h92z" />
<glyph unicode="&#x44b;" horiz-adv-x="1554" d="M485 90q70 0 125.5 10t93 34t58 65.5t20.5 103.5q0 59 -19 98t-56.5 61t-93.5 31t-128 9h-114v-412h114zM512 1062v-51l-141 -28v-391h134q127 0 217 -17t149 -51.5t86.5 -88t27.5 -127.5q0 -80 -24 -138t-81 -96t-150 -56t-228 -18h-460v51l141 28v904l-141 28v51h470z M1184 983l-141 28v51h458v-51l-129 -28v-904l129 -28v-51h-458v51l141 28v904z" />
<glyph unicode="&#x44c;" horiz-adv-x="1055" d="M485 90q70 0 125.5 10t93 34t58 65.5t20.5 103.5q0 59 -19 98t-56.5 61t-93.5 31t-128 9h-114v-412h114zM512 1062v-51l-141 -28v-391h134q127 0 217 -17t149 -51.5t86.5 -88t27.5 -127.5q0 -80 -24 -138t-81 -96t-150 -56t-228 -18h-460v51l141 28v904l-141 28v51h470z " />
<glyph unicode="&#x44d;" horiz-adv-x="993" d="M246 594h455q-8 204 -77.5 305t-207.5 101q-59 0 -112 -14.5t-89 -38.5l-45 -188h-63v296q70 14 147 24.5t169 10.5q109 0 198.5 -31t152.5 -97t97 -169.5t34 -247.5q0 -133 -34.5 -238.5t-103 -178.5t-171.5 -112t-240 -39q-95 0 -168.5 24.5t-109.5 56.5v67 q52 -14 117.5 -22t142.5 -8q98 0 166 29t110.5 82t62.5 128t24 167h-455v93z" />
<glyph unicode="&#x44e;" horiz-adv-x="1728" d="M1641 537q0 -270 -121 -415t-376 -145q-232 0 -353 132.5t-130 386.5h-291v-417l128 -28v-51h-457v51l141 28v904l-141 28v51h457v-51l-128 -28v-393h291q11 244 133 372t359 128q241 0 364.5 -139.5t123.5 -413.5zM1437 537q0 109 -14.5 195.5t-49 146t-91 90.5 t-138.5 31q-84 0 -138.5 -31t-86 -90.5t-44 -146t-12.5 -195.5q0 -111 12.5 -198t44 -147.5t86 -92.5t138.5 -32q82 0 138.5 32t91 92.5t49 147.5t14.5 198z" />
<glyph unicode="&#x44f;" horiz-adv-x="1064" d="M264 0h-257v51l91 26l252 413q-113 26 -175.5 101t-62.5 183q0 81 32.5 136t92 89t142.5 48.5t183 14.5h461v-51l-142 -28v-904l142 -28v-51h-468v51l139 29v377h-165zM694 972h-115q-138 0 -201 -51.5t-63 -152.5q0 -46 12 -86t41 -70t75.5 -47.5t118.5 -17.5h132v425z " />
<glyph unicode="&#x451;" horiz-adv-x="1027" d="M294 534v-20q0 -82 12 -158t47.5 -134t100 -92.5t169.5 -34.5q34 0 71 3t74.5 7.5t72.5 10t64 12.5v-64q-26 -17 -62.5 -32t-80.5 -27.5t-94 -20t-101 -7.5q-132 0 -223 36.5t-147.5 107.5t-81.5 176t-25 242q0 278 116.5 414.5t332.5 136.5q85 0 159 -22.5t129.5 -75.5 t87.5 -142.5t32 -222.5v-93h-653zM539 1000q-63 0 -109 -26.5t-76 -75t-44 -118t-14 -155.5h454q0 86 -9.5 155.5t-33.5 118t-65 75t-103 26.5zM871 1349q0 -47 -31.5 -80.5t-78.5 -33.5q-24 0 -44.5 9t-35.5 25t-24 36t-9 44q0 48 32.5 80.5t80.5 32.5q47 0 78.5 -32.5 t31.5 -80.5zM469 1349q0 -47 -31.5 -80.5t-79.5 -33.5q-23 0 -43.5 9t-36.5 25t-25 36t-9 44t9 44.5t25 35.5t36.5 24t43.5 9q48 0 79.5 -32.5t31.5 -80.5z" />
<glyph unicode="&#x452;" horiz-adv-x="1117" d="M25 1347h156v181l-158 27v51h345v-259h295v-94h-295v-130q0 -16 -0.5 -38.5t-1 -46.5t-2 -47t-4.5 -37q32 18 77.5 38t94.5 37t98 28t90 11q61 0 112 -17t87.5 -54.5t57.5 -97t21 -144.5v-799q0 -120 -24.5 -205t-69 -139.5t-106 -79.5t-136.5 -25q-50 0 -86 6t-78 15 v225h53l31 -124q37 -31 94 -31q66 0 100 71t34 229v843q0 94 -45.5 144.5t-141.5 50.5q-32 0 -67.5 -3.5t-70.5 -8t-65.5 -11t-51.5 -10.5v-824l144 -28v-51h-466v51l135 28v1174h-156v94z" />
<glyph unicode="&#x453;" horiz-adv-x="949" d="M889 759h-62l-48 188q-40 7 -100.5 14t-124.5 7h-183v-889l174 -28v-51h-503v51l141 28v904l-141 28v51h847v-303zM320 1264v38l222 307h240v-42l-400 -303h-62z" />
<glyph unicode="&#x454;" horiz-adv-x="993" d="M956 64q-29 -21 -70 -37.5t-87 -27t-96.5 -16.5t-97.5 -6q-138 0 -236 38t-160 110.5t-91.5 177t-29.5 236.5q0 145 38 249.5t105.5 171.5t161 98.5t204.5 31.5q91 0 177 -10.5t156 -24.5v-296h-62l-49 188q-42 24 -101 38.5t-124 14.5q-136 0 -213.5 -95.5t-87.5 -303.5 h386v-90h-387q2 -95 20.5 -172t61.5 -131t114.5 -83.5t180.5 -29.5q38 0 78.5 3t78 8t71 11.5t59.5 14.5v-68z" />
<glyph unicode="&#x455;" horiz-adv-x="900" d="M817 298q0 -71 -22 -130.5t-69.5 -101.5t-122.5 -65.5t-182 -23.5q-53 0 -104 6.5t-95.5 15t-77 17.5t-47.5 15v261h51l55 -148q35 -32 90.5 -54.5t130.5 -22.5q105 0 162 45.5t57 141.5q0 57 -23.5 93.5t-62 61.5t-88 41.5l-100.5 33.5t-100.5 38.5t-88 55t-62 84.5 t-23.5 127q0 72 26 128.5t73 95t112 58t143 19.5q76 0 149.5 -10.5t141.5 -24.5v-231h-53l-47 123q-30 26 -81 39.5t-108 13.5q-92 0 -140 -45t-48 -122q0 -52 24 -85.5t63 -56.5t88.5 -40t101.5 -35t102 -41.5t89 -59.5t62.5 -88t23.5 -129z" />
<glyph unicode="&#x456;" horiz-adv-x="642" d="M428 1409q0 -25 -9.5 -47t-26.5 -39t-39.5 -26.5t-47.5 -9.5t-47 9.5t-39 26.5t-26.5 39t-9.5 47t9.5 47.5t26.5 39.5t39 26.5t47 9.5t47.5 -9.5t39.5 -26.5t26.5 -39.5t9.5 -47.5zM417 79l182 -28v-51h-550v51l180 28v904l-150 28v51h338v-983z" />
<glyph unicode="&#x457;" horiz-adv-x="642" d="M417 79l182 -28v-51h-550v51l180 28v904l-150 28v51h338v-983zM637 1349q0 -47 -31.5 -80.5t-78.5 -33.5q-24 0 -44.5 9t-35.5 25t-24 36t-9 44q0 48 32.5 80.5t80.5 32.5q47 0 78.5 -32.5t31.5 -80.5zM235 1349q0 -47 -31.5 -80.5t-79.5 -33.5q-23 0 -43.5 9t-36.5 25 t-25 36t-9 44t9 44.5t25 35.5t36.5 24t43.5 9q48 0 79.5 -32.5t31.5 -80.5z" />
<glyph unicode="&#x458;" horiz-adv-x="642" d="M444 1409q0 -25 -9.5 -47t-26.5 -39t-39 -26.5t-47 -9.5q-26 0 -48 9.5t-39 26.5t-26.5 39t-9.5 47t9.5 47.5t26.5 39.5t39 26.5t48 9.5q25 0 47 -9.5t39 -26.5t26.5 -39.5t9.5 -47.5zM433 -44q0 -120 -24.5 -205t-69 -139.5t-106 -79.5t-136.5 -25q-50 0 -86 6t-78 15 v225h53l31 -124q37 -31 94 -31q66 0 100 71t34 229v1085l-159 28v51h347v-1106z" />
<glyph unicode="&#x459;" horiz-adv-x="1682" d="M145 -23q-38 0 -69 12t-47 26l-6 184h50l35 -60q7 -12 22.5 -27t33.5 -15q24 0 45.5 29.5t43.5 98.5t45 181.5t49 277.5l47 299l-148 28v51h892v-51l-141 -28v-391h134q127 0 217 -17t149 -51.5t86.5 -88t27.5 -127.5q0 -80 -24 -138t-81 -96t-150 -56t-228 -18h-460v51 l141 28v889h-313l-49 -315q-23 -154 -46.5 -278.5t-55.5 -213t-80 -136.5t-120 -48zM1111 90q70 0 125.5 10t93 34t58 65.5t20.5 103.5q0 59 -19 98t-56.5 61t-93.5 31t-128 9h-114v-412h114z" />
<glyph unicode="&#x45a;" horiz-adv-x="1673" d="M1128 1062v-51l-142 -28v-391h135q127 0 217 -17t149 -51.5t86.5 -88t27.5 -127.5q0 -80 -24 -138t-81.5 -96t-150 -56t-227.5 -18h-460v51l141 28v417h-428v-417l128 -28v-51h-457v51l141 28v904l-141 28v51h457v-51l-128 -28v-393h428v393l-141 28v51h470zM1101 90 q70 0 125 10t93 34t58.5 65.5t20.5 103.5q0 59 -19.5 98t-56.5 61t-93 31t-128 9h-115v-412h115z" />
<glyph unicode="&#x45b;" d="M25 1347h156v181l-158 27v51h345v-259h295v-94h-295v-130q0 -16 -0.5 -38.5t-1 -46.5t-2 -47t-4.5 -37q32 18 77.5 38t94.5 37t98 28t90 11q61 0 112 -17t87.5 -54.5t57.5 -97t21 -144.5v-676l129 -28v-51h-458v51l141 28v662q0 94 -45.5 144.5t-141.5 50.5 q-32 0 -67.5 -3.5t-70.5 -8t-65.5 -11t-51.5 -10.5v-824l144 -28v-51h-466v51l135 28v1174h-156v94z" />
<glyph unicode="&#x45c;" horiz-adv-x="1124" d="M183 983l-141 28v51h457v-51l-128 -28v-470l434 468l-111 30v51h375v-51l-132 -26l-303 -309l389 -599l104 -26v-51h-424v51l97 28l-292 458l-137 -118v-340l128 -28v-51h-457v51l141 28v904zM422 1264v38l222 307h240v-42l-400 -303h-62z" />
<glyph unicode="&#x45e;" d="M1037 988l-414 -1055q-37 -91 -74 -170t-83 -137.5t-104.5 -91.5t-136.5 -33q-30 0 -52 1t-41 3.5t-38 6t-43 9.5v229h53l37 -108q35 -26 97 -26q49 0 88.5 21.5t73 60.5t60.5 92t52 117l29 82l-404 994l-109 28v51h493v-51l-167 -30l287 -743l278 745l-166 28v51h395 v-51zM591 1268q-125 0 -205 25t-125.5 68.5t-63.5 101t-21 121.5h186q7 -116 65.5 -176t163.5 -60t164 60t66 176h185q-2 -64 -20.5 -121.5t-64 -101t-125 -68.5t-205.5 -25z" />
<glyph unicode="&#x45f;" horiz-adv-x="1238" d="M182 983l-141 28v51h457v-51l-128 -28v-889h497v889l-142 28v51h458v-51l-129 -28v-904l129 -28v-51h-470l-58 -455h-73l-59 455h-482v51l141 28v904z" />
<glyph unicode="&#x490;" horiz-adv-x="1041" d="M812 1515l113 383h74l19 -481l-539 1v-1329l234 -29v-60h-646v60l194 29v1336l-194 30v60h745z" />
<glyph unicode="&#x491;" horiz-adv-x="812" d="M417 967v-888l182 -28v-51h-550v51l180 28v904l-150 28v51h579l81 284h51v-379h-373z" />
<glyph unicode="&#x2000;" horiz-adv-x="993" />
<glyph unicode="&#x2001;" horiz-adv-x="1986" />
<glyph unicode="&#x2002;" horiz-adv-x="993" />
<glyph unicode="&#x2003;" horiz-adv-x="1986" />
<glyph unicode="&#x2004;" horiz-adv-x="662" />
<glyph unicode="&#x2005;" horiz-adv-x="496" />
<glyph unicode="&#x2006;" horiz-adv-x="331" />
<glyph unicode="&#x2007;" horiz-adv-x="331" />
<glyph unicode="&#x2008;" horiz-adv-x="248" />
<glyph unicode="&#x2009;" horiz-adv-x="397" />
<glyph unicode="&#x200a;" horiz-adv-x="110" />
<glyph unicode="&#x2010;" horiz-adv-x="770" d="M86 459v173h601v-173h-601z" />
<glyph unicode="&#x2011;" horiz-adv-x="770" d="M86 459v173h601v-173h-601z" />
<glyph unicode="&#x2012;" horiz-adv-x="770" d="M86 459v173h601v-173h-601z" />
<glyph unicode="&#x2013;" d="M1173 597v-116h-1189v116h1189z" />
<glyph unicode="&#x2014;" horiz-adv-x="2314" d="M2330 597v-116h-2346v116h2346z" />
<glyph unicode="&#x2018;" horiz-adv-x="770" d="M223 1129q0 67 18.5 129.5t59.5 115.5t106.5 96t159.5 71v-88q-103 -33 -151 -79.5t-48 -110.5q0 -21 11.5 -34t28.5 -24t36.5 -21t36.5 -24.5t28.5 -35.5t11.5 -53q0 -61 -38.5 -92.5t-98.5 -31.5q-33 0 -61.5 12t-51 35t-35.5 57t-13 78z" />
<glyph unicode="&#x2019;" horiz-adv-x="770" d="M548 1356q0 -67 -18.5 -129.5t-60 -115.5t-107 -96t-159.5 -70v87q103 32 151 79.5t48 110.5q0 20 -11 34t-28 25t-37 21t-37 24t-28 35t-11 53q0 61 38.5 93t97.5 32q32 0 61.5 -12t52 -35t35.5 -57.5t13 -78.5z" />
<glyph unicode="&#x201a;" horiz-adv-x="770" d="M546 55q0 -66 -19 -129t-60 -116t-106.5 -96t-159.5 -70v87q103 33 151 80.5t48 109.5q0 20 -11.5 34t-28 25t-36.5 21t-37 24.5t-28.5 35t-11.5 52.5q0 61 38.5 93t98.5 32q32 0 61.5 -11.5t52 -35t35.5 -58t13 -78.5z" />
<glyph unicode="&#x201c;" horiz-adv-x="1027" d="M585 1129q0 67 19 129.5t60 115.5t106.5 96t159.5 71v-88q-103 -33 -151 -79.5t-48 -110.5q0 -21 11.5 -34t28.5 -24t36.5 -21t36.5 -24.5t28.5 -35.5t11.5 -53q0 -61 -38.5 -92.5t-97.5 -31.5q-33 0 -62 12t-51.5 35t-36 57t-13.5 78zM111 1129q0 67 18.5 129.5 t60 115.5t107 96t158.5 71v-88q-102 -33 -150 -79.5t-48 -110.5q0 -21 11 -34t28 -24t37 -21t36.5 -24.5t28 -35.5t11.5 -53q0 -61 -38.5 -92.5t-97.5 -31.5q-32 0 -61.5 12t-51.5 35t-35.5 57t-13.5 78z" />
<glyph unicode="&#x201d;" horiz-adv-x="1027" d="M442 1356q0 -67 -18.5 -129.5t-60 -115.5t-107 -96t-159.5 -70v87q103 32 151 79.5t48 110.5q0 20 -11.5 34t-28 25t-36.5 21t-37 24t-28 35t-11 53q0 61 38 93t98 32q32 0 61.5 -12t52 -35t35.5 -57.5t13 -78.5zM916 1356q0 -67 -18.5 -129.5t-59.5 -115.5t-106.5 -96 t-159.5 -70v87q103 32 151 79.5t48 110.5q0 20 -11.5 34t-28.5 25t-36.5 21t-36.5 24t-28.5 35t-11.5 53q0 61 38.5 93t98.5 32q31 0 60.5 -12t51.5 -35t35.5 -57.5t13.5 -78.5z" />
<glyph unicode="&#x201e;" horiz-adv-x="1027" d="M442 55q0 -66 -18.5 -129t-60 -116t-107 -96t-159.5 -70v87q103 33 151 80.5t48 109.5q0 20 -11.5 34t-28 25t-36.5 21t-37 24.5t-28 35t-11 52.5q0 61 38 93t98 32q32 0 61.5 -11.5t52 -35t35.5 -58t13 -78.5zM916 55q0 -66 -18.5 -129t-59.5 -116t-106.5 -96 t-159.5 -70v87q103 33 151 80.5t48 109.5q0 20 -11.5 34t-28.5 25t-36.5 21t-36.5 24.5t-28.5 35t-11.5 52.5q0 61 38.5 93t98.5 32q31 0 60.5 -11.5t51.5 -35t35.5 -58t13.5 -78.5z" />
<glyph unicode="&#x2022;" horiz-adv-x="810" d="M680 766q0 -57 -21.5 -107.5t-58.5 -88t-87.5 -59t-107.5 -21.5q-58 0 -108 21.5t-87 59t-58.5 88t-21.5 107.5q0 58 21.5 108t58.5 87.5t87 59t108 21.5q57 0 107.5 -21.5t87.5 -59t58.5 -87.5t21.5 -108z" />
<glyph unicode="&#x2026;" horiz-adv-x="2314" d="M519 104q0 -28 -11 -53t-29 -43.5t-43.5 -29.5t-53.5 -11q-29 0 -54 11t-43 29.5t-29 43.5t-11 53t11 53.5t29 43.5t43 29t54 11q28 0 53.5 -11t43.5 -29t29 -43.5t11 -53.5zM1294 104q0 -28 -11 -53t-29 -43.5t-43.5 -29.5t-53.5 -11q-29 0 -54 11t-43 29.5t-29 43.5 t-11 53t11 53.5t29 43.5t43 29t54 11q28 0 53.5 -11t43.5 -29t29 -43.5t11 -53.5zM2069 104q0 -28 -10.5 -53t-29 -43.5t-43.5 -29.5t-54 -11t-54 11t-43 29.5t-28.5 43.5t-10.5 53t10.5 53.5t28.5 43.5t43 29t54 11t54 -11t43.5 -29t29 -43.5t10.5 -53.5z" />
<glyph unicode="&#x202f;" horiz-adv-x="397" />
<glyph unicode="&#x2039;" horiz-adv-x="770" d="M150 560l378 403h92l-257 -440l257 -439h-92l-378 402v74z" />
<glyph unicode="&#x203a;" horiz-adv-x="770" d="M620 486l-377 -402h-93l258 439l-258 440h93l377 -403v-74z" />
<glyph unicode="&#x205f;" horiz-adv-x="496" />
<glyph unicode="&#x20ac;" d="M162 937q35 304 179.5 449.5t382.5 145.5q57 0 105.5 -4.5t93.5 -11.5t87 -18t85 -23l4 -285h-76l-23 150q-51 49 -117.5 75.5t-134.5 26.5q-75 0 -134.5 -26.5t-104.5 -87t-73.5 -156.5t-39.5 -235h395v-92h-400q-2 -25 -2 -51v-52v-42.5t2 -39.5h400v-93h-395 q22 -255 112 -379t234 -124q47 0 88.5 9t76.5 25t63.5 37t47.5 44l28 179h76l-4 -309q-37 -14 -81.5 -27t-95.5 -23t-105.5 -16t-111.5 -6q-118 0 -215 39.5t-168.5 115.5t-116.5 185.5t-62 249.5h-127v93h120q-2 19 -2 39.5v40.5v52.5t2 52.5h-120v92h127z" />
<glyph unicode="&#x2122;" horiz-adv-x="2267" d="M287 607v48l144 18v773h-35q-89 0 -143.5 -4t-78.5 -9l-19 -141h-47v223h802v-223h-47l-18 141q-25 5 -86 8t-141 3h-33v-771l144 -18v-48h-442zM1559 607h-31l-322 756v-690l123 -18v-48h-322v48l117 18v778l-117 18v46h305l276 -658l298 658h287v-46l-115 -18v-778 l115 -18v-48h-393v48l122 18v688z" />
<glyph unicode="&#x25fc;" horiz-adv-x="1062" d="M0 1062h1062v-1062h-1062v1062z" />
<glyph horiz-adv-x="770" d="M384 1268q-125 0 -205 25t-125.5 68.5t-63.5 101t-21 121.5h186q7 -116 65.5 -176t163.5 -60t164 60t66 176h185q-2 -64 -20.5 -121.5t-64 -101t-125 -68.5t-205.5 -25z" />
</font>
</defs>
</svg>
