<svg width="1122.52" height="727.034" viewBox="30 150 881.89 505.276" xmlns="http://www.w3.org/2000/svg"><path d="M364.473 361.373c-4.864 0-9.14-.62-12.894-1.828s-6.986-2.938-9.662-5.223c-2.677-2.252-4.832-4.962-6.496-8.095-1.632-3.134-2.84-6.594-3.623-10.446l14.232-2.48c.946 4.798 3.003 8.486 6.202 11.065 3.166 2.579 7.377 3.885 12.6 3.885 3.199 0 6.072-.555 8.683-1.633s4.864-2.807 6.692-5.223c1.86-2.382 3.264-5.483 4.276-9.335.979-3.82 1.469-8.487 1.469-13.971v-16.68h-.196c-1.012 2.643-2.285 5.124-3.82 7.54a26.7 26.7 0 0 1-5.646 6.332c-2.22 1.861-4.8 3.363-7.737 4.472-2.905 1.11-6.267 1.665-10.021 1.665-5.354 0-9.956-1.11-13.808-3.297-3.82-2.187-6.953-5.516-9.401-9.89-2.416-4.407-4.178-9.859-5.288-16.42-1.11-6.528-1.665-14.101-1.665-22.687 0-8.29.555-15.733 1.665-22.36s2.937-12.24 5.451-16.843 5.778-8.128 9.826-10.577c4.047-2.448 8.944-3.688 14.754-3.688 5.974 0 11.196 1.664 15.603 4.994 4.44 3.33 7.867 8.063 10.283 14.232h.196c0-1.6.032-3.362.098-5.353.065-1.959.13-3.82.228-5.582.098-1.73.196-3.264.294-4.537s.196-1.992.326-2.187h13.45c-.066.587-.131 1.534-.197 2.905-.065 1.37-.13 3.003-.163 4.929-.033 1.893-.033 4.015-.065 6.332-.033 2.35-.066 4.734-.066 7.215v79.093c0 14.493-2.905 25.396-8.748 32.708q-8.764 10.968-26.832 10.968m21.479-92.444c0-7.215-.653-13.384-1.926-18.509s-2.938-9.303-5.06-12.567c-2.089-3.265-4.472-5.648-7.149-7.182s-5.418-2.285-8.226-2.285c-3.623 0-6.724.751-9.303 2.285s-4.733 3.95-6.463 7.214c-1.73 3.297-2.97 7.508-3.754 12.633-.816 5.125-1.208 11.262-1.208 18.41 0 7.443.392 13.71 1.208 18.77.784 5.06 2.024 9.173 3.721 12.306 1.665 3.101 3.787 5.321 6.333 6.66 2.546 1.338 5.615 2.023 9.173 2.023 2.807 0 5.582-.718 8.29-2.187 2.678-1.469 5.126-3.819 7.248-6.985 2.121-3.2 3.852-7.312 5.157-12.34 1.306-5.026 1.959-11.13 1.959-18.246m57.386 53.664c-8.553 0-14.983-2.742-19.26-8.226-4.276-5.516-6.397-13.024-6.397-22.621 0-6.855 1.077-12.47 3.199-16.844s4.896-7.834 8.29-10.315c3.396-2.513 7.313-4.244 11.687-5.19a73.5 73.5 0 0 1 13.35-1.632l19.097-.392v-5.582c0-4.276-.36-7.867-1.11-10.87-.718-2.97-1.828-5.386-3.362-7.214a13.8 13.8 0 0 0-5.648-4.048c-2.252-.848-4.961-1.273-8.062-1.273-2.71 0-5.158.229-7.312.718a14.5 14.5 0 0 0-5.68 2.547c-1.6 1.24-2.905 2.937-3.885 5.06q-1.469 3.182-1.958 8.03l-14.69-1.633c.523-4.047 1.502-7.801 2.938-11.196 1.47-3.395 3.526-6.333 6.203-8.814 2.676-2.48 6.006-4.407 10.053-5.778 4.016-1.37 8.945-2.056 14.722-2.056 10.642 0 18.64 2.97 24.026 8.911s8.062 14.526 8.062 25.788v44.655c0 5.125.555 8.977 1.632 11.556 1.078 2.579 3.167 3.885 6.3 3.885q1.176 0 2.35-.196 1.176-.195 2.253-.49v10.74c-1.795.489-3.558.88-5.32 1.142q-2.644.392-5.583.392c-2.676 0-4.994-.457-6.92-1.306a10.8 10.8 0 0 1-4.635-3.917c-1.208-1.763-2.09-3.95-2.742-6.529s-1.045-5.582-1.24-9.042h-.392q-2.303 4.995-4.995 9.01a30.8 30.8 0 0 1-6.267 6.854c-2.383 1.861-5.125 3.33-8.193 4.342-3.069 1.012-6.594 1.534-10.511 1.534m3.231-12.926c4.505 0 8.422-1.012 11.752-3.003q4.994-3.036 8.324-7.737a34.8 34.8 0 0 0 4.994-10.25c1.11-3.688 1.665-7.246 1.665-10.641v-8.52l-15.473.392c-3.427.065-6.692.359-9.825.914-3.102.555-5.844 1.6-8.161 3.199-2.318 1.6-4.178 3.852-5.582 6.724s-2.09 6.627-2.09 11.295c0 5.614 1.241 9.956 3.755 13.024 2.48 3.069 6.039 4.603 10.641 4.603m64.339 10.968V178.639h14.102v141.996z" style="fill:#c6004a;fill-rule:evenodd"/><path d="M546.587 195.09v-16.45h14.101v16.451zm0 125.545V217.223h14.101v103.412zm89.735 0v-65.58c0-5.027-.294-9.237-.914-12.6-.588-3.394-1.6-6.104-2.971-8.193-1.371-2.056-3.166-3.525-5.419-4.374-2.22-.881-4.961-1.306-8.226-1.306-3.33 0-6.332.718-9.042 2.155-2.742 1.436-5.027 3.492-6.952 6.202-1.926 2.709-3.396 6.071-4.473 10.054q-1.567 5.973-1.567 13.71v59.932h-14.101v-88.136c0-2.415-.033-4.7-.098-6.822q-.097-3.183-.196-5.484c-.065-1.534-.098-2.513-.098-2.97h13.253c.065.326.098 1.175.13 2.578.033 1.404.099 3.004.197 4.832.097 1.795.163 3.655.195 5.516.033 1.893.033 3.46.033 4.733h.294c1.338-3.003 2.84-5.712 4.472-8.128 1.632-2.415 3.493-4.472 5.647-6.17 2.122-1.697 4.603-3.002 7.377-3.916 2.775-.947 6.006-1.404 9.728-1.404 4.7 0 8.748.685 12.11 2.09 3.395 1.403 6.17 3.59 8.357 6.528 2.22 2.905 3.819 6.691 4.83 11.327 1.013 4.602 1.535 10.119 1.535 16.484v68.942zm52.88-90.878v90.878h-14.101v-90.878H663.35v-12.534h11.75v-11.72c0-3.753.295-7.279.85-10.51.587-3.232 1.632-6.04 3.166-8.422 1.534-2.416 3.623-4.309 6.3-5.68s6.104-2.057 10.315-2.057c1.632 0 3.395.099 5.19.294 1.828.196 3.395.457 4.733.849V193.1c-.88-.164-1.893-.36-3.035-.523a22 22 0 0 0-3.134-.228c-2.089 0-3.82.359-5.157 1.044-1.306.718-2.383 1.73-3.134 3.036s-1.273 2.938-1.567 4.864c-.294 1.893-.424 4.113-.424 6.626v9.303h16.451v12.535zm98.908 39.074c0 18.116-3.264 31.598-9.825 40.477-6.529 8.846-16.028 13.285-28.465 13.285-5.908 0-11.196-1.077-15.832-3.264-4.635-2.155-8.552-5.484-11.783-9.923-3.2-4.473-5.68-10.087-7.345-16.811-1.698-6.725-2.546-14.657-2.546-23.764q0-53.567 37.996-53.567c6.561 0 12.273 1.11 17.072 3.362 4.831 2.22 8.748 5.55 11.817 10.021q4.602 6.708 6.757 16.746c1.436 6.692 2.154 14.526 2.154 23.438m-14.885 0q0-12.045-1.469-19.88c-1.012-5.223-2.48-9.401-4.44-12.535-1.99-3.133-4.373-5.32-7.213-6.56q-4.26-1.861-9.5-1.861-5.434 0-9.792 1.958c-2.905 1.306-5.354 3.526-7.41 6.692-2.024 3.166-3.59 7.344-4.635 12.567-1.045 5.256-1.567 11.784-1.567 19.619 0 8.03.588 14.69 1.73 19.944 1.142 5.256 2.71 9.467 4.7 12.568 2.024 3.133 4.407 5.32 7.117 6.594 2.741 1.273 5.745 1.926 8.976 1.926q5.484 0 9.793-1.861c2.905-1.24 5.386-3.428 7.41-6.561s3.59-7.312 4.668-12.633c1.077-5.288 1.632-11.947 1.632-19.977" style="fill:#9d9d9c;fill-rule:evenodd"/><path d="m217.052 252.874 62.513.024-.004-95.6H168.49c-61.343 0-111.072 49.382-111.072 110.298 0 56.226 46.489 106.684 97.125 110.017v-62.229c0-34.523 27.987-62.51 62.509-62.51" style="fill:#c6004a;fill-rule:evenodd"/><path d="M279.492 280.19h-48.85c-26.98 0-48.85 21.872-48.85 48.853v48.852h97.7z" style="fill:#9d9d9c;fill-rule:evenodd"/></svg>