<?xml version="1.0" encoding="UTF-8" standalone="no"?>
<svg
   version="1.1"
   width="841.88977pt"
   height="595.27557pt"
   id="svg4"
   viewBox="0 0 841.88977 595.27557"
   sodipodi:docname="Gal-info logo v13.cdr"
   xmlns:inkscape="http://www.inkscape.org/namespaces/inkscape"
   xmlns:sodipodi="http://sodipodi.sourceforge.net/DTD/sodipodi-0.dtd"
   xmlns="http://www.w3.org/2000/svg"
   xmlns:svg="http://www.w3.org/2000/svg">
  <defs
     id="defs4" />
  <sodipodi:namedview
     id="namedview4"
     pagecolor="#ffffff"
     bordercolor="#000000"
     borderopacity="0.25"
     inkscape:showpageshadow="2"
     inkscape:pageopacity="0.0"
     inkscape:pagecheckerboard="0"
     inkscape:deskcolor="#d1d1d1"
     inkscape:document-units="pt" />
  <g
     id="Layer1000">
    <g
       id="Layer1001">
      <path
         d="m 364.4728,361.373 c -4.8637,0 -9.1401,-0.6203 -12.8937,-1.828 -3.7539,-1.208 -6.9857,-2.9378 -9.6623,-5.2228 -2.6768,-2.2526 -4.8313,-4.9619 -6.4959,-8.0955 -1.6323,-3.1339 -2.8399,-6.5938 -3.6233,-10.4457 l 14.232,-2.4808 c 0.9467,4.7983 3.0032,8.4871 6.2023,11.0658 3.1663,2.5789 7.3772,3.8845 12.6,3.8845 3.199,0 6.0717,-0.5549 8.6831,-1.6323 2.6114,-1.077 4.8637,-2.8071 6.6917,-5.2228 1.8605,-2.3829 3.2642,-5.4837 4.2761,-9.3358 0.9792,-3.8191 1.4689,-8.4871 1.4689,-13.9711 v -16.6804 h -0.1958 c -1.0118,2.6441 -2.285,5.1249 -3.8193,7.5406 -1.5341,2.3829 -3.3948,4.5046 -5.6471,6.3326 -2.2196,1.8607 -4.7986,3.3624 -7.7364,4.4721 -2.9051,1.1098 -6.2674,1.6647 -10.0214,1.6647 -5.3534,0 -9.9559,-1.1098 -13.8077,-3.2969 -3.8194,-2.1871 -6.953,-5.5165 -9.401,-9.8908 -2.4157,-4.4067 -4.1785,-9.858 -5.2883,-16.4191 -1.1098,-6.5287 -1.6647,-14.1017 -1.6647,-22.6869 0,-8.2912 0.5549,-15.7336 1.6647,-22.3602 1.1098,-6.6266 2.9378,-12.2409 5.4513,-16.8437 2.5136,-4.6025 5.7777,-8.1279 9.8256,-10.5763 4.0476,-2.4481 8.9441,-3.6884 14.7545,-3.6884 5.9735,0 11.1963,1.6646 15.6033,4.9943 4.4394,3.3293 7.8667,8.0627 10.2823,14.232 h 0.1958 c 0,-1.5995 0.0327,-3.3621 0.0982,-5.3535 0.0651,-1.9583 0.1303,-3.819 0.2285,-5.5816 0.0979,-1.7301 0.1958,-3.2645 0.2936,-4.5373 0.0979,-1.2732 0.1958,-1.9914 0.3264,-2.1872 h 13.4489 c -0.0654,0.5877 -0.1306,1.5341 -0.196,2.9051 -0.0652,1.371 -0.1303,3.0033 -0.1631,4.9292 -0.0327,1.8932 -0.0327,4.0151 -0.0654,6.3326 -0.0325,2.3502 -0.0652,4.7331 -0.0652,7.2142 v 79.0933 c 0,14.4933 -2.9051,25.3959 -8.7482,32.708 -5.8432,7.3121 -14.7872,10.9681 -26.8324,10.9681 z m 21.4789,-92.4444 c 0,-7.2141 -0.6528,-13.3834 -1.9259,-18.5084 -1.2731,-5.1249 -2.9378,-9.3031 -5.0595,-12.5676 -2.0892,-3.2642 -4.4721,-5.6471 -7.149,-7.1814 -2.6766,-1.5341 -5.4186,-2.2848 -8.2258,-2.2848 -3.6233,0 -6.7244,0.7507 -9.3031,2.2848 -2.579,1.5343 -4.7334,3.9499 -6.4632,7.2141 -1.7302,3.297 -2.9706,7.5079 -3.754,12.6328 -0.8161,5.125 -1.2079,11.2618 -1.2079,18.4105 0,7.4424 0.3918,13.7099 1.2079,18.7697 0.7834,5.0594 2.0238,9.1725 3.7212,12.3061 1.6647,3.1011 3.7867,5.321 6.3326,6.6593 2.5463,1.3382 5.6147,2.0238 9.1726,2.0238 2.8074,0 5.5819,-0.7183 8.2912,-2.1872 2.6769,-1.4689 5.1249,-3.8191 7.2469,-6.9854 2.1217,-3.199 3.8518,-7.312 5.1574,-12.3391 1.3058,-5.0268 1.9586,-11.1312 1.9586,-18.2472 z m 57.386,53.6648 c -8.5525,0 -14.983,-2.7421 -19.2594,-8.2261 -4.2761,-5.5165 -6.3978,-13.0244 -6.3978,-22.6215 0,-6.855 1.0771,-12.4694 3.1991,-16.8437 2.1216,-4.3739 4.8961,-7.8342 8.2912,-10.315 3.3948,-2.5135 7.3118,-4.2437 11.6861,-5.1901 4.4067,-0.9467 8.8461,-1.5016 13.3507,-1.6322 l 19.096,-0.3916 v -5.5819 c 0,-4.2764 -0.3588,-7.867 -1.1098,-10.8703 -0.7182,-2.9705 -1.828,-5.3858 -3.3621,-7.2139 -1.5343,-1.828 -3.3948,-3.1663 -5.6474,-4.0478 -2.2523,-0.8486 -4.9616,-1.2729 -8.0627,-1.2729 -2.7093,0 -5.1574,0.2285 -7.3118,0.718 -2.1544,0.457 -4.0479,1.3383 -5.6798,2.5462 -1.5995,1.2404 -2.9054,2.9378 -3.8846,5.0595 -0.9794,2.122 -1.6322,4.7986 -1.9586,8.0303 l -14.6893,-1.6322 c 0.5225,-4.0476 1.5016,-7.8015 2.9378,-11.1964 1.4689,-3.3951 3.5254,-6.3329 6.2023,-8.8137 2.6766,-2.4808 6.0062,-4.4067 10.0538,-5.7777 4.0152,-1.371 8.9443,-2.0565 14.722,-2.0565 10.6415,0 18.639,2.9705 24.0252,8.9116 5.3859,5.9408 8.0628,14.526 8.0628,25.7877 v 44.6553 c 0,5.1249 0.5548,8.9767 1.6319,11.5554 1.0774,2.579 3.1663,3.8846 6.3002,3.8846 0.7834,0 1.5668,-0.0652 2.3502,-0.1958 0.7834,-0.1306 1.5343,-0.294 2.2523,-0.4897 v 10.7396 c -1.7953,0.4894 -3.5579,0.8812 -5.3208,1.1425 -1.7625,0.2609 -3.6233,0.3915 -5.5819,0.3915 -2.6766,0 -4.9943,-0.457 -6.9202,-1.3055 -1.8932,-0.8489 -3.46,-2.1544 -4.6352,-3.9173 -1.208,-1.7626 -2.0893,-3.9497 -2.7421,-6.5287 -0.6527,-2.5787 -1.0446,-5.5816 -1.2404,-9.0419 h -0.3918 c -1.5341,3.3297 -3.199,6.3326 -4.9943,9.0095 -1.7953,2.6766 -3.917,4.9616 -6.2675,6.8548 -2.3829,1.8607 -5.1246,3.3296 -8.193,4.3415 -3.0685,1.0119 -6.5939,1.5344 -10.5111,1.5344 z m 3.2317,-12.9268 c 4.5046,0 8.4216,-1.0119 11.7512,-3.0029 3.3297,-2.0238 6.1041,-4.6028 8.324,-7.7364 2.2196,-3.1336 3.8845,-6.5287 4.9943,-10.2499 1.1098,-3.6884 1.6647,-7.2466 1.6647,-10.6414 v -8.5197 l -15.4727,0.3915 c -3.4272,0.0655 -6.6917,0.3591 -9.8253,0.914 -3.1012,0.5549 -5.8432,1.5995 -8.1606,3.199 -2.3178,1.5996 -4.1785,3.8519 -5.582,6.7245 -1.4037,2.8726 -2.0892,6.6266 -2.0892,11.2945 0,5.6144 1.2404,9.9559 3.7539,13.0243 2.4808,3.0685 6.0389,4.6025 10.6417,4.6025 z m 64.3386,10.9681 v -141.996 h 14.1017 v 141.996 z"
         style="fill:#c6004a;fill-rule:evenodd"
         id="path1" />
      <path
         d="m 546.5865,195.0905 v -16.4518 h 14.1017 v 16.4518 z m 0,125.5442 V 217.2225 h 14.1017 v 103.4122 z m 89.7351,0 v -65.5793 c 0,-5.027 -0.294,-9.2379 -0.914,-12.6 -0.5876,-3.3948 -1.5995,-6.1044 -2.9706,-8.1934 -1.371,-2.0565 -3.1663,-3.5254 -5.4186,-4.3742 -2.2198,-0.8813 -4.9618,-1.3056 -8.226,-1.3056 -3.3297,0 -6.3327,0.7182 -9.0422,2.1544 -2.7418,1.4362 -5.0268,3.4927 -6.9527,6.202 -1.9259,2.7093 -3.3951,6.0717 -4.4722,10.0541 -1.0446,3.9824 -1.5668,8.5525 -1.5668,13.7099 v 59.9321 h -14.1016 v -81.3456 c 0,0 0,-2.2526 0,-6.7899 0,-2.4154 -0.0328,-4.7004 -0.0979,-6.8224 -0.0655,-2.1216 -0.1306,-3.9497 -0.1961,-5.4837 -0.0652,-1.5344 -0.0979,-2.5136 -0.0979,-2.9706 h 13.2531 c 0.0652,0.3264 0.0979,1.175 0.1304,2.5787 0.0327,1.4038 0.0981,3.0033 0.196,4.8313 0.0979,1.7953 0.1631,3.6557 0.1958,5.5165 0.0327,1.8932 0.0327,3.4603 0.0327,4.7331 h 0.2937 c 1.3383,-3.003 2.8399,-5.7123 4.4722,-8.1279 1.6319,-2.4157 3.4927,-4.4722 5.6471,-6.1696 2.1216,-1.6974 4.6027,-3.0029 7.3772,-3.917 2.7748,-0.9467 6.0062,-1.4037 9.7277,-1.4037 4.7004,0 8.7483,0.6855 12.1103,2.0893 3.3948,1.4034 6.1696,3.5905 8.3567,6.5283 2.2196,2.9054 3.8191,6.6918 4.831,11.3273 1.0119,4.6024 1.5344,10.1192 1.5344,16.4846 v 68.9413 z m 52.881,-90.8776 v 90.8776 h -14.1017 v -90.8776 h -11.7512 v -12.5346 h 11.7512 v -11.7187 c 0,-3.754 0.294,-7.2794 0.8489,-10.5111 0.5876,-3.2315 1.6319,-6.039 3.1663,-8.4219 1.5341,-2.4153 3.6233,-4.3088 6.2999,-5.6798 2.6768,-1.371 6.1044,-2.0566 10.3153,-2.0566 1.632,0 3.3948,0.0982 5.1901,0.294 1.828,0.1958 3.3948,0.457 4.7331,0.8486 v 13.1225 c -0.8813,-0.1634 -1.8932,-0.3591 -3.0357,-0.5222 -1.1425,-0.1633 -2.1871,-0.2285 -3.1336,-0.2285 -2.0892,0 -3.8193,0.3588 -5.1576,1.0443 -1.3056,0.7183 -2.3829,1.7302 -3.1336,3.036 -0.751,1.3056 -1.2731,2.9378 -1.5671,4.8637 -0.2937,1.8932 -0.4243,4.1131 -0.4243,6.6266 v 9.3031 h 16.4519 v 12.5346 z m 98.9076,39.0736 c 0,18.1166 -3.2642,31.5982 -9.8256,40.4771 -6.5284,8.8461 -16.0276,13.2856 -28.4643,13.2856 -5.9083,0 -11.1966,-1.0774 -15.8318,-3.2645 -4.6352,-2.1544 -8.5525,-5.4838 -11.7839,-9.9232 -3.1991,-4.4722 -5.6799,-10.0866 -7.3448,-16.811 -1.6974,-6.7245 -2.546,-14.6566 -2.546,-23.764 0,-35.7112 12.6652,-53.5668 37.996,-53.5668 6.5614,0 12.2736,1.1098 17.0722,3.3621 4.8312,2.2199 8.7482,5.5495 11.8166,10.0214 3.0685,4.4721 5.3208,10.0541 6.7572,16.7458 1.4362,6.6917 2.1544,14.526 2.1544,23.4375 z m -14.8851,0 c 0,-8.0303 -0.4897,-14.6565 -1.4689,-19.8794 -1.0119,-5.2228 -2.4808,-9.4013 -4.4394,-12.5349 -1.9913,-3.1338 -4.3743,-5.3207 -7.2142,-6.5611 -2.8399,-1.2404 -6.0062,-1.8607 -9.4989,-1.8607 -3.6233,0 -6.8878,0.6528 -9.7929,1.9586 -2.905,1.3056 -5.3534,3.5254 -7.4099,6.6917 -2.0238,3.1663 -3.5906,7.3446 -4.6352,12.5674 -1.0447,5.2555 -1.5668,11.7842 -1.5668,19.6184 0,8.0301 0.5876,14.6894 1.7301,19.9446 1.1422,5.2556 2.7093,9.4665 4.7004,12.5676 2.0238,3.1336 4.4067,5.3208 7.1163,6.5939 2.7417,1.2731 5.745,1.9259 8.9767,1.9259 3.6558,0 6.9203,-0.6204 9.7926,-1.8608 2.9054,-1.2404 5.3862,-3.4275 7.41,-6.5611 2.0238,-3.1338 3.5908,-7.312 4.6679,-12.6328 1.0774,-5.2879 1.6322,-11.9472 1.6322,-19.9773 z"
         style="fill:#9d9d9c;fill-rule:evenodd"
         id="path2" />
    </g>
    <path
       d="m 217.052,252.8739 62.5132,0.0242 -0.004,-95.5998 H 168.4897 c -61.3429,0 -111.0714,49.3822 -111.0714,110.2982 0,56.2253 46.4885,106.6834 97.1249,110.0168 v -62.2291 c 0,-34.5235 27.9863,-62.5103 62.5088,-62.5103 z"
       style="fill:#c6004a;fill-rule:evenodd"
       id="path3" />
    <path
       d="m 279.4924,280.1904 h -43.4154 -5.4352 c -26.9794,0 -48.8505,21.872 -48.8505,48.8522 v 5.1132 43.7392 h 97.7011 z"
       style="fill:#9d9d9c;fill-rule:evenodd"
       id="path4" />
  </g>
</svg>
