<?xml version="1.0" standalone="no"?>
<!DOCTYPE svg PUBLIC "-//W3C//DTD SVG 1.1//EN" "http://www.w3.org/Graphics/SVG/1.1/DTD/svg11.dtd" >
<svg xmlns="http://www.w3.org/2000/svg" xmlns:xlink="http://www.w3.org/1999/xlink" version="1.1">
<metadata></metadata>
<defs>
<font id="ralewaysemibold" horiz-adv-x="1275" >
<font-face units-per-em="2048" ascent="1638" descent="-410" />
<missing-glyph horiz-adv-x="499" />
<glyph horiz-adv-x="0" />
<glyph horiz-adv-x="682" />
<glyph horiz-adv-x="0" />
<glyph horiz-adv-x="0" />
<glyph unicode="&#xd;" horiz-adv-x="0" />
<glyph unicode=" "  horiz-adv-x="499" />
<glyph unicode="&#x09;" horiz-adv-x="499" />
<glyph unicode="&#xa0;" horiz-adv-x="499" />
<glyph unicode="!" horiz-adv-x="575" d="M399 513h-223v940h223v-940zM399 0h-223v278h223v-278z" />
<glyph unicode="&#x22;" horiz-adv-x="723" d="M321 1016h-191v446h191v-446zM594 1016h-190v446h190v-446z" />
<glyph unicode="#" horiz-adv-x="1430" d="M1356 1042v-158h-282l-76 -321h267v-170h-308l-96 -393h-182l97 393h-294l-95 -393h-182l99 393h-229v170h268l77 321h-254v158h294l95 397h183l-97 -397h292l97 397h183l-100 -397h243zM523 563h294l77 321h-294z" />
<glyph unicode="$" horiz-adv-x="1273" d="M1136 1287l-104 -186q-42 47 -142.5 92t-210.5 51v-418l39 -9q67 -17 118.5 -32.5t102.5 -36t88 -44t69.5 -54t52.5 -67t31.5 -83t11.5 -101.5q0 -83 -25.5 -151t-70 -115t-107.5 -79.5t-136 -48.5t-158 -19v-213h-105v217q-295 18 -519 190l103 195q52 -56 173.5 -112 t256.5 -70v419q-33 8 -51 15q-90 24 -154 47.5t-118.5 55.5t-87 71t-50 91.5t-17.5 119.5q0 128 60.5 224.5t164.5 148.5t239 62v205h105v-205q240 -13 441 -160zM948 375q0 44 -17 77.5t-54.5 58.5t-82.5 43t-115 38v-401q130 2 199.5 49t69.5 135zM363 1048 q0 -42 14.5 -73t46 -54.5t73.5 -40.5t107 -35v399q-121 -5 -181 -56t-60 -140z" />
<glyph unicode="%" horiz-adv-x="1536" d="M395 857q-134 0 -228 88t-94 212q0 83 43 153t117 110t162 40q135 0 229 -88t94 -215q0 -125 -94 -212.5t-229 -87.5zM395 973q33 0 64 15.5t52.5 40.5t34.5 58.5t13 69.5q0 77 -48.5 132t-115.5 55q-68 0 -116 -56t-48 -131q0 -49 22 -91.5t60 -67.5t82 -25zM1141 -20 q-87 0 -161.5 40t-117.5 109.5t-43 152.5q0 82 43 151t117.5 109t161.5 40q135 0 229 -87.5t94 -212.5q0 -126 -93.5 -214t-229.5 -88zM1141 95q68 0 116.5 55.5t48.5 131.5q0 50 -23 92.5t-61 67t-81 24.5q-67 0 -115.5 -55t-48.5 -129q0 -77 48.5 -132t115.5 -55zM267 -12 l-103 93l570 675l535 695l106 -91l-560 -667z" />
<glyph unicode="&#x26;" horiz-adv-x="1410" d="M1405 0h-294l-132 138q-89 -77 -196 -117.5t-222 -40.5q-103 0 -192 32.5t-150.5 88t-96.5 131.5t-35 161q0 67 21 127.5t59.5 111t82.5 90.5t102 81q-92 104 -129 175t-37 146q0 72 29.5 134.5t80 106.5t121 68.5t150.5 24.5q100 0 182.5 -34.5t134 -105.5t51.5 -167 q0 -58 -20 -110.5t-59 -98.5t-84 -84.5t-109 -81.5l324 -340q73 153 73 328h182q-3 -272 -125 -464zM586 156q149 0 273 109l-372 396q-90 -64 -137.5 -129t-47.5 -141q0 -51 22.5 -95.5t61.5 -74.5t91 -47.5t109 -17.5zM391 1130q0 -41 27.5 -82t111.5 -131q68 43 108 76 t66 72.5t26 81.5q0 64 -46 104.5t-117 40.5q-76 0 -126 -47.5t-50 -114.5z" />
<glyph unicode="'" horiz-adv-x="449" d="M321 1014h-191v448h191v-448z" />
<glyph unicode="(" horiz-adv-x="599" d="M77 702q0 100 22 203t65 208.5t91 198.5t116 209l173 -74q-39 -57 -81 -140.5t-83 -185t-67.5 -216t-26.5 -210.5q0 -299 252 -707l-163 -83q-298 440 -298 797z" />
<glyph unicode=")" horiz-adv-x="599" d="M521 702q0 -360 -296 -797l-165 83q254 412 254 707q0 96 -26.5 210.5t-68 216.5t-83 184.5t-80.5 140.5l171 74q68 -116 116 -209t91 -198.5t65 -208.5t22 -203z" />
<glyph unicode="*" horiz-adv-x="683" d="M251 1014l-89 60l91 137l-141 44l32 101l144 -58l-8 153h124l-9 -153l145 58l29 -101l-139 -44l91 -137l-89 -60l-89 143z" />
<glyph unicode="+" horiz-adv-x="849" d="M525 809h225v-178h-225v-246h-200v246h-226v178h226v245h200v-245z" />
<glyph unicode="," horiz-adv-x="447" d="M253 -197h-105l49 209h-73v247h201v-247z" />
<glyph unicode="-" horiz-adv-x="853" d="M730 454h-606v201h606v-201z" />
<glyph unicode="." horiz-adv-x="431" d="M308 0h-184v259h184v-259z" />
<glyph unicode="/" horiz-adv-x="1345" d="M1042 1439h248l-988 -1439h-248z" />
<glyph unicode="0" horiz-adv-x="1244" d="M1141 594q0 -131 -39.5 -245.5t-108 -195.5t-165 -127t-205.5 -46q-111 0 -207 46t-165 127t-108.5 195t-39.5 246t39.5 246.5t108.5 196t165.5 128t206.5 46.5q73 0 141 -21t125 -59.5t104 -94.5t80 -123.5t50.5 -149t17.5 -169.5zM915 594q0 182 -82 296t-210 114 q-132 0 -214 -113.5t-82 -296.5t81.5 -295.5t214.5 -112.5q128 0 210 113t82 295z" />
<glyph unicode="1" horiz-adv-x="954" d="M648 201h258v-201h-774v201h288v708q-37 -49 -145 -101t-184 -52v209q39 0 95 24.5t104.5 57t85.5 64t44 46.5h228v-956z" />
<glyph unicode="2" horiz-adv-x="1112" d="M1020 0h-939q0 90 14.5 159.5t50 135.5t100 123.5t162.5 111.5q32 18 77.5 41.5t74 39t63.5 35.5t56 37t40.5 37.5t28 43.5t8.5 49q0 69 -58 118.5t-158 49.5q-169 0 -300 -160l-143 164q25 27 66 56.5t102 62t144.5 53.5t170.5 21q192 0 305 -94t113 -241 q0 -57 -20.5 -109.5t-50 -89.5t-73 -71.5t-78.5 -55t-78 -41.5q-37 -18 -53.5 -26t-56 -29.5t-62.5 -36t-56.5 -38.5t-54 -44.5t-39.5 -47.5t-28 -53h672v-201z" />
<glyph unicode="3" horiz-adv-x="1112" d="M748 478q128 -23 205 -121t77 -239q0 -189 -138 -302.5t-367 -113.5q-153 0 -271.5 54t-188.5 155l136 154q106 -160 320 -160q133 0 205.5 57.5t72.5 169.5q0 119 -82.5 185t-238.5 66h-54v174h60q132 0 207 63t75 163q0 62 -30 105t-81.5 63t-120.5 20 q-103 0 -182.5 -44.5t-126.5 -127.5l-140 152q58 98 187.5 157.5t282.5 59.5q200 0 324.5 -99.5t124.5 -261.5q0 -123 -70 -216t-186 -113z" />
<glyph unicode="4" horiz-adv-x="1143" d="M890 -257h-223v322h-622v198l693 894h152v-890h178v-202h-178v-322zM691 817l-420 -550h420v550z" />
<glyph unicode="5" horiz-adv-x="1116" d="M578 643q134 0 241.5 -58.5t169 -164.5t61.5 -240q0 -141 -68 -251.5t-186 -170.5t-264 -60q-155 0 -280 70t-190 189l135 128q57 -86 147.5 -138t189.5 -52q125 0 206 78t81 203q0 120 -77.5 196t-196.5 76q-76 0 -143.5 -34.5t-109.5 -97.5h-197l164 841h704v-204h-541 l-74 -394q36 39 95 61.5t133 22.5z" />
<glyph unicode="6" horiz-adv-x="1230" d="M1143 478q0 -103 -40 -195t-108.5 -158.5t-165 -105.5t-204.5 -39q-119 0 -217 44t-167 125.5t-106.5 201.5t-37.5 268q0 203 39 361t111 260.5t173 155.5t226 53q137 0 252.5 -63t186.5 -177l-132 -139q-45 86 -128.5 135.5t-181.5 49.5q-153 0 -243.5 -130t-93.5 -361 q29 60 79.5 104.5t117 68.5t141.5 24q83 0 159.5 -24t138 -68t107 -103.5t70 -133.5t24.5 -154zM624.5 170q81.5 0 152.5 41.5t112.5 113t41.5 153.5t-41 152.5t-112 111.5t-153 41q-126 0 -216 -90t-90 -215q0 -82 41.5 -153.5t112 -113t152 -41.5z" />
<glyph unicode="7" horiz-adv-x="1110" d="M134 -257l620 1234h-698v205h1051l-720 -1439h-253z" />
<glyph unicode="8" horiz-adv-x="1217" d="M1124 416q0 -96 -41.5 -177.5t-112.5 -137t-165 -86.5t-199 -31q-143 0 -260 56.5t-185 158t-68 227.5q0 49 15 95.5t39 84t57 70t67.5 55.5t71.5 39q-87 38 -144 115t-57 167q0 73 27.5 136t74 108.5t106.5 78t126 48.5t132 16t132.5 -15.5t127.5 -48t108 -77.5t75 -108 t28 -136q0 -91 -58.5 -168.5t-146.5 -115.5q51 -22 95 -56t79 -78t55.5 -101t20.5 -119zM898 430q0 56 -25.5 104t-67 78.5t-93 47.5t-104.5 17q-75 0 -139.5 -30t-105 -87.5t-40.5 -129.5q0 -73 43 -130.5t108 -86.5t136 -29q54 0 106 18.5t92.5 50.5t65 78t24.5 99z M367 1044q0 -60 37.5 -106.5t91.5 -68.5t112 -22q59 0 113.5 22.5t92 70t37.5 108.5q0 86 -71.5 139t-171.5 53q-99 0 -170 -54t-71 -142z" />
<glyph unicode="9" horiz-adv-x="1193" d="M69 659q0 103 40.5 195t109.5 158.5t166 105.5t205 39q118 0 215 -44t165.5 -125t106.5 -201.5t38 -267.5q0 -203 -39 -361t-111 -261t-173 -156t-227 -53q-136 0 -251 63t-186 178l131 138q46 -85 129 -135t181 -50q152 0 243 130.5t94 360.5q-43 -90 -134 -143.5 t-205 -53.5q-103 0 -195.5 37.5t-158.5 102t-105 154t-39 189.5zM588 967q-61 0 -117.5 -24.5t-98 -66t-66 -98.5t-24.5 -119q0 -81 41.5 -151.5t112 -112t152.5 -41.5q126 0 216 90t90 215q0 62 -24.5 119t-66 98.5t-98 66t-117.5 24.5z" />
<glyph unicode=":" horiz-adv-x="451" d="M319 793h-185v257h185v-257zM319 0h-185v259h185v-259z" />
<glyph unicode=";" horiz-adv-x="484" d="M327 793h-183v257h183v-257zM271 -197h-105l49 209h-73v247h201v-247z" />
<glyph unicode="&#x3c;" horiz-adv-x="1037" d="M67 464v112l852 515v-238l-530 -328l530 -320v-248z" />
<glyph unicode="=" horiz-adv-x="888" d="M756 329h-626v147h626v-147zM756 643h-626v148h626v-148z" />
<glyph unicode="&#x3e;" horiz-adv-x="1037" d="M973 576v-112l-853 -507v248l528 320l-528 328v238z" />
<glyph unicode="?" horiz-adv-x="977" d="M456 448h-187q0 73 15 129.5t53 107.5t101 89q12 8 42.5 24.5t51.5 29t50.5 32.5t49.5 40.5t39 46.5t29 57t10 66q0 94 -66 149.5t-157 55.5q-89 0 -159 -51.5t-113 -126.5l-146 99q54 123 169.5 192.5t254.5 69.5q44 0 86.5 -7t83.5 -23t77 -38.5t66 -55.5t52 -72.5 t34 -90.5t12 -109q0 -67 -17.5 -121t-51.5 -95t-72.5 -70.5t-93.5 -59.5q-26 -15 -36.5 -20.5t-34 -20t-34 -22.5t-29 -23t-27 -27.5t-21 -30.5t-17.5 -35.5t-9.5 -40.5t-4.5 -48zM456 0h-187v255h187v-255z" />
<glyph unicode="@" horiz-adv-x="1708" d="M851 1223q120 0 231.5 -33t206 -99t165 -157.5t110.5 -216t40 -267.5q0 -31 -2 -63.5t-9.5 -82t-19.5 -93t-36 -90t-55 -79t-79 -54t-107 -21.5q-51 0 -87 14.5t-55.5 41.5t-29 54.5t-13.5 64.5q-62 -65 -152.5 -103.5t-192.5 -38.5q-145 0 -226.5 77.5t-81.5 202.5 q0 63 22.5 113t58.5 82t86 53.5t102 30t109 8.5q126 0 240 -44q0 65 -10.5 113t-36.5 86t-74 57.5t-117 19.5q-162 0 -277 -91l-44 122q153 101 340 101q70 0 125 -14t92 -36.5t63.5 -57t41.5 -68.5t23 -80t10.5 -82t2.5 -82v-219q0 -34 1 -58t4 -51.5t10 -45.5t18 -33.5 t28 -23t40 -7.5q44 0 78.5 28t54.5 69.5t33.5 95.5t18 100t4.5 88q0 114 -31.5 217.5t-90.5 186.5t-139 144t-182.5 94.5t-216.5 33.5q-111 0 -212.5 -32t-182 -91.5t-139.5 -140.5t-91 -183.5t-32 -216.5q0 -137 47.5 -260t130.5 -213t203 -143t259 -53q86 0 156.5 19.5 t156.5 57.5l33 -89q-167 -81 -348 -81q-150 0 -285.5 56.5t-235 155.5t-158 242.5t-58.5 307.5q0 116 29 220t80 186.5t122.5 149t156 110.5t180 67.5t194.5 23.5zM961 164q113 54 113 173v77q-2 0 -47.5 13t-93 21t-97.5 8q-52 0 -94 -9t-75.5 -28.5t-52 -53t-18.5 -79.5 q0 -73 49 -118.5t133 -45.5q93 0 183 42z" />
<glyph unicode="A" horiz-adv-x="1368" d="M14 0l572 1439h199l567 -1439h-239l-152 391h-555l-151 -391h-241zM446 559h471l-232 619z" />
<glyph unicode="B" horiz-adv-x="1368" d="M1294 371q0 -112 -60.5 -197.5t-161 -129.5t-223.5 -44h-687v1439h742q73 0 136 -31.5t104.5 -84t65 -118t23.5 -133.5q0 -107 -55.5 -199.5t-151.5 -134.5q124 -37 196 -134t72 -233zM1060 414q0 90 -56.5 156.5t-140.5 66.5h-474v-440h460q89 0 150 64t61 153z M819 1242h-430v-423h418q84 0 141.5 60t57.5 151q0 92 -53 152t-134 60z" />
<glyph unicode="C" horiz-adv-x="1386" d="M71 730q0 87 21.5 174t61.5 166.5t101 148.5t136.5 119.5t172.5 79.5t204 29q189 0 332.5 -85.5t215.5 -227.5l-178 -120q-29 63 -73 109t-95 71t-103 36.5t-107 11.5q-87 0 -162.5 -30t-128.5 -80.5t-91.5 -117.5t-57 -141.5t-18.5 -150.5q0 -104 35 -200.5t95.5 -169 t148 -116t185.5 -43.5q55 0 109 13.5t106.5 41t96.5 74.5t71 108l189 -107q-32 -78 -95.5 -142.5t-142.5 -106t-167.5 -64t-174.5 -22.5q-117 0 -225.5 42t-191 114.5t-144 166t-94 202t-32.5 217.5z" />
<glyph unicode="D" horiz-adv-x="1451" d="M673 0h-511v1439h511q136 0 251 -36.5t197.5 -101.5t140 -155t85.5 -197t28 -227q0 -162 -50 -296.5t-141 -228t-222 -145.5t-289 -52zM1143 722q0 151 -54.5 267.5t-162 182.5t-253.5 66h-284v-1037h284q90 0 165.5 25.5t131.5 72.5t95 111.5t58.5 143.5t19.5 168z" />
<glyph unicode="E" horiz-adv-x="1221" d="M389 201h760v-201h-987v1439h970v-201h-743v-408h643v-189h-643v-440z" />
<glyph unicode="F" horiz-adv-x="1173" d="M389 0h-227v1439h960v-201h-733v-429h613v-188h-613v-621z" />
<glyph unicode="G" horiz-adv-x="1457" d="M1170 0v178q-182 -188 -420 -188q-139 0 -265.5 60.5t-216 160.5t-142.5 235t-53 280t52.5 277.5t142.5 231t218 156.5t272 58q134 0 244.5 -39.5t187.5 -109t126 -164.5l-175 -126q-29 58 -70.5 102.5t-91.5 73.5t-107.5 43.5t-119.5 14.5q-99 0 -184 -43t-142 -115.5 t-89.5 -167.5t-32.5 -198q0 -144 60 -264t167 -190.5t237 -70.5q226 0 402 211v153h-302v169h492v-728h-190z" />
<glyph unicode="H" horiz-adv-x="1505" d="M1115 1439h229v-1439h-229v635h-726v-635h-227v1439h227v-601h726v601z" />
<glyph unicode="I" horiz-adv-x="551" d="M389 0h-227v1439h227v-1439z" />
<glyph unicode="J" horiz-adv-x="989" d="M20 67l55 186q24 -17 60.5 -32.5t89.5 -27t108 -11.5q46 0 83.5 8t65.5 26t49.5 41t36 58.5t24 73.5t14.5 91t7 105.5t2 122.5v731h228v-731q0 -79 -2.5 -141t-9.5 -127.5t-19 -116t-32 -100t-47.5 -86t-65.5 -68t-86.5 -51t-110.5 -30.5t-137 -11q-182 0 -313 90z" />
<glyph unicode="K" horiz-adv-x="1337" d="M389 0h-227v1437h227v-739l677 741h252l-568 -636l600 -803h-253l-487 663l-221 -229v-434z" />
<glyph unicode="L" horiz-adv-x="1184" d="M1162 0h-1000v1439h227v-1238h773v-201z" />
<glyph unicode="M" horiz-adv-x="1763" d="M1602 0h-230v1037l-428 -786h-125l-430 786v-1037h-227v1439h244l476 -880l476 880h244v-1439z" />
<glyph unicode="N" horiz-adv-x="1554" d="M1205 0l-816 1014v-1014h-227v1439h179l823 -1037v1035h229v-1437h-188z" />
<glyph unicode="O" horiz-adv-x="1524" d="M760 -10q-120 0 -229 40t-191.5 110.5t-143.5 162.5t-93 199t-32 218q0 113 33.5 222t96.5 200t147.5 160.5t192 108t223.5 38.5q120 0 229 -41t191.5 -112.5t143.5 -164t92 -199t31 -214.5q0 -114 -33 -223t-96 -199.5t-146.5 -159.5t-191 -107.5t-224.5 -38.5zM302 720 q0 -102 32.5 -196.5t91 -167.5t146.5 -117t190 -44q85 0 159 30t127.5 81t92.5 118t58.5 142.5t19.5 153.5q0 81 -21 158.5t-61 143t-94.5 115t-127 77.5t-153.5 28q-84 0 -158.5 -29t-129 -80t-94 -117.5t-59 -142t-19.5 -153.5z" />
<glyph unicode="P" horiz-adv-x="1262" d="M389 0h-227v1439h604q94 0 178.5 -40.5t142.5 -106.5t92 -150.5t34 -170.5q0 -90 -32 -175t-88 -150.5t-138 -105t-177 -39.5h-389v-501zM389 1238v-536h375q95 0 156 76.5t61 192.5q0 78 -32 140t-84 94.5t-113 32.5h-363z" />
<glyph unicode="Q" horiz-adv-x="1520" d="M1229 0l-93 105q-170 -115 -376 -115q-120 1 -229 41t-191.5 110.5t-143.5 162t-93 198.5t-32 218q0 113 33.5 222t96.5 200t147.5 160.5t192 108t223.5 38.5q120 0 229 -41t191.5 -112.5t143.5 -164t92 -199t31 -214.5q0 -142 -50.5 -271.5t-141.5 -231.5l188 -215h-218 zM762 195q129 0 234 68l-205 238h219l103 -120q51 71 78.5 159.5t27.5 179.5q0 102 -33 197t-91.5 167.5t-145 116t-187.5 43.5q-84 0 -158.5 -29.5t-129 -80.5t-94 -117.5t-59 -142.5t-19.5 -154q0 -102 32.5 -196.5t91 -167.5t146.5 -117t190 -44z" />
<glyph unicode="R" horiz-adv-x="1339" d="M389 0h-227v1439h627q94 0 178.5 -40.5t142 -106.5t91.5 -150.5t34 -170.5q0 -146 -77.5 -264.5t-204.5 -159.5l339 -547h-258l-312 501h-333v-501zM389 1238v-536h398q47 0 87.5 21.5t69 58.5t44.5 86t16 103q0 110 -69.5 188.5t-160.5 78.5h-385z" />
<glyph unicode="S" horiz-adv-x="1238" d="M1117 1287l-103 -186q-46 51 -158.5 98.5t-230.5 47.5q-141 0 -210.5 -52t-69.5 -147q0 -22 4.5 -41.5t12 -36t22.5 -30.5t29.5 -25.5t40 -22.5t47.5 -19.5t57.5 -19t65.5 -18t76 -18.5q67 -17 118.5 -32.5t103 -36t88.5 -44t69.5 -54t52.5 -67t31 -83t11 -101.5 q0 -86 -27 -155.5t-75 -117t-115 -79.5t-144.5 -46.5t-166.5 -14.5q-164 0 -317.5 50t-276.5 144l104 195q18 -18 46 -38t64.5 -41t81 -39.5t92.5 -33.5t103 -23.5t107 -8.5q67 0 119.5 12t88 35t54.5 58t19 79q0 36 -10.5 64.5t-38.5 51.5t-54.5 39.5t-81 35t-94 29.5 t-116.5 32q-75 19 -131 38.5t-106 44.5t-84 53.5t-59 65t-36.5 82t-11.5 101.5q0 104 40 187.5t110.5 138t165.5 83t207 28.5q93 0 184.5 -22t164 -57t137.5 -83z" />
<glyph unicode="T" horiz-adv-x="1248" d="M1219 1439v-201h-478v-1238h-230v1238h-480v201h1188z" />
<glyph unicode="U" horiz-adv-x="1524" d="M762 195q63 0 117 15t93.5 42t71 65t52.5 82t34.5 96.5t19 105t5.5 109.5v729h230v-729q0 -66 -6.5 -128t-21 -121.5t-35.5 -112t-50.5 -100.5t-66.5 -87.5t-84 -71t-101 -53.5t-119.5 -34t-138.5 -12q-133 0 -239.5 39.5t-177 106t-117 160t-66.5 196t-20 218.5v729h227 v-729q0 -58 6 -111.5t20 -105.5t35 -96t52.5 -82t71.5 -64t93 -41t115 -15z" />
<glyph unicode="V" horiz-adv-x="1374" d="M12 1439h241l434 -1153l432 1153h241l-575 -1439h-195z" />
<glyph unicode="W" horiz-adv-x="2130" d="M921 793l-248 641h215l176 -490l178 490h213l-244 -641l215 -530l447 1176h250l-594 -1439h-194l-269 644l-269 -644h-195l-594 1439h247l451 -1176z" />
<glyph unicode="X" horiz-adv-x="1298" d="M0 1439h251l399 -567l400 567h250l-528 -729l511 -710h-249l-384 547l-383 -547h-251l514 710z" />
<glyph unicode="Y" horiz-adv-x="1331" d="M18 1439h249l398 -721l401 721h250l-538 -924v-515h-227v519z" />
<glyph unicode="Z" d="M62 0v174l875 1064h-854v201h1119v-174l-854 -1064h857v-201h-1143z" />
<glyph unicode="[" horiz-adv-x="592" d="M499 -81h-331v1582h331v-181h-124v-1221h124v-180z" />
<glyph unicode="\" horiz-adv-x="1240" d="M54 1439h250l882 -1439h-247z" />
<glyph unicode="]" horiz-adv-x="592" d="M424 -81h-331v180h124v1221h-124v181h331v-1582z" />
<glyph unicode="^" horiz-adv-x="1153" d="M265 615h-182l401 824h187l399 -824h-186l-306 632z" />
<glyph unicode="_" horiz-adv-x="992" d="M874 -201h-754v201h754v-201z" />
<glyph unicode="`" horiz-adv-x="492" d="M282 1213l-187 267h213l116 -223z" />
<glyph unicode="a" horiz-adv-x="1143" d="M416 -20q-154 0 -257 95.5t-103 236.5q0 98 57 174.5t159 118t233 41.5q158 0 280 -48v73q0 118 -68 184t-192 66q-159 0 -337 -122l-68 141q206 139 425 139t341 -113t122 -320v-383q0 -38 13 -54t45 -18v-191q-53 -10 -101 -10q-62 0 -99.5 31.5t-44.5 83.5l-6 67 q-47 -61 -110 -104.5t-136.5 -65.5t-152.5 -22zM476 144q40 0 79.5 7.5t74.5 22t64 35.5t48 46q43 37 43 78v139q-122 47 -245 47q-120 0 -196.5 -52.5t-76.5 -135.5q0 -79 60 -133t149 -54z" />
<glyph unicode="b" horiz-adv-x="1273" d="M706 -20q-120 0 -219 57t-156 156v-193h-197v1480h222v-621q65 104 161 162t219 58q103 0 192.5 -45.5t149.5 -122t94.5 -177t34.5 -209.5q0 -112 -38.5 -212.5t-105 -173.5t-160 -116t-197.5 -43zM646 170q95 0 172 50t118 131t41 174q0 71 -23.5 137t-64 116t-99.5 80 t-127 30q-97 0 -179.5 -64.5t-127.5 -164.5v-280q10 -35 32 -68t51.5 -58t64 -44t71.5 -29t71 -10z" />
<glyph unicode="c" horiz-adv-x="1132" d="M65 532q0 111 39.5 211t109.5 174.5t174 118t227 43.5q160 0 279 -71t180 -193l-217 -69q-37 67 -102.5 104.5t-144.5 37.5q-89 0 -161 -45t-113.5 -127t-41.5 -184q0 -101 43 -184t116 -130.5t159 -47.5q54 0 106 19.5t90.5 53t54.5 73.5l220 -65q-53 -121 -178.5 -196 t-289.5 -75q-121 0 -225 44.5t-174.5 120t-110.5 176t-40 211.5z" />
<glyph unicode="d" horiz-adv-x="1290" d="M565 -20q-105 0 -198 44t-158.5 118t-103.5 176t-38 216q0 109 36 209.5t98.5 174t151 117.5t189.5 44q81 0 155 -29t129 -77.5t93 -113.5v621h222v-1217q0 -38 14 -54t47 -18v-191q-58 -10 -91 -10q-67 0 -110 34.5t-46 89.5l-4 79q-39 -66 -98 -113.5t-132.5 -73.5 t-155.5 -26zM621 170q99 0 186 61t112 150v278q-38 101 -127.5 165t-187.5 64q-64 0 -122 -30.5t-97.5 -81t-63 -116t-23.5 -133.5q0 -97 43.5 -179.5t118 -130t161.5 -47.5z" />
<glyph unicode="e" horiz-adv-x="1205" d="M615 -20q-121 0 -225 44t-174.5 118.5t-110.5 174t-40 210.5q0 112 40 212.5t111 176t175 119.5t226 44q121 0 224 -44.5t171.5 -119t106.5 -172.5t38 -205q0 -28 -6 -82h-849q10 -137 102.5 -224.5t218.5 -87.5q90 0 168.5 45t108.5 117l191 -55q-56 -121 -184 -196 t-292 -75zM296 610h641q-14 135 -104 220t-218 85t-218.5 -85.5t-100.5 -219.5z" />
<glyph unicode="f" horiz-adv-x="721" d="M418 0h-223v861h-143v173h143v42q0 195 91.5 310t247.5 115q125 0 246 -65l-48 -167q-31 19 -73 31t-79 12q-79 0 -120.5 -59t-41.5 -170v-49h271v-173h-271v-861z" />
<glyph unicode="g" d="M553 -10q-104 0 -195.5 44t-154 118t-98.5 172.5t-36 205.5q0 89 23 172.5t67 151.5t103.5 118.5t136.5 78.5t162 28q123 0 220.5 -59t162.5 -161v201h197v-1029q0 -113 -42.5 -204.5t-118.5 -152.5t-178.5 -93.5t-223.5 -32.5q-115 0 -208 28t-160 77t-121 122l126 117 q60 -84 156 -129t207 -45q70 0 130.5 19t108 56.5t75 98.5t27.5 139v162q-56 -94 -155.5 -148.5t-210.5 -54.5zM627 170q98 0 182.5 62.5t109.5 148.5v278q-39 100 -126.5 164.5t-182.5 64.5q-70 0 -130 -31.5t-99.5 -83t-62 -117t-22.5 -133.5q0 -96 43.5 -177 t119.5 -128.5t168 -47.5z" />
<glyph unicode="h" horiz-adv-x="1209" d="M1085 646v-646h-224v594q0 143 -51.5 214.5t-148.5 71.5q-93 0 -182.5 -71t-122.5 -178v-631h-222v1480h222v-633q61 108 166 170t228 62q335 0 335 -433z" />
<glyph unicode="i" horiz-adv-x="490" d="M356 0h-222v1060h222v-1060zM356 1235h-222v245h222v-245z" />
<glyph unicode="j" horiz-adv-x="501" d="M23 -387q-155 0 -257 91l100 150q51 -47 130 -47q61 0 105.5 44.5t44.5 109.5v1099h223v-1083q0 -78 -27.5 -147t-74.5 -116t-110.5 -74t-133.5 -27zM369 1235h-223v245h223v-245z" />
<glyph unicode="k" horiz-adv-x="1110" d="M1109 0h-237l-338 489l-178 -166v-323h-222v1480h222v-938l487 516h244l-412 -443z" />
<glyph unicode="l" horiz-adv-x="609" d="M136 225v1255h222v-1174q0 -60 30.5 -93t85.5 -33q41 0 108 27l33 -174q-49 -22 -115.5 -35.5t-120.5 -13.5q-115 0 -179 63.5t-64 177.5z" />
<glyph unicode="m" horiz-adv-x="1879" d="M1756 646v-646h-223v594q0 286 -191 286q-94 0 -173 -70t-113 -181v-629h-222v594q0 286 -190 286q-46 0 -91 -18t-83 -50.5t-67.5 -79t-46.5 -101.5v-631h-222v1060h203v-213q62 112 165 172t234 60q126 0 204.5 -67t98.5 -174q44 78 104 131.5t134.5 81.5t159.5 28 q319 0 319 -433z" />
<glyph unicode="n" horiz-adv-x="1209" d="M1085 646v-646h-224v594q0 99 -21.5 162.5t-62.5 93.5t-104 30q-97 0 -189.5 -71.5t-127.5 -177.5v-631h-222v1060h203v-213q61 107 176.5 169.5t254.5 62.5q74 0 130 -23t91 -61.5t57 -95.5t30.5 -117.5t8.5 -135.5z" />
<glyph unicode="o" horiz-adv-x="1219" d="M610 -20q-98 0 -184.5 29t-151.5 80t-112.5 120t-72 151t-24.5 169.5t25 170t72.5 151t113 120t151.5 80t183 28.5q121 0 224 -44.5t173 -120t109 -175t39 -209.5t-39 -210t-109 -175.5t-173 -120t-224 -44.5zM294 527q0 -153 91.5 -255t224.5 -102q65 0 123.5 28 t101 75.5t67.5 114.5t25 142q0 99 -42.5 181.5t-115 129.5t-159.5 47q-64 0 -122.5 -28t-101 -76t-67.5 -115.5t-25 -141.5z" />
<glyph unicode="p" horiz-adv-x="1273" d="M736 -20q-124 0 -222.5 59t-157.5 160v-631h-222v1492h197v-190q62 97 159.5 153t215.5 56q106 0 200 -44.5t159.5 -119t103.5 -174.5t38 -209q0 -114 -35 -215.5t-96.5 -175.5t-150 -117.5t-189.5 -43.5zM663 170q91 0 164 52.5t111.5 134.5t38.5 175q0 72 -25.5 138 t-69 114t-105 76t-131.5 28q-89 0 -177.5 -61.5t-112.5 -147.5v-277q42 -100 127 -166t180 -66z" />
<glyph unicode="q" horiz-adv-x="1273" d="M538 -20q-102 0 -190 44.5t-148.5 119.5t-95.5 176t-35 212t38.5 212t104 174.5t158.5 117t197 43.5q119 0 217.5 -57.5t157.5 -153.5v192h197v-1218q0 -38 15 -54t51 -19v-191q-54 -8 -120 -8q-69 0 -118.5 47.5t-49.5 115.5v466q-44 -72 -101.5 -120.5t-127.5 -73.5 t-150 -25zM619 170q95 0 170 55t128 148v279q-10 47 -40.5 91t-71.5 75.5t-90.5 50.5t-95.5 19q-91 0 -166 -52t-116 -135t-41 -176q0 -97 41 -178t115.5 -129t166.5 -48z" />
<glyph unicode="r" horiz-adv-x="757" d="M730 1068v-200q-131 -3 -231.5 -61t-142.5 -159v-648h-222v1060h207v-237q36 72 88.5 126.5t115 85.5t128.5 35q43 0 57 -2z" />
<glyph unicode="s" horiz-adv-x="1004" d="M519 -20q-131 0 -257.5 42t-214.5 118l89 142q194 -140 379 -140q100 0 157.5 39t57.5 109q0 22 -6.5 39.5t-23 32t-34.5 25.5t-53 23t-66 21t-85 23q-85 23 -140.5 41.5t-103.5 42t-73.5 51.5t-39.5 65t-14 87q0 104 55 182t148 117t209 39q239 0 408 -142l-96 -134 q-147 118 -314 118q-89 0 -145 -37.5t-56 -111.5q0 -26 8.5 -45t23 -33t46 -27t64 -22.5t90.5 -23.5q92 -22 154 -42t114.5 -46t82 -57.5t45.5 -72.5t16 -95q0 -151 -115 -239.5t-310 -88.5z" />
<glyph unicode="t" horiz-adv-x="743" d="M677 231l47 -177q-149 -70 -278 -70q-53 0 -99 14t-82 42t-56.5 75.5t-20.5 109.5v663h-139v172h139v349h224v-349h231v-172h-231v-592q3 -54 34 -81t79 -27q70 0 152 43z" />
<glyph unicode="u" horiz-adv-x="1234" d="M460 -20q-165 0 -250.5 109.5t-85.5 322.5v648h222v-604q0 -94 23 -157.5t68.5 -96t111.5 -32.5q97 0 182 60t130 169v661h224v-797q0 -38 13.5 -54t46.5 -18v-191q-58 -10 -99 -10q-61 0 -104 33.5t-44 86.5l-4 105q-70 -114 -183.5 -174.5t-250.5 -60.5z" />
<glyph unicode="v" horiz-adv-x="1100" d="M671 0h-239l-405 1060h228l304 -872l306 872h211z" />
<glyph unicode="w" horiz-adv-x="1682" d="M1115 215l340 845h214l-446 -1060h-184l-197 493l-198 -493h-184l-448 1060h213l342 -845l155 393l-184 450h182l122 -332l119 332h182l-182 -450z" />
<glyph unicode="x" horiz-adv-x="1058" d="M20 1060h231l260 -362l19 -35l17 35l258 362h234l-389 -530l392 -530h-233l-262 361l-17 32l-19 -32l-262 -361h-233l392 530z" />
<glyph unicode="y" horiz-adv-x="1108" d="M170 -445v196q71 -14 108 -14q36 0 60.5 21.5t50 75t65.5 166.5l-436 1060h230l328 -863l292 863h211l-481 -1306q-22 -61 -64 -108.5t-107.5 -76.5t-146.5 -29q-53 0 -110 15z" />
<glyph unicode="z" horiz-adv-x="998" d="M56 0v140l637 762h-614v158h850v-139l-633 -763h639v-158h-879z" />
<glyph unicode="{" horiz-adv-x="594" d="M497 1320h-112v-455q0 -77 -64 -135q20 -18 34.5 -41.5t22 -48t7.5 -46.5v-476h112v-180h-268q-17 0 -32 14.5t-15 45.5v527q0 48 -26.5 84t-66.5 43v159q27 0 49 21t33 49t11 54v504q0 34 15.5 48t31.5 14h268v-181z" />
<glyph unicode="|" horiz-adv-x="518" d="M354 -263h-190v1834h190v-1834z" />
<glyph unicode="}" horiz-adv-x="594" d="M211 1320h-112v181h266q6 0 13 -3t15 -9t13.5 -19t5.5 -31v-504q0 -42 27 -83t66 -41v-159q-41 -7 -67 -42.5t-26 -84.5v-527q0 -31 -15 -45.5t-32 -14.5h-266v180h112v476q0 36 16 72.5t46 63.5q-62 56 -62 135v455z" />
<glyph unicode="~" horiz-adv-x="1112" d="M124 470q0 15 7.5 42t27.5 63t48 67.5t74 53.5t100 22q46 0 95.5 -17.5t84.5 -38.5t80.5 -38.5t84.5 -17.5q31 0 56.5 10t40 24t25 30t14 26t3.5 14h129q0 -9 -8 -33t-28.5 -60t-49.5 -68.5t-78 -55.5t-106 -23q-48 0 -98.5 17.5t-86 38.5t-80 38.5t-80.5 17.5 q-29 0 -53.5 -11.5t-38 -27t-22.5 -32.5t-12.5 -27.5t-3.5 -13.5h-125z" />
<glyph unicode="&#xa2;" horiz-adv-x="1175" d="M665 -244h-106v226q-102 8 -192 58t-151.5 124.5t-97 168.5t-35.5 190q0 102 32.5 196t92 168.5t150.5 124.5t201 64v232h106v-232q96 -3 178 -34t145 -88.5t105 -138.5l-215 -69q-35 61 -91 95.5t-122 38.5v-704q69 8 134.5 46.5t84.5 93.5l217 -65q-26 -64 -79 -117.5 t-115 -86t-125 -50t-117 -17.5v-224zM312 523q0 -120 69.5 -215.5t177.5 -121.5v686q-75 -12 -132.5 -65t-86 -127.5t-28.5 -156.5z" />
<glyph unicode="&#xa3;" horiz-adv-x="1070" d="M112 596v170h161q-9 20 -31 62.5t-34 67.5t-26.5 61t-21 70t-6.5 68q0 97 54 178.5t146.5 128.5t200.5 47q117 0 223.5 -56.5t176.5 -155.5l-119 -138q-49 75 -128 121.5t-157 46.5q-83 0 -139 -55t-56 -138q0 -46 17.5 -93t54 -114.5t50.5 -100.5h369v-170h-322 q5 -40 5 -47q0 -95 -43 -181t-144 -194q89 23 152 23q52 0 142.5 -18.5t136.5 -18.5q63 0 163 35l54 -166q-109 -60 -229 -60q-60 0 -177.5 28t-182.5 28q-114 0 -244 -41l-53 160q119 105 174.5 201t55.5 195q0 20 -4 56h-219z" />
<glyph unicode="&#xa5;" horiz-adv-x="1416" d="M1356 1439l-387 -650h157v-148h-236l-71 -126v-59h309v-148h-309v-308h-229v308h-304v148h304v63l-67 122h-237v148h160l-388 650h250l398 -721l401 721h249z" />
<glyph unicode="&#xa8;" horiz-adv-x="832" d="M331 1247h-187v223h187v-223zM689 1247h-186v223h186v-223z" />
<glyph unicode="&#xa9;" horiz-adv-x="1698" d="M845 -14q-160 0 -300 56t-239.5 153t-157 233.5t-57.5 291.5q0 154 57.5 289.5t157 232t239.5 152t300 55.5q162 0 304 -55.5t243 -152t159.5 -232t58.5 -289.5q0 -155 -58.5 -291.5t-159.5 -233.5t-243 -153t-304 -56zM845 75q140 0 263 47.5t212 130.5t141 203t52 260 q0 136 -51 255.5t-139 204.5t-212 134.5t-266 49.5q-139 0 -261.5 -49t-209.5 -134.5t-137.5 -204.5t-50.5 -254t50 -254t137 -204.5t210 -135t262 -49.5zM861 242q-139 0 -252.5 61t-178.5 170.5t-65 246.5q0 60 14 118.5t40 112t68 99t94.5 79t122.5 52.5t149 19 q151 0 263.5 -65t164.5 -182l-215 -69q-16 35 -42 60t-55.5 38.5t-58 19.5t-57.5 6q-81 0 -141.5 -41.5t-90 -106t-29.5 -140.5q0 -67 23.5 -122.5t62 -91t85 -55t94.5 -19.5q66 0 127.5 34.5t89.5 92.5l218 -64q-20 -48 -59 -92t-92.5 -80.5t-126.5 -58.5t-153 -22z" />
<glyph unicode="&#xab;" horiz-adv-x="1258" d="M77 464v112l523 375v-185l-345 -241l345 -233v-182zM615 464v112l524 375v-185l-346 -241l346 -233v-182z" />
<glyph unicode="&#xad;" horiz-adv-x="853" d="M730 454h-606v201h606v-201z" />
<glyph unicode="&#xae;" horiz-adv-x="1698" d="M847.5 -14q-160.5 0 -301.5 56t-240.5 153t-157 233.5t-57.5 291.5q0 154 57.5 289.5t157 232t240.5 152t301.5 55.5t302 -55.5t242.5 -152t159.5 -232t58.5 -289.5q0 -155 -58.5 -291.5t-159.5 -233.5t-242.5 -153t-302 -56zM847 73q139 0 261.5 47.5t211 131.5t140 205 t51.5 261q0 134 -50.5 253t-138 204.5t-211 135t-264 49.5t-263 -49.5t-208.5 -135t-135.5 -203.5t-49.5 -252q0 -136 49.5 -255.5t135.5 -205.5t208.5 -136t262.5 -50zM527 269v901h392q78 0 143 -43.5t100.5 -111t35.5 -139.5q0 -90 -50 -164t-130 -100l217 -343h-181 l-199 315h-168v-315h-160zM687 724h222q24 0 45 7t37 20t27 32t16.5 42.5t5.5 50.5q0 69 -39 109.5t-99 40.5h-215v-302z" />
<glyph unicode="&#xb4;" horiz-adv-x="492" d="M424 1480l-182 -267l-147 44l116 223h213z" />
<glyph unicode="&#xb8;" horiz-adv-x="627" d="M45 -343l46 88q28 -16 78.5 -28.5t99.5 -12.5q116 0 116 69t-105 69q-79 0 -162 -24l122 231l91 -31l-72 -109q27 8 70 8q48 0 85 -14t59 -45.5t22 -76.5q0 -49 -26.5 -85.5t-81.5 -57.5t-134 -21q-101 0 -208 40z" />
<glyph unicode="&#xbb;" horiz-adv-x="1258" d="M1182 576v-112l-523 -354v182l347 233l-347 241v185zM644 576v-112l-522 -354v182l344 233l-344 241v185z" />
<glyph unicode="&#xd3;" horiz-adv-x="1524" d="M1000 1857l-183 -267l-146 44l116 223h213zM760 -10q-120 0 -229 40t-191.5 110.5t-143.5 162.5t-93 199t-32 218q0 113 33.5 222t96.5 200t147.5 160.5t192 108t223.5 38.5q120 0 229 -41t191.5 -112.5t143.5 -164t92 -199t31 -214.5q0 -114 -33 -223t-96 -199.5 t-146.5 -159.5t-191 -107.5t-224.5 -38.5zM302 720q0 -102 32.5 -196.5t91 -167.5t146.5 -117t190 -44q85 0 159 30t127.5 81t92.5 118t58.5 142.5t19.5 153.5q0 81 -21 158.5t-61 143t-94.5 115t-127 77.5t-153.5 28q-84 0 -158.5 -29t-129 -80t-94 -117.5t-59 -142 t-19.5 -153.5z" />
<glyph unicode="&#xf3;" horiz-adv-x="1219" d="M842 1480l-183 -267l-146 44l116 223h213zM610 -20q-98 0 -184.5 29t-151.5 80t-112.5 120t-72 151t-24.5 169.5t25 170t72.5 151t113 120t151.5 80t183 28.5q121 0 224 -44.5t173 -120t109 -175t39 -209.5t-39 -210t-109 -175.5t-173 -120t-224 -44.5zM294 527 q0 -153 91.5 -255t224.5 -102q65 0 123.5 28t101 75.5t67.5 114.5t25 142q0 99 -42.5 181.5t-115 129.5t-159.5 47q-64 0 -122.5 -28t-101 -76t-67.5 -115.5t-25 -141.5z" />
<glyph unicode="&#x104;" horiz-adv-x="1372" d="M1257 -381q-96 14 -148.5 59.5t-52.5 106.5q0 111 161 215h-104l-152 391h-555l-151 -391h-241l572 1439h199l567 -1439q-85 -52 -123.5 -95t-38.5 -85q0 -36 29.5 -57.5t88.5 -25.5zM446 559h471l-232 619z" />
<glyph unicode="&#x105;" horiz-adv-x="1143" d="M971 -381q-96 14 -148.5 59.5t-52.5 106.5q0 106 153 209q-22 4 -40 14.5t-30.5 25t-20.5 32.5t-11 39l-6 67q-47 -61 -110 -104.5t-136.5 -65.5t-152.5 -22q-154 0 -257 95.5t-103 236.5q0 98 57 174.5t159 118t233 41.5q158 0 280 -48v73q0 118 -68 184t-192 66 q-159 0 -337 -122l-68 141q206 139 425 139t341 -113t122 -320v-383q0 -38 13 -54t45 -18v-191q-85 -52 -123.5 -95t-38.5 -85q0 -36 29.5 -57.5t88.5 -25.5zM476 144q40 0 79.5 7.5t74.5 22t64 35.5t48 46q43 37 43 78v139q-122 47 -245 47q-120 0 -196.5 -52.5 t-76.5 -135.5q0 -79 60 -133t149 -54z" />
<glyph unicode="&#x106;" horiz-adv-x="1386" d="M1002 1857l-183 -267l-146 44l116 223h213zM71 730q0 87 21.5 174t61.5 166.5t101 148.5t136.5 119.5t172.5 79.5t204 29q189 0 332.5 -85.5t215.5 -227.5l-178 -120q-29 63 -73 109t-95 71t-103 36.5t-107 11.5q-87 0 -162.5 -30t-128.5 -80.5t-91.5 -117.5t-57 -141.5 t-18.5 -150.5q0 -104 35 -200.5t95.5 -169t148 -116t185.5 -43.5q55 0 109 13.5t106.5 41t96.5 74.5t71 108l189 -107q-32 -78 -95.5 -142.5t-142.5 -106t-167.5 -64t-174.5 -22.5q-117 0 -225.5 42t-191 114.5t-144 166t-94 202t-32.5 217.5z" />
<glyph unicode="&#x107;" horiz-adv-x="1132" d="M843 1480l-182 -267l-146 44l116 223h212zM65 532q0 111 39.5 211t109.5 174.5t174 118t227 43.5q160 0 279 -71t180 -193l-217 -69q-37 67 -102.5 104.5t-144.5 37.5q-89 0 -161 -45t-113.5 -127t-41.5 -184q0 -101 43 -184t116 -130.5t159 -47.5q54 0 106 19.5t90.5 53 t54.5 73.5l220 -65q-53 -121 -178.5 -196t-289.5 -75q-121 0 -225 44.5t-174.5 120t-110.5 176t-40 211.5z" />
<glyph unicode="&#x118;" horiz-adv-x="1221" d="M389 201h760v-201q-85 -52 -123.5 -95t-38.5 -85q0 -36 29.5 -57.5t88.5 -25.5l-51 -118q-64 10 -110 34.5t-68.5 58t-22.5 73.5q0 111 161 215h-852v1439h970v-201h-743v-408h643v-189h-643v-440z" />
<glyph unicode="&#x119;" horiz-adv-x="1205" d="M641 -389q-97 14 -149 59.5t-52 106.5q0 103 142 205q-92 4 -173.5 34t-143.5 81t-107.5 117.5t-69 146.5t-23.5 166q0 112 40 212.5t111 176t175 119.5t226 44q121 0 224 -44.5t171.5 -119t106.5 -172.5t38 -205q0 -28 -6 -82h-849q10 -137 102.5 -224.5t218.5 -87.5 q90 0 168.5 45t108.5 117l191 -55q-29 -63 -81 -116t-122.5 -90t-151.5 -53q-85 -52 -123.5 -95t-38.5 -85q0 -74 117 -83zM296 610h641q-14 135 -104 220t-218 85t-218.5 -85.5t-100.5 -219.5z" />
<glyph unicode="&#x141;" horiz-adv-x="1199" d="M1178 0h-1000v557l-109 -77l-61 124l170 120v715h228v-557l257 180l59 -122l-316 -222v-517h772v-201z" />
<glyph unicode="&#x142;" horiz-adv-x="658" d="M182 225v410l-113 -76l-61 124l174 114v683h224v-536l174 116l63 -121l-237 -159v-474q0 -60 30 -93t85 -33q41 0 108 27l32 -174q-48 -22 -114.5 -35.5t-120.5 -13.5q-115 0 -179.5 63.5t-64.5 177.5z" />
<glyph unicode="&#x143;" horiz-adv-x="1554" d="M1012 1855l-182 -267l-147 45l116 222h213zM1205 0l-816 1014v-1014h-227v1439h179l823 -1037v1035h229v-1437h-188z" />
<glyph unicode="&#x144;" horiz-adv-x="1209" d="M859 1480l-182 -267l-145 44l114 223h213zM1085 646v-646h-224v594q0 99 -21.5 162.5t-62.5 93.5t-104 30q-97 0 -189.5 -71.5t-127.5 -177.5v-631h-222v1060h203v-213q61 107 176.5 169.5t254.5 62.5q74 0 130 -23t91 -61.5t57 -95.5t30.5 -117.5t8.5 -135.5z" />
<glyph unicode="&#x15a;" horiz-adv-x="1238" d="M878 1879l-183 -267l-146 44l116 223h213zM1117 1287l-103 -186q-46 51 -158.5 98.5t-230.5 47.5q-141 0 -210.5 -52t-69.5 -147q0 -22 4.5 -41.5t12 -36t22.5 -30.5t29.5 -25.5t40 -22.5t47.5 -19.5t57.5 -19t65.5 -18t76 -18.5q67 -17 118.5 -32.5t103 -36t88.5 -44 t69.5 -54t52.5 -67t31 -83t11 -101.5q0 -86 -27 -155.5t-75 -117t-115 -79.5t-144.5 -46.5t-166.5 -14.5q-164 0 -317.5 50t-276.5 144l104 195q18 -18 46 -38t64.5 -41t81 -39.5t92.5 -33.5t103 -23.5t107 -8.5q67 0 119.5 12t88 35t54.5 58t19 79q0 36 -10.5 64.5 t-38.5 51.5t-54.5 39.5t-81 35t-94 29.5t-116.5 32q-75 19 -131 38.5t-106 44.5t-84 53.5t-59 65t-36.5 82t-11.5 101.5q0 104 40 187.5t110.5 138t165.5 83t207 28.5q93 0 184.5 -22t164 -57t137.5 -83z" />
<glyph unicode="&#x15b;" horiz-adv-x="1004" d="M732 1480l-183 -267l-145 44l115 223h213zM519 -20q-131 0 -257.5 42t-214.5 118l89 142q194 -140 379 -140q100 0 157.5 39t57.5 109q0 22 -6.5 39.5t-23 32t-34.5 25.5t-53 23t-66 21t-85 23q-85 23 -140.5 41.5t-103.5 42t-73.5 51.5t-39.5 65t-14 87q0 104 55 182 t148 117t209 39q239 0 408 -142l-96 -134q-147 118 -314 118q-89 0 -145 -37.5t-56 -111.5q0 -26 8.5 -45t23 -33t46 -27t64 -22.5t90.5 -23.5q92 -22 154 -42t114.5 -46t82 -57.5t45.5 -72.5t16 -95q0 -151 -115 -239.5t-310 -88.5z" />
<glyph unicode="&#x179;" d="M898 1857l-182 -267l-147 44l116 223h213zM62 0v174l875 1064h-854v201h1119v-174l-854 -1064h857v-201h-1143z" />
<glyph unicode="&#x17a;" horiz-adv-x="998" d="M744 1480l-183 -267l-145 44l116 223h212zM56 0v140l637 762h-614v158h850v-139l-633 -763h639v-158h-879z" />
<glyph unicode="&#x17b;" d="M62 0v174l875 1064h-854v201h1119v-174l-854 -1064h857v-201h-1143zM766 1624h-201v233h201v-233z" />
<glyph unicode="&#x17c;" horiz-adv-x="998" d="M56 0v140l637 762h-614v158h850v-139l-633 -763h639v-158h-879zM610 1247h-200v233h200v-233z" />
<glyph unicode="&#x2c6;" horiz-adv-x="719" d="M186 1231l-117 56l211 193h160l210 -193l-118 -56l-174 127z" />
<glyph unicode="&#x2da;" horiz-adv-x="520" d="M81 1333q0 68 49 107.5t129 39.5q82 0 131.5 -39.5t49.5 -107.5q0 -45 -22.5 -79t-63.5 -52t-95 -18q-79 0 -128.5 40.5t-49.5 108.5zM259 1407q-34 0 -57.5 -21t-23.5 -53q0 -31 23.5 -53.5t57.5 -22.5t59 22t25 54q0 21 -11.5 38t-30 26.5t-42.5 9.5z" />
<glyph unicode="&#x2dc;" horiz-adv-x="863" d="M561 1247q-41 0 -80.5 14t-64.5 30t-57 30t-61 14q-22 0 -39 -7t-27 -17.5t-17.5 -22t-10.5 -23.5t-4 -18.5t-1 -9.5h-126q0 15 6 40.5t22.5 59.5t39.5 63t62.5 49.5t86.5 20.5q40 0 78 -14t62.5 -30.5t58.5 -30.5t66 -14q28 0 49.5 9.5t32.5 22.5t18 29t8.5 25t1.5 13 h128q0 -13 -6.5 -37.5t-23.5 -59t-42 -64.5t-67 -51t-93 -21z" />
<glyph unicode="&#x400;" horiz-adv-x="1226" d="M393 201h760v-201h-987v1439h970v-201h-743v-408h644v-189h-644v-440zM627 1592l-187 267h212l116 -223z" />
<glyph unicode="&#x401;" horiz-adv-x="1226" d="M588 1626h-186v223h186v-223zM946 1626h-186v223h186v-223zM393 201h760v-201h-987v1439h970v-201h-743v-408h644v-189h-644v-440z" />
<glyph unicode="&#x402;" horiz-adv-x="1463" d="M379 0v1240h-348v199h1131v-199h-558v-441q68 58 161 89t198 31q143 0 245.5 -56t157 -164t54.5 -259q0 -222 -112.5 -341t-326.5 -119q-132 0 -249 45l65 190q101 -45 174 -45q215 0 215 270q0 95 -27.5 157.5t-82 93.5t-137.5 31q-182 0 -335 -136v-586h-225z" />
<glyph unicode="&#x403;" horiz-adv-x="1049" d="M832 1857l-184 -267l-145 44l116 223h213zM1020 1439v-201h-625v-1238h-229v1439h854z" />
<glyph unicode="&#x404;" horiz-adv-x="1416" d="M1184 430l188 -107q-45 -105 -136.5 -181.5t-209.5 -115t-252 -38.5q-124 0 -236 42t-195.5 114t-145 166.5t-93 202t-31.5 217.5q0 105 29 208t88.5 195t143 162t200 111t251.5 41q104 0 194 -22.5t159 -65t121.5 -99t88.5 -126.5l-178 -120q-29 62 -74.5 108.5 t-99.5 71.5t-108.5 36.5t-111.5 11.5q-81 0 -151.5 -22.5t-121.5 -61t-90.5 -91.5t-63 -112.5t-33.5 -124.5h649v-189h-655q11 -92 49.5 -173t98.5 -142.5t144 -97t181 -35.5q58 0 115 13.5t111 41t100 74.5t75 108z" />
<glyph unicode="&#x405;" horiz-adv-x="1238" d="M1117 1287l-103 -186q-46 51 -158.5 98.5t-230.5 47.5q-141 0 -210.5 -52t-69.5 -147q0 -22 4.5 -41.5t12 -36t22.5 -30.5t29.5 -25.5t40 -22.5t47.5 -19.5t57.5 -19t65.5 -18t76 -18.5q67 -17 118.5 -32.5t103 -36t88.5 -44t69.5 -54t52.5 -67t31 -83t11 -101.5 q0 -86 -27 -155.5t-75 -117t-115 -79.5t-144.5 -46.5t-166.5 -14.5q-164 0 -317.5 50t-276.5 144l104 195q18 -18 46 -38t64.5 -41t81 -39.5t92.5 -33.5t103 -23.5t107 -8.5q67 0 119.5 12t88 35t54.5 58t19 79q0 36 -10.5 64.5t-38.5 51.5t-54.5 39.5t-81 35t-94 29.5 t-116.5 32q-75 19 -131 38.5t-106 44.5t-84 53.5t-59 65t-36.5 82t-11.5 101.5q0 104 40 187.5t110.5 138t165.5 83t207 28.5q93 0 184.5 -22t164 -57t137.5 -83z" />
<glyph unicode="&#x406;" horiz-adv-x="561" d="M393 0h-227v1439h227v-1439z" />
<glyph unicode="&#x407;" horiz-adv-x="561" d="M393 0h-227v1439h227v-1439zM195 1626h-187v223h187v-223zM553 1626h-186v223h186v-223z" />
<glyph unicode="&#x408;" horiz-adv-x="992" d="M20 67l55 186q24 -17 60.5 -32.5t89.5 -27t108 -11.5q46 0 83.5 8t65.5 26t49.5 41t36 58.5t24 73.5t14.5 91t7 105.5t2 122.5v731h228v-731q0 -79 -2.5 -141t-9.5 -127.5t-19 -116t-32 -100t-47.5 -86t-65.5 -68t-86.5 -51t-110.5 -30.5t-137 -11q-182 0 -313 90z" />
<glyph unicode="&#x409;" horiz-adv-x="2072" d="M43 -14l-27 211q36 2 63.5 9.5t56 25t50 46.5t42.5 73t37.5 106.5t32 146.5t28.5 192.5t24 243.5l35 399h815v-576h377q94 0 174.5 -28.5t140.5 -81.5t94 -135t34 -184q0 -104 -34 -187t-93 -136.5t-139 -82t-173 -28.5h-610v1238h-377l-18 -230q-18 -227 -45 -391.5 t-68.5 -287.5t-101 -197t-137.5 -110t-181 -36zM1200 197h369q42 0 77 10.5t61.5 31t44.5 49t27 65.5t9 81q0 109 -57.5 174t-161.5 65h-369v-476z" />
<glyph unicode="&#x40a;" horiz-adv-x="2142" d="M166 0v1439h229v-580h647v580h227v-576h377q95 0 176 -28.5t140.5 -81.5t93.5 -135t34 -184q0 -104 -33.5 -187t-93 -136.5t-139.5 -82t-174 -28.5h-608v659h-647v-659h-229zM1269 197h369q108 0 164.5 60.5t56.5 172.5q0 110 -57 172.5t-164 62.5h-369v-468z" />
<glyph unicode="&#x40b;" horiz-adv-x="1469" d="M1170 0v440q0 143 -54.5 207.5t-178.5 64.5q-189 0 -333 -122v-590h-225v1240h-348v199h1122v-199h-549v-433q71 53 168 82.5t205 29.5q196 0 306 -103.5t110 -308.5v-507h-223z" />
<glyph unicode="&#x40c;" horiz-adv-x="1290" d="M909 1857l-183 -267l-146 44l115 223h214zM395 1439v-609h150l457 609h259l-515 -695l562 -744h-260l-481 625h-172v-625h-229v1439h229z" />
<glyph unicode="&#x40d;" horiz-adv-x="1487" d="M716 1592l-186 267h212l115 -223zM395 1439v-1089l785 1089h180v-1439h-228v1068l-774 -1068h-192v1439h229z" />
<glyph unicode="&#x40e;" d="M365 -14q-45 0 -98 10.5t-87 30.5l19 190q30 -13 71.5 -23t75.5 -10q69 0 117 40.5t88 142.5l-524 1072h244l386 -833l363 833h239l-507 -1094q-91 -199 -175.5 -279t-211.5 -80zM655 1600q-98 0 -172.5 30.5t-117 89t-44.5 137.5h135q0 -55 58.5 -94t140.5 -39 q52 0 95 17t69.5 47.5t33.5 68.5h134q-2 -79 -44 -137.5t-116 -89t-172 -30.5z" />
<glyph unicode="&#x40f;" horiz-adv-x="1424" d="M168 0v1439h227v-1238h635v1238h229v-1439h-436v-367h-221v367h-434z" />
<glyph unicode="&#x410;" horiz-adv-x="1368" d="M14 0l572 1439h199l567 -1439h-239l-152 391h-555l-151 -391h-241zM446 559h471l-232 619z" />
<glyph unicode="&#x411;" horiz-adv-x="1343" d="M166 0v1439h1032v-201h-803v-383h441q129 0 228 -48t157 -145.5t58 -231.5q0 -136 -57 -234.5t-155.5 -147t-226.5 -48.5h-674zM395 197h433q106 0 163 62.5t57 170.5t-57 171.5t-163 63.5h-433v-468z" />
<glyph unicode="&#x412;" horiz-adv-x="1374" d="M1267 371q0 -112 -60.5 -197.5t-161 -129.5t-222.5 -44h-687v1439h742q74 0 137 -31.5t104 -84t64.5 -118t23.5 -133.5q0 -107 -55.5 -199.5t-151.5 -134.5q124 -37 195.5 -134t71.5 -233zM1034 414q0 90 -56.5 156.5t-139.5 66.5h-475v-440h460q89 0 150 64t61 153z M793 1242h-430v-423h417q85 0 142 60t57 151q0 92 -52.5 152t-133.5 60z" />
<glyph unicode="&#x413;" horiz-adv-x="1049" d="M1020 1439v-201h-625v-1238h-229v1439h854z" />
<glyph unicode="&#x414;" horiz-adv-x="1491" d="M37 -369v570h32q44 3 77 17t66 48t57.5 94t47 151.5t40.5 223t32 305.5l33 399h815v-1238h218v-570h-211v369h-998v-369h-209zM404 201h606v1037h-377l-21 -230q-28 -327 -77 -519.5t-131 -287.5z" />
<glyph unicode="&#x415;" horiz-adv-x="1226" d="M393 201h760v-201h-987v1439h970v-201h-743v-408h644v-189h-644v-440z" />
<glyph unicode="&#x416;" horiz-adv-x="2006" d="M-6 0l497 744l-450 695h259l385 -609h197v609h244v-609h198l383 609h262l-452 -695l499 -744h-260l-404 625h-226v-625h-244v625h-227l-404 -625h-257z" />
<glyph unicode="&#x417;" horiz-adv-x="1080" d="M215 1122l-138 141q79 95 183 140.5t249 45.5q205 0 319 -90t114 -258q0 -58 -14 -110t-42 -94.5t-71.5 -73.5t-98.5 -47q88 -14 153.5 -60t101 -119t35.5 -165q0 -130 -66 -231t-182 -156t-261 -55q-148 0 -265 55.5t-191 159.5l154 149q112 -157 302 -157 q122 0 199.5 66.5t77.5 174.5q0 113 -90 180t-250 67h-130v185h122q141 0 219.5 54.5t78.5 151.5q0 86 -59.5 132.5t-159.5 46.5q-92 0 -166.5 -34.5t-123.5 -98.5z" />
<glyph unicode="&#x418;" horiz-adv-x="1526" d="M395 1439v-1089l785 1089h180v-1439h-228v1068l-774 -1068h-192v1439h229z" />
<glyph unicode="&#x419;" horiz-adv-x="1526" d="M996 1857h134q-2 -119 -93 -188t-240 -69q-148 0 -239.5 69t-93.5 188h136q0 -36 26.5 -66.5t72.5 -48.5t100 -18q51 0 93.5 17t69.5 47.5t34 68.5zM395 1439v-1089l785 1089h180v-1439h-228v1068l-774 -1068h-192v1439h229z" />
<glyph unicode="&#x41a;" horiz-adv-x="1290" d="M395 1439v-609h150l457 609h259l-515 -695l562 -744h-260l-481 625h-172v-625h-229v1439h229z" />
<glyph unicode="&#x41b;" horiz-adv-x="1366" d="M594 1238l-18 -230q-18 -226 -45 -389.5t-69 -287t-101 -198t-137 -111t-181 -36.5l-27 211q36 2 63.5 9.5t56 25t50 46.5t42.5 73t37.5 106.5t32 146.5t28.5 192.5t24 243.5l35 399h815v-1439h-229v1238h-377z" />
<glyph unicode="&#x41c;" horiz-adv-x="1774" d="M1606 0h-229v1037l-429 -786h-125l-430 786v-1037h-227v1439h244l476 -880l476 880h244v-1439z" />
<glyph unicode="&#x41d;" horiz-adv-x="1515" d="M1119 1439h229v-1439h-229v635h-726v-635h-227v1439h227v-601h726v601z" />
<glyph unicode="&#x41e;" horiz-adv-x="1524" d="M762 -10q-120 0 -229 40t-191.5 110.5t-143.5 162.5t-93 199t-32 218q0 113 33.5 222t96.5 200t147.5 160.5t192 108t223.5 38.5q120 0 229 -41t191.5 -112.5t143 -164t92 -199t31.5 -214.5q0 -114 -33 -223t-96 -199.5t-146.5 -159.5t-191 -107.5t-224.5 -38.5zM304 720 q0 -81 20.5 -158.5t60.5 -143.5t95 -116t128.5 -78.5t155.5 -28.5q85 0 159 30t127.5 81t92.5 118t58.5 142.5t19.5 153.5q0 102 -33 196.5t-91.5 167t-145 115.5t-187.5 43q-84 0 -158.5 -29t-129 -80t-94 -117.5t-59 -142t-19.5 -153.5z" />
<glyph unicode="&#x41f;" horiz-adv-x="1499" d="M166 0v1439h1169v-1439h-230v1238h-710v-1238h-229z" />
<glyph unicode="&#x420;" horiz-adv-x="1267" d="M393 0h-227v1439h604q94 0 178.5 -40.5t142.5 -106.5t92 -150.5t34 -170.5q0 -90 -32 -175t-87.5 -150.5t-137.5 -105t-177 -39.5h-390v-501zM393 1238v-536h375q95 0 156 76.5t61 192.5q0 78 -32 140t-84 94.5t-113 32.5h-363z" />
<glyph unicode="&#x421;" horiz-adv-x="1384" d="M71 730q0 87 21.5 174t61.5 166.5t101 148.5t136.5 119.5t172.5 79.5t204 29q189 0 332.5 -85.5t215.5 -227.5l-178 -120q-29 63 -73 109t-95 71t-103 36.5t-107 11.5q-87 0 -162.5 -30t-128.5 -80.5t-91.5 -117.5t-57 -141.5t-18.5 -150.5q0 -104 35 -200.5t95.5 -169 t148 -116t185.5 -43.5q55 0 109 13.5t106.5 41t96.5 74.5t71 108l189 -107q-32 -78 -95.5 -142.5t-142.5 -106t-167.5 -64t-174.5 -22.5q-117 0 -225.5 42t-191 114.5t-144 166t-94 202t-32.5 217.5z" />
<glyph unicode="&#x422;" horiz-adv-x="1248" d="M1219 1439v-201h-478v-1238h-230v1238h-480v201h1188z" />
<glyph unicode="&#x423;" d="M365 -14q-45 0 -98 10.5t-87 30.5l19 190q76 -33 147 -33q68 0 116.5 40.5t88.5 142.5l-524 1072h244l386 -833l363 833h239l-507 -1094q-91 -199 -175.5 -279t-211.5 -80z" />
<glyph unicode="&#x424;" horiz-adv-x="1548" d="M669 -77v187q-293 27 -451 191t-158 433q0 270 158 436t451 194v185h223v-185q285 -28 438.5 -195t153.5 -435q0 -269 -154 -432.5t-438 -189.5v-189h-223zM892 319q182 24 273.5 130.5t91.5 291.5q0 369 -365 412v-834zM669 319v834q-192 -21 -286.5 -123.5t-94.5 -289 t96 -292.5t285 -129z" />
<glyph unicode="&#x425;" horiz-adv-x="1298" d="M0 1439h251l399 -567l400 567h250l-528 -729l511 -710h-249l-384 547l-383 -547h-251l514 710z" />
<glyph unicode="&#x426;" horiz-adv-x="1507" d="M1263 -369v369h-1095v1439h229v-1238h629v1238h229v-1238h219v-570h-211z" />
<glyph unicode="&#x427;" horiz-adv-x="1264" d="M872 805v634h227v-1439h-227v586q-69 -27 -144.5 -39.5t-191.5 -12.5q-99 0 -176.5 24.5t-129.5 67.5t-85.5 106t-48.5 135.5t-15 160.5v411h229v-356q0 -95 13.5 -158t47 -105.5t87.5 -60.5t136 -18q95 0 166.5 17.5t111.5 46.5z" />
<glyph unicode="&#x428;" horiz-adv-x="1956" d="M1561 1439h229v-1439h-1624v1439h229v-1238h468v1238h230v-1238h468v1238z" />
<glyph unicode="&#x429;" horiz-adv-x="2045" d="M1799 -369v369h-1631v1439h229v-1238h468v1238h228v-1238h470v1238h227v-1238h218v-570h-209z" />
<glyph unicode="&#x42a;" horiz-adv-x="1530" d="M31 1242v197h662v-518h292q106 0 196 -30.5t156 -87.5t103.5 -144.5t37.5 -196.5t-38 -198t-104 -146t-154.5 -87.5t-190.5 -30.5h-527v1242h-433zM693 730v-533h284q131 0 199 70.5t68 194.5q0 81 -30.5 141t-91 93.5t-145.5 33.5h-284z" />
<glyph unicode="&#x42b;" horiz-adv-x="1745" d="M166 0v1439h229v-518h292q106 0 196 -30.5t155.5 -87.5t102.5 -144.5t37 -196.5q0 -110 -37.5 -198.5t-103.5 -145.5t-154.5 -87.5t-191.5 -30.5h-525zM1577 0h-229v1437h229v-1437zM395 730v-533h284q88 0 148.5 32.5t89.5 91.5t29 141q0 81 -30.5 141t-91 93.5 t-145.5 33.5h-284z" />
<glyph unicode="&#x42c;" horiz-adv-x="1232" d="M166 0v1439h229v-518h292q106 0 196 -30.5t155.5 -87.5t102.5 -144.5t37 -196.5q0 -110 -37.5 -198.5t-103.5 -145.5t-154.5 -87.5t-191.5 -30.5h-525zM395 730v-533h284q88 0 148.5 32.5t89.5 91.5t29 141q0 81 -30.5 141t-91 93.5t-145.5 33.5h-284z" />
<glyph unicode="&#x42d;" horiz-adv-x="1416" d="M643 -12q-134 0 -251.5 38.5t-208.5 114.5t-136 182l189 107q28 -61 74.5 -108t100.5 -74.5t110.5 -41t113.5 -13.5q65 0 124.5 16.5t108.5 45.5t90.5 70.5t71.5 91t49.5 106.5t27.5 118h-655v189h651q-11 65 -34.5 124.5t-63 112.5t-90.5 91.5t-121.5 61t-152.5 22.5 q-58 0 -111.5 -11.5t-107 -36.5t-99.5 -71t-75 -109l-179 120q75 145 217 229t347 84q135 0 252 -41t200 -111t142.5 -162t88 -195t28.5 -208q0 -110 -31 -217.5t-93 -202t-145.5 -166.5t-195.5 -114t-236 -42z" />
<glyph unicode="&#x42e;" horiz-adv-x="2018" d="M1277 -10q-132 0 -245.5 46.5t-196 130t-134.5 201.5t-64 259h-240v-627h-229v1439h229v-611h242q20 187 108 328.5t227 217t309 75.5q145 0 268.5 -55.5t209 -153t133.5 -232.5t48 -290q0 -164 -50 -301t-138.5 -230.5t-211 -145t-265.5 -51.5zM863 720 q0 -246 112 -385.5t304 -139.5q135 0 233 66t149 184t51 275q0 244 -117.5 383t-315.5 139q-129 0 -223.5 -64.5t-143.5 -182.5t-49 -275z" />
<glyph unicode="&#x42f;" horiz-adv-x="1313" d="M1147 0h-228v545h-282l-329 -545h-258l354 574q-125 50 -202.5 163.5t-77.5 256.5q0 85 33.5 166t91.5 142.5t142 99t178 37.5h578v-1439zM919 746v494h-329q-62 0 -115.5 -31.5t-87 -88.5t-33.5 -126q0 -104 64 -176t162 -72h339z" />
<glyph unicode="&#x430;" horiz-adv-x="1145" d="M416 -20q-154 0 -257 95.5t-103 236.5q0 98 57 174.5t159 118t233 41.5q158 0 280 -48v73q0 118 -68 184t-192 66q-159 0 -337 -122l-68 141q206 139 425 139t341 -113t122 -320v-383q0 -38 13 -54t45 -18v-191q-53 -10 -101 -10q-62 0 -99.5 31.5t-44.5 83.5l-6 67 q-47 -61 -110 -104.5t-136.5 -65.5t-152.5 -22zM476 144q40 0 79.5 7.5t74.5 22t64 35.5t48 46q43 37 43 78v139q-122 47 -245 47q-120 0 -196.5 -52.5t-76.5 -135.5q0 -79 60 -133t149 -54z" />
<glyph unicode="&#x431;" horiz-adv-x="1211" d="M1032 1316l-380 -87q-143 -33 -226 -127t-110 -260q32 40 71.5 71t84.5 52t95.5 32t103.5 11q79 0 151 -25.5t129.5 -72t100.5 -109.5t66 -141.5t23 -164.5q0 -89 -23.5 -168t-69 -142t-109 -109t-146.5 -71t-178 -25q-253 0 -384.5 168t-131.5 491q0 339 136 528 t409 253l364 83zM329 505q0 -149 84 -245t212 -96t209 91.5t81 237.5q0 143 -83.5 232.5t-214.5 89.5q-128 0 -208 -86t-80 -224z" />
<glyph unicode="&#x432;" horiz-adv-x="1095" d="M142 1060h578q115 0 191 -75.5t76 -187.5q0 -49 -14.5 -94t-49.5 -86.5t-87 -63.5q91 -26 142.5 -93t51.5 -168q0 -138 -96.5 -215t-258.5 -77h-533v1060zM361 612h262q67 0 106 38.5t39 107.5q0 62 -34 101t-101 39h-272v-286zM361 162h294q68 0 111 45t43 109t-41 108 t-109 44h-298v-306z" />
<glyph unicode="&#x433;" horiz-adv-x="865" d="M832 1060v-176h-476v-884h-218v1060h694z" />
<glyph unicode="&#x434;" horiz-adv-x="1236" d="M35 -319v512h58q40 8 67 28t49 56.5t38.5 102t29.5 151.5t27 217l35 312h700v-867h133v-512h-195v319h-754v-319h-188zM375 193h444v685h-279l-27 -195q-27 -197 -58.5 -311.5t-79.5 -178.5z" />
<glyph unicode="&#x435;" horiz-adv-x="1205" d="M615 -20q-121 0 -225 44t-174.5 118.5t-110.5 174t-40 210.5q0 112 40 212.5t111 176t175 119.5t226 44q121 0 224 -44.5t171.5 -119t106.5 -172.5t38 -205q0 -28 -6 -82h-849q10 -137 102.5 -224.5t218.5 -87.5q90 0 168.5 45t108.5 117l191 -55q-56 -121 -184 -196 t-292 -75zM296 610h641q-14 135 -104 220t-218 85t-218.5 -85.5t-100.5 -219.5z" />
<glyph unicode="&#x436;" horiz-adv-x="1611" d="M43 1060h249l263 -445h138v445h228v-445h137l264 445h247l-325 -515l358 -545h-256l-263 438h-164v-438h-224v438h-161l-265 -438h-257l355 545z" />
<glyph unicode="&#x437;" horiz-adv-x="859" d="M178 823l-101 125q137 131 333 131q144 0 235 -71.5t91 -194.5q0 -90 -49 -153.5t-132 -75.5q115 -18 178.5 -92t63.5 -186q0 -146 -111 -236t-287 -90q-228 0 -354 154l111 148q84 -114 235 -114q91 0 141 41t50 116q0 176 -253 176h-76v145h76q96 0 151.5 40.5 t55.5 108.5q0 55 -40 86.5t-107 31.5q-107 0 -211 -90z" />
<glyph unicode="&#x438;" horiz-adv-x="1209" d="M356 1060v-744l544 744h170v-1060h-219v728l-532 -728h-181v1060h218z" />
<glyph unicode="&#x439;" horiz-adv-x="1207" d="M821 1480h125q-4 -118 -90 -182.5t-229.5 -64.5t-230 64.5t-92.5 182.5h128q1 -40 14.5 -68t39.5 -44.5t60 -24t81 -7.5q61 0 101 13.5t64.5 45.5t28.5 85zM356 1060v-744l544 744h170v-1060h-219v728l-532 -728h-181v1060h218z" />
<glyph unicode="&#x43a;" horiz-adv-x="1051" d="M440 619l338 441h244l-416 -515l446 -545h-249l-347 438h-100v-438h-218v1060h218v-441h84z" />
<glyph unicode="&#x43b;" horiz-adv-x="1138" d="M35 -10l-23 196q43 3 72.5 13t55.5 35.5t42.5 62.5t32.5 102.5t27.5 146.5t24.5 202l35 312h700v-1060h-222v878h-279l-27 -195q-19 -140 -38.5 -240t-46 -179t-58 -128t-76 -82t-96.5 -47t-124 -17z" />
<glyph unicode="&#x43c;" horiz-adv-x="1402" d="M365 1060l337 -620l338 620h225v-1060h-215v695l-290 -529h-116l-292 529v-695h-214v1060h227z" />
<glyph unicode="&#x43d;" horiz-adv-x="1195" d="M356 1060v-421h484v421h218v-1060h-218v450h-484v-450h-218v1060h218z" />
<glyph unicode="&#x43e;" horiz-adv-x="1219" d="M610 -20q-98 0 -184.5 29t-151.5 80t-112.5 120t-72 151t-24.5 169.5t25 170t72.5 151t113 120t151.5 80t183 28.5q121 0 224 -44.5t173 -120t109 -175t39 -209.5t-39 -210t-109 -175.5t-173 -120t-224 -44.5zM294 527q0 -153 91.5 -255t224.5 -102q65 0 123.5 28 t101 75.5t67.5 114.5t25 142q0 99 -42.5 181.5t-115 129.5t-159.5 47q-64 0 -122.5 -28t-101 -76t-67.5 -115.5t-25 -141.5z" />
<glyph unicode="&#x43f;" horiz-adv-x="1165" d="M1028 1060v-1060h-219v868h-453v-868h-218v1060h890z" />
<glyph unicode="&#x440;" horiz-adv-x="1277" d="M741 -20q-125 0 -223 59t-157 160v-631h-223v1492h197v-190q62 97 159.5 153t215.5 56q106 0 200 -44.5t159.5 -119t103.5 -174.5t38 -209q0 -152 -59.5 -278t-167.5 -200t-243 -74zM667 170q91 0 164 52.5t111.5 134.5t38.5 175q0 97 -43 178.5t-119 129.5t-169 48 q-89 0 -177 -61.5t-112 -147.5v-277q21 -49 53 -91t71.5 -73.5t87 -49.5t94.5 -18z" />
<glyph unicode="&#x441;" horiz-adv-x="1132" d="M65 532q0 111 39.5 211t109.5 174.5t174 118t227 43.5q160 0 279 -71t180 -193l-217 -69q-37 67 -102.5 104.5t-144.5 37.5q-89 0 -161 -45t-113.5 -127t-41.5 -184q0 -101 43 -184t116 -130.5t159 -47.5q54 0 106 19.5t90.5 53t54.5 73.5l220 -65q-53 -121 -178.5 -196 t-289.5 -75q-121 0 -225 44.5t-174.5 120t-110.5 176t-40 211.5z" />
<glyph unicode="&#x442;" horiz-adv-x="985" d="M602 868v-868h-219v868h-344v192h907v-192h-344z" />
<glyph unicode="&#x443;" horiz-adv-x="1108" d="M148 -410v193q63 -46 132 -46q36 0 65 24t57 83t52 156l-436 1060h230l328 -863l292 863h211l-440 -1202q-64 -173 -143 -243.5t-196 -70.5q-97 0 -152 46z" />
<glyph unicode="&#x444;" horiz-adv-x="1412" d="M821 1480v-410q249 -28 387 -175t138 -370.5t-138 -366.5t-387 -170v-420h-223v418q-168 17 -288.5 88.5t-182.5 186.5t-62 264q0 226 140.5 373t392.5 174v408h223zM598 176v702q-308 -40 -308 -346q0 -310 308 -356zM821 876v-698q150 23 226.5 112.5t76.5 241.5 q0 148 -76 235.5t-227 108.5z" />
<glyph unicode="&#x445;" horiz-adv-x="1058" d="M20 1060h231l260 -362l19 -35l17 35l258 362h234l-389 -530l392 -530h-233l-262 361l-17 32l-19 -32l-262 -361h-233l392 530z" />
<glyph unicode="&#x446;" horiz-adv-x="1199" d="M138 0v1060h218v-867h408v867h221v-867h185v-512h-197v319h-835z" />
<glyph unicode="&#x447;" horiz-adv-x="1006" d="M870 1060v-1060h-220v402q-49 -16 -98.5 -23.5t-131.5 -7.5q-90 0 -158 29.5t-108 81.5t-59.5 117t-19.5 142v319h217v-282q0 -120 45.5 -171.5t134.5 -51.5q124 0 178 45v460h220z" />
<glyph unicode="&#x448;" horiz-adv-x="1575" d="M1437 0h-1299v1060h218v-867h321v867h221v-867h321v867h218v-1060z" />
<glyph unicode="&#x449;" horiz-adv-x="1652" d="M138 0v1060h218v-867h321v867h221v-867h321v867h218v-867h185v-512h-194v319h-1290z" />
<glyph unicode="&#x44a;" horiz-adv-x="1207" d="M569 1060v-350h205q78 0 147.5 -23t123.5 -67t85.5 -113t31.5 -155t-31 -154.5t-84.5 -111t-122 -64.5t-146.5 -22h-428v872h-311v188h530zM569 180h195q53 0 92 19t61 58t22 93q0 84 -50 132t-123 48h-197v-350z" />
<glyph unicode="&#x44b;" horiz-adv-x="1402" d="M138 0v1060h218v-350h193q78 0 147 -23t122.5 -67t85 -113t31.5 -155t-31 -154.5t-84.5 -111t-121.5 -64.5t-147 -22h-413zM1044 0v1060h221v-1060h-221zM356 180h182q52 0 91 19t61 58t22 93q0 84 -49.5 132t-122.5 48h-184v-350z" />
<glyph unicode="&#x44c;" horiz-adv-x="994" d="M138 0v1060h218v-350h205q78 0 147.5 -23t123 -67t85 -113t31.5 -155t-31 -154.5t-84.5 -111t-121.5 -64.5t-146 -22h-427zM356 180h195q80 0 127.5 44.5t47.5 125.5q0 84 -49.5 132t-123.5 48h-197v-350z" />
<glyph unicode="&#x44d;" horiz-adv-x="1106" d="M497 -18q-155 0 -277.5 68t-174.5 188l168 87q39 -78 120 -122.5t168 -44.5q119 0 207 82.5t107 215.5h-467v159h465q-24 126 -110.5 206.5t-209.5 80.5q-83 0 -159.5 -38t-122.5 -116l-151 94q58 107 170.5 173t264.5 66q99 0 187 -30t153 -82.5t112.5 -121.5t71 -150 t23.5 -165q0 -71 -17 -139t-49 -129t-80.5 -113t-107.5 -89.5t-134 -58.5t-157 -21z" />
<glyph unicode="&#x44e;" horiz-adv-x="1548" d="M356 633h145q27 204 159.5 327t322.5 123q147 0 260.5 -72t175 -198.5t61.5 -285.5q0 -126 -38 -229t-104.5 -172.5t-158.5 -107.5t-200 -38q-197 0 -327 125t-155 335h-141v-440h-220v1060h220v-427zM710 530q0 -171 72.5 -263.5t198.5 -92.5q133 0 206.5 94.5 t73.5 263.5q0 168 -75.5 261t-204.5 93q-128 0 -199.5 -95.5t-71.5 -260.5z" />
<glyph unicode="&#x44f;" horiz-adv-x="1049" d="M47 0l263 408q-95 35 -150 112.5t-55 193.5q0 156 104.5 252t264.5 96h439v-1062h-222v371h-172l-227 -371h-245zM489 551h202v327h-196q-66 0 -116 -45t-50 -121q0 -49 22 -86t58 -56t80 -19z" />
<glyph unicode="&#x450;" horiz-adv-x="1205" d="M615 -20q-121 0 -225 44t-174.5 118.5t-110.5 174t-40 210.5q0 112 40 212.5t111 176t175 119.5t226 44q121 0 224 -44.5t171.5 -119t106.5 -172.5t38 -205q0 -28 -6 -82h-849q10 -137 102.5 -224.5t218.5 -87.5q90 0 168.5 45t108.5 117l191 -55q-56 -121 -184 -196 t-292 -75zM296 610h641q-14 135 -104 220t-218 85t-218.5 -85.5t-100.5 -219.5zM561 1213l-186 267h213l116 -223z" />
<glyph unicode="&#x451;" horiz-adv-x="1205" d="M523 1247h-186v223h186v-223zM882 1247h-187v223h187v-223zM615 -20q-121 0 -225 44t-174.5 118.5t-110.5 174t-40 210.5q0 112 40 212.5t111 176t175 119.5t226 44q121 0 224 -44.5t171.5 -119t106.5 -172.5t38 -205q0 -28 -6 -82h-849q10 -137 102.5 -224.5 t218.5 -87.5q90 0 168.5 45t108.5 117l191 -55q-56 -121 -184 -196t-292 -75zM296 610h641q-14 135 -104 220t-218 85t-218.5 -85.5t-100.5 -219.5z" />
<glyph unicode="&#x452;" horiz-adv-x="1217" d="M1089 569v-592q0 -156 -100.5 -260t-252.5 -104q-71 0 -136.5 24t-112.5 67l99 150q22 -21 55 -34t69 -13q66 0 110.5 44.5t44.5 109.5v554q0 141 -51 213.5t-145 72.5q-105 0 -190 -85t-118 -215v-501h-223v1168h-150v150h150v162h223v-162h448v-150h-448v-430 q52 123 157 192.5t238 69.5q88 0 152.5 -30.5t103.5 -88t58 -135t19 -177.5z" />
<glyph unicode="&#x453;" horiz-adv-x="869" d="M698 1480l-183 -267l-146 44l115 223h214zM832 1060v-176h-476v-884h-218v1060h694z" />
<glyph unicode="&#x454;" horiz-adv-x="1108" d="M610 -18q-99 0 -186 29.5t-151.5 81t-112 120.5t-71.5 150.5t-24 168.5q0 85 24 166.5t71 150.5t112 121t152.5 81.5t187.5 29.5q151 0 263.5 -66t170.5 -173l-154 -101q-23 41 -56.5 73t-71.5 51t-77 28t-77 9q-125 0 -209.5 -81.5t-108.5 -205.5h466v-159h-468 q13 -87 58 -155.5t112 -105.5t146 -37q85 0 165.5 45t118.5 124l172 -89q-32 -80 -101.5 -138.5t-160 -88t-190.5 -29.5z" />
<glyph unicode="&#x455;" horiz-adv-x="1004" d="M519 -20q-131 0 -257.5 42t-214.5 118l89 142q194 -140 379 -140q100 0 157.5 39t57.5 109q0 22 -6.5 39.5t-23 32t-34.5 25.5t-53 23t-66 21t-85 23q-85 23 -140.5 41.5t-103.5 42t-73.5 51.5t-39.5 65t-14 87q0 104 55 182t148 117t209 39q239 0 408 -142l-96 -134 q-147 118 -314 118q-89 0 -145 -37.5t-56 -111.5q0 -26 8.5 -45t23 -33t46 -27t64 -22.5t90.5 -23.5q92 -22 154 -42t114.5 -46t82 -57.5t45.5 -72.5t16 -95q0 -151 -115 -239.5t-310 -88.5z" />
<glyph unicode="&#x456;" horiz-adv-x="497" d="M361 0h-223v1060h223v-1060zM361 1235h-223v245h223v-245z" />
<glyph unicode="&#x457;" horiz-adv-x="497" d="M164 1247h-187v223h187v-223zM523 1247h-186v223h186v-223zM361 0h-223v1060h223v-1060z" />
<glyph unicode="&#x458;" horiz-adv-x="510" d="M25 -387q-154 0 -256 91l99 150q51 -47 130 -47q61 0 105.5 44.5t44.5 109.5v1099h223v-1083q0 -78 -27.5 -147t-74.5 -116t-110.5 -74t-133.5 -27zM371 1235h-223v245h223v-245z" />
<glyph unicode="&#x459;" horiz-adv-x="1658" d="M37 -10l-25 196q26 2 46 6t39 12.5t33.5 20t28.5 31t24 42t20.5 56t18 71t15.5 88.5t15 107t15 128l35 312h700v-393h261q69 0 129.5 -21.5t107.5 -62.5t74.5 -105.5t27.5 -144.5q0 -81 -27 -145.5t-73 -105t-106 -61.5t-129 -21h-484v878h-282l-25 -195 q-18 -140 -37.5 -240t-46.5 -179t-58 -128t-75.5 -82t-97 -47t-124.5 -17zM1002 180h249q38 0 66 17.5t44 52t16 83.5q0 73 -35 114.5t-89 41.5h-251v-309z" />
<glyph unicode="&#x45a;" horiz-adv-x="1662" d="M138 0v1060h218v-397h439v397h221v-393h251q69 0 129.5 -21.5t107.5 -62.5t74.5 -105.5t27.5 -144.5q0 -81 -27 -145.5t-74 -105t-107 -61.5t-129 -21h-474v470h-439v-470h-218zM1016 180h239q38 0 66 17.5t44 52t16 83.5q0 73 -35 114.5t-89 41.5h-241v-309z" />
<glyph unicode="&#x45b;" horiz-adv-x="1215" d="M865 0v515q0 142 -50.5 214t-147.5 72q-104 0 -188 -81t-118 -213v-507h-223v1168h-152v150h152v162h223v-162h448v-150h-448v-424q33 80 91.5 137.5t136 88t165.5 30.5q89 0 153.5 -30t104 -87.5t58.5 -135.5t19 -178v-569h-224z" />
<glyph unicode="&#x45c;" horiz-adv-x="1051" d="M776 1480l-182 -267l-146 44l115 223h213zM440 619l338 441h244l-416 -515l446 -545h-249l-347 438h-100v-438h-218v1060h218v-441h84z" />
<glyph unicode="&#x45d;" horiz-adv-x="1171" d="M356 1060v-744l544 744h170v-1060h-219v728l-532 -728h-181v1060h218zM536 1213l-188 267h213l116 -223z" />
<glyph unicode="&#x45e;" horiz-adv-x="1108" d="M184 -442v193q52 -14 104 -14q16 0 26 2t23.5 9.5t25.5 25t26.5 45.5t30.5 73.5t34 107.5l-436 1060h230l328 -863l292 863h211l-485 -1306q-41 -107 -112 -158.5t-178 -51.5q-53 0 -120 14zM770 1480h126q-4 -118 -90 -182.5t-229.5 -64.5t-230.5 64.5t-93 182.5h128 q3 -78 52 -111t143 -33q61 0 101.5 13.5t64.5 45.5t28 85z" />
<glyph unicode="&#x45f;" horiz-adv-x="1126" d="M456 -319v319h-318v1062h218v-869h414v869h219v-1062h-320v-319h-213z" />
<glyph unicode="&#x490;" horiz-adv-x="1049" d="M168 0v1439h658l14 333h180v-534h-625v-1238h-227z" />
<glyph unicode="&#x491;" horiz-adv-x="867" d="M138 0v1060h514l17 319h163v-501h-476v-878h-218z" />
<glyph unicode="&#x4b0;" horiz-adv-x="1258" d="M744 468h310v-147h-310v-321h-229v321h-308v147h308v51l-531 920h252l397 -721l399 721h245l-533 -916v-55z" />
<glyph unicode="&#x4b1;" horiz-adv-x="1095" d="M438 -432v432h-292v148h286v8l-434 904h248l303 -712l312 712h238l-440 -904v-8h289v-148h-296v-432h-214z" />
<glyph unicode="&#x2000;" horiz-adv-x="939" />
<glyph unicode="&#x2001;" horiz-adv-x="1879" />
<glyph unicode="&#x2002;" horiz-adv-x="939" />
<glyph unicode="&#x2003;" horiz-adv-x="1879" />
<glyph unicode="&#x2004;" horiz-adv-x="626" />
<glyph unicode="&#x2005;" horiz-adv-x="469" />
<glyph unicode="&#x2006;" horiz-adv-x="313" />
<glyph unicode="&#x2007;" horiz-adv-x="313" />
<glyph unicode="&#x2008;" horiz-adv-x="234" />
<glyph unicode="&#x2009;" horiz-adv-x="375" />
<glyph unicode="&#x200a;" horiz-adv-x="104" />
<glyph unicode="&#x2010;" horiz-adv-x="853" d="M730 454h-606v201h606v-201z" />
<glyph unicode="&#x2011;" horiz-adv-x="853" d="M730 454h-606v201h606v-201z" />
<glyph unicode="&#x2012;" horiz-adv-x="853" d="M730 454h-606v201h606v-201z" />
<glyph unicode="&#x2013;" horiz-adv-x="1199" d="M1076 454h-952v201h952v-201z" />
<glyph unicode="&#x2014;" horiz-adv-x="1863" d="M1739 454h-1615v201h1615v-201z" />
<glyph unicode="&#x2018;" horiz-adv-x="457" d="M186 1480h124l-43 -240h72v-251h-219v253z" />
<glyph unicode="&#x2019;" horiz-adv-x="441" d="M267 996h-123l42 239h-70v251h219v-253z" />
<glyph unicode="&#x201a;" horiz-adv-x="466" d="M276 -249h-126l45 249h-71v261h219v-263z" />
<glyph unicode="&#x201c;" horiz-adv-x="784" d="M186 1480h124l-43 -240h72v-251h-219v253zM515 1480h124l-43 -240h71v-251h-219v253z" />
<glyph unicode="&#x201d;" horiz-adv-x="770" d="M267 996h-123l42 239h-70v251h219v-253zM596 996h-124l43 239h-70v251h218v-253z" />
<glyph unicode="&#x201e;" horiz-adv-x="788" d="M276 -249h-126l45 249h-71v261h219v-263zM598 -249h-124l43 249h-71v261h219v-263z" />
<glyph unicode="&#x2022;" horiz-adv-x="727" d="M563 706q0 -84 -57.5 -142.5t-140.5 -58.5q-82 0 -141.5 58.5t-59.5 142.5q0 82 59.5 141t141.5 59q83 0 140.5 -59t57.5 -141z" />
<glyph unicode="&#x2026;" horiz-adv-x="1114" d="M308 0h-184v259h184v-259zM648 0h-182v259h182v-259zM991 0h-184v259h184v-259z" />
<glyph unicode="&#x202f;" horiz-adv-x="375" />
<glyph unicode="&#x2039;" horiz-adv-x="721" d="M77 464v112l523 375v-185l-345 -241l345 -233v-182z" />
<glyph unicode="&#x203a;" horiz-adv-x="721" d="M644 576v-112l-522 -354v182l344 233l-344 241v185z" />
<glyph unicode="&#x205f;" horiz-adv-x="469" />
<glyph unicode="&#x20ac;" horiz-adv-x="1615" d="M158 874h107q18 91 57 174.5t100 156t138.5 126.5t177.5 85t210 31q189 0 332.5 -85.5t215.5 -227.5l-178 -120q-29 63 -72.5 109t-95 71t-103.5 36.5t-107 11.5q-87 0 -162 -29.5t-129 -81t-91.5 -116.5t-56.5 -141h582l-51 -126h-550v-26q0 -37 7 -87h527l-53 -126 h-442q55 -142 168 -229t257 -87q55 0 109 13.5t106.5 41t96.5 74.5t72 108l189 -107q-33 -78 -96.5 -142.5t-142.5 -106t-167.5 -64t-173.5 -22.5q-95 0 -184 27t-161.5 75t-134 113.5t-105.5 143t-70 162.5h-217l53 126h137q-6 46 -6 95v18h-146z" />
<glyph unicode="&#x2122;" horiz-adv-x="1607" d="M659 1443v-147h-193v-453h-147v453h-193v147h533zM1105 1099l137 340h218v-596h-148v401l-146 -315h-120l-146 315v-401h-148v596h215z" />
<glyph unicode="&#x25fc;" horiz-adv-x="1064" d="M0 1064h1064v-1064h-1064v1064z" />
</font>
</defs>
</svg>
