<?xml version="1.0" standalone="no"?>
<!DOCTYPE svg PUBLIC "-//W3C//DTD SVG 1.1//EN" "http://www.w3.org/Graphics/SVG/1.1/DTD/svg11.dtd" >
<svg xmlns="http://www.w3.org/2000/svg" xmlns:xlink="http://www.w3.org/1999/xlink" version="1.1">
<metadata></metadata>
<defs>
<font id="liberation_serifbold" horiz-adv-x="1157" >
<font-face units-per-em="2048" ascent="1638" descent="-410" />
<missing-glyph horiz-adv-x="578" />
<glyph horiz-adv-x="0" />
<glyph unicode="&#xd;" horiz-adv-x="578" />
<glyph unicode=" "  horiz-adv-x="578" />
<glyph unicode="&#x09;" horiz-adv-x="578" />
<glyph unicode="&#xa0;" horiz-adv-x="578" />
<glyph unicode="!" horiz-adv-x="770" d="M449 475h-130l-104 1040h338zM384 -33q-39 0 -73 15t-59.5 40t-40 59t-14.5 74q0 38 14.5 72.5t40 60t59.5 40t73 14.5t73.5 -14.5t59.5 -40t40 -60t15 -72.5q0 -40 -15 -74t-40 -59t-59.5 -40t-73.5 -15z" />
<glyph unicode="&#x22;" horiz-adv-x="1284" d="M738 1515h291l-88 -543h-117zM257 1515h291l-88 -543h-118z" />
<glyph unicode="#" d="M837 464l-86 -464h-161l86 464h-305l-84 -464h-165l86 464h-177v139h205l60 325h-265v139h291l83 448h162l-83 -448h305l83 448h162l-84 -448h177v-139h-202l-57 -325h259v-139h-290zM458 928l-60 -325h305l61 325h-306z" />
<glyph unicode="$" d="M527 -23q-64 2 -129 9t-124 18.5t-109 25t-83 28.5v361h106l40 -210q17 -23 50.5 -43.5t75.5 -37t87 -28t86 -12.5v552q-78 30 -154.5 65.5t-137 90.5t-97.5 138.5t-37 211.5q0 82 30.5 149.5t86 116.5t134.5 79.5t175 38.5v146h115v-144q91 -3 183.5 -17t162.5 -31v-316 h-103l-36 162q-33 33 -89.5 58.5t-117.5 30.5v-469q53 -21 106.5 -43.5t104 -50.5t94 -64.5t75.5 -86.5t51 -116t19 -152q0 -97 -30.5 -177t-88.5 -139t-141.5 -95t-189.5 -44v-158h-115v153zM850 373q0 51 -16.5 86.5t-45 61t-66 43t-80.5 33.5v-510q100 18 154 90t54 196z M342 1206q0 -49 14.5 -82.5t39 -57t58.5 -40.5t73 -33v424q-90 -14 -137.5 -69.5t-47.5 -141.5z" />
<glyph unicode="%" horiz-adv-x="2314" d="M723 -23h-169l1071 1562h171zM973 1124q0 -202 -91 -311t-282 -109q-182 0 -272.5 107.5t-90.5 312.5q0 201 91 308t279 107q179 0 272.5 -104t93.5 -311zM729 1124q0 74 -6.5 131.5t-21.5 97t-40 60t-61 20.5t-59 -20.5t-37 -60t-19 -97t-5 -131.5t5 -132.5t19 -99 t37 -62t59 -21.5t61 21.5t40 62t21.5 99t6.5 132.5zM2097 391q0 -203 -90.5 -312.5t-280.5 -109.5q-182 0 -273 107.5t-91 314.5q0 201 91.5 308t278.5 107q180 0 272.5 -104t92.5 -311zM1854 391q0 73 -6 131t-21.5 97.5t-40 59.5t-60.5 20q-37 0 -60 -20t-36.5 -59.5 t-18.5 -97.5t-5 -131q0 -75 5 -133t18.5 -98.5t36.5 -62t60 -21.5q36 0 60.5 21.5t40 62t21.5 98.5t6 133z" />
<glyph unicode="&#x26;" horiz-adv-x="1927" d="M1179 1212q0 -79 -27.5 -135.5t-72.5 -98t-104.5 -71.5t-124.5 -56l429 -388q35 90 49 180t18 167l-126 30v72h539v-72l-124 -30q-13 -45 -30 -102.5t-40.5 -121.5t-55 -131t-74.5 -132l249 -224l131 -28v-71h-434l-135 124q-90 -66 -213 -106.5t-287 -40.5 q-161 0 -276.5 28t-190 82t-110.5 133t-36 182q0 102 32.5 174.5t83 123.5t113.5 84.5t124 57.5q-31 35 -57 74.5t-45 84t-29.5 95.5t-10.5 110q0 65 22.5 125.5t73 107t131.5 73.5t199 27q114 0 192 -26t126.5 -70.5t69.5 -104t21 -126.5zM746 97q129 0 222.5 37.5 t160.5 98.5l-539 501q-28 -19 -54 -45t-46.5 -63.5t-32.5 -89t-12 -121.5q0 -162 80.5 -240t220.5 -78zM626 1231q0 -48 9 -86.5t25 -71.5t38.5 -62t48.5 -57q34 18 61.5 39.5t47.5 53t30 75.5t10 109q0 195 -126 195q-77 0 -110.5 -49t-33.5 -146z" />
<glyph unicode="'" horiz-adv-x="642" d="M176 1515h292l-88 -543h-118z" />
<glyph unicode="(" horiz-adv-x="770" d="M410 558q0 -138 9.5 -273t40 -255t86.5 -221.5t150 -172.5v-129q-151 81 -262.5 175t-185.5 218t-110 285t-36 374t36 373t110 283t185.5 217t262.5 174v-129q-94 -71 -150 -171.5t-86.5 -221t-40 -254.5t-9.5 -272z" />
<glyph unicode=")" horiz-adv-x="770" d="M75 -493v129q92 71 148.5 172.5t87 221.5t40 255t9.5 273t-9.5 272t-40 254.5t-87 221t-148.5 171.5v129q150 -80 262 -174t186 -217t110 -283t36 -373t-36 -374t-110 -285t-186 -218t-262 -175z" />
<glyph unicode="*" d="M628 1011l83 -357h-264l80 362l-325 -267l-106 241l347 99l-347 102l106 241l325 -264l-80 359h264l-83 -359l326 257l107 -236l-352 -100l352 -97l-107 -238z" />
<glyph unicode="+" horiz-adv-x="1318" d="M740 687v-458h-161v458h-457v162h457v458h161v-458h458v-162h-458z" />
<glyph unicode="," horiz-adv-x="578" d="M490 120q0 -80 -25 -152t-80.5 -133.5t-143 -110.5t-210.5 -82v104q64 19 107.5 46.5t70 57.5t38.5 59.5t12 50.5q0 23 -12.5 38.5t-32 27t-41.5 23.5t-41 30t-31.5 44t-12.5 67q0 73 51 111.5t129 38.5q43 0 83 -14t71 -42.5t49.5 -69t18.5 -94.5z" />
<glyph unicode="-" horiz-adv-x="770" d="M85 446v197h601v-197h-601z" />
<glyph unicode="." horiz-adv-x="578" d="M289 -33q-39 0 -73 15t-59.5 40t-40 59t-14.5 74q0 38 14.5 72.5t40 60t59.5 40t73 14.5t73.5 -14.5t59.5 -40t40 -60t15 -72.5q0 -40 -15 -74t-40 -59t-59.5 -40t-73.5 -15z" />
<glyph unicode="/" horiz-adv-x="642" d="M137 -23h-160l531 1547h159z" />
<glyph unicode="0" d="M1069 764q0 -190 -30 -337t-91 -247t-155 -151.5t-221 -51.5q-240 0 -362 201.5t-122 585.5q0 376 122 575.5t371 199.5q239 0 363.5 -197t124.5 -578zM738 764q0 157 -8 280t-27 208t-50 129t-79 44q-47 0 -77 -44t-47 -129t-24 -208t-7 -280q0 -158 7 -283t24 -211.5 t47 -133t77 -46.5q48 0 79 46.5t50 133t27 211.5t8 283z" />
<glyph unicode="1" d="M774 124l263 -27v-97h-852v97l262 27v1143l-261 -86v96l428 251h160v-1404z" />
<glyph unicode="2" d="M1058 0h-961v214q97 104 179.5 185.5t150 152.5t119.5 134.5t86.5 132t52.5 146.5t18 177q0 69 -18 120.5t-48 86t-69.5 51.5t-83.5 17q-70 0 -112 -14.5t-77 -44.5l-49 -219h-98v345q90 20 176.5 34t188.5 14q250 0 382.5 -102.5t132.5 -292.5q0 -91 -21.5 -163.5 t-62.5 -137t-102 -125.5t-140.5 -129t-177 -147t-210.5 -180h744v-255z" />
<glyph unicode="3" d="M1078 412q0 -102 -37.5 -183t-109 -137t-175.5 -85.5t-237 -29.5q-116 0 -223 13t-195 33l-14 367h104l59 -243q36 -20 89.5 -37.5t115.5 -17.5q75 0 129 24.5t90.5 68.5t54 105t17.5 134q0 81 -20.5 136t-55.5 88t-83 48.5t-102 18.5l-131 8v137l126 9q101 7 149 74 t48 203q0 69 -16.5 119.5t-45.5 84.5t-69.5 50.5t-87.5 16.5q-61 0 -100 -18.5t-74 -40.5l-49 -219h-98v345q40 10 81 19t85 15t92.5 10t105.5 4q249 0 379 -91.5t130 -281.5q0 -71 -18.5 -132.5t-57 -109t-98 -79.5t-140.5 -45q194 -23 288 -118t94 -263z" />
<glyph unicode="4" d="M963 299v-299h-304v299h-627v185l682 1039h249v-992h151v-232h-151zM659 980q0 29 1 62t2.5 65t3.5 61t4 51l-451 -688h440v449z" />
<glyph unicode="5" d="M542 896q130 0 229 -26t165.5 -80t101 -138.5t34.5 -200.5q0 -107 -32.5 -194t-100.5 -149.5t-171.5 -96.5t-243.5 -34q-115 0 -222.5 13t-195.5 33l-13 367h104l58 -243q18 -10 44 -20.5t56 -17.5t62.5 -12t62.5 -5q71 0 120.5 25t80.5 71t45 110t14 142 q0 84 -14.5 148.5t-47.5 107.5t-85.5 64.5t-129.5 21.5q-34 0 -60.5 -4t-47.5 -11t-39 -14.5t-35 -14.5h-113v777h791v-252h-665v-397q20 4 44 9t53.5 9.5t67 8t83.5 3.5z" />
<glyph unicode="6" d="M1089 470q0 -117 -30.5 -208.5t-91 -155t-148.5 -96.5t-203 -33q-127 0 -227 49t-169 145.5t-105 240.5t-36 336q0 206 48 354t128.5 244t185 141t217.5 45q88 0 177.5 -13.5t162.5 -34.5v-345h-99l-48 219q-36 27 -79.5 43t-91.5 16q-52 0 -97.5 -34t-80.5 -101.5 t-58.5 -171t-29.5 -242.5q57 25 116.5 39t127.5 14q98 0 177.5 -27.5t136 -83.5t87 -141t30.5 -199zM611 92q83 0 114.5 89t31.5 268q0 96 -14.5 159.5t-39 102t-56 54t-65.5 15.5q-52 0 -90.5 -7t-80.5 -19v-6q0 -158 11.5 -280t36 -205.5t62 -127t90.5 -43.5z" />
<glyph unicode="7" d="M231 1083h-99v432h969v-89l-589 -1426h-270l638 1263h-598z" />
<glyph unicode="8" d="M1045 1142q0 -124 -61 -211.5t-172 -127.5q60 -22 110 -58t85 -85.5t54 -112t19 -138.5q0 -215 -123.5 -323.5t-384.5 -108.5q-248 0 -371.5 107t-123.5 325q0 75 18.5 137.5t53 111.5t83 86t109.5 59q-109 42 -169 129t-60 214q0 89 30 162t88.5 124.5t147 79 t203.5 27.5q112 0 198.5 -27.5t145.5 -79.5t89.5 -125t30.5 -165zM759 409q0 80 -9.5 141.5t-31.5 104t-57.5 64.5t-88.5 22q-52 0 -85.5 -22t-53 -64.5t-27.5 -104t-8 -141.5q0 -77 8 -136t27.5 -99.5t53 -61t85.5 -20.5q53 0 88.5 20.5t57.5 61t31.5 99.5t9.5 136z M724 1142q0 61 -6.5 113t-24 90t-46.5 59t-73 21q-43 0 -70 -21t-43 -59t-22 -90t-6 -113q0 -65 6 -117t22 -88t43 -55.5t70 -19.5q44 0 73 19.5t46.5 55.5t24 88t6.5 117z" />
<glyph unicode="9" d="M63 1053q0 117 34.5 206.5t99.5 150t157.5 91.5t208.5 31q131 0 227.5 -45t159 -139.5t93.5 -240t31 -345.5q0 -220 -49.5 -369.5t-132.5 -241.5t-192 -133t-228 -41q-104 0 -187.5 12.5t-163.5 36.5v345h98l49 -220q39 -28 94 -43.5t106 -15.5q53 0 99.5 28.5t82 93 t58.5 167t30 250.5q-54 -20 -112 -31t-122 -11q-98 0 -179 30t-139 88t-90.5 145t-32.5 201zM396 1049q0 -89 12.5 -150.5t36 -100t55.5 -56t72 -17.5q86 0 169 21v16q0 326 -39 491t-137 165q-88 0 -128.5 -95t-40.5 -274z" />
<glyph unicode=":" horiz-adv-x="770" d="M376 -33q-39 0 -73.5 15t-59.5 40t-39 59t-14 74q0 38 14 72.5t39 60t59.5 40t73.5 14.5q40 0 74 -14.5t59 -40t40 -60t15 -72.5q0 -40 -15 -74t-40 -59t-59 -40t-74 -15zM376 710q-39 0 -73.5 14.5t-59.5 40t-39 59.5t-14 73q0 40 14 74.5t39 60t59.5 39.5t73.5 14 q40 0 74 -14t59 -39.5t40 -60t15 -74.5q0 -39 -15 -73t-40 -59.5t-59 -40t-74 -14.5z" />
<glyph unicode=";" horiz-adv-x="770" d="M379 710q-40 0 -74.5 14.5t-59.5 40t-39 59.5t-14 73q0 40 14 74.5t39 60t59.5 39.5t74.5 14q39 0 73 -14t59.5 -39.5t40 -60t14.5 -74.5q0 -39 -14.5 -73t-40 -59.5t-59.5 -40t-73 -14.5zM581 120q0 -80 -25.5 -152t-81 -133.5t-143 -110.5t-211.5 -82v104 q64 19 108 46.5t70.5 57.5t38.5 59.5t12 50.5q0 23 -13 38.5t-32 27t-41.5 23.5t-42 30t-32.5 44t-13 67q0 36 14 64t38.5 47.5t58 29t72.5 9.5q42 0 81.5 -14t71 -42.5t51 -69t19.5 -94.5z" />
<glyph unicode="&#x3c;" horiz-adv-x="1318" d="M115 718v101l1076 529v-162l-867 -418l867 -419v-161z" />
<glyph unicode="=" horiz-adv-x="1318" d="M1191 618v-163h-1076v163h1076zM1191 1080v-161h-1076v161h1076z" />
<glyph unicode="&#x3e;" horiz-adv-x="1318" d="M118 188v161l867 419l-867 418v162l1075 -529v-101z" />
<glyph unicode="?" d="M503 -33q-40 0 -74.5 15t-59 40t-39 59t-14.5 74q0 38 14.5 72.5t39 60t59 40t74.5 14.5q39 0 73 -14.5t59.5 -40t40 -60t14.5 -72.5q0 -40 -14.5 -74t-40 -59t-59.5 -40t-73 -15zM555 441h-117l-64 353l107 29q43 11 81.5 29.5t67.5 52.5t46 86.5t17 131.5t-13.5 135 t-42.5 91.5t-73 51.5t-106 16q-55 0 -96 -13.5t-73 -33.5l-48 -220h-101v334q87 22 174.5 35t191.5 13q254 0 383.5 -100t129.5 -301q0 -76 -20 -144.5t-62 -125t-105.5 -99t-147.5 -66.5l-99 -27z" />
<glyph unicode="@" horiz-adv-x="2152" d="M2032 850q0 -117 -32.5 -223t-88.5 -197t-132.5 -165.5t-166 -127t-188.5 -81t-198 -28.5q-73 0 -107.5 38.5t-37.5 103.5q-28 -24 -59 -49.5t-68.5 -46t-81 -33.5t-97.5 -13q-48 0 -87 20.5t-66.5 58.5t-42 91.5t-14.5 121.5q0 79 18.5 161.5t56 160t93.5 146.5t130 122 q58 41 113 67t112 41t118.5 20.5t131.5 5.5q54 0 110.5 -4t96.5 -8l-137 -612q-6 -22 -10.5 -47t-7.5 -49.5t-5.5 -45.5t-2.5 -35q0 -26 9.5 -44.5t46.5 -18.5q60 0 112 27.5t95 75.5t76.5 112.5t56 139t34.5 155t12 159.5q0 140 -42.5 248t-121.5 181t-190.5 111t-250.5 38 t-258.5 -36.5t-219 -104t-176 -160.5t-129.5 -206t-80 -242.5t-27 -267.5q0 -144 41 -276.5t126 -233.5t213 -161t302 -60q103 0 190.5 16t162 43t138.5 63t121 76l49 -72q-63 -51 -134 -95t-156 -77.5t-185.5 -53t-220.5 -19.5q-208 0 -367.5 66.5t-268 181.5t-164 270 t-55.5 331q0 162 37 308.5t106.5 272t168 228t221 174t266 110.5t304.5 39q201 0 352.5 -49t252.5 -139.5t152 -218t51 -284.5zM836 357q0 -81 24.5 -123.5t55.5 -42.5q23 0 48 7.5t48.5 18.5t44 24.5t33.5 26.5l136 634q-8 2 -30 3.5t-39 1.5q-55 0 -104.5 -15t-89.5 -64 q-23 -27 -45.5 -75.5t-40.5 -111t-29.5 -135.5t-11.5 -149z" />
<glyph unicode="A" horiz-adv-x="1671" d="M484 82v-82h-461v82l113 31l539 1415h327l537 -1415l115 -31v-82h-674v82l175 31l-145 392h-582l-139 -392zM724 1300l-249 -671h492z" />
<glyph unicode="B" horiz-adv-x="1543" d="M992 1141q0 65 -13 112t-42.5 78t-76 45.5t-113.5 14.5h-157v-528h166q69 0 114.5 19.5t73 55t38 87t10.5 116.5zM1106 442q0 150 -75 223.5t-246 73.5h-195v-615q54 -2 104 -3q42 -2 85 -2.5t67 -0.5q72 0 121.5 22.5t80 64t44.5 101.5t14 136zM38 0v82l196 31v1290 l-196 30v82h736q168 0 281 -23.5t181.5 -67.5t97.5 -107.5t29 -143.5q0 -76 -25.5 -137t-68.5 -106.5t-99.5 -75.5t-118.5 -44q112 -11 192.5 -41.5t133 -78t77.5 -110t25 -138.5q0 -98 -35 -180.5t-111 -142t-195.5 -93t-287.5 -33.5q-136 0 -269.5 3.5t-246.5 3.5h-296z " />
<glyph unicode="C" horiz-adv-x="1671" d="M921 -23q-191 0 -340.5 52t-253.5 150.5t-159 240.5t-55 320q0 204 55 353t158 246.5t253 145t341 47.5q161 0 298.5 -23t247.5 -52l6 -364h-101l-32 219q-71 49 -160.5 75.5t-186.5 26.5q-119 0 -212.5 -34.5t-158.5 -114t-99 -207t-34 -314.5q0 -165 34 -287.5 t97.5 -202.5t155.5 -120t208 -40q128 0 223.5 34t149.5 80l36 249h103l-7 -385q-48 -19 -114.5 -36t-141.5 -30t-155 -21t-156 -8z" />
<glyph unicode="D" horiz-adv-x="1671" d="M1183 757q0 178 -33.5 299t-97.5 196t-159 107t-220 32h-83v-1262q27 -2 49 -3.5l44 -3t46.5 -2t56.5 -0.5q113 0 189 36.5t122.5 114.5t66 198.5t19.5 287.5zM760 1515q184 0 331 -39t251 -127t160 -231t56 -352q0 -185 -43 -328.5t-134.5 -242t-233 -149.5t-339.5 -51 q-64 0 -135.5 1t-139 2t-128 1.5t-104.5 0.5h-260v82l194 31v1290l-194 30v82h719z" />
<glyph unicode="E" horiz-adv-x="1543" d="M40 82l194 31v1290l-194 30v82h1290v-385h-103l-36 245q-36 5 -87.5 8.5t-104.5 5t-100.5 2t-73.5 0.5h-235v-556h396l36 167h100v-465h-100l-36 172h-396v-585h286q70 0 132 2t112 4t85.5 5.5t52.5 6.5l64 281h103l-22 -423h-1363v82z" />
<glyph unicode="F" horiz-adv-x="1413" d="M590 646v-533l252 -31v-82h-788v82l180 31v1290l-194 30v82h1263v-408h-106l-36 268q-24 4 -61 6t-79 4.5t-87 3t-85 1.5t-72.5 1h-49.5h-137v-620h369l35 192h101v-511h-101l-35 194h-369z" />
<glyph unicode="G" horiz-adv-x="1800" d="M1589 79q-66 -21 -146.5 -40t-167.5 -32.5t-175.5 -21.5t-169.5 -8q-180 0 -330 49.5t-258 146t-168.5 239t-60.5 328.5q0 199 59 347.5t168 247.5t264 148t347 49q99 0 179.5 -8t150.5 -21.5t132.5 -31t125.5 -35.5v-348h-102l-27 197q-39 27 -86.5 50.5t-101.5 41 t-112 27.5t-118 10q-115 0 -207.5 -32.5t-159 -110t-102 -206.5t-35.5 -323q0 -131 20.5 -229t55.5 -170.5t83 -120.5t103 -76t114.5 -40t118.5 -12q65 0 130.5 10.5t119.5 28.5v439l-195 29v84h699v-84l-148 -29v-493z" />
<glyph unicode="H" horiz-adv-x="1800" d="M40 0v84l194 29v1289l-194 31v82h744v-82l-194 -31v-560h619v560l-194 31v82h747v-82l-196 -31v-1289l196 -29v-84h-747v84l194 29v605h-619v-605l194 -29v-84h-744z" />
<glyph unicode="I" horiz-adv-x="900" d="M628 113l195 -29v-84h-745v84l194 29v1289l-194 31v82h745v-82l-195 -31v-1289z" />
<glyph unicode="J" d="M566 1403l-194 30v82h722v-82l-172 -30v-915q0 -103 -22.5 -181t-61 -134.5t-89.5 -94t-109 -60.5t-119.5 -32t-120.5 -9q-38 0 -79.5 2.5t-81 7t-75 10.5t-61.5 14v344h100l34 -202q22 -26 61.5 -41t86.5 -15q78 0 129.5 54.5t51.5 160.5v1091z" />
<glyph unicode="K" horiz-adv-x="1800" d="M1660 1515v-82l-185 -30l-501 -441l667 -849l141 -31v-82h-495l-566 730l-131 -113v-504l218 -31v-82h-768v82l194 31v1290l-194 30v82h745v-82l-195 -30v-617l690 617l-139 30v82h519z" />
<glyph unicode="L" horiz-adv-x="1543" d="M824 1433l-234 -30v-1283h308q142 0 231 8t123 14l93 316h101l-43 -458h-1363v82l194 31v1290l-193 30v82h783v-82z" />
<glyph unicode="M" horiz-adv-x="2184" d="M997 0h-62l-560 1280v-1167l204 -31v-82h-539v82l194 31v1290l-194 30v82h595l433 -996l442 996h608v-82l-195 -30v-1290l195 -31v-82h-754v82l203 31v1167z" />
<glyph unicode="N" horiz-adv-x="1671" d="M1305 1403l-203 30v82h539v-82l-195 -30v-1403h-132l-934 1218v-1105l203 -31v-82h-539v82l194 31v1290l-194 30v82h519l742 -968v856z" />
<glyph unicode="O" horiz-adv-x="1800" d="M488 759q0 -158 19.5 -282t67 -210t127 -131.5t199.5 -45.5q119 0 198.5 45.5t127 131.5t66.5 210t19 282q0 157 -19 280.5t-66.5 207t-127 127.5t-198.5 44q-120 0 -199.5 -44t-127 -127.5t-67 -207t-19.5 -280.5zM113 759q0 201 52 347t152.5 241t247 140t336.5 45 q183 0 328.5 -45t247.5 -140t156 -241t54 -347t-54 -348.5t-156 -243.5t-247.5 -143t-328.5 -47t-329 47t-248.5 143t-156.5 243.5t-54 348.5z" />
<glyph unicode="P" horiz-adv-x="1413" d="M984 1067q0 90 -15.5 152t-51.5 100t-94 55t-143 17h-89v-672h94q86 0 143 22t92 65.5t49.5 108.5t14.5 152zM591 594v-481l252 -31v-82h-789v82l180 31v1290l-194 30v82h667q190 0 314 -34.5t196.5 -95t101.5 -141.5t29 -175q0 -93 -24 -178.5t-87 -151.5t-170.5 -105.5 t-272.5 -39.5h-203z" />
<glyph unicode="Q" horiz-adv-x="1800" d="M113 759q0 201 52 347t152.5 241t247 140t336.5 45q183 0 328.5 -45t247.5 -140t156 -241t54 -347q0 -144 -28 -261t-82.5 -207t-133 -153t-179.5 -102l57 -69q49 -61 90.5 -101t76.5 -63.5t64 -33.5t54 -10q58 0 92 9v-97q-12 -5 -41 -12.5t-66 -15.5t-79 -13t-80 -5 q-92 0 -159.5 18.5t-124 56t-108 93.5t-110.5 130l-43 54q-180 2 -323.5 50t-243.5 144t-153.5 242t-53.5 346zM488 759q0 -158 19.5 -282t67 -210t127 -131.5t199.5 -45.5q119 0 198.5 45.5t127 131.5t66.5 210t19 282q0 157 -19 280.5t-66.5 207t-127 127.5t-198.5 44 q-120 0 -199.5 -44t-127 -127.5t-67 -207t-19.5 -280.5z" />
<glyph unicode="R" horiz-adv-x="1671" d="M591 642v-529l194 -31v-82h-731v82l180 31v1290l-194 30v82h724q190 0 317.5 -31t204.5 -87t109.5 -134t32.5 -171q0 -72 -15.5 -136t-51.5 -118.5t-94 -96.5t-144 -68l405 -560l164 -31v-82h-491l-422 642h-188zM1076 1089q0 91 -18 149t-58 92t-102 47.5t-149 13.5 h-158v-625h164q89 0 150.5 18t99.5 57t54.5 100t16.5 148z" />
<glyph unicode="S" horiz-adv-x="1287" d="M123 464h100l50 -243q24 -27 60.5 -50t81.5 -41t96.5 -28t104.5 -10q88 0 150 19.5t100.5 54.5t56 84t17.5 108q0 68 -34.5 112t-91.5 75.5t-129.5 56t-148.5 51.5t-148.5 62t-129.5 89t-91.5 130.5t-34.5 188.5q0 200 136.5 304.5t398.5 104.5q55 0 112 -4t111.5 -10.5 t104 -15.5t92.5 -18v-361h-101l-50 208q-50 36 -114.5 60t-154.5 24q-77 0 -132 -15.5t-90 -42.5t-50.5 -65.5t-15.5 -85.5q0 -61 35 -102t91.5 -70t129 -53t149 -51.5t149.5 -63t129.5 -89.5t91.5 -130.5t35 -186.5q0 -111 -32 -200t-100.5 -152t-176 -97t-260.5 -34 q-73 0 -145.5 7t-137.5 18.5t-120 26t-94 29.5v406z" />
<glyph unicode="T" horiz-adv-x="1543" d="M350 0v82l241 31v1283h-58q-148 0 -235 -7t-128 -16l-31 -281h-103v423h1473v-423h-104l-31 281q-42 9 -139.5 14.5t-231.5 5.5h-55v-1280l241 -31v-82h-839z" />
<glyph unicode="U" horiz-adv-x="1671" d="M947 138q93 0 160 27.5t110.5 77t64 118t20.5 151.5v891l-204 30v82h516v-82l-172 -30v-882q0 -101 -27.5 -198t-94.5 -174t-180 -123.5t-282 -46.5q-159 0 -276.5 37.5t-196 109t-117.5 173.5t-39 231v873l-171 30v82h722v-82l-195 -30v-889q0 -86 21.5 -155.5 t65.5 -118.5t112.5 -75.5t162.5 -26.5z" />
<glyph unicode="V" horiz-adv-x="1671" d="M1645 1515v-82l-143 -31l-586 -1437h-150l-616 1437l-124 31v82h659v-82l-157 -31l426 -993l397 993l-152 31v82h446z" />
<glyph unicode="W" horiz-adv-x="2314" d="M2146 1403l-450 -1438h-139l-377 934l-374 -934h-139l-502 1438l-132 30v82h680v-82l-177 -30l323 -902l355 886h141l356 -884l268 900l-191 30v82h490v-82z" />
<glyph unicode="X" horiz-adv-x="1671" d="M373 113l187 -31v-82h-517v82l167 31l487 619l-434 671l-170 30v82h738v-82l-193 -30l265 -409l322 409l-188 30v82h519v-82l-167 -30l-413 -523l496 -767l172 -31v-82h-738v82l192 31l-327 505z" />
<glyph unicode="Y" horiz-adv-x="1671" d="M1029 597v-484l241 -31v-82h-838v82l240 31v477l-461 813l-170 30v82h779v-82l-203 -30l346 -635l334 635l-185 30v82h515v-82l-160 -30z" />
<glyph unicode="Z" horiz-adv-x="1543" d="M111 129l838 1267h-271q-148 0 -234 -7t-128 -16l-35 -238h-100v380h1170v-119l-844 -1278h317q73 0 142.5 3.5t127 10t100.5 12.5t64 11l66 289h102l-30 -444h-1285v129z" />
<glyph unicode="[" horiz-adv-x="770" d="M172 -310v1916h515v-76l-229 -46v-1672l229 -46v-76h-515z" />
<glyph unicode="\" horiz-adv-x="642" d="M-23 1524h159l531 -1547h-160z" />
<glyph unicode="]" horiz-adv-x="770" d="M84 -310v76l229 46v1672l-229 46v76h515v-1916h-515z" />
<glyph unicode="^" horiz-adv-x="1344" d="M1045 440l-373 860l-373 -860h-161l484 1075h101l484 -1075h-162z" />
<glyph unicode="_" d="M-18 -322v163h1193v-163h-1193z" />
<glyph unicode="`" horiz-adv-x="770" d="M511 1263l-412 303v42h322l187 -308v-37h-97z" />
<glyph unicode="a" d="M617 1086q87 0 160.5 -14.5t126.5 -49t82.5 -91t29.5 -139.5v-690l106 -27v-75h-391l-25 81q-21 -14 -50 -32t-66 -34t-83.5 -27t-103.5 -11q-92 0 -155 24t-101.5 66.5t-55 100.5t-16.5 126q0 109 38 174.5t103 101.5t151.5 47t183.5 14l138 3v155q0 94 -38.5 143 t-118.5 49q-62 0 -113.5 -17.5t-98.5 -41.5l-43 -132h-75v256q52 8 99 15t95.5 12.5t102.5 9t118 3.5zM689 533l-95 -3q-49 -2 -85.5 -13.5t-60.5 -38t-36 -69.5t-12 -108q0 -96 34 -141.5t88 -45.5t92.5 12t74.5 28v379z" />
<glyph unicode="b" horiz-adv-x="1287" d="M862 562q0 115 -14.5 192.5t-43 124t-69.5 66.5t-93 20q-43 0 -94 -9.5t-84 -28.5v-813q37 -9 85 -13.5t93 -4.5q61 0 102.5 30.5t68.5 90t38 146.5t11 199zM138 1506l-109 26v74h435v-390q0 -42 -2.5 -100.5t-8.5 -113.5q25 21 59.5 36.5t74.5 27.5t82 18t81 6 q119 0 202.5 -32t137.5 -97.5t78.5 -165t24.5 -235.5q0 -128 -32 -235t-96.5 -184.5t-162 -120.5t-229.5 -43q-108 0 -246.5 22t-288.5 55v1452z" />
<glyph unicode="c" horiz-adv-x="1027" d="M970 64q-28 -21 -64.5 -37t-80 -26.5t-90 -16t-91.5 -5.5q-151 0 -258.5 37.5t-175.5 109t-99.5 174t-31.5 233.5q0 146 42 251.5t113.5 173.5t166.5 100t200 32q97 0 183.5 -11.5t161.5 -27.5v-314h-82l-47 186q-18 14 -35.5 23.5t-38 15.5t-44.5 9t-56 3 q-44 0 -86 -25.5t-75 -78t-53.5 -135t-20.5 -195.5q0 -95 13 -173t45.5 -133t90.5 -85t146 -30q73 0 145 9t122 23v-87z" />
<glyph unicode="d" horiz-adv-x="1287" d="M828 60q-26 -17 -51.5 -32.5t-56.5 -26t-70 -17.5t-91 -7q-235 0 -350 135t-115 416q0 129 28 232.5t87.5 177t150.5 113t216 39.5q123 0 249 -30q-2 12 -3.5 35t-2 48l-1 50t-0.5 42v269l-108 27v75h435v-1504l116 -27v-75h-409zM425 537q0 -125 17 -208t45.5 -133 t66 -71.5t77.5 -21.5q57 0 100.5 13.5t86.5 34.5v800q-46 13 -87 18.5t-91 5.5q-102 0 -158.5 -111t-56.5 -327z" />
<glyph unicode="e" horiz-adv-x="1027" d="M558 1088q94 0 169.5 -22.5t129 -77.5t82 -146t28.5 -227v-93h-557v-18q0 -76 6.5 -145.5t34 -123t84.5 -85t158 -31.5q66 0 129.5 10t121.5 22v-87q-26 -15 -66 -31t-86.5 -28t-98.5 -19t-103 -7q-137 0 -234 36t-158.5 107t-90 175t-28.5 240q0 278 119.5 414.5 t359.5 136.5zM546 974q-41 0 -67 -23.5t-41 -66.5t-21 -105.5t-6 -137.5h247q0 75 -3 137.5t-13.5 105.5t-33.5 66.5t-62 23.5z" />
<glyph unicode="f" horiz-adv-x="770" d="M177 945h-160v78l160 44v114q0 112 29.5 196t84.5 140t134.5 84t180.5 28q25 0 51.5 -1.5t51.5 -4.5t46.5 -6.5t37.5 -8.5v-253h-72l-33 123q-10 10 -27.5 18.5t-43.5 8.5q-25 0 -46 -15t-35.5 -49.5t-23 -89.5t-8.5 -134v-155h216v-117h-216v-843l173 -27v-75h-615v75 l115 27v843z" />
<glyph unicode="g" d="M290 392q-201 85 -201 331q0 91 32.5 159t93.5 114.5t149.5 70t200.5 23.5q36 0 73.5 -3t69.5 -7t57 -9t36 -9l254 126l40 -49l-129 -183q35 -43 52.5 -103t17.5 -130q0 -91 -31.5 -160.5t-92 -117t-149 -71.5t-203.5 -24q-45 0 -91 4t-81 10l-28 -86q2 -17 13 -33 t29 -29t43 -20.5t54 -7.5h248q186 0 287 -72.5t101 -226.5q0 -70 -28 -141t-95.5 -128.5t-181.5 -94t-285 -36.5q-129 0 -220.5 20t-150 54t-86 79t-27.5 95q0 32 15.5 60.5t42.5 54.5t63.5 50.5t79.5 48.5q-20 8 -48 27t-52.5 47.5t-42 67t-17.5 84.5zM887 -188 q0 54 -37.5 81t-105.5 27h-359q-46 -34 -72.5 -76t-26.5 -88q0 -26 11 -52t40.5 -46.5t80 -33.5t128.5 -13q89 0 153.5 15.5t106.5 42.5t61.5 63.5t19.5 79.5zM558 463q84 0 121 65t37 195t-36.5 191.5t-121.5 61.5q-78 0 -113.5 -61.5t-35.5 -191.5t35 -195t114 -65z" />
<glyph unicode="h" horiz-adv-x="1287" d="M493 1146q0 -17 -0.5 -40t-2 -48t-2.5 -48.5t-2 -39.5q35 18 77.5 39.5t90 39.5t97.5 29.5t101 11.5q64 0 118.5 -16.5t93.5 -54t60.5 -97.5t21.5 -145v-675l106 -27v-75h-528v75l95 27v631q0 95 -40 148.5t-115 53.5q-85 0 -171 -39v-794l97 -27v-75h-528v75l104 27 v1402l-108 27v75h435v-460z" />
<glyph unicode="i" horiz-adv-x="642" d="M493 102l116 -27v-75h-558v75l115 27v858l-108 28v74h435v-960zM155 1433q0 36 13.5 67.5t37 55t55.5 37t68 13.5t67.5 -13.5t55 -37t37 -55t13.5 -67.5t-13.5 -68t-37 -55.5t-55 -37t-67.5 -13.5t-68 13.5t-55.5 37t-37 55.5t-13.5 68z" />
<glyph unicode="j" horiz-adv-x="770" d="M625 1433q0 -36 -13.5 -68t-37.5 -55.5t-55.5 -37t-66.5 -13.5q-36 0 -67.5 13.5t-55.5 37t-37.5 55.5t-13.5 68q0 35 13.5 66.5t37.5 55.5t55.5 37.5t67.5 13.5q35 0 66.5 -13.5t55.5 -37.5t37.5 -55.5t13.5 -66.5zM616 -44q0 -120 -35 -205t-95 -139.5t-140 -79.5 t-171 -25q-51 0 -101.5 6t-92.5 15v254h72l49 -129q11 -9 22.5 -15t32.5 -6q25 0 48.5 15t42.5 49t30 89t11 135v1029l-187 39v74h514v-1106z" />
<glyph unicode="k" horiz-adv-x="1287" d="M493 510l414 452l-113 26v74h405v-74l-122 -25l-253 -267l365 -594l95 -27v-75h-511v75l62 27l-212 371l-130 -90v-281l105 -27v-75h-532v75l100 27v1402l-108 27v75h435v-1096z" />
<glyph unicode="l" horiz-adv-x="642" d="M487 102l116 -27v-75h-558v75l115 27v1402l-108 27v75h435v-1504z" />
<glyph unicode="m" horiz-adv-x="1927" d="M490 970q35 18 77 39.5t88.5 39.5t95.5 29.5t100 11.5q88 0 153.5 -32t99.5 -105q36 21 83 45.5t98.5 44.5t105.5 33.5t104 13.5q64 0 117.5 -16.5t91 -54t58 -97.5t20.5 -145v-675l106 -27v-75h-527v75l94 27v631q0 95 -36.5 148.5t-111.5 53.5q-40 0 -88 -13t-92 -35 q5 -24 8 -51.5t3 -58.5v-675l106 -27v-75h-528v75l95 27v631q0 95 -36.5 148.5t-111.5 53.5q-41 0 -85 -12.5t-85 -32.5v-788l97 -27v-75h-528v75l104 27v858l-104 28v74h413z" />
<glyph unicode="n" horiz-adv-x="1287" d="M490 970q35 18 77 39.5t88.5 39.5t96 29.5t100.5 11.5q64 0 118.5 -16.5t93.5 -54t60.5 -97.5t21.5 -145v-675l106 -27v-75h-528v75l95 27v631q0 95 -40 148.5t-115 53.5q-85 0 -171 -39v-794l97 -27v-75h-528v75l104 27v858l-104 28v74h413z" />
<glyph unicode="o" d="M1069 537q0 -136 -27.5 -240t-87.5 -175t-154.5 -108t-227.5 -37q-126 0 -217.5 36.5t-150.5 107.5t-87.5 175.5t-28.5 240.5q0 134 28.5 237.5t88 173.5t153 106t223.5 36q252 0 370 -140.5t118 -412.5zM738 537q0 109 -7 191.5t-25 138t-49.5 82.5t-82.5 27 q-50 0 -80.5 -27t-46.5 -82.5t-22 -138t-6 -191.5q0 -111 6 -194t22 -139.5t46.5 -85t80.5 -28.5q51 0 82.5 28.5t49.5 85t25 139.5t7 194z" />
<glyph unicode="p" horiz-adv-x="1287" d="M462 1008q25 17 55 32t65.5 26t78.5 17.5t95 6.5q221 0 329 -129.5t108 -410.5q0 -129 -28.5 -234.5t-88.5 -180.5t-151.5 -116.5t-217.5 -41.5q-61 0 -119.5 7.5t-121.5 23.5q1 -13 2.5 -34t2 -45.5t1 -47.5t0.5 -40v-232l156 -27v-75h-597v75l115 27v1351l-117 28v74 h431zM862 542q0 124 -15.5 205.5t-43 129.5t-63 68t-74.5 20q-58 0 -107 -12.5t-87 -30.5v-801q92 -24 191 -24q102 0 150.5 112t48.5 333z" />
<glyph unicode="q" horiz-adv-x="1287" d="M426 506q0 -115 16 -192.5t44.5 -124.5t70.5 -66.5t95 -19.5q43 0 91 12t81 31v809q-36 9 -81.5 14t-90.5 5q-61 0 -104 -31t-70 -90.5t-39.5 -147t-12.5 -199.5zM1150 -391l116 -27v-75h-598v75l156 27v243q0 42 2.5 100.5t8.5 113.5q-50 -40 -120 -64.5t-157 -24.5 q-236 0 -349.5 140t-113.5 419q0 128 29.5 230.5t91 175t156.5 110.5t226 38q34 0 75.5 -2.5t84.5 -6.5t84 -8.5t71 -8.5l135 49h102v-1504z" />
<glyph unicode="r" horiz-adv-x="1027" d="M521 842q29 33 72.5 77t95 83.5t110 66.5t117.5 27h61v-387h-63l-66 142q-38 0 -82 -9t-87 -24.5t-83 -34t-69 -36.5v-645l170 -27v-75h-635v75l138 27v858l-138 28v74h446z" />
<glyph unicode="s" horiz-adv-x="900" d="M844 337q0 -84 -25.5 -150.5t-78 -113t-132.5 -71.5t-190 -25q-54 0 -109.5 7t-103 16.5t-83 19t-50.5 15.5v289h75l43 -149q17 -17 42 -33.5t55.5 -30t65.5 -21.5t72 -8q98 0 146 42.5t48 108.5q0 36 -14 62t-44.5 46.5t-77.5 38.5t-112 38q-55 17 -109 42.5t-96.5 66 t-69 100.5t-26.5 147q0 77 30 135.5t82 99t122 61t150 20.5q79 0 159 -10t154 -22v-273h-74l-36 125q-15 14 -37.5 27.5t-50.5 24t-58.5 16.5t-58.5 6q-81 0 -120 -33t-39 -91q0 -37 16 -63t48.5 -46.5t78 -37.5t105.5 -35q62 -19 117.5 -45.5t97 -67t65 -95.5t23.5 -133z " />
<glyph unicode="t" horiz-adv-x="770" d="M495 -23q-85 0 -145.5 20.5t-99 56t-56.5 85t-18 106.5v700h-139v73l164 44l132 241h170v-241h224v-117h-224v-679q0 -74 30.5 -111t80.5 -37q38 0 76 5.5t70 12.5v-96q-15 -12 -45.5 -23t-67.5 -19.5t-77 -14.5t-75 -6z" />
<glyph unicode="u" horiz-adv-x="1287" d="M797 93q-35 -18 -77 -39.5t-88.5 -40t-96 -30t-100.5 -11.5q-64 0 -118.5 17t-93.5 54t-60.5 97t-21.5 145v675l-106 28v74h433v-733q0 -95 40 -148t115 -53q86 0 171 38v794l-97 28v74h424v-960l104 -27v-75h-413z" />
<glyph unicode="v" d="M1080 965l-425 -988h-136l-444 983l-75 28v74h544v-74l-127 -30l272 -605l246 607l-125 28v74h347v-74z" />
<glyph unicode="w" horiz-adv-x="1671" d="M988 956l245 -605l205 609l-124 28v74h345v-74l-82 -23l-357 -988h-136l-243 596l-242 -596h-137l-376 983l-79 28v74h525v-74l-126 -30l228 -607l246 605h108z" />
<glyph unicode="x" d="M35 989v73h567v-73l-118 -31l154 -238l205 240l-106 29v73h361v-73l-93 -24l-299 -350l337 -518l102 -24v-73h-568v73l119 26l-185 286l-247 -288l107 -24v-73h-362v73l95 19l339 397l-305 471z" />
<glyph unicode="y" d="M522 -33l-425 993l-74 28v74h543v-74l-126 -30l249 -587l223 589l-124 28v74h347v-74l-77 -23l-420 -1032q-36 -92 -73 -171.5t-83 -137.5t-104.5 -90.5t-136.5 -32.5q-32 0 -55 1t-44 3.5t-42 6.5t-46 10v273h68l49 -142q15 -12 35 -19t48 -7q47 0 81.5 24t62.5 64 t52.5 93.5t51.5 113.5z" />
<glyph unicode="z" horiz-adv-x="1027" d="M45 0v51l488 909h-121q-31 0 -62 -2.5t-59 -7.5t-49.5 -12.5t-32.5 -16.5l-35 -175h-81v316h825v-55l-489 -905h170q30 0 64.5 4t67 10.5t60 16t44.5 22.5l60 245h81l-30 -400h-901z" />
<glyph unicode="{" horiz-adv-x="911" d="M669 -310q-87 0 -153 23.5t-110 67t-66 104.5t-22 138v333q0 65 -16.5 111t-47.5 75.5t-76.5 43.5t-102.5 16v96q115 4 179 60t64 184v333q0 159 88 245t263 86h153v-99h-71q-78 0 -111 -49.5t-33 -147.5v-373q0 -57 -17.5 -104.5t-48 -84t-72.5 -61t-90 -34.5v-3 q50 -12 92 -36t72.5 -61t47 -84.5t16.5 -104.5v-378q0 -97 33 -147t111 -50h71v-99h-153z" />
<glyph unicode="|" horiz-adv-x="509" d="M174 -499v2105h162v-2105h-162z" />
<glyph unicode="}" horiz-adv-x="911" d="M90 -310v99h70q78 0 111.5 50t33.5 147v378q0 57 16.5 104.5t47 84.5t72.5 61t92 36v3q-49 10 -91 34.5t-72.5 61t-47.5 84t-17 104.5v373q0 98 -33.5 147.5t-111.5 49.5h-70v99h153q175 0 263 -86t88 -245v-333q0 -128 64 -184t179 -60v-96q-57 -2 -102.5 -16 t-76.5 -43.5t-47.5 -75.5t-16.5 -111v-333q0 -77 -22 -138t-66 -104.5t-110 -67t-153 -23.5h-153z" />
<glyph unicode="~" horiz-adv-x="1203" d="M860 544q-54 0 -104 20t-95 50.5t-87 65.5t-81 65.5t-75.5 51t-71.5 20.5q-39 0 -67 -13.5t-48 -46t-33 -85t-21 -128.5h-159q8 78 24 155.5t51 139.5t95.5 101t157.5 39q44 0 83.5 -12.5t75.5 -32.5t70 -45t65 -49q19 -17 45.5 -40t56.5 -44.5t60.5 -36t57.5 -14.5 q37 0 64 15.5t46.5 48t33 84.5t22.5 126h163q-10 -77 -27.5 -155t-53.5 -140t-95 -101t-153 -39z" />
<glyph unicode="&#xa2;" d="M1048 296q-50 -36 -129 -57.5t-163 -27.5v-211h-104v211q-146 6 -250.5 46t-171.5 111.5t-98 171.5t-31 225q0 146 44 251.5t119 173.5t174.5 100t211.5 32h2v193h104v-197q73 -6 141.5 -15t126.5 -20v-315h-82l-61 187q-29 19 -57 30.5t-68 16.5v-852q38 0 79 2.5 t79.5 7t73 10.5t60.5 13v-87zM429 772q0 -82 11 -150t36.5 -121.5t68.5 -89t107 -49.5v839q-44 -9 -84 -38.5t-70.5 -82t-49.5 -129t-19 -179.5z" />
<glyph unicode="&#xa3;" d="M1085 252v-252h-987v139q38 34 80.5 70t78.5 78t59.5 90.5t23.5 108.5q0 51 -18.5 103.5t-44.5 111.5h-184v114h99q-32 71 -54 150t-22 172q0 190 134 292.5t401 102.5q52 0 96.5 -4t86 -10t82.5 -15t86 -19v-345h-98l-49 219q-37 23 -88.5 41.5t-115.5 18.5 q-103 0 -152.5 -71t-49.5 -210q0 -104 9 -180.5t20 -141.5h284v-114h-269q6 -43 10.5 -83.5t4.5 -89.5q0 -95 -30.5 -160.5t-70.5 -116.5z" />
<glyph unicode="&#xa5;" d="M2 1441v74h564v-74l-126 -30l232 -610l240 613l-124 27v74h367v-74l-97 -23l-291 -696h256v-115h-276v-156h276v-115h-276v-234l162 -27v-75h-649v75l160 27v234h-290v115h290v156h-290v115h263l-296 692z" />
<glyph unicode="&#xa8;" horiz-adv-x="770" d="M576 1277q-28 0 -53 11.5t-43.5 30t-29 43.5t-10.5 52q0 28 10.5 52t29 42.5t43.5 29t53 10.5q29 0 53.5 -10.5t42.5 -29t28.5 -42.5t10.5 -52q0 -27 -10.5 -52t-28.5 -43.5t-42.5 -30t-53.5 -11.5zM197 1277q-27 0 -52 11.5t-44 30t-30 43.5t-11 52q0 28 11 52t30 42.5 t44 29t52 10.5q28 0 52 -10.5t42.5 -29t29 -42.5t10.5 -52q0 -27 -10 -52t-28 -43.5t-43 -30t-53 -11.5z" />
<glyph unicode="&#xa9;" horiz-adv-x="1728" d="M99 757q0 109 28 209t79 187t121.5 158t157.5 122t186.5 78.5t207.5 27.5q109 0 209 -27.5t187 -78.5t158 -122t122 -158t78.5 -187t27.5 -209q0 -108 -27.5 -207.5t-78.5 -186.5t-122 -158t-158 -121.5t-187 -78.5t-209 -28q-163 0 -304.5 61t-247.5 167t-167 247.5 t-61 304.5zM919 287q-112 0 -201.5 32t-151.5 92.5t-95.5 146t-33.5 192.5q0 122 33.5 212.5t96 150t152 89t202.5 29.5q93 0 167 -11t136 -23l4 -234h-78l-21 118q-46 29 -92.5 43.5t-111.5 14.5q-74 0 -126 -21t-85 -66.5t-47.5 -119.5t-14.5 -179q0 -187 60.5 -281.5 t206.5 -94.5q84 0 134.5 19.5t85.5 47.5l25 135h79l-5 -248q-29 -9 -65 -17t-78 -14t-86.5 -9.5t-89.5 -3.5zM879 1444q-141 0 -265 -54t-215.5 -147.5t-144.5 -218.5t-53 -267t53 -267t144.5 -218t215.5 -147t265 -54q140 0 264.5 54t216.5 147t145.5 218t53.5 267 q0 95 -24 182.5t-68.5 164.5t-106.5 139t-137.5 107.5t-162.5 69.5t-181 24z" />
<glyph unicode="&#xab;" d="M120 560l373 403h114l-207 -440l207 -439h-114l-373 402v74zM583 560l373 403h113l-206 -440l206 -439h-113l-373 402v74z" />
<glyph unicode="&#xad;" horiz-adv-x="770" d="M85 446v197h601v-197h-601z" />
<glyph unicode="&#xae;" horiz-adv-x="1728" d="M1661 757q0 -108 -27.5 -207.5t-78.5 -186.5t-122 -158t-158 -121.5t-187 -78.5t-209 -28q-163 0 -304.5 61t-247.5 167t-167 247.5t-61 304.5q0 109 28 209t79 187t121.5 158t157.5 122t186.5 78.5t207.5 27.5q109 0 209 -27.5t187 -78.5t158 -122t122 -158t78.5 -187 t27.5 -209zM1093 312l-260 387h-56v-303l107 -19v-65h-391v65l86 19v745l-95 18v63h395q95 0 162.5 -18.5t111 -51.5t63.5 -79t20 -101q0 -87 -51.5 -152.5t-150.5 -97.5l234 -326l79 -19v-65h-254zM1029 970q0 54 -14.5 86.5t-43.5 50t-71.5 24t-100.5 6.5h-22v-353h26 q118 0 172 41t54 145zM879 1444q-141 0 -265 -54t-215.5 -147.5t-144.5 -218.5t-53 -267t53 -267t144.5 -218t215.5 -147t265 -54q140 0 264.5 54t216.5 147t145.5 218t53.5 267q0 95 -24 182.5t-68.5 164.5t-106.5 139t-137.5 107.5t-162.5 69.5t-181 24z" />
<glyph unicode="&#xb4;" horiz-adv-x="770" d="M164 1263v38l187 307h322v-42l-412 -303h-97z" />
<glyph unicode="&#xb8;" horiz-adv-x="770" d="M320 -477q-43 0 -93 9t-88 26v102q38 -10 81 -16t72 -6q57 0 80.5 28.5t23.5 69.5q0 49 -35.5 75.5t-113.5 32.5l58 220h126l-26 -124q46 -7 84.5 -20.5t66 -36.5t43 -56t15.5 -77q0 -56 -23 -98.5t-62.5 -70.5t-93 -43t-115.5 -15z" />
<glyph unicode="&#xbb;" d="M1037 486l-373 -402h-114l207 439l-207 440h114l373 -403v-74zM574 486l-373 -402h-113l206 439l-206 440h113l373 -403v-74z" />
<glyph unicode="&#xd3;" horiz-adv-x="1800" d="M488 759q0 -158 19.5 -282t67 -210t127 -131.5t199.5 -45.5q119 0 198.5 45.5t127 131.5t66.5 210t19 282q0 157 -19 280.5t-66.5 207t-127 127.5t-198.5 44q-120 0 -199.5 -44t-127 -127.5t-67 -207t-19.5 -280.5zM113 759q0 201 52 347t152.5 241t247 140t336.5 45 q183 0 328.5 -45t247.5 -140t156 -241t54 -347t-54 -348.5t-156 -243.5t-247.5 -143t-328.5 -47t-329 47t-248.5 143t-156.5 243.5t-54 348.5zM785 1640v38l187 307h322v-42l-412 -303h-97z" />
<glyph unicode="&#xf3;" d="M1069 537q0 -136 -27.5 -240t-87.5 -175t-154.5 -108t-227.5 -37q-126 0 -217.5 36.5t-150.5 107.5t-87.5 175.5t-28.5 240.5q0 134 28.5 237.5t88 173.5t153 106t223.5 36q252 0 370 -140.5t118 -412.5zM738 537q0 109 -7 191.5t-25 138t-49.5 82.5t-82.5 27 q-50 0 -80.5 -27t-46.5 -82.5t-22 -138t-6 -191.5q0 -111 6 -194t22 -139.5t46.5 -85t80.5 -28.5q51 0 82.5 28.5t49.5 85t25 139.5t7 194zM424 1263v38l187 307h322v-42l-412 -303h-97z" />
<glyph unicode="&#x104;" horiz-adv-x="1671" d="M484 82v-82h-461v82l113 31l539 1415h327l537 -1415l115 -31v-82h-674v82l175 31l-145 392h-582l-139 -392zM724 1300l-249 -671h492zM1287 -486q-70 0 -120.5 18.5t-82.5 51.5t-47.5 77.5t-15.5 95.5q0 43 12.5 82.5t33.5 72.5t48 59.5t57 44.5h143q-36 -52 -59.5 -114 t-23.5 -127t32.5 -101t93.5 -36q43 0 80 9t76 24v-96q-47 -28 -103.5 -44.5t-123.5 -16.5z" />
<glyph unicode="&#x105;" d="M617 1086q87 0 160.5 -14.5t126.5 -49t82.5 -91t29.5 -139.5v-690l106 -27v-75h-391l-25 81q-21 -14 -50 -32t-66 -34t-83.5 -27t-103.5 -11q-92 0 -155 24t-101.5 66.5t-55 100.5t-16.5 126q0 109 38 174.5t103 101.5t151.5 47t183.5 14l138 3v155q0 94 -38.5 143 t-118.5 49q-62 0 -113.5 -17.5t-98.5 -41.5l-43 -132h-75v256q52 8 99 15t95.5 12.5t102.5 9t118 3.5zM689 533l-95 -3q-49 -2 -85.5 -13.5t-60.5 -38t-36 -69.5t-12 -108q0 -96 34 -141.5t88 -45.5t92.5 12t74.5 28v379zM869 -486q-70 0 -120.5 18.5t-82.5 51.5t-47.5 77.5 t-15.5 95.5q0 43 12.5 82.5t33.5 72.5t48 59.5t57 44.5h143q-36 -52 -59.5 -114t-23.5 -127t32.5 -101t93.5 -36q43 0 80 9t76 24v-96q-47 -28 -103.5 -44.5t-123.5 -16.5z" />
<glyph unicode="&#x106;" horiz-adv-x="1671" d="M921 -23q-191 0 -340.5 52t-253.5 150.5t-159 240.5t-55 320q0 204 55 353t158 246.5t253 145t341 47.5q161 0 298.5 -23t247.5 -52l6 -364h-101l-32 219q-71 49 -160.5 75.5t-186.5 26.5q-119 0 -212.5 -34.5t-158.5 -114t-99 -207t-34 -314.5q0 -165 34 -287.5 t97.5 -202.5t155.5 -120t208 -40q128 0 223.5 34t149.5 80l36 249h103l-7 -385q-48 -19 -114.5 -36t-141.5 -30t-155 -21t-156 -8zM764 1640v38l187 307h322v-42l-412 -303h-97z" />
<glyph unicode="&#x107;" horiz-adv-x="1027" d="M970 64q-28 -21 -64.5 -37t-80 -26.5t-90 -16t-91.5 -5.5q-151 0 -258.5 37.5t-175.5 109t-99.5 174t-31.5 233.5q0 146 42 251.5t113.5 173.5t166.5 100t200 32q97 0 183.5 -11.5t161.5 -27.5v-314h-82l-47 186q-18 14 -35.5 23.5t-38 15.5t-44.5 9t-56 3 q-44 0 -86 -25.5t-75 -78t-53.5 -135t-20.5 -195.5q0 -95 13 -173t45.5 -133t90.5 -85t146 -30q73 0 145 9t122 23v-87zM430 1263v38l187 307h322v-42l-412 -303h-97z" />
<glyph unicode="&#x118;" horiz-adv-x="1543" d="M40 82l194 31v1290l-194 30v82h1290v-385h-103l-36 245q-36 5 -87.5 8.5t-104.5 5t-100.5 2t-73.5 0.5h-235v-556h396l36 167h100v-465h-100l-36 172h-396v-585h286q70 0 132 2t112 4t85.5 5.5t52.5 6.5l64 281h103l-22 -423h-1363v82zM1166 -486q-70 0 -120.5 18.5 t-82.5 51.5t-47.5 77.5t-15.5 95.5q0 43 12.5 82.5t33.5 72.5t48 59.5t57 44.5h143q-36 -52 -59.5 -114t-23.5 -127t32.5 -101t93.5 -36q43 0 80 9t76 24v-96q-47 -28 -103.5 -44.5t-123.5 -16.5z" />
<glyph unicode="&#x119;" horiz-adv-x="1027" d="M558 1088q94 0 169.5 -22.5t129 -77.5t82 -146t28.5 -227v-93h-557v-18q0 -76 6.5 -145.5t34 -123t84.5 -85t158 -31.5q66 0 129.5 10t121.5 22v-87q-26 -15 -66 -31t-86.5 -28t-98.5 -19t-103 -7q-137 0 -234 36t-158.5 107t-90 175t-28.5 240q0 278 119.5 414.5 t359.5 136.5zM546 974q-41 0 -67 -23.5t-41 -66.5t-21 -105.5t-6 -137.5h247q0 75 -3 137.5t-13.5 105.5t-33.5 66.5t-62 23.5zM724 -486q-70 0 -120.5 18.5t-82.5 51.5t-47.5 77.5t-15.5 95.5q0 43 12.5 82.5t33.5 72.5t48 59.5t57 44.5h143q-36 -52 -59.5 -114t-23.5 -127 t32.5 -101t93.5 -36q43 0 80 9t76 24v-96q-47 -28 -103.5 -44.5t-123.5 -16.5z" />
<glyph unicode="&#x131;" horiz-adv-x="642" d="M493 102l116 -27v-75h-558v75l115 27v858l-108 28v74h435v-960z" />
<glyph unicode="&#x141;" horiz-adv-x="1543" d="M234 714v688l-192 31v82h782v-82l-234 -31v-483l270 156v-152l-270 -156v-647h308q142 0 230.5 8.5t123.5 15.5l93 315h101l-44 -459h-1362v84l194 29v449l-185 -108v154z" />
<glyph unicode="&#x142;" horiz-adv-x="642" d="M23 602l137 79v823l-108 27v75h435v-736l145 84v-140l-145 -85v-627l116 -27v-75h-558v75l115 27v438l-137 -80v142z" />
<glyph unicode="&#x143;" horiz-adv-x="1671" d="M1305 1403l-203 30v82h539v-82l-195 -30v-1403h-132l-934 1218v-1105l203 -31v-82h-539v82l194 31v1290l-194 30v82h519l742 -968v856zM717 1640v38l187 307h322v-42l-412 -303h-97z" />
<glyph unicode="&#x144;" horiz-adv-x="1287" d="M490 970q35 18 77 39.5t88.5 39.5t96 29.5t100.5 11.5q64 0 118.5 -16.5t93.5 -54t60.5 -97.5t21.5 -145v-675l106 -27v-75h-528v75l95 27v631q0 95 -40 148.5t-115 53.5q-85 0 -171 -39v-794l97 -27v-75h-528v75l104 27v858l-104 28v74h413zM521 1263v38l187 307h322 v-42l-412 -303h-97z" />
<glyph unicode="&#x15a;" horiz-adv-x="1287" d="M123 464h100l50 -243q24 -27 60.5 -50t81.5 -41t96.5 -28t104.5 -10q88 0 150 19.5t100.5 54.5t56 84t17.5 108q0 68 -34.5 112t-91.5 75.5t-129.5 56t-148.5 51.5t-148.5 62t-129.5 89t-91.5 130.5t-34.5 188.5q0 200 136.5 304.5t398.5 104.5q55 0 112 -4t111.5 -10.5 t104 -15.5t92.5 -18v-361h-101l-50 208q-50 36 -114.5 60t-154.5 24q-77 0 -132 -15.5t-90 -42.5t-50.5 -65.5t-15.5 -85.5q0 -61 35 -102t91.5 -70t129 -53t149 -51.5t149.5 -63t129.5 -89.5t91.5 -130.5t35 -186.5q0 -111 -32 -200t-100.5 -152t-176 -97t-260.5 -34 q-73 0 -145.5 7t-137.5 18.5t-120 26t-94 29.5v406zM543 1640v38l187 307h322v-42l-412 -303h-97z" />
<glyph unicode="&#x15b;" horiz-adv-x="900" d="M844 337q0 -84 -25.5 -150.5t-78 -113t-132.5 -71.5t-190 -25q-54 0 -109.5 7t-103 16.5t-83 19t-50.5 15.5v289h75l43 -149q17 -17 42 -33.5t55.5 -30t65.5 -21.5t72 -8q98 0 146 42.5t48 108.5q0 36 -14 62t-44.5 46.5t-77.5 38.5t-112 38q-55 17 -109 42.5t-96.5 66 t-69 100.5t-26.5 147q0 77 30 135.5t82 99t122 61t150 20.5q79 0 159 -10t154 -22v-273h-74l-36 125q-15 14 -37.5 27.5t-50.5 24t-58.5 16.5t-58.5 6q-81 0 -120 -33t-39 -91q0 -37 16 -63t48.5 -46.5t78 -37.5t105.5 -35q62 -19 117.5 -45.5t97 -67t65 -95.5t23.5 -133z M338 1263v38l187 307h322v-42l-412 -303h-97z" />
<glyph unicode="&#x179;" horiz-adv-x="1543" d="M111 129l838 1267h-271q-148 0 -234 -7t-128 -16l-35 -238h-100v380h1170v-119l-844 -1278h317q73 0 142.5 3.5t127 10t100.5 12.5t64 11l66 289h102l-30 -444h-1285v129zM602 1640v38l187 307h322v-42l-412 -303h-97z" />
<glyph unicode="&#x17a;" horiz-adv-x="1027" d="M45 0v51l488 909h-121q-31 0 -62 -2.5t-59 -7.5t-49.5 -12.5t-32.5 -16.5l-35 -175h-81v316h825v-55l-489 -905h170q30 0 64.5 4t67 10.5t60 16t44.5 22.5l60 245h81l-30 -400h-901zM350 1263v38l187 307h322v-42l-412 -303h-97z" />
<glyph unicode="&#x17b;" horiz-adv-x="1543" d="M111 129l838 1267h-271q-148 0 -234 -7t-128 -16l-35 -238h-100v380h1170v-119l-844 -1278h317q73 0 142.5 3.5t127 10t100.5 12.5t64 11l66 289h102l-30 -444h-1285v129zM598 1810q0 36 13.5 67.5t37 55t55 37t68.5 13.5q36 0 67.5 -13.5t54.5 -37t36.5 -55t13.5 -67.5 t-13.5 -68t-36.5 -55.5t-54.5 -37t-67.5 -13.5q-37 0 -68.5 13.5t-55 37t-37 55.5t-13.5 68z" />
<glyph unicode="&#x17c;" horiz-adv-x="1027" d="M45 0v51l488 909h-121q-31 0 -62 -2.5t-59 -7.5t-49.5 -12.5t-32.5 -16.5l-35 -175h-81v316h825v-55l-489 -905h170q30 0 64.5 4t67 10.5t60 16t44.5 22.5l60 245h81l-30 -400h-901zM341 1433q0 36 13.5 67.5t37 55t55 37t68.5 13.5q36 0 67.5 -13.5t54.5 -37t36.5 -55 t13.5 -67.5t-13.5 -68t-36.5 -55.5t-54.5 -37t-67.5 -13.5q-37 0 -68.5 13.5t-55 37t-37 55.5t-13.5 68z" />
<glyph unicode="&#x2c6;" horiz-adv-x="770" d="M20 1263v38l247 331h240l246 -331v-38h-86l-281 183l-280 -183h-86z" />
<glyph unicode="&#x2d9;" horiz-adv-x="770" d="M214 1433q0 36 13.5 67.5t37 55t55 37t68.5 13.5q36 0 67.5 -13.5t54.5 -37t36.5 -55t13.5 -67.5t-13.5 -68t-36.5 -55.5t-54.5 -37t-67.5 -13.5q-37 0 -68.5 13.5t-55 37t-37 55.5t-13.5 68z" />
<glyph unicode="&#x2da;" horiz-adv-x="770" d="M386 1197q-50 0 -93.5 19t-76 52t-50.5 76.5t-18 92.5q0 50 18 93.5t50.5 75.5t76 51t93.5 19q51 0 94.5 -19t76 -51t50.5 -75.5t18 -93.5q0 -49 -18 -92.5t-50.5 -76.5t-76 -52t-94.5 -19zM386 1549q-22 0 -42 -9t-35 -24t-24 -35.5t-9 -43.5q0 -22 9 -42t24 -35t35 -24 t42 -9q23 0 43 9t35 24t24 35t9 42q0 23 -9 43.5t-24 35.5t-35 24t-43 9z" />
<glyph unicode="&#x2db;" horiz-adv-x="770" d="M391 -486q-70 0 -120.5 18.5t-82.5 51.5t-47.5 77.5t-15.5 95.5q0 43 12.5 82.5t33.5 72.5t48 59.5t57 44.5h143q-36 -52 -59.5 -114t-23.5 -127t32.5 -101t93.5 -36q43 0 80 9t76 24v-96q-47 -28 -103.5 -44.5t-123.5 -16.5z" />
<glyph unicode="&#x2dc;" horiz-adv-x="770" d="M525 1266q-29 0 -55.5 7t-51 18t-46 25t-41.5 28l-28 21t-33.5 23.5t-35 19.5t-33.5 8q-21 0 -34 -7t-21 -22.5t-13 -40.5t-10 -60h-118q4 63 16.5 122t39.5 103.5t71.5 71.5t114.5 27q60 0 107.5 -24t87.5 -53q12 -9 28.5 -20.5t34 -23t35 -19.5t32.5 -8q20 0 33 7 t21.5 22t13 39.5t10.5 58.5h118q-4 -63 -16.5 -121.5t-39.5 -103.5t-72.5 -71.5t-114.5 -26.5z" />
<glyph unicode="&#x393;" horiz-adv-x="1472" d="M826 0h-783v82l193 30v1290l-194 31v82h1285l20 -457h-102l-70 315q-34 7 -123 15t-230 8h-230v-1284l234 -30v-82z" />
<glyph unicode="&#x3a0;" horiz-adv-x="1800" d="M45 0v84l195 29v1289l-195 31v82h1710v-82l-196 -31v-1289l196 -29v-84h-747v84l194 29v1278h-606v-1278l194 -29v-84h-745z" />
<glyph unicode="&#x401;" horiz-adv-x="1543" d="M40 82l194 31v1290l-194 30v82h1290v-385h-103l-36 245q-36 5 -87.5 8.5t-104.5 5t-100.5 2t-73.5 0.5h-235v-556h396l36 167h100v-465h-100l-36 172h-396v-585h286q70 0 132 2t112 4t85.5 5.5t52.5 6.5l64 281h103l-22 -423h-1363v82zM962 1654q-28 0 -53 11.5t-43.5 30 t-29 43.5t-10.5 52q0 28 10.5 52t29 42.5t43.5 29t53 10.5q29 0 53.5 -10.5t42.5 -29t28.5 -42.5t10.5 -52q0 -27 -10.5 -52t-28.5 -43.5t-42.5 -30t-53.5 -11.5zM583 1654q-27 0 -52 11.5t-44 30t-30 43.5t-11 52q0 28 11 52t30 42.5t44 29t52 10.5q28 0 52 -10.5t42.5 -29 t29 -42.5t10.5 -52q0 -27 -10 -52t-28 -43.5t-43 -30t-53 -11.5z" />
<glyph unicode="&#x402;" horiz-adv-x="1850" d="M1666 2q0 -103 -23 -181t-61 -134.5t-89 -94t-109.5 -60t-120 -31.5t-119.5 -9q-39 0 -80 2.5t-80.5 7.5t-75.5 11.5t-62 14.5v321h101l34 -180q21 -26 60.5 -42t87.5 -16q78 0 129.5 54.5t51.5 160.5v780q0 64 -17.5 109t-49.5 73.5t-75 41.5t-93 13q-49 0 -93 -7.5 t-79 -16.5v-706l184 -31v-82h-737v82l196 31v1283h-58q-73 0 -124.5 -2t-87.5 -5.5t-61 -7.5t-45 -8l-31 -281h-103v423h1427v-401h-104l-30 259q-42 9 -139.5 14.5t-231.5 5.5h-55v-430q56 16 133 30.5t167 14.5q112 0 198.5 -26.5t145 -82t89 -142.5t30.5 -207v-548z" />
<glyph unicode="&#x403;" horiz-adv-x="1472" d="M826 0h-783v82l193 30v1290l-194 31v82h1285l20 -457h-102l-70 315q-34 7 -123 15t-230 8h-230v-1284l234 -30v-82zM587 1640v38l187 307h322v-42l-412 -303h-97z" />
<glyph unicode="&#x404;" horiz-adv-x="1569" d="M1053 716h-565q2 -158 34.5 -275t91 -193.5t143 -115t189.5 -38.5q118 0 206 34t138 80l34 249h103l-7 -385q-46 -19 -108.5 -36t-134 -30t-147.5 -21t-149 -8q-182 0 -324 52t-241 150.5t-151 240.5t-52 320q0 204 52 353t150.5 246.5t240.5 145t323 47.5q154 0 285 -23 t234 -52l7 -364h-102l-29 219q-66 49 -148.5 75.5t-171.5 26.5q-103 0 -185 -30t-141.5 -97.5t-94.5 -176.5t-43 -267h563v-127z" />
<glyph unicode="&#x405;" horiz-adv-x="1287" d="M123 464h100l50 -243q24 -27 60.5 -50t81.5 -41t96.5 -28t104.5 -10q88 0 150 19.5t100.5 54.5t56 84t17.5 108q0 68 -34.5 112t-91.5 75.5t-129.5 56t-148.5 51.5t-148.5 62t-129.5 89t-91.5 130.5t-34.5 188.5q0 200 136.5 304.5t398.5 104.5q55 0 112 -4t111.5 -10.5 t104 -15.5t92.5 -18v-361h-101l-50 208q-50 36 -114.5 60t-154.5 24q-77 0 -132 -15.5t-90 -42.5t-50.5 -65.5t-15.5 -85.5q0 -61 35 -102t91.5 -70t129 -53t149 -51.5t149.5 -63t129.5 -89.5t91.5 -130.5t35 -186.5q0 -111 -32 -200t-100.5 -152t-176 -97t-260.5 -34 q-73 0 -145.5 7t-137.5 18.5t-120 26t-94 29.5v406z" />
<glyph unicode="&#x406;" horiz-adv-x="900" d="M628 113l195 -29v-84h-745v84l194 29v1289l-194 31v82h745v-82l-195 -31v-1289z" />
<glyph unicode="&#x407;" horiz-adv-x="900" d="M628 113l195 -29v-84h-745v84l194 29v1289l-194 31v82h745v-82l-195 -31v-1289zM638 1654q-28 0 -53 11.5t-43.5 30t-29 43.5t-10.5 52q0 28 10.5 52t29 42.5t43.5 29t53 10.5q29 0 53.5 -10.5t42.5 -29t28.5 -42.5t10.5 -52q0 -27 -10.5 -52t-28.5 -43.5t-42.5 -30 t-53.5 -11.5zM259 1654q-27 0 -52 11.5t-44 30t-30 43.5t-11 52q0 28 11 52t30 42.5t44 29t52 10.5q28 0 52 -10.5t42.5 -29t29 -42.5t10.5 -52q0 -27 -10 -52t-28 -43.5t-43 -30t-53 -11.5z" />
<glyph unicode="&#x408;" d="M566 1403l-194 30v82h722v-82l-172 -30v-915q0 -103 -22.5 -181t-61 -134.5t-89.5 -94t-109 -60.5t-119.5 -32t-120.5 -9q-38 0 -79.5 2.5t-81 7t-75 10.5t-61.5 14v344h100l34 -202q22 -26 61.5 -41t86.5 -15q78 0 129.5 54.5t51.5 160.5v1091z" />
<glyph unicode="&#x409;" horiz-adv-x="2321" d="M1841 435q0 76 -21 134.5t-60.5 99.5t-96 62.5t-127.5 21.5h-77v-635h77q71 0 127.5 21t96 62t60.5 99.5t21 134.5zM191 -23q-51 0 -95.5 14t-77.5 40l-12 294h80l50 -123q9 -20 24 -33t43 -13q41 0 82.5 44t79.5 150.5t71 283.5t56 443l28 324l-213 32v82h1415v-82 l-263 -31v-525h125q169 0 288 -32.5t195.5 -90.5t111.5 -139.5t35 -179.5t-35 -179t-111.5 -137.5t-195.5 -87.5t-288 -31h-675v84l194 29v1278h-445l-29 -329q-24 -286 -58 -491t-85 -337t-123.5 -194.5t-171.5 -62.5z" />
<glyph unicode="&#x40a;" horiz-adv-x="2318" d="M951 0v84l172 29v614h-533v-614l172 -29v-84h-722v84l194 29v1289l-194 31v82h722v-82l-172 -31v-551h533v551l-172 31v82h723v-82l-195 -31v-551h104q169 0 288 -30t195 -85.5t111.5 -135t35.5 -177.5q0 -99 -35.5 -177.5t-111.5 -133t-195 -83.5t-288 -29h-632z M1840 423q0 151 -81 227.5t-224 76.5h-56v-609h67q143 0 218.5 76.5t75.5 228.5z" />
<glyph unicode="&#x40b;" horiz-adv-x="1850" d="M1600 113l162 -31v-82h-668v82l150 31v493q0 71 -22 116.5t-56.5 72.5t-76 37.5t-80.5 10.5q-49 0 -93 -7.5t-79 -16.5v-706l185 -31v-82h-737v82l195 31v1283h-57q-74 0 -125.5 -2t-87.5 -5.5t-61 -7.5t-45 -8l-31 -281h-102v423h1427v-401h-104l-31 259 q-41 9 -139 14.5t-231 5.5h-56v-430q29 8 61.5 15.5t66.5 14.5t67.5 11t62.5 4q59 0 119.5 -5.5t116.5 -23t105 -50t85.5 -84t57.5 -126t21 -177.5v-429z" />
<glyph unicode="&#x40c;" horiz-adv-x="1678" d="M1626 1515v-82l-185 -30l-467 -441l565 -849l119 -31v-82h-465l-463 736l-140 -108v-515l218 -31v-82h-768v82l194 31v1290l-194 30v82h745v-82l-195 -30v-633l656 633l-139 30v82h519zM718 1640v38l187 307h322v-42l-412 -303h-97z" />
<glyph unicode="&#x40e;" horiz-adv-x="1698" d="M236 1403l-170 30v82h779v-82l-203 -30l346 -635l334 635l-185 30v82h515v-82l-160 -30l-493 -913q-67 -124 -123.5 -219.5t-115.5 -160.5t-126 -99t-154 -34q-25 0 -53 3.5t-55 10.5t-51 16t-41 19l-13 318h73l59 -133q19 -26 44.5 -40.5t57.5 -14.5q40 0 75 14t70 47 t71.5 86.5t76.5 132.5zM938 1642q-125 0 -208 27t-133.5 72t-72 104.5t-23.5 123.5h236q7 -115 61.5 -170t139.5 -55t140 55t61 170h237q-3 -64 -24.5 -123.5t-71.5 -104.5t-133 -72t-209 -27z" />
<glyph unicode="&#x40f;" horiz-adv-x="1800" d="M1761 1515v-83l-195 -30v-1289l195 -31v-82h-691l-105 -471h-130l-105 471h-692v82l196 31v1289l-196 30v83h747v-83l-194 -30v-1278h619v1278l-194 30v83h745z" />
<glyph unicode="&#x410;" horiz-adv-x="1671" d="M484 82v-82h-461v82l113 31l539 1415h327l537 -1415l115 -31v-82h-674v82l175 31l-145 392h-582l-139 -392zM724 1300l-249 -671h492z" />
<glyph unicode="&#x411;" horiz-adv-x="1530" d="M782 0h-741v82l193 30v1290l-194 31v82h1262l12 -373h-102l-62 231q-34 7 -123 15t-230 8h-207v-534h192q168 0 287.5 -30.5t195.5 -87.5t111 -137t35 -179q0 -98 -35 -177.5t-111 -135t-195.5 -85.5t-287.5 -30zM1038 428q0 152 -80.5 231t-224.5 79h-143v-620h155 q143 0 218 79.5t75 230.5z" />
<glyph unicode="&#x412;" horiz-adv-x="1543" d="M992 1141q0 65 -13 112t-42.5 78t-76 45.5t-113.5 14.5h-157v-528h166q69 0 114.5 19.5t73 55t38 87t10.5 116.5zM1106 442q0 150 -75 223.5t-246 73.5h-195v-615q54 -2 104 -3q42 -2 85 -2.5t67 -0.5q72 0 121.5 22.5t80 64t44.5 101.5t14 136zM38 0v82l196 31v1290 l-196 30v82h736q168 0 281 -23.5t181.5 -67.5t97.5 -107.5t29 -143.5q0 -76 -25.5 -137t-68.5 -106.5t-99.5 -75.5t-118.5 -44q112 -11 192.5 -41.5t133 -78t77.5 -110t25 -138.5q0 -98 -35 -180.5t-111 -142t-195.5 -93t-287.5 -33.5q-136 0 -269.5 3.5t-246.5 3.5h-296z " />
<glyph unicode="&#x413;" horiz-adv-x="1472" d="M826 0h-783v82l193 30v1290l-194 31v82h1285l20 -457h-102l-70 315q-34 7 -123 15t-230 8h-230v-1284l234 -30v-82z" />
<glyph unicode="&#x414;" horiz-adv-x="1592" d="M311 1515h1220v-82l-195 -31v-1289l226 -31l-40 -576h-141l-146 494h-890l-151 -494h-141l-39 576l226 29q61 120 112 264.5t88.5 309t58.5 345t23 371.5l-211 32v82zM980 1391h-320q-1 -185 -21 -363t-54 -340.5t-80.5 -305t-102.5 -258.5h578v1267z" />
<glyph unicode="&#x415;" horiz-adv-x="1543" d="M40 82l194 31v1290l-194 30v82h1290v-385h-103l-36 245q-36 5 -87.5 8.5t-104.5 5t-100.5 2t-73.5 0.5h-235v-556h396l36 167h100v-465h-100l-36 172h-396v-585h286q70 0 132 2t112 4t85.5 5.5t52.5 6.5l64 281h103l-22 -423h-1363v82z" />
<glyph unicode="&#x416;" horiz-adv-x="2288" d="M805 1515h679v-82l-173 -30v-630l540 630l-128 30v82h466v-82l-163 -30l-385 -449l513 -841l130 -31v-82h-452l-399 721l-122 -98v-510l179 -31v-82h-692v82l179 31v510l-123 98l-397 -721h-452v82l129 31l512 841l-384 449l-163 30v82h466v-82l-128 -30l540 -630v630 l-172 30v82z" />
<glyph unicode="&#x417;" horiz-adv-x="1221" d="M1158 412q0 -102 -42 -183t-122 -137t-195 -85.5t-261 -29.5q-115 0 -219.5 11.5t-198.5 34.5l-14 367h104l59 -243q18 -10 45 -20.5t58 -17.5t65 -12t65 -5q82 0 139 23t93.5 66t52.5 104.5t16 138.5q0 81 -22 136t-59 88t-87 48.5t-104 18.5l-135 8v137l131 9 q49 3 90.5 22t71 52.5t45 84t15.5 118.5q0 76 -17 127.5t-48 84t-74 46t-95 13.5q-30 0 -62.5 -4.5t-62.5 -12.5t-55 -18.5t-43 -23.5l-49 -219h-98v345q81 20 184.5 34t217.5 14q270 0 412.5 -92t142.5 -281q0 -71 -22 -132.5t-65 -109t-106 -79.5t-144 -45 q197 -23 295 -117.5t98 -263.5z" />
<glyph unicode="&#x418;" horiz-adv-x="1800" d="M40 0v84l194 29v1289l-194 31v82h744v-82l-194 -31v-979l619 915v64l-194 31v82h747v-82l-196 -31v-1289l196 -29v-84h-747v84l194 29v1009l-619 -915v-94l194 -29v-84h-744z" />
<glyph unicode="&#x419;" horiz-adv-x="1800" d="M40 0v84l194 29v1289l-194 31v82h744v-82l-194 -31v-979l619 915v64l-194 31v82h747v-82l-196 -31v-1289l196 -29v-84h-747v84l194 29v1009l-619 -915v-94l194 -29v-84h-744zM903 1643q-125 0 -208 27t-133.5 72t-72 104.5t-23.5 123.5h236q7 -115 61.5 -170t139.5 -55 t140 55t61 170h237q-3 -64 -24.5 -123.5t-71.5 -104.5t-133 -72t-209 -27z" />
<glyph unicode="&#x41a;" horiz-adv-x="1678" d="M1626 1515v-82l-185 -30l-467 -441l565 -849l119 -31v-82h-465l-463 736l-140 -108v-515l218 -31v-82h-768v82l194 31v1290l-194 30v82h745v-82l-195 -30v-633l656 633l-139 30v82h519z" />
<glyph unicode="&#x41b;" horiz-adv-x="1724" d="M307 1433v82h1379v-82l-196 -31v-1289l196 -29v-84h-747v84l194 29v1278h-475l-29 -329q-24 -286 -58 -491t-85 -337t-123.5 -194.5t-171.5 -62.5q-51 0 -95.5 14t-77.5 40l-12 294h80l50 -123q9 -20 24 -33t43 -13q41 0 82.5 44t79.5 150.5t71 283.5t56 443l28 324z" />
<glyph unicode="&#x41c;" horiz-adv-x="2184" d="M997 0h-62l-560 1280v-1167l204 -31v-82h-539v82l194 31v1290l-194 30v82h595l433 -996l442 996h608v-82l-195 -30v-1290l195 -31v-82h-754v82l203 31v1167z" />
<glyph unicode="&#x41d;" horiz-adv-x="1800" d="M40 0v84l194 29v1289l-194 31v82h744v-82l-194 -31v-560h619v560l-194 31v82h747v-82l-196 -31v-1289l196 -29v-84h-747v84l194 29v605h-619v-605l194 -29v-84h-744z" />
<glyph unicode="&#x41e;" horiz-adv-x="1800" d="M488 759q0 -158 19.5 -282t67 -210t127 -131.5t199.5 -45.5q119 0 198.5 45.5t127 131.5t66.5 210t19 282q0 157 -19 280.5t-66.5 207t-127 127.5t-198.5 44q-120 0 -199.5 -44t-127 -127.5t-67 -207t-19.5 -280.5zM113 759q0 201 52 347t152.5 241t247 140t336.5 45 q183 0 328.5 -45t247.5 -140t156 -241t54 -347t-54 -348.5t-156 -243.5t-247.5 -143t-328.5 -47t-329 47t-248.5 143t-156.5 243.5t-54 348.5z" />
<glyph unicode="&#x41f;" horiz-adv-x="1800" d="M45 0v84l195 29v1289l-195 31v82h1710v-82l-196 -31v-1289l196 -29v-84h-747v84l194 29v1278h-606v-1278l194 -29v-84h-745z" />
<glyph unicode="&#x420;" horiz-adv-x="1413" d="M984 1067q0 90 -15.5 152t-51.5 100t-94 55t-143 17h-89v-672h94q86 0 143 22t92 65.5t49.5 108.5t14.5 152zM591 594v-481l252 -31v-82h-789v82l180 31v1290l-194 30v82h667q190 0 314 -34.5t196.5 -95t101.5 -141.5t29 -175q0 -93 -24 -178.5t-87 -151.5t-170.5 -105.5 t-272.5 -39.5h-203z" />
<glyph unicode="&#x421;" horiz-adv-x="1671" d="M921 -23q-191 0 -340.5 52t-253.5 150.5t-159 240.5t-55 320q0 204 55 353t158 246.5t253 145t341 47.5q161 0 298.5 -23t247.5 -52l6 -364h-101l-32 219q-71 49 -160.5 75.5t-186.5 26.5q-119 0 -212.5 -34.5t-158.5 -114t-99 -207t-34 -314.5q0 -165 34 -287.5 t97.5 -202.5t155.5 -120t208 -40q128 0 223.5 34t149.5 80l36 249h103l-7 -385q-48 -19 -114.5 -36t-141.5 -30t-155 -21t-156 -8z" />
<glyph unicode="&#x422;" horiz-adv-x="1543" d="M350 0v82l241 31v1283h-58q-148 0 -235 -7t-128 -16l-31 -281h-103v423h1473v-423h-104l-31 281q-42 9 -139.5 14.5t-231.5 5.5h-55v-1280l241 -31v-82h-839z" />
<glyph unicode="&#x423;" horiz-adv-x="1698" d="M236 1403l-170 30v82h779v-82l-203 -30l346 -635l334 635l-185 30v82h515v-82l-160 -30l-493 -913q-67 -124 -123.5 -219.5t-115.5 -160.5t-126 -99t-154 -34q-25 0 -53 3.5t-55 10.5t-51 16t-41 19l-13 318h73l59 -133q19 -26 44.5 -40.5t57.5 -14.5q40 0 75 14t70 47 t71.5 86.5t76.5 132.5z" />
<glyph unicode="&#x424;" horiz-adv-x="1987" d="M838 366v802h-108q-61 0 -115.5 -23.5t-95 -72t-63.5 -121.5t-23 -171q0 -95 22 -171.5t61 -130.5t91.5 -83t112.5 -29h118zM1268 366q60 0 112.5 29t91.5 83t61 130.5t22 171.5q0 98 -23 171t-64 121.5t-95 72t-115 23.5h-109v-802h119zM644 0v84l194 29v137h-158 q-110 0 -197 22t-153 61t-111.5 90.5t-74.5 110.5t-42 122.5t-13 125.5q0 94 30.5 184.5t100.5 161t184.5 114t281.5 43.5h152v117l-194 31v82h700v-82l-195 -31v-117h153q167 0 281 -43.5t184 -114t100.5 -161t30.5 -184.5q0 -62 -13 -125.5t-41.5 -122.5t-74.5 -110.5 t-111.5 -90.5t-152.5 -61t-198 -22h-158v-137l195 -29v-84h-700z" />
<glyph unicode="&#x425;" horiz-adv-x="1671" d="M373 113l187 -31v-82h-517v82l167 31l487 619l-434 671l-170 30v82h738v-82l-193 -30l265 -409l322 409l-188 30v82h519v-82l-167 -30l-413 -523l496 -767l172 -31v-82h-738v82l192 31l-327 505z" />
<glyph unicode="&#x426;" horiz-adv-x="1800" d="M1538 113l226 -31l-40 -576h-141l-146 494h-1392v82l196 31v1289l-196 30v83h747v-83l-194 -30v-1278h584v1278l-194 30v83h744v-83l-194 -30v-1289z" />
<glyph unicode="&#x427;" horiz-adv-x="1698" d="M190 1402l-162 31v82h668v-82l-150 -31v-479q0 -69 19.5 -116.5t53 -77.5t76.5 -43.5t89 -13.5q30 0 67.5 4.5t79.5 13t86.5 21t88.5 27.5v664l-184 31v82h737v-82l-196 -31v-1289l180 -31v-82h-744v82l207 31v484q-57 -21 -115 -38t-111.5 -28t-101 -17.5t-83.5 -6.5 q-59 0 -119.5 6t-116.5 23.5t-105 49.5t-85.5 83.5t-57.5 126t-21 177.5v429z" />
<glyph unicode="&#x428;" horiz-adv-x="2541" d="M2502 1515v-83l-195 -30v-1289l195 -31v-82h-2462v82l195 31v1289l-195 30v83h724v-83l-172 -30v-1278h501v1278l-172 30v83h701v-83l-172 -30v-1278h500v1278l-171 30v83h723z" />
<glyph unicode="&#x429;" horiz-adv-x="2541" d="M2184 0h-2144v82l195 31v1289l-195 30v83h724v-83l-172 -30v-1278h489v1278l-171 30v83h700v-83l-172 -30v-1278h490v1278l-172 30v83h723v-83l-194 -30v-1289l226 -31l-40 -576h-141z" />
<glyph unicode="&#x42a;" horiz-adv-x="1770" d="M906 1402v-540h127q168 0 287.5 -30.5t195.5 -87.5t111 -137t35 -179q0 -98 -35 -177.5t-111 -135t-195.5 -85.5t-287.5 -30h-676v82l193 30v1284h-57q-44 0 -89.5 -2.5t-86 -6t-73 -7.5t-49.5 -7l-49 -231h-102v373h1124v-82zM1289 428q0 152 -80.5 231t-224.5 79h-78 v-620h90q143 0 218 79.5t75 230.5z" />
<glyph unicode="&#x42b;" horiz-adv-x="2272" d="M1027 428q0 152 -80.5 231t-224.5 79h-132v-620h143q144 0 219 79.5t75 230.5zM590 1402v-540h181q168 0 287 -30.5t195.5 -87.5t111.5 -137t35 -179q0 -98 -35 -177.5t-111.5 -135t-195.5 -85.5t-287 -30h-730v82l193 30v1290l-194 31v82h812v-82zM2039 113l194 -29v-84 h-745v84l195 29v1289l-195 31v82h745v-82l-194 -31v-1289z" />
<glyph unicode="&#x42c;" horiz-adv-x="1530" d="M1050 428q0 152 -81 231t-224 79h-155v-620h166q143 0 218.5 79.5t75.5 230.5zM590 1402v-540h203q169 0 288 -30.5t195.5 -87.5t111.5 -137t35 -179q0 -98 -35 -177.5t-111.5 -135t-195.5 -85.5t-288 -30h-752v82l193 30v1290l-194 31v82h812v-82z" />
<glyph unicode="&#x42d;" horiz-adv-x="1569" d="M523 843h563q-7 158 -37 267t-83.5 176.5t-130.5 97.5t-178 30q-89 0 -170.5 -26.5t-147.5 -75.5l-32 -219h-101l6 364q109 29 240 52t282 23q360 0 544.5 -192.5t184.5 -599.5q0 -178 -50 -320t-146 -240.5t-236.5 -150.5t-319.5 -52q-73 0 -148.5 8t-147 21t-135.5 30 t-113 36l-7 385h103l36 -249q50 -46 138 -80t206 -34q210 0 324 153.5t120 468.5h-564v127z" />
<glyph unicode="&#x42e;" horiz-adv-x="2605" d="M590 113l194 -29v-84h-744v84l194 29v1289l-194 31v82h744v-82l-194 -31v-559h421q11 180 63.5 310t146 214t227 124.5t304.5 40.5q174 0 311 -45t232.5 -140t146.5 -241t51 -347t-51 -348.5t-146.5 -243.5t-232.5 -143t-311 -47q-170 0 -305 44.5t-230.5 135 t-148.5 230.5t-59 329h-419v-603zM1384 759q0 -158 17 -282t58.5 -210t112.5 -131.5t180 -45.5q108 0 178.5 45.5t112 131.5t58.5 210t17 282q0 157 -17 280.5t-58.5 207t-112 127.5t-178.5 44q-109 0 -180 -44t-112.5 -127.5t-58.5 -207t-17 -280.5z" />
<glyph unicode="&#x42f;" horiz-adv-x="1671" d="M210 1092q0 93 33 171t109.5 134t204.5 87t318 31h758v-82l-195 -30v-1290l180 -31v-82h-731v82l194 31v529h-244l-343 -642h-491v82l164 31l322 568q-71 24 -123.5 65.5t-87 95.5t-51.5 118t-17 132zM563 1089q0 -87 21.5 -148t65.5 -100t110.5 -57t157.5 -18h163v625 h-158q-87 0 -154 -13.5t-113 -47.5t-69.5 -92t-23.5 -149z" />
<glyph unicode="&#x430;" d="M617 1086q87 0 160.5 -14.5t126.5 -49t82.5 -91t29.5 -139.5v-690l106 -27v-75h-391l-25 81q-21 -14 -50 -32t-66 -34t-83.5 -27t-103.5 -11q-92 0 -155 24t-101.5 66.5t-55 100.5t-16.5 126q0 109 38 174.5t103 101.5t151.5 47t183.5 14l138 3v155q0 94 -38.5 143 t-118.5 49q-62 0 -113.5 -17.5t-98.5 -41.5l-43 -132h-75v256q52 8 99 15t95.5 12.5t102.5 9t118 3.5zM689 533l-95 -3q-49 -2 -85.5 -13.5t-60.5 -38t-36 -69.5t-12 -108q0 -96 34 -141.5t88 -45.5t92.5 12t74.5 28v379z" />
<glyph unicode="&#x431;" d="M90 653q0 199 23.5 356t81.5 269.5t156 180t247 85.5q68 7 130.5 15t112 20t83 30t42.5 48h79q-3 -118 -32.5 -187.5t-86 -109t-140 -58t-195.5 -33.5q-106 -15 -170 -37t-99.5 -62t-49.5 -104t-21 -162h8q42 85 124.5 135.5t214.5 50.5q243 0 358 -140.5t115 -412.5 q0 -270 -121 -415t-376 -145q-240 0 -362 165.5t-122 510.5zM741 537q0 109 -6.5 191.5t-24.5 138t-50 82.5t-83 27q-49 0 -79.5 -27t-47 -82.5t-22 -138t-5.5 -191.5q0 -111 5.5 -194t22 -139.5t47 -85t79.5 -28.5q51 0 83 28.5t50 85t24.5 139.5t6.5 194z" />
<glyph unicode="&#x432;" horiz-adv-x="1249" d="M60 0v75l107 27v858l-107 28v74h543q113 0 207 -12t160 -41.5t103 -80t37 -128.5q0 -54 -18 -94t-51.5 -69t-81 -48t-105.5 -30v-9q158 -12 240.5 -73.5t82.5 -178.5q0 -77 -27.5 -132.5t-91.5 -92.5t-169 -55t-260 -18h-569zM849 310q0 55 -18.5 91t-49 57.5t-72 29.5 t-89.5 8h-126v-394h125q111 0 170.5 48.5t59.5 159.5zM494 598h105q98 0 140 50.5t42 137.5q0 82 -46.5 128t-146.5 46h-94v-362z" />
<glyph unicode="&#x433;" horiz-adv-x="1050" d="M991 714h-85l-48 210q-40 7 -100.5 14.5t-124.5 7.5h-138v-844l173 -27v-75h-607v75l107 27v858l-107 28v74h930v-348z" />
<glyph unicode="&#x434;" horiz-adv-x="1170" d="M234 989v73h877v-74l-108 -28v-858l142 -27l-18 -477h-119l-155 402h-532l-155 -402h-119l-19 486l128 21q42 79 74.5 175.5t57.5 206t41 229t25 244.5zM297 116h380v844h-204q-7 -125 -21.5 -244.5t-36.5 -227.5t-51.5 -202t-66.5 -170z" />
<glyph unicode="&#x435;" horiz-adv-x="1027" d="M558 1088q94 0 169.5 -22.5t129 -77.5t82 -146t28.5 -227v-93h-557v-18q0 -76 6.5 -145.5t34 -123t84.5 -85t158 -31.5q66 0 129.5 10t121.5 22v-87q-26 -15 -66 -31t-86.5 -28t-98.5 -19t-103 -7q-137 0 -234 36t-158.5 107t-90 175t-28.5 240q0 278 119.5 414.5 t359.5 136.5zM546 974q-41 0 -67 -23.5t-41 -66.5t-21 -105.5t-6 -137.5h247q0 75 -3 137.5t-13.5 105.5t-33.5 66.5t-62 23.5z" />
<glyph unicode="&#x436;" horiz-adv-x="1678" d="M1083 502l-104 -62v-338l84 -27v-75h-449v75l84 27v338l-106 64l-245 -504h-342v72l92 23l313 597l-246 270l-108 26v74h344v-74l-73 -26l371 -429v427l-84 28v74h449v-74l-84 -28v-427l371 429l-73 26v74h343v-74l-107 -26l-247 -270l314 -597l92 -23v-72h-342z" />
<glyph unicode="&#x437;" horiz-adv-x="929" d="M632 556q46 -7 89.5 -26t77.5 -50t54 -73.5t20 -96.5q0 -166 -126.5 -249.5t-388.5 -83.5q-47 0 -98 7.5t-96 20.5t-81.5 29t-54.5 33v90q51 -16 124 -27.5t149 -11.5q72 0 119.5 14.5t75 40.5t39 61t11.5 76q0 40 -11 74t-34.5 58t-62.5 37t-97 13h-83v114h98 q53 0 86.5 16t52.5 44t26.5 64t7.5 76q0 84 -44 127.5t-132 43.5q-40 0 -83.5 -14.5t-71.5 -39.5l-39 -141h-81v273q68 14 145.5 24.5t168.5 10.5q232 0 344.5 -65t112.5 -205q0 -46 -16.5 -86t-45.5 -72.5t-69 -57t-86 -41.5v-7z" />
<glyph unicode="&#x438;" horiz-adv-x="1333" d="M742 0v75l96 27v564l-343 -448v-116l96 -27v-75h-530v75l107 27v858l-107 28v74h530v-74l-96 -28v-569l343 447v122l-96 28v74h530v-74l-107 -28v-858l107 -27v-75h-530z" />
<glyph unicode="&#x439;" horiz-adv-x="1333" d="M742 0v75l96 27v564l-343 -448v-116l96 -27v-75h-530v75l107 27v858l-107 28v74h530v-74l-96 -28v-569l343 447v122l-96 28v74h530v-74l-107 -28v-858l107 -27v-75h-530zM670 1266q-125 0 -208 27t-133.5 72t-72 104.5t-23.5 123.5h236q7 -115 61.5 -170t139.5 -55 t140 55t61 170h237q-3 -64 -24.5 -123.5t-71.5 -104.5t-133 -72t-209 -27z" />
<glyph unicode="&#x43a;" horiz-adv-x="1333" d="M484 524l463 433l-109 33v71h407v-71l-113 -28l-308 -278l402 -585l104 -28v-71h-562v71l98 31l-261 391l-121 -82v-309l96 -27v-75h-530v75l107 27v858l-107 28v74h530v-74l-96 -28v-436z" />
<glyph unicode="&#x43b;" horiz-adv-x="1298" d="M183 120q20 0 45 23t51 84t53 167.5t53 271.5l47 293l-133 29v74h938v-74l-107 -28v-858l107 -27v-75h-541v75l107 27v844h-243l-45 -293q-25 -161 -52 -286.5t-66 -212t-95 -132t-138 -45.5q-37 0 -72.5 9t-54.5 22l-9 247h73l37 -99q6 -12 16.5 -24t28.5 -12z" />
<glyph unicode="&#x43c;" horiz-adv-x="1576" d="M718 0h-55l-364 850v-748l104 -27v-75h-342v75l107 27v860l-107 26v74h420l282 -657l294 657h447v-74l-96 -28v-858l96 -27v-75h-516v75l104 27v757z" />
<glyph unicode="&#x43d;" horiz-adv-x="1333" d="M838 485h-343v-383l107 -27v-75h-541v75l107 27v858l-107 28v74h541v-74l-107 -28v-359h343v359l-107 28v74h541v-74l-107 -28v-858l107 -27v-75h-541v75l107 27v383z" />
<glyph unicode="&#x43e;" d="M1069 537q0 -136 -27.5 -240t-87.5 -175t-154.5 -108t-227.5 -37q-126 0 -217.5 36.5t-150.5 107.5t-87.5 175.5t-28.5 240.5q0 134 28.5 237.5t88 173.5t153 106t223.5 36q252 0 370 -140.5t118 -412.5zM738 537q0 109 -7 191.5t-25 138t-49.5 82.5t-82.5 27 q-50 0 -80.5 -27t-46.5 -82.5t-22 -138t-6 -191.5q0 -111 6 -194t22 -139.5t46.5 -85t80.5 -28.5q51 0 82.5 28.5t49.5 85t25 139.5t7 194z" />
<glyph unicode="&#x43f;" horiz-adv-x="1333" d="M838 946h-343v-844l107 -27v-75h-541v75l107 27v858l-107 28v74h1211v-74l-107 -28v-858l107 -27v-75h-541v75l107 27v844z" />
<glyph unicode="&#x440;" horiz-adv-x="1287" d="M462 1008q25 17 55 32t65.5 26t78.5 17.5t95 6.5q221 0 329 -129.5t108 -410.5q0 -129 -28.5 -234.5t-88.5 -180.5t-151.5 -116.5t-217.5 -41.5q-61 0 -119.5 7.5t-121.5 23.5q1 -13 2.5 -34t2 -45.5t1 -47.5t0.5 -40v-232l156 -27v-75h-597v75l115 27v1351l-117 28v74 h431zM862 542q0 124 -15.5 205.5t-43 129.5t-63 68t-74.5 20q-58 0 -107 -12.5t-87 -30.5v-801q92 -24 191 -24q102 0 150.5 112t48.5 333z" />
<glyph unicode="&#x441;" horiz-adv-x="1027" d="M970 64q-28 -21 -64.5 -37t-80 -26.5t-90 -16t-91.5 -5.5q-151 0 -258.5 37.5t-175.5 109t-99.5 174t-31.5 233.5q0 146 42 251.5t113.5 173.5t166.5 100t200 32q97 0 183.5 -11.5t161.5 -27.5v-314h-82l-47 186q-18 14 -35.5 23.5t-38 15.5t-44.5 9t-56 3 q-44 0 -86 -25.5t-75 -78t-53.5 -135t-20.5 -195.5q0 -95 13 -173t45.5 -133t90.5 -85t146 -30q73 0 145 9t122 23v-87z" />
<glyph unicode="&#x442;" horiz-adv-x="1136" d="M1109 1062v-325h-85l-49 187q-39 7 -94 14.5t-119 7.5h-31v-844l173 -29v-73h-685v73l186 29v844h-30q-64 0 -119 -7.5t-94 -14.5l-49 -187h-85v325h1081z" />
<glyph unicode="&#x443;" d="M522 -33l-425 993l-74 28v74h543v-74l-126 -30l249 -587l223 589l-124 28v74h347v-74l-77 -23l-420 -1032q-36 -92 -73 -171.5t-83 -137.5t-104.5 -90.5t-136.5 -32.5q-32 0 -55 1t-44 3.5t-42 6.5t-46 10v273h68l49 -142q15 -12 35 -19t48 -7q47 0 81.5 24t62.5 64 t52.5 93.5t51.5 113.5z" />
<glyph unicode="&#x444;" horiz-adv-x="1601" d="M651 55q-17 -12 -39 -25.5t-50.5 -25t-61 -19.5t-71.5 -8q-179 0 -264 134.5t-85 409.5q0 132 23.5 237.5t71.5 179.5t120.5 113t172.5 39q46 0 96.5 -13.5t92.5 -28.5q0 14 -1.5 42t-2.5 57.5t-1.5 58.5t-0.5 46v252l-110 28v74h414v-388q0 -13 -0.5 -46.5t-1.5 -67.5 q-2 -40 -2 -86q40 28 101.5 50t132.5 22q164 0 250 -139t86 -407q0 -130 -23.5 -234.5t-72.5 -179t-121 -114t-169 -39.5q-23 0 -49 4t-51 10.5t-47.5 14.5t-39.5 15q1 -13 3 -35t2.5 -46t1 -44t0.5 -30v-257l115 -27v-75h-538v75l119 27v446zM383 521q0 -119 11 -198 t30.5 -126.5t48 -68t63.5 -20.5q26 0 56 12t59 30v796q-31 11 -61 16.5t-48 5.5q-35 0 -64 -26t-50 -80.5t-33 -139.5t-12 -201zM1218 544q0 115 -11 194.5t-31 128t-47 70t-60 21.5q-20 0 -51.5 -8.5t-62.5 -26.5v-795q25 -14 56.5 -23t57.5 -9q80 0 114.5 109t34.5 339z " />
<glyph unicode="&#x445;" d="M35 989v73h567v-73l-118 -31l154 -238l205 240l-106 29v73h361v-73l-93 -24l-299 -350l337 -518l102 -24v-73h-568v73l119 26l-185 286l-247 -288l107 -24v-73h-362v73l95 19l339 397l-305 471z" />
<glyph unicode="&#x446;" horiz-adv-x="1333" d="M1003 0h-942v75l107 27v858l-107 28v74h541v-74l-107 -28v-844h343v844l-107 28v74h541v-74l-107 -28v-858l130 -27l-18 -477h-130z" />
<glyph unicode="&#x447;" horiz-adv-x="1305" d="M468 642q0 -33 4.5 -63t18 -52t38 -35t63.5 -13q62 0 112.5 13t105.5 31v437l-107 28v74h541v-74l-107 -28v-858l107 -27v-75h-541v75l107 27v326q-85 -43 -178 -72t-183 -29q-89 0 -148 24t-94.5 65.5t-50.5 96t-15 114.5v333l-107 28v74h541v-74l-107 -28v-318z" />
<glyph unicode="&#x448;" horiz-adv-x="1953" d="M495 116h319v844l-108 28v74h542v-74l-108 -28v-844h319v844l-108 28v74h542v-74l-108 -28v-858l108 -27v-75h-1832v75l107 27v858l-107 28v74h541v-74l-107 -28v-844z" />
<glyph unicode="&#x449;" horiz-adv-x="1953" d="M1939 75l-18 -477h-130l-143 402h-1587v75l107 27v858l-107 28v74h541v-74l-107 -28v-844h319v844l-108 28v74h542v-74l-108 -28v-844h319v844l-108 28v74h542v-74l-108 -28v-858z" />
<glyph unicode="&#x44a;" horiz-adv-x="1349" d="M711 960v-345h63q155 0 255.5 -19.5t158.5 -58.5t81.5 -96.5t23.5 -133.5t-24.5 -133.5t-84.5 -96.5t-161 -58t-256 -19h-490v75l107 27v844h-20q-65 0 -119.5 -7.5t-94.5 -14.5l-48 -187h-85v325h824v-74zM757 102q104 0 155.5 47.5t51.5 158.5q0 112 -55.5 158.5 t-150.5 46.5h-47v-411h46z" />
<glyph unicode="&#x44b;" horiz-adv-x="1806" d="M818 308q0 56 -15 95t-43 64t-67 35.5t-86 10.5h-112v-411h103q112 0 166 47.5t54 158.5zM495 960v-345h131q155 0 255.5 -19.5t160 -58.5t82.5 -96.5t23 -133.5t-25 -133.5t-85.5 -96.5t-162 -58t-256.5 -19h-557v75l107 27v858l-107 28v74h564v-74zM1312 960l-107 28 v74h541v-74l-108 -28v-858l108 -27v-75h-541v75l107 27v858z" />
<glyph unicode="&#x44c;" horiz-adv-x="1223" d="M838 308q0 56 -15 95t-42.5 64t-66.5 35.5t-87 10.5h-132v-411h123q112 0 166 47.5t54 158.5zM495 960v-345h151q155 0 255.5 -19.5t160 -58.5t82.5 -96.5t23 -133.5t-24.5 -133.5t-85 -96.5t-162.5 -58t-257 -19h-577v75l107 27v858l-107 28v74h564v-74z" />
<glyph unicode="&#x44d;" horiz-adv-x="1000" d="M249 606h341q-2 97 -19 166.5t-45 114.5t-64 66t-77 21q-54 0 -93.5 -12.5t-75.5 -38.5l-48 -186h-81v314q75 16 165 27.5t175 11.5q105 0 195.5 -30.5t156.5 -96.5t104 -170t38 -249q0 -132 -33 -236.5t-100.5 -177t-172 -112t-248.5 -39.5q-43 0 -87 5.5t-84.5 16 t-75.5 26.5t-62 37v87q24 -6 55 -12.5t64 -11t67 -6.5t64 -2q143 0 210 93t73 277h-342v117z" />
<glyph unicode="&#x44e;" horiz-adv-x="1768" d="M701 601q6 119 38 210.5t91.5 153.5t149.5 93.5t212 31.5q252 0 370 -140.5t118 -412.5q0 -136 -27.5 -240t-87.5 -175t-154.5 -108t-227.5 -37q-239 0 -355.5 130t-126.5 378h-206v-383l107 -27v-75h-541v75l107 27v858l-107 28v74h541v-74l-107 -28v-359h206zM1349 537 q0 109 -6.5 191.5t-24.5 138t-50 82.5t-83 27q-49 0 -79.5 -27t-47 -82.5t-22 -138t-5.5 -191.5q0 -111 5.5 -194t22 -139.5t47 -85t79.5 -28.5q51 0 83 28.5t50 85t24.5 139.5t6.5 194z" />
<glyph unicode="&#x44f;" horiz-adv-x="1252" d="M757 102v343h-157l-186 -445h-390v72l92 23l204 412q-99 33 -150 103t-51 158q0 155 112.5 224.5t344.5 69.5h615v-74l-107 -28v-858l107 -27v-75h-541v75zM757 960h-116q-40 0 -75.5 -10.5t-61.5 -35t-41.5 -62.5t-15.5 -94q0 -46 10.5 -84.5t33 -66.5t58 -44t85.5 -16 h123v413z" />
<glyph unicode="&#x451;" horiz-adv-x="1027" d="M558 1088q94 0 169.5 -22.5t129 -77.5t82 -146t28.5 -227v-93h-557v-18q0 -76 6.5 -145.5t34 -123t84.5 -85t158 -31.5q66 0 129.5 10t121.5 22v-87q-26 -15 -66 -31t-86.5 -28t-98.5 -19t-103 -7q-137 0 -234 36t-158.5 107t-90 175t-28.5 240q0 278 119.5 414.5 t359.5 136.5zM546 974q-41 0 -67 -23.5t-41 -66.5t-21 -105.5t-6 -137.5h247q0 75 -3 137.5t-13.5 105.5t-33.5 66.5t-62 23.5zM725 1277q-28 0 -53 11.5t-43.5 30t-29 43.5t-10.5 52q0 28 10.5 52t29 42.5t43.5 29t53 10.5q29 0 53.5 -10.5t42.5 -29t28.5 -42.5t10.5 -52 q0 -27 -10.5 -52t-28.5 -43.5t-42.5 -30t-53.5 -11.5zM346 1277q-27 0 -52 11.5t-44 30t-30 43.5t-11 52q0 28 11 52t30 42.5t44 29t52 10.5q28 0 52 -10.5t42.5 -29t29 -42.5t10.5 -52q0 -27 -10 -52t-28 -43.5t-43 -30t-53 -11.5z" />
<glyph unicode="&#x452;" horiz-adv-x="1242" d="M2 1358h164v146l-108 27v75h435v-248h283v-116h-283v-119q0 -17 -0.5 -39.5t-2 -45.5t-2.5 -45.5t-2 -39.5q36 21 79 41.5t87.5 37t90.5 26.5t88 10q57 0 105.5 -17t84.5 -54.5t56 -97t20 -144.5v-804q0 -119 -35 -204.5t-95 -139.5t-140 -79t-170 -25q-51 0 -102 5.5 t-93 14.5v254h72l49 -128q11 -9 22.5 -15.5t32.5 -6.5q25 0 49 15.5t42.5 49t30 88.5t11.5 135v796q0 47 -6.5 84.5t-21 63.5t-39.5 39.5t-62 13.5q-40 0 -76.5 -11t-72.5 -28v-771l97 -27v-75h-528v75l104 27v1140h-164v116z" />
<glyph unicode="&#x453;" horiz-adv-x="1050" d="M991 714h-85l-48 210q-40 7 -100.5 14.5t-124.5 7.5h-138v-844l173 -27v-75h-607v75l107 27v858l-107 28v74h930v-348zM361 1263v38l187 307h322v-42l-412 -303h-97z" />
<glyph unicode="&#x454;" horiz-adv-x="1000" d="M970 64q-28 -21 -64.5 -37t-80 -26.5t-90 -16t-91.5 -5.5q-151 0 -258.5 37.5t-175.5 109t-99.5 174t-31.5 233.5q0 146 42 251.5t113.5 173.5t166.5 100t200 32q97 0 183.5 -11.5t161.5 -27.5v-314h-82l-47 186q-18 14 -35.5 23.5t-38 15.5t-44.5 9t-56 3 q-41 0 -80 -21.5t-70.5 -65.5t-53.5 -112.5t-29 -162.5h354v-113h-356q2 -87 17.5 -157t48.5 -119.5t89 -76.5t140 -27q73 0 145 9t122 23v-87z" />
<glyph unicode="&#x455;" horiz-adv-x="900" d="M844 337q0 -84 -25.5 -150.5t-78 -113t-132.5 -71.5t-190 -25q-54 0 -109.5 7t-103 16.5t-83 19t-50.5 15.5v289h75l43 -149q17 -17 42 -33.5t55.5 -30t65.5 -21.5t72 -8q98 0 146 42.5t48 108.5q0 36 -14 62t-44.5 46.5t-77.5 38.5t-112 38q-55 17 -109 42.5t-96.5 66 t-69 100.5t-26.5 147q0 77 30 135.5t82 99t122 61t150 20.5q79 0 159 -10t154 -22v-273h-74l-36 125q-15 14 -37.5 27.5t-50.5 24t-58.5 16.5t-58.5 6q-81 0 -120 -33t-39 -91q0 -37 16 -63t48.5 -46.5t78 -37.5t105.5 -35q62 -19 117.5 -45.5t97 -67t65 -95.5t23.5 -133z " />
<glyph unicode="&#x456;" horiz-adv-x="642" d="M493 102l116 -27v-75h-558v75l115 27v858l-108 28v74h435v-960zM155 1433q0 36 13.5 67.5t37 55t55.5 37t68 13.5t67.5 -13.5t55 -37t37 -55t13.5 -67.5t-13.5 -68t-37 -55.5t-55 -37t-67.5 -13.5t-68 13.5t-55.5 37t-37 55.5t-13.5 68z" />
<glyph unicode="&#x457;" horiz-adv-x="642" d="M493 102l116 -27v-75h-558v75l115 27v858l-108 28v74h435v-960zM520 1277q-28 0 -53 11.5t-43.5 30t-29 43.5t-10.5 52q0 28 10.5 52t29 42.5t43.5 29t53 10.5q29 0 53.5 -10.5t42.5 -29t28.5 -42.5t10.5 -52q0 -27 -10.5 -52t-28.5 -43.5t-42.5 -30t-53.5 -11.5z M141 1277q-27 0 -52 11.5t-44 30t-30 43.5t-11 52q0 28 11 52t30 42.5t44 29t52 10.5q28 0 52 -10.5t42.5 -29t29 -42.5t10.5 -52q0 -27 -10 -52t-28 -43.5t-43 -30t-53 -11.5z" />
<glyph unicode="&#x458;" horiz-adv-x="770" d="M625 1433q0 -36 -13.5 -68t-37.5 -55.5t-55.5 -37t-66.5 -13.5q-36 0 -67.5 13.5t-55.5 37t-37.5 55.5t-13.5 68q0 35 13.5 66.5t37.5 55.5t55.5 37.5t67.5 13.5q35 0 66.5 -13.5t55.5 -37.5t37.5 -55.5t13.5 -66.5zM616 -44q0 -120 -35 -205t-95 -139.5t-140 -79.5 t-171 -25q-51 0 -101.5 6t-92.5 15v254h72l49 -129q11 -9 22.5 -15t32.5 -6q25 0 48.5 15t42.5 49t30 89t11 135v1029l-187 39v74h514v-1106z" />
<glyph unicode="&#x459;" horiz-adv-x="1804" d="M642 0v75l107 27v844h-189l-45 -293q-25 -161 -52 -286.5t-66 -212t-95 -132t-138 -45.5q-37 0 -72.5 9t-54.5 22l-9 247h73l37 -99q6 -12 16.5 -24t28.5 -12q20 0 45 23t51 84t53 167.5t53 271.5l47 293l-133 29v74h907v-74l-130 -28v-345h151q155 0 255.5 -19.5 t160 -58.5t82.5 -96.5t23 -133.5t-25 -133.5t-85.5 -96.5t-162 -58t-256.5 -19h-577zM1199 102q112 0 166 47.5t54 158.5q0 56 -15 95t-43 64t-67 35.5t-86 10.5h-132v-411h123z" />
<glyph unicode="&#x45a;" horiz-adv-x="1844" d="M714 75l108 27v400h-327v-400l107 -27v-75h-541v75l107 27v858l-107 28v74h541v-74l-107 -28v-345h327v345l-108 28v74h564v-74l-130 -28v-345h129q155 0 255.5 -19.5t160 -58.5t82.5 -96.5t23 -133.5t-25 -133.5t-85.5 -96.5t-162 -58t-256.5 -19h-555v75zM1249 102 q112 0 166 47.5t54 158.5q0 56 -15.5 95t-43 64t-66.5 35.5t-86 10.5h-110v-411h101z" />
<glyph unicode="&#x45b;" horiz-adv-x="1287" d="M776 1242h-283v-119q0 -17 -0.5 -40t-2 -48t-2.5 -48t-2 -40q35 18 77.5 39.5t90 39.5t97.5 30t101 12q64 0 118.5 -17t93.5 -54.5t60.5 -97t21.5 -144.5v-653l106 -27v-75h-528v75l95 27v609q0 95 -40 148t-115 53q-85 0 -171 -39v-771l97 -27v-75h-528v75l104 27v1140 h-164v116h164v146l-108 27v75h435v-248h283v-116z" />
<glyph unicode="&#x45c;" horiz-adv-x="1333" d="M484 524l463 433l-109 33v71h407v-71l-113 -28l-308 -278l402 -585l104 -28v-71h-562v71l98 31l-261 391l-121 -82v-309l96 -27v-75h-530v75l107 27v858l-107 28v74h530v-74l-96 -28v-436zM529 1263v38l187 307h322v-42l-412 -303h-97z" />
<glyph unicode="&#x45e;" d="M522 -33l-425 993l-74 28v74h543v-74l-126 -30l249 -587l223 589l-124 28v74h347v-74l-77 -23l-420 -1032q-36 -92 -73 -171.5t-83 -137.5t-104.5 -90.5t-136.5 -32.5q-32 0 -55 1t-44 3.5t-42 6.5t-46 10v273h68l49 -142q15 -12 35 -19t48 -7q47 0 81.5 24t62.5 64 t52.5 93.5t51.5 113.5zM581 1266q-125 0 -208 27t-133.5 72t-72 104.5t-23.5 123.5h236q7 -115 61.5 -170t139.5 -55t140 55t61 170h237q-3 -64 -24.5 -123.5t-71.5 -104.5t-133 -72t-209 -27z" />
<glyph unicode="&#x45f;" horiz-adv-x="1333" d="M495 116h343v844l-107 28v74h541v-74l-107 -28v-858l107 -27v-75h-462l-79 -410h-130l-79 410h-461v75l107 27v858l-107 28v74h541v-74l-107 -28v-844z" />
<glyph unicode="&#x490;" horiz-adv-x="1203" d="M1150 1396h-558v-1284l234 -30v-82h-783v82l193 30v1290l-194 31v82h817l143 380h130z" />
<glyph unicode="&#x491;" horiz-adv-x="900" d="M495 102l162 -27v-75h-607v75l118 27v858l-118 28v74h570l72 329h141l22 -445h-360v-844z" />
<glyph unicode="&#x2000;" horiz-adv-x="992" />
<glyph unicode="&#x2001;" horiz-adv-x="1985" />
<glyph unicode="&#x2002;" horiz-adv-x="992" />
<glyph unicode="&#x2003;" horiz-adv-x="1985" />
<glyph unicode="&#x2004;" horiz-adv-x="661" />
<glyph unicode="&#x2005;" horiz-adv-x="496" />
<glyph unicode="&#x2006;" horiz-adv-x="330" />
<glyph unicode="&#x2007;" horiz-adv-x="330" />
<glyph unicode="&#x2008;" horiz-adv-x="248" />
<glyph unicode="&#x2009;" horiz-adv-x="397" />
<glyph unicode="&#x200a;" horiz-adv-x="110" />
<glyph unicode="&#x2010;" horiz-adv-x="770" d="M85 446v197h601v-197h-601z" />
<glyph unicode="&#x2011;" horiz-adv-x="770" d="M85 446v197h601v-197h-601z" />
<glyph unicode="&#x2012;" horiz-adv-x="770" d="M85 446v197h601v-197h-601z" />
<glyph unicode="&#x2013;" d="M1173 620v-161h-1189v161h1189z" />
<glyph unicode="&#x2014;" horiz-adv-x="2314" d="M2330 620v-161h-2346v161h2346z" />
<glyph unicode="&#x2018;" horiz-adv-x="770" d="M182 1058q0 80 26 153t81.5 135t143 111t210.5 82v-104q-64 -19 -108.5 -46.5t-71 -58t-38 -60t-11.5 -51.5q0 -23 13 -38t32 -27t41.5 -23.5t42 -29t32.5 -43.5t13 -67q0 -36 -14.5 -64.5t-38.5 -47.5t-58 -29t-72 -10q-42 0 -82.5 14t-71.5 41.5t-50 68.5t-19 94z" />
<glyph unicode="&#x2019;" horiz-adv-x="770" d="M605 1319q0 -81 -25.5 -153t-81 -133.5t-143 -111t-211.5 -81.5v105q64 19 108 46.5t70.5 57.5t38.5 59.5t12 50.5q0 24 -13 38.5t-31.5 27t-41.5 24t-41.5 29.5t-31.5 44t-13 67q0 36 13.5 64t38 47.5t57 29t72.5 9.5q42 0 82 -14t71.5 -42.5t50.5 -69t19 -94.5z" />
<glyph unicode="&#x201a;" horiz-adv-x="770" d="M592 120q0 -80 -25.5 -152.5t-80 -134t-142 -110t-212.5 -81.5v104q65 19 108.5 46.5t70 57.5t38 59.5t11.5 50.5q0 23 -12 38.5t-31.5 27t-41.5 23.5t-41 30t-31.5 44t-12.5 67q0 36 13.5 64t38 47.5t57 29t72.5 9.5q41 0 81.5 -14t71.5 -42.5t49.5 -69t18.5 -94.5z" />
<glyph unicode="&#x201c;" d="M112 1058q0 80 26 153t81.5 135t143 111t210.5 82v-104q-65 -19 -109 -46.5t-70.5 -58t-38 -60t-11.5 -51.5q0 -23 13 -38t32 -27t41.5 -23.5t42 -29t32.5 -43.5t13 -67q0 -36 -14.5 -64.5t-38.5 -47.5t-58 -29t-73 -10q-41 0 -81.5 14t-71.5 41.5t-50 68.5t-19 94z M620 1058q0 80 26 153t81.5 135t143 111t210.5 82v-104q-64 -19 -108 -46.5t-70.5 -58t-38.5 -60t-12 -51.5q0 -23 13 -38t32 -27t42 -23.5t42 -29t32 -43.5t13 -67q0 -36 -14 -64.5t-38.5 -47.5t-58.5 -29t-72 -10q-42 0 -82 14t-71 41.5t-50.5 68.5t-19.5 94z" />
<glyph unicode="&#x201d;" d="M1053 1319q0 -81 -25.5 -153t-80 -133.5t-141.5 -111t-210 -81.5v105q64 19 107.5 46.5t70 57.5t38.5 59.5t12 50.5q0 24 -13 38.5t-32.5 27t-41.5 24t-41 29.5t-32 44t-13 67q0 36 13.5 64t38.5 47.5t58 29t73 9.5q42 0 81.5 -14t70 -42.5t49 -69t18.5 -94.5zM547 1319 q0 -81 -26 -153t-81.5 -133.5t-142.5 -111t-210 -81.5v105q64 19 107.5 46.5t70.5 57.5t38.5 59.5t11.5 50.5q0 24 -13 38.5t-32 27t-41 24t-41.5 29.5t-32.5 44t-13 67q0 36 14 64t38.5 47.5t58 29t72.5 9.5q42 0 81.5 -14t70.5 -42.5t50.5 -69t19.5 -94.5z" />
<glyph unicode="&#x201e;" d="M1035 120q0 -80 -25.5 -152.5t-80 -134t-142.5 -110t-212 -81.5v104q65 19 108.5 46.5t70 57.5t38 59.5t11.5 50.5q0 23 -12 38.5t-31.5 27t-41.5 23.5t-41 30t-31.5 44t-12.5 67q0 73 50.5 111.5t130.5 38.5q41 0 81.5 -14t71.5 -42.5t49.5 -69t18.5 -94.5zM527 120 q0 -80 -25.5 -152.5t-81 -134t-143 -110t-210.5 -81.5v104q64 19 107.5 46.5t70 57.5t38.5 59.5t12 50.5q0 23 -12.5 38.5t-31.5 27t-41 23.5t-41.5 30t-32 44t-12.5 67q0 73 51 111.5t130 38.5q42 0 82 -14t71 -42.5t50 -69t19 -94.5z" />
<glyph unicode="&#x2022;" horiz-adv-x="810" d="M405 453q-66 0 -123 25t-99.5 67.5t-66.5 99.5t-24 121q0 65 24 122t66.5 99t99.5 67t123 25q65 0 122 -25t99.5 -67t67 -99t24.5 -122q0 -64 -24.5 -121t-67 -99.5t-99.5 -67.5t-122 -25z" />
<glyph unicode="&#x2026;" horiz-adv-x="2314" d="M380 -33q-40 0 -74 15t-59.5 40t-40 59t-14.5 74q0 38 14.5 72.5t40 60t59.5 40t74 14.5q38 0 72.5 -14.5t60 -40t40 -60t14.5 -72.5q0 -40 -14.5 -74t-40 -59t-60 -40t-72.5 -15zM1159 -33q-39 0 -73 15t-59.5 40t-40 59t-14.5 74q0 38 14.5 72.5t40 60t59.5 40t73 14.5 t73.5 -14.5t60 -40t40 -60t14.5 -72.5q0 -40 -14.5 -74t-40 -59t-60 -40t-73.5 -15zM1939 -33q-39 0 -73 15t-59.5 40t-40 59t-14.5 74q0 38 14.5 72.5t40 60t59.5 40t73 14.5t73 -14.5t59.5 -40t40.5 -60t15 -72.5q0 -40 -15 -74t-40.5 -59t-59.5 -40t-73 -15z" />
<glyph unicode="&#x202f;" horiz-adv-x="397" />
<glyph unicode="&#x2039;" horiz-adv-x="770" d="M142 559l373 403h113l-205 -440l205 -438h-113l-373 401v74z" />
<glyph unicode="&#x203a;" horiz-adv-x="770" d="M628 486l-373 -402h-113l206 439l-206 440h113l373 -403v-74z" />
<glyph unicode="&#x205f;" horiz-adv-x="496" />
<glyph unicode="&#x20ac;" d="M29 671h125q-1 16 -2 37.5t-1 38.5v42.5t3 44.5h-125v114h134q35 300 180.5 442t394.5 142q59 0 107 -2t91 -7t84 -12t86 -16l5 -322h-101l-31 169q-46 35 -99.5 54.5t-113.5 19.5q-56 0 -103 -25t-83 -81t-60.5 -144.5t-33.5 -217.5h321v-114h-324q-4 -34 -4 -80 q0 -20 0.5 -44.5t3.5 -38.5h324v-114h-321q19 -235 96.5 -349t192.5 -114q79 0 135 27t89 63l32 187h100l-4 -337q-74 -23 -169 -40t-211 -17q-127 0 -227.5 39t-174 113t-119.5 182t-63 246h-134v114z" />
<glyph unicode="&#x2122;" horiz-adv-x="2314" d="M260 608v68l145 18v747h-35q-45 0 -73.5 -2t-48 -4t-31.5 -5t-25 -5l-18 -168h-80v261h838v-261h-80l-18 168q-12 2 -27.5 5t-37 5t-49.5 3.5t-68 1.5h-34v-746l145 -18v-68h-503zM1566 608h-37l-314 729v-643l116 -18v-68h-334v68l116 18v738l-116 18v68h378l242 -560 l246 560h364v-68l-116 -18v-738l116 -18v-68h-452v68l122 18v662z" />
<glyph unicode="&#x25fc;" horiz-adv-x="1062" d="M0 1062h1062v-1062h-1062v1062z" />
<glyph horiz-adv-x="770" d="M384 1266q-125 0 -208 27t-133.5 72t-72 104.5t-23.5 123.5h236q7 -115 61.5 -170t139.5 -55t140 55t61 170h237q-3 -64 -24.5 -123.5t-71.5 -104.5t-133 -72t-209 -27z" />
</font>
</defs>
</svg>
