<?xml version="1.0" encoding="utf-8"?>
<svg version="1.1" xmlns="http://www.w3.org/2000/svg" xmlns:xlink="http://www.w3.org/1999/xlink">
	<defs>
	
		<g id="drop">
			<rect width="38" height="38" fill="#FF0000"/>
			<rect x="10" y="10" width="18" height="3"  fill="#FFFFFF" />
			<rect x="10" y="17" width="18" height="3"  fill="#FFFFFF" />
			<rect x="10" y="24" width="18" height="3"  fill="#FFFFFF" />
		</g>

		<g id="rss">
			<path d="M0,0.89v2.72c8.136,0,14.732,6.596,14.732,14.732h2.72C17.452,8.704,9.638,0.89,0,0.89 M0,6.33v2.72
				c5.132,0,9.292,4.161,9.292,9.292h2.72C12.012,11.708,6.634,6.33,0,6.33 M2.606,13.129C1.167,13.129,0,14.296,0,15.735
				c0,1.439,1.167,2.606,2.606,2.606c1.44,0,2.607-1.167,2.607-2.606C5.213,14.296,4.046,13.129,2.606,13.129"/>
		</g>
		<g id="facebook">
			<path d="M9.958,3.116H7.113c-0.336,0-0.711,0.442-0.711,1.034v2.054h3.556v2.927H6.402v8.792H3.044V9.131H0V6.204h3.044V4.481
		C3.044,2.01,4.759,0,7.113,0h2.845V3.116z"/>
		</g>
		<g  id="gplus">
			<path d="M0.982,4.533c0,1.542,0.515,2.656,1.531,3.311c0.832,0.536,1.797,0.616,2.299,0.616c0.122,0,0.219-0.005,0.288-0.01
			c0,0-0.159,1.037,0.609,2.063H5.674C4.343,10.512,0,10.79,0,14.36c0,3.633,3.989,3.816,4.789,3.816
			c0.063,0,0.099-0.001,0.099-0.001c0.009,0,0.066,0.003,0.164,0.003c0.514,0,1.841-0.064,3.073-0.664
			c1.599-0.776,2.41-2.127,2.41-4.013c0-1.823-1.235-2.907-2.138-3.7c-0.551-0.483-1.026-0.9-1.026-1.307
			c0-0.413,0.347-0.724,0.787-1.117C8.869,6.741,9.54,5.834,9.54,4.124c0-1.506-0.195-2.516-1.397-3.157
			C8.268,0.902,8.71,0.855,8.93,0.825c0.652-0.089,1.605-0.19,1.605-0.722V0h-4.75C5.737,0.001,0.982,0.177,0.982,4.533
			 M8.649,13.841c0.091,1.452-1.152,2.524-3.017,2.66c-1.895,0.139-3.455-0.714-3.546-2.165c-0.044-0.697,0.263-1.381,0.862-1.925
			c0.609-0.552,1.444-0.892,2.354-0.958c0.107-0.007,0.214-0.012,0.32-0.012C7.375,11.442,8.563,12.473,8.649,13.841 M7.409,3.539
			C7.875,5.177,7.171,6.891,6.05,7.208C5.921,7.243,5.788,7.262,5.653,7.262c-1.027,0-2.045-1.04-2.422-2.471
			C3.021,3.987,3.038,3.284,3.279,2.608C3.517,1.943,3.943,1.494,4.48,1.343c0.129-0.037,0.263-0.055,0.397-0.055
			C6.118,1.288,6.915,1.802,7.409,3.539 M15.412,7.108V4.009h-1.962v3.099h-3.099v1.963h3.099v3.098h1.962V9.071h3.099V7.108H15.412z
			"/>
		</g>
		<g  id="twitter">
			<path d="M21.126,2.032c-0.778,0.345-1.613,0.577-2.49,0.683c0.895-0.536,1.582-1.386,1.906-2.398
			c-0.838,0.497-1.766,0.857-2.752,1.052C16.999,0.526,15.873,0,14.626,0c-2.394,0-4.334,1.941-4.334,4.334
			c0,0.34,0.038,0.671,0.112,0.988C6.802,5.141,3.608,3.416,1.471,0.793c-0.373,0.64-0.587,1.384-0.587,2.179
			c0,1.504,0.765,2.83,1.928,3.607c-0.71-0.023-1.378-0.217-1.963-0.542c0,0.018,0,0.036,0,0.054c0,2.101,1.495,3.852,3.477,4.25
			c-0.363,0.1-0.746,0.152-1.142,0.152c-0.279,0-0.55-0.027-0.815-0.078c0.552,1.723,2.153,2.976,4.049,3.01
			c-1.483,1.163-3.352,1.856-5.383,1.856c-0.35,0-0.694-0.021-1.034-0.062c1.918,1.23,4.196,1.948,6.644,1.948
			c7.972,0,12.332-6.604,12.332-12.333c0-0.187-0.004-0.374-0.013-0.561C19.81,3.665,20.544,2.902,21.126,2.032"/>
		</g>
		<g  id="search">
			<path d="M16.723,14.473l-4.091-4.091c0.617-1.014,0.972-2.204,0.972-3.478C13.604,3.206,10.398,0,6.698,0C2.999,0,0,3,0,6.699
		c0,3.7,3.206,6.905,6.904,6.905c1.23,0,2.382-0.334,3.373-0.912l4.114,4.113c0.403,0.403,1.055,0.403,1.458,0l1.021-1.02
		C17.271,15.383,17.125,14.875,16.723,14.473 M2.062,6.699c0-2.562,2.076-4.638,4.637-4.638c2.562,0,4.844,2.282,4.844,4.844
		s-2.076,4.638-4.638,4.638C4.344,11.542,2.062,9.26,2.062,6.699"/>
		</g>

		<g  id="login">
			<path d="M14.68,13.411c-2.458-0.896-3.244-1.651-3.244-3.271c0-0.971,0.75-0.653,1.08-2.432c0.137-0.738,0.8-0.013,0.927-1.697
				c0-0.672-0.362-0.838-0.362-0.838s0.184-0.994,0.257-1.759C13.426,2.462,12.786,0,9.375,0C5.962,0,5.322,2.462,5.411,3.415
				c0.073,0.765,0.257,1.759,0.257,1.759S5.306,5.339,5.306,6.011c0.126,1.685,0.79,0.959,0.926,1.697
				c0.33,1.778,1.08,1.461,1.08,2.432c0,1.619-0.785,2.375-3.244,3.271C1.602,14.309,0,15.226,0,15.851v2.1h9.375h9.374v-2.1
				C18.748,15.226,17.146,14.309,14.68,13.411"/>
		</g>


		
		<g id="logo_old">
			<g>
				<path fill="#808080" d="M36.228,30.984c-3.086,3.086-4.615,7.102-4.618,11.148v14.561h25.084V26.368h-9.318
					C43.33,26.37,39.314,27.9,36.228,30.984z"/>
				<path fill="#C80850" d="M28.347,0L28.347,0C12.69,0,0,12.691,0,28.345c0,14.627,11.078,26.666,25.304,28.184V42.132
					c-0.004-5.639,2.16-11.305,6.464-15.606c4.302-4.305,9.97-6.469,15.607-6.467h9.318V0H28.347z"/>
			</g>
			<g>
				<path fill="#C80850" d="M90.623,41.777c0.063,7.82,0.91,14.854-7.578,14.914c-5.52,0.063-8.067-4.244-7.641-8.609l5.033-0.908
					c0,0.182,0,0.424,0,0.605c0.059,0.363,0.059,0.787,0.119,1.213c0.061,0.484,0.123,1.029,0.305,1.455
					c0.424,1.092,1.395,1.455,2.184,1.395c2.365-0.182,2.184-3.336,2.184-5.881v-4.67h-0.182c-0.365,1.213-1.395,2.973-3.883,3.092
					c-6.367,0.184-6.549-12.914-6.367-18.796c0.424-10.186,3.457-12.733,6.307-12.915c2.61-0.18,3.944,1.7,4.368,2.852h0.121
					l0.545-2.428h4.486V41.777z M85.229,23.042c0-2.244,0.242-5.641-1.941-5.822c-2.608-0.242-2.547,5.033-2.608,8.367
					c-0.063,1.88-0.063,3.698,0,5.64c0,3.092-0.242,7.943,2.487,7.762c2.365-0.242,2.063-3.941,2.063-6.365V23.042z"/>
				<path fill="#C80850" d="M95.415,21.768c0-5.033,3.273-9.157,8.246-9.096c4.061,0,7.033,2.792,7.033,7.885V36.32
					c0,2.365,0,4.063,1.699,5.518l-2.123,2.545c-0.787-0.182-2.488-0.666-4.307-2.545c-2,2.545-3.939,2.605-5.031,2.484
					c-3.639-0.242-5.883-3.092-6.549-6.91c-1.029-7.703,4.547-12.005,10.611-12.249v-4.729c0-2.244-1.213-2.91-1.881-2.91
					c-1.271-0.061-2.545,2.063-2.605,5.396L95.415,21.768z M100.569,35.046c0.059,4.123,1.818,4.67,2.668,4.67
					c1.879-0.063,1.758-2.123,1.758-3.275v-7.215C102.024,29.103,100.569,32.015,100.569,35.046z"/>
				<path fill="#C80850" d="M121.065,0.667v43.292h-5.338V0.667H121.065z"/>
				<path fill="#808080" d="M128.583,0.97c2.488,0,2.609,2.487,2.609,3.274c0,0.789-0.121,3.275-2.609,3.275
					c-2.605,0-2.729-2.486-2.729-3.275C125.854,3.457,125.978,0.97,128.583,0.97z M131.192,13.096v30.862h-5.338V13.096H131.192z"/>
				<path fill="#808080" d="M139.923,12.854l0.91,2.67h0.121c1.213-2.428,2.789-2.913,4.549-2.852
					c4.244,0.061,5.455,2.608,5.455,8.551v22.735H145.2V21.647c0-2.121,0.059-4.488-2.063-4.365c-2.486,0.061-2.184,3.699-2.184,6.305
					v20.372h-5.277V12.854H139.923z"/>
				<path fill="#808080" d="M153.446,18.129v-4.668h2.605c0-7.52,1.154-12.492,8.43-13.461l0.787,4.607
					c-4.424,1.031-3.939,4.365-3.818,8.854h3.818v4.668h-3.818v25.829h-5.398V18.129H153.446z"/>
				<path fill="#808080" d="M175.519,12.672c4.246,0,8.732,3.639,8.732,15.828c0,13.277-5.58,15.822-8.672,15.883
					c-1.029,0-8.793-0.242-8.793-15.883C166.786,16.674,171.032,12.672,175.519,12.672z M175.458,40.078
					c3.334,0,2.973-7.76,2.973-11.641c0-3.636,0.424-11.397-2.912-11.397c-3.092,0.061-2.912,7.154-2.912,11.46
					c0,1.635,0.061,3.09,0.123,4.547C172.851,36.017,172.851,40.017,175.458,40.078z"/>
			</g>
		</g>

		<path id="r1072" fill="#FF0000" d="M18,36C8.059,36,0,27.941,0,18S8.059,0,18,0s18,8.059,18,18S27.941,36,18,36z M27.333,18.745l-13.59-7.118
	V25.36L27.333,18.745z"  transform="translate(24,-7)"/>

		<path id="rwave" fill="#EE0000" d="M79.655,0L79.655,0c0.379,0.379,0.775,0.827,1.185,1.34c0.387,0.483,0.732,0.966,1.035,1.444
			c1.619,2.557,2.499,5.545,2.499,8.627h0.008v0.001h-0.008c0,2.141-0.424,4.234-1.226,6.168c-0.124,0.3-0.266,0.612-0.425,0.936
			c-0.783,1.596-1.815,3.054-3.068,4.307l-3.046-3.047c0.941-0.94,1.701-2.005,2.26-3.145c0.102-0.208,0.205-0.437,0.307-0.684
			c0.592-1.428,0.905-2.968,0.905-4.535h-0.008v-0.001h0.008c0-2.257-0.648-4.453-1.842-6.338c-0.244-0.385-0.494-0.738-0.75-1.057
			c-0.231-0.29-0.525-0.613-0.88-0.969l-0.001-0.001L79.655,0z" transform="translate(-15,0)" />
		<path id="lwave" fill="#EE0000" d="M4.727,0L4.727,0C4.348,0.379,3.952,0.827,3.542,1.34C3.155,1.823,2.81,2.306,2.507,2.784
			C0.889,5.341,0.008,8.33,0.008,11.412H0v0.001h0.008c0,2.141,0.424,4.234,1.226,6.168c0.124,0.3,0.266,0.612,0.425,0.936
			c0.783,1.596,1.815,3.054,3.068,4.307l3.047-3.047c-0.941-0.94-1.701-2.005-2.26-3.145c-0.102-0.208-0.205-0.437-0.307-0.684
			C4.614,14.52,4.3,12.979,4.3,11.413h0.009v-0.001H4.3c0-2.257,0.649-4.453,1.842-6.338c0.244-0.385,0.494-0.738,0.75-1.057
			c0.231-0.29,0.525-0.613,0.88-0.969l0.001-0.001L4.727,0z"  transform="translate(15,0)" />
		<path id="r1072old" fill="#00000" d="M16.087,20.367V7.419l-2.97,3.022L10.95,8.168l5.618-5.645h3.317v17.843H16.087z M22.56,11.459
			c0-4.602,2.274-9.203,7.383-9.203c5.083,0,7.383,4.601,7.383,9.203c0,4.601-2.301,9.229-7.383,9.229
			C24.833,20.688,22.56,16.06,22.56,11.459z M33.447,11.459c0-3.291-0.963-5.832-3.504-5.832c-2.568,0-3.531,2.542-3.531,5.832
			c0,3.29,0.963,5.858,3.531,5.858C32.484,17.317,33.447,14.749,33.447,11.459z M41.471,20.367l6.394-14.499h-8.988V2.524h13.402
			v2.648l-6.634,15.194H41.471z M51.556,18.495c0-1.177,0.99-2.167,2.167-2.167s2.167,0.99,2.167,2.167
			c0,1.177-0.99,2.167-2.167,2.167S51.556,19.671,51.556,18.495z M58.404,20.367v-2.969c7.303-5.404,9.443-7.25,9.443-9.443
			c0-1.552-1.418-2.328-2.889-2.328c-2.033,0-3.585,0.802-4.789,2.06l-2.167-2.515c1.739-2.006,4.387-2.916,6.875-2.916
			c3.798,0,6.821,2.14,6.821,5.698c0,3.049-2.515,5.698-7.143,9.068h7.276v3.344H58.404z"/>

		<g id="logo">
		<path fill="#C70850" d="M74.638,52.579c-1.164,0-2.198-0.146-3.101-0.438s-1.676-0.707-2.32-1.252
			c-0.643-0.543-1.164-1.189-1.562-1.939c-0.398-0.75-0.689-1.586-0.873-2.504l3.422-0.598c0.229,1.148,0.727,2.033,1.493,2.652
			c0.766,0.621,1.776,0.93,3.032,0.93c0.766,0,1.462-0.129,2.09-0.389c0.627-0.262,1.164-0.678,1.608-1.252
			c0.444-0.574,0.785-1.32,1.021-2.24c0.237-0.918,0.356-2.037,0.356-3.354V38.2h-0.046c-0.245,0.629-0.551,1.229-0.919,1.803
			s-0.819,1.084-1.355,1.527c-0.536,0.445-1.156,0.801-1.86,1.068c-0.705,0.268-1.509,0.402-2.412,0.402
			c-1.286,0-2.393-0.264-3.319-0.793c-0.927-0.527-1.681-1.32-2.263-2.377s-1.007-2.369-1.274-3.938
			c-0.269-1.57-0.402-3.389-0.402-5.455c0-1.99,0.134-3.783,0.402-5.375c0.267-1.592,0.704-2.943,1.309-4.053
			c0.605-1.111,1.394-1.961,2.366-2.551c0.972-0.588,2.155-0.883,3.549-0.883c1.439,0,2.69,0.4,3.755,1.205
			c1.064,0.804,1.887,1.949,2.469,3.434h0.046c0-0.383,0.007-0.812,0.023-1.286c0.015-0.475,0.035-0.923,0.058-1.344
			c0.022-0.421,0.046-0.784,0.069-1.091s0.049-0.482,0.08-0.528h3.216c-0.016,0.138-0.031,0.372-0.046,0.7
			c-0.015,0.33-0.027,0.724-0.034,1.184c-0.008,0.459-0.016,0.969-0.023,1.527c-0.008,0.559-0.012,1.137-0.012,1.733v18.993
			c0,3.477-0.7,6.09-2.102,7.844C79.679,51.702,77.531,52.579,74.638,52.579z M79.805,30.392c0-1.73-0.153-3.211-0.459-4.443
			c-0.307-1.232-0.712-2.24-1.217-3.021s-1.08-1.354-1.722-1.723c-0.644-0.368-1.302-0.552-1.976-0.552
			c-0.873,0-1.619,0.184-2.239,0.552c-0.621,0.368-1.137,0.946-1.55,1.733c-0.414,0.789-0.716,1.801-0.908,3.032
			c-0.191,1.233-0.287,2.706-0.287,4.421c0,1.791,0.095,3.297,0.287,4.514s0.49,2.201,0.896,2.951s0.915,1.285,1.527,1.607
			s1.348,0.482,2.205,0.482c0.674,0,1.335-0.176,1.986-0.529c0.651-0.352,1.233-0.91,1.746-1.676c0.513-0.766,0.926-1.752,1.24-2.963
			C79.648,33.569,79.805,32.106,79.805,30.392z M93.563,43.276c-2.052,0-3.59-0.658-4.616-1.975c-1.026-1.316-1.539-3.123-1.539-5.42
			c0-1.639,0.256-2.982,0.77-4.031s1.179-1.873,1.999-2.469c0.818-0.598,1.756-1.012,2.813-1.24c1.057-0.23,2.129-0.359,3.217-0.391
			l4.593-0.092v-1.355c0-1.025-0.089-1.898-0.265-2.617c-0.176-0.721-0.447-1.303-0.814-1.746s-0.824-0.77-1.367-0.977
			s-1.191-0.311-1.94-0.311c-0.659,0-1.249,0.059-1.769,0.173c-0.521,0.114-0.977,0.321-1.367,0.62
			c-0.39,0.299-0.703,0.705-0.941,1.217c-0.237,0.514-0.395,1.16-0.471,1.941l-3.537-0.391c0.123-0.98,0.36-1.879,0.712-2.698
			c0.353-0.819,0.851-1.528,1.493-2.125s1.45-1.06,2.424-1.39c0.971-0.328,2.154-0.494,3.548-0.494c2.557,0,4.481,0.717,5.776,2.148
			c1.293,1.432,1.94,3.502,1.94,6.213v10.701c0,1.227,0.13,2.148,0.391,2.768c0.26,0.621,0.765,0.932,1.517,0.932
			c0.184,0,0.371-0.016,0.563-0.047c0.191-0.029,0.371-0.068,0.539-0.115v2.572c-0.429,0.123-0.854,0.215-1.274,0.275
			c-0.422,0.063-0.869,0.094-1.344,0.094c-0.644,0-1.194-0.104-1.653-0.311s-0.831-0.521-1.114-0.941
			c-0.284-0.422-0.502-0.941-0.655-1.563c-0.152-0.619-0.252-1.344-0.298-2.17h-0.092c-0.368,0.795-0.77,1.516-1.206,2.158
			s-0.941,1.191-1.516,1.643s-1.232,0.801-1.975,1.045C95.357,43.153,94.512,43.276,93.563,43.276z M94.344,40.177
			c1.087,0,2.033-0.242,2.837-0.725s1.474-1.098,2.009-1.848c0.537-0.75,0.938-1.57,1.207-2.459c0.268-0.887,0.401-1.736,0.401-2.549
			v-2.043l-3.721,0.09c-0.827,0.016-1.616,0.09-2.366,0.219c-0.75,0.131-1.404,0.387-1.963,0.77c-0.56,0.383-1.008,0.918-1.344,1.607
			c-0.338,0.689-0.506,1.594-0.506,2.711c0,1.348,0.299,2.389,0.896,3.123C92.392,39.81,93.242,40.177,94.344,40.177z
			 M109.824,42.817V8.733h3.399v34.084H109.824z"/>
		<path fill="#808080" d="M118.367,12.685V8.733h3.398v3.951H118.367z M118.367,42.817V17.967h3.398v24.851H118.367z M139.912,42.817
			V27.062c0-1.209-0.072-2.22-0.219-3.031c-0.146-0.812-0.383-1.467-0.711-1.964c-0.33-0.497-0.763-0.85-1.298-1.056
			c-0.536-0.207-1.194-0.311-1.976-0.311c-0.797,0-1.52,0.172-2.17,0.517c-0.652,0.345-1.207,0.842-1.666,1.493
			c-0.459,0.65-0.814,1.455-1.068,2.411c-0.252,0.957-0.378,2.056-0.378,3.296v14.4h-3.399V23.272v-1.631
			c0-0.582-0.008-1.129-0.023-1.643c-0.016-0.513-0.031-0.953-0.045-1.32c-0.016-0.367-0.023-0.605-0.023-0.712h3.192
			c0.015,0.077,0.026,0.283,0.034,0.62s0.023,0.724,0.047,1.16c0.021,0.436,0.037,0.88,0.045,1.332
			c0.008,0.451,0.012,0.83,0.012,1.137h0.068c0.322-0.719,0.678-1.371,1.068-1.953c0.391-0.581,0.842-1.074,1.355-1.48
			c0.513-0.405,1.103-0.719,1.768-0.941c0.667-0.223,1.443-0.334,2.332-0.334c1.133,0,2.105,0.17,2.917,0.506
			c0.812,0.337,1.481,0.857,2.01,1.562s0.915,1.612,1.159,2.722c0.245,1.111,0.367,2.432,0.367,3.961v16.561H139.912z
			 M152.613,20.976v21.842h-3.377V20.976h-2.87v-3.009h2.87v-2.802c0-0.903,0.069-1.742,0.207-2.516
			c0.139-0.772,0.391-1.446,0.758-2.021s0.873-1.026,1.517-1.355s1.47-0.493,2.48-0.493c0.397,0,0.815,0.022,1.251,0.068
			c0.438,0.047,0.816,0.115,1.138,0.207v3.146c-0.215-0.046-0.46-0.088-0.735-0.127c-0.275-0.037-0.527-0.057-0.758-0.057
			c-0.506,0-0.918,0.084-1.24,0.252c-0.321,0.169-0.574,0.41-0.758,0.724s-0.311,0.7-0.379,1.159
			c-0.068,0.461-0.104,0.988-0.104,1.586v2.228h3.974v3.009H152.613z M176.362,30.368c0,4.35-0.785,7.588-2.354,9.717
			c-1.57,2.127-3.848,3.191-6.832,3.191c-1.425,0-2.691-0.26-3.802-0.781c-1.11-0.52-2.052-1.316-2.825-2.389
			c-0.773-1.07-1.363-2.414-1.769-4.029s-0.608-3.52-0.608-5.709c0-8.573,3.039-12.861,9.118-12.861c1.577,0,2.943,0.27,4.099,0.805
			c1.156,0.536,2.103,1.34,2.838,2.412c0.734,1.071,1.274,2.411,1.619,4.019C176.189,26.351,176.362,28.226,176.362,30.368z
			 M172.802,30.368c0-1.928-0.118-3.521-0.356-4.775c-0.236-1.256-0.593-2.26-1.067-3.01s-1.053-1.275-1.733-1.572
			c-0.682-0.299-1.443-0.449-2.285-0.449c-0.873,0-1.658,0.158-2.355,0.471c-0.696,0.314-1.289,0.851-1.779,1.608
			s-0.861,1.765-1.113,3.021c-0.254,1.256-0.38,2.824-0.38,4.707c0,1.93,0.138,3.525,0.413,4.789s0.655,2.271,1.138,3.021
			c0.481,0.75,1.052,1.277,1.711,1.584c0.658,0.307,1.378,0.459,2.159,0.459c0.872,0,1.656-0.148,2.354-0.447s1.29-0.822,1.78-1.574
			c0.489-0.75,0.864-1.76,1.126-3.031C172.672,33.899,172.802,32.298,172.802,30.368z"/>
		<g>
			<path fill="#808080" d="M33.033,33.179c-3.059,2.738-2.989,7.145-2.989,11.32c0,2.178,0,8.695,0,8.695l23.158-0.035l0.059-23.508
				h-8.764C39.503,29.71,36.306,30.251,33.033,33.179z"/>
			<path fill="#C70850" d="M26.218,0.009C11.496,0.009,0,9.435,0,26.843c0,15.619,9.723,24.961,23.101,26.389v-9.447
				c0-6.625-0.669-10.764,4.696-16.359c4.69-4.891,11.454-4.379,16.755-4.377h8.763L53.244,0L26.218,0.009z"/>
		</g>
	</g>


	</defs>
</svg>