<svg width="125" height="30" viewBox="0 0 125 30" fill="none" xmlns="http://www.w3.org/2000/svg">
    <g clip-path="url(#clip0_694_4165)">
        <path d="M33.7611 21.4371C33.8825 20.6769 34.3272 20.0746 34.9762 19.7918C35.2408 19.6766 35.6783 19.5796 35.9486 19.5761C36.3621 19.571 36.4674 19.6481 36.6113 20.0615C36.8509 20.7496 36.8524 20.7474 36.1608 20.7474C35.4693 20.7474 35.1399 20.9963 34.9827 21.6377C34.8784 22.0635 34.8837 22.0668 35.6742 22.0668H36.4706V22.6043C36.4706 23.135 36.4611 23.1425 35.73 23.1896L34.9894 23.2371L34.9465 25.7729L34.9036 28.3086H34.5306C34.3253 28.3086 34.0464 28.3512 33.9107 28.4033C33.6917 28.4874 33.6641 28.1986 33.6641 25.8286V23.1591H33.289C32.9321 23.1591 32.922 23.1323 33.0811 22.613C33.1732 22.3126 33.3414 22.0668 33.4545 22.0668C33.5744 22.0668 33.7024 21.8039 33.7611 21.4371Z" fill="white"/>
        <path d="M0.864354 22.4672C0.615979 22.0877 0.617225 22.0863 2.28867 20.8989L3.96169 19.7103L4.00316 23.9549C4.02608 26.2894 4.02608 28.214 4.00316 28.232C3.9804 28.2498 3.6999 28.3049 3.38011 28.3541L2.79837 28.4441L2.75643 25.1788L2.71433 21.9137L2.0127 22.3796C1.6268 22.6361 1.26647 22.8459 1.21206 22.8464C1.15764 22.8467 1.0011 22.6761 0.864354 22.4672Z" fill="white"/>
        <path d="M37.0945 25.252C37.0945 22.0953 37.0952 22.0883 37.4453 22.0209C38.1294 21.889 38.1859 21.9113 38.1859 22.3147V22.7187L38.6657 22.3147C39.3446 21.7429 40.4607 21.7458 41.1438 22.321L41.6311 22.7314L42.026 22.36C42.3569 22.0488 42.5824 21.9887 43.4187 21.9887C44.3377 21.9887 44.457 22.0291 44.9264 22.4986L45.4361 23.0082L45.4854 25.6585L45.5347 28.3086H45.1473C44.9342 28.3086 44.649 28.3512 44.5134 28.4033C44.2949 28.4873 44.2667 28.2193 44.2667 26.0626C44.2667 23.8352 44.2401 23.6005 43.9549 23.3151C43.5214 22.8813 42.7832 22.9132 42.3107 23.3861C41.9393 23.7577 41.9279 23.8371 41.9279 26.0389V28.3086H41.5509C41.3436 28.3086 41.0678 28.3493 40.9382 28.3991C40.735 28.4771 40.6955 28.1411 40.6525 25.9675C40.6073 23.6836 40.5741 23.4245 40.3 23.2241C39.8775 22.9155 39.2232 22.9486 38.7879 23.3009C38.4383 23.5837 38.4159 23.7152 38.3418 25.9123L38.2639 28.226L37.6791 28.3208L37.0945 28.4155V25.252Z" fill="white"/>
        <path d="M21.5639 27.8267C21.3389 27.6397 21.3586 27.583 21.7589 27.2623C22.2936 26.8341 22.429 26.863 22.7907 27.4829C23.1153 28.0393 23.0325 28.354 22.2966 29.3619C21.7684 30.0855 21.6925 30.1206 21.2932 29.8283C21.043 29.6452 21.0517 29.5945 21.4194 29.0959C21.8761 28.4764 21.9166 28.1197 21.5639 27.8267Z" fill="white"/>
        <path fill-rule="evenodd" clip-rule="evenodd" d="M8.79516 20.018C7.49666 20.8251 6.936 22.0501 6.92914 24.0953C6.92508 25.32 6.98652 25.7134 7.28339 26.358C7.95355 27.814 8.82982 28.4647 10.1205 28.4647C11.4137 28.4647 12.2957 27.8081 12.9511 26.358C13.2442 25.7095 13.3024 25.3144 13.2961 24.0173C13.2878 22.2746 13.0995 21.6717 12.2672 20.7229C11.9896 20.4066 11.5356 20.0528 11.2584 19.9369C10.531 19.6327 9.35243 19.6716 8.79516 20.018ZM12.0286 24.0953C12.0286 22.6417 11.7974 21.9009 11.1642 21.326C10.4969 20.7201 9.46702 20.8151 8.85991 21.5383C7.82316 22.773 7.99172 25.9984 9.14022 26.9025C9.65819 27.3102 10.5792 27.313 11.0931 26.9084C11.7693 26.3761 12.0286 25.5965 12.0286 24.0953Z" fill="white"/>
        <path fill-rule="evenodd" clip-rule="evenodd" d="M15.7336 20.0297C15.1685 20.33 14.7476 20.8156 14.2384 21.7547C13.9965 22.2008 13.9421 22.6295 13.9414 24.0953C13.9405 25.7978 13.9645 25.9333 14.4083 26.7367C15.0467 27.8927 15.9476 28.4648 17.1284 28.464C19.0539 28.4628 20.2647 26.8263 20.3033 24.1734C20.3327 22.149 19.5272 20.4606 18.2839 19.9408C17.5703 19.6423 16.385 19.6838 15.7336 20.0297ZM18.9994 23.9993C18.9895 22.7366 18.6259 21.6688 18.0723 21.2764C17.5385 20.8981 17.1473 20.8245 16.5613 20.9923C15.5607 21.2788 14.9844 22.8217 15.1766 24.7C15.3617 26.5073 15.906 27.2163 17.1089 27.2163C17.6612 27.2163 17.872 27.1298 18.2146 26.7628C18.769 26.1689 19.0099 25.3206 18.9994 23.9993Z" fill="white"/>
        <path fill-rule="evenodd" clip-rule="evenodd" d="M24.6987 23.4036C23.6602 22.3016 23.9216 20.8825 25.3225 20.0165C25.9334 19.6388 27.3164 19.6301 28.04 19.9995C28.8706 20.4233 29.2205 21.0138 29.2205 21.9916C29.2205 22.7312 29.1591 22.8932 28.6972 23.3701L28.1739 23.9104L28.5882 24.1821C29.47 24.7603 29.7631 26.2683 29.1859 27.2575C28.2872 28.7973 25.4853 28.9053 24.3708 27.4429C23.6033 26.4361 23.7454 25.0466 24.6893 24.326L25.2003 23.936L24.6987 23.4036ZM27.7003 21.3731C27.8933 21.5926 28.0511 21.8929 28.0511 22.0407C28.0511 22.4491 27.6484 22.9383 27.1379 23.1499C26.7545 23.3087 26.5948 23.2961 26.1572 23.0716C25.5073 22.7382 25.406 22.5871 25.4028 21.9474C25.401 21.5403 25.5021 21.3745 25.9072 21.1221C26.5404 20.7274 27.2157 20.822 27.7003 21.3731ZM26.6142 27.2589C28.2577 27.2589 28.8298 25.5915 27.4312 24.8775C26.5931 24.4495 26.0664 24.5198 25.5379 25.1302C24.772 26.0144 25.4012 27.2589 26.6142 27.2589Z" fill="white"/>
        <path fill-rule="evenodd" clip-rule="evenodd" d="M66.9707 5.93956C65.877 8.34923 65.0064 10.3411 65.0362 10.3661C65.066 10.3912 65.3721 10.4547 65.7166 10.5073L66.3428 10.6031L67.261 8.46143C67.766 7.28358 68.3473 5.9341 68.553 5.46253L68.9269 4.60537L70.2247 7.56915L71.5228 10.5331L72.2044 10.4798C72.5794 10.4505 72.9029 10.4104 72.9232 10.3907C72.9526 10.3625 71.1662 6.37586 69.2279 2.14453L68.9594 1.55842L66.9707 5.93956ZM118.26 5.61577C117.147 7.8483 116.201 9.67185 116.156 9.66825C116.112 9.6645 115.422 8.81535 114.623 7.78102C113.335 6.11573 113.194 5.87106 113.386 5.64214C114.793 3.96621 115.963 2.53808 116.054 2.38438C116.226 2.09257 115.064 1.6405 114.826 1.90735C114.729 2.01689 113.988 2.91072 113.18 3.89365L111.71 5.68068L111.666 3.68377C111.629 1.95447 111.59 1.69918 111.381 1.7797C111.248 1.83073 110.934 1.87255 110.684 1.87255H110.229V6.1638C110.229 10.8376 110.167 10.5533 111.145 10.3575L111.632 10.26V8.24167C111.632 7.00551 111.689 6.25899 111.781 6.31517C111.862 6.36557 112.642 7.35068 113.514 8.50432C114.921 10.3641 115.135 10.5835 115.402 10.4401C115.671 10.2958 116.176 10.3318 116.958 10.5508C117.156 10.6061 117.374 10.2906 117.883 9.21277L118.549 7.80225H120.243H121.937L122.563 9.16365C122.906 9.9123 123.212 10.5488 123.241 10.5783C123.333 10.6701 124.574 10.2929 124.565 10.1758C124.561 10.1149 123.595 8.15055 122.42 5.81082L120.283 1.55671L118.26 5.61577ZM74.0142 1.83026L73.427 1.89174L73.4685 6.1343L73.51 10.377L75.244 10.3639C76.6512 10.3531 77.0898 10.2923 77.5734 10.0411C79.0584 9.26985 79.4177 7.39156 78.3279 6.09545C77.866 5.54586 76.7171 5.1495 75.5868 5.1495H74.8353V3.43301C74.8353 2.48893 74.7827 1.72836 74.7183 1.74272C74.6539 1.75723 74.3371 1.79655 74.0142 1.83026ZM87.4648 1.85413L86.9192 1.95057L86.8773 6.20281C86.8323 10.8439 86.771 10.5549 87.7567 10.3575L88.244 10.26V5.98825C88.244 3.63883 88.1916 1.7257 88.1273 1.7371C88.0629 1.74833 87.765 1.80108 87.4648 1.85413ZM99.4708 1.86241C96.9596 2.62952 95.6048 5.22893 96.4386 7.6782C97.0846 9.57495 99.2148 10.8486 101.235 10.5454C102.159 10.4067 102.381 10.1957 102.502 9.33982L102.603 8.61465L101.933 8.94968C100.325 9.75413 98.3039 8.91112 97.7373 7.19962C97.4626 6.36993 97.637 5.10971 98.1295 4.3649C98.9603 3.10889 100.65 2.67446 101.996 3.3709C102.252 3.50354 102.486 3.58796 102.516 3.55862C102.545 3.52913 102.528 3.20002 102.478 2.82739C102.4 2.24331 102.316 2.11957 101.869 1.93309C101.317 1.70199 100.112 1.66641 99.4708 1.86241ZM104.265 1.8301L103.68 1.89143V6.17316V10.4551H104.92C107.771 10.4551 109.138 9.59317 109.138 7.7946C109.138 6.25961 108.068 5.32131 106.163 5.18492L105.084 5.10753V3.41209C105.084 2.47957 105.031 1.72836 104.966 1.74272C104.902 1.75723 104.587 1.79655 104.265 1.8301ZM80.1362 6.1638V10.4551H81.3765C83.2523 10.4551 84.1587 10.21 84.8533 9.51615C85.3937 8.9754 85.4379 8.86335 85.4379 8.03055C85.4379 7.18824 85.399 7.09258 84.8368 6.55765L84.2358 5.98544L84.6811 5.48703C85.0434 5.08115 85.1258 4.84506 85.1258 4.21619C85.1258 2.68118 83.8249 1.87255 81.3555 1.87255H80.1362V6.1638ZM89.8031 6.18549V10.4986L91.5659 10.4207C93.607 10.3305 94.3002 10.0808 94.8802 9.2262C95.5352 8.2617 95.253 6.73867 94.3271 6.24292L94.0008 6.06799L94.3907 5.60422C94.8802 5.02217 95.0329 4.23976 94.7979 3.52632C94.4207 2.38204 93.2395 1.87255 90.9656 1.87255H89.8031V6.18549ZM83.4192 3.56471C83.9064 3.95966 83.902 4.78264 83.4109 5.18102C83.1377 5.4023 82.8488 5.46456 82.2545 5.42976C81.8181 5.40433 81.4791 5.33098 81.5008 5.26654C81.5225 5.20209 81.5397 4.72818 81.5397 4.21323V3.27696H82.3024C82.8106 3.27696 83.1826 3.37277 83.4192 3.56471ZM93.2335 3.58905C93.6422 3.99757 93.6302 4.64906 93.2066 5.1005C92.9341 5.39028 92.7036 5.46159 92.0374 5.46159H91.2066V4.36927V3.27696H92.0644C92.7141 3.27696 92.9978 3.35264 93.2335 3.58905ZM121.291 6.43688C121.296 6.50132 120.843 6.55391 120.286 6.55391C119.695 6.55391 119.272 6.48697 119.272 6.39334C119.272 6.30517 119.491 5.79818 119.76 5.26685L120.247 4.30093L120.765 5.31038C121.051 5.86559 121.287 6.37244 121.291 6.43688ZM76.7889 6.62382C77.7051 7.00707 77.8885 8.02372 77.1699 8.74245C76.9267 8.98605 76.6497 9.05062 75.8488 9.05062H74.8353V7.82835C74.8353 7.15594 74.8817 6.55906 74.9394 6.50194C75.1228 6.31781 76.232 6.391 76.7889 6.62382ZM107.359 6.87973C107.626 7.13081 107.734 7.40124 107.734 7.81822C107.734 8.6694 107.197 9.05062 105.998 9.05062H105.084V7.70257V6.35449L106.034 6.44078C106.725 6.50351 107.086 6.6232 107.359 6.87973ZM83.482 6.80686C83.6205 6.86023 83.8421 7.11318 83.9746 7.3691C84.1669 7.74143 84.1796 7.92052 84.0359 8.2662C83.8069 8.82 83.2889 9.05047 82.2732 9.05092L81.4618 9.05145L81.5127 7.88062L81.5644 6.70996H82.3967C82.8548 6.70996 83.3428 6.75365 83.482 6.80686ZM93.4469 7.03344C93.7448 7.26798 93.857 7.50067 93.857 7.88032C93.857 8.6643 93.2844 9.05062 92.1213 9.05062H91.2066V7.88032V6.70996H92.1213C92.8106 6.70996 93.137 6.7897 93.4469 7.03344ZM98.7687 15.407C95.4656 19.0288 91.4506 23.3311 91.3271 23.3823C91.256 23.4116 91.2029 21.3401 91.2088 18.779L91.2193 14.1221L90.628 14.1621C90.3032 14.1839 89.8091 14.2398 89.5307 14.2862L89.024 14.3704V21.6209V28.8714L93.5846 23.9293L98.1452 18.9872L98.1864 23.6336L98.2275 28.2801L99.2777 28.1687C99.8555 28.1075 100.347 28.0402 100.368 28.0192C100.391 27.9982 100.391 24.7673 100.368 20.8393L100.328 13.6977L98.7687 15.407ZM106.667 16.2755C106.042 17.6659 104.599 20.875 103.458 23.4068C102.318 25.9387 101.428 28.0591 101.481 28.1191C101.533 28.1788 102.031 28.2717 102.589 28.3252L103.603 28.4224L105.626 23.6392C106.739 21.0083 107.688 18.8324 107.734 18.8036C107.78 18.7751 108.763 20.8958 109.92 23.5164C111.076 26.137 112.111 28.3159 112.219 28.3582C112.327 28.4004 112.818 28.3736 113.31 28.2982C114.004 28.1921 114.201 28.1026 114.185 27.899C114.167 27.667 114.281 27.6808 115.177 28.0186C115.735 28.2285 116.21 28.4002 116.235 28.4002C116.259 28.4002 117.348 26.9237 118.656 25.1186C119.963 23.3138 121.092 21.7999 121.165 21.7544C121.239 21.7091 121.299 23.1603 121.299 24.9793V28.2867L122.022 28.1874C122.421 28.1328 122.912 28.0882 123.114 28.0882H123.482V21.2088V14.3294L120.948 14.3832C118.705 14.4309 118.326 14.4781 117.635 14.7952C116.031 15.5318 115.216 16.7909 115.222 18.5252C115.224 19.2095 115.326 19.8048 115.509 20.2093C115.848 20.9557 116.7 21.7415 117.473 22.0214C117.802 22.1405 118.002 22.3036 117.959 22.4169C117.845 22.7153 114.257 27.4642 114.147 27.4634C114.093 27.4631 113.612 26.4974 113.079 25.3178C112.546 24.1381 111.16 21.0721 110 18.5047C108.84 15.9373 107.871 13.8166 107.847 13.7923C107.822 13.7678 107.291 14.8853 106.667 16.2755ZM66.1782 14.486C65.6657 14.7028 65.2235 14.8961 65.1959 14.9156C65.1681 14.9353 65.5942 15.5723 66.1429 16.3313C66.6915 17.0903 67.6731 18.4602 68.3241 19.3757L69.5079 21.0401L69.0786 21.6383C68.8424 21.9673 67.7957 23.4198 66.7527 24.8662C65.7098 26.3124 64.8564 27.5503 64.8564 27.617C64.8564 27.8157 66.7332 28.4584 66.8674 28.3055C66.9348 28.2289 67.8157 26.9868 68.8251 25.5453C69.8343 24.1037 70.7171 22.9451 70.7868 22.9706C70.8565 22.996 71.768 24.2105 72.8124 25.6695C73.8569 27.1285 74.7371 28.3492 74.7682 28.3822C74.8197 28.4365 76.6931 27.7966 76.8496 27.6714C76.8862 27.6425 76.7732 27.461 76.5996 27.2683C76.4259 27.0756 75.3219 25.6018 74.1463 23.9934C72.7963 22.1465 72.0517 20.9966 72.1255 20.8725C72.1898 20.7644 73.1127 19.4542 74.1764 17.9609C75.2403 16.4676 76.14 15.1679 76.1767 15.0729C76.2133 14.9777 75.8219 14.7137 75.3069 14.4859L74.3707 14.0719L72.6151 16.6326C71.6493 18.041 70.8194 19.1935 70.7704 19.1935C70.7216 19.1936 69.9904 18.1931 69.1457 16.97C68.301 15.7469 67.4974 14.5991 67.36 14.4192L67.1101 14.0921L66.1782 14.486ZM77.7979 21.2222V28.0882H80.4199C83.3421 28.0882 84.1886 27.9262 85.235 27.1677C86.4169 26.3113 87.0255 24.3302 86.5195 22.9879C86.3144 22.4434 85.5097 21.5861 84.9072 21.2705L84.4543 21.0334L84.9506 20.645C86.1265 19.724 86.4738 17.6622 85.6811 16.3083C84.8121 14.825 83.4776 14.3562 80.1228 14.3562H77.7979V21.2222ZM83.2193 16.8003C83.4536 16.9736 83.744 17.3957 83.8645 17.7383C84.0644 18.3038 84.0576 18.4181 83.7867 18.9726C83.3758 19.8155 82.6924 20.1292 81.2672 20.1295L80.1362 20.1299V18.2378V16.3456L81.4656 16.4156C82.4768 16.4686 82.896 16.5605 83.2193 16.8003ZM121.299 18.668V20.9511L120.12 20.8753C118.816 20.7917 118.362 20.5579 117.738 19.6474C117.454 19.2322 117.389 18.9708 117.446 18.4546C117.594 17.097 118.573 16.3943 120.325 16.3882L121.299 16.3848V18.668ZM82.9731 22.1859C84.1587 22.5416 84.771 23.8077 84.2687 24.8672C83.875 25.697 83.006 26.0596 81.4124 26.0596H80.1362V24.031V22.0024H81.2485C81.8608 22.0024 82.6362 22.085 82.9731 22.1859Z" fill="white"/>
        <path fill-rule="evenodd" clip-rule="evenodd" d="M44.4942 3.98336C45.5108 2.20506 47.7019 0.796125 50.3498 0.218132C52.4632 -0.243294 54.8073 0.0375872 56.572 0.963563C57.5795 1.49225 59.3963 3.19267 60.1566 4.31854C60.7428 5.18693 61.1811 6.50708 61.348 7.9068C61.4526 8.78565 61.5708 9.13193 61.8799 9.46568C62.3485 9.97125 62.3748 10.1345 62.0047 10.2362C61.5346 10.3655 60.6784 13.0847 60.6128 14.6573L60.6001 14.9606C60.5585 15.9467 60.5483 16.1877 60.5845 16.4216C60.5962 16.4972 60.6126 16.572 60.6345 16.6711L60.6448 16.7177L60.6549 16.7639C60.7107 17.0214 60.7891 17.9828 60.8289 18.9005C60.8953 20.4282 60.9316 20.5888 61.2599 20.804C61.7041 21.0953 62.1753 22.0718 62.5004 23.3751C62.6366 23.9215 62.9229 24.5764 63.1365 24.8304C63.6133 25.3975 63.6398 25.9761 63.1997 26.2119C63.0208 26.3077 62.8335 26.3452 62.7837 26.2951C62.7336 26.245 62.5817 26.3007 62.4461 26.4186C62.3106 26.5367 61.9189 26.7203 61.5759 26.8265C60.6974 27.0987 60.2506 27.4119 60.2506 27.7558C60.2506 28.1272 59.9642 28.2323 59.5092 28.0281C59.2176 27.8973 59.0575 27.9506 58.5737 28.3386C57.5713 29.1424 57.3691 29.2076 56.7194 28.9358L56.1434 28.695L56.9147 28.1912C57.5195 27.7959 57.6744 27.6115 57.6322 27.3364C57.5867 27.0398 57.5307 27.011 57.2715 27.1499C56.9066 27.3452 56.3526 27.2042 56.3526 26.9158C56.3526 26.8036 56.598 26.1588 56.898 25.483C57.4286 24.2874 57.4319 24.2687 57.0149 24.7923C56.9554 24.8671 56.8995 24.9376 56.8468 25.004C56.2706 25.7295 56.0768 25.9736 55.8632 25.9924C55.755 26.0018 55.6416 25.9534 55.4708 25.8804C55.4399 25.8672 55.4072 25.8532 55.3724 25.8386C55.0539 25.7054 54.7934 25.5106 54.7934 25.4057C54.7934 25.3009 54.6759 25.0851 54.5322 24.9263C54.2855 24.6533 54.2999 24.6076 54.7967 24.0947L55.3223 23.552L54.785 22.9883C54.4896 22.6782 53.6521 21.9233 52.9239 21.3108C52.1959 20.6982 51.0715 19.6607 50.4252 19.0049C49.5413 18.1085 48.9865 17.6935 48.1875 17.3307C46.0834 16.376 44.1834 13.9893 43.7098 11.7062C43.2068 9.28125 44.1575 6.61865 46.0396 5.1821C46.8018 4.6002 46.8108 4.59818 47.225 4.91151C47.5184 5.13356 47.4933 5.18022 46.5779 6.11588C45.4701 7.24799 45.0876 7.95053 44.8161 9.35175C44.5614 10.6661 44.7783 12.1233 45.4391 13.5401C45.9057 14.5403 46.7357 15.5936 47.0572 15.5936C47.1422 15.5936 47.0174 15.3906 46.78 15.1427C46.5425 14.8946 46.412 14.6522 46.4898 14.604C46.8055 14.4088 47.3349 14.7349 47.9846 15.5248C49.0962 16.876 49.5639 17.1995 50.5218 17.2789C50.9846 17.3173 51.3632 17.2997 51.3632 17.2396C51.3632 17.1795 51.0434 16.7144 50.6525 16.2059C50.0374 15.4059 49.872 15.2816 49.4242 15.2816C48.7366 15.2816 48.4881 14.9808 48.8033 14.5303C49.0238 14.2154 49.0095 14.1473 48.6103 13.6046C48.3733 13.2824 48.1605 12.9909 48.1371 12.9568C48.1137 12.9226 47.7631 13.1531 47.3578 13.469C46.5756 14.079 46.2793 14.1249 46.0007 13.6787C45.8581 13.4498 45.9092 13.3378 46.2959 13.0316C46.5531 12.828 46.9329 12.5129 47.1398 12.3317L47.5161 12.0017L47.0135 11.3015C46.231 10.2108 46.6607 9.89558 47.6338 10.8466L48.2054 11.4052L49.4334 10.5224C50.1088 10.037 51.8687 9.00945 53.3441 8.23905C55.9628 6.8716 56.0232 6.829 55.8778 6.44638C55.6423 5.82625 55.697 5.60669 56.0876 5.60669C56.5111 5.60669 56.8204 5.87634 56.8204 6.24539C56.8204 6.47633 56.9697 6.45152 58.0075 6.04831C58.6604 5.79458 59.2918 5.62433 59.4108 5.6699C60.0657 5.92144 59.0577 4.49331 57.8178 3.41285C55.8785 1.72319 54.1268 1.11758 51.7048 1.29953C49.3262 1.47804 46.7059 2.81926 45.604 4.42215C44.4958 6.0341 43.5383 5.65554 44.4942 3.98336ZM56.4852 8.99775C56.6465 9.60143 56.6454 9.74813 56.4786 9.8031C55.8182 10.0206 52.0335 12.0647 51.0194 12.7514C50.3587 13.199 49.7856 13.565 49.7459 13.565C49.7061 13.565 49.5196 13.3158 49.3316 13.0114C49.0096 12.4898 49.0049 12.4407 49.253 12.1665C49.795 11.5672 51.512 10.4981 53.702 9.3966C54.9454 8.77118 56.036 8.25945 56.1254 8.25945C56.2148 8.25945 56.3768 8.5917 56.4852 8.99775ZM60.2219 7.85378C60.1835 7.53825 60.034 7.39997 59.5489 7.23191C59.206 7.113 58.8902 7.01969 58.8473 7.02452C58.6412 7.04731 57.5158 7.50105 57.415 7.60193C57.3519 7.66508 57.4096 8.0895 57.5431 8.5452C57.7376 9.20918 57.837 9.35273 58.0437 9.26843C58.1856 9.2106 58.6525 9.1179 59.0812 9.06248C59.734 8.97803 59.8689 8.90453 59.9107 8.6106C59.938 8.41755 60.0304 8.25945 60.1158 8.25945C60.2013 8.25945 60.249 8.0769 60.2219 7.85378ZM59.6452 11.4584C59.6158 12.3279 59.527 12.6752 59.209 13.161C58.907 13.6225 58.7795 13.7171 58.6856 13.5493C58.5553 13.3161 58.0356 10.7356 58.1053 10.6676C58.1274 10.6459 58.3913 10.5572 58.6914 10.4705C59.6389 10.1966 59.6858 10.2452 59.6452 11.4584ZM57.7352 14.9165C57.9445 14.6641 57.899 14.4107 57.261 12.2777C56.9206 11.1401 56.8102 11.0703 55.9628 11.4586C55.7056 11.5764 55.0803 11.8541 54.5734 12.0755C53.7173 12.4499 50.5836 14.4358 50.5836 14.6042C50.5836 14.7701 51.5974 16.1753 52.0998 16.7054C52.6079 17.2416 52.6685 17.264 53.2586 17.1313C54.7069 16.8056 57.1855 15.5792 57.7352 14.9165ZM58.9397 17.2316C59.2362 17.914 59.5823 18.5304 59.7087 18.6012C59.9514 18.7372 60.0053 19.4712 59.843 20.4311C59.7578 20.9348 59.6525 21.0242 58.4865 21.5819C57.7913 21.9146 56.9546 22.364 56.6275 22.5806C56.0341 22.9736 56.0319 22.9738 55.6859 22.6681C55.4952 22.4996 54.2605 21.383 52.9422 20.1869L50.5451 18.0123L51.2774 17.9642C51.9804 17.9183 52.0357 17.9463 52.6602 18.6665C54.7608 21.0897 55.3454 21.5303 55.1553 20.5481C55.0967 20.245 54.6904 19.6244 54.1457 19.0057C53.6444 18.4364 53.2343 17.9352 53.2343 17.8922C53.2343 17.849 53.5648 17.7641 53.9688 17.7035C54.9456 17.5568 56.2243 17.0672 57.2822 16.4345C57.7572 16.1505 58.203 15.9344 58.2731 15.9544C58.3432 15.9743 58.6431 16.5491 58.9397 17.2316ZM59.7048 17.2321L59.7503 16.6079C59.7752 16.2646 59.7401 15.718 59.6723 15.3929C59.5602 14.8568 59.5263 14.8248 59.3046 15.0468C59.0828 15.2687 59.0899 15.3808 59.3826 16.2617L59.7048 17.2321Z" fill="white"/>
        <path d="M39.4417 2.04748L40.0264 1.98615C40.348 1.9526 40.8041 1.91327 41.0399 1.89876L41.4686 1.87255V8.74335C41.4686 14.1042 41.4257 15.6274 41.2737 15.6743C41.1666 15.7072 40.7104 15.772 40.2602 15.818L39.4417 15.9019V8.97465V2.04748Z" fill="white"/>
        <path fill-rule="evenodd" clip-rule="evenodd" d="M1.86523 8.96528V15.902L2.68381 15.818C3.1341 15.772 3.58814 15.708 3.69292 15.6761C3.82872 15.6344 3.89592 14.9769 3.9268 13.3874L3.97014 11.1572L5.29545 11.0641C7.02693 10.9422 8.04664 10.502 8.96498 9.47978C10.8907 7.33617 10.2666 3.98665 7.69425 2.66167C6.84295 2.22302 5.57829 2.03063 3.54136 2.02953L1.86523 2.02859V8.96528ZM7.94544 6.61602C7.94604 5.73608 7.57329 5.032 6.80506 4.46228C6.46781 4.21214 6.07801 4.1235 5.12503 4.08012L3.88423 4.02379L3.92726 6.57623L3.97014 9.12863L4.98362 9.11588C6.86665 9.09203 7.94439 8.18243 7.94544 6.61602Z" fill="white"/>
        <path fill-rule="evenodd" clip-rule="evenodd" d="M10.4407 15.662C10.4407 15.6297 12.0235 12.4355 13.9582 8.5638L17.4757 1.52441L20.9631 8.5254C24.4178 15.461 24.4506 15.5188 24.4618 14.7073L24.4734 13.8881H25.1027C25.7051 13.8881 25.7452 13.8566 26.0467 13.1468C27.486 9.7599 31.0857 1.71712 31.1612 1.71978C31.2133 1.72165 32.4488 4.44262 33.9068 7.76655L36.5577 13.8101L37.1421 13.8584L37.7265 13.907V16.1382V18.3697L36.8405 18.4613C36.3533 18.5115 35.8972 18.5173 35.8271 18.4739C35.7569 18.4304 35.6995 17.8023 35.6995 17.0778V15.7606H31.0999H26.5003V17.087V18.4134L26.0715 18.4151C25.8358 18.416 25.3797 18.4604 25.058 18.5135L24.4734 18.6103V17.1655V15.7207L23.8107 15.8261C23.4461 15.8842 22.9904 15.9708 22.7979 16.0189C22.4793 16.0983 22.3452 15.8963 21.3166 13.7877L20.1856 11.4694L17.4447 11.4269L14.7038 11.3843L13.5699 13.7415C12.5569 15.8469 12.4001 16.0897 12.1009 16.0151C11.9167 15.9691 11.4678 15.8842 11.1033 15.8261C10.7387 15.7681 10.4407 15.6943 10.4407 15.662ZM18.3925 7.5894C18.8642 8.5794 19.2735 9.45338 19.302 9.53205C19.3316 9.6135 18.5369 9.67485 17.4532 9.67485C15.9949 9.67485 15.5708 9.6294 15.6309 9.47978C15.9577 8.66535 17.3771 5.77525 17.4472 5.78164C17.4955 5.78617 17.9208 6.59963 18.3925 7.5894ZM34.2066 13.537C34.1458 13.3439 33.4372 11.6444 32.6317 9.76065C31.8263 7.87673 31.1451 6.31313 31.118 6.28598C31.0676 6.23558 27.9035 13.6273 27.9035 13.7955C27.9035 13.8463 29.3466 13.8881 31.1104 13.8881H34.3173L34.2066 13.537Z" fill="white"/>
    </g>
    <defs>
        <clipPath id="clip0_694_4165">
            <rect width="125" height="30" fill="white"/>
        </clipPath>
    </defs>
</svg>
