<?xml version="1.0" standalone="no"?>
<!DOCTYPE svg PUBLIC "-//W3C//DTD SVG 1.1//EN" "http://www.w3.org/Graphics/SVG/1.1/DTD/svg11.dtd" >
<svg xmlns="http://www.w3.org/2000/svg" xmlns:xlink="http://www.w3.org/1999/xlink" version="1.1">
<metadata></metadata>
<defs>
<font id="nerisblack" horiz-adv-x="1290" >
<font-face units-per-em="2048" ascent="1546" descent="-502" />
<missing-glyph horiz-adv-x="409" />
<glyph horiz-adv-x="0" />
<glyph unicode="&#xd;" horiz-adv-x="993" />
<glyph unicode=" "  horiz-adv-x="409" />
<glyph unicode="&#x09;" horiz-adv-x="409" />
<glyph unicode="&#xa0;" horiz-adv-x="409" />
<glyph unicode="!" horiz-adv-x="600" d="M473 1430v-379q0 -82 -25.5 -290t-29.5 -272q0 -26 -27 -26h-182q-27 0 -27 26q-4 64 -29.5 272t-25.5 290v379q0 26 27 26h292q27 0 27 -26zM309 358q89 0 139 -50t50 -140q0 -89 -50 -140t-139 -51q-88 0 -137 51t-49 140q0 90 49 140t137 50z" />
<glyph unicode="&#x22;" horiz-adv-x="888" d="M379 1464v-190q0 -46 -19.5 -164.5t-21.5 -138.5q-3 -25 -27 -25h-127q-23 0 -26 25q-3 32 -22 145.5t-19 157.5v190q0 27 26 27h209q12 0 19.5 -7.5t7.5 -19.5zM772 1464v-190q0 -46 -19.5 -164.5t-21.5 -138.5q-3 -25 -26 -25h-127q-24 0 -27 25q-3 32 -22 145.5 t-19 157.5v190q0 12 7.5 19.5t19.5 7.5h208q12 0 19.5 -7.5t7.5 -19.5z" />
<glyph unicode="#" horiz-adv-x="1562" d="M1221 879l-41 -306h200q28 0 25 -28l-31 -234q-3 -24 -28 -24h-207l-35 -262q-3 -25 -29 -25h-246q-27 0 -24 29l35 258h-238l-35 -262q-3 -25 -28 -25h-246q-28 0 -25 29l35 258h-197q-27 0 -24 28l31 234q3 24 28 24h203l41 306h-197q-27 0 -24 28l26 232q3 24 27 24 h209l35 264q3 25 28 25h246q28 0 25 -29l-35 -260h238l34 264q3 25 29 25h246q27 0 24 -29l-34 -260h194q28 0 25 -28l-27 -232q-3 -24 -27 -24h-206zM922 879h-238l-41 -306h238z" />
<glyph unicode="$" horiz-adv-x="1269" d="M627 907l172 -63q216 -80 301.5 -175t85.5 -261q0 -173 -94.5 -279t-276.5 -137v-199q0 -26 -27 -26h-274q-27 0 -27 26v195q-101 11 -243 57l-135 43q-25 8 -19 33l82 227q10 26 33 17l143 -43q164 -50 299 -50q205 0 205 136q0 81 -184 151l-172 66q-214 79 -298.5 172 t-84.5 258q0 161 92 264t260 139v205q0 12 7.5 19.5t19.5 7.5h272q12 0 19.5 -7.5t7.5 -19.5v-199q89 -15 176 -43l135 -45q24 -8 18 -33l-84 -229q-9 -25 -32 -16l-121 37q-141 43 -244 43q-86 0 -139.5 -34t-53.5 -89q0 -50 42 -81t139 -67z" />
<glyph unicode="%" horiz-adv-x="1611" d="M406 1460q148 0 237.5 -85.5t89.5 -235.5q0 -148 -89.5 -235t-237.5 -87q-149 0 -238.5 87t-89.5 235q0 150 89 235.5t239 85.5zM1407 1403l-932 -1387q-13 -16 -33 -16h-223q-17 0 -21 10t5 23l932 1386q14 17 32 17h224q17 0 21 -10t-5 -23zM406 1243q-43 0 -67 -27 t-24 -77q0 -44 24.5 -73.5t66.5 -29.5q39 0 63.5 29.5t24.5 73.5q0 50 -23.5 77t-64.5 27zM1204 616q150 0 239 -85.5t89 -233.5q0 -150 -88.5 -235t-239.5 -85q-148 0 -235.5 85.5t-87.5 234.5q0 148 88 233.5t235 85.5zM1204 395q-39 0 -62.5 -26t-23.5 -72 q0 -45 24 -73.5t62 -28.5q43 0 67.5 28.5t24.5 73.5q0 47 -24 72.5t-68 25.5z" />
<glyph unicode="&#x26;" horiz-adv-x="1505" d="M1380 0h-325q-22 0 -33 14l-107 119l-49 -33q-201 -123 -372 -123q-193 0 -302.5 103.5t-109.5 286.5q0 118 56 205t181 165l43 27q-59 78 -84.5 149t-25.5 150q0 192 120 302t330 110q128 0 256 -43l129 -46q24 -6 17 -32l-80 -219q-7 -27 -33 -17l-119 41 q-83 25 -170 25q-68 0 -106.5 -31.5t-38.5 -89.5q0 -75 98 -189l314 -356l53 35q38 27 54 46.5t16 47.5v55h-123q-12 0 -19.5 7.5t-7.5 19.5v227q0 12 7.5 19.5t19.5 7.5h397q12 0 19.5 -7.5t7.5 -19.5v-309q0 -82 -19.5 -138.5t-59.5 -100t-116 -93.5l-33 -20l230 -262 q11 -13 6.5 -23t-21.5 -10zM717 358l-164 183l-90 -56q-39 -24 -55.5 -51.5t-16.5 -66.5q0 -47 28 -74t75 -27q86 0 204 80z" />
<glyph unicode="'" horiz-adv-x="495" d="M379 1464v-190q0 -46 -19.5 -164.5t-21.5 -138.5q-3 -25 -27 -25h-127q-23 0 -26 25q-3 32 -22 145.5t-19 157.5v190q0 27 26 27h209q12 0 19.5 -7.5t7.5 -19.5z" />
<glyph unicode="(" horiz-adv-x="784" d="M651 -207h-243q-22 0 -31 19q-219 385 -219 868q0 481 219 866q9 19 31 19h243q15 0 20.5 -8.5t-1.5 -22.5q-51 -106 -85 -190t-68 -192.5t-51 -226.5t-17 -245q0 -128 17 -246.5t51 -227t68 -192.5t85 -190q7 -14 1.5 -22.5t-20.5 -8.5z" />
<glyph unicode=")" horiz-adv-x="784" d="M377 -207h-244q-15 0 -20 8.5t2 22.5q51 106 85 190t68 192.5t51 227t17 246.5q0 127 -17 245t-51 226.5t-68 192.5t-85 190q-7 14 -2 22.5t20 8.5h244q21 0 31 -19q219 -385 219 -866q0 -483 -219 -868q-10 -19 -31 -19z" />
<glyph unicode="*" horiz-adv-x="872" d="M768 1051h-86q-56 0 -104 18q-6 2 -9.5 -3t2.5 -9q43 -27 70 -74l78 -139q7 -14 1.5 -23.5t-22.5 -9.5h-159q-22 0 -31 18l-27 50q-32 57 -37 106q-1 6 -4 8.5t-6 0.5t-4 -9q-4 -42 -37 -106l-28 -50q-9 -18 -31 -18h-160q-34 0 -20 31l75 139q33 50 70 76q6 4 3 9t-9 3 q-41 -18 -98 -18h-91q-26 0 -26 26v150q0 26 26 26h91q46 0 98 -18q6 -2 9 3t-3 9q-51 45 -70 76l-73 135q-8 14 -3.5 23.5t21.5 9.5h164q22 0 31 -18l28 -50q26 -58 33 -102q1 -6 4 -7.5t6 1t4 8.5q7 50 31 96l29 54q9 18 31 18h163q15 0 20.5 -9.5t-1.5 -23.5l-76 -135 q-30 -52 -70 -76q-6 -4 -2.5 -9.5t9.5 -2.5q41 18 106 18h84q27 0 27 -26v-150q0 -26 -27 -26z" />
<glyph unicode="+" horiz-adv-x="1286" d="M1149 647v-231q0 -12 -7.5 -19.5t-19.5 -7.5h-329v-358q0 -12 -7.5 -19.5t-19.5 -7.5h-244q-26 0 -26 27v358h-332q-12 0 -19.5 7.5t-7.5 19.5v231q0 12 7.5 19.5t19.5 7.5h332v358q0 27 26 27h244q12 0 19.5 -7.5t7.5 -19.5v-358h329q12 0 19.5 -7.5t7.5 -19.5z" />
<glyph unicode="," horiz-adv-x="561" d="M285 -336l90 162q94 167 94 309q0 103 -49.5 161t-138.5 58q-90 0 -139.5 -50t-49.5 -144q0 -63 32 -110t83 -62q38 -10 41.5 -30.5t-21.5 -61.5l-129 -232h187z" />
<glyph unicode="-" horiz-adv-x="888" d="M164 674h563q12 0 19.5 -7.5t7.5 -19.5v-229q0 -12 -7.5 -19.5t-19.5 -7.5h-563q-12 0 -19.5 7.5t-7.5 19.5v229q0 12 7.5 19.5t19.5 7.5z" />
<glyph unicode="." horiz-adv-x="579" d="M289 358q89 0 138.5 -49.5t49.5 -140.5q0 -90 -49.5 -140.5t-138.5 -50.5q-88 0 -137.5 51t-49.5 140q0 90 49.5 140t137.5 50z" />
<glyph unicode="/" horiz-adv-x="1171" d="M807 1569h254q15 0 20.5 -8.5t-0.5 -22.5l-667 -1724q-9 -21 -31 -21h-252q-15 0 -20.5 8.5t0.5 22.5l665 1724q9 21 31 21z" />
<glyph unicode="0" horiz-adv-x="1337" d="M668 1475q267 0 421 -202t154 -548t-154 -547t-421 -201t-421.5 201t-154.5 547t154.5 548t421.5 202zM668 1186q-117 0 -182.5 -122t-65.5 -339t65.5 -339t182.5 -122q118 0 182.5 121.5t64.5 339.5t-64.5 339.5t-182.5 121.5z" />
<glyph unicode="1" horiz-adv-x="808" d="M649 0h-270q-12 0 -19.5 7.5t-7.5 19.5v825q0 100 15 172q3 25 -21 25q-11 0 -33 -11l-133 -51q-26 -10 -35 14l-84 226q-10 26 15 35l532 204q20 8 37 -6l14 -12q17 -11 17 -33v-1388q0 -12 -7.5 -19.5t-19.5 -7.5z" />
<glyph unicode="2" horiz-adv-x="1218" d="M137 1374l131 43q180 58 340 58q232 0 364 -112.5t132 -313.5q0 -113 -60 -198.5t-190 -166.5l-309 -190q-51 -31 -79 -89t-28 -122h615q26 0 26 -27v-229q0 -27 -26 -27h-916q-26 0 -26 27v125q0 216 69.5 361.5t214.5 234.5l301 188q80 48 80 113t-44.5 101t-123.5 36 q-122 0 -243 -41l-136 -43q-23 -9 -32 16l-76 223q-9 24 16 33z" />
<glyph unicode="3" horiz-adv-x="1241" d="M168 1382l121 39q151 54 299 54q236 0 369 -108t133 -300q0 -104 -40 -168.5t-126 -110.5q-36 -19 0 -34q108 -50 161.5 -139.5t53.5 -206.5q0 -203 -145.5 -317t-403.5 -114q-154 0 -334 58l-137 47q-27 6 -17 33l84 219q6 26 33 16l131 -43q133 -43 240 -43 q104 0 163.5 48.5t59.5 133.5q0 78 -54.5 125t-148.5 47h-121q-26 0 -26 27v229q0 27 26 27h119q72 0 114 35.5t42 93.5q0 73 -47 114.5t-129 41.5q-99 0 -211 -39l-115 -39q-24 -9 -33 16l-77 226q-6 24 16 32z" />
<glyph unicode="4" horiz-adv-x="1310" d="M1239 590v-230q0 -26 -27 -26h-127v-307q0 -27 -26 -27h-271q-26 0 -26 27v307h-653q-27 0 -27 26v250q0 18 12 33q87 104 158 207l291 401q16 22 119 183q9 18 30 18h367q26 0 26 -27v-809h127q27 0 27 -26zM762 616v181q0 117 16 245q3 22 -9.5 25.5t-25.5 -16.5 l-211 -291q-42 -61 -90 -107q-13 -13 -8 -25t23 -12h305z" />
<glyph unicode="5" horiz-adv-x="1241" d="M1065 1421l-66 -231q-7 -23 -28 -23h-467v-116q0 -75 -6 -121q-3 -17 4.5 -19.5t29.5 2.5l58 9q62 8 88 8q214 2 341.5 -122t127.5 -339q0 -232 -144 -362t-399 -130q-153 0 -346 62l-139 49q-27 6 -17 33l84 217q8 23 35 16l129 -47q139 -43 254 -43q98 0 155 54.5 t60 150.5q3 80 -46 126t-152 46q-49 0 -152 -14l-223 -31q-20 -3 -35 12l-16 15q-15 12 -15 32v770q0 12 7.5 19.5t19.5 7.5h835q13 0 19.5 -8.5t3.5 -22.5z" />
<glyph unicode="6" d="M918 1419l-234 -319q-58 -80 -119 -129q-18 -15 -10.5 -27t29.5 -4q83 25 178 25q83 0 161 -33.5t139.5 -94.5t98.5 -154t37 -204q0 -236 -146 -369t-405 -133q-263 0 -409.5 137.5t-145.5 381.5q2 186 65.5 341t245.5 402l146 197q11 16 33 16h319q17 0 22 -10t-5 -23z M647 264q104 0 163.5 57t59.5 158q0 94 -60 150.5t-163 56.5q-106 0 -166.5 -56t-60.5 -151q0 -101 60.5 -158t166.5 -57z" />
<glyph unicode="7" horiz-adv-x="1236" d="M1167 1434l7 -9q11 -17 2 -36q-84 -145 -170 -349l-408 -1020q-9 -20 -31 -20h-282q-15 0 -21 9t0 22l354 891q41 103 113 206q13 23 6.5 31t-35.5 8h-583q-12 0 -19.5 7.5t-7.5 19.5v231q0 12 7.5 19.5t19.5 7.5h1018q21 0 30 -18z" />
<glyph unicode="8" horiz-adv-x="1304" d="M651 1475q232 0 367 -105t135 -285q0 -103 -50 -179t-142 -118q-15 -8 -15 -18t15 -16q241 -109 241 -344q0 -201 -147.5 -317t-403.5 -116q-255 0 -402 116t-147 317q0 234 240 344q11 4 15 10t0 12.5t-15 11.5q-92 42 -141 118t-49 179q0 180 134 285t365 105z M651 1186q-82 0 -127 -38t-45 -108q0 -62 45.5 -99.5t126.5 -37.5q82 0 128 37.5t46 99.5q0 70 -45.5 108t-128.5 38zM651 618q-103 0 -162 -47.5t-59 -130.5q0 -85 58.5 -130.5t162.5 -45.5q107 0 165 45t58 131q0 83 -59.5 130.5t-163.5 47.5z" />
<glyph unicode="9" d="M362 33l234 319q58 80 119 129q18 15 10.5 27t-29.5 4q-83 -25 -178 -25q-83 0 -161 33.5t-139.5 94.5t-98.5 154t-37 204q0 236 146 369t405 133q263 0 409.5 -137.5t145.5 -381.5q-2 -186 -65.5 -341t-245.5 -402l-146 -197q-11 -16 -33 -16h-319q-17 0 -22 10t5 23z M633 1188q-104 0 -163.5 -57t-59.5 -158q0 -94 60 -150.5t163 -56.5q106 0 166.5 56t60.5 151q0 101 -60.5 158t-166.5 57z" />
<glyph unicode=":" horiz-adv-x="559" d="M289 1026q89 0 138.5 -49.5t49.5 -140.5q0 -90 -49.5 -140.5t-138.5 -50.5q-88 0 -137.5 51t-49.5 140q0 90 49.5 140t137.5 50zM289 360q89 0 138.5 -49.5t49.5 -140.5q0 -89 -49.5 -139.5t-138.5 -50.5q-88 0 -137.5 50.5t-49.5 139.5q0 90 49.5 140t137.5 50z" />
<glyph unicode=";" horiz-adv-x="561" d="M289 1026q89 0 138.5 -49.5t49.5 -140.5q0 -90 -49.5 -140.5t-138.5 -50.5q-88 0 -137.5 51t-49.5 140q0 90 49.5 140t137.5 50zM285 -330l90 162q94 167 94 309q0 103 -49.5 161t-138.5 58q-90 0 -139.5 -50t-49.5 -144q0 -63 32 -110t83 -62q38 -10 41.5 -30.5 t-21.5 -61.5l-129 -232h187z" />
<glyph unicode="&#x3c;" horiz-adv-x="1288" d="M158 643l962 457q13 6 22 0t9 -21v-262q0 -22 -21 -31l-555 -256l555 -256q21 -9 21 -30v-262q0 -15 -9 -21t-22 0l-962 457q-21 12 -21 33v159q0 21 21 33z" />
<glyph unicode="=" horiz-adv-x="1228" d="M164 911h903q27 0 27 -26v-230q0 -26 -27 -26h-903q-27 0 -27 26v230q0 26 27 26zM164 436h903q27 0 27 -26v-230q0 -26 -27 -26h-903q-27 0 -27 26v230q0 26 27 26z" />
<glyph unicode="&#x3e;" horiz-adv-x="1288" d="M168 1100l962 -457q21 -12 21 -33v-159q0 -21 -21 -33l-962 -457q-13 -6 -22 0t-9 21v262q0 21 21 30l555 256l-555 256q-21 9 -21 31v262q0 15 9 21t22 0z" />
<glyph unicode="?" horiz-adv-x="1191" d="M98 1370l140 47q180 58 348 58q247 0 375.5 -108.5t128.5 -301.5q0 -101 -46.5 -179.5t-148.5 -154.5l-133 -94q-41 -34 -41 -96v-70q0 -12 -7.5 -19.5t-19.5 -7.5h-270q-12 0 -19.5 7.5t-7.5 19.5v70q0 114 38.5 193t135.5 147l142 100q26 17 38.5 35.5t12.5 48.5 q0 40 -52 70t-126 30q-128 0 -252 -41l-131 -43q-26 -10 -33 17l-88 239q-9 25 16 33zM569 356q89 0 139 -50t50 -140q0 -89 -50 -140t-139 -51q-88 0 -137 51t-49 140q0 90 49 140t137 50z" />
<glyph unicode="@" horiz-adv-x="1777" d="M1432 -115l-224 -61q-151 -43 -327 -43q-349 0 -556.5 205t-207.5 540q0 339 208.5 543.5t553.5 204.5q174 0 323.5 -55t251.5 -148t159.5 -218.5t57.5 -264.5q0 -171 -82.5 -256.5t-220.5 -85.5q-113 0 -185.5 64t-135.5 210q-14 30 -24 47.5t-28 39.5t-43 32t-57 10 q-56 0 -92.5 -32t-36.5 -87q0 -56 37.5 -88t101.5 -32q40 0 76 10q15 6 27 -19q52 -113 129 -168q14 -10 13.5 -20t-17.5 -14l-95 -25q-64 -18 -139 -18q-184 0 -288.5 99t-104.5 277q0 169 97.5 267t275.5 98q111 0 190.5 -35t140.5 -108q34 -42 60 -92.5t37 -83 t26.5 -54.5t34.5 -22q39 0 39 86q0 180 -150.5 306t-377.5 126q-222 0 -360 -136t-138 -358q0 -220 137.5 -354.5t362.5 -134.5q134 0 260 39l217 57q24 6 33 -18l59 -195q9 -26 -18 -35z" />
<glyph unicode="A" horiz-adv-x="1531" d="M1067 193h-602l-62 -173q-9 -20 -30 -20h-289q-15 0 -21.5 8.5t-1.5 22.5l289 782q133 367 195 617q6 22 30 22h381q25 0 31 -22q62 -250 195 -617l288 -782q5 -14 -1 -22.5t-21 -8.5h-289q-22 0 -31 20zM963 481l-29 82q-120 331 -150 488q-3 12 -10.5 16.5t-15 0 t-10.5 -16.5q-33 -163 -150 -488l-29 -82h394z" />
<glyph unicode="B" horiz-adv-x="1349" d="M160 1452h557q236 0 370 -103t134 -286q0 -63 -17 -115.5t-45 -85.5t-52.5 -52t-49.5 -32q-15 -6 -21 -13.5t-1 -15.5t20 -14q34 -13 66 -35t67 -60t56.5 -98t21.5 -134q0 -192 -134.5 -300t-375.5 -108h-596q-12 0 -19.5 7.5t-7.5 19.5v1398q0 12 7.5 19.5t19.5 7.5z M465 1161v-270h227q195 0 195 137q0 63 -44.5 98t-125.5 35h-252zM465 602v-313h287q86 0 133 39.5t47 109.5q0 84 -52.5 124t-164.5 40h-250z" />
<glyph unicode="C" d="M1161 59l-98 -32q-150 -50 -307 -50q-308 0 -486 201.5t-178 548.5q0 345 178 546.5t486 201.5q172 0 305 -43l94 -31q25 -9 16 -33l-73 -231q-10 -26 -33 -17l-96 31q-88 27 -213 27q-154 0 -242 -119t-88 -332q0 -216 87.5 -335.5t242.5 -119.5q119 0 211 31l96 29 q26 10 33 -17l82 -223q9 -24 -17 -33z" />
<glyph unicode="D" horiz-adv-x="1415" d="M160 1452h508q306 0 480.5 -196t174.5 -531q0 -327 -178 -526t-477 -199h-508q-12 0 -19.5 7.5t-7.5 19.5v1398q0 12 7.5 19.5t19.5 7.5zM465 1161v-872h203q150 0 235.5 114t85.5 322q0 209 -85 322.5t-236 113.5h-203z" />
<glyph unicode="E" horiz-adv-x="1255" d="M465 891h502q26 0 26 -27v-235q0 -27 -26 -27h-502v-313h670q26 0 26 -27v-235q0 -27 -26 -27h-975q-12 0 -19.5 7.5t-7.5 19.5v1398q0 12 7.5 19.5t19.5 7.5h985q13 0 19 -8.5t3 -22.5l-65 -237q-7 -23 -29 -23h-608v-270z" />
<glyph unicode="F" horiz-adv-x="1245" d="M465 821h522q27 0 27 -26v-236q0 -12 -7.5 -19.5t-19.5 -7.5h-522v-505q0 -12 -7.5 -19.5t-19.5 -7.5h-278q-12 0 -19.5 7.5t-7.5 19.5v1398q0 12 7.5 19.5t19.5 7.5h985q13 0 19 -8.5t3 -22.5l-65 -237q-7 -23 -29 -23h-608v-340z" />
<glyph unicode="G" horiz-adv-x="1409" d="M836 821h434q26 0 26 -26v-678q0 -23 -22 -29l-191 -59l-24 -9q-77 -24 -143.5 -33.5t-161.5 -9.5q-308 0 -485 201.5t-177 546.5q0 347 177 548.5t485 201.5q149 0 303 -48l106 -34q26 -9 17 -33l-84 -225q-7 -27 -33 -17l-98 31q-86 29 -211 29q-154 0 -241 -120 t-87 -333q0 -212 87 -332.5t241 -120.5q124 0 204 27l23 6v225h-219q-13 0 -19.5 8.5t-3.5 22.5l68 238q6 22 29 22z" />
<glyph unicode="H" horiz-adv-x="1462" d="M1327 1425v-1398q0 -12 -7.5 -19.5t-19.5 -7.5h-276q-12 0 -19.5 7.5t-7.5 19.5v575h-532v-575q0 -12 -7.5 -19.5t-19.5 -7.5h-278q-12 0 -19.5 7.5t-7.5 19.5v1398q0 12 7.5 19.5t19.5 7.5h278q12 0 19.5 -7.5t7.5 -19.5v-534h532v534q0 12 7.5 19.5t19.5 7.5h276 q12 0 19.5 -7.5t7.5 -19.5z" />
<glyph unicode="I" horiz-adv-x="598" d="M465 1425v-1398q0 -12 -7.5 -19.5t-19.5 -7.5h-278q-12 0 -19.5 7.5t-7.5 19.5v1398q0 12 7.5 19.5t19.5 7.5h278q12 0 19.5 -7.5t7.5 -19.5z" />
<glyph unicode="J" horiz-adv-x="972" d="M848 1425v-942q0 -238 -124.5 -372t-348.5 -134q-117 0 -232 43l-57 21q-23 6 -16 33l84 225q6 26 32 16l60 -20q62 -23 129 -23q66 0 104.5 50.5t38.5 158.5v944q0 12 7.5 19.5t19.5 7.5h276q12 0 19.5 -7.5t7.5 -19.5z" />
<glyph unicode="K" horiz-adv-x="1435" d="M1325 1421l-217 -415q-89 -177 -256 -242q-8 -3 -9 -11.5t9 -13.5q175 -78 268 -262l238 -446q8 -13 2 -22t-23 -9h-305q-22 0 -31 18l-165 318q-66 125 -153 195.5t-175 70.5h-43v-575q0 -12 -7.5 -19.5t-19.5 -7.5h-278q-12 0 -19.5 7.5t-7.5 19.5v1398q0 12 7.5 19.5 t19.5 7.5h278q12 0 19.5 -7.5t7.5 -19.5v-534h41q88 0 171.5 65t143.5 179l156 299q9 18 31 18h299q15 0 20 -9t-2 -22z" />
<glyph unicode="L" horiz-adv-x="1179" d="M465 289h594q26 0 26 -27v-235q0 -27 -26 -27h-899q-12 0 -19.5 7.5t-7.5 19.5v1398q0 12 7.5 19.5t19.5 7.5h278q12 0 19.5 -7.5t7.5 -19.5v-1136z" />
<glyph unicode="M" horiz-adv-x="1730" d="M1597 1425v-1398q0 -27 -26 -27h-277q-26 0 -26 27v432q0 336 24 516q3 22 -9.5 25t-18.5 -17q-23 -63 -66 -166l-113 -311q-8 -25 -31 -95.5t-36 -109.5q-6 -22 -29 -22h-248q-23 0 -28 22q-63 186 -70 205l-113 313q-10 28 -31.5 82t-31.5 82q-8 20 -21 17t-10 -25 q29 -217 29 -516v-432q0 -12 -7.5 -19.5t-19.5 -7.5h-278q-12 0 -19.5 7.5t-7.5 19.5v1398q0 12 7.5 19.5t19.5 7.5h413q23 0 29 -22q29 -92 45 -140l107 -309q63 -181 96 -311q3 -12 9.5 -16.5t13.5 0t10 16.5q42 172 90 311l110 309q24 62 45 140q6 22 31 22h412 q26 0 26 -27z" />
<glyph unicode="N" horiz-adv-x="1499" d="M1366 1425v-1398q0 -12 -7.5 -19.5t-19.5 -7.5h-364q-22 0 -31 20q-30 69 -102 218l-291 589q-18 36 -74 154q-12 22 -24.5 17.5t-10.5 -25.5q23 -165 23 -373v-573q0 -12 -7.5 -19.5t-19.5 -7.5h-278q-12 0 -19.5 7.5t-7.5 19.5v1398q0 12 7.5 19.5t19.5 7.5h364 q22 0 31 -20q31 -67 104 -218l293 -593q51 -109 74 -150q10 -24 23 -19.5t10 27.5q-23 146 -23 369v577q0 12 7.5 19.5t19.5 7.5h276q12 0 19.5 -7.5t7.5 -19.5z" />
<glyph unicode="O" horiz-adv-x="1488" d="M745 1475q302 0 477 -201t175 -547q0 -345 -175 -547.5t-477 -202.5q-303 0 -478 202t-175 548t174.5 547t478.5 201zM745 1178q-150 0 -234.5 -118.5t-84.5 -332.5q0 -211 85 -333t234 -122t233.5 122t84.5 333q0 214 -84 332.5t-234 118.5z" />
<glyph unicode="P" horiz-adv-x="1323" d="M160 1452h553q245 0 381.5 -127.5t136.5 -355.5q0 -239 -155 -372.5t-435 -133.5h-176v-436q0 -12 -7.5 -19.5t-19.5 -7.5h-278q-12 0 -19.5 7.5t-7.5 19.5v1398q0 12 7.5 19.5t19.5 7.5zM465 1161v-409h176q121 0 188.5 57t67.5 160q0 91 -48 141.5t-136 50.5h-248z" />
<glyph unicode="Q" horiz-adv-x="1490" d="M1503 -195l-205 -159q-19 -16 -36 4l-99 131q-72 97 -169 146.5t-249 49.5q-301 0 -477 202t-176 546q0 346 176 548t477 202t476.5 -202t175.5 -548q0 -180 -59.5 -336.5t-159.5 -216.5q-13 -7 -17 -12t0 -9t17 -8q84 -30 135 -69.5t102 -106.5l92 -125q17 -20 -4 -37z M426 725q0 -210 86 -331.5t233 -121.5q149 0 233.5 121t84.5 332q0 215 -84 334t-234 119q-148 0 -233.5 -120t-85.5 -333z" />
<glyph unicode="R" horiz-adv-x="1398" d="M160 1452h571q244 0 380 -117t136 -327q0 -131 -69 -226.5t-172 -140.5q-14 -7 -18.5 -13.5t-0.5 -12.5t17 -13q103 -63 178 -225l143 -346q5 -14 -1 -22.5t-19 -8.5h-295q-22 0 -31 20l-90 220q-25 59 -45 97.5t-50.5 75.5t-66 57.5t-87 33t-118.5 12.5h-57v-489 q0 -12 -7.5 -19.5t-19.5 -7.5h-278q-12 0 -19.5 7.5t-7.5 19.5v1398q0 12 7.5 19.5t19.5 7.5zM465 805h223q115 0 170 43.5t55 134.5q0 81 -50 129.5t-132 48.5h-266v-356z" />
<glyph unicode="S" horiz-adv-x="1269" d="M668 559l-172 66q-214 79 -298.5 172t-84.5 258q0 199 140.5 309.5t385.5 110.5q168 0 328 -54l135 -45q24 -8 18 -33l-84 -229q-9 -25 -32 -16l-121 37q-141 43 -244 43q-86 0 -139.5 -34t-53.5 -89q0 -50 42 -81t139 -67l172 -63q216 -80 301.5 -175t85.5 -261 q0 -210 -138.5 -320.5t-400.5 -110.5q-193 0 -403 68l-135 43q-25 8 -19 33l82 227q10 26 33 17l143 -43q164 -50 299 -50q205 0 205 136q0 81 -184 151z" />
<glyph unicode="T" horiz-adv-x="1335" d="M1264 1425v-237q0 -12 -7.5 -19.5t-19.5 -7.5h-403v-1134q0 -12 -7.5 -19.5t-19.5 -7.5h-277q-26 0 -26 27v1134h-406q-26 0 -26 27v237q0 27 26 27h1139q12 0 19.5 -7.5t7.5 -19.5z" />
<glyph unicode="U" horiz-adv-x="1388" d="M1274 1425v-825q0 -297 -152 -460t-428 -163q-275 0 -428 163t-153 460v825q0 27 26 27h279q26 0 26 -27v-825q0 -158 65.5 -243t184.5 -85t184.5 85t65.5 243v825q0 12 7.5 19.5t19.5 7.5h276q12 0 19.5 -7.5t7.5 -19.5z" />
<glyph unicode="V" horiz-adv-x="1488" d="M1438 1421l-289 -784q-119 -326 -193 -614q-7 -23 -30 -23h-363q-24 0 -31 23q-77 298 -192 614l-289 784q-5 14 1.5 22.5t21.5 8.5h288q22 0 31 -20l197 -543q95 -262 135 -473q2 -13 10.5 -18t17.5 0t11 18q40 211 135 473l197 543q9 20 30 20h289q15 0 21.5 -8.5 t1.5 -22.5z" />
<glyph unicode="W" horiz-adv-x="2084" d="M2015 1423l-252 -983q-52 -196 -94 -415q-3 -25 -29 -25h-374q-26 0 -29 25q-40 209 -74 340l-63 266q-22 98 -41 211q-2 14 -9.5 19.5t-14.5 0t-9 -19.5q-16 -98 -41 -211l-63 -266q-21 -89 -74 -340q-3 -25 -29 -25h-375q-25 0 -28 25q-42 219 -94 415l-252 983 q-4 12 2 20.5t20 8.5h283q25 0 31 -22l139 -553q55 -219 76 -451q2 -21 17.5 -21t18.5 21q34 248 91 451l149 553q6 22 29 22h233q23 0 29 -22l151 -553q57 -203 91 -451q2 -21 17 -21t17 21q16 213 76 451l139 553q6 22 31 22h283q14 0 20 -8.5t2 -20.5z" />
<glyph unicode="X" horiz-adv-x="1472" d="M1358 1421l-250 -473q-66 -133 -186 -203q-9 -6 -9 -16q0 -5 3 -8.5t10.5 -7t9.5 -4.5q111 -74 176 -203l252 -475q8 -13 2 -22t-23 -9h-301q-21 0 -30 18l-258 480q-8 16 -13 20.5t-10.5 0t-13.5 -20.5l-256 -480q-9 -18 -31 -18h-301q-17 0 -22.5 9t2.5 22l251 475 q70 131 177 203q2 2 6.5 4t7 3.5t4.5 5t2 7.5q3 10 -8 16q-117 72 -184 201l-250 475q-7 13 -2 22t20 9h301q22 0 31 -18l248 -473q23 -48 45 0l250 473q9 18 30 18h301q15 0 20.5 -9t-1.5 -22z" />
<glyph unicode="Y" horiz-adv-x="1425" d="M1368 1421l-256 -479q-57 -109 -77.5 -149t-57 -116.5t-47.5 -113.5t-27 -99t-20 -118t-4 -127v-192q0 -12 -7.5 -19.5t-19.5 -7.5h-277q-26 0 -26 27v192q0 72 -4 128t-19.5 116.5t-28 100.5t-47 112.5t-58 117t-79.5 148.5l-256 479q-8 13 -2 22t23 9h301q22 0 31 -18 l143 -263q74 -136 141 -319q6 -19 19.5 -19t19.5 19q49 146 141 319l142 263q9 18 31 18h301q17 0 22.5 -9t-2.5 -22z" />
<glyph unicode="Z" horiz-adv-x="1302" d="M129 1188v237q0 12 7.5 19.5t19.5 7.5h1007q22 0 31 -18l4 -7q12 -18 0 -36q-105 -158 -201 -347l-254 -491q-74 -136 -143 -229q-13 -20 -8.5 -27.5t29.5 -7.5h192h336q13 0 19 -8.5t3 -22.5l-65 -235q-7 -23 -29 -23h-927q-22 0 -31 18l-4 7q-12 18 0 36q18 27 34 53 t28 45t27 45.5t22.5 40t22.5 42t20 38.5t22 43t22 42l254 489q82 174 133 227q15 14 12 24.5t-22 10.5h-188h-346q-12 0 -19.5 7.5t-7.5 19.5z" />
<glyph unicode="[" horiz-adv-x="798" d="M471 78h168q12 0 19.5 -7.5t7.5 -19.5v-231q0 -12 -7.5 -19.5t-19.5 -7.5h-438q-12 0 -19.5 7.5t-7.5 19.5v1718q0 12 7.5 19.5t19.5 7.5h438q12 0 19.5 -7.5t7.5 -19.5v-233q0 -12 -7.5 -19.5t-19.5 -7.5h-168v-1200z" />
<glyph unicode="\" horiz-adv-x="1171" d="M395 1548l666 -1724q6 -13 0 -22t-21 -9h-252q-21 0 -30 21l-668 1724q-6 13 0 22t21 9h254q21 0 30 -21z" />
<glyph unicode="]" horiz-adv-x="798" d="M328 1278h-168q-12 0 -19.5 7.5t-7.5 19.5v233q0 12 7.5 19.5t19.5 7.5h438q12 0 19.5 -7.5t7.5 -19.5v-1718q0 -12 -7.5 -19.5t-19.5 -7.5h-438q-12 0 -19.5 7.5t-7.5 19.5v231q0 12 7.5 19.5t19.5 7.5h168v1200z" />
<glyph unicode="^" horiz-adv-x="1089" d="M975 715h-289q-22 0 -31 20l-110 291l-113 -291q-9 -20 -31 -20h-288q-15 0 -21 8.5t0 21.5l311 672q12 21 33 21h215q21 0 33 -21l311 -672q6 -13 0.5 -21.5t-20.5 -8.5z" />
<glyph unicode="_" horiz-adv-x="1095" d="M-4 -164h1104q26 0 26 -26v-230q0 -26 -26 -26h-1104q-27 0 -27 26v230q0 26 27 26z" />
<glyph unicode="`" horiz-adv-x="698" d="M135 1491h301q22 0 31 -21l123 -299q6 -13 -0.5 -21.5t-20.5 -8.5h-219q-20 0 -33 16l-200 301q-8 14 -3.5 23.5t21.5 9.5z" />
<glyph unicode="a" horiz-adv-x="1073" d="M170 973l80 22q125 33 225 33q233 0 363.5 -105t130.5 -292v-604q0 -12 -7.5 -19.5t-19.5 -7.5h-154q-20 0 -32 18l-19 37q-18 39 -65 0q-88 -78 -221 -78q-183 0 -286.5 86.5t-103.5 241.5q0 142 107.5 222.5t298.5 80.5h192v4q-6 66 -59 103t-141 37q-54 0 -133 -21 l-78 -22q-24 -6 -33 18l-63 213q-9 27 18 33zM659 406h-192q-44 0 -73 -22t-29 -56q0 -43 30.5 -66.5t85.5 -23.5q161 0 178 163v5z" />
<glyph unicode="b" horiz-adv-x="1173" d="M438 1464v-223q0 -85 -10 -138.5t-39 -113.5q-12 -27 0 -38t37 7q99 70 231 70q204 0 323.5 -141.5t119.5 -382.5q0 -244 -133.5 -385.5t-366.5 -141.5q-137 0 -250 46l-217 86q-20 9 -20 30v1325q0 27 26 27h273q26 0 26 -27zM434 309l41 -18q71 -27 125 -27 q86 0 134 63.5t48 176.5q0 111 -47.5 173t-130.5 62q-86 0 -128 -54.5t-42 -145.5v-230z" />
<glyph unicode="c" horiz-adv-x="985" d="M877 31l-117 -33q-75 -21 -176 -21q-244 0 -378 140.5t-134 386.5q0 245 134.5 384.5t383.5 139.5q90 0 164 -20l112 -31q28 -9 19 -35l-66 -225q-9 -25 -33 -19l-81 23q-62 18 -115 18q-102 0 -151.5 -60.5t-49.5 -172.5q0 -116 50.5 -179t148.5 -63q53 0 125 21l82 20 q23 6 32 -18l68 -224q9 -26 -18 -32z" />
<glyph unicode="d" horiz-adv-x="1173" d="M1059 1464v-1437q0 -12 -7.5 -19.5t-19.5 -7.5h-143q-22 0 -31 18l-33 50q-20 31 -51 0q-102 -91 -260 -91q-205 0 -323.5 142t-118.5 385q0 242 127.5 383t349.5 141q84 0 133 -24l53 -23v483q0 12 7.5 19.5t19.5 7.5h270q12 0 19.5 -7.5t7.5 -19.5zM739 696l-41 19 q-60 24 -127 24q-86 0 -134 -62t-48 -173q2 -111 50.5 -175.5t135.5 -64.5q76 0 120 54t44 141v237z" />
<glyph unicode="e" horiz-adv-x="1067" d="M911 31l-127 -31q-104 -23 -194 -23q-249 0 -383.5 140t-134.5 385t134 385.5t374 140.5q191 0 302 -93.5t111 -252.5q0 -123 -86.5 -194.5t-263.5 -96.5l-240 -35q29 -54 72.5 -78t114.5 -24q63 0 131 14l123 27q24 6 30 -19l58 -213q6 -25 -21 -32zM383 565l213 33 q94 9 94 80q0 74 -123 74q-72 0 -126 -48t-58 -139z" />
<glyph unicode="f" horiz-adv-x="845" d="M195 1006v88q0 197 115 308t319 111q80 0 159 -26l43 -12q26 -10 17 -33l-68 -225q-10 -25 -32 -17l-35 10q-50 15 -84 15q-51 0 -81 -35t-30 -96v-88h232q26 0 26 -27v-231q0 -27 -26 -27h-232v-694q0 -27 -26 -27h-271q-26 0 -26 27v694h-107q-12 0 -19.5 7.5 t-7.5 19.5v231q0 12 7.5 19.5t19.5 7.5h107z" />
<glyph unicode="g" horiz-adv-x="1163" d="M285 -141l80 -23q65 -18 147 -18q218 0 281 157q12 27 12 64q0 11 -7 14.5t-26 -6.5q-93 -70 -246 -70q-213 0 -333.5 140.5t-120.5 378.5q0 251 133.5 391.5t369.5 140.5q142 0 248 -43l215 -86q21 -9 21 -31v-823q0 -250 -140 -383t-393 -133q-130 0 -211 22l-112 31 q-28 9 -19 35l68 223q9 25 33 19zM739 696l-41 19q-55 24 -125 24q-88 0 -136 -62t-48 -175q0 -109 46.5 -173.5t129.5 -64.5q85 0 129.5 49t44.5 158v225z" />
<glyph unicode="h" horiz-adv-x="1134" d="M438 1464v-223q0 -83 -11.5 -141t-39.5 -117q-10 -20 0 -30t35 3q104 72 221 72q182 0 285.5 -100t103.5 -279v-622q0 -27 -26 -27h-273q-26 0 -26 27v581q0 63 -30.5 97t-84.5 34q-72 0 -112.5 -53t-41.5 -156v-503q0 -27 -26 -27h-273q-26 0 -26 27v1437q0 27 26 27 h273q26 0 26 -27z" />
<glyph unicode="i" horiz-adv-x="632" d="M330 1511q88 0 135 -48.5t47 -137.5q0 -88 -47.5 -138t-134.5 -50q-86 0 -134.5 50t-48.5 138q0 89 48 137.5t135 48.5zM518 979v-952q0 -27 -26 -27h-271q-26 0 -26 27v694h-107q-12 0 -19.5 7.5t-7.5 19.5v231q0 12 7.5 19.5t19.5 7.5h404q26 0 26 -27z" />
<glyph unicode="j" horiz-adv-x="632" d="M332 1511q88 0 135 -48.5t47 -137.5q0 -88 -47.5 -138t-134.5 -50q-86 0 -134 50t-48 138q0 89 47.5 137.5t134.5 48.5zM518 979v-946q0 -153 -74.5 -265.5t-234.5 -205.5l-45 -25q-22 -16 -35 10l-115 217q-12 22 11 35l36 23q69 40 101.5 90.5t32.5 120.5v688h-107 q-12 0 -19.5 7.5t-7.5 19.5v231q0 12 7.5 19.5t19.5 7.5h404q26 0 26 -27z" />
<glyph unicode="k" horiz-adv-x="1165" d="M913 369l174 -338q7 -13 2 -22t-20 -9h-293q-21 0 -33 18l-110 220q-35 65 -74 97t-104 32h-17v-340q0 -27 -26 -27h-273q-26 0 -26 27v1437q0 27 26 27h273q26 0 26 -27v-813h19q32 0 56.5 10.5t45 34t32 42.5t30.5 55l100 194q13 19 33 19h293q15 0 20 -9t-2 -22 l-164 -320q-49 -93 -149 -133q-5 -2 -5.5 -7.5t5.5 -8.5q120 -55 161 -137z" />
<glyph unicode="l" horiz-adv-x="649" d="M438 1464v-1161q0 -39 27 -39h12q26 7 35 -14l84 -213q10 -26 -12 -35q-58 -25 -119 -25q-165 0 -258.5 86.5t-93.5 239.5v1161q0 27 26 27h273q26 0 26 -27z" />
<glyph unicode="m" horiz-adv-x="1695" d="M315 987l27 -43q15 -23 28 -22.5t38 22.5q102 84 225 84q67 0 133.5 -24t114.5 -68q19 -17 35 -20.5t28.5 2t32.5 20.5q111 90 233 90q184 0 282.5 -99t98.5 -280v-622q0 -27 -26 -27h-271q-26 0 -26 27v581q0 131 -109 131q-71 0 -108 -53.5t-37 -155.5v-503 q0 -12 -7.5 -19.5t-19.5 -7.5h-270q-12 0 -19.5 7.5t-7.5 19.5v585q0 127 -108 127q-144 0 -144 -209v-503q0 -27 -26 -27h-273q-26 0 -26 27v952q0 27 26 27h146q21 0 30 -19z" />
<glyph unicode="n" horiz-adv-x="1134" d="M315 987l27 -43q15 -23 27.5 -23t36.5 21q101 86 237 86q182 0 285.5 -100t103.5 -279v-622q0 -27 -26 -27h-273q-26 0 -26 27v581q0 63 -30.5 97t-84.5 34q-74 0 -114 -53.5t-40 -155.5v-503q0 -27 -26 -27h-273q-26 0 -26 27v952q0 27 26 27h146q21 0 30 -19z" />
<glyph unicode="o" horiz-adv-x="1142" d="M571 1028q230 0 364 -142t134 -382q0 -243 -134 -385t-364 -142q-231 0 -365 142t-134 385q0 240 134 382t365 142zM571 739q-85 0 -133.5 -62.5t-48.5 -172.5q0 -112 48.5 -176t133.5 -64q84 0 132.5 64t48.5 176q0 110 -48.5 172.5t-132.5 62.5z" />
<glyph unicode="p" horiz-adv-x="1173" d="M315 987l31 -49q19 -30 51 -2q107 92 262 92q204 0 322.5 -141t118.5 -383q0 -244 -127 -385.5t-348 -141.5q-77 0 -138 25l-49 21v-445q0 -27 -26 -27h-273q-26 0 -26 27v1401q0 27 26 27h146q21 0 30 -19zM434 309l41 -18q52 -27 125 -27q88 0 135 63t47 177 q0 111 -48.5 173t-135.5 62q-78 0 -121 -54t-43 -148v-228z" />
<glyph unicode="q" horiz-adv-x="1163" d="M735 -422v186q0 88 12 144t39 115q10 19 -1 30.5t-35 -4.5q-97 -72 -234 -72q-205 0 -324.5 141.5t-119.5 383.5q0 243 134 384.5t365 141.5q141 0 252 -45l215 -86q21 -9 21 -31v-1288q0 -12 -7.5 -19.5t-19.5 -7.5h-270q-12 0 -19.5 7.5t-7.5 19.5zM739 696l-37 17 q-65 26 -131 26q-86 0 -134 -62.5t-48 -174.5q0 -110 46 -174t126 -64q87 0 132.5 51t45.5 150v231z" />
<glyph unicode="r" horiz-adv-x="851" d="M760 1001v-235q0 -27 -27 -27q-115 -5 -177.5 -56.5t-90 -166t-27.5 -323.5v-166q0 -27 -26 -27h-273q-26 0 -26 27v952q0 27 26 27h146q21 0 30 -19l54 -82q14 -22 22.5 -23.5t28.5 17.5q66 69 135.5 97.5t177.5 31.5q12 0 19.5 -7.5t7.5 -19.5z" />
<glyph unicode="s" horiz-adv-x="991" d="M551 369l-162 41q-150 34 -219.5 103.5t-69.5 186.5q0 155 105.5 241.5t294.5 86.5q113 0 266 -33l102 -24q12 -3 17.5 -12t1.5 -21l-62 -213q-6 -24 -30 -18l-105 24q-96 21 -190 21q-40 0 -62 -13.5t-22 -38.5q0 -16 14 -31t39 -22l174 -41q148 -35 216.5 -107 t68.5 -192q0 -155 -105.5 -242.5t-292.5 -87.5q-166 0 -313 37l-108 27q-12 3 -17.5 12t-1.5 21l62 217q6 24 30 18l97 -24q59 -15 136 -24t115 -9q80 0 80 55q0 48 -59 62z" />
<glyph unicode="t" horiz-adv-x="858" d="M518 1006h232q26 0 26 -27v-231q0 -27 -26 -27h-232v-373q0 -40 14 -62t39 -22q31 0 52 8q25 9 36 -12l97 -197q10 -24 -8 -36q-74 -50 -177 -50q-178 0 -277 98t-99 273v373h-107q-12 0 -19.5 7.5t-7.5 19.5v231q0 12 7.5 19.5t19.5 7.5h107v223q0 23 22 31l270 90 q14 5 22.5 -1.5t8.5 -21.5v-321z" />
<glyph unicode="u" horiz-adv-x="1134" d="M819 18l-26 43q-15 23 -27.5 23t-36.5 -21q-101 -86 -237 -86q-182 0 -286 100t-104 279v623q0 12 7.5 19.5t19.5 7.5h272q12 0 19.5 -7.5t7.5 -19.5v-582q0 -63 30.5 -97t84.5 -34q74 0 113.5 53.5t39.5 155.5v504q0 12 7.5 19.5t19.5 7.5h272q12 0 19.5 -7.5t7.5 -19.5 v-952q0 -12 -7.5 -19.5t-19.5 -7.5h-145q-22 0 -31 18z" />
<glyph unicode="v" horiz-adv-x="1157" d="M1104 975l-139 -375q-129 -344 -193 -577q-7 -23 -29 -23h-327q-22 0 -29 23q-63 226 -192 577l-142 375q-6 13 0 22t21 9h280q22 0 31 -21l61 -172q84 -236 115 -430q2 -13 10.5 -18t16.5 0t10 18q26 196 113 430l61 172q9 21 31 21h280q15 0 21 -9t0 -22z" />
<glyph unicode="w" horiz-adv-x="1697" d="M1626 975l-139 -506q-87 -316 -117 -446q-7 -23 -31 -23h-335q-24 0 -31 23l-43 176l-23 84q-10 38 -45 188q-3 13 -8.5 18t-11 0t-8.5 -18q-37 -163 -43 -188l-23 -84q-29 -110 -43 -176q-7 -23 -31 -23h-336q-23 0 -30 23q-20 88 -117 446l-141 506q-3 14 3 22.5 t19 8.5h273q23 0 30 -23l47 -197q50 -213 86 -413q2 -13 10.5 -18t17 0t11.5 18q14 62 33 135.5t47.5 177t42.5 156.5l37 141q7 23 31 23h182q22 0 29 -23l39 -141q93 -339 122 -469q3 -13 11 -18t16 0t10 18q31 189 86 413l47 197q7 23 31 23h273q13 0 19 -8.5t3 -22.5z " />
<glyph unicode="x" horiz-adv-x="1134" d="M1051 973l-172 -309q-27 -49 -64.5 -88t-73.5 -56q-17 -10 -2 -18q89 -60 142 -154l174 -315q8 -13 3 -23t-22 -10h-297q-20 0 -32 18l-121 234q-18 34 -35 0l-123 -234q-9 -18 -31 -18h-299q-17 0 -21.5 10t3.5 23l174 315q65 108 141 154q15 8 -2 18q-33 19 -71.5 59 t-65.5 85l-172 309q-8 13 -3.5 23t21.5 10h295q21 0 31 -19l123 -235q16 -37 35 0l121 235q13 19 32 19h293q17 0 22 -10t-3 -23z" />
<glyph unicode="y" horiz-adv-x="1157" d="M1104 975l-522 -1403q-9 -21 -31 -21h-275q-15 0 -20.5 8.5t0.5 22.5l74 199q35 93 38.5 179.5t-17 174.5t-70.5 225l-228 615q-6 13 0 22t21 9h280q22 0 31 -21l82 -231q69 -199 94 -375q3 -17 18.5 -17t18.5 19q10 73 38 183t56 190l80 229q9 23 31 23h280q15 0 21 -9 t0 -22z" />
<glyph unicode="z" horiz-adv-x="1009" d="M928 989q10 -17 -2 -35q-47 -69 -103 -182l-159 -321q-46 -86 -95 -146q-8 -9 -5 -15.5t16 -6.5h127h184q13 0 19 -8.5t3 -22.5l-65 -229q-7 -23 -29 -23h-688q-22 0 -31 18q-9 14 4 33q53 81 109 189l156 313q42 86 98 145q20 23 -10 23h-127h-187q-26 0 -26 27v231 q0 27 26 27h754q23 0 31 -17z" />
<glyph unicode="{" horiz-adv-x="841" d="M727 1554v-233q0 -26 -27 -29q-70 -6 -108.5 -48.5t-38.5 -113.5v-194q0 -167 -127 -238q-14 -8 -14 -17t14 -17q127 -71 127 -244v-187q0 -74 38.5 -117.5t108.5 -49.5q27 -3 27 -29v-230q0 -26 -27 -26q-210 8 -326 125.5t-116 326.5v189q0 56 -28 86.5t-80 30.5h-21 q-27 0 -27 26v232q0 26 27 26h21q52 0 80 30.5t28 84.5v192q0 206 116.5 325t325.5 126q12 0 19.5 -7.5t7.5 -19.5z" />
<glyph unicode="|" horiz-adv-x="647" d="M473 1546v-1970q0 -12 -7.5 -19.5t-19.5 -7.5h-243q-12 0 -19.5 7.5t-7.5 19.5v1970q0 12 7.5 19.5t19.5 7.5h243q12 0 19.5 -7.5t7.5 -19.5z" />
<glyph unicode="}" horiz-adv-x="841" d="M115 1321v233q0 27 26 27q209 -7 326 -126t117 -325v-192q0 -54 28 -84.5t80 -30.5h21q26 0 26 -26v-232q0 -26 -26 -26h-21q-52 0 -80 -30.5t-28 -86.5v-189q0 -208 -116.5 -326t-326.5 -126q-26 0 -26 26v230q0 26 26 29q70 6 109 49.5t39 117.5v187q0 173 127 244 q14 8 14 17t-14 17q-127 71 -127 238v194q0 71 -39 113.5t-109 48.5q-26 3 -26 29z" />
<glyph unicode="~" horiz-adv-x="1222" d="M96 549l129 221q92 158 250 158q86 0 150 -49l88 -76q21 -12 35 -12q17 0 26 20l53 94q9 19 31 19h250q17 0 21.5 -10t-3.5 -23l-127 -227q-84 -152 -249 -152q-91 0 -150 49l-98 76q-14 12 -23 12q-16 0 -30 -26l-54 -88q-9 -19 -30 -19h-250q-15 0 -20.5 10t1.5 23z " />
<glyph unicode="&#xa2;" horiz-adv-x="978" d="M870 477l-116 -33q-9 -3 -39 -8v-196q0 -12 -7.5 -19.5t-19.5 -7.5h-244q-26 0 -26 27v202q-166 43 -256 175.5t-90 332.5q0 198 89.5 331t256.5 175v195q0 26 26 26h244q27 0 27 -26v-189l33 -8l114 -31q27 -7 19 -32l-68 -226q-9 -24 -33 -18l-82 22q-65 19 -114 19 q-101 0 -150 -61.5t-49 -174.5q0 -116 49.5 -178.5t147.5 -62.5q51 0 125 18l81 23q24 6 33 -19l68 -223q9 -27 -19 -33z" />
<glyph unicode="&#xa3;" horiz-adv-x="1245" d="M815 287h305q12 0 19.5 -7.5t7.5 -19.5v-233q0 -12 -7.5 -19.5t-19.5 -7.5h-938q-21 0 -30 18l-5 7q-11 17 -2 36l37 62q28 44 45 119.5t17 148.5v162h-150q-26 0 -26 27v235q0 27 26 27h150v135q0 232 140 365t374 133q122 0 256 -54l63 -22q25 -9 15 -35l-91 -225 q-9 -24 -34 -15l-64 25q-85 29 -145 29q-85 0 -139 -53t-54 -148v-135h260q12 0 19.5 -7.5t7.5 -19.5v-235q0 -12 -7.5 -19.5t-19.5 -7.5h-260v-119q0 -92 -16 -133q-7 -17 -2 -23.5t20 -3.5q93 13 248 13z" />
<glyph unicode="&#xa5;" horiz-adv-x="1445" d="M1122 942l-57 -108h129q12 0 19.5 -7.5t7.5 -19.5v-174q0 -12 -7.5 -19.5t-19.5 -7.5h-238q-15 -41 -32 -94h270q12 0 19.5 -7.5t7.5 -19.5v-174q0 -26 -27 -26h-303l-2 -66v-192q0 -12 -7.5 -19.5t-19.5 -7.5h-276q-12 0 -19.5 7.5t-7.5 19.5v192l-2 66h-305 q-27 0 -27 26v174q0 12 7.5 19.5t19.5 7.5h272q-17 53 -32 94h-240q-12 0 -19.5 7.5t-7.5 19.5v174q0 12 7.5 19.5t19.5 7.5h129l-57 108l-256 479q-8 13 -2.5 22t22.5 9h301q22 0 31 -18l143 -263q77 -142 142 -319q6 -19 19 -19t19 19q47 140 142 319l141 263q9 18 31 18 h301q17 0 22.5 -9t-2.5 -22z" />
<glyph unicode="&#xa8;" horiz-adv-x="911" d="M246 1509q78 0 121 -43.5t43 -124.5q0 -80 -43 -125t-121 -45q-77 0 -120.5 45.5t-43.5 124.5q0 81 43.5 124.5t120.5 43.5zM657 1509q78 0 121 -43.5t43 -124.5q0 -80 -43 -125t-121 -45q-76 0 -119.5 45t-43.5 125q0 81 43 124.5t120 43.5z" />
<glyph unicode="&#xa9;" horiz-adv-x="1615" d="M807 1475q329 0 530 -206t201 -544q0 -222 -91 -392t-257 -263t-383 -93q-327 0 -528 206t-201 542q0 338 201 544t528 206zM807 1307q-253 0 -408 -160.5t-155 -421.5t155 -422.5t408 -161.5q254 0 409.5 161t155.5 423q0 261 -155 421.5t-410 160.5zM1020 362l-43 -14 q-78 -22 -168 -22q-164 0 -260 108t-96 293t96 293t260 108q87 0 168 -24l43 -14q22 -8 16 -33l-39 -111q-9 -25 -32 -16l-41 12q-55 16 -115 16q-82 0 -129 -60.5t-47 -170.5q0 -111 46.5 -172t129.5 -61q72 0 115 14l41 12q23 6 32 -18l39 -107q6 -25 -16 -33z" />
<glyph unicode="&#xab;" horiz-adv-x="1376" d="M440 504l258 -377q9 -13 5 -23t-21 -10h-279q-21 0 -32 17l-244 360q-10 13 -10 33v2q0 20 10 33l238 358q13 16 32 16h285q17 0 21 -9.5t-5 -22.5zM979 504l258 -377q9 -13 5 -23t-21 -10h-279q-22 0 -33 17l-243 360q-11 14 -11 33v2q0 19 11 33l237 358q13 16 33 16 h285q17 0 21 -9.5t-5 -22.5z" />
<glyph unicode="&#xad;" horiz-adv-x="888" d="M164 674h563q12 0 19.5 -7.5t7.5 -19.5v-229q0 -12 -7.5 -19.5t-19.5 -7.5h-563q-12 0 -19.5 7.5t-7.5 19.5v229q0 12 7.5 19.5t19.5 7.5z" />
<glyph unicode="&#xae;" horiz-adv-x="1615" d="M807 1475q329 0 530 -206t201 -544q0 -222 -91 -392t-257 -263t-383 -93q-327 0 -528 206t-201 542q0 338 201 544t528 206zM807 1307q-253 0 -408 -160.5t-155 -421.5t155 -422.5t408 -161.5q254 0 409.5 161t155.5 423q0 261 -155 421.5t-410 160.5zM553 1100h285 q126 0 194 -61t68 -169q0 -70 -35.5 -118.5t-87.5 -67.5q-22 -8 -2 -20q25 -15 44.5 -37t29 -39t24.5 -47l68 -160q4 -13 -1.5 -22t-19.5 -9h-131q-22 0 -31 21l-40 98q-18 41 -30.5 63t-34 43t-51 29t-73.5 8h-27v-235q0 -27 -26 -27h-123q-12 0 -19.5 7.5t-7.5 19.5v696 q0 12 7.5 19.5t19.5 7.5zM702 936v-170h109q55 0 90 24t35 64t-28 61t-70 21h-136z" />
<glyph unicode="&#xb4;" horiz-adv-x="698" d="M262 1491h301q17 0 22 -9.5t-3 -23.5l-201 -301q-13 -16 -33 -16h-219q-14 0 -20 8.5t0 21.5l122 299q9 21 31 21z" />
<glyph unicode="&#xb8;" horiz-adv-x="714" d="M401 -63h15q59 0 101 -53t42 -138q0 -99 -60 -158t-171 -59q-56 0 -115 18l-33 11q-25 9 -16 32l51 150q8 25 33 16l24 -8q24 -6 56 -6q39 0 39 37q0 39 -45 39h-76q-22 0 -31 18q-8 8 -2 31l55 162q8 22 31 22h117q14 0 20 -9t0 -22z" />
<glyph unicode="&#xbb;" horiz-adv-x="1376" d="M397 504l-258 377q-9 13 -4.5 22.5t21.5 9.5h284q20 0 33 -16l238 -358q10 -13 10 -33v-2q0 -20 -10 -33l-244 -360q-14 -17 -33 -17h-278q-17 0 -21.5 10t4.5 23zM936 504l-258 377q-9 13 -5 22.5t21 9.5h285q20 0 33 -16l237 -358q11 -14 11 -33v-2q0 -19 -11 -33 l-243 -360q-14 -17 -33 -17h-279q-17 0 -21 10t5 23z" />
<glyph unicode="&#xd3;" horiz-adv-x="1488" d="M739 1898h359q18 0 22 -10t-8 -22l-229 -244q-11 -14 -33 -14h-256q-17 0 -22 9t3 23l134 240q9 18 30 18zM745 1475q302 0 477 -201t175 -547q0 -345 -175 -547.5t-477 -202.5q-303 0 -478 202t-175 548t174.5 547t478.5 201zM745 1178q-150 0 -234.5 -118.5 t-84.5 -332.5q0 -211 85 -333t234 -122t233.5 122t84.5 333q0 214 -84 332.5t-234 118.5z" />
<glyph unicode="&#xf3;" horiz-adv-x="1142" d="M578 1491h301q17 0 21.5 -9.5t-3.5 -23.5l-201 -301q-13 -16 -32 -16h-220q-14 0 -20 8.5t0 21.5l123 299q9 21 31 21zM571 1028q230 0 364 -142t134 -382q0 -243 -134 -385t-364 -142q-231 0 -365 142t-134 385q0 240 134 382t365 142zM571 739q-85 0 -133.5 -62.5 t-48.5 -172.5q0 -112 48.5 -176t133.5 -64q84 0 132.5 64t48.5 176q0 110 -48.5 172.5t-132.5 62.5z" />
<glyph unicode="&#x104;" horiz-adv-x="1531" d="M1366 -242l20 6q20 10 27 -16l57 -158q9 -24 -16 -32l-31 -11q-46 -18 -114 -18q-116 0 -186 50t-70 138q0 94 73 158l62 55q36 31 31 50.5t-43 19.5h-17q-22 0 -31 20l-61 173h-602l-62 -173q-9 -20 -30 -20h-289q-15 0 -21.5 8.5t-1.5 22.5l289 782q133 367 195 617 q6 22 30 22h381q25 0 31 -22q62 -250 195 -617l293 -797q6 -19 4 -32q-1 -20 -16.5 -39.5t-55.5 -53.5l-100 -86q-19 -16 -19 -32q0 -25 23 -25q25 0 55 10zM963 481l-29 82q-120 331 -150 488q-3 12 -10.5 16.5t-15 0t-10.5 -16.5q-33 -163 -150 -488l-29 -82h394z" />
<glyph unicode="&#x105;" horiz-adv-x="1073" d="M924 -231l57 -158q9 -25 -16 -33l-31 -10q-49 -19 -115 -19q-117 0 -186.5 50.5t-69.5 138.5q0 90 74 158l96 86l29 26l-25 47q-18 39 -65 0q-88 -78 -221 -78q-183 0 -286.5 86.5t-103.5 241.5q0 142 107.5 222.5t298.5 80.5h192v4q-6 66 -59 103t-141 37 q-54 0 -133 -21l-78 -22q-24 -6 -33 18l-63 213q-9 27 18 33l80 22q125 33 225 33q233 0 363.5 -105t130.5 -292v-606q24 -3 18 -29q-8 -31 -69 -84l-101 -86q-18 -15 -18 -33q0 -24 22 -24q26 0 56 10l14 4q27 10 33 -14zM659 406h-192q-44 0 -73 -22t-29 -56 q0 -43 30.5 -66.5t85.5 -23.5q161 0 178 163v5z" />
<glyph unicode="&#x106;" d="M694 1894h359q18 0 22 -10t-8 -22l-229 -244q-11 -14 -33 -14h-256q-17 0 -22 9t3 23l134 240q9 18 30 18zM1161 59l-98 -32q-150 -50 -307 -50q-308 0 -486 201.5t-178 548.5q0 345 178 546.5t486 201.5q172 0 305 -43l94 -31q25 -9 16 -33l-73 -231q-10 -26 -33 -17 l-96 31q-88 27 -213 27q-154 0 -242 -119t-88 -332q0 -216 87.5 -335.5t242.5 -119.5q119 0 211 31l96 29q26 10 33 -17l82 -223q9 -24 -17 -33z" />
<glyph unicode="&#x107;" horiz-adv-x="985" d="M537 1491h301q17 0 21.5 -9.5t-3.5 -23.5l-201 -301q-13 -16 -32 -16h-220q-14 0 -20 8.5t0 21.5l123 299q9 21 31 21zM877 31l-117 -33q-75 -21 -176 -21q-244 0 -378 140.5t-134 386.5q0 245 134.5 384.5t383.5 139.5q90 0 164 -20l112 -31q28 -9 19 -35l-66 -225 q-9 -25 -33 -19l-81 23q-62 18 -115 18q-102 0 -151.5 -60.5t-49.5 -172.5q0 -116 50.5 -179t148.5 -63q53 0 125 21l82 20q23 6 32 -18l68 -224q9 -26 -18 -32z" />
<glyph unicode="&#x118;" horiz-adv-x="1255" d="M1133 -33l-160 -162q-19 -22 -19 -32q0 -25 23 -25q25 0 55 10l17 6q25 9 34 -14l58 -158q6 -23 -17 -32l-34 -13q-46 -18 -115 -18q-117 0 -186.5 50t-69.5 138q0 46 20.5 81.5t61.5 76.5l51 55q56 56 30 67q-8 3 -24 3h-698q-12 0 -19.5 7.5t-7.5 19.5v1398 q0 12 7.5 19.5t19.5 7.5h985q13 0 19 -8.5t3 -22.5l-65 -237q-7 -23 -29 -23h-608v-270h502q26 0 26 -27v-235q0 -27 -26 -27h-502v-313h670q26 0 26 -27v-262q1 0 -2.5 -5t-10.5 -12.5t-15 -15.5z" />
<glyph unicode="&#x119;" horiz-adv-x="1067" d="M881 -8l-224 -193q-14 -14 -14 -28q0 -23 27 -23q14 0 49 10l22 9q23 9 33 -17l55 -158q6 -24 -18 -32l-43 -15q-50 -16 -104 -16q-120 0 -188 50.5t-68 141.5q0 94 84 164l81 70q10 6 9 14t-15 8q-238 6 -366.5 145.5t-128.5 379.5q0 245 134 385.5t374 140.5 q191 0 302 -93.5t111 -252.5q0 -123 -86.5 -194.5t-263.5 -96.5l-240 -35q29 -54 72.5 -78t114.5 -24q63 0 131 14l123 27q24 6 30 -19l58 -213q6 -25 -21 -32q3 1 2 -2q-5 -15 -32 -37zM383 565l213 33q94 9 94 80q0 74 -123 74q-72 0 -126 -48t-58 -139z" />
<glyph unicode="&#x141;" horiz-adv-x="1310" d="M598 289h594q12 0 19.5 -7.5t7.5 -19.5v-235q0 -12 -7.5 -19.5t-19.5 -7.5h-899q-12 0 -19.5 7.5t-7.5 19.5v462l-164 -71q-14 -6 -22 -0.5t-8 20.5v260q0 22 20 31l174 78v618q0 12 7.5 19.5t19.5 7.5h278q12 0 19.5 -7.5t7.5 -19.5v-469l311 138q13 6 22 0t9 -21v-260 q0 -22 -20 -31l-322 -143v-350z" />
<glyph unicode="&#x142;" horiz-adv-x="831" d="M559 666v-363q0 -39 27 -39h12q26 7 35 -14l84 -213q10 -26 -12 -35q-58 -25 -119 -25q-165 0 -259 86.5t-94 239.5v242l-141 -51q-14 -6 -22.5 -0.5t-8.5 20.5v248q0 22 21 31l151 57v614q0 12 7.5 19.5t19.5 7.5h272q12 0 19.5 -7.5t7.5 -19.5v-491l160 59q13 6 22 0.5 t9 -20.5v-252q0 -22 -21 -31z" />
<glyph unicode="&#x143;" horiz-adv-x="1499" d="M748 1898h358q18 0 22 -10t-8 -22l-229 -244q-11 -14 -33 -14h-256q-17 0 -21.5 9t3.5 23l133 240q9 18 31 18zM1339 0h-364q-22 0 -31 20q-30 69 -102 218l-291 589q-18 36 -74 154q-12 22 -24.5 17.5t-10.5 -25.5q23 -165 23 -373v-573q0 -12 -7.5 -19.5t-19.5 -7.5 h-278q-12 0 -19.5 7.5t-7.5 19.5v1398q0 12 7.5 19.5t19.5 7.5h364q22 0 31 -20q31 -67 104 -218l293 -593q51 -109 74 -150q10 -24 23 -19.5t10 27.5q-23 146 -23 369v577q0 12 7.5 19.5t19.5 7.5h276q12 0 19.5 -7.5t7.5 -19.5v-1398q0 -12 -7.5 -19.5t-19.5 -7.5z" />
<glyph unicode="&#x144;" horiz-adv-x="1134" d="M573 1491h301q17 0 22 -9.5t-3 -23.5l-201 -301q-13 -16 -33 -16h-219q-14 0 -20 8.5t0 21.5l123 299q9 21 30 21zM315 987l27 -43q15 -23 27.5 -23t36.5 21q101 86 237 86q182 0 285.5 -100t103.5 -279v-622q0 -27 -26 -27h-273q-26 0 -26 27v581q0 63 -30.5 97 t-84.5 34q-74 0 -114 -53.5t-40 -155.5v-503q0 -27 -26 -27h-273q-26 0 -26 27v952q0 27 26 27h146q21 0 30 -19z" />
<glyph unicode="&#x15a;" horiz-adv-x="1269" d="M618 1894h359q18 0 22 -10t-8 -22l-229 -244q-11 -14 -33 -14h-256q-17 0 -21.5 9t3.5 23l133 240q9 18 30 18zM668 559l-172 66q-214 79 -298.5 172t-84.5 258q0 199 140.5 309.5t385.5 110.5q168 0 328 -54l135 -45q24 -8 18 -33l-84 -229q-9 -25 -32 -16l-121 37 q-141 43 -244 43q-86 0 -139.5 -34t-53.5 -89q0 -50 42 -81t139 -67l172 -63q216 -80 301.5 -175t85.5 -261q0 -210 -138.5 -320.5t-400.5 -110.5q-193 0 -403 68l-135 43q-25 8 -19 33l82 227q10 26 33 17l143 -43q164 -50 299 -50q205 0 205 136q0 81 -184 151z" />
<glyph unicode="&#x15b;" horiz-adv-x="991" d="M500 1491h301q17 0 21.5 -9.5t-3.5 -23.5l-201 -301q-13 -16 -32 -16h-219q-14 0 -20.5 8.5t-0.5 21.5l123 299q9 21 31 21zM551 369l-162 41q-150 34 -219.5 103.5t-69.5 186.5q0 155 105.5 241.5t294.5 86.5q113 0 266 -33l102 -24q12 -3 17.5 -12t1.5 -21l-62 -213 q-6 -24 -30 -18l-105 24q-96 21 -190 21q-40 0 -62 -13.5t-22 -38.5q0 -16 14 -31t39 -22l174 -41q148 -35 216.5 -107t68.5 -192q0 -155 -105.5 -242.5t-292.5 -87.5q-166 0 -313 37l-108 27q-12 3 -17.5 12t-1.5 21l62 217q6 24 30 18l97 -24q59 -15 136 -24t115 -9 q80 0 80 55q0 48 -59 62z" />
<glyph unicode="&#x179;" horiz-adv-x="1302" d="M651 1898h359q18 0 22 -10t-8 -22l-229 -244q-11 -14 -33 -14h-256q-17 0 -22 9t3 23l134 240q9 18 30 18zM156 1452h1007q22 0 31 -18l4 -7q12 -18 0 -36q-105 -158 -201 -347l-254 -491q-74 -136 -143 -229q-13 -20 -8.5 -27.5t29.5 -7.5h528q13 0 19 -8.5t3 -22.5 l-65 -235q-7 -23 -29 -23h-927q-22 0 -31 18l-4 7q-12 18 0 36q18 27 34 53t28 45t27 45.5t22.5 40t22.5 42t20 38.5t22 43t22 42l254 489q82 174 133 227q15 14 12 24.5t-22 10.5h-534q-12 0 -19.5 7.5t-7.5 19.5v237q0 12 7.5 19.5t19.5 7.5z" />
<glyph unicode="&#x17a;" horiz-adv-x="1009" d="M510 1491h301q17 0 21.5 -9.5t-3.5 -23.5l-200 -301q-13 -16 -33 -16h-219q-14 0 -20.5 8.5t-0.5 21.5l123 299q9 21 31 21zM928 989q10 -17 -2 -35q-47 -69 -103 -182l-159 -321q-46 -86 -95 -146q-8 -9 -5 -15.5t16 -6.5h311q13 0 19 -8.5t3 -22.5l-65 -229 q-7 -23 -29 -23h-688q-22 0 -31 18q-9 14 4 33q53 81 109 189l156 313q42 86 98 145q20 23 -10 23h-314q-26 0 -26 27v231q0 27 26 27h754q23 0 31 -17z" />
<glyph unicode="&#x17b;" horiz-adv-x="1302" d="M655 1921q96 0 146.5 -42.5t50.5 -125.5t-50.5 -125.5t-146.5 -42.5q-200 0 -200 168t200 168zM156 1452h1007q22 0 31 -18l4 -7q12 -18 0 -36q-105 -158 -201 -347l-254 -491q-74 -136 -143 -229q-13 -20 -8.5 -27.5t29.5 -7.5h528q13 0 19 -8.5t3 -22.5l-65 -235 q-7 -23 -29 -23h-927q-22 0 -31 18l-4 7q-12 18 0 36q18 27 34 53t28 45t27 45.5t22.5 40t22.5 42t20 38.5t22 43t22 42l254 489q82 174 133 227q15 14 12 24.5t-22 10.5h-534q-12 0 -19.5 7.5t-7.5 19.5v237q0 12 7.5 19.5t19.5 7.5z" />
<glyph unicode="&#x17c;" horiz-adv-x="1009" d="M504 1511q86 0 133 -48.5t47 -137.5t-47 -138.5t-133 -49.5t-134 49.5t-48 138.5t47.5 137.5t134.5 48.5zM928 989q10 -17 -2 -35q-47 -69 -103 -182l-159 -321q-46 -86 -95 -146q-8 -9 -5 -15.5t16 -6.5h311q13 0 19 -8.5t3 -22.5l-65 -229q-7 -23 -29 -23h-688 q-22 0 -31 18q-9 14 4 33q53 81 109 189l156 313q42 86 98 145q20 23 -10 23h-314q-26 0 -26 27v231q0 27 26 27h754q23 0 31 -17z" />
<glyph unicode="&#x2c6;" horiz-adv-x="944" d="M807 1141h-195q-21 0 -32 14l-109 129l-106 -129q-11 -14 -33 -14h-195q-17 0 -21.5 9.5t3.5 23.5l198 301q13 16 33 16h242q20 0 33 -16l200 -301q8 -14 3.5 -23.5t-21.5 -9.5z" />
<glyph unicode="&#x2da;" horiz-adv-x="593" d="M299 1507q98 0 153.5 -50.5t55.5 -141.5t-55.5 -142t-153.5 -51q-101 0 -158 51t-57 142t57 141.5t158 50.5zM299 1386q-40 0 -63 -18.5t-23 -52.5t23 -53t63 -19q38 0 60 19t22 53t-22 52.5t-60 18.5z" />
<glyph unicode="&#x2dc;" horiz-adv-x="925" d="M115 1260l53 110q34 68 79 98.5t113 30.5q73 0 123 -37l49 -39q17 -14 33 -14q13 0 35 37l18 27q9 18 31 18h146q15 0 20 -8.5t-2 -22.5l-55 -112q-34 -67 -78.5 -97t-112.5 -30q-67 0 -129 41l-47 30q-24 17 -31 17q-16 0 -34 -33l-19 -29q-9 -18 -31 -18h-143 q-15 0 -20 8.5t2 22.5z" />
<glyph unicode="&#x400;" horiz-adv-x="1255" d="M676 1880l133 -240q8 -14 3.5 -23t-21.5 -9h-256q-22 0 -33 14l-230 244q-12 12 -8 22t23 10h358q22 0 31 -18zM465 891h502q26 0 26 -27v-235q0 -27 -26 -27h-502v-313h670q26 0 26 -27v-235q0 -27 -26 -27h-975q-12 0 -19.5 7.5t-7.5 19.5v1398q0 12 7.5 19.5t19.5 7.5 h985q13 0 19 -8.5t3 -22.5l-65 -237q-7 -23 -29 -23h-608v-270z" />
<glyph unicode="&#x401;" horiz-adv-x="1255" d="M418 1921q87 0 132.5 -42.5t45.5 -125.5t-45.5 -125.5t-132.5 -42.5q-88 0 -134 42.5t-46 125.5t46 125.5t134 42.5zM885 1921q87 0 132.5 -42.5t45.5 -125.5t-45.5 -125.5t-132.5 -42.5q-88 0 -134 42.5t-46 125.5t46 125.5t134 42.5zM465 891h502q26 0 26 -27v-235 q0 -27 -26 -27h-502v-313h670q26 0 26 -27v-235q0 -27 -26 -27h-975q-12 0 -19.5 7.5t-7.5 19.5v1398q0 12 7.5 19.5t19.5 7.5h985q13 0 19 -8.5t3 -22.5l-65 -237q-7 -23 -29 -23h-608v-270z" />
<glyph unicode="&#x402;" horiz-adv-x="1601" d="M752 823l61 23q109 41 238 41q221 0 345 -119.5t124 -331.5q0 -217 -123.5 -338t-343.5 -121q-81 0 -146 19l-45 12q-27 9 -18 35l69 225q9 25 33 19l15 -4q43 -11 86 -11q65 0 102 39.5t37 108.5q0 81 -44.5 125.5t-123.5 44.5q-85 0 -156 -27l-110 -45v-491 q0 -12 -7.5 -19.5t-19.5 -7.5h-276q-12 0 -19.5 7.5t-7.5 19.5v1134h-365q-26 0 -26 27v237q0 27 26 27h1153q12 0 19.5 -7.5t7.5 -19.5v-237q0 -12 -7.5 -19.5t-19.5 -7.5h-458v-338z" />
<glyph unicode="&#x403;" horiz-adv-x="1208" d="M575 1898h359q18 0 22 -10t-8 -22l-229 -244q-11 -14 -33 -14h-256q-17 0 -21.5 9t3.5 23l133 240q9 18 30 18zM465 1161v-1134q0 -12 -7.5 -19.5t-19.5 -7.5h-278q-12 0 -19.5 7.5t-7.5 19.5v1398q0 12 7.5 19.5t19.5 7.5h938q13 0 19 -8.5t3 -22.5l-65 -237 q-7 -23 -29 -23h-561z" />
<glyph unicode="&#x404;" d="M1096 315l82 -223q9 -24 -17 -33l-98 -32q-150 -50 -307 -50q-308 0 -486 201.5t-178 548.5q0 345 178 546.5t486 201.5q172 0 305 -43l94 -31q25 -9 16 -33l-73 -231q-10 -26 -33 -17l-96 31q-88 27 -213 27q-122 0 -203.5 -74.5t-110.5 -212.5h500q12 0 19.5 -7.5 t7.5 -19.5v-235q0 -12 -7.5 -19.5t-19.5 -7.5h-508q25 -159 108.5 -244.5t213.5 -85.5q119 0 211 31l96 29q23 9 33 -17z" />
<glyph unicode="&#x405;" horiz-adv-x="1269" d="M668 559l-172 66q-214 79 -298.5 172t-84.5 258q0 199 140.5 309.5t385.5 110.5q168 0 328 -54l135 -45q24 -8 18 -33l-84 -229q-9 -25 -32 -16l-121 37q-141 43 -244 43q-86 0 -139.5 -34t-53.5 -89q0 -50 42 -81t139 -67l172 -63q216 -80 301.5 -175t85.5 -261 q0 -210 -138.5 -320.5t-400.5 -110.5q-193 0 -403 68l-135 43q-25 8 -19 33l82 227q10 26 33 17l143 -43q164 -50 299 -50q205 0 205 136q0 81 -184 151z" />
<glyph unicode="&#x406;" horiz-adv-x="598" d="M438 0h-278q-12 0 -19.5 7.5t-7.5 19.5v1398q0 12 7.5 19.5t19.5 7.5h278q12 0 19.5 -7.5t7.5 -19.5v-1398q0 -12 -7.5 -19.5t-19.5 -7.5z" />
<glyph unicode="&#x407;" horiz-adv-x="598" d="M61 1921q87 0 133 -42.5t46 -125.5t-46 -125.5t-133 -42.5q-88 0 -134 42.5t-46 125.5t46 125.5t134 42.5zM528 1921q87 0 133 -42.5t46 -125.5t-46 -125.5t-133 -42.5q-88 0 -134 42.5t-46 125.5t46 125.5t134 42.5zM438 0h-278q-12 0 -19.5 7.5t-7.5 19.5v1398 q0 12 7.5 19.5t19.5 7.5h278q12 0 19.5 -7.5t7.5 -19.5v-1398q0 -12 -7.5 -19.5t-19.5 -7.5z" />
<glyph unicode="&#x408;" horiz-adv-x="972" d="M848 1425v-942q0 -238 -124.5 -372t-348.5 -134q-117 0 -232 43l-57 21q-23 6 -16 33l84 225q6 26 32 16l60 -20q62 -23 129 -23q66 0 104.5 50.5t38.5 158.5v944q0 12 7.5 19.5t19.5 7.5h276q12 0 19.5 -7.5t7.5 -19.5z" />
<glyph unicode="&#x409;" horiz-adv-x="2107" d="M1270 909h194q264 0 412.5 -120.5t148.5 -335.5q0 -214 -135 -333.5t-377 -119.5h-546q-12 0 -19.5 7.5t-7.5 19.5v1134h-356v-631q0 -214 -86.5 -343.5t-274.5 -192.5l-84 -29q-23 -9 -33 17l-77 225q-10 27 16 33l84 30q125 46 125 260v895q0 12 7.5 19.5t19.5 7.5h962 q12 0 19.5 -7.5t7.5 -19.5v-516zM1270 621v-332h243q83 0 131 44t48 120q0 78 -60.5 123t-167.5 45h-194z" />
<glyph unicode="&#x40a;" horiz-adv-x="2084" d="M1249 909h191q266 0 414.5 -120.5t148.5 -335.5q0 -214 -134.5 -333.5t-375.5 -119.5h-547q-26 0 -26 27v594h-455v-594q0 -12 -7.5 -19.5t-19.5 -7.5h-278q-12 0 -19.5 7.5t-7.5 19.5v1398q0 12 7.5 19.5t19.5 7.5h278q12 0 19.5 -7.5t7.5 -19.5v-516h455v516 q0 27 26 27h277q26 0 26 -27v-516zM1249 621v-332h244q83 0 129.5 43.5t46.5 120.5q0 78 -61 123t-168 45h-191z" />
<glyph unicode="&#x40b;" horiz-adv-x="1583" d="M752 823l49 19q103 39 227 39q211 0 331 -130t120 -362v-362q0 -12 -7.5 -19.5t-19.5 -7.5h-276q-12 0 -19.5 7.5t-7.5 19.5v323q0 109 -45.5 171.5t-124.5 62.5q-73 0 -131 -27l-96 -41v-489q0 -12 -7.5 -19.5t-19.5 -7.5h-276q-12 0 -19.5 7.5t-7.5 19.5v1134h-365 q-26 0 -26 27v237q0 27 26 27h1153q12 0 19.5 -7.5t7.5 -19.5v-237q0 -12 -7.5 -19.5t-19.5 -7.5h-458v-338z" />
<glyph unicode="&#x40c;" horiz-adv-x="1435" d="M707 1894h358q18 0 22 -10t-8 -22l-229 -244q-11 -14 -33 -14h-256q-17 0 -21.5 9t3.5 23l133 240q9 18 31 18zM1325 1421l-217 -415q-89 -177 -256 -242q-8 -3 -9 -11.5t9 -13.5q175 -78 268 -262l238 -446q8 -13 2 -22t-23 -9h-305q-22 0 -31 18l-165 318 q-66 125 -153 195.5t-175 70.5h-43v-575q0 -12 -7.5 -19.5t-19.5 -7.5h-278q-12 0 -19.5 7.5t-7.5 19.5v1398q0 12 7.5 19.5t19.5 7.5h278q12 0 19.5 -7.5t7.5 -19.5v-534h41q88 0 171.5 65t143.5 179l156 299q9 18 31 18h299q15 0 20 -9t-2 -22z" />
<glyph unicode="&#x40e;" horiz-adv-x="1447" d="M1024 1911v-49q0 -137 -80 -213t-225 -76q-142 0 -222.5 76.5t-80.5 212.5v49q0 26 26 26h168q27 0 27 -26v-53q0 -40 21.5 -63t60.5 -23q41 0 62.5 23t21.5 63v53q0 26 26 26h168q27 0 27 -26zM1393 1421l-498 -1046q-93 -194 -227.5 -284.5t-321.5 -90.5h-92 q-12 0 -19.5 7.5t-7.5 19.5v235q0 12 7.5 19.5t19.5 7.5h92q74 0 116 44.5t42 123.5q0 98 -80 250l-377 714q-7 13 -1.5 22t20.5 9h303q21 0 30 -18l189 -359q97 -180 131 -305q5 -18 18 -18t19 18q67 199 118 305l168 357q11 20 33 20h297q15 0 21 -9t0 -22z" />
<glyph unicode="&#x40f;" horiz-adv-x="1417" d="M1284 1427v-1398q0 -12 -7.5 -19.5t-19.5 -7.5h-395v-364q0 -27 -26 -27h-256q-12 0 -19.5 7.5t-7.5 19.5v364h-391q-12 0 -19.5 7.5t-7.5 19.5v1398q0 12 7.5 19.5t19.5 7.5h276q12 0 19.5 -7.5t7.5 -19.5v-1134h487v1134q0 12 7.5 19.5t19.5 7.5h278q12 0 19.5 -7.5 t7.5 -19.5z" />
<glyph unicode="&#x410;" horiz-adv-x="1531" d="M465 193l-62 -173q-9 -20 -30 -20h-289q-15 0 -21.5 8.5t-1.5 22.5l289 782q133 367 195 617q6 22 30 22h381q25 0 31 -22q62 -250 195 -617l288 -782q5 -14 -1 -22.5t-21 -8.5h-289q-22 0 -31 20l-61 173h-602zM963 481l-29 82q-120 331 -150 488q-3 12 -10.5 16.5 t-15 0t-10.5 -16.5q-33 -163 -150 -488l-29 -82h394z" />
<glyph unicode="&#x411;" horiz-adv-x="1355" d="M1174 1421l-66 -237q-7 -23 -29 -23h-614v-252h260q257 0 402 -122.5t145 -340.5q0 -211 -133.5 -328.5t-372.5 -117.5h-606q-12 0 -19.5 7.5t-7.5 19.5v1398q0 12 7.5 19.5t19.5 7.5h991q13 0 19.5 -8.5t3.5 -22.5zM465 621v-332h297q83 0 129.5 41.5t46.5 115.5 q0 82 -56 128.5t-157 46.5h-260z" />
<glyph unicode="&#x412;" horiz-adv-x="1349" d="M160 1452h557q236 0 370 -103t134 -286q0 -63 -17 -115.5t-45 -85.5t-52.5 -52t-49.5 -32q-15 -6 -21 -13.5t-1 -15.5t20 -14q34 -13 66 -35t67 -60t56.5 -98t21.5 -134q0 -192 -134.5 -300t-375.5 -108h-596q-12 0 -19.5 7.5t-7.5 19.5v1398q0 12 7.5 19.5t19.5 7.5z M465 891h227q195 0 195 137q0 63 -44.5 98t-125.5 35h-252v-270zM465 289h287q86 0 133 39.5t47 109.5q0 84 -52.5 124t-164.5 40h-250v-313z" />
<glyph unicode="&#x413;" horiz-adv-x="1208" d="M1120 1421l-65 -237q-7 -23 -29 -23h-561v-1134q0 -12 -7.5 -19.5t-19.5 -7.5h-278q-12 0 -19.5 7.5t-7.5 19.5v1398q0 12 7.5 19.5t19.5 7.5h938q13 0 19 -8.5t3 -22.5z" />
<glyph unicode="&#x414;" horiz-adv-x="1658" d="M1403 289h156q26 0 26 -27v-624q0 -27 -26 -27h-256q-12 0 -19.5 7.5t-7.5 19.5v362h-905v-362q0 -12 -7.5 -19.5t-19.5 -7.5h-256q-12 0 -19.5 7.5t-7.5 19.5v624q0 12 7.5 19.5t19.5 7.5h117l112 205q45 85 45 260v671q0 12 7.5 19.5t19.5 7.5h987q12 0 19.5 -7.5 t7.5 -19.5v-1136zM692 1161v-407q0 -235 -88 -396l-37 -69h506v872h-381z" />
<glyph unicode="&#x415;" horiz-adv-x="1255" d="M465 891h502q26 0 26 -27v-235q0 -27 -26 -27h-502v-313h670q26 0 26 -27v-235q0 -27 -26 -27h-975q-12 0 -19.5 7.5t-7.5 19.5v1398q0 12 7.5 19.5t19.5 7.5h985q13 0 19 -8.5t3 -22.5l-65 -237q-7 -23 -29 -23h-608v-270z" />
<glyph unicode="&#x416;" horiz-adv-x="2015" d="M1911 1421l-215 -475q-34 -80 -73 -119.5t-105 -66.5q-8 -3 -8 -12.5t8 -12.5q63 -31 106 -81.5t78 -127.5l227 -495q6 -13 0.5 -22t-20.5 -9h-293q-22 0 -31 20l-145 316q-7 14 -23 51t-24.5 54.5t-25 48t-30.5 46t-34 33.5t-43 25.5t-50 7.5h-39v-575q0 -27 -26 -27 h-277q-26 0 -26 27v575h-39q-23 0 -44.5 -7.5t-37 -17t-32.5 -29t-27.5 -34t-25 -43t-21 -43t-21 -47.5t-19.5 -45l-145 -316q-9 -20 -31 -20h-293q-15 0 -20.5 9t0.5 22l225 495q65 147 185 209q8 3 8 12.5t-8 12.5q-65 27 -104 66.5t-73 119.5l-215 475q-6 13 0 22t21 9 h293q22 0 31 -20l133 -297q51 -115 79 -155q61 -89 142 -89h39v534q0 27 26 27h277q26 0 26 -27v-534h39q20 0 38 4t35 16t29 20t27 29.5t22.5 30t21.5 37t17.5 35t18 38.5t15.5 34l131 297q9 20 30 20h295q15 0 21 -9t0 -22z" />
<glyph unicode="&#x417;" horiz-adv-x="1318" d="M145 1374l131 45q173 56 355 56q248 0 390 -108t142 -296q0 -102 -43 -175.5t-141 -125.5q-11 -6 -15 -13t0 -13.5t15 -10.5q238 -88 238 -319q0 -191 -158.5 -314t-429.5 -123q-165 0 -355 58l-145 47q-25 9 -16 33l86 225q6 26 32 16l140 -45q118 -39 252 -39 q125 0 195.5 42.5t70.5 123.5q0 86 -61 125t-185 39h-186q-12 0 -19.5 7.5t-7.5 19.5v235q0 12 7.5 19.5t19.5 7.5h186q92 0 142.5 38t50.5 103q0 69 -56 107.5t-162 38.5q-136 0 -249 -39l-121 -41q-25 -10 -35 16l-84 227q-9 25 16 33z" />
<glyph unicode="&#x418;" horiz-adv-x="1499" d="M1366 1425v-1398q0 -12 -7.5 -19.5t-19.5 -7.5h-276q-12 0 -19.5 7.5t-7.5 19.5v577q0 223 23 369q3 23 -10 27.5t-23 -19.5q-23 -41 -74 -150l-293 -593q-74 -151 -104 -218q-9 -20 -31 -20h-364q-12 0 -19.5 7.5t-7.5 19.5v1398q0 12 7.5 19.5t19.5 7.5h278 q12 0 19.5 -7.5t7.5 -19.5v-573q0 -208 -23 -373q-2 -21 10.5 -25.5t24.5 17.5q56 118 74 154l291 589q72 149 102 218q9 20 31 20h364q12 0 19.5 -7.5t7.5 -19.5z" />
<glyph unicode="&#x419;" horiz-adv-x="1499" d="M1085 1868v-25q0 -133 -78.5 -196.5t-244.5 -63.5t-244 63t-78 197v25q0 26 27 26h195q26 0 26 -26v-13q0 -73 74 -73t74 73v13q0 26 26 26h197q26 0 26 -26zM1339 0h-276q-12 0 -19.5 7.5t-7.5 19.5v577q0 223 23 369q3 23 -10 27.5t-23 -19.5q-23 -41 -74 -150 l-293 -593q-74 -151 -104 -218q-9 -20 -31 -20h-364q-12 0 -19.5 7.5t-7.5 19.5v1398q0 12 7.5 19.5t19.5 7.5h278q12 0 19.5 -7.5t7.5 -19.5v-573q0 -208 -23 -373q-2 -21 10.5 -25.5t24.5 17.5q56 118 74 154l291 589q72 149 102 218q9 20 31 20h364q12 0 19.5 -7.5 t7.5 -19.5v-1398q0 -12 -7.5 -19.5t-19.5 -7.5z" />
<glyph unicode="&#x41a;" horiz-adv-x="1435" d="M1325 1421l-217 -415q-89 -177 -256 -242q-8 -3 -9 -11.5t9 -13.5q175 -78 268 -262l238 -446q8 -13 2 -22t-23 -9h-305q-22 0 -31 18l-165 318q-66 125 -153 195.5t-175 70.5h-43v-575q0 -12 -7.5 -19.5t-19.5 -7.5h-278q-12 0 -19.5 7.5t-7.5 19.5v1398q0 12 7.5 19.5 t19.5 7.5h278q12 0 19.5 -7.5t7.5 -19.5v-534h41q88 0 171.5 65t143.5 179l156 299q9 18 31 18h299q15 0 20 -9t-2 -22z" />
<glyph unicode="&#x41b;" horiz-adv-x="1480" d="M1346 1425v-1398q0 -12 -7.5 -19.5t-19.5 -7.5h-277q-26 0 -26 27v1134h-381v-434q0 -283 -96.5 -460.5t-302.5 -274.5l-70 -33q-26 -13 -35 12l-100 224q-9 25 14 34l72 35q97 44 142.5 156.5t45.5 306.5v698q0 12 7.5 19.5t19.5 7.5h987q12 0 19.5 -7.5t7.5 -19.5z" />
<glyph unicode="&#x41c;" horiz-adv-x="1730" d="M1571 0h-277q-26 0 -26 27v432q0 336 24 516q3 22 -9.5 25t-18.5 -17q-23 -63 -66 -166l-113 -311q-8 -25 -31 -95.5t-36 -109.5q-6 -22 -29 -22h-248q-23 0 -28 22q-63 186 -70 205l-113 313q-10 28 -31.5 82t-31.5 82q-8 20 -21 17t-10 -25q29 -217 29 -516v-432 q0 -12 -7.5 -19.5t-19.5 -7.5h-278q-12 0 -19.5 7.5t-7.5 19.5v1398q0 12 7.5 19.5t19.5 7.5h413q23 0 29 -22q29 -92 45 -140l107 -309q63 -181 96 -311q3 -12 9.5 -16.5t13.5 0t10 16.5q42 172 90 311l110 309q24 62 45 140q6 22 31 22h412q26 0 26 -27v-1398 q0 -27 -26 -27z" />
<glyph unicode="&#x41d;" horiz-adv-x="1462" d="M1300 0h-276q-12 0 -19.5 7.5t-7.5 19.5v575h-532v-575q0 -12 -7.5 -19.5t-19.5 -7.5h-278q-12 0 -19.5 7.5t-7.5 19.5v1398q0 12 7.5 19.5t19.5 7.5h278q12 0 19.5 -7.5t7.5 -19.5v-534h532v534q0 12 7.5 19.5t19.5 7.5h276q12 0 19.5 -7.5t7.5 -19.5v-1398 q0 -12 -7.5 -19.5t-19.5 -7.5z" />
<glyph unicode="&#x41e;" horiz-adv-x="1488" d="M745 1475q302 0 477 -201t175 -547q0 -345 -175 -547.5t-477 -202.5q-303 0 -478 202t-175 548t174.5 547t478.5 201zM745 1178q-150 0 -234.5 -118.5t-84.5 -332.5q0 -211 85 -333t234 -122t233.5 122t84.5 333q0 214 -84 332.5t-234 118.5z" />
<glyph unicode="&#x41f;" horiz-adv-x="1417" d="M1282 1425v-1398q0 -12 -7.5 -19.5t-19.5 -7.5h-276q-12 0 -19.5 7.5t-7.5 19.5v1134h-487v-1134q0 -12 -7.5 -19.5t-19.5 -7.5h-278q-12 0 -19.5 7.5t-7.5 19.5v1398q0 12 7.5 19.5t19.5 7.5h1095q12 0 19.5 -7.5t7.5 -19.5z" />
<glyph unicode="&#x420;" horiz-adv-x="1323" d="M160 1452h553q245 0 381.5 -127.5t136.5 -355.5q0 -239 -155 -372.5t-435 -133.5h-176v-436q0 -12 -7.5 -19.5t-19.5 -7.5h-278q-12 0 -19.5 7.5t-7.5 19.5v1398q0 12 7.5 19.5t19.5 7.5zM465 752h176q121 0 188.5 57t67.5 160q0 91 -48 141.5t-136 50.5h-248v-409z" />
<glyph unicode="&#x421;" d="M1161 59l-98 -32q-150 -50 -307 -50q-308 0 -486 201.5t-178 548.5q0 345 178 546.5t486 201.5q172 0 305 -43l94 -31q25 -9 16 -33l-73 -231q-10 -26 -33 -17l-96 31q-88 27 -213 27q-154 0 -242 -119t-88 -332q0 -216 87.5 -335.5t242.5 -119.5q119 0 211 31l96 29 q26 10 33 -17l82 -223q9 -24 -17 -33z" />
<glyph unicode="&#x422;" horiz-adv-x="1335" d="M834 1161v-1134q0 -12 -7.5 -19.5t-19.5 -7.5h-277q-26 0 -26 27v1134h-406q-26 0 -26 27v237q0 27 26 27h1139q12 0 19.5 -7.5t7.5 -19.5v-237q0 -12 -7.5 -19.5t-19.5 -7.5h-403z" />
<glyph unicode="&#x423;" horiz-adv-x="1447" d="M1393 1421l-498 -1046q-93 -194 -227.5 -284.5t-321.5 -90.5h-92q-12 0 -19.5 7.5t-7.5 19.5v235q0 12 7.5 19.5t19.5 7.5h92q74 0 116 44.5t42 123.5q0 98 -80 250l-377 714q-7 13 -1.5 22t20.5 9h303q21 0 30 -18l189 -359q97 -180 131 -305q5 -18 18 -18t19 18 q67 199 118 305l168 357q11 20 33 20h297q15 0 21 -9t0 -22z" />
<glyph unicode="&#x424;" horiz-adv-x="1826" d="M1079 1292h107q263 0 411 -147t148 -410q0 -262 -148 -409.5t-411 -147.5h-107v-151q0 -27 -26 -27h-279q-26 0 -26 27v151h-107q-263 0 -411 147.5t-148 409.5q0 263 148 410t411 147h107v133q0 27 26 27h279q26 0 26 -27v-133zM748 1004h-107q-105 0 -165 -71t-60 -198 q0 -125 60 -195.5t165 -70.5h107v535zM1079 1004v-535h107q105 0 165 70.5t60 195.5q0 127 -60 198t-165 71h-107z" />
<glyph unicode="&#x425;" horiz-adv-x="1472" d="M1358 1421l-250 -473q-66 -133 -186 -203q-9 -6 -9 -16q0 -5 3 -8.5t10.5 -7t9.5 -4.5q111 -74 176 -203l252 -475q8 -13 2 -22t-23 -9h-301q-21 0 -30 18l-258 480q-8 16 -13 20.5t-10.5 0t-13.5 -20.5l-256 -480q-9 -18 -31 -18h-301q-17 0 -22.5 9t2.5 22l251 475 q70 131 177 203q2 2 6.5 4t7 3.5t4.5 5t2 7.5q3 10 -8 16q-117 72 -184 201l-250 475q-7 13 -2 22t20 9h301q22 0 31 -18l248 -473q23 -48 45 0l250 473q9 18 30 18h301q15 0 20.5 -9t-1.5 -22z" />
<glyph unicode="&#x426;" horiz-adv-x="1527" d="M1284 289h146q26 0 26 -27v-624q0 -27 -26 -27h-259q-26 0 -26 27v362h-983q-12 0 -19.5 7.5t-7.5 19.5v1398q0 12 7.5 19.5t19.5 7.5h276q12 0 19.5 -7.5t7.5 -19.5v-1134h487v1134q0 12 7.5 19.5t19.5 7.5h278q12 0 19.5 -7.5t7.5 -19.5v-1136z" />
<glyph unicode="&#x427;" horiz-adv-x="1366" d="M1231 1425v-1398q0 -12 -7.5 -19.5t-19.5 -7.5h-276q-12 0 -19.5 7.5t-7.5 19.5v518l-65 -25q-110 -39 -248 -39q-230 0 -358 129.5t-128 360.5v454q0 12 7.5 19.5t19.5 7.5h277q26 0 26 -27v-395q0 -130 45.5 -191t143.5 -61q73 0 159 27l121 41v579q0 12 7.5 19.5 t19.5 7.5h276q12 0 19.5 -7.5t7.5 -19.5z" />
<glyph unicode="&#x428;" horiz-adv-x="1931" d="M1798 1425v-1398q0 -27 -26 -27h-1612q-12 0 -19.5 7.5t-7.5 19.5v1398q0 12 7.5 19.5t19.5 7.5h278q12 0 19.5 -7.5t7.5 -19.5v-1136h336v1136q0 27 26 27h277q26 0 26 -27v-1136h336v1136q0 12 7.5 19.5t19.5 7.5h279q26 0 26 -27z" />
<glyph unicode="&#x429;" horiz-adv-x="2043" d="M1798 289h146q26 0 26 -27v-624q0 -27 -26 -27h-258q-12 0 -19.5 7.5t-7.5 19.5v362h-1499q-12 0 -19.5 7.5t-7.5 19.5v1398q0 12 7.5 19.5t19.5 7.5h278q12 0 19.5 -7.5t7.5 -19.5v-1136h336v1136q0 27 26 27h277q26 0 26 -27v-1136h336v1136q0 12 7.5 19.5t19.5 7.5 h279q26 0 26 -27v-1136z" />
<glyph unicode="&#x42a;" horiz-adv-x="1595" d="M745 989h177q279 0 434 -133t155 -373q0 -228 -136.5 -355.5t-381.5 -127.5h-553q-26 0 -26 27v1134h-357q-26 0 -26 27v237q0 27 26 27h662q26 0 26 -27v-436zM745 291h248q88 0 136.5 50.5t48.5 141.5q0 103 -67.5 160t-188.5 57h-177v-409z" />
<glyph unicode="&#x42b;" horiz-adv-x="1855" d="M133 27v1398q0 12 7.5 19.5t19.5 7.5h278q12 0 19.5 -7.5t7.5 -19.5v-436h176q280 0 435 -133.5t155 -372.5q0 -228 -136.5 -355.5t-381.5 -127.5h-553q-12 0 -19.5 7.5t-7.5 19.5zM1696 0h-279q-26 0 -26 27v1398q0 27 26 27h279q26 0 26 -27v-1398q0 -27 -26 -27z M465 291h248q88 0 136 50.5t48 141.5q0 103 -67.5 160t-188.5 57h-176v-409z" />
<glyph unicode="&#x42c;" horiz-adv-x="1314" d="M713 0h-553q-12 0 -19.5 7.5t-7.5 19.5v1398q0 12 7.5 19.5t19.5 7.5h278q12 0 19.5 -7.5t7.5 -19.5v-436h176q280 0 435 -133.5t155 -372.5q0 -228 -136.5 -355.5t-381.5 -127.5zM465 291h248q88 0 136 50.5t48 141.5q0 103 -67.5 160t-188.5 57h-176v-409z" />
<glyph unicode="&#x42d;" d="M113 92l82 223q7 27 32 17l97 -29q92 -31 211 -31q130 0 213 85.5t108 244.5h-508q-26 0 -26 27v235q0 27 26 27h500q-29 138 -110.5 212.5t-202.5 74.5q-125 0 -213 -27l-97 -31q-22 -8 -32 17l-74 231q-9 24 16 33l94 31q133 43 306 43q308 0 485.5 -201.5 t177.5 -546.5q0 -347 -177.5 -548.5t-485.5 -201.5q-158 0 -308 50l-98 32q-25 8 -16 33z" />
<glyph unicode="&#x42e;" horiz-adv-x="2086" d="M465 891h237q38 275 207 429.5t434 154.5q302 0 477 -201t175 -547q0 -345 -175 -547.5t-477 -202.5q-274 0 -445 167t-202 458h-231v-575q0 -12 -7.5 -19.5t-19.5 -7.5h-278q-12 0 -19.5 7.5t-7.5 19.5v1398q0 12 7.5 19.5t19.5 7.5h278q12 0 19.5 -7.5t7.5 -19.5v-534z M1343 272q149 0 233.5 122t84.5 333q0 214 -84 332.5t-234 118.5t-234.5 -118.5t-84.5 -332.5q0 -211 85 -333t234 -122z" />
<glyph unicode="&#x42f;" horiz-adv-x="1398" d="M668 1452h571q12 0 19.5 -7.5t7.5 -19.5v-1398q0 -12 -7.5 -19.5t-19.5 -7.5h-278q-12 0 -19.5 7.5t-7.5 19.5v489h-57q-67 0 -118.5 -12.5t-87 -33t-66 -57.5t-50.5 -75.5t-45 -97.5l-90 -220q-9 -20 -31 -20h-295q-13 0 -19 8.5t-1 22.5l143 346q75 162 178 225 q13 7 17 13t-0.5 12.5t-18.5 13.5q-103 45 -172 140.5t-69 226.5q0 210 136 327t380 117zM934 1161h-266q-82 0 -132.5 -48.5t-50.5 -129.5q0 -91 55.5 -134.5t170.5 -43.5h223v356z" />
<glyph unicode="&#x430;" horiz-adv-x="1073" d="M170 973l80 22q125 33 225 33q233 0 363.5 -105t130.5 -292v-604q0 -12 -7.5 -19.5t-19.5 -7.5h-154q-20 0 -32 18l-19 37q-18 39 -65 0q-88 -78 -221 -78q-183 0 -286.5 86.5t-103.5 241.5q0 142 107.5 222.5t298.5 80.5h192v4q-6 66 -59 103t-141 37q-54 0 -133 -21 l-78 -22q-24 -6 -33 18l-63 213q-9 27 18 33zM659 406h-192q-44 0 -73 -22t-29 -56q0 -43 30.5 -66.5t85.5 -23.5q161 0 178 163v5z" />
<glyph unicode="&#x431;" horiz-adv-x="1173" d="M909 1489l66 -227q9 -26 -19 -35l-309 -88q-183 -50 -246 -211q-11 -25 0 -33.5t29 4.5q87 64 232 64q198 0 318 -131.5t120 -358.5q0 -226 -136 -359.5t-364 -133.5q-234 0 -366 131t-132 358v313q0 259 113 413t352 222l310 88q23 9 32 -16zM602 676q-84 0 -133 -54.5 t-49 -150.5t49 -150.5t133 -54.5q85 0 132.5 54t47.5 151t-47.5 151t-132.5 54z" />
<glyph unicode="&#x432;" horiz-adv-x="1067" d="M139 1004h432q180 0 282.5 -75.5t102.5 -207.5q0 -45 -13 -81.5t-33 -58.5t-35.5 -33.5t-30.5 -17.5q-12 -4 -16.5 -9.5t0 -11.5t16.5 -11q20 -8 32.5 -13.5t37 -23t39.5 -38t27.5 -56t12.5 -78.5q0 -136 -103 -212.5t-284 -76.5h-467q-26 0 -26 27v950q0 27 26 27z M434 733v-121h129q45 0 69.5 16t24.5 44q0 61 -71 61h-152zM434 406v-136h162q37 0 58.5 15.5t21.5 44.5q0 35 -27 55.5t-74 20.5h-141z" />
<glyph unicode="&#x433;" horiz-adv-x="948" d="M438 721v-694q0 -27 -26 -27h-273q-26 0 -26 27v952q0 27 26 27h719q13 0 19.5 -8.5t3.5 -22.5l-66 -232q-6 -22 -29 -22h-348z" />
<glyph unicode="&#x434;" horiz-adv-x="1304" d="M1100 283h117q26 0 26 -27v-557q0 -27 -26 -27h-246q-12 0 -19.5 7.5t-7.5 19.5v301h-596v-301q0 -27 -26 -27h-244q-12 0 -19.5 7.5t-7.5 19.5v557q0 12 7.5 19.5t19.5 7.5h92l47 92q41 75 41 280v324q0 12 7.5 19.5t19.5 7.5h788q12 0 19.5 -7.5t7.5 -19.5v-696z M582 721v-66q0 -228 -54 -333l-18 -39h266v438h-194z" />
<glyph unicode="&#x435;" horiz-adv-x="1067" d="M911 31l-127 -31q-104 -23 -194 -23q-249 0 -383.5 140t-134.5 385t134 385.5t374 140.5q191 0 302 -93.5t111 -252.5q0 -123 -86.5 -194.5t-263.5 -96.5l-240 -35q29 -54 72.5 -78t114.5 -24q63 0 131 14l123 27q24 6 30 -19l58 -213q6 -25 -21 -32zM383 565l213 33 q94 9 94 80q0 74 -123 74q-72 0 -126 -48t-58 -139z" />
<glyph unicode="&#x436;" horiz-adv-x="1628" d="M1526 975l-133 -299q-51 -124 -133 -154q-7 -3 -6.5 -10t6.5 -12q49 -23 81.5 -59t61.5 -101l141 -309q6 -13 0.5 -22t-20.5 -9h-287q-22 0 -33 20l-125 271q-16 37 -37 56.5t-38 19.5h-29v-340q0 -12 -7.5 -19.5t-19.5 -7.5h-270q-12 0 -19.5 7.5t-7.5 19.5v340h-26 q-20 0 -40.5 -19.5t-37.5 -56.5l-125 -271q-11 -20 -33 -20h-285q-15 0 -20.5 9t0.5 22l141 309q27 63 60 99.5t82 60.5q7 4 7 11.5t-7 10.5q-80 30 -131 154l-134 299q-6 13 0 22t21 9h285q21 0 30 -21l80 -186q26 -60 57.5 -104t59.5 -44h16v328q0 12 7.5 19.5t19.5 7.5 h270q12 0 19.5 -7.5t7.5 -19.5v-328h18q28 0 60 44.5t55 103.5l80 186q9 21 31 21h286q15 0 21 -9t0 -22z" />
<glyph unicode="&#x437;" horiz-adv-x="1017" d="M131 971l109 28q116 29 237 29q197 0 310.5 -78.5t113.5 -216.5q0 -155 -129 -203q-9 -2 -12 -7t0 -10.5t12 -8.5q83 -26 127.5 -74.5t44.5 -140.5q0 -143 -124 -227.5t-339 -84.5q-131 0 -258 33l-114 29q-12 3 -17.5 12t-1.5 21l62 211q9 24 32 18l109 -25 q87 -22 186 -22q160 0 160 78q0 31 -37 48t-100 17h-164q-12 0 -19.5 7.5t-7.5 19.5v170q0 12 7.5 19.5t19.5 7.5h162q46 0 72 15.5t26 43.5q0 72 -123 72q-81 0 -174 -21l-96 -24q-24 -6 -33 18l-59 213q-9 27 18 33z" />
<glyph unicode="&#x438;" horiz-adv-x="1189" d="M1051 0h-269q-26 0 -26 27v186q0 200 22 340q2 10 -2.5 17t-12 4.5t-13.5 -15.5q-24 -43 -66 -129l-115 -256q-36 -82 -61 -154q-9 -20 -31 -20h-338q-26 0 -26 27v952q0 27 26 27h273q26 0 26 -27v-186q0 -190 -24 -340q-3 -16 7.5 -21t20.5 14q43 81 66 132l113 256 q35 79 61 151q9 21 31 21h338q26 0 26 -27v-952q0 -27 -26 -27z" />
<glyph unicode="&#x439;" horiz-adv-x="1189" d="M901 1464v-49q0 -137 -80 -213t-225 -76q-142 0 -222.5 76.5t-80.5 212.5v49q0 27 26 27h168q12 0 19.5 -7.5t7.5 -19.5v-53q0 -40 21.5 -63t60.5 -23q41 0 62.5 23t21.5 63v53q0 12 7.5 19.5t19.5 7.5h167q12 0 19.5 -7.5t7.5 -19.5zM756 27v186q0 200 22 340 q2 10 -2.5 17t-12 4.5t-13.5 -15.5q-24 -43 -66 -129l-115 -256q-36 -82 -61 -154q-9 -20 -31 -20h-338q-26 0 -26 27v952q0 27 26 27h273q26 0 26 -27v-186q0 -190 -24 -340q-3 -16 7.5 -21t20.5 14q43 81 66 132l113 256q35 79 61 151q9 21 31 21h338q26 0 26 -27v-952 q0 -27 -26 -27h-269q-26 0 -26 27z" />
<glyph unicode="&#x43a;" horiz-adv-x="1165" d="M438 651h19q32 0 56.5 10.5t45 34t32 42.5t30.5 55l100 194q13 19 33 19h293q15 0 20 -9t-2 -22l-164 -320q-49 -93 -149 -133q-5 -2 -5.5 -7.5t5.5 -8.5q120 -55 161 -137l174 -338q7 -13 2 -22t-20 -9h-293q-21 0 -33 18l-110 220q-35 65 -74 97t-104 32h-17v-340 q0 -27 -26 -27h-273q-26 0 -26 27v952q0 27 26 27h273q26 0 26 -27v-328z" />
<glyph unicode="&#x43b;" horiz-adv-x="1181" d="M1067 979v-952q0 -12 -7.5 -19.5t-19.5 -7.5h-270q-12 0 -19.5 7.5t-7.5 19.5v694h-192v-225q0 -179 -78.5 -300.5t-243.5 -197.5l-61 -29q-24 -12 -37 13l-100 213q-9 25 14 34l64 31q60 31 88 87.5t28 148.5v483q0 12 7.5 19.5t19.5 7.5h788q12 0 19.5 -7.5t7.5 -19.5z " />
<glyph unicode="&#x43c;" horiz-adv-x="1349" d="M1235 979v-952q0 -12 -7.5 -19.5t-19.5 -7.5h-268q-12 0 -19.5 7.5t-7.5 19.5v77q0 279 23 457q1 15 -8.5 17.5t-14.5 -11.5q-34 -79 -39 -96l-45 -137q-19 -59 -28 -96q-7 -23 -29 -23h-199q-21 0 -28 23l-27 96l-45 137q-6 17 -19 50t-18 46q-6 14 -16.5 11.5 t-7.5 -17.5q26 -155 26 -457v-77q0 -27 -26 -27h-273q-26 0 -26 27v952q0 27 26 27h381q26 0 29 -25q11 -51 22 -84l35 -115q51 -172 58 -209q2 -9 6.5 -12t9 0t6.5 12q9 47 57 209l33 115q16 49 23 84q3 25 28 25h381q12 0 19.5 -7.5t7.5 -19.5z" />
<glyph unicode="&#x43d;" horiz-adv-x="1138" d="M1024 979v-952q0 -12 -7.5 -19.5t-19.5 -7.5h-270q-12 0 -19.5 7.5t-7.5 19.5v342h-262v-342q0 -27 -26 -27h-273q-26 0 -26 27v952q0 27 26 27h273q26 0 26 -27v-328h262v328q0 12 7.5 19.5t19.5 7.5h270q12 0 19.5 -7.5t7.5 -19.5z" />
<glyph unicode="&#x43e;" horiz-adv-x="1142" d="M571 1028q230 0 364 -142t134 -382q0 -243 -134 -385t-364 -142q-231 0 -365 142t-134 385q0 240 134 382t365 142zM571 739q-85 0 -133.5 -62.5t-48.5 -172.5q0 -112 48.5 -176t133.5 -64q84 0 132.5 64t48.5 176q0 110 -48.5 172.5t-132.5 62.5z" />
<glyph unicode="&#x43f;" horiz-adv-x="1128" d="M1014 979v-952q0 -12 -7.5 -19.5t-19.5 -7.5h-270q-12 0 -19.5 7.5t-7.5 19.5v694h-252v-694q0 -27 -26 -27h-273q-26 0 -26 27v952q0 27 26 27h848q12 0 19.5 -7.5t7.5 -19.5z" />
<glyph unicode="&#x440;" horiz-adv-x="1173" d="M315 987l31 -49q19 -30 51 -2q107 92 262 92q204 0 322.5 -141t118.5 -383q0 -244 -127 -385.5t-348 -141.5q-77 0 -138 25l-49 21v-445q0 -27 -26 -27h-273q-26 0 -26 27v1401q0 27 26 27h146q21 0 30 -19zM434 309l41 -18q52 -27 125 -27q88 0 135 63t47 177 q0 111 -48.5 173t-135.5 62q-78 0 -121 -54t-43 -148v-228z" />
<glyph unicode="&#x441;" horiz-adv-x="985" d="M877 31l-117 -33q-75 -21 -176 -21q-244 0 -378 140.5t-134 386.5q0 245 134.5 384.5t383.5 139.5q90 0 164 -20l112 -31q28 -9 19 -35l-66 -225q-9 -25 -33 -19l-81 23q-62 18 -115 18q-102 0 -151.5 -60.5t-49.5 -172.5q0 -116 50.5 -179t148.5 -63q53 0 125 21l82 20 q23 6 32 -18l68 -224q9 -26 -18 -32z" />
<glyph unicode="&#x442;" horiz-adv-x="1040" d="M977 979v-231q0 -12 -7.5 -19.5t-19.5 -7.5h-268v-694q0 -12 -7.5 -19.5t-19.5 -7.5h-270q-12 0 -19.5 7.5t-7.5 19.5v694h-270q-12 0 -19.5 7.5t-7.5 19.5v231q0 12 7.5 19.5t19.5 7.5h862q12 0 19.5 -7.5t7.5 -19.5z" />
<glyph unicode="&#x443;" horiz-adv-x="1181" d="M1128 975l-372 -1006q-80 -216 -202.5 -317t-309.5 -101h-99q-26 0 -26 27v232q0 26 26 26h86q67 0 102.5 23.5t57.5 79.5l6 18q24 59 0.5 144t-98.5 268l-246 606q-6 13 0.5 22t20.5 9h284q22 0 31 -21l107 -283q62 -155 90 -319q3 -13 11 -18t15.5 0t10.5 18 q32 194 77 319l97 281q9 23 30 23h281q15 0 20.5 -9t-0.5 -22z" />
<glyph unicode="&#x444;" horiz-adv-x="1701" d="M1014 981l47 23q62 24 113 24q208 0 327 -140.5t119 -383.5q0 -244 -119 -385.5t-327 -141.5q-48 0 -113 25l-47 21v-445q0 -12 -7.5 -19.5t-19.5 -7.5h-270q-12 0 -19.5 7.5t-7.5 19.5v445l-47 -19q-74 -27 -115 -27q-208 0 -327 141.5t-119 385.5q0 243 119 383.5 t327 140.5q58 0 115 -24l47 -23v483q0 12 7.5 19.5t19.5 7.5h270q12 0 19.5 -7.5t7.5 -19.5v-483zM690 696l-33 19q-50 24 -104 24q-73 0 -113.5 -62t-40.5 -173q0 -113 40.5 -176.5t113.5 -63.5q56 0 104 27l33 18v387zM1012 309l32 -18q48 -27 107 -27q72 0 112 63.5 t40 176.5q0 111 -40 173t-112 62q-57 0 -107 -24l-32 -19v-387z" />
<glyph unicode="&#x445;" horiz-adv-x="1134" d="M1051 973l-172 -309q-27 -49 -64.5 -88t-73.5 -56q-17 -10 -2 -18q89 -60 142 -154l174 -315q8 -13 3 -23t-22 -10h-297q-20 0 -32 18l-121 234q-18 34 -35 0l-123 -234q-9 -18 -31 -18h-299q-17 0 -21.5 10t3.5 23l174 315q65 108 141 154q15 8 -2 18q-33 19 -71.5 59 t-65.5 85l-172 309q-8 13 -3.5 23t21.5 10h295q21 0 31 -19l123 -235q16 -37 35 0l121 235q13 19 32 19h293q17 0 22 -10t-3 -23z" />
<glyph unicode="&#x446;" horiz-adv-x="1218" d="M1016 283h114q12 0 19.5 -7.5t7.5 -19.5v-557q0 -12 -7.5 -19.5t-19.5 -7.5h-243q-12 0 -19.5 7.5t-7.5 19.5v301h-719q-26 0 -26 27v952q0 27 26 27h271q26 0 26 -27v-694h252v694q0 12 7.5 19.5t19.5 7.5h272q12 0 19.5 -7.5t7.5 -19.5v-696z" />
<glyph unicode="&#x447;" horiz-adv-x="1093" d="M979 979v-952q0 -12 -7.5 -19.5t-19.5 -7.5h-270q-12 0 -19.5 7.5t-7.5 19.5v313l-4 -2q-22 -9 -28 -10q-95 -21 -158 -21q-181 0 -282 94t-101 261v317q0 12 7.5 19.5t19.5 7.5h270q12 0 19.5 -7.5t7.5 -19.5v-279q0 -104 108 -104q36 0 74 10l67 19v354q0 12 7.5 19.5 t19.5 7.5h270q12 0 19.5 -7.5t7.5 -19.5z" />
<glyph unicode="&#x448;" horiz-adv-x="1599" d="M1487 979v-952q0 -12 -7.5 -19.5t-19.5 -7.5h-1321q-26 0 -26 27v952q0 27 26 27h273q26 0 26 -27v-696h199v696q0 12 7.5 19.5t19.5 7.5h272q12 0 19.5 -7.5t7.5 -19.5v-696h198v696q0 12 7.5 19.5t19.5 7.5h272q12 0 19.5 -7.5t7.5 -19.5z" />
<glyph unicode="&#x449;" horiz-adv-x="1691" d="M1487 283h115q26 0 26 -27v-557q0 -27 -26 -27h-244q-12 0 -19.5 7.5t-7.5 19.5v301h-1192q-26 0 -26 27v952q0 27 26 27h273q26 0 26 -27v-696h199v696q0 12 7.5 19.5t19.5 7.5h272q12 0 19.5 -7.5t7.5 -19.5v-696h198v696q0 12 7.5 19.5t19.5 7.5h272q12 0 19.5 -7.5 t7.5 -19.5v-696z" />
<glyph unicode="&#x44a;" horiz-adv-x="1228" d="M623 727h122q199 0 309.5 -98t110.5 -273q0 -168 -104.5 -262t-294.5 -94h-442q-12 0 -19.5 7.5t-7.5 19.5v694h-240q-26 0 -26 27v231q0 27 26 27h539q12 0 19.5 -7.5t7.5 -19.5v-252zM623 283h143q39 0 60.5 19.5t21.5 53.5q0 40 -27 64t-76 24h-122v-161z" />
<glyph unicode="&#x44b;" horiz-adv-x="1546" d="M113 27v952q0 27 26 27h273q26 0 26 -27v-252h123q199 0 309.5 -98t110.5 -273q0 -168 -104.5 -262t-294.5 -94h-443q-26 0 -26 27zM1434 977v-950q0 -12 -7.5 -19.5t-19.5 -7.5h-270q-12 0 -19.5 7.5t-7.5 19.5v950q0 12 7.5 19.5t19.5 7.5h270q12 0 19.5 -7.5 t7.5 -19.5zM438 283h144q39 0 60.5 19.5t21.5 53.5q0 40 -27 64t-76 24h-123v-161z" />
<glyph unicode="&#x44c;" horiz-adv-x="1044" d="M582 0h-443q-26 0 -26 27v952q0 27 26 27h273q26 0 26 -27v-252h123q199 0 309.5 -98t110.5 -273q0 -168 -104.5 -262t-294.5 -94zM438 283h144q39 0 60.5 19.5t21.5 53.5q0 40 -27 64t-76 24h-123v-161z" />
<glyph unicode="&#x44d;" horiz-adv-x="995" d="M127 977l115 31q74 20 164 20q249 0 382.5 -139.5t133.5 -384.5q0 -246 -133.5 -386.5t-376.5 -140.5q-101 0 -176 21l-117 33q-27 7 -19 32l66 213q9 25 33 19l80 -23q77 -18 127 -18q161 0 196 154h-315q-27 0 -27 26v150q0 26 27 26h313q-36 142 -197 142 q-49 0 -114 -19l-82 -22q-24 -6 -33 18l-65 213q-9 26 18 35z" />
<glyph unicode="&#x44e;" horiz-adv-x="1673" d="M438 651h178q39 176 166.5 276.5t319.5 100.5q229 0 363 -142t134 -382q0 -243 -133.5 -385t-363.5 -142q-197 0 -325 104t-163 288h-176v-342q0 -27 -26 -27h-273q-26 0 -26 27v952q0 27 26 27h273q26 0 26 -27v-328zM1102 264q84 0 132 64t48 176q0 110 -48 172.5 t-132 62.5q-85 0 -133.5 -62.5t-48.5 -172.5q0 -112 48.5 -176t133.5 -64z" />
<glyph unicode="&#x44f;" horiz-adv-x="1103" d="M989 979v-952q0 -27 -26 -27h-271q-26 0 -26 27v292h-7q-40 0 -70.5 -9.5t-51 -23t-39.5 -41.5t-31 -52.5t-31 -69.5l-43 -103q-9 -20 -31 -20h-284q-15 0 -21 9t0 22l103 227q0 1 6 13t8 15.5t8.5 16t10 17.5t11 16.5t13 18t14.5 16t17.5 15.5t19 12.5t21.5 11.5 q35 11 2 28q-67 32 -117.5 94.5t-50.5 149.5q0 152 106 238t301 86h433q26 0 26 -27zM666 721h-150q-44 0 -69 -20.5t-25 -57.5q0 -40 24 -63t68 -23h152v164z" />
<glyph unicode="&#x450;" horiz-adv-x="1067" d="M571 1470l123 -299q6 -13 0 -21.5t-20 -8.5h-219q-20 0 -33 16l-201 301q-8 14 -3 23.5t22 9.5h301q21 0 30 -21zM911 31l-127 -31q-104 -23 -194 -23q-249 0 -383.5 140t-134.5 385t134 385.5t374 140.5q191 0 302 -93.5t111 -252.5q0 -123 -86.5 -194.5t-263.5 -96.5 l-240 -35q29 -54 72.5 -78t114.5 -24q63 0 131 14l123 27q24 6 30 -19l58 -213q6 -25 -21 -32zM383 565l213 33q94 9 94 80q0 74 -123 74q-72 0 -126 -48t-58 -139z" />
<glyph unicode="&#x451;" horiz-adv-x="1067" d="M336 1509q78 0 121 -43.5t43 -124.5q0 -80 -43 -125t-121 -45q-77 0 -120.5 45.5t-43.5 124.5q0 81 43.5 124.5t120.5 43.5zM748 1509q78 0 120.5 -43.5t42.5 -124.5q0 -80 -42.5 -125t-120.5 -45q-77 0 -120.5 45.5t-43.5 124.5q0 81 43.5 124.5t120.5 43.5zM911 31 l-127 -31q-104 -23 -194 -23q-249 0 -383.5 140t-134.5 385t134 385.5t374 140.5q191 0 302 -93.5t111 -252.5q0 -123 -86.5 -194.5t-263.5 -96.5l-240 -35q29 -54 72.5 -78t114.5 -24q63 0 131 14l123 27q24 6 30 -19l58 -213q6 -25 -21 -32zM383 565l213 33q94 9 94 80 q0 74 -123 74q-72 0 -126 -48t-58 -139z" />
<glyph unicode="&#x452;" horiz-adv-x="1103" d="M446 907l21 6q84 23 170 23q180 0 281.5 -93t101.5 -259v-668q0 -182 -108 -284.5t-300 -102.5q-89 0 -196 37l-23 8q-25 9 -16 33l76 219q9 25 32 16l29 -8q56 -16 98 -16q39 0 61.5 26.5t22.5 71.5v627q0 48 -28 77t-78 29q-38 0 -76 -12l-68 -21v-589q0 -27 -26 -27 h-270q-12 0 -19.5 7.5t-7.5 19.5v1077h-115q-26 0 -26 26v150q0 27 26 27h115v157q0 12 7.5 19.5t19.5 7.5h270q26 0 26 -27v-157h342q12 0 19.5 -7.5t7.5 -19.5v-150q0 -26 -27 -26h-342v-197z" />
<glyph unicode="&#x453;" horiz-adv-x="948" d="M496 1491h301q17 0 21.5 -9.5t-3.5 -23.5l-201 -301q-13 -16 -32 -16h-220q-14 0 -20 8.5t0 21.5l123 299q9 21 31 21zM412 0h-273q-26 0 -26 27v952q0 27 26 27h719q13 0 19.5 -8.5t3.5 -22.5l-66 -232q-6 -22 -29 -22h-348v-694q0 -27 -26 -27z" />
<glyph unicode="&#x454;" horiz-adv-x="995" d="M829 276l64 -213q9 -26 -19 -32l-114 -33q-75 -21 -176 -21q-244 0 -378 140.5t-134 386.5q0 245 134.5 384.5t383.5 139.5q90 0 164 -20l112 -31q28 -9 19 -35l-64 -213q-9 -24 -33 -18l-81 22q-65 19 -115 19q-162 0 -197 -142h314q26 0 26 -26v-150q0 -26 -26 -26 h-316q35 -154 197 -154q51 0 125 18l82 23q23 6 32 -19z" />
<glyph unicode="&#x455;" horiz-adv-x="991" d="M551 369l-162 41q-150 34 -219.5 103.5t-69.5 186.5q0 155 105.5 241.5t294.5 86.5q113 0 266 -33l102 -24q12 -3 17.5 -12t1.5 -21l-62 -213q-6 -24 -30 -18l-105 24q-96 21 -190 21q-40 0 -62 -13.5t-22 -38.5q0 -16 14 -31t39 -22l174 -41q148 -35 216.5 -107 t68.5 -192q0 -155 -105.5 -242.5t-292.5 -87.5q-166 0 -313 37l-108 27q-12 3 -17.5 12t-1.5 21l62 217q6 24 30 18l97 -24q59 -15 136 -24t115 -9q80 0 80 55q0 48 -59 62z" />
<glyph unicode="&#x456;" horiz-adv-x="632" d="M330 1511q88 0 135 -48.5t47 -137.5q0 -88 -47.5 -138t-134.5 -50q-86 0 -134.5 50t-48.5 138q0 89 48 137.5t135 48.5zM492 0h-271q-26 0 -26 27v694h-107q-12 0 -19.5 7.5t-7.5 19.5v231q0 12 7.5 19.5t19.5 7.5h404q26 0 26 -27v-952q0 -27 -26 -27z" />
<glyph unicode="&#x457;" horiz-adv-x="632" d="M106 1522q78 0 121 -43.5t43 -124.5q0 -80 -43 -125t-121 -45q-76 0 -119.5 45t-43.5 125q0 81 43 124.5t120 43.5zM524 1522q78 0 121 -43.5t43 -124.5q0 -80 -43 -125t-121 -45q-77 0 -120.5 45.5t-43.5 124.5q0 81 43.5 124.5t120.5 43.5zM195 721h-107 q-12 0 -19.5 7.5t-7.5 19.5v231q0 12 7.5 19.5t19.5 7.5h404q26 0 26 -27v-952q0 -27 -26 -27h-271q-26 0 -26 27v694z" />
<glyph unicode="&#x458;" horiz-adv-x="632" d="M332 1511q88 0 135 -48.5t47 -137.5q0 -88 -47.5 -138t-134.5 -50q-86 0 -134 50t-48 138q0 89 47.5 137.5t134.5 48.5zM518 979v-946q0 -153 -74.5 -265.5t-234.5 -205.5l-45 -25q-22 -16 -35 10l-115 217q-12 22 11 35l36 23q69 40 101.5 90.5t32.5 120.5v688h-107 q-12 0 -19.5 7.5t-7.5 19.5v231q0 12 7.5 19.5t19.5 7.5h404q26 0 26 -27z" />
<glyph unicode="&#x459;" horiz-adv-x="1652" d="M1055 727h108q203 0 315.5 -98t112.5 -273q0 -168 -106 -262t-299 -94h-428q-12 0 -19.5 7.5t-7.5 19.5v694h-180v-225q0 -179 -78.5 -300.5t-243.5 -197.5l-61 -29q-24 -12 -37 13l-100 213q-9 25 14 34l64 31q60 31 88 87.5t28 148.5v483q0 12 7.5 19.5t19.5 7.5h776 q12 0 19.5 -7.5t7.5 -19.5v-252zM1055 444v-161h131q40 0 64 19.5t24 53.5q0 40 -29.5 64t-81.5 24h-108z" />
<glyph unicode="&#x45a;" horiz-adv-x="1601" d="M1004 692h102q207 0 320.5 -92.5t113.5 -259.5q0 -159 -107 -249.5t-298 -90.5h-428q-12 0 -19.5 7.5t-7.5 19.5v383h-242v-383q0 -27 -26 -27h-273q-26 0 -26 27v952q0 27 26 27h273q26 0 26 -27v-287h242v287q0 12 7.5 19.5t19.5 7.5h270q12 0 19.5 -7.5t7.5 -19.5 v-287zM1004 283h131q39 0 63.5 16t24.5 41q0 34 -30.5 52t-86.5 18h-102v-127z" />
<glyph unicode="&#x45b;" horiz-adv-x="1103" d="M446 907l21 6q84 23 170 23q180 0 281.5 -93t101.5 -259v-557q0 -12 -7.5 -19.5t-19.5 -7.5h-270q-12 0 -19.5 7.5t-7.5 19.5v516q0 48 -28 77t-78 29q-38 0 -76 -12l-68 -21v-589q0 -27 -26 -27h-270q-12 0 -19.5 7.5t-7.5 19.5v1077h-115q-26 0 -26 26v150q0 27 26 27 h115v157q0 12 7.5 19.5t19.5 7.5h270q26 0 26 -27v-157h342q12 0 19.5 -7.5t7.5 -19.5v-150q0 -26 -27 -26h-342v-197z" />
<glyph unicode="&#x45c;" horiz-adv-x="1165" d="M578 1489h301q17 0 21.5 -9.5t-3.5 -23.5l-201 -301q-13 -16 -32 -16h-220q-14 0 -20 8.5t0 21.5l123 299q9 21 31 21zM438 651h19q32 0 56.5 10.5t45 34t32 42.5t30.5 55l100 194q13 19 33 19h293q15 0 20 -9t-2 -22l-164 -320q-49 -93 -149 -133q-5 -2 -5.5 -7.5 t5.5 -8.5q120 -55 161 -137l174 -338q7 -13 2 -22t-20 -9h-293q-21 0 -33 18l-110 220q-35 65 -74 97t-104 32h-17v-340q0 -27 -26 -27h-273q-26 0 -26 27v952q0 27 26 27h273q26 0 26 -27v-328z" />
<glyph unicode="&#x45e;" horiz-adv-x="1181" d="M895 1464v-49q0 -137 -80 -213t-225 -76q-142 0 -222.5 76.5t-80.5 212.5v49q0 27 26 27h168q12 0 19.5 -7.5t7.5 -19.5v-53q0 -40 21.5 -63t60.5 -23q41 0 62.5 23t21.5 63v53q0 27 26 27h168q12 0 19.5 -7.5t7.5 -19.5zM1128 975l-372 -1006q-80 -216 -202.5 -317 t-309.5 -101h-99q-26 0 -26 27v232q0 26 26 26h86q67 0 102.5 23.5t57.5 79.5l6 18q24 59 0.5 144t-98.5 268l-246 606q-6 13 0.5 22t20.5 9h284q22 0 31 -21l107 -283q62 -155 90 -319q3 -13 11 -18t15.5 0t10.5 18q32 194 77 319l97 281q9 23 30 23h281q15 0 20.5 -9 t-0.5 -22z" />
<glyph unicode="&#x45f;" horiz-adv-x="1128" d="M1016 979v-952q0 -12 -7.5 -19.5t-19.5 -7.5h-276v-301q0 -12 -7.5 -19.5t-19.5 -7.5h-244q-26 0 -26 27v301h-275q-26 0 -26 27v952q0 27 26 27h271q26 0 26 -27v-694h252v694q0 12 7.5 19.5t19.5 7.5h272q12 0 19.5 -7.5t7.5 -19.5z" />
<glyph unicode="&#x462;" horiz-adv-x="1540" d="M682 989h176q280 0 435 -133.5t155 -372.5q0 -228 -136.5 -355.5t-381.5 -127.5h-553q-12 0 -19.5 7.5t-7.5 19.5v1095h-291q-26 0 -26 27v160q0 26 26 26h291v90q0 12 7.5 19.5t19.5 7.5h278q12 0 19.5 -7.5t7.5 -19.5v-90h350q27 0 27 -26v-160q0 -12 -7.5 -19.5 t-19.5 -7.5h-350v-133zM682 291h248q88 0 136 50.5t48 141.5q0 103 -67.5 160t-188.5 57h-176v-409z" />
<glyph unicode="&#x463;" horiz-adv-x="1206" d="M600 676h125q198 0 309 -87t111 -241q0 -164 -106 -256t-294 -92h-442q-12 0 -19.5 7.5t-7.5 19.5v776h-198q-27 0 -27 26v150q0 12 7.5 19.5t19.5 7.5h198v458q0 12 7.5 19.5t19.5 7.5h270q12 0 19.5 -7.5t7.5 -19.5v-458h293q12 0 19.5 -7.5t7.5 -19.5v-150 q0 -26 -27 -26h-293v-127zM600 283h145q38 0 60 17t22 48q0 30 -27.5 48t-74.5 18h-125v-131z" />
<glyph unicode="&#x472;" horiz-adv-x="1488" d="M745 1475q302 0 477 -202t175 -548q0 -345 -175 -546.5t-477 -201.5q-304 0 -478.5 201.5t-174.5 546.5q0 347 174.5 548.5t478.5 201.5zM745 1178q-121 0 -206 -77.5t-117 -219.5q83 55 168 55q51 0 154 -46t155 -46q77 0 164 55q-34 133 -118 206t-200 73zM745 272 q128 0 216.5 90.5t113.5 249.5q-91 -59 -176 -59q-51 0 -154.5 47t-154.5 47q-81 0 -172 -61q29 -147 116.5 -230.5t210.5 -83.5z" />
<glyph unicode="&#x473;" horiz-adv-x="1144" d="M573 1030q230 0 364 -142t134 -384q0 -243 -134 -385t-364 -142q-233 0 -367 141.5t-134 385.5q0 242 134.5 384t366.5 142zM573 739q-149 0 -188 -139q59 27 100 27q35 0 84 -22.5t90 -22.5q44 0 97 30q-43 127 -183 127zM573 264q72 0 120 37.5t67 106.5 q-60 -29 -101 -29t-90 21.5t-84 21.5q-44 0 -98 -25q43 -133 186 -133z" />
<glyph unicode="&#x474;" horiz-adv-x="1538" d="M1507 1425v-237q0 -27 -26 -27h-43q-50 0 -84 -28t-62 -103l-143 -393q-127 -350 -193 -614q-7 -23 -30 -23h-363q-24 0 -31 23q-68 272 -192 614l-289 784q-5 14 1.5 22.5t21.5 8.5h288q22 0 31 -20l197 -543q95 -262 135 -473q3 -13 11 -18t16 0t10 18q44 219 137 473 l94 258q60 163 167.5 234t277.5 71h43q26 0 26 -27z" />
<glyph unicode="&#x475;" horiz-adv-x="1196" d="M1135 979v-231q0 -12 -7.5 -19.5t-19.5 -7.5h-35q-61 0 -80 -45l-28 -76q-127 -331 -195 -577q-7 -23 -29 -23h-323q-22 0 -29 23q-57 203 -194 577l-142 375q-6 13 0 22t21 9h280q22 0 31 -21l51 -143q87 -247 125 -459q2 -13 10.5 -18t16.5 0t10 18q27 189 111 426 l18 47q52 150 274 150h107q12 0 19.5 -7.5t7.5 -19.5z" />
<glyph unicode="&#x48a;" horiz-adv-x="1650" d="M1366 289h180q31 0 25 -29l-137 -627q-6 -22 -31 -22h-258q-31 0 -25 29l80 360h-137q-12 0 -19.5 7.5t-7.5 19.5v577q0 223 23 369q3 23 -10 27.5t-23 -19.5q-23 -41 -74 -150l-293 -593q-74 -151 -104 -218q-9 -20 -31 -20h-364q-12 0 -19.5 7.5t-7.5 19.5v1398 q0 12 7.5 19.5t19.5 7.5h278q12 0 19.5 -7.5t7.5 -19.5v-573q0 -208 -23 -373q-2 -21 10.5 -25.5t24.5 17.5q56 118 74 154l291 589q72 149 102 218q9 20 31 20h364q12 0 19.5 -7.5t7.5 -19.5v-1136z" />
<glyph unicode="&#x48b;" horiz-adv-x="1304" d="M901 1464v-49q0 -137 -80 -213t-225 -76q-142 0 -222.5 76.5t-80.5 212.5v49q0 27 26 27h168q12 0 19.5 -7.5t7.5 -19.5v-53q0 -40 21.5 -63t60.5 -23q41 0 62.5 23t21.5 63v53q0 12 7.5 19.5t19.5 7.5h167q12 0 19.5 -7.5t7.5 -19.5zM1077 285h135q14 0 20.5 -8.5 t2.5 -20.5l-143 -561q-7 -23 -31 -23h-242q-14 0 -20 8t-2 21l75 299h-90q-26 0 -26 27v186q0 200 22 340q2 10 -2.5 17t-12 4.5t-13.5 -15.5q-24 -43 -66 -129l-115 -256q-36 -82 -61 -154q-9 -20 -31 -20h-338q-26 0 -26 27v952q0 27 26 27h273q26 0 26 -27v-186 q0 -190 -24 -340q-3 -16 7.5 -21t20.5 14q43 81 66 132l113 256q35 79 61 151q9 21 31 21h338q26 0 26 -27v-694z" />
<glyph unicode="&#x48e;" horiz-adv-x="1323" d="M160 1452h553q245 0 381.5 -127.5t136.5 -355.5q0 -171 -81 -290t-232 -173l61 -182q5 -14 -1.5 -22.5t-21.5 -8.5h-172q-22 0 -30 22l-49 150q-20 -2 -64 -2h-176v-436q0 -12 -7.5 -19.5t-19.5 -7.5h-278q-12 0 -19.5 7.5t-7.5 19.5v1398q0 12 7.5 19.5t19.5 7.5z M778 918l39 -119q80 58 80 170q0 91 -48 141.5t-136 50.5h-248v-409h141l-53 157q-5 14 1 22.5t21 8.5h173q22 0 30 -22z" />
<glyph unicode="&#x48f;" horiz-adv-x="1167" d="M315 987l31 -49q19 -30 51 -2q107 92 262 92q204 0 322.5 -141t118.5 -383q0 -180 -71.5 -307t-201.5 -181l58 -174q5 -14 -1.5 -22t-21.5 -8h-131q-23 0 -31 22l-47 143h-28q-77 0 -138 25l-49 21v-445q0 -27 -26 -27h-273q-26 0 -26 27v1401q0 27 26 27h146 q21 0 30 -19zM686 436l39 -121q57 60 57 189q0 111 -48.5 173t-135.5 62q-78 0 -121 -54t-43 -148v-228l41 -18q36 -19 80 -25l-53 162q-5 14 1 22.5t21 8.5h131q22 0 31 -23z" />
<glyph unicode="&#x490;" horiz-adv-x="1218" d="M1124 1718v-530q0 -27 -26 -27h-633v-1134q0 -12 -7.5 -19.5t-19.5 -7.5h-278q-12 0 -19.5 7.5t-7.5 19.5v1398q0 12 7.5 19.5t19.5 7.5h655v266q0 12 7.5 19.5t19.5 7.5h256q26 0 26 -27z" />
<glyph unicode="&#x491;" horiz-adv-x="937" d="M874 1214v-466q0 -27 -26 -27h-410v-694q0 -27 -26 -27h-273q-26 0 -26 27v952q0 27 26 27h439v208q0 27 26 27h244q26 0 26 -27z" />
<glyph unicode="&#x492;" horiz-adv-x="1329" d="M588 1161v-409h272q12 0 19.5 -7.5t7.5 -19.5v-160q0 -26 -27 -26h-272v-512q0 -12 -7.5 -19.5t-19.5 -7.5h-278q-12 0 -19.5 7.5t-7.5 19.5v512h-168q-27 0 -27 26v160q0 12 7.5 19.5t19.5 7.5h168v673q0 12 7.5 19.5t19.5 7.5h938q13 0 19 -8.5t3 -22.5l-65 -237 q-7 -23 -29 -23h-561z" />
<glyph unicode="&#x493;" horiz-adv-x="1019" d="M510 721v-209h209q26 0 26 -27v-157q0 -27 -26 -27h-209v-274q0 -12 -7.5 -19.5t-19.5 -7.5h-272q-12 0 -19.5 7.5t-7.5 19.5v274h-116q-12 0 -19.5 7.5t-7.5 19.5v157q0 12 7.5 19.5t19.5 7.5h116v467q0 12 7.5 19.5t19.5 7.5h719q13 0 19 -8.5t3 -22.5l-65 -232 q-6 -22 -29 -22h-348z" />
<glyph unicode="&#x494;" horiz-adv-x="1368" d="M467 819l82 29q92 33 229 33q226 0 357 -124.5t131 -346.5v-328q0 -220 -121 -342.5t-340 -122.5q-98 0 -223 43l-43 14q-23 9 -17 33l80 227q10 26 33 17l41 -14q67 -23 123 -23q63 0 100 44t37 124v270q0 108 -57 171t-150 63q-46 0 -131 -29l-109 -37q-21 -8 -45 -8 q21 0 21 -27v-458q0 -12 -7.5 -19.5t-19.5 -7.5h-278q-12 0 -19.5 7.5t-7.5 19.5v1398q0 12 7.5 19.5t19.5 7.5h938q13 0 19 -8.5t3 -22.5l-65 -237q-7 -23 -29 -23h-561v-342h2z" />
<glyph unicode="&#x495;" horiz-adv-x="1077" d="M438 545l19 6q77 24 174 24q181 0 282 -93.5t101 -260.5v-305q0 -182 -108.5 -284.5t-303.5 -102.5q-87 0 -199 37l-24 8q-26 10 -17 33l76 219q9 25 33 16l29 -8q56 -16 102 -16q41 0 64.5 26.5t23.5 71.5v268q0 48 -29 76.5t-79 28.5q-39 0 -76 -13l-68 -20v-229 q0 -27 -26 -27h-273q-26 0 -26 27v952q0 27 26 27h719q13 0 19.5 -8.5t3.5 -22.5l-66 -232q-6 -22 -29 -22h-348v-176z" />
<glyph unicode="&#x496;" horiz-adv-x="2050" d="M1810 289h152q12 0 19.5 -7.5t7.5 -19.5v-624q0 -12 -7.5 -19.5t-19.5 -7.5h-260q-12 0 -19.5 7.5t-7.5 19.5v362h-59q-22 0 -31 20l-145 316q-7 14 -23 51t-24.5 54.5t-25 48t-30.5 46t-34 33.5t-43 25.5t-50 7.5h-39v-575q0 -27 -26 -27h-277q-26 0 -26 27v575h-39 q-23 0 -44.5 -7.5t-37 -17t-32.5 -29t-27.5 -34t-25 -43t-21 -43t-21 -47.5t-19.5 -45l-145 -316q-9 -20 -31 -20h-293q-15 0 -20.5 9t0.5 22l225 495q65 147 185 209q8 3 8 12.5t-8 12.5q-65 27 -104 66.5t-73 119.5l-215 475q-6 13 0 22t21 9h293q22 0 31 -20l133 -297 q51 -115 79 -155q61 -89 142 -89h39v534q0 27 26 27h277q26 0 26 -27v-534h39q20 0 38 4t35 16t29 20t27 29.5t22.5 30t21.5 37t17.5 35t18 38.5t15.5 34l131 297q9 20 30 20h295q15 0 21 -9t0 -22l-215 -475q-34 -80 -73 -119.5t-105 -66.5q-8 -3 -8 -12.5t8 -12.5 q63 -31 106 -81.5t78 -127.5z" />
<glyph unicode="&#x497;" horiz-adv-x="1654" d="M1427 285h160q12 0 19.5 -7.5t7.5 -19.5v-559q0 -12 -7.5 -19.5t-19.5 -7.5h-246q-26 0 -26 27v301h-78q-22 0 -33 20l-125 271q-16 37 -37 56.5t-38 19.5h-29v-340q0 -12 -7.5 -19.5t-19.5 -7.5h-270q-12 0 -19.5 7.5t-7.5 19.5v340h-26q-20 0 -40.5 -19.5t-37.5 -56.5 l-125 -271q-11 -20 -33 -20h-285q-15 0 -20.5 9t0.5 22l141 309q27 63 60 99.5t82 60.5q7 4 7 11.5t-7 10.5q-80 30 -131 154l-134 299q-6 13 0 22t21 9h285q21 0 30 -21l80 -186q26 -60 57.5 -104t59.5 -44h16v328q0 12 7.5 19.5t19.5 7.5h270q12 0 19.5 -7.5t7.5 -19.5 v-328h18q28 0 60 44.5t55 103.5l80 186q9 21 31 21h286q15 0 21 -9t0 -22l-133 -299q-51 -124 -133 -154q-7 -3 -6.5 -10t6.5 -12q49 -23 81.5 -59t61.5 -101z" />
<glyph unicode="&#x498;" horiz-adv-x="1318" d="M145 1374l131 45q173 56 355 56q248 0 390 -108t142 -296q0 -102 -43 -175.5t-141 -125.5q-11 -6 -15 -13t0 -13.5t15 -10.5q238 -88 238 -319q0 -156 -108.5 -269t-301.5 -151v-356q0 -12 -7.5 -19.5t-19.5 -7.5h-258q-26 0 -26 27v348q-93 10 -222 49l-145 47 q-25 9 -16 33l86 225q6 26 32 16l140 -45q118 -39 252 -39q125 0 195.5 42.5t70.5 123.5q0 86 -61 125t-185 39h-186q-12 0 -19.5 7.5t-7.5 19.5v235q0 12 7.5 19.5t19.5 7.5h186q92 0 142.5 38t50.5 103q0 69 -56 107.5t-162 38.5q-136 0 -249 -39l-121 -41q-25 -10 -35 16 l-84 227q-9 25 16 33z" />
<glyph unicode="&#x499;" horiz-adv-x="1017" d="M131 971l109 28q116 29 237 29q197 0 310.5 -78.5t113.5 -216.5q0 -155 -129 -203q-9 -2 -12 -7t0 -10.5t12 -8.5q83 -26 127.5 -74.5t44.5 -140.5q0 -109 -73.5 -185.5t-206.5 -107.5v-297q0 -12 -7.5 -19.5t-19.5 -7.5h-246q-26 0 -26 27v285q-73 10 -142 26l-114 29 q-12 3 -17.5 12t-1.5 21l62 211q9 24 32 18l109 -25q87 -22 186 -22q160 0 160 78q0 31 -37 48t-100 17h-164q-12 0 -19.5 7.5t-7.5 19.5v170q0 12 7.5 19.5t19.5 7.5h162q46 0 72 15.5t26 43.5q0 72 -123 72q-81 0 -174 -21l-96 -24q-24 -6 -33 18l-59 213q-9 27 18 33z " />
<glyph unicode="&#x49a;" horiz-adv-x="1478" d="M1221 289h159q12 0 19.5 -7.5t7.5 -19.5v-624q0 -12 -7.5 -19.5t-19.5 -7.5h-260q-26 0 -26 27v362h-62q-22 0 -31 18l-165 318q-66 125 -153 195.5t-175 70.5h-43v-575q0 -12 -7.5 -19.5t-19.5 -7.5h-278q-12 0 -19.5 7.5t-7.5 19.5v1398q0 12 7.5 19.5t19.5 7.5h278 q12 0 19.5 -7.5t7.5 -19.5v-534h41q88 0 171.5 65t143.5 179l156 299q9 18 31 18h299q15 0 20 -9t-2 -22l-217 -415q-89 -177 -256 -242q-8 -3 -9 -11.5t9 -13.5q175 -78 268 -262z" />
<glyph unicode="&#x49b;" horiz-adv-x="1204" d="M956 285h170q12 0 19.5 -7.5t7.5 -19.5v-559q0 -12 -7.5 -19.5t-19.5 -7.5h-245q-12 0 -19.5 7.5t-7.5 19.5v301h-78q-21 0 -33 18l-110 220q-35 65 -74 97t-104 32h-17v-340q0 -27 -26 -27h-273q-26 0 -26 27v952q0 27 26 27h273q26 0 26 -27v-328h19q32 0 56.5 10.5 t45 34t32 42.5t30.5 55l100 194q13 19 33 19h293q15 0 20 -9t-2 -22l-164 -320q-49 -93 -149 -133q-5 -2 -5.5 -7.5t5.5 -8.5q120 -55 161 -137z" />
<glyph unicode="&#x49c;" horiz-adv-x="1585" d="M1274 473l233 -442q7 -13 2 -22t-20 -9h-307q-22 0 -31 18l-174 334q-90 168 -193 223v-229q0 -27 -26 -27h-170q-12 0 -19.5 7.5t-7.5 19.5v256h-96v-575q0 -12 -7.5 -19.5t-19.5 -7.5h-278q-12 0 -19.5 7.5t-7.5 19.5v1398q0 12 7.5 19.5t19.5 7.5h278q12 0 19.5 -7.5 t7.5 -19.5v-534h96v233q0 12 7.5 19.5t19.5 7.5h170q26 0 26 -27v-209q92 46 170 195l168 324q12 18 33 18h301q15 0 20.5 -9t-1.5 -22l-224 -432q-51 -92 -109 -145.5t-134 -83.5q-8 -3 -8.5 -11.5t8.5 -13.5q93 -43 155 -105.5t111 -156.5z" />
<glyph unicode="&#x49d;" horiz-adv-x="1304" d="M1057 365l170 -334q7 -13 1.5 -22t-20.5 -9h-290q-21 0 -33 18l-111 215q-18 35 -27 50.5t-28 43.5t-39.5 44t-44.5 24v-153q0 -12 -7.5 -19.5t-19.5 -7.5h-92q-12 0 -19.5 7.5t-7.5 19.5v159h-51v-374q0 -27 -26 -27h-273q-26 0 -26 27v952q0 27 26 27h273q26 0 26 -27 v-365h51v162q0 12 7.5 19.5t19.5 7.5h92q12 0 19.5 -7.5t7.5 -19.5v-153q11 5 22.5 12.5t20 15t19 21t16 21.5t15.5 25.5l14 24.5t14 26.5t12 23.5l102 194q10 19 31 19h293q15 0 20 -9t-2 -22l-161 -320q-50 -89 -158 -133q-6 -2 -6.5 -7.5t6.5 -8.5q119 -55 164 -141z" />
<glyph unicode="&#x49e;" horiz-adv-x="1527" d="M1212 477l238 -446q8 -13 2.5 -22t-22.5 -9h-306q-21 0 -30 18l-166 318q-66 125 -153 195.5t-175 70.5h-43v-575q0 -12 -7.5 -19.5t-19.5 -7.5h-278q-12 0 -19.5 7.5t-7.5 19.5v1046h-157q-12 0 -19.5 7.5t-7.5 19.5v157q0 12 7.5 19.5t19.5 7.5h157v141q0 12 7.5 19.5 t19.5 7.5h278q12 0 19.5 -7.5t7.5 -19.5v-141h158q26 0 26 -27v-157q0 -27 -26 -27h-158v-182h41q88 0 171.5 65t143.5 179l156 299q9 18 31 18h299q15 0 20 -9t-2 -22l-217 -415q-89 -177 -256 -242q-8 -3 -9 -11.5t9 -13.5q175 -78 268 -262z" />
<glyph unicode="&#x49f;" horiz-adv-x="1175" d="M924 369l174 -338q7 -13 1.5 -22t-20.5 -9h-293q-20 0 -32 18l-111 220q-35 65 -74 97t-104 32h-16v-340q0 -12 -7.5 -19.5t-19.5 -7.5h-272q-12 0 -19.5 7.5t-7.5 19.5v1114h-115q-26 0 -26 26v158q0 27 26 27h115v112q0 12 7.5 19.5t19.5 7.5h272q12 0 19.5 -7.5 t7.5 -19.5v-112h346q26 0 26 -27v-158q0 -26 -26 -26h-346v-490h18q32 0 56.5 10.5t45 34t32 42.5t30.5 55l100 194q13 19 33 19h293q15 0 20 -9t-2 -22l-164 -320q-49 -93 -149 -133q-5 -2 -5.5 -7.5t5.5 -8.5q121 -56 162 -137z" />
<glyph unicode="&#x4a0;" horiz-adv-x="1710" d="M1395 477l237 -446q8 -13 2.5 -22t-22.5 -9h-305q-22 0 -31 18l-166 318q-66 125 -153 195.5t-175 70.5h-43v-575q0 -27 -26 -27h-279q-26 0 -26 27v1134h-351q-26 0 -26 27v237q0 27 26 27h656q26 0 26 -27v-534h41q88 0 172 65t144 179l155 299q9 18 31 18h299 q15 0 20 -9t-2 -22l-217 -415q-89 -177 -256 -242q-8 -3 -9 -11.5t9 -13.5q177 -79 269 -262z" />
<glyph unicode="&#x4a1;" horiz-adv-x="1347" d="M1096 369l174 -338q7 -13 1.5 -22t-20.5 -9h-293q-20 0 -32 18l-111 220q-35 65 -74 97t-104 32h-16v-340q0 -12 -7.5 -19.5t-19.5 -7.5h-272q-12 0 -19.5 7.5t-7.5 19.5v694h-238q-26 0 -26 27v231q0 27 26 27h537q12 0 19.5 -7.5t7.5 -19.5v-328h18q32 0 56.5 10.5 t45 34t32 42.5t30.5 55l100 194q13 19 33 19h293q15 0 20 -9t-2 -22l-164 -320q-49 -93 -149 -133q-5 -2 -5.5 -7.5t5.5 -8.5q121 -56 162 -137z" />
<glyph unicode="&#x4a2;" horiz-adv-x="1572" d="M1327 289h148q26 0 26 -27v-624q0 -27 -26 -27h-258q-12 0 -19.5 7.5t-7.5 19.5v362h-166q-12 0 -19.5 7.5t-7.5 19.5v575h-532v-575q0 -12 -7.5 -19.5t-19.5 -7.5h-278q-12 0 -19.5 7.5t-7.5 19.5v1398q0 12 7.5 19.5t19.5 7.5h278q12 0 19.5 -7.5t7.5 -19.5v-534h532 v534q0 12 7.5 19.5t19.5 7.5h276q12 0 19.5 -7.5t7.5 -19.5v-1136z" />
<glyph unicode="&#x4a3;" horiz-adv-x="1228" d="M1024 283h117q26 0 26 -27v-557q0 -27 -26 -27h-244q-12 0 -19.5 7.5t-7.5 19.5v301h-143q-12 0 -19.5 7.5t-7.5 19.5v342h-262v-342q0 -27 -26 -27h-273q-26 0 -26 27v952q0 27 26 27h273q26 0 26 -27v-328h262v328q0 12 7.5 19.5t19.5 7.5h270q12 0 19.5 -7.5 t7.5 -19.5v-696z" />
<glyph unicode="&#x4a4;" horiz-adv-x="2070" d="M1985 1421l-68 -239q-7 -23 -29 -23h-561v-1132q0 -12 -7.5 -19.5t-19.5 -7.5h-276q-12 0 -19.5 7.5t-7.5 19.5v575h-532v-575q0 -12 -7.5 -19.5t-19.5 -7.5h-278q-12 0 -19.5 7.5t-7.5 19.5v1398q0 12 7.5 19.5t19.5 7.5h278q12 0 19.5 -7.5t7.5 -19.5v-534h532v534 q0 12 7.5 19.5t19.5 7.5h938q13 0 19.5 -8.5t3.5 -22.5z" />
<glyph unicode="&#x4a5;" horiz-adv-x="1536" d="M727 1006h719q13 0 19 -8.5t3 -22.5l-67 -232q-6 -22 -29 -22h-348v-694q0 -12 -7.5 -19.5t-19.5 -7.5h-270q-12 0 -19.5 7.5t-7.5 19.5v342h-262v-342q0 -27 -26 -27h-273q-26 0 -26 27v952q0 27 26 27h273q26 0 26 -27v-328h262v328q0 12 7.5 19.5t19.5 7.5z" />
<glyph unicode="&#x4a6;" horiz-adv-x="1529" d="M1282 289h150q26 0 26 -27v-624q0 -27 -26 -27h-258q-12 0 -19.5 7.5t-7.5 19.5v362h-168q-12 0 -19.5 7.5t-7.5 19.5v1134h-487v-1134q0 -12 -7.5 -19.5t-19.5 -7.5h-278q-12 0 -19.5 7.5t-7.5 19.5v1398q0 12 7.5 19.5t19.5 7.5h1095q12 0 19.5 -7.5t7.5 -19.5v-1136z " />
<glyph unicode="&#x4a7;" horiz-adv-x="1218" d="M1014 283h116q12 0 19.5 -7.5t7.5 -19.5v-557q0 -12 -7.5 -19.5t-19.5 -7.5h-243q-12 0 -19.5 7.5t-7.5 19.5v301h-143q-12 0 -19.5 7.5t-7.5 19.5v694h-252v-694q0 -27 -26 -27h-273q-26 0 -26 27v952q0 27 26 27h848q12 0 19.5 -7.5t7.5 -19.5v-696z" />
<glyph unicode="&#x4a8;" horiz-adv-x="2029" d="M1925 319l76 -229q9 -24 -16 -33l-117 -37q-121 -40 -281 -40q-193 0 -358 65q-160 -68 -367 -68q-362 0 -566 197t-204 549q0 179 51 324t168 294l99 123q15 21 36 4l207 -155q21 -17 4 -37l-98 -127q-133 -173 -133 -410q0 -220 120.5 -343.5t332.5 -123.5h34 q-186 227 -186 572q0 281 131 436.5t361 155.5q237 0 370 -154t133 -428q0 -351 -182 -580h33q120 0 209 27l110 35q23 9 33 -17zM1053 827q0 -304 168 -444q168 146 168 463q0 143 -43 218t-121 75q-82 0 -127 -82t-45 -230z" />
<glyph unicode="&#x4a9;" horiz-adv-x="1568" d="M1468 274l74 -223q9 -24 -18 -33l-47 -14q-89 -27 -195 -27q-180 0 -326 48q-130 -48 -290 -48q-281 0 -437.5 141.5t-156.5 405.5q0 113 30 205t93 180l69 99q15 22 37 6l203 -137q24 -14 8 -37l-55 -84q-68 -105 -68 -232q0 -132 67 -201t189 -77q-94 142 -94 329 q0 193 103 301.5t286 108.5q182 0 283.5 -108.5t101.5 -301.5q0 -175 -76 -311h33q58 0 109 15l45 12q22 8 32 -17zM936 719q-40 0 -63 -38.5t-23 -105.5q0 -124 94 -206q64 83 64 206q0 67 -19.5 105.5t-52.5 38.5z" />
<glyph unicode="&#x4aa;" d="M1161 59l-98 -32q-106 -35 -189 -43v-346q0 -27 -26 -27h-258q-12 0 -19.5 7.5t-7.5 19.5v364q-223 57 -347 247.5t-124 477.5q0 345 178 546.5t486 201.5q172 0 305 -43l94 -31q25 -9 16 -33l-73 -231q-10 -26 -33 -17l-96 31q-88 27 -213 27q-154 0 -242 -119t-88 -332 q0 -216 87.5 -335.5t242.5 -119.5q119 0 211 31l96 29q26 10 33 -17l82 -223q9 -24 -17 -33z" />
<glyph unicode="&#x4ab;" horiz-adv-x="985" d="M877 31l-117 -33q-50 -12 -76 -14v-285q0 -12 -7.5 -19.5t-19.5 -7.5h-243q-12 0 -19.5 7.5t-7.5 19.5v307q-153 51 -234 179.5t-81 318.5q0 245 134.5 384.5t383.5 139.5q90 0 164 -20l112 -31q28 -9 19 -35l-66 -225q-9 -25 -33 -19l-81 23q-62 18 -115 18 q-102 0 -151.5 -60.5t-49.5 -172.5q0 -116 50.5 -179t148.5 -63q53 0 125 21l82 20q23 6 32 -18l68 -224q9 -26 -18 -32z" />
<glyph unicode="&#x4ac;" horiz-adv-x="1335" d="M834 1161v-872h147q12 0 19.5 -7.5t7.5 -19.5v-624q0 -12 -7.5 -19.5t-19.5 -7.5h-258q-12 0 -19.5 7.5t-7.5 19.5v362h-166q-26 0 -26 27v1134h-406q-26 0 -26 27v237q0 27 26 27h1139q12 0 19.5 -7.5t7.5 -19.5v-237q0 -12 -7.5 -19.5t-19.5 -7.5h-403z" />
<glyph unicode="&#x4ad;" horiz-adv-x="1040" d="M682 721v-438h117q26 0 26 -27v-557q0 -27 -26 -27h-244q-12 0 -19.5 7.5t-7.5 19.5v301h-143q-12 0 -19.5 7.5t-7.5 19.5v694h-270q-12 0 -19.5 7.5t-7.5 19.5v231q0 12 7.5 19.5t19.5 7.5h862q12 0 19.5 -7.5t7.5 -19.5v-231q0 -12 -7.5 -19.5t-19.5 -7.5h-268z" />
<glyph unicode="&#x4ae;" horiz-adv-x="1425" d="M1368 1421l-256 -479q-57 -109 -77.5 -149t-57 -116.5t-47.5 -113.5t-27 -99t-20 -118t-4 -127v-192q0 -12 -7.5 -19.5t-19.5 -7.5h-277q-26 0 -26 27v192q0 72 -4 128t-19.5 116.5t-28 100.5t-47 112.5t-58 117t-79.5 148.5l-256 479q-8 13 -2 22t23 9h301q22 0 31 -18 l143 -263q74 -136 141 -319q6 -19 19.5 -19t19.5 19q49 146 141 319l142 263q9 18 31 18h301q17 0 22.5 -9t-2.5 -22z" />
<glyph unicode="&#x4af;" horiz-adv-x="1173" d="M1120 975l-174 -438q-96 -237 -146 -427.5t-50 -406.5v-125q0 -12 -7.5 -19.5t-19.5 -7.5h-270q-12 0 -19.5 7.5t-7.5 19.5v125q0 215 -50.5 403.5t-148.5 430.5l-174 438q-6 13 0 22t21 9h284q22 0 31 -21l51 -143q90 -261 129 -477q3 -13 11 -18t16 0t10 18 q36 216 127 477l51 143q9 21 31 21h285q15 0 20.5 -9t-0.5 -22z" />
<glyph unicode="&#x4b0;" horiz-adv-x="1402" d="M1378 1421l-256 -479q-128 -245 -161 -327q-21 -52 -35 -99h223q12 0 19.5 -7.5t7.5 -19.5v-159q0 -12 -7.5 -19.5t-19.5 -7.5h-258q-2 -27 -2 -84v-192q0 -12 -7.5 -19.5t-19.5 -7.5h-276q-12 0 -19.5 7.5t-7.5 19.5v192q0 57 -2 84h-301q-12 0 -19.5 7.5t-7.5 19.5v159 q0 12 7.5 19.5t19.5 7.5h266q-17 57 -48.5 128.5t-58 123.5t-91.5 174l-256 479q-8 13 -2.5 22t22.5 9h301q22 0 31 -18l143 -263q77 -142 142 -319q6 -19 19 -19t19 19q47 140 142 319l141 263q9 18 31 18h301q17 0 22.5 -9t-2.5 -22z" />
<glyph unicode="&#x4b1;" horiz-adv-x="1214" d="M1141 975l-174 -438q-84 -213 -117 -324h176q12 0 19.5 -7.5t7.5 -19.5v-157q0 -12 -7.5 -19.5t-19.5 -7.5h-229q-27 -159 -27 -299v-125q0 -12 -7.5 -19.5t-19.5 -7.5h-270q-12 0 -19.5 7.5t-7.5 19.5v125q0 153 -28 299h-230q-26 0 -26 27v157q0 27 26 27h179 q-27 91 -119 324l-174 438q-6 13 -0.5 22t20.5 9h285q22 0 31 -21l51 -143q90 -261 129 -477q3 -13 11 -18t16 0t10 18q36 216 127 477l51 143q9 21 31 21h284q15 0 21 -9t0 -22z" />
<glyph unicode="&#x4b2;" horiz-adv-x="1468" d="M1227 289h153q12 0 19.5 -7.5t7.5 -19.5v-624q0 -12 -7.5 -19.5t-19.5 -7.5h-256q-26 0 -26 27v362h-56q-21 0 -30 18l-258 480q-8 16 -13 20.5t-10.5 0t-13.5 -20.5l-256 -480q-9 -18 -31 -18h-301q-17 0 -22.5 9t2.5 22l251 475q70 131 177 203q2 2 6.5 4t7 3.5t4.5 5 t2 7.5q3 10 -8 16q-117 72 -184 201l-250 475q-7 13 -2 22t20 9h301q22 0 31 -18l248 -473q23 -48 45 0l250 473q9 18 30 18h301q15 0 20.5 -9t-1.5 -22l-250 -473q-66 -133 -186 -203q-9 -6 -9 -16q0 -5 3 -8.5t10.5 -7t9.5 -4.5q111 -74 176 -203z" />
<glyph unicode="&#x4b3;" horiz-adv-x="1175" d="M915 285h183q26 0 26 -27v-559q0 -27 -26 -27h-244q-12 0 -19.5 7.5t-7.5 19.5v301h-88q-20 0 -32 18l-121 234q-18 34 -35 0l-123 -234q-9 -18 -31 -18h-299q-17 0 -21.5 10t3.5 23l174 315q65 108 141 154q15 8 -2 18q-33 19 -71.5 59t-65.5 85l-172 309q-8 13 -3.5 23 t21.5 10h295q21 0 31 -19l123 -235q16 -37 35 0l121 235q13 19 32 19h293q17 0 22 -10t-3 -23l-172 -309q-27 -49 -64.5 -88t-73.5 -56q-17 -10 -2 -18q89 -60 142 -154z" />
<glyph unicode="&#x4b4;" horiz-adv-x="1824" d="M1581 289h145q12 0 19.5 -7.5t7.5 -19.5v-624q0 -12 -7.5 -19.5t-19.5 -7.5h-258q-26 0 -26 27v362h-983q-12 0 -19.5 7.5t-7.5 19.5v1116h-375q-26 0 -26 26v256q0 27 26 27h1014q12 0 19.5 -7.5t7.5 -19.5v-256q0 -26 -27 -26h-309v-852h487v1134q0 12 7.5 19.5 t19.5 7.5h278q12 0 19.5 -7.5t7.5 -19.5v-1136z" />
<glyph unicode="&#x4b5;" horiz-adv-x="1402" d="M1200 283h115q26 0 26 -27v-557q0 -27 -26 -27h-244q-12 0 -19.5 7.5t-7.5 19.5v301h-718q-12 0 -19.5 7.5t-7.5 19.5v694h-242q-26 0 -26 27v231q0 27 26 27h705q26 0 26 -27v-231q0 -27 -26 -27h-139v-436h251v694q0 12 7.5 19.5t19.5 7.5h273q26 0 26 -27v-696z" />
<glyph unicode="&#x4b6;" horiz-adv-x="1476" d="M1231 289h147q12 0 19.5 -7.5t7.5 -19.5v-624q0 -12 -7.5 -19.5t-19.5 -7.5h-258q-26 0 -26 27v362h-166q-12 0 -19.5 7.5t-7.5 19.5v518l-65 -25q-110 -39 -248 -39q-230 0 -358 129.5t-128 360.5v454q0 12 7.5 19.5t19.5 7.5h277q26 0 26 -27v-395q0 -130 45.5 -191 t143.5 -61q73 0 159 27l121 41v579q0 12 7.5 19.5t19.5 7.5h276q12 0 19.5 -7.5t7.5 -19.5v-1136z" />
<glyph unicode="&#x4b7;" horiz-adv-x="1183" d="M979 283h117q26 0 26 -27v-557q0 -27 -26 -27h-244q-12 0 -19.5 7.5t-7.5 19.5v301h-143q-12 0 -19.5 7.5t-7.5 19.5v313l-4 -2q-22 -9 -28 -10q-95 -21 -158 -21q-181 0 -282 94t-101 261v317q0 12 7.5 19.5t19.5 7.5h270q12 0 19.5 -7.5t7.5 -19.5v-279 q0 -104 108 -104q36 0 74 10l67 19v354q0 12 7.5 19.5t19.5 7.5h270q12 0 19.5 -7.5t7.5 -19.5v-696z" />
<glyph unicode="&#x4b8;" horiz-adv-x="1366" d="M928 1452h276q12 0 19.5 -7.5t7.5 -19.5v-1398q0 -12 -7.5 -19.5t-19.5 -7.5h-276q-12 0 -19.5 7.5t-7.5 19.5v518l-65 -25q-32 -11 -66 -20v-267q0 -26 -27 -26h-170q-26 0 -26 26v250q-212 10 -328.5 139t-116.5 349v454q0 12 7.5 19.5t19.5 7.5h277q26 0 26 -27v-395 q0 -200 115 -242v224q0 26 26 26h170q27 0 27 -26v-211l10 4l121 41v579q0 12 7.5 19.5t19.5 7.5z" />
<glyph unicode="&#x4b9;" horiz-adv-x="1153" d="M743 1006h271q26 0 26 -27v-952q0 -27 -26 -27h-271q-26 0 -26 27v313l-21 -6l-61 -12v-140q0 -26 -27 -26h-92q-27 0 -27 26v125h-24q-181 0 -282 94t-101 261v317q0 12 7.5 19.5t19.5 7.5h270q12 0 19.5 -7.5t7.5 -19.5v-279q0 -89 83 -102v123q0 12 7.5 19.5t19.5 7.5 h92q12 0 19.5 -7.5t7.5 -19.5v-115l12 2l70 17v354q0 27 26 27z" />
<glyph unicode="&#x4ba;" horiz-adv-x="1366" d="M162 1452h276q12 0 19.5 -7.5t7.5 -19.5v-446l65 22q110 39 248 39q230 0 358 -129t128 -360v-524q0 -12 -7.5 -19.5t-19.5 -7.5h-276q-12 0 -19.5 7.5t-7.5 19.5v465q0 129 -45.5 190t-143.5 61q-76 0 -159 -26l-121 -41v-649q0 -12 -7.5 -19.5t-19.5 -7.5h-276 q-12 0 -19.5 7.5t-7.5 19.5v1398q0 12 7.5 19.5t19.5 7.5z" />
<glyph unicode="&#x4bb;" horiz-adv-x="1093" d="M141 1006h271q26 0 26 -27v-274l4 2q21 8 29 10q90 20 158 20q181 0 282 -93.5t101 -260.5v-356q0 -12 -7.5 -19.5t-19.5 -7.5h-270q-12 0 -19.5 7.5t-7.5 19.5v317q0 51 -28 78t-80 27q-32 0 -74 -11l-68 -18v-393q0 -27 -26 -27h-271q-26 0 -26 27v952q0 27 26 27z" />
<glyph unicode="&#x4bc;" horiz-adv-x="1802" d="M514 729l18 4q1 343 175.5 542.5t470.5 199.5q248 0 390 -128.5t142 -353.5q0 -182 -101 -281.5t-313 -136.5l-397 -71q34 -113 108.5 -172.5t170.5 -59.5q110 0 198 31l99 29q22 8 32 -17l84 -231q6 -25 -18 -33l-115 -37q-110 -37 -280 -37q-231 0 -390 123.5 t-221 345.5l-16 -4q-234 -43 -362 63t-128 343v156q0 26 27 26h277q26 0 26 -26v-156q0 -63 33 -96t90 -23zM864 791l377 65q62 9 98.5 47.5t36.5 89.5q0 90 -52.5 137.5t-145.5 47.5q-128 0 -210.5 -95t-103.5 -292z" />
<glyph unicode="&#x4bd;" horiz-adv-x="1380" d="M1030 266l137 31q25 6 31 -18l57 -211q10 -26 -18 -33l-143 -35q-92 -23 -195 -23q-194 0 -320.5 87t-172.5 245q-182 -25 -268.5 46.5t-86.5 248.5v111q0 26 27 26h170q26 0 26 -26v-107q0 -100 107 -86q6 236 140 372t368 136q190 0 298.5 -94t108.5 -254 q0 -123 -84.5 -194.5t-259.5 -96.5l-239 -35q57 -104 186 -104q63 0 131 14zM684 565l221 31q88 11 88 82q0 76 -116 76q-157 0 -193 -189z" />
<glyph unicode="&#x4be;" horiz-adv-x="1802" d="M514 729l18 4q1 343 175.5 542.5t470.5 199.5q248 0 390 -128.5t142 -353.5q0 -182 -101 -281.5t-313 -136.5l-397 -71q34 -113 108.5 -172.5t170.5 -59.5q110 0 198 31l99 29q22 8 32 -17l84 -231q6 -25 -18 -33l-115 -37q-73 -23 -151 -32v-344q0 -12 -7.5 -19.5 t-19.5 -7.5h-256q-12 0 -19.5 7.5t-7.5 19.5v362q-159 41 -269.5 156t-160.5 290l-16 -4q-234 -43 -362 63t-128 343v156q0 26 27 26h277q26 0 26 -26v-156q0 -63 33 -96t90 -23zM864 791l377 65q62 9 98.5 47.5t36.5 89.5q0 90 -52.5 137.5t-145.5 47.5q-128 0 -210.5 -95 t-103.5 -292z" />
<glyph unicode="&#x4bf;" horiz-adv-x="1380" d="M1030 266l137 31q25 6 31 -18l57 -211q10 -26 -18 -33l-143 -35q-30 -8 -86 -16v-285q0 -12 -7.5 -19.5t-19.5 -7.5h-244q-26 0 -26 27v305q-113 35 -189 112.5t-110 192.5h-6q-182 -25 -268.5 46.5t-86.5 248.5v111q0 26 27 26h170q26 0 26 -26v-107q0 -100 107 -86h6 q6 235 139 371.5t363 136.5q190 0 298.5 -94t108.5 -254q0 -124 -84 -195t-260 -96l-239 -35q57 -104 186 -104q63 0 131 14zM684 565l221 33q88 8 88 80q0 76 -116 76q-157 0 -193 -189z" />
<glyph unicode="&#x4c0;" horiz-adv-x="598" d="M438 0h-278q-12 0 -19.5 7.5t-7.5 19.5v1398q0 12 7.5 19.5t19.5 7.5h278q12 0 19.5 -7.5t7.5 -19.5v-1398q0 -12 -7.5 -19.5t-19.5 -7.5z" />
<glyph unicode="&#x4c1;" horiz-adv-x="2015" d="M1329 1872v-25q0 -133 -78.5 -196.5t-244.5 -63.5t-244 63t-78 197v25q0 26 27 26h194q27 0 27 -26v-12q0 -74 74 -74q73 0 73 74v12q0 26 27 26h197q26 0 26 -26zM1911 1421l-215 -475q-34 -80 -73 -119.5t-105 -66.5q-8 -3 -8 -12.5t8 -12.5q63 -31 106 -81.5 t78 -127.5l227 -495q6 -13 0.5 -22t-20.5 -9h-293q-22 0 -31 20l-145 316q-7 14 -23 51t-24.5 54.5t-25 48t-30.5 46t-34 33.5t-43 25.5t-50 7.5h-39v-575q0 -27 -26 -27h-277q-26 0 -26 27v575h-39q-23 0 -44.5 -7.5t-37 -17t-32.5 -29t-27.5 -34t-25 -43t-21 -43 t-21 -47.5t-19.5 -45l-145 -316q-9 -20 -31 -20h-293q-15 0 -20.5 9t0.5 22l225 495q65 147 185 209q8 3 8 12.5t-8 12.5q-65 27 -104 66.5t-73 119.5l-215 475q-6 13 0 22t21 9h293q22 0 31 -20l133 -297q51 -115 79 -155q61 -89 142 -89h39v534q0 27 26 27h277 q26 0 26 -27v-534h39q20 0 38 4t35 16t29 20t27 29.5t22.5 30t21.5 37t17.5 35t18 38.5t15.5 34l131 297q9 20 30 20h295q15 0 21 -9t0 -22z" />
<glyph unicode="&#x4c2;" horiz-adv-x="1628" d="M1118 1464v-49q0 -137 -80 -213t-225 -76q-142 0 -222.5 76.5t-80.5 212.5v49q0 12 7.5 19.5t19.5 7.5h168q26 0 26 -27v-53q0 -40 21.5 -63t60.5 -23q41 0 62.5 23t21.5 63v53q0 12 7.5 19.5t19.5 7.5h168q26 0 26 -27zM1526 975l-133 -299q-51 -124 -133 -154 q-7 -3 -6.5 -10t6.5 -12q49 -23 81.5 -59t61.5 -101l141 -309q6 -13 0.5 -22t-20.5 -9h-287q-22 0 -33 20l-125 271q-16 37 -37 56.5t-38 19.5h-29v-340q0 -12 -7.5 -19.5t-19.5 -7.5h-270q-12 0 -19.5 7.5t-7.5 19.5v340h-26q-20 0 -40.5 -19.5t-37.5 -56.5l-125 -271 q-11 -20 -33 -20h-285q-15 0 -20.5 9t0.5 22l141 309q27 63 60 99.5t82 60.5q7 4 7 11.5t-7 10.5q-80 30 -131 154l-134 299q-6 13 0 22t21 9h285q21 0 30 -21l80 -186q26 -60 57.5 -104t59.5 -44h16v328q0 12 7.5 19.5t19.5 7.5h270q12 0 19.5 -7.5t7.5 -19.5v-328h18 q28 0 60 44.5t55 103.5l80 186q9 21 31 21h286q15 0 21 -9t0 -22z" />
<glyph unicode="&#x4c3;" horiz-adv-x="1423" d="M1325 1421l-201 -385q-51 -95 -102 -152t-115 -85q-12 -5 -11.5 -13.5t11.5 -11.5q194 -58 299 -198.5t105 -350.5v-168q0 -217 -121 -341t-336 -124q-89 0 -213 39l-45 15q-24 8 -18 32l81 226q9 25 33 16l41 -12q62 -19 121 -19t93 45t34 123v168q0 169 -124.5 273 t-319.5 104h-72v-575q0 -12 -7.5 -19.5t-19.5 -7.5h-278q-12 0 -19.5 7.5t-7.5 19.5v1398q0 12 7.5 19.5t19.5 7.5h278q12 0 19.5 -7.5t7.5 -19.5v-534h41q91 0 175 73t136 171l156 299q9 18 31 18h303q15 0 20 -9t-2 -22z" />
<glyph unicode="&#x4c4;" horiz-adv-x="1142" d="M1065 975l-158 -307q-21 -41 -57.5 -76t-69.5 -49q-7 -3 -9.5 -7t0 -8t9.5 -6q281 -69 281 -368v-234q0 -184 -107.5 -287.5t-298.5 -103.5q-91 0 -198 37l-23 8q-25 9 -16 33l76 217q9 25 32 16l29 -8q49 -14 88 -14q94 0 94 102v234q0 100 -72 157.5t-200 57.5h-27 v-342q0 -27 -26 -27h-273q-26 0 -26 27v952q0 27 26 27h273q26 0 26 -27v-328h29q41 0 75 29t74 104l105 203q13 19 33 19h293q15 0 20 -9t-2 -22z" />
<glyph unicode="&#x4c5;" horiz-adv-x="1630" d="M1346 289h180q30 0 24 -29l-137 -627q-6 -22 -31 -22h-258q-30 0 -24 29l80 360h-138q-26 0 -26 27v1134h-381v-434q0 -283 -96.5 -460.5t-302.5 -274.5l-70 -33q-26 -13 -35 12l-100 224q-9 25 14 34l72 35q97 44 142.5 156.5t45.5 306.5v698q0 12 7.5 19.5t19.5 7.5 h987q12 0 19.5 -7.5t7.5 -19.5v-1136z" />
<glyph unicode="&#x4c6;" horiz-adv-x="1292" d="M1067 285h133q14 0 20.5 -8.5t2.5 -20.5l-144 -561q-7 -23 -30 -23h-242q-14 0 -20.5 8t-2.5 21l76 299h-90q-12 0 -19.5 7.5t-7.5 19.5v694h-192v-225q0 -179 -78.5 -300.5t-243.5 -197.5l-61 -29q-24 -12 -37 13l-100 213q-9 25 14 34l64 31q60 31 88 87.5t28 148.5 v483q0 12 7.5 19.5t19.5 7.5h788q12 0 19.5 -7.5t7.5 -19.5v-694z" />
<glyph unicode="&#x4c7;" horiz-adv-x="1462" d="M1327 1425v-1368q0 -219 -122 -342t-339 -123q-110 0 -221 41l-45 17q-24 6 -14 33l84 223q6 26 32 16l41 -14q62 -19 123 -19q62 0 96.5 46t34.5 122v545h-532v-575q0 -12 -7.5 -19.5t-19.5 -7.5h-278q-12 0 -19.5 7.5t-7.5 19.5v1398q0 12 7.5 19.5t19.5 7.5h278 q12 0 19.5 -7.5t7.5 -19.5v-534h532v534q0 12 7.5 19.5t19.5 7.5h276q12 0 19.5 -7.5t7.5 -19.5z" />
<glyph unicode="&#x4c8;" horiz-adv-x="1138" d="M727 1006h270q12 0 19.5 -7.5t7.5 -19.5v-1063q0 -182 -108.5 -284.5t-301.5 -102.5q-90 0 -202 37l-43 14q-23 9 -17 33l78 219q9 25 33 16l49 -14q56 -16 90 -16q98 0 98 98v453h-262v-342q0 -27 -26 -27h-273q-26 0 -26 27v952q0 27 26 27h273q26 0 26 -27v-328h262 v328q0 12 7.5 19.5t19.5 7.5z" />
<glyph unicode="&#x4c9;" horiz-adv-x="1611" d="M1327 289h180q31 0 25 -29l-137 -627q-6 -22 -31 -22h-258q-31 0 -25 29l80 360h-137q-12 0 -19.5 7.5t-7.5 19.5v575h-532v-575q0 -12 -7.5 -19.5t-19.5 -7.5h-278q-12 0 -19.5 7.5t-7.5 19.5v1398q0 12 7.5 19.5t19.5 7.5h278q12 0 19.5 -7.5t7.5 -19.5v-534h532v534 q0 12 7.5 19.5t19.5 7.5h276q12 0 19.5 -7.5t7.5 -19.5v-1136z" />
<glyph unicode="&#x4ca;" horiz-adv-x="1249" d="M1024 285h133q14 0 20.5 -8.5t2.5 -20.5l-144 -561q-7 -23 -30 -23h-242q-14 0 -20.5 8t-2.5 21l76 299h-90q-12 0 -19.5 7.5t-7.5 19.5v342h-262v-342q0 -27 -26 -27h-273q-26 0 -26 27v952q0 27 26 27h273q26 0 26 -27v-328h262v328q0 12 7.5 19.5t19.5 7.5h270 q12 0 19.5 -7.5t7.5 -19.5v-694z" />
<glyph unicode="&#x4cb;" horiz-adv-x="1366" d="M928 1452h276q12 0 19.5 -7.5t7.5 -19.5v-1398q0 -12 -7.5 -19.5t-19.5 -7.5h-180v-362q0 -12 -7.5 -19.5t-19.5 -7.5h-258q-26 0 -26 27v624q0 27 26 27h162v223l-65 -23q-43 -17 -114 -27.5t-134 -10.5q-230 0 -358 129t-128 360v485q0 12 7.5 19.5t19.5 7.5h277 q26 0 26 -27v-444q0 -120 46 -178t143 -58q61 0 159 29l121 43v608q0 12 7.5 19.5t19.5 7.5z" />
<glyph unicode="&#x4cc;" horiz-adv-x="1093" d="M682 1006h270q12 0 19.5 -7.5t7.5 -19.5v-952q0 -12 -7.5 -19.5t-19.5 -7.5h-155v-301q0 -12 -7.5 -19.5t-19.5 -7.5h-246q-26 0 -26 27v479q0 27 26 27h131v155l-18 -6q-90 -24 -172 -24q-181 0 -282 93.5t-101 260.5v295q0 12 7.5 19.5t19.5 7.5h270q12 0 19.5 -7.5 t7.5 -19.5v-258q0 -50 28 -77.5t80 -27.5q32 0 74 11l67 20v332q0 12 7.5 19.5t19.5 7.5z" />
<glyph unicode="&#x4cd;" horiz-adv-x="1880" d="M1597 289h181q30 0 24 -29l-137 -627q-6 -22 -31 -22h-258q-30 0 -24 29l80 360h-138q-26 0 -26 27v432q0 336 24 516q3 22 -9.5 25t-18.5 -17q-23 -63 -66 -166l-113 -311q-8 -25 -31 -95.5t-36 -109.5q-6 -22 -29 -22h-248q-23 0 -28 22q-63 186 -70 205l-113 313 q-10 28 -31.5 82t-31.5 82q-8 20 -21 17t-10 -25q29 -217 29 -516v-432q0 -12 -7.5 -19.5t-19.5 -7.5h-278q-12 0 -19.5 7.5t-7.5 19.5v1398q0 12 7.5 19.5t19.5 7.5h413q23 0 29 -22q29 -92 45 -140l107 -309q63 -181 96 -311q3 -12 9.5 -16.5t13.5 0t10 16.5 q42 172 90 311l110 309q24 62 45 140q6 22 31 22h412q26 0 26 -27v-1136z" />
<glyph unicode="&#x4ce;" horiz-adv-x="1462" d="M1235 285h135q14 0 20.5 -8.5t2.5 -20.5l-144 -561q-7 -23 -30 -23h-242q-14 0 -20.5 8t-2.5 21l76 299h-90q-12 0 -19.5 7.5t-7.5 19.5v96q0 268 23 438q1 15 -8.5 17.5t-14.5 -11.5q-34 -79 -39 -96l-45 -137q-19 -59 -28 -96q-7 -23 -29 -23h-199q-21 0 -28 23l-27 96 l-45 137q-6 17 -19 50t-18 46q-6 14 -16.5 11.5t-7.5 -17.5q26 -155 26 -457v-77q0 -27 -26 -27h-273q-26 0 -26 27v952q0 27 26 27h381q26 0 29 -25q11 -51 22 -84l35 -115q51 -172 58 -209q2 -9 6.5 -12t9 0t6.5 12q9 47 57 209l33 115q16 49 23 84q3 25 28 25h381 q12 0 19.5 -7.5t7.5 -19.5v-694z" />
<glyph unicode="&#x4cf;" horiz-adv-x="598" d="M438 0h-278q-12 0 -19.5 7.5t-7.5 19.5v1398q0 12 7.5 19.5t19.5 7.5h278q12 0 19.5 -7.5t7.5 -19.5v-1398q0 -12 -7.5 -19.5t-19.5 -7.5z" />
<glyph unicode="&#x4d0;" horiz-adv-x="1531" d="M1087 1872v-25q0 -133 -78.5 -196.5t-244.5 -63.5t-244 63t-78 197v25q0 26 27 26h195q26 0 26 -26v-12q0 -74 74 -74t74 74v12q0 26 26 26h197q26 0 26 -26zM465 193l-62 -173q-9 -20 -30 -20h-289q-15 0 -21.5 8.5t-1.5 22.5l289 782q133 367 195 617q6 22 30 22h381 q25 0 31 -22q62 -250 195 -617l288 -782q5 -14 -1 -22.5t-21 -8.5h-289q-22 0 -31 20l-61 173h-602zM963 481l-29 82q-120 331 -150 488q-3 12 -10.5 16.5t-15 0t-10.5 -16.5q-33 -163 -150 -488l-29 -82h394z" />
<glyph unicode="&#x4d1;" horiz-adv-x="1073" d="M838 1464v-49q0 -137 -80.5 -213t-225.5 -76q-142 0 -222.5 76.5t-80.5 212.5v49q0 12 7.5 19.5t19.5 7.5h168q12 0 19.5 -7.5t7.5 -19.5v-53q0 -40 21 -63t60 -23q41 0 62.5 23t21.5 63v53q0 12 7.5 19.5t19.5 7.5h168q12 0 19.5 -7.5t7.5 -19.5zM170 973l80 22 q125 33 225 33q233 0 363.5 -105t130.5 -292v-604q0 -12 -7.5 -19.5t-19.5 -7.5h-154q-20 0 -32 18l-19 37q-18 39 -65 0q-88 -78 -221 -78q-183 0 -286.5 86.5t-103.5 241.5q0 142 107.5 222.5t298.5 80.5h192v4q-6 66 -59 103t-141 37q-54 0 -133 -21l-78 -22 q-24 -6 -33 18l-63 213q-9 27 18 33zM659 406h-192q-44 0 -73 -22t-29 -56q0 -43 30.5 -66.5t85.5 -23.5q161 0 178 163v5z" />
<glyph unicode="&#x4d2;" horiz-adv-x="1531" d="M526 1921q87 0 133 -42.5t46 -125.5t-46 -125.5t-133 -42.5q-88 0 -134 42.5t-46 125.5t46 125.5t134 42.5zM993 1921q87 0 132.5 -42.5t45.5 -125.5t-45.5 -125.5t-132.5 -42.5q-88 0 -134 42.5t-46 125.5t46 125.5t134 42.5zM465 193l-62 -173q-9 -20 -30 -20h-289 q-15 0 -21.5 8.5t-1.5 22.5l289 782q133 367 195 617q6 22 30 22h381q25 0 31 -22q62 -250 195 -617l288 -782q5 -14 -1 -22.5t-21 -8.5h-289q-22 0 -31 20l-61 173h-602zM963 481l-29 82q-120 331 -150 488q-3 12 -10.5 16.5t-15 0t-10.5 -16.5q-33 -163 -150 -488l-29 -82 h394z" />
<glyph unicode="&#x4d3;" horiz-adv-x="1073" d="M326 1509q78 0 120.5 -43.5t42.5 -124.5q0 -80 -42.5 -125t-120.5 -45q-77 0 -120.5 45.5t-43.5 124.5q0 81 43.5 124.5t120.5 43.5zM737 1509q78 0 121 -43.5t43 -124.5q0 -80 -43 -125t-121 -45q-77 0 -120.5 45.5t-43.5 124.5q0 81 43.5 124.5t120.5 43.5zM170 973 l80 22q125 33 225 33q233 0 363.5 -105t130.5 -292v-604q0 -12 -7.5 -19.5t-19.5 -7.5h-154q-20 0 -32 18l-19 37q-18 39 -65 0q-88 -78 -221 -78q-183 0 -286.5 86.5t-103.5 241.5q0 142 107.5 222.5t298.5 80.5h192v4q-6 66 -59 103t-141 37q-54 0 -133 -21l-78 -22 q-24 -6 -33 18l-63 213q-9 27 18 33zM659 406h-192q-44 0 -73 -22t-29 -56q0 -43 30.5 -66.5t85.5 -23.5q161 0 178 163v5z" />
<glyph unicode="&#x4d4;" horiz-adv-x="1949" d="M1374 289h455q26 0 26 -27v-235q0 -27 -26 -27h-670q-22 0 -31 20l-61 173h-602l-62 -173q-9 -20 -30 -20h-289q-15 0 -21 9t0 22l256 698q170 465 226 701q6 22 30 22h1266q13 0 19.5 -8.5t3.5 -22.5l-68 -237q-7 -23 -29 -23h-663q-25 0 -25 -28q0 -19 31 -115l45 -127 h506q12 0 19.5 -7.5t7.5 -19.5v-235q0 -12 -7.5 -19.5t-19.5 -7.5h-401zM963 481l-54 148q-85 240 -123 418q-4 15 -12 20.5t-15.5 0t-10.5 -20.5q-39 -170 -125 -414l-56 -152h396z" />
<glyph unicode="&#x4d5;" horiz-adv-x="1636" d="M168 975l113 31q81 22 192 22q198 0 334 -110q25 -15 43 0q120 110 291 110q194 0 303.5 -95t109.5 -265q0 -118 -87.5 -185.5t-270.5 -93.5l-221 -31q10 -40 63.5 -72t102.5 -32q77 0 149 16l117 27q25 6 31 -18l59 -216q6 -25 -20 -32l-123 -29q-112 -25 -213 -25 q-193 0 -316 129q-21 25 -43 3q-129 -132 -315 -132q-191 0 -298.5 89.5t-107.5 250.5q0 58 21 107.5t66.5 92t128.5 67t196 24.5h186l-4 21q-10 55 -56 89t-130 34q-75 0 -143 -19l-84 -22q-24 -9 -33 16l-59 215q-9 27 18 33zM954 567l220 31q34 7 55.5 25t21.5 47 q0 44 -26.5 63t-83.5 19q-71 0 -122 -46t-65 -139zM659 406h-192q-102 0 -102 -84q0 -37 28.5 -60.5t71.5 -23.5q182 0 194 168z" />
<glyph unicode="&#x4d6;" horiz-adv-x="1255" d="M981 1872v-25q0 -133 -79 -196.5t-245 -63.5t-243.5 63t-77.5 197v25q0 26 26 26h195q27 0 27 -26v-12q0 -74 73 -74q74 0 74 74v12q0 26 27 26h196q27 0 27 -26zM993 864v-235q0 -27 -26 -27h-502v-313h670q26 0 26 -27v-235q0 -27 -26 -27h-975q-12 0 -19.5 7.5 t-7.5 19.5v1398q0 12 7.5 19.5t19.5 7.5h985q13 0 19 -8.5t3 -22.5l-65 -237q-7 -23 -29 -23h-608v-270h502q26 0 26 -27z" />
<glyph unicode="&#x4d7;" horiz-adv-x="1067" d="M848 1464v-49q0 -137 -80 -213t-225 -76q-142 0 -222.5 76.5t-80.5 212.5v49q0 27 26 27h168q12 0 19.5 -7.5t7.5 -19.5v-53q0 -40 21.5 -63t60.5 -23q41 0 62.5 23t21.5 63v53q0 27 26 27h168q12 0 19.5 -7.5t7.5 -19.5zM911 31l-127 -31q-104 -23 -194 -23 q-249 0 -383.5 140t-134.5 385t134 385.5t374 140.5q191 0 302 -93.5t111 -252.5q0 -123 -86.5 -194.5t-263.5 -96.5l-240 -35q29 -54 72.5 -78t114.5 -24q63 0 131 14l123 27q24 6 30 -19l58 -213q6 -25 -21 -32zM383 565l213 33q94 9 94 80q0 74 -123 74q-72 0 -126 -48 t-58 -139z" />
<glyph unicode="&#x4d8;" horiz-adv-x="1359" d="M203 1395l114 32q161 48 304 48q298 0 472.5 -202t174.5 -550q0 -343 -176.5 -544.5t-473.5 -201.5q-256 0 -399 125.5t-143 348.5q0 182 105.5 288t318.5 146l397 73q-30 91 -103.5 155.5t-172.5 64.5q-135 0 -226 -29l-102 -31q-23 -9 -33 17l-76 225q-8 25 19 35z M930 662l-381 -72q-139 -26 -139 -139q0 -84 55 -131.5t153 -47.5q138 0 222.5 115t89.5 275z" />
<glyph unicode="&#x4d9;" horiz-adv-x="1064" d="M172 981l111 25q102 22 192 22q247 0 381.5 -139t134.5 -383t-136.5 -386.5t-373.5 -142.5q-191 0 -295 92t-104 257q0 121 78.5 189t249.5 93l254 37q-54 107 -187 107q-61 0 -133 -15l-100 -22q-25 -6 -31 18l-59 215q-10 26 18 33zM686 442l-244 -34q-73 -9 -73 -76 q0 -37 31.5 -57.5t88.5 -20.5q80 0 133.5 45t63.5 143z" />
<glyph unicode="&#x4da;" horiz-adv-x="1359" d="M408 1921q87 0 132.5 -42.5t45.5 -125.5t-45.5 -125.5t-132.5 -42.5q-88 0 -134.5 42.5t-46.5 125.5t46.5 125.5t134.5 42.5zM874 1921q87 0 133 -42.5t46 -125.5t-46 -125.5t-133 -42.5q-88 0 -134 42.5t-46 125.5t46 125.5t134 42.5zM203 1395l114 32q161 48 304 48 q298 0 472.5 -202t174.5 -550q0 -343 -176.5 -544.5t-473.5 -201.5q-256 0 -399 125.5t-143 348.5q0 182 105.5 288t318.5 146l397 73q-30 91 -103.5 155.5t-172.5 64.5q-135 0 -226 -29l-102 -31q-23 -9 -33 17l-76 225q-8 25 19 35zM930 662l-381 -72q-139 -26 -139 -139 q0 -84 55 -131.5t153 -47.5q138 0 222.5 115t89.5 275z" />
<glyph unicode="&#x4db;" horiz-adv-x="1064" d="M352 1507q78 0 121 -43.5t43 -124.5q0 -80 -43 -125t-121 -45q-77 0 -120.5 45.5t-43.5 124.5q0 81 43.5 124.5t120.5 43.5zM764 1507q78 0 121 -43.5t43 -124.5q0 -80 -43 -125t-121 -45q-77 0 -120.5 45.5t-43.5 124.5q0 81 43.5 124.5t120.5 43.5zM172 981l111 25 q102 22 192 22q247 0 381.5 -139t134.5 -383t-136.5 -386.5t-373.5 -142.5q-191 0 -295 92t-104 257q0 121 78.5 189t249.5 93l254 37q-54 107 -187 107q-61 0 -133 -15l-100 -22q-25 -6 -31 18l-59 215q-10 26 18 33zM686 442l-244 -34q-73 -9 -73 -76q0 -37 31.5 -57.5 t88.5 -20.5q80 0 133.5 45t63.5 143z" />
<glyph unicode="&#x4dc;" horiz-adv-x="2015" d="M768 1921q87 0 132.5 -42.5t45.5 -125.5t-45.5 -125.5t-132.5 -42.5q-88 0 -134 42.5t-46 125.5t46 125.5t134 42.5zM1235 1921q87 0 132.5 -42.5t45.5 -125.5t-45.5 -125.5t-132.5 -42.5q-88 0 -134 42.5t-46 125.5t46 125.5t134 42.5zM1911 1421l-215 -475 q-34 -80 -73 -119.5t-105 -66.5q-8 -3 -8 -12.5t8 -12.5q63 -31 106 -81.5t78 -127.5l227 -495q6 -13 0.5 -22t-20.5 -9h-293q-22 0 -31 20l-145 316q-7 14 -23 51t-24.5 54.5t-25 48t-30.5 46t-34 33.5t-43 25.5t-50 7.5h-39v-575q0 -27 -26 -27h-277q-26 0 -26 27v575h-39 q-23 0 -44.5 -7.5t-37 -17t-32.5 -29t-27.5 -34t-25 -43t-21 -43t-21 -47.5t-19.5 -45l-145 -316q-9 -20 -31 -20h-293q-15 0 -20.5 9t0.5 22l225 495q65 147 185 209q8 3 8 12.5t-8 12.5q-65 27 -104 66.5t-73 119.5l-215 475q-6 13 0 22t21 9h293q22 0 31 -20l133 -297 q51 -115 79 -155q61 -89 142 -89h39v534q0 27 26 27h277q26 0 26 -27v-534h39q20 0 38 4t35 16t29 20t27 29.5t22.5 30t21.5 37t17.5 35t18 38.5t15.5 34l131 297q9 20 30 20h295q15 0 21 -9t0 -22z" />
<glyph unicode="&#x4dd;" horiz-adv-x="1628" d="M606 1509q78 0 121 -43.5t43 -124.5q0 -80 -43 -125t-121 -45q-77 0 -120.5 45.5t-43.5 124.5q0 81 43.5 124.5t120.5 43.5zM1018 1509q78 0 121 -43.5t43 -124.5q0 -80 -43 -125t-121 -45q-77 0 -120.5 45.5t-43.5 124.5q0 81 43.5 124.5t120.5 43.5zM1526 975 l-133 -299q-51 -124 -133 -154q-7 -3 -6.5 -10t6.5 -12q49 -23 81.5 -59t61.5 -101l141 -309q6 -13 0.5 -22t-20.5 -9h-287q-22 0 -33 20l-125 271q-16 37 -37 56.5t-38 19.5h-29v-340q0 -12 -7.5 -19.5t-19.5 -7.5h-270q-12 0 -19.5 7.5t-7.5 19.5v340h-26 q-20 0 -40.5 -19.5t-37.5 -56.5l-125 -271q-11 -20 -33 -20h-285q-15 0 -20.5 9t0.5 22l141 309q27 63 60 99.5t82 60.5q7 4 7 11.5t-7 10.5q-80 30 -131 154l-134 299q-6 13 0 22t21 9h285q21 0 30 -21l80 -186q26 -60 57.5 -104t59.5 -44h16v328q0 12 7.5 19.5t19.5 7.5 h270q12 0 19.5 -7.5t7.5 -19.5v-328h18q28 0 60 44.5t55 103.5l80 186q9 21 31 21h286q15 0 21 -9t0 -22z" />
<glyph unicode="&#x4de;" horiz-adv-x="1318" d="M408 1921q87 0 132.5 -42.5t45.5 -125.5t-45.5 -125.5t-132.5 -42.5q-88 0 -134.5 42.5t-46.5 125.5t46.5 125.5t134.5 42.5zM874 1921q87 0 133 -42.5t46 -125.5t-46 -125.5t-133 -42.5q-88 0 -134 42.5t-46 125.5t46 125.5t134 42.5zM145 1374l131 45q173 56 355 56 q248 0 390 -108t142 -296q0 -102 -43 -175.5t-141 -125.5q-11 -6 -15 -13t0 -13.5t15 -10.5q238 -88 238 -319q0 -191 -158.5 -314t-429.5 -123q-165 0 -355 58l-145 47q-25 9 -16 33l86 225q6 26 32 16l140 -45q118 -39 252 -39q125 0 195.5 42.5t70.5 123.5q0 86 -61 125 t-185 39h-186q-12 0 -19.5 7.5t-7.5 19.5v235q0 12 7.5 19.5t19.5 7.5h186q92 0 142.5 38t50.5 103q0 69 -56 107.5t-162 38.5q-136 0 -249 -39l-121 -41q-25 -10 -35 16l-84 227q-9 25 16 33z" />
<glyph unicode="&#x4df;" horiz-adv-x="1017" d="M293 1509q78 0 121 -43.5t43 -124.5q0 -80 -43 -125t-121 -45q-77 0 -120.5 45.5t-43.5 124.5q0 81 43.5 124.5t120.5 43.5zM705 1509q78 0 120.5 -43.5t42.5 -124.5q0 -80 -42.5 -125t-120.5 -45q-77 0 -120.5 45.5t-43.5 124.5q0 81 43.5 124.5t120.5 43.5zM131 971 l109 28q116 29 237 29q197 0 310.5 -78.5t113.5 -216.5q0 -155 -129 -203q-9 -2 -12 -7t0 -10.5t12 -8.5q83 -26 127.5 -74.5t44.5 -140.5q0 -143 -124 -227.5t-339 -84.5q-131 0 -258 33l-114 29q-12 3 -17.5 12t-1.5 21l62 211q9 24 32 18l109 -25q87 -22 186 -22 q160 0 160 78q0 31 -37 48t-100 17h-164q-12 0 -19.5 7.5t-7.5 19.5v170q0 12 7.5 19.5t19.5 7.5h162q46 0 72 15.5t26 43.5q0 72 -123 72q-81 0 -174 -21l-96 -24q-24 -6 -33 18l-59 213q-9 27 18 33z" />
<glyph unicode="&#x4e0;" horiz-adv-x="1300" d="M170 1452h948q22 0 31 -18l4 -7q12 -19 -2 -36q-96 -122 -152 -207l-127 -189q-52 -75 -79 -102t10 -31q185 -14 290 -126t105 -302q0 -210 -158.5 -333.5t-429.5 -123.5q-172 0 -352 56l-149 47q-25 10 -17 35l84 221q10 26 35 16l139 -45q111 -35 254 -35 q123 0 193.5 44t70.5 122q0 72 -56 113t-161 41h-196q-27 0 -27 26v234q0 18 12 33q29 34 56 76l57 81q29 41 65 82q23 23 19 30t-35 7h-188h-244q-12 0 -19.5 7.5t-7.5 19.5v237q0 12 7.5 19.5t19.5 7.5z" />
<glyph unicode="&#x4e1;" horiz-adv-x="1044" d="M938 989q9 -18 -2 -35q-118 -187 -135 -217l-107 -200q-33 -69 -65 -105q-12 -15 -8.5 -19.5t18.5 -6.5q166 -20 255 -124.5t89 -283.5q0 -227 -142 -349t-395 -122q-126 0 -311 53l-57 17q-27 9 -19 34l68 224q9 24 33 18l63 -18q134 -39 217 -39q107 0 166.5 45.5 t59.5 128.5q0 73 -44.5 116.5t-123.5 43.5h-164q-27 0 -27 26v230q0 20 10 32q30 41 56 94l41 76q25 57 41 78q14 22 11 28.5t-22 6.5h-153h-187q-26 0 -26 27v231q0 27 26 27h803q23 0 31 -17z" />
<glyph unicode="&#x4e2;" horiz-adv-x="1499" d="M436 1860h649q12 0 19.5 -7.5t7.5 -19.5v-174q0 -12 -7.5 -19.5t-19.5 -7.5h-649q-26 0 -26 27v174q0 27 26 27zM1366 1425v-1398q0 -12 -7.5 -19.5t-19.5 -7.5h-276q-12 0 -19.5 7.5t-7.5 19.5v577q0 223 23 369q3 23 -10 27.5t-23 -19.5q-23 -41 -74 -150l-293 -593 q-74 -151 -104 -218q-9 -20 -31 -20h-364q-12 0 -19.5 7.5t-7.5 19.5v1398q0 12 7.5 19.5t19.5 7.5h278q12 0 19.5 -7.5t7.5 -19.5v-573q0 -208 -23 -373q-2 -21 10.5 -25.5t24.5 17.5q56 118 74 154l291 589q72 149 102 218q9 20 31 20h364q12 0 19.5 -7.5t7.5 -19.5z" />
<glyph unicode="&#x4e3;" horiz-adv-x="1189" d="M330 1417h534q27 0 27 -26v-162q0 -12 -7.5 -19.5t-19.5 -7.5h-534q-12 0 -19.5 7.5t-7.5 19.5v162q0 26 27 26zM1051 0h-269q-26 0 -26 27v186q0 200 22 340q2 10 -2.5 17t-12 4.5t-13.5 -15.5q-24 -43 -66 -129l-115 -256q-36 -82 -61 -154q-9 -20 -31 -20h-338 q-26 0 -26 27v952q0 27 26 27h273q26 0 26 -27v-186q0 -190 -24 -340q-3 -16 7.5 -21t20.5 14q43 81 66 132l113 256q35 79 61 151q9 21 31 21h338q26 0 26 -27v-952q0 -27 -26 -27z" />
<glyph unicode="&#x4e4;" horiz-adv-x="1499" d="M522 1917q87 0 132.5 -42.5t45.5 -125.5t-45.5 -125.5t-132.5 -42.5q-88 0 -134 42.5t-46 125.5t46 125.5t134 42.5zM989 1917q87 0 132.5 -42.5t45.5 -125.5t-45.5 -125.5t-132.5 -42.5q-88 0 -134 42.5t-46 125.5t46 125.5t134 42.5zM1366 1425v-1398q0 -12 -7.5 -19.5 t-19.5 -7.5h-276q-12 0 -19.5 7.5t-7.5 19.5v577q0 223 23 369q3 23 -10 27.5t-23 -19.5q-23 -41 -74 -150l-293 -593q-74 -151 -104 -218q-9 -20 -31 -20h-364q-12 0 -19.5 7.5t-7.5 19.5v1398q0 12 7.5 19.5t19.5 7.5h278q12 0 19.5 -7.5t7.5 -19.5v-573q0 -208 -23 -373 q-2 -21 10.5 -25.5t24.5 17.5q56 118 74 154l291 589q72 149 102 218q9 20 31 20h364q12 0 19.5 -7.5t7.5 -19.5z" />
<glyph unicode="&#x4e5;" horiz-adv-x="1189" d="M389 1509q78 0 121 -43.5t43 -124.5q0 -80 -43 -125t-121 -45q-77 0 -120.5 45.5t-43.5 124.5q0 81 43.5 124.5t120.5 43.5zM801 1509q78 0 121 -43.5t43 -124.5q0 -80 -43 -125t-121 -45q-77 0 -120.5 45.5t-43.5 124.5q0 81 43.5 124.5t120.5 43.5zM1051 0h-269 q-26 0 -26 27v186q0 200 22 340q2 10 -2.5 17t-12 4.5t-13.5 -15.5q-24 -43 -66 -129l-115 -256q-36 -82 -61 -154q-9 -20 -31 -20h-338q-26 0 -26 27v952q0 27 26 27h273q26 0 26 -27v-186q0 -190 -24 -340q-3 -16 7.5 -21t20.5 14q43 81 66 132l113 256q35 79 61 151 q9 21 31 21h338q26 0 26 -27v-952q0 -27 -26 -27z" />
<glyph unicode="&#x4e6;" horiz-adv-x="1488" d="M506 1921q87 0 132.5 -42.5t45.5 -125.5t-45.5 -125.5t-132.5 -42.5q-88 0 -134 42.5t-46 125.5t46 125.5t134 42.5zM973 1921q87 0 132.5 -42.5t45.5 -125.5t-45.5 -125.5t-132.5 -42.5q-88 0 -134 42.5t-46 125.5t46 125.5t134 42.5zM745 1475q302 0 477 -201t175 -547 q0 -345 -175 -547.5t-477 -202.5q-303 0 -478 202t-175 548t174.5 547t478.5 201zM745 1178q-150 0 -234.5 -118.5t-84.5 -332.5q0 -211 85 -333t234 -122t233.5 122t84.5 333q0 214 -84 332.5t-234 118.5z" />
<glyph unicode="&#x4e7;" horiz-adv-x="1142" d="M362 1509q78 0 121 -43.5t43 -124.5q0 -80 -43 -125t-121 -45q-76 0 -119.5 45t-43.5 125q0 81 43 124.5t120 43.5zM774 1509q78 0 121 -43.5t43 -124.5q0 -80 -43 -125t-121 -45q-77 0 -120.5 45.5t-43.5 124.5q0 81 43.5 124.5t120.5 43.5zM571 1028q230 0 364 -142 t134 -382q0 -243 -134 -385t-364 -142q-231 0 -365 142t-134 385q0 240 134 382t365 142zM571 739q-85 0 -133.5 -62.5t-48.5 -172.5q0 -112 48.5 -176t133.5 -64q84 0 132.5 64t48.5 176q0 110 -48.5 172.5t-132.5 62.5z" />
<glyph unicode="&#x4e8;" horiz-adv-x="1488" d="M745 1470q302 0 477 -201t175 -546q0 -343 -175 -544.5t-477 -201.5q-301 0 -477 201.5t-176 544.5q0 344 176 545.5t477 201.5zM424 889h641q-31 135 -114 210t-206 75q-122 0 -206 -75.5t-115 -209.5zM1075 600h-661q25 -156 111.5 -242t219.5 -86q134 0 219.5 86 t110.5 242z" />
<glyph unicode="&#x4e9;" horiz-adv-x="1142" d="M571 1030q230 0 364 -142t134 -384q0 -243 -134 -385t-364 -142q-233 0 -367 141.5t-134 385.5q0 242 134.5 384t366.5 142zM385 608h371q-42 131 -185 131q-144 0 -186 -131zM758 406h-375q39 -142 188 -142q73 0 120.5 37t66.5 105z" />
<glyph unicode="&#x4ea;" horiz-adv-x="1488" d="M510 1921q87 0 132.5 -42.5t45.5 -125.5t-45.5 -125.5t-132.5 -42.5q-88 0 -134 42.5t-46 125.5t46 125.5t134 42.5zM977 1921q87 0 132.5 -42.5t45.5 -125.5t-45.5 -125.5t-132.5 -42.5q-88 0 -134 42.5t-46 125.5t46 125.5t134 42.5zM745 1470q302 0 477 -201t175 -546 q0 -343 -175 -544.5t-477 -201.5q-301 0 -477 201.5t-176 544.5q0 344 176 545.5t477 201.5zM424 889h641q-31 135 -114 210t-206 75q-122 0 -206 -75.5t-115 -209.5zM1075 600h-661q25 -156 111.5 -242t219.5 -86q134 0 219.5 86t110.5 242z" />
<glyph unicode="&#x4eb;" horiz-adv-x="1144" d="M362 1507q78 0 121 -43.5t43 -124.5q0 -80 -43 -125t-121 -45q-76 0 -119.5 45t-43.5 125q0 81 43 124.5t120 43.5zM774 1507q78 0 121 -43.5t43 -124.5q0 -80 -43 -125t-121 -45q-77 0 -120.5 45.5t-43.5 124.5q0 81 43.5 124.5t120.5 43.5zM571 1030q230 0 364 -142 t134 -384q0 -243 -134 -385t-364 -142q-233 0 -367 141.5t-134 385.5q0 242 134.5 384t366.5 142zM385 608h371q-42 131 -185 131q-144 0 -186 -131zM758 406h-375q39 -142 188 -142q73 0 120.5 37t66.5 105z" />
<glyph unicode="&#x4ec;" d="M348 1581q-88 0 -134 42.5t-46 125.5t46 125.5t134 42.5q87 0 132.5 -42.5t45.5 -125.5t-45.5 -125.5t-132.5 -42.5zM815 1581q-88 0 -134 42.5t-46 125.5t46 125.5t134 42.5q87 0 132.5 -42.5t45.5 -125.5t-45.5 -125.5t-132.5 -42.5zM135 1401l94 31q133 43 306 43 q308 0 485.5 -201.5t177.5 -546.5q0 -347 -177.5 -548.5t-485.5 -201.5q-158 0 -308 50l-98 32q-25 8 -16 33l82 223q10 25 32 17l97 -29q92 -31 211 -31q130 0 213 85.5t108 244.5h-508q-26 0 -26 27v235q0 27 26 27h500q-29 138 -110.5 212.5t-202.5 74.5q-125 0 -213 -27 l-97 -31q-22 -8 -32 17l-74 231q-9 24 16 33z" />
<glyph unicode="&#x4ed;" horiz-adv-x="995" d="M279 1171q-77 0 -120.5 45.5t-43.5 124.5q0 81 43.5 124.5t120.5 43.5q78 0 120.5 -43.5t42.5 -124.5q0 -80 -42.5 -125t-120.5 -45zM690 1171q-77 0 -120.5 45.5t-43.5 124.5q0 81 43.5 124.5t120.5 43.5q78 0 121 -43.5t43 -124.5q0 -80 -43 -125t-121 -45zM127 977 l115 31q74 20 164 20q249 0 382.5 -139.5t133.5 -384.5q0 -246 -133.5 -386.5t-376.5 -140.5q-101 0 -176 21l-117 33q-27 7 -19 32l66 213q9 25 33 19l80 -23q77 -18 127 -18q161 0 196 154h-315q-27 0 -27 26v150q0 26 27 26h313q-36 142 -197 142q-49 0 -114 -19l-82 -22 q-24 -6 -33 18l-65 213q-9 26 18 35z" />
<glyph unicode="&#x4ee;" horiz-adv-x="1447" d="M395 1864h649q12 0 19.5 -7.5t7.5 -19.5v-174q0 -12 -7.5 -19.5t-19.5 -7.5h-649q-26 0 -26 27v174q0 27 26 27zM1393 1421l-498 -1046q-93 -194 -227.5 -284.5t-321.5 -90.5h-92q-12 0 -19.5 7.5t-7.5 19.5v235q0 12 7.5 19.5t19.5 7.5h92q74 0 116 44.5t42 123.5 q0 98 -80 250l-377 714q-7 13 -1.5 22t20.5 9h303q21 0 30 -18l189 -359q97 -180 131 -305q5 -18 18 -18t19 18q67 199 118 305l168 357q11 20 33 20h297q15 0 21 -9t0 -22z" />
<glyph unicode="&#x4ef;" horiz-adv-x="1181" d="M324 1417h534q27 0 27 -26v-162q0 -12 -7.5 -19.5t-19.5 -7.5h-534q-12 0 -19.5 7.5t-7.5 19.5v162q0 26 27 26zM1128 975l-372 -1006q-80 -216 -202.5 -317t-309.5 -101h-99q-26 0 -26 27v232q0 26 26 26h86q67 0 102.5 23.5t57.5 79.5l6 18q24 59 0.5 144t-98.5 268 l-246 606q-6 13 0.5 22t20.5 9h284q22 0 31 -21l107 -283q62 -155 90 -319q3 -13 11 -18t15.5 0t10.5 18q32 194 77 319l97 281q9 23 30 23h281q15 0 20.5 -9t-0.5 -22z" />
<glyph unicode="&#x4f0;" horiz-adv-x="1447" d="M481 1921q87 0 132.5 -42.5t45.5 -125.5t-45.5 -125.5t-132.5 -42.5q-88 0 -134 42.5t-46 125.5t46 125.5t134 42.5zM948 1921q87 0 132.5 -42.5t45.5 -125.5t-45.5 -125.5t-132.5 -42.5q-88 0 -134 42.5t-46 125.5t46 125.5t134 42.5zM1393 1421l-498 -1046 q-93 -194 -227.5 -284.5t-321.5 -90.5h-92q-12 0 -19.5 7.5t-7.5 19.5v235q0 12 7.5 19.5t19.5 7.5h92q74 0 116 44.5t42 123.5q0 98 -80 250l-377 714q-7 13 -1.5 22t20.5 9h303q21 0 30 -18l189 -359q97 -180 131 -305q5 -18 18 -18t19 18q67 199 118 305l168 357 q11 20 33 20h297q15 0 21 -9t0 -22z" />
<glyph unicode="&#x4f1;" horiz-adv-x="1181" d="M383 1509q78 0 121 -43.5t43 -124.5q0 -80 -43 -125t-121 -45q-77 0 -120.5 45.5t-43.5 124.5q0 81 43.5 124.5t120.5 43.5zM795 1509q78 0 120.5 -43.5t42.5 -124.5q0 -80 -42.5 -125t-120.5 -45q-77 0 -120.5 45.5t-43.5 124.5q0 81 43.5 124.5t120.5 43.5zM1128 975 l-372 -1006q-80 -216 -202.5 -317t-309.5 -101h-99q-26 0 -26 27v232q0 26 26 26h86q67 0 102.5 23.5t57.5 79.5l6 18q24 59 0.5 144t-98.5 268l-246 606q-6 13 0.5 22t20.5 9h284q22 0 31 -21l107 -283q62 -155 90 -319q3 -13 11 -18t15.5 0t10.5 18q32 194 77 319l97 281 q9 23 30 23h281q15 0 20.5 -9t-0.5 -22z" />
<glyph unicode="&#x4f2;" horiz-adv-x="1447" d="M764 1868l-111 -240q-11 -20 -32 -20h-234q-32 0 -22 30l77 238q8 22 31 22h270q15 0 21 -8.5t0 -21.5zM1223 1866l-136 -240q-9 -18 -30 -18h-248q-15 0 -21 8.5t0 21.5l111 240q11 20 33 20h272q15 0 20.5 -9t-1.5 -23zM1393 1421l-498 -1046q-93 -194 -227.5 -284.5 t-321.5 -90.5h-92q-12 0 -19.5 7.5t-7.5 19.5v235q0 12 7.5 19.5t19.5 7.5h92q74 0 116 44.5t42 123.5q0 98 -80 250l-377 714q-7 13 -1.5 22t20.5 9h303q21 0 30 -18l189 -359q97 -180 131 -305q5 -18 18 -18t19 18q67 199 118 305l168 357q11 20 33 20h297q15 0 21 -9 t0 -22z" />
<glyph unicode="&#x4f3;" horiz-adv-x="1181" d="M623 1460l-95 -297q-6 -22 -28 -22h-201q-31 0 -25 28l66 299q7 23 31 23h231q14 0 19.5 -9t1.5 -22zM1030 1460l-123 -299q-9 -20 -30 -20h-201q-14 0 -19.5 8.5t-1.5 21.5l95 297q6 23 28 23h232q14 0 20 -9t0 -22zM1128 975l-372 -1006q-80 -216 -202.5 -317 t-309.5 -101h-99q-26 0 -26 27v232q0 26 26 26h86q67 0 102.5 23.5t57.5 79.5l6 18q24 59 0.5 144t-98.5 268l-246 606q-6 13 0.5 22t20.5 9h284q22 0 31 -21l107 -283q62 -155 90 -319q3 -13 11 -18t15.5 0t10.5 18q32 194 77 319l97 281q9 23 30 23h281q15 0 20.5 -9 t-0.5 -22z" />
<glyph unicode="&#x4f4;" horiz-adv-x="1366" d="M430 1921q87 0 132.5 -42.5t45.5 -125.5t-45.5 -125.5t-132.5 -42.5q-88 0 -134 42.5t-46 125.5t46 125.5t134 42.5zM897 1921q87 0 132.5 -42.5t45.5 -125.5t-45.5 -125.5t-132.5 -42.5q-88 0 -134 42.5t-46 125.5t46 125.5t134 42.5zM1204 0h-276q-12 0 -19.5 7.5 t-7.5 19.5v518l-65 -25q-110 -39 -248 -39q-230 0 -358 129.5t-128 360.5v454q0 12 7.5 19.5t19.5 7.5h277q26 0 26 -27v-395q0 -130 45.5 -191t143.5 -61q73 0 159 27l121 41v579q0 12 7.5 19.5t19.5 7.5h276q12 0 19.5 -7.5t7.5 -19.5v-1398q0 -12 -7.5 -19.5t-19.5 -7.5z " />
<glyph unicode="&#x4f5;" horiz-adv-x="1093" d="M322 1509q78 0 120.5 -43.5t42.5 -124.5q0 -80 -42.5 -125t-120.5 -45q-77 0 -120.5 45.5t-43.5 124.5q0 81 43.5 124.5t120.5 43.5zM733 1509q78 0 121 -43.5t43 -124.5q0 -80 -43 -125t-121 -45q-77 0 -120.5 45.5t-43.5 124.5q0 81 43.5 124.5t120.5 43.5zM979 979 v-952q0 -12 -7.5 -19.5t-19.5 -7.5h-270q-12 0 -19.5 7.5t-7.5 19.5v313l-4 -2q-22 -9 -28 -10q-95 -21 -158 -21q-181 0 -282 94t-101 261v317q0 12 7.5 19.5t19.5 7.5h270q12 0 19.5 -7.5t7.5 -19.5v-279q0 -104 108 -104q36 0 74 10l67 19v354q0 12 7.5 19.5t19.5 7.5 h270q12 0 19.5 -7.5t7.5 -19.5z" />
<glyph unicode="&#x4f6;" horiz-adv-x="1208" d="M465 1161v-872h145q12 0 19.5 -7.5t7.5 -19.5v-624q0 -12 -7.5 -19.5t-19.5 -7.5h-258q-26 0 -26 27v362h-166q-12 0 -19.5 7.5t-7.5 19.5v1398q0 12 7.5 19.5t19.5 7.5h938q13 0 19 -8.5t3 -22.5l-65 -237q-7 -23 -29 -23h-561z" />
<glyph unicode="&#x4f7;" horiz-adv-x="948" d="M438 721v-438h115q12 0 19.5 -7.5t7.5 -19.5v-557q0 -12 -7.5 -19.5t-19.5 -7.5h-244q-26 0 -26 27v301h-144q-26 0 -26 27v952q0 27 26 27h719q13 0 19.5 -8.5t3.5 -22.5l-66 -232q-6 -22 -29 -22h-348z" />
<glyph unicode="&#x4f8;" horiz-adv-x="1855" d="M678 1917q87 0 132.5 -42.5t45.5 -125.5t-45.5 -125.5t-132.5 -42.5q-88 0 -134 42.5t-46 125.5t46 125.5t134 42.5zM1145 1917q87 0 132.5 -42.5t45.5 -125.5t-45.5 -125.5t-132.5 -42.5q-88 0 -134 42.5t-46 125.5t46 125.5t134 42.5zM160 1452h278q12 0 19.5 -7.5 t7.5 -19.5v-436h176q280 0 435 -133.5t155 -372.5q0 -228 -136.5 -355.5t-381.5 -127.5h-553q-12 0 -19.5 7.5t-7.5 19.5v1398q0 12 7.5 19.5t19.5 7.5zM1391 27v1398q0 27 26 27h279q26 0 26 -27v-1398q0 -27 -26 -27h-279q-26 0 -26 27zM465 291h248q88 0 136 50.5 t48 141.5q0 103 -67.5 160t-188.5 57h-176v-409z" />
<glyph unicode="&#x4f9;" horiz-adv-x="1546" d="M547 1507q78 0 121 -43.5t43 -124.5q0 -80 -43 -125t-121 -45q-77 0 -120.5 45.5t-43.5 124.5q0 81 43.5 124.5t120.5 43.5zM958 1507q78 0 121 -43.5t43 -124.5q0 -80 -43 -125t-121 -45q-76 0 -119.5 45t-43.5 125q0 81 43 124.5t120 43.5zM582 0h-443q-26 0 -26 27 v952q0 27 26 27h273q26 0 26 -27v-252h123q199 0 309.5 -98t110.5 -273q0 -168 -104.5 -262t-294.5 -94zM1434 977v-950q0 -12 -7.5 -19.5t-19.5 -7.5h-270q-12 0 -19.5 7.5t-7.5 19.5v950q0 12 7.5 19.5t19.5 7.5h270q12 0 19.5 -7.5t7.5 -19.5zM438 283h144 q39 0 60.5 19.5t21.5 53.5q0 40 -27 64t-76 24h-123v-161z" />
<glyph unicode="&#x2000;" horiz-adv-x="968" />
<glyph unicode="&#x2001;" horiz-adv-x="1937" />
<glyph unicode="&#x2002;" horiz-adv-x="968" />
<glyph unicode="&#x2003;" horiz-adv-x="1937" />
<glyph unicode="&#x2004;" horiz-adv-x="645" />
<glyph unicode="&#x2005;" horiz-adv-x="484" />
<glyph unicode="&#x2006;" horiz-adv-x="322" />
<glyph unicode="&#x2007;" horiz-adv-x="322" />
<glyph unicode="&#x2008;" horiz-adv-x="242" />
<glyph unicode="&#x2009;" horiz-adv-x="387" />
<glyph unicode="&#x200a;" horiz-adv-x="107" />
<glyph unicode="&#x2010;" horiz-adv-x="888" d="M164 674h563q12 0 19.5 -7.5t7.5 -19.5v-229q0 -12 -7.5 -19.5t-19.5 -7.5h-563q-12 0 -19.5 7.5t-7.5 19.5v229q0 12 7.5 19.5t19.5 7.5z" />
<glyph unicode="&#x2011;" horiz-adv-x="888" d="M164 674h563q12 0 19.5 -7.5t7.5 -19.5v-229q0 -12 -7.5 -19.5t-19.5 -7.5h-563q-12 0 -19.5 7.5t-7.5 19.5v229q0 12 7.5 19.5t19.5 7.5z" />
<glyph unicode="&#x2012;" horiz-adv-x="888" d="M164 674h563q12 0 19.5 -7.5t7.5 -19.5v-229q0 -12 -7.5 -19.5t-19.5 -7.5h-563q-12 0 -19.5 7.5t-7.5 19.5v229q0 12 7.5 19.5t19.5 7.5z" />
<glyph unicode="&#x2013;" horiz-adv-x="1429" d="M164 674h1104q26 0 26 -27v-229q0 -27 -26 -27h-1104q-12 0 -19.5 7.5t-7.5 19.5v229q0 12 7.5 19.5t19.5 7.5z" />
<glyph unicode="&#x2014;" horiz-adv-x="1730" d="M164 674h1405q26 0 26 -27v-229q0 -27 -26 -27h-1405q-12 0 -19.5 7.5t-7.5 19.5v229q0 12 7.5 19.5t19.5 7.5z" />
<glyph unicode="&#x2018;" horiz-adv-x="544" d="M283 1491l-72 -80q-121 -142 -121 -268q0 -97 48 -149t136 -52q87 0 135 46t48 130q0 61 -24 98t-71 62q-34 15 -36.5 33.5t26.5 52.5l109 127h-178z" />
<glyph unicode="&#x2019;" horiz-adv-x="544" d="M262 952l72 80q121 142 121 268q0 96 -48.5 148.5t-136.5 52.5q-87 0 -134.5 -46t-47.5 -130q0 -61 23.5 -98t70.5 -62q34 -15 37 -33.5t-26 -52.5l-109 -127h178z" />
<glyph unicode="&#x201a;" horiz-adv-x="544" d="M262 -190l72 79q121 142 121 269q0 96 -48.5 148t-136.5 52q-87 0 -134.5 -46t-47.5 -130q0 -61 23.5 -97.5t70.5 -61.5q34 -15 37 -33.5t-26 -52.5l-109 -127h178z" />
<glyph unicode="&#x201c;" horiz-adv-x="1013" d="M283 1491l-72 -80q-121 -142 -121 -268q0 -97 48 -149t136 -52q87 0 135 46t48 130q0 61 -24 98t-71 62q-34 15 -36.5 33.5t26.5 52.5l109 127h-178zM752 1491l-72 -80q-121 -142 -121 -268q0 -97 48 -149t136 -52q87 0 135 46t48 130q0 61 -24 98t-71 62 q-34 15 -36.5 33.5t26.5 52.5l109 127h-178z" />
<glyph unicode="&#x201d;" horiz-adv-x="1013" d="M262 952l72 80q121 142 121 268q0 96 -48.5 148.5t-136.5 52.5q-87 0 -134.5 -46t-47.5 -130q0 -61 23.5 -98t70.5 -62q34 -15 37 -33.5t-26 -52.5l-109 -127h178zM731 952l72 80q121 142 121 268q0 96 -48.5 148.5t-136.5 52.5q-87 0 -134.5 -46t-47.5 -130 q0 -61 23.5 -98t70.5 -62q34 -15 37 -33.5t-26 -52.5l-109 -127h178z" />
<glyph unicode="&#x201e;" horiz-adv-x="1013" d="M262 -190l72 79q121 142 121 269q0 96 -48.5 148t-136.5 52q-87 0 -134.5 -46t-47.5 -130q0 -61 23.5 -97.5t70.5 -61.5q34 -15 37 -33.5t-26 -52.5l-109 -127h178zM731 -190l72 79q121 142 121 269q0 96 -48.5 148t-136.5 52q-87 0 -134.5 -46t-47.5 -130 q0 -61 23.5 -97.5t70.5 -61.5q34 -15 37 -33.5t-26 -52.5l-109 -127h178z" />
<glyph unicode="&#x2022;" horiz-adv-x="907" d="M451 1040q141 0 221 -84.5t80 -234.5q0 -145 -80 -227t-221 -82q-137 0 -216 82.5t-79 226.5q0 150 79 234.5t216 84.5z" />
<glyph unicode="&#x2026;" horiz-adv-x="1507" d="M289 358q89 0 138.5 -49.5t49.5 -140.5q0 -90 -49.5 -140.5t-138.5 -50.5q-88 0 -137.5 51t-49.5 140q0 90 49.5 140t137.5 50zM764 358q89 0 138.5 -49.5t49.5 -140.5q0 -90 -49.5 -140.5t-138.5 -50.5q-88 0 -137 51t-49 140q0 90 49 140t137 50zM1237 358 q89 0 138.5 -49.5t49.5 -140.5q0 -90 -49.5 -140.5t-138.5 -50.5q-88 0 -137 51t-49 140q0 90 49 140t137 50z" />
<glyph unicode="&#x202f;" horiz-adv-x="387" />
<glyph unicode="&#x2039;" horiz-adv-x="837" d="M440 504l258 -377q9 -13 5 -23t-21 -10h-279q-21 0 -32 17l-244 360q-10 13 -10 33v2q0 20 10 33l238 358q13 16 32 16h285q17 0 21 -9.5t-5 -22.5z" />
<glyph unicode="&#x203a;" horiz-adv-x="837" d="M397 504l-258 377q-9 13 -4.5 22.5t21.5 9.5h284q20 0 33 -16l238 -358q10 -13 10 -33v-2q0 -20 -10 -33l-244 -360q-14 -17 -33 -17h-278q-17 0 -21.5 10t4.5 23z" />
<glyph unicode="&#x205f;" horiz-adv-x="484" />
<glyph unicode="&#x20ac;" horiz-adv-x="1443" d="M1249 315l82 -223q9 -25 -16 -33l-98 -32q-150 -50 -308 -50q-245 0 -409.5 130t-223.5 364h-178q-26 0 -26 27v157q0 27 26 27h148v45q0 46 2 66h-150q-26 0 -26 26v158q0 27 26 27h183q64 223 226.5 347t401.5 124q172 0 305 -43l95 -31q25 -9 16 -33l-74 -231 q-10 -25 -32 -17l-97 31q-88 27 -213 27q-189 0 -274 -174h393q15 0 21 -9t0 -22l-64 -160q-9 -20 -31 -20h-372q-2 -20 -2 -66l2 -45h329q15 0 21 -9t0 -22l-62 -159q-9 -21 -30 -21h-217q40 -97 113 -148t173 -51q119 0 211 31l97 29q22 8 32 -17z" />
<glyph unicode="&#x2122;" horiz-adv-x="1955" d="M795 1425v-155q0 -12 -7.5 -19.5t-19.5 -7.5h-233v-579q0 -12 -7.5 -19.5t-19.5 -7.5h-174q-12 0 -19.5 7.5t-7.5 19.5v579h-231q-12 0 -19.5 7.5t-7.5 19.5v155q0 12 7.5 19.5t19.5 7.5h692q12 0 19.5 -7.5t7.5 -19.5zM1847 1425v-761q0 -27 -26 -27h-174 q-12 0 -19.5 7.5t-7.5 19.5v139q0 216 22 338q3 12 -6 15.5t-14 -7.5q-6 -17 -20.5 -50t-18.5 -44l-55 -142q-1 -2 -15.5 -36t-19.5 -50q-9 -20 -31 -20h-162q-22 0 -28 22q-26 64 -33 84l-55 142q-36 80 -41 94q-6 11 -16 7.5t-7 -15.5q27 -150 27 -338v-139 q0 -12 -7.5 -19.5t-19.5 -7.5h-176q-26 0 -26 27v761q0 27 26 27h270q23 0 31 -22q2 -7 11.5 -31t11.5 -33l26 -70q5 -13 38.5 -99t41.5 -122q3 -9 8.5 -9t8.5 9q10 45 79 221l27 70q2 9 9 31t10 33q8 22 30 22h275q26 0 26 -27z" />
<glyph unicode="&#x25fc;" horiz-adv-x="1003" d="M0 1004h1004v-1004h-1004v1004z" />
</font>
</defs>
</svg>
